<?xml version="1.0" encoding="UTF-8" standalone="no"?>
<svg
   xmlns:dc="http://purl.org/dc/elements/1.1/"
   xmlns:cc="http://creativecommons.org/ns#"
   xmlns:rdf="http://www.w3.org/1999/02/22-rdf-syntax-ns#"
   xmlns:svg="http://www.w3.org/2000/svg"
   xmlns="http://www.w3.org/2000/svg"
   xmlns:sodipodi="http://sodipodi.sourceforge.net/DTD/sodipodi-0.dtd"
   xmlns:inkscape="http://www.inkscape.org/namespaces/inkscape"
   version="1.0"
   width="3188.856pt"
   height="1986.7623pt"
   viewBox="0 0 3188.856 1986.7623"
   preserveAspectRatio="xMidYMid meet"
   id="svg2"
   inkscape:version="0.91 r13725"
   sodipodi:docname="plugs-distance.svg"
   inkscape:export-filename="/home/churchyard/RepRap/BI-3DT/powerplugs-task/pics/plugs-distance.svg.png"
   inkscape:export-xdpi="21"
   inkscape:export-ydpi="21">
  <defs
     id="defs18" />
  <sodipodi:namedview
     pagecolor="#ffffff"
     bordercolor="#666666"
     borderopacity="1"
     objecttolerance="10"
     gridtolerance="10"
     guidetolerance="10"
     inkscape:pageopacity="0"
     inkscape:pageshadow="2"
     inkscape:window-width="1848"
     inkscape:window-height="1056"
     id="namedview16"
     showgrid="false"
     fit-margin-top="0"
     fit-margin-left="0"
     fit-margin-right="0"
     fit-margin-bottom="0"
     inkscape:zoom="0.26383285"
     inkscape:cx="1293.9859"
     inkscape:cy="1378.6386"
     inkscape:window-x="72"
     inkscape:window-y="0"
     inkscape:window-maximized="1"
     inkscape:current-layer="svg2" />
  <metadata
     id="metadata4">
Created by potrace 1.13, written by Peter Selinger 2001-2015
<rdf:RDF>
  <cc:Work
     rdf:about="">
    <dc:format>image/svg+xml</dc:format>
    <dc:type
       rdf:resource="http://purl.org/dc/dcmitype/StillImage" />
    <dc:title />
  </cc:Work>
</rdf:RDF>
</metadata>
  <path
     style="opacity:1;fill:#bfbfbf;fill-opacity:1;stroke:none;stroke-width:17.92000008;stroke-linecap:round;stroke-linejoin:round;stroke-miterlimit:4;stroke-dasharray:none;stroke-opacity:1"
     d="M 1020.0079,494.25337 C 923.60395,491.61811 824.28852,508.43359 743.53559,564.19853 612.64264,640.56586 500.25684,751.3091 435.16341,889.3006 c -53.86855,113.787 -90.25915,240.022 -77.59819,366.9791 3.27588,126.1784 46.09745,248.4725 102.27385,360.2698 62.81938,114.0191 156.86729,209.3722 261.87857,285.0662 128.42677,76.2582 271.19853,134.0692 420.17346,152.2021 136.3693,12.9334 292.1252,10.1807 400.9825,-84.9266 101.7717,-92.6609 169.7152,-217.9677 200.0519,-351.6534 24.1842,-93.338 36.6014,-189.1799 46.0499,-284.9826 -8.2184,-10.5644 -49.8794,-16.7381 -29.0627,-38.4327 19.6052,-17.1369 39.2583,-33.5656 28.3602,-62.7408 -4.6336,-175.2286 -44.592,-360.33913 -165.09,-494.02531 -106.6224,-111.92554 -250.4392,-181.2502 -396.5738,-225.89797 -67.3529,-17.34768 -137.5597,-16.95813 -206.6012,-16.90505 z"
     id="path4834"
     inkscape:connector-curvature="0"
     transform="scale(0.8,0.8)" />
  <path
     style="opacity:1;fill:#bfbfbf;fill-opacity:1;stroke:none;stroke-width:17.92000008;stroke-linecap:round;stroke-linejoin:round;stroke-miterlimit:4;stroke-dasharray:none;stroke-opacity:1"
     d="m 2740.5164,471.01161 c -94.7708,1.11348 -185.606,32.98025 -274.7449,61.49646 -98.26,90.15352 -182.2781,198.23388 -227.5445,324.8441 -47.3132,128.26268 -75.8159,263.97633 -86.1775,400.07913 -1.3122,20.2466 35.4886,35.3096 8.3021,49.8338 -31.3137,21.9082 -8.6909,63.7939 -12.565,95.481 3.0293,133.1765 49.0369,264.8911 134.2388,367.8258 95.0341,132.8589 239.2365,229.0886 399.7898,261.3024 219.8377,50.073 460.9292,-13.9405 632.8566,-158.2325 150.5013,-127.6687 234.4809,-319.5262 261.3634,-512.0225 3.3582,-73.4197 3.2429,-147.5985 0.1051,-220.7231 C 3536.8767,983.73683 3472.5317,826.73307 3352.5487,713.5629 3242.4239,598.74404 3090.4282,537.823 2940.2176,495.37359 c -65.154,-16.58894 -132.4787,-24.71092 -199.7012,-24.36198 z"
     id="path4836"
     inkscape:connector-curvature="0"
     transform="scale(0.8,0.8)" />
  <path
     style="opacity:1;fill:#999999;fill-opacity:1;stroke:none;stroke-width:17.92000008;stroke-linecap:round;stroke-linejoin:round;stroke-miterlimit:4;stroke-dasharray:none;stroke-opacity:1"
     d="m 2839.6436,21.534674 c -165.9331,-5.384286 -329.2157,49.947931 -466.4476,141.324596 -138.1396,92.77314 -258.3823,212.34074 -355.9341,346.87815 -8.4533,11.79827 -20.1397,40.70437 -32.036,16.81364 C 1919.8364,438.06021 1847.4506,350.95312 1748.9556,297.87091 1566.7131,193.00603 1351.0594,177.77252 1145.6489,166.96055 963.28072,162.71242 779.996,179.83989 601.4928,217.26804 c -95.26503,25.61641 -197.12981,56.27369 -263.2116,134.46484 -14.33884,14.4977 -29.13647,32.18113 -50.60461,30.9286 -42.37573,33.92453 -56.64954,91.35905 -78.66605,139.02137 C 151.00481,669.65486 117.90922,825.89946 86.072826,981.15011 54.402688,1170.5623 17.155459,1360.359 19.035268,1553.2718 18.556975,1687.0927 79.38445,1811.353 135.2127,1929.7571 c 54.53053,117.7077 145.07308,218.0876 259.79717,279.5534 190.99145,103.1493 392.33398,204.1196 612.57263,219.7905 248.939,22.2013 514.1048,-39.9689 704.8563,-207.5865 103.0439,-85.534 190.4221,-188.6062 262.5168,-301.1379 14.5143,-23.597 36.1418,7.5506 47.6561,18.3735 105.0762,132.1615 241.8101,233.3285 368.3692,343.4445 137.8606,125.7754 326.5136,184.2936 511.1851,180.5154 332.2862,-1.106 667.2907,-153.6906 868.5024,-421.4419 124.4661,-176.1965 179.5792,-393.1488 193.2881,-606.2042 9.4848,-179.2556 12.6862,-364.7038 -52.3549,-535.14939 C 3866.2849,766.12443 3798.7724,641.46019 3719.8056,524.71539 3644.4565,402.94595 3543.9802,297.01575 3429.4086,211.53089 3269.2653,96.953623 3076.4544,17.786758 2877.0817,21.681244 c -12.4784,-0.194995 -24.9586,-0.219546 -37.4381,-0.14657 z m -91.3548,429.072336 c 173.0123,2.5332 341.4417,64.85178 491.4901,149.24982 121.3676,79.31571 218.9982,194.97963 281.9268,325.62555 42.5062,106.02972 82.6305,217.56292 76.598,333.39362 3.065,103.8838 -14.3934,207.6254 -52.079,304.9279 -66.6064,191.7941 -207.8427,359.3028 -396.8146,439.091 -186.5546,81.6847 -403.9789,89.0454 -592.3738,8.9621 -137.4156,-53.3039 -248.0938,-158.6028 -327.276,-281.06 -70.5873,-100.5783 -97.9562,-225.2966 -103.052,-346.4222 -4.5048,-12.8161 23.6741,-64.7783 -1.3283,-52.4191 -28.879,8.6986 -74.4659,42.8876 -104.3178,42.8989 -10.0113,-12.9954 18.8336,-19.6393 26.1104,-25.8486 17.5629,-12.698 86.3541,-28.646 94.5885,-50.4162 -14.7908,-18.9005 -84.186,4.462 -105.4429,-1.1352 -70.7966,-0.7212 -169.0773,-28.4491 -238.9921,-11.1654 -19.2381,10.0967 32.3139,31.7438 44.6384,29.0791 25.9433,5.2049 65.6234,10.4548 73.8817,40.3276 -8.4601,10.5781 -19.7745,-15.4301 -31.7638,-13.8299 -23.8424,-5.876 -62.2491,-28.4976 -84.9017,-21.5835 -20.019,199.8934 -40.7944,420.6525 -166.1198,584.9765 -61.8567,89.7835 -160.757,150.5436 -268.3064,165.8122 -104.0174,19.4764 -209.4022,5.9202 -312.8635,-12.7306 C 917.1927,2023.041 784.37984,1969.2638 671.22859,1888.1836 570.96749,1806.3441 477.85675,1709.9792 426.03839,1589.6735 351.99586,1436.4823 312.68782,1261.1322 345.55735,1092.7069 381.74262,893.46268 493.40527,705.61 662.96173,592.05572 738.61595,542.7923 816.87478,483.80014 910.93287,480.61192 c 120.11473,-11.25705 243.92483,-9.83272 360.67423,23.56958 116.2548,45.24837 232.7592,97.00585 325.5256,182.386 132.4349,117.23111 192.8272,296.86721 205.6212,468.6274 4.7578,29.0716 -13.8622,68.579 -1.778,95.0028 21.6073,0.2764 -20.7646,16.0573 -0.4983,18.3312 0.4354,21.7403 -8.8113,-2.7705 -0.9963,18.5169 87.4747,11.8164 215.3804,-10.7022 302.7177,3.7511 11.6502,5.7414 61.9725,-0.3813 40.7485,-13.3323 -25.9569,-14.7224 -82.9619,-21.4065 -102.7789,-40.0191 28.7806,-2.0864 70.5359,28.3249 98.2032,22.3161 19.875,-48.1266 1.8449,-112.3014 15.1999,-162.7508 28.3221,-158.79024 79.8808,-317.00308 176.0064,-448.47029 49.5042,-56.23929 98.9691,-117.41021 166.1082,-153.25068 45.3852,-10.47409 92.2402,-17.46721 137.3882,-30.09914 37.7912,-8.30407 76.6595,-14.69633 115.2143,-14.58368 z"
     id="path4832"
     inkscape:connector-curvature="0"
     transform="scale(0.8,0.8)"
     sodipodi:nodetypes="ccccccccccccccccccccccccccccccccccccccccccccccccccccccccccccccccccccc" />
  <g
     id="g4150"
     transform="translate(-267.45908,-0.01447434)">
    <path
       d="m 2516.4591,0.5771 c -42.3,1.5 -91.2,7.8 -131.4,17 -111.4,25.3 -214.5,80.1 -326.3,173.7 -4.9,4 -12.7,10.6 -17.5,14.7 -13.4,11.2 -39.8,37.2 -68.7,67.5 -43.5,45.6 -49.3,52.1 -67.1,75.1 -4.4,5.7 -11.6,14.9 -16,20.4 -9.1,11.4 -17.5,22.9 -19.5,26.6 -2.4,4.6 -8.2,11 -9.9,11 -3,0 -9.2,-7.8 -21,-26.5 -6.7,-10.6 -16.7,-23.4 -29.1,-37.5 -4.2,-4.7 -12,-14 -17.4,-20.5 -23.5,-28.5 -50.4,-50.9 -103.1,-86.1 -33.7,-22.5 -79.7,-44.5 -128,-61 -53.6,-18.5 -106.2,-30.3 -168,-37.9 -33.7,-4.1 -37.8,-4.6 -45,-5.6 -29.7,-3.9 -83,-8.3 -138.5,-11.4 -40.2,-2.3 -135.5,-2.3 -169.7,-0.1 -13.8,0.8 -30.7,2.2 -37.5,3.1 -6.80002,0.8 -16.30002,1.9 -21.30002,2.4 -4.9,0.6 -15.5,1.7 -23.5,2.5 -8,0.9 -23.3,2.5 -34,3.6 -62.5,6.5 -71,7.7 -127,17 -39.4,6.6 -68.3,13.9 -110.5,27.8 -20.4,6.8 -56.5,20.6 -71.6,27.5 -23,10.5 -43.4,23.9 -64.4,42.2 -6.6,5.8 -12.8,10.5 -13.8,10.5 -0.9,0 -2.5,-0.5 -3.5,-1.1 -1.1,-0.7 -2.5,-0.7 -4.3,-0.1 -6.1,2.4 -35.6,28.9 -43.3,39 -29.8,39.4 -42.2,61.9 -56.1,102.2 -8.5,24.6 -14.6,41.5 -18.8,52 -5.4,13.9 -13.8,36.5 -19.6,53 -1.1,3.2 -3.5,11 -9,30 -1,3.6 -2.7,9.9 -3.6,14 -1,4.1 -2.3,9.3 -3.1,11.5 -0.8,2.2 -1.8,6 -2.3,8.5 -0.6,2.5 -1.7,7.4 -2.5,11 -0.9,3.6 -2.5,10.8 -3.6,16 -1.1,5.2 -3.6,16.7 -5.5,25.5 -1.9,8.8 -4.4,20 -5.4,25 -1.1,4.9 -2.2,9.7 -2.6,10.6 -0.3,0.8 -1.4,5.5 -2.4,10.5 -1,4.9 -4.9,20.6 -8.5,34.9 -6.6,25.8 -12,51.9 -17.7,85.5 -1.6,9.6 -3.3,19.7 -3.9,22.5 -3,15.6 -6.3,34.3 -9,51.5 -1.7,10.7 -4.2,26 -5.5,34 -1.3,8 -3.2,19 -4.1,24.5 -0.9,5.5 -2.9,17.4 -4.6,26.5 -1.6,9.1 -3.3,19.4 -3.8,23 -0.5,3.6 -3,19.5 -5.5,35.4 -2.5,15.8 -4.5,30.1 -4.5,31.7 0,1.6 -0.5,4.8 -1,7.1 -0.6,2.4 -2.2,14.2 -3.6,26.3 -1.4,12.1 -3.1,26.5 -3.9,32 -2.5,17.6 -4.4,42.4 -5,65 -0.3,12.1 -0.8,23.3 -1,25 -0.7,5.1 -2,44.2 -2,62 0,9.3 0.6,20.1 1.2,24 2,11.1 5.4,31.5 6.3,37.7 2.7,18.7 12.4,59.8 17.9,76.3 5.7,17.1 7.9,22.9 16.3,41.5 4.1,9.1 8.3,19 9.3,22 1,3 2.8,7.6 4.1,10.2 1.3,2.5 5.3,12.4 8.9,22 3.6,9.5 7.7,19.5 8.9,22.3 5.1,11.1 11.9,24.6 17.9,36 3.5,6.6 10.2,19.4 15,28.5 4.7,9.1 10.4,19.7 12.6,23.5 2.3,3.8 4.1,7.3 4.1,7.7 0,1.2 9.4,15.6 15.9,24.3 7.1,9.5 14.2,18.5 25.5,32 4.6,5.5 10.3,12.5 12.6,15.5 7.2,9.2 37.8,39.1 49.4,48 5.9,4.7 14.9,11.6 19.8,15.5 22.4,17.4 51.3,36.6 72.5,48.1 12.5,6.8 82.6,41.8 102.3,51.1 10.7,5.1 27.1,12.9 36.3,17.3 9.3,4.4 17,8 17.2,8 0.3,0 5.5,2.4 11.7,5.4 6.2,2.9 13.3,6.2 15.8,7.3 24.3,10.8 22.7,10.2 51.7,21.9 35.5,14.2 72,25.5 116.5,35.9 5.3,1.3 10.1,2.6 10.6,2.9 0.8,0.5 29.1,7.4 39.2,9.6 23.90002,5.2 31.70002,6.4 63.50002,10 34.9,4 101,7.4 125,6.5 23.7,-0.9 68,-4.2 80,-5.9 5.5,-0.8 13.8,-2 18.5,-2.6 8.4,-1.1 10.4,-1.4 28.5,-4.5 25.4,-4.4 44.4,-8.7 69,-15.6 6.1,-1.7 13.4,-3.7 16.2,-4.5 12.3,-3.2 57.5,-19.1 78.8,-27.6 24.1,-9.7 65.9,-30.1 83.6,-40.8 65.2,-39.5 121.1,-84.9 178.5,-144.6 48.5,-50.7 95.6,-110.7 120.4,-153.5 7.3,-12.6 10.5,-16.9 12.6,-16.9 3.3,0 14.6,12.6 27.9,31.1 5.7,8 21.7,28.4 25.3,32.4 2,2.2 8.2,9 13.6,15 5.5,6.1 11.6,12.7 13.5,14.8 7.2,7.5 34.3,31.9 61.6,55.4 15.4,13.2 31.6,27.2 36,31 33.1,28.6 46.2,39.7 61.5,52.3 27.2,22.4 40.3,33.4 56.5,47.6 45.8,39.9 71.9,59.6 107.8,81.1 14.8,8.8 46.9,25 64.2,32.4 25.1,10.6 64.6,23.6 88.5,29.2 36.4,8.5 61.2,12.6 95.5,15.6 43.7,4 105.4,4.4 148,1 34,-2.7 35.7,-2.9 66,-7.5 30.6,-4.7 29.7,-4.6 67,-12.9 30.6,-6.8 87.2,-24.2 123,-37.8 49.7,-18.8 105.4,-46.8 157.5,-79 23.4,-14.5 32.3,-20.6 58,-39.6 23.4,-17.4 32.8,-25.2 66.5,-55.8 72.1,-65.4 121.5,-132.1 160.2,-216.3 4,-8.5 8,-17.8 9.1,-20.5 1.1,-2.8 3.9,-9.7 6.2,-15.5 12,-29.9 22,-58.3 32.4,-92.5 5,-16.4 5.5,-18.1 11.6,-41.5 3.3,-12.6 6.2,-25 8,-34.5 1.1,-6.1 2.7,-14.2 3.5,-18 7.6,-38 18,-114.2 22,-161.5 4.9,-58.4 5.2,-187.7 0.5,-230 -0.5,-4.7 -1.4,-13.2 -2.1,-19 -1.4,-13.6 -8.4,-56.4 -9.4,-58 -0.2,-0.3 -1.3,-6.2 -2.5,-13.1 -1.1,-6.8 -3,-16.3 -4,-21.2 -1.1,-4.8 -2.9,-12.9 -4,-18 -2.4,-10.6 -7.6,-29.6 -9.6,-34.7 -0.7,-1.9 -1.6,-5 -1.9,-6.8 -0.4,-1.8 -1.3,-4.5 -2.1,-6 -0.8,-1.5 -1.4,-3.3 -1.4,-4.1 0,-1.2 -6.9,-21.7 -10.5,-31.1 -0.7,-1.9 -3.1,-8.5 -5.3,-14.5 -4.6,-12.6 -8.2,-21.5 -19.3,-47.6 -4.3,-10.2 -7.9,-19 -7.9,-19.5 0,-0.5 -0.7,-2.3 -1.6,-3.9 -0.9,-1.7 -5,-10.8 -9.1,-20.4 -16.7,-38.8 -39.7,-82.8 -58.2,-111.2 -3.1,-4.8 -6.5,-10.1 -7.6,-12 -5.5,-9 -8.6,-13.9 -15,-23.7 -3.8,-5.9 -9.4,-14.5 -12.4,-19.2 -22,-34.3 -53.5,-81.3 -63.1,-94.3 -15.3,-20.6 -36.5,-46.5 -50.5,-61.7 -28.4,-30.7 -61.7,-63 -83,-80.5 -6,-5 -13.6,-11.3 -16.9,-14 -26.7,-22.3 -87.6,-63 -123.6,-82.7 -3.6,-2 -12.3,-6.8 -19.5,-10.8 -42.5,-23.6 -87.5,-43.5 -128.8,-56.9 -31.3,-10.1 -76.9,-21.4 -103.7,-25.7 -56.9,-9.1 -109.1,-12.4 -163.5,-10.4 z m 68,16 c 18.3,0.7 37.4,2.5 64.5,5.9 4.1,0.6 11.6,1.5 16.5,2.1 5,0.6 13.3,2 18.5,3 5.2,1 13.6,2.6 18.5,3.5 21.9,4.1 64.9,15.5 88,23.5 37.8,13.1 61.3,23.3 101.5,44.2 19.1,9.8 26.7,14.1 57,31.8 29.2,17 68.2,43.3 88,59.5 4.1,3.3 10.1,8.1 13.4,10.5 28.2,21.3 81.2,73.6 116.1,114.6 5.8,6.8 20.6,25.7 25.3,32.4 1.8,2.5 4.2,5.8 5.5,7.5 10.6,14.1 19.9,27.8 39.2,57.5 5.9,9.1 12.4,19 14.6,22 2.1,3 5.1,7.5 6.5,10 1.5,2.5 5.5,8.8 8.9,14 3.4,5.2 8.3,12.9 11,17 2.6,4.1 6.7,10.4 9,14 2.3,3.6 8.5,13.7 13.7,22.5 5.2,8.8 10.4,17.6 11.6,19.5 2.3,3.9 13.7,25.3 20,37.5 4.6,8.9 17.2,35.4 17.2,36.1 0,0.5 11,26.6 13.7,32.4 0.8,1.9 3.5,8.2 5.8,14 2.3,5.8 5.2,12.5 6.3,15 1.2,2.5 3.8,8.8 5.8,14 1.9,5.2 4.6,12 5.9,15 1.3,3 3,7.5 3.8,10 0.9,2.5 2.7,7.4 4,11 4.5,12.1 7.5,20.5 8.7,25 0.7,2.5 1.8,6.3 2.6,8.5 1.2,3.9 4.1,13.9 6.9,24 4.4,16 11.8,49.1 14.4,65 0.6,3.3 1.7,9.4 2.6,13.5 4.2,20.9 7.7,44 10,67 1.7,17.4 2.8,58.4 2.8,111.5 0.1,58.8 -0.6,81.3 -3.3,111 -1.3,14 -2.9,30.8 -3.5,36 -0.3,2.2 -0.7,6.5 -1,9.5 -0.3,3 -1.2,10 -2,15.5 -0.8,5.5 -2,14 -2.6,19 -5.7,47 -14.4,94.6 -24.9,136.3 -6.6,25.9 -8.5,32.5 -20.1,67.4 -21.5,65 -48.3,124.6 -76.2,169.3 -3.8,6.2 -21,31.9 -24,36 -19.9,27.1 -44.3,55.2 -70.6,81.5 -46,45.9 -92.6,83.5 -144.1,116.2 -39.7,25.2 -102.4,57.2 -146.8,75 -24.7,9.8 -59.7,21.8 -85.7,29.3 -10.8,3.1 -50.1,13.3 -56.5,14.5 -2.5,0.5 -7.6,1.7 -11.5,2.5 -47.7,10.5 -87.5,15.3 -147.8,17.6 -45.5,1.8 -102.6,-0.8 -141.7,-6.5 -5.8,-0.9 -13.6,-2 -17.5,-2.6 -8.5,-1.2 -21.1,-3.7 -28.5,-5.5 -3,-0.7 -8.9,-2.1 -13,-3 -26.7,-5.9 -74.4,-22 -100,-33.8 -50,-23 -91,-49.6 -134.5,-87.2 -14.2,-12.3 -35.9,-30.9 -51.9,-44.5 -4.8,-4.1 -11.6,-9.8 -15,-12.5 -12.1,-9.6 -27,-22.3 -54.9,-46.5 -25.6,-22.1 -40.9,-35.3 -56.3,-48.5 -34,-28.9 -47,-41.1 -65,-60.5 -16.7,-18.1 -25.9,-29.1 -37.9,-45 -19.1,-25.5 -29.9,-36.6 -41.5,-42.4 -4,-2 -8,-3.6 -9,-3.6 -4.5,0 -9.9,7.1 -26.5,35 -10,16.8 -11.8,19.6 -23.4,35.5 -9.2,12.6 -38.7,50 -49,62 -25.7,30.1 -71.6,77.9 -92.1,96.1 -39.4,34.9 -91.9,73.3 -131.1,95.7 -24.5,14 -59.7,30.7 -83.4,39.6 -4.4,1.6 -11.6,4.4 -16,6.1 -9,3.6 -63.2,21.3 -68.5,22.5 -1.9,0.4 -10,2.5 -18,4.6 -8,2.2 -21,5.1 -29,6.5 -8,1.5 -17.6,3.3 -21.5,4 -15.6,3.1 -52,7.8 -81.5,10.5 -5.8,0.6 -26.2,1.3 -45.5,1.6 -33.2,0.5 -55.3,-0.2 -91.5,-2.8 -30.8,-2.2 -77.8,-8.7 -94.50002,-13 -4.4,-1.2 -10,-2.5 -12.5,-3 -2.5,-0.5 -8.5,-2 -13.5,-3.3 -12,-3.3 -36.6,-9.6 -43.6,-11.1 -12.2,-2.7 -51.7,-14.9 -68.4,-21 -13.3,-5 -35,-13.8 -47.5,-19.2 -6.9,-3 -17.7,-7.8 -24,-10.5 -13.7,-6 -22,-9.9 -40,-18.6 -16.6,-8 -44.7,-21.5 -51.5,-24.7 -12.8,-6 -76.8,-37.9 -83.5,-41.6 -25.1,-13.7 -52.2,-31.2 -71.9,-46.4 -5.7,-4.4 -11.8,-9.1 -13.6,-10.5 -18.7,-14.4 -37.5,-31.9 -51.6,-48 -4.1,-4.6 -8.2,-9.3 -9.2,-10.5 -1,-1.1 -4.6,-5.6 -8,-9.9 -3.4,-4.3 -8,-10 -10.2,-12.6 -15.9,-18.4 -25.2,-32.9 -40.2,-61.8 -5.2,-10.3 -11.5,-22.3 -13.8,-26.7 -2.3,-4.4 -7.1,-13.4 -10.5,-20 -3.5,-6.6 -7.1,-13.4 -8.1,-15 -1.8,-3.2 -9.5,-21.7 -13.4,-32.5 -1.3,-3.6 -3.7,-9.7 -5.3,-13.5 -1.7,-3.9 -5.6,-13.3 -8.8,-21 -3.1,-7.7 -8.6,-20.5 -12.1,-28.5 -16,-35.8 -22.4,-58.2 -33.7,-117.5 -4.7,-24.9 -5.8,-48.7 -3.7,-84.5 0.5,-9.6 1,-27.2 1,-39 0,-28.8 0.9,-49.2 2.7,-62.5 0.8,-6.1 1.9,-14.2 2.4,-18 0.5,-3.9 1.4,-11.1 2,-16 0.6,-5 1.5,-13.5 1.9,-19 1.1,-13.6 6.8,-59.4 9.1,-73.5 1.1,-6.3 3.1,-18.7 4.5,-27.5 4.1,-25.9 5.6,-34.8 6.5,-38 0.5,-1.7 1.4,-7.1 2,-12 1.1,-8.9 1.4,-11 4.5,-29 0.8,-5 2.4,-14.9 3.5,-22 2.1,-13.3 4.1,-24.5 6.6,-37.2 0.8,-3.9 1.8,-10 2.4,-13.5 2.2,-14.3 4.8,-29.3 10.6,-59.8 4.4,-23.1 4.9,-25.3 9.6,-43 2.2,-8 4.3,-16.5 4.7,-19 0.5,-2.5 2,-8.3 3.3,-13 2.8,-9.4 4.2,-15.8 6.3,-27 0.7,-4.1 2.2,-10.9 3.4,-15 1.8,-6.8 3.9,-16.6 8.7,-40.5 1.8,-9.1 1.9,-9.3 11.3,-44 1.9,-7.1 3.4,-12.3 4.7,-16 1,-3.3 8.7,-27.9 13.6,-43.5 1.1,-3.8 6.9,-19.3 12.3,-33 1.8,-4.7 5.8,-15.9 8.9,-25 3,-9.1 7.2,-21 9.2,-26.5 2,-5.5 4.6,-12.9 5.9,-16.5 2.8,-8.1 13.5,-30.7 17.7,-37.4 13,-20.8 18.4,-28.9 26.5,-39.6 8.1,-10.7 11.7,-14.5 13.1,-13.6 0.7,0.4 0.6,1.9 -0.1,4.2 -1,3.3 -0.9,3.8 1.3,5.6 4.9,4 14.7,-0.5 20.5,-9.3 4.5,-6.8 25,-29.2 35.1,-38.5 19,-17.1 32.2,-26.3 53.9,-37.2 40.4,-20.3 119.6,-46.4 166,-54.7 5,-0.8 11.3,-2 14,-2.5 13.7,-2.5 16.8,-3 26.5,-4.5 5.8,-0.8 16.4,-2.4 23.5,-3.4 7.2,-1.1 17.7,-2.6 23.5,-3.5 5.8,-0.8 23.6,-2.9 39.5,-4.6 16,-1.6 35.1,-3.7 42.5,-4.5 50.70002,-5.6 56.80002,-6.2 81.50002,-8.6 14.1,-1.3 135.2,-2 164.1,-0.8 25.1,0.9 75,4.2 99.4,6.5 14.7,1.3 34.7,3.5 72.5,7.9 75.9,8.9 122.1,18.3 177,36.2 36.8,12 80.3,29.8 98.7,40.4 3.6,2.2 6.9,3.9 7.3,3.9 0.7,0 8.6,4.5 23.5,13.3 14.8,8.8 52.4,35.3 67.5,47.6 18.1,14.7 25.2,21.9 43,43.1 3.9,4.6 10.8,12.7 15.5,18 13.5,15.1 17,19.6 27.4,35 5.4,8 12.2,17.4 15,21 2.8,3.6 7.1,9.2 9.5,12.5 6.7,9.1 9.2,11.5 12,11.5 3.3,-0.1 5.4,-1.7 7.4,-5.5 2.7,-5.4 17.7,-28.8 22,-34.5 12.3,-16.2 37.9,-48.6 44.2,-56 11.7,-13.8 82.1,-87.6 95.1,-99.6 14.1,-13.2 28,-25.2 49.9,-43 69.8,-56.8 135.6,-98 200.5,-125.7 43.4,-18.5 76.9,-28.9 121.5,-37.7 8.3,-1.6 17.3,-3.4 20,-3.9 15.4,-3.1 39.5,-6.1 68,-8.5 9.9,-0.9 19.6,-1.7 21.5,-1.9 7.5,-0.8 50.5,-0.6 70.5,0.3 z m -2072.50002,271 c -2.1,2.9 -4,3.9 -4,2.1 0,-0.5 1.2,-2.4 2.7,-4.2 3.3,-3.8 4.3,-2.2 1.3,2.1 z"
       id="path8"
       inkscape:connector-curvature="0"
       style="fill:#000000;stroke:none" />
    <path
       d="m 2443.4591,358.1771 c -18.4,2 -49.9,7.4 -75,12.9 -6.6,1.5 -15.1,3.3 -19,4.2 -10.4,2.2 -45.9,11.8 -54.4,14.8 -8.6,2.9 -10.4,3.1 -12.1,1 -2.7,-3.3 -15.8,-0.5 -27,5.7 -27.9,15.6 -84.6,68.3 -117.1,108.8 -23.3,29.1 -42.7,59.3 -64.3,100.2 -12.3,23.2 -32.7,70.1 -39.6,90.8 -0.5,1.4 -1.8,5 -3,8 -4.3,11.3 -9,26 -13.4,42 -2.5,9.1 -5.2,18.7 -6,21.5 -3.5,12.2 -20.8,83.4 -23.5,97 -3.8,19.3 -10.3,66.1 -15.1,109.5 -3.2,29 -3.2,28.9 -5,29.5 -1,0.3 -14.8,-3.5 -30.7,-8.6 -35.9,-11.4 -34.9,-11.1 -38.1,-10.7 -2.5,0.3 -2.6,0.5 -2.4,5.3 0.3,3.7 0.9,5.4 2.5,6.7 2.8,2.1 19.2,7.8 45.7,15.8 11.3,3.4 21.2,7 22.1,7.9 1.1,1.2 1.4,3 1.1,6.9 -0.5,6.8 -2,7.7 -9.9,5.7 -3.2,-0.8 -12.3,-2.3 -20.3,-3.5 -8,-1.1 -19.9,-2.9 -26.5,-4 -16.9,-2.7 -30.1,-4 -52,-5 -22.7,-1.1 -45.7,-2.5 -69.5,-4.1 -18.7,-1.2 -34.9,-0.8 -47,1.1 -12.2,2.1 -27.1,5.9 -28.7,7.5 -1.6,1.7 -3.3,2 -3.3,0.6 0,-2.4 5.7,-7 23.7,-19.4 10.9,-7.5 23,-16.1 26.8,-19 6.6,-5.1 7,-5.6 6.9,-9.3 -0.2,-4.4 -3.1,-7.4 -7.4,-7.4 -3,0 -16.6,8.5 -33.3,20.9 -5.4,4 -10.5,7.1 -11.5,6.9 -1.5,-0.3 -1.7,-1.8 -1.9,-11.3 -0.4,-15.8 -4.1,-83.1 -5.4,-95.5 -1.5,-15.1 -4.2,-29.7 -11.5,-62.5 -12.5,-55.9 -20.2,-82 -32.6,-111 -7.3,-17 -26.9,-55.2 -35.3,-69 -14.2,-23.1 -34.2,-51.7 -45.1,-64.5 -10,-11.7 -28.8,-30 -41.4,-40.1 -14,-11.3 -77.7,-58.4 -91.4,-67.6 -11.2,-7.6 -28.1,-16.2 -49.1,-25.3 -40.3,-17.5 -49,-21.3 -58,-25.5 -56.5,-26.6 -65.2,-29.5 -113,-37.5 -9.9,-1.7 -22.9,-3.9 -29,-5 -32.7,-5.6 -55.4,-7.1 -108.5,-7.1 -50,0 -70,1.3 -103.50002,6.8 -5.5,0.9 -12,1.6 -14.5,1.5 -2.4,-0.1 -6.9,0.5 -10,1.3 -3,0.8 -8.2,1.4 -11.5,1.3 -6.6,-0.2 -14,1.9 -29.5,8.4 -16.9,7.2 -29.4,13.7 -58.8,31.1 -5.9,3.5 -15.6,9.2 -21.7,12.7 -26.2,15.2 -74.8,49.3 -99.1,69.6 -40.4,33.8 -99.4,103 -121.5,142.4 -2,3.6 -5.5,9.9 -7.9,14 -9.8,17 -33.7,69 -43.1,93.7 -2.2,5.8 -4.6,11.8 -5.4,13.2 -0.7,1.5 -2,5.1 -2.9,8.1 -0.8,3 -3.3,11.3 -5.6,18.5 -6.6,21 -12.9,45.9 -18,70.5 -1.1,5.2 -2.6,12.6 -3.4,16.5 -2.1,9.8 -5.4,34.6 -6.6,50 -3.1,38.4 0.7,96 9.6,146 1.3,7.7 3,16 3.6,18.5 0.6,2.5 1.4,6.1 1.8,8 2.3,10.6 11.9,43.7 18,62 1.5,4.7 4.2,12.9 5.9,18.2 12.8,40.4 36.2,92 61.3,135.3 5.5,9.6 28.5,44 37.7,56.5 19.2,26.1 29,36.7 77.1,83 39.5,38 58,53.2 84.9,69.9 43.7,27.1 113.3,61.6 158.1,78.3 58.50002,21.8 113.90002,38.3 144.00002,42.9 12,1.8 54.8,6.5 81,8.8 6.9,0.7 17.5,1.7 23.5,2.3 6.1,0.7 25.2,1.2 42.5,1.2 35.3,0 48.8,-1.4 81.5,-8 67.8,-13.8 108.1,-31.2 148.8,-64.1 15.2,-12.3 31.7,-28.1 41.4,-39.7 7.6,-9 25.9,-33.1 31.7,-41.6 29.5,-43.6 39,-59.6 53.1,-90.4 13,-28.2 16.7,-37.8 28,-72.1 9.4,-28.4 17.1,-57.2 22.4,-84.1 1.7,-8.2 4.4,-21.7 6.1,-29.9 4.1,-20 6.4,-32.9 10,-57.4 5.1,-34.9 11,-91.6 11,-106.7 0,-10.3 -0.3,-10.2 19.3,-7.4 29.9,4.2 46.7,9.7 53.8,17.8 6.4,7.4 10.9,9 14.4,5.2 1.5,-1.7 1.6,-2.5 0.5,-6.8 -1.5,-6.4 -5.8,-11.4 -14.7,-17.3 -12.9,-8.4 -23.8,-11.4 -56.7,-15.4 -7.1,-0.9 -13.7,-2 -14.7,-2.5 -1.3,-0.7 -1.7,-2 -1.5,-5.2 0.1,-2.4 -0.2,-5.4 -0.6,-6.7 -1.3,-3.6 0.4,-4.6 4.2,-2.6 2.4,1.3 4.6,1.5 8.4,1.1 2.8,-0.3 13.4,-1.1 23.6,-1.7 15.9,-0.8 22.6,-0.7 47.5,1.1 16,1.1 36,2.4 44.5,3 30.1,1.8 58.6,4.1 70,5.5 39.3,5.2 42.5,5.3 49.4,2.5 3.9,-1.5 5.6,-2.8 5.6,-4 0,-2.4 2.5,-3.3 4,-1.5 1.5,1.8 0.6,4.3 -1.7,5.2 -1,0.3 -3.4,2.1 -5.3,3.9 -5.3,5 -21.1,13.1 -51.2,26.1 -14.9,6.4 -28.5,12.6 -30.2,13.8 -2.8,1.8 -3.1,2.7 -3.4,7.6 -0.3,4.9 0,5.7 2.5,8.2 1.6,1.4 4.3,2.9 6,3.3 2.6,0.5 3.6,0 6.9,-3.3 2.5,-2.5 6.8,-5.1 11.7,-7.2 23.9,-9.9 41.9,-18.3 50.9,-23.8 3.1,-1.9 6.2,-3.3 6.8,-3.1 0.8,0.2 1.3,7.3 1.5,22.6 0.5,27.9 1.8,46.2 5.6,82.7 1.5,14.5 7.6,51.7 10,61 5.5,21.3 12.8,42 25.9,73.5 2.9,6.9 6,14.5 7,17 4.2,10.4 10.2,22.3 17.7,35.1 7.6,13 12.8,20.2 35.3,49.9 9.5,12.4 16.4,22.2 21.5,30.4 5.2,8.4 14.3,20.3 21.9,28.8 12.4,13.8 44.1,44.2 68.2,65.4 28.7,25.2 79.3,53.7 144.9,81.4 13.3,5.7 45.3,16.2 59,19.5 6.1,1.4 16.4,3.9 23,5.5 6.6,1.6 17.4,4.1 24,5.5 6.6,1.3 16.3,3.4 21.5,4.5 19.9,4.2 46.1,6.3 81,6.3 43.8,0.1 66.2,-1.9 116.5,-10.4 63.3,-10.8 132.5,-36 194,-70.5 73.2,-41.2 145.5,-107.9 186,-171.6 2.2,-3.5 6.4,-10.1 9.4,-14.8 20.4,-32.1 47.6,-83.6 57.5,-109.2 6.3,-16.3 9.6,-24.9 12,-31.8 2.5,-7.1 3.9,-12 14,-46 18.6,-62.7 26.8,-115.3 28.3,-181.5 1.2,-57.2 -3,-93.9 -16.6,-145.5 -1,-4.1 -2.9,-11 -4,-15.3 -19,-72.1 -48.6,-142.1 -81.2,-191.7 -21.6,-33 -27.4,-41 -49.3,-68 -32.7,-40.5 -89.2,-91.8 -131.6,-119.5 -19.4,-12.7 -45.9,-27 -68,-36.7 -5.8,-2.6 -18.1,-8.1 -27.5,-12.3 -26.3,-11.8 -36.4,-16.1 -58.5,-24.5 -19.9,-7.6 -65.9,-22.8 -81,-26.9 -4.1,-1.1 -10.9,-2.9 -15,-3.9 -4.1,-1.1 -10,-2.5 -13,-3.1 -3,-0.5 -10.9,-2.1 -17.5,-3.5 -6.6,-1.3 -15.4,-3 -19.5,-3.6 -4.1,-0.6 -11.8,-1.8 -17,-2.6 -27.9,-4.3 -53,-6.5 -78,-6.9 -14,-0.1 -27.3,-0.1 -29.5,0.1 z m 61.8,20.4 c 42.9,4.8 58.3,7 88.7,13.1 18.9,3.7 52.2,12.8 76.5,20.8 34.6,11.4 73.1,27 121.5,49.3 3.6,1.6 9,4 12,5.3 7.6,3.2 30,14.9 39,20.3 51.2,30.8 108.9,81.8 148.1,130.7 7.1,8.8 21.9,28.7 26.1,35 1.5,2.2 5.5,8 8.9,13 17,24.6 38.1,63.2 48.9,89.5 1,2.5 3.5,8.3 5.5,13 9,20.8 26.1,72.6 33.5,101.5 1.7,6.6 3.5,13.6 4,15.5 4.4,16.2 8.8,39.5 11.1,59.5 4.5,38 2.8,112.2 -3.6,153 -0.8,5.5 -2,12.9 -2.5,16.5 -0.8,5.4 -4.8,25.1 -9,44.5 -0.5,2.2 -2.1,8 -3.5,13 -1.4,4.9 -4.1,14.8 -5.9,22 -1.9,7.1 -4.1,15 -4.9,17.5 -0.8,2.5 -2.5,7.9 -3.7,12 -3.7,12.5 -8,25.2 -11.8,35 -11.7,30.3 -32.3,72.7 -46.4,95.8 -1.8,3 -5.7,9.3 -8.7,14 -3,4.8 -6.7,10.7 -8.2,13.2 -1.5,2.5 -4.6,7.2 -6.9,10.5 -2.2,3.3 -6.4,9.5 -9.3,13.7 -29.6,43.6 -80.9,93 -133.2,128.3 -75.1,50.6 -151.8,80.5 -245.2,95.5 -15.8,2.5 -19.4,3 -28.3,4 -65.7,6.8 -122.4,4.7 -169.5,-6.6 -6,-1.4 -12.1,-2.8 -13.5,-3.1 -7.6,-1.5 -44.2,-10.6 -49.9,-12.3 -24.2,-7.4 -51,-18.4 -81.6,-33.5 -56.1,-27.8 -74,-40.2 -119.6,-82.7 -35.6,-33.2 -44.4,-43.2 -66.3,-76.3 -4.4,-6.6 -17.2,-23.9 -26.3,-35.4 -18.8,-23.9 -27.4,-38.4 -39.8,-67.6 -19.3,-45.3 -28.1,-72 -34.5,-104.5 -6.1,-31.1 -10.6,-84.9 -11.1,-132.5 l -0.2,-22.9 7.9,-5.2 c 5.7,-3.7 8.7,-6.5 10.8,-9.9 l 2.9,-4.7 -2.2,-6.1 c -2.5,-6.9 -4.6,-9.6 -10.8,-13.5 -2.4,-1.5 -4.5,-3.2 -4.7,-3.7 -0.4,-1.1 1.7,-20.6 5.5,-51.5 1.1,-9.1 2.4,-20.3 3,-25 2.8,-24 7.5,-53.3 11.4,-72 6.6,-31.3 24,-102.9 29.1,-119.2 9.5,-31.2 23.3,-66.8 40.2,-104.4 22.4,-49.3 55.9,-102.1 88,-138.2 25.1,-28.2 57.5,-60.1 73.4,-72.1 5.8,-4.3 16.2,-8.5 34.8,-14.1 5.2,-1.5 15.4,-4.9 22.7,-7.4 7.3,-2.5 14.2,-4.6 15.3,-4.6 1.2,0 4.2,-0.9 6.8,-2 2.6,-1.1 9.1,-2.9 14.4,-4 5.3,-1 11.4,-2.6 13.4,-3.5 2,-0.8 4.6,-1.5 5.8,-1.5 2.2,0 5.7,-0.7 28.2,-5.9 7.2,-1.7 17.8,-3.7 23.5,-4.5 5.7,-0.8 16.5,-2.4 23.9,-3.5 17.3,-2.6 19,-2.7 40.3,-2.9 12.2,-0.1 23.5,0.4 36,1.8 z m -1353.4,18 c 25.1,2.2 39.2,4 64.6,8.5 8.3,1.5 17.6,3.1 20.8,3.6 7.9,1.2 24.4,4.6 34.7,7.1 14.2,3.4 33.7,11.5 70,28.8 10.2,4.9 29.5,13.5 43,19.3 52.9,22.6 49.5,20.5 111.4,67 55,41.4 68.9,54.4 90.7,85.2 27.6,38.8 47.2,73.7 62.2,110.5 12.1,29.7 19,54.5 34.8,126 3.4,15 5.8,32.1 6.9,48.5 0.5,8.8 1.7,25.7 2.5,37.5 0.8,11.8 1.7,29.8 2,40 0.4,10.2 1,21.9 1.5,26 1,8.6 1.1,8.5 -8.5,15.8 -16.8,12.9 -19.5,16.2 -19.5,23.9 0,8.4 4.6,12.2 18.1,14.8 9.6,1.8 10,2.3 8.9,11.5 -0.5,4.1 -1.4,13.1 -2,20 -0.6,6.9 -2.2,22.2 -3.5,34 -1.4,11.8 -3,25.8 -3.6,31 -1.2,10.7 -10.1,64 -12.4,74 -0.8,3.6 -3.8,17.7 -6.5,31.4 -7.6,37.3 -11.8,52.7 -26.6,96.6 -10,29.5 -26.2,65.9 -40.6,90.9 -9.4,16.4 -31.7,49.5 -47.9,71.2 -46.9,62.6 -98.5,96.5 -174.9,114.7 -61.2,14.6 -104.2,16.4 -185,7.7 -7.4,-0.8 -20.5,-2.2 -29,-3 -26.8,-2.7 -46,-5.9 -64,-10.6 -28.2,-7.5 -102.80002,-32.9 -126.50002,-43.1 -24.1,-10.4 -34.7,-15.4 -57.5,-26.8 -37.6,-18.7 -43.7,-22 -63.8,-34.3 -20.1,-12.3 -38.2,-25.3 -53.7,-38.6 -16.5,-14.1 -88.2,-84.9 -95.9,-94.6 -8.5,-10.6 -17.5,-22.6 -23.1,-30.8 -8.6,-12.6 -12.1,-17.7 -13.7,-20.4 -1,-1.5 -4.3,-6.6 -7.3,-11.3 -5,-7.7 -9.1,-14.3 -17.7,-28.5 -5.2,-8.5 -22.3,-43.2 -29.1,-59 -11.9,-27.5 -18.1,-45.1 -30.2,-85.5 -5.1,-17.1 -6.8,-23.2 -8.2,-28 -0.8,-3 -2.3,-8.4 -3.3,-12 -2.8,-10.2 -4.6,-18 -7.6,-33.8 -1.7,-8.5 -3.4,-20.1 -4.3,-28.2 -0.6,-5.2 -1.6,-13.3 -2.2,-18 -2.5,-20.6 -3.1,-29.3 -3.6,-58.5 -0.5,-29.4 0.3,-47.8 2.6,-61 0.5,-2.8 1.5,-8.4 2.1,-12.5 1.3,-8.3 5.4,-30 6.9,-37 2.6,-11.5 6.2,-26.8 7,-29.5 0.5,-1.7 1.9,-7.1 3.1,-12 1.2,-5 3.2,-12.2 4.5,-16 1.2,-3.9 3.3,-10.4 4.6,-14.5 3.3,-10.9 12.8,-35.6 19.4,-50.5 18.6,-42.3 22.3,-50 33.6,-70.2 22.6,-40.3 60.4,-88.2 100.2,-126.9 21.1,-20.6 32.2,-29.7 59.7,-49.4 44.1,-31.6 53.6,-37.5 107.5,-67.3 29.3,-16.2 33,-17.8 43.2,-18.9 4.8,-0.5 13.5,-2 19.3,-3.3 27.8,-6.2 47.60002,-9.2 75.00002,-11.4 15.2,-1.2 97.3,-1.3 110.9,-0.1 z m 839.9,634.7 c -0.4,2.2 -4.8,3.1 -4.8,1 0,-1.9 1,-2.7 3.2,-2.7 1.3,0 1.8,0.6 1.6,1.7 z m -294.8,8.8 c 0,4.1 -5.9,5.7 -7.4,2 -0.6,-1.7 3,-4.5 5.6,-4.5 1.2,0 1.8,0.8 1.8,2.5 z"
       id="path10"
       inkscape:connector-curvature="0"
       style="fill:#000000;stroke:none" />
    <path
       d="m 1858.5591,1780.1771 c -0.4,0.9 -0.4,1.9 -0.2,2.2 1,0.9 3.6,-0.8 3.6,-2.3 0,-2 -2.6,-1.9 -3.4,0.1 z"
       id="path14"
       inkscape:connector-curvature="0"
       style="fill:#000000;stroke:none" />
  </g>
</svg>
