<?xml version="1.0" encoding="UTF-8" standalone="no"?>
<svg
   xmlns:dc="http://purl.org/dc/elements/1.1/"
   xmlns:cc="http://creativecommons.org/ns#"
   xmlns:rdf="http://www.w3.org/1999/02/22-rdf-syntax-ns#"
   xmlns:svg="http://www.w3.org/2000/svg"
   xmlns="http://www.w3.org/2000/svg"
   xmlns:sodipodi="http://sodipodi.sourceforge.net/DTD/sodipodi-0.dtd"
   xmlns:inkscape="http://www.inkscape.org/namespaces/inkscape"
   version="1.0"
   width="3447.4634pt"
   height="1717.8058pt"
   viewBox="0 0 3447.4633 1717.8058"
   preserveAspectRatio="xMidYMid meet"
   id="svg5964"
   inkscape:version="0.91 r13725"
   sodipodi:docname="plugs-multiple.svg"
   inkscape:export-filename="/home/churchyard/RepRap/BI-3DT/powerplugs-task/pics/plugs-multiple.svg.png"
   inkscape:export-xdpi="21.376106"
   inkscape:export-ydpi="21.376106">
  <defs
     id="defs6006" />
  <sodipodi:namedview
     pagecolor="#ffffff"
     bordercolor="#666666"
     borderopacity="1"
     objecttolerance="10"
     gridtolerance="10"
     guidetolerance="10"
     inkscape:pageopacity="0"
     inkscape:pageshadow="2"
     inkscape:window-width="1848"
     inkscape:window-height="1056"
     id="namedview6004"
     showgrid="false"
     fit-margin-top="0"
     fit-margin-left="0"
     fit-margin-right="0"
     fit-margin-bottom="0"
     inkscape:zoom="0.18285857"
     inkscape:cx="2680.9145"
     inkscape:cy="1177.7753"
     inkscape:window-x="72"
     inkscape:window-y="0"
     inkscape:window-maximized="1"
     inkscape:current-layer="svg5964" />
  <metadata
     id="metadata5966">
Created by potrace 1.13, written by Peter Selinger 2001-2015
<rdf:RDF>
  <cc:Work
     rdf:about="">
    <dc:format>image/svg+xml</dc:format>
    <dc:type
       rdf:resource="http://purl.org/dc/dcmitype/StillImage" />
    <dc:title></dc:title>
  </cc:Work>
</rdf:RDF>
</metadata>
  <g
     id="g6605"
     transform="translate(-113.76239,-122.91948)">
    <path
       transform="scale(0.8,0.8)"
       inkscape:connector-curvature="0"
       id="path6567"
       d="M 1669.3292,176.05156 C 1329.2426,180.37702 989.5967,200.68108 649.61828,209.52602 498.95971,340.42826 387.22858,512.61871 300.8302,691.62918 207.81373,897.54587 138.47022,1123.9835 166.7592,1352.2188 c 15.75438,172.0509 99.60711,328.458 189.98417,472.2742 91.70627,143.9934 202.51909,276.7 338.26945,381.2287 23.68102,25.1162 51.74003,40.6725 87.10167,34.2784 509.70621,10.6499 1018.93371,46.3159 1528.97611,44.4304 64.5926,-44.8867 119.0408,-103.4328 177.0601,-156.6166 49.9314,43.9742 94.3582,95.036 144.9741,137.4761 429.5788,-0.322 859.2432,5.2982 1288.771,-1.2813 31.2352,-1.3939 68.0669,4.9764 82.0754,-30.9802 146.4801,-184.6715 272.437,-387.7388 361.0897,-606.5403 42.2514,-110.4069 47.6684,-230.3818 61.8921,-346.6042 22.789,-241.3526 -12.1124,-495.67041 -140.7159,-704.9686 -75.7553,-139.50061 -175.4214,-267.13192 -296.8729,-369.61908 -54.3432,-26.10843 -118.3959,-17.2086 -177.0363,-22.73117 -350.9533,-6.15785 -702.0991,-6.51809 -1053.0521,-0.35314 -55.922,2.69753 -112.9097,4.08681 -167.8926,11.95464 -47.7339,45.99404 -89.7609,97.42591 -124.9258,153.55104 -62.4513,-61.37383 -128.1901,-123.55582 -207.6827,-161.85023 -196.1246,-10.10627 -393.0377,-9.00174 -589.4455,-9.8159 z m 1712.4531,134.46397 c 65.9886,0.33582 129.3877,22.61659 189.8297,48.28689 100.3676,55.02351 206.4444,106.36057 281.723,193.71804 54.361,58.54578 113.0123,117.2676 135.1106,196.74136 49.9831,131.34588 93.0289,269.02938 87.3266,411.31658 0.1574,134.8326 -10.3397,273.6976 -58.9683,400.7224 -48.1291,112.7806 -106.7261,227.0594 -207.4314,301.9377 -118.7435,91.4612 -251.9698,166.5792 -393.4108,214.0967 -119.0294,37.7781 -243.7963,50.8164 -367.7812,36.9886 -110.5541,-24.3514 -203.9477,-92.5769 -299.8504,-149.5338 -86.2591,-55.569 -150.8503,-137.0551 -194.0749,-229.1283 -51.3923,-91.8156 -85.2332,-192.3389 -129.3578,-287.6978 -23.0212,-5.6122 -10.6403,34.8157 -17.2713,49.3145 -20.5837,128.9187 -58.107,259.9247 -137.2518,365.7732 -87.1169,79.8724 -182.9934,156.2171 -295.3517,194.4329 -75.2355,19.0555 -156.4042,19.4295 -233.8525,31.9096 -117.5925,8.6347 -235.16,7.2321 -351.8665,-9.6663 -89.539,1.3438 -163.1342,-57.1148 -240.1104,-94.4634 C 1021.8817,1918.9435 917.65865,1815.2877 829.94676,1702.8142 757.42454,1599.207 708.82917,1479.6254 672.59326,1359.3751 635.09102,1205.2358 657.23439,1040.8309 704.12378,890.55096 737.06038,782.74059 812.99568,694.5553 897.6434,622.55228 c 47.35249,-27.88192 82.52629,-73.77092 131.3985,-100.50886 114.7783,-70.72253 242.8729,-125.27361 375.3536,-148.87591 102.2656,-7.58719 206.1596,9.24525 305.0518,36.6606 186.0925,61.43818 353.5805,174.03146 487.8272,316.00796 89.0757,104.8186 141.4998,234.77062 180.733,365.45493 1.0397,13.0315 12.7079,55.5316 28.4864,30.4304 12.4821,-104.1608 45.0483,-204.82757 81.0479,-303.15017 40.9912,-98.22919 116.259,-179.97027 196.4783,-248.90092 76.8293,-61.3638 157.127,-120.30558 248.2814,-158.45366 141.2363,-62.74392 294.7965,-101.71733 449.4808,-100.70112 z"
       style="opacity:1;fill:#999999;fill-opacity:1;stroke:none;stroke-width:1.75393701;stroke-linecap:round;stroke-linejoin:round;stroke-miterlimit:4;stroke-dasharray:none;stroke-opacity:1" />
    <path
       transform="scale(0.8,0.8)"
       inkscape:connector-curvature="0"
       id="path6565"
       d="m 1413.5839,385.72094 c -89.494,11.13421 -174.0429,48.06649 -256.798,82.46617 C 1019.3023,530.01912 898.05985,626.47556 799.77488,740.17221 686.4783,885.477 662.8578,1079.1739 669.97853,1257.9584 c 10.89311,116.5601 58.9844,226.251 108.90804,330.7992 70.86141,134.3882 177.31311,251.0315 305.02613,333.2749 86.1448,44.8258 165.2372,107.3493 260.8637,131.8791 83.3451,12.3112 166.1062,31.5779 251.0155,27.6294 117.0351,1.7888 233.351,-14.2122 349.1965,-28.2382 92.7599,-30.6654 173.6277,-90.0994 249.7234,-149.9942 56.7908,-44.6058 100.3839,-103.5137 126.1968,-170.9933 87.4427,-191.3874 88.3013,-411.5847 45.1382,-614.311 -21.1565,-93.297 -65.3542,-179.66116 -100.0602,-267.3578 C 2203.718,756.16756 2126.9953,671.36628 2034.9072,605.06346 1888.6359,497.25518 1719.345,408.65224 1535.2074,395.01532 c -40.4533,-3.76652 -80.9762,-8.60327 -121.6235,-9.29438 z"
       style="opacity:1;fill:#bfbfbf;fill-opacity:1;stroke:none;stroke-width:1.75393701;stroke-linecap:round;stroke-linejoin:round;stroke-miterlimit:4;stroke-dasharray:none;stroke-opacity:1" />
    <path
       transform="scale(0.8,0.8)"
       inkscape:connector-curvature="0"
       id="path6569"
       d="m 3347.3145,326.20602 c -122.7314,1.43872 -243.7822,34.34691 -357.4273,78.99173 -111.5446,44.60631 -215.8634,106.78202 -304.6495,187.96023 -49.7559,33.11079 -86.5432,83.65603 -124.9151,129.04867 -52.6569,66.4176 -81.7426,146.36541 -103.0391,227.41996 -44.9464,123.27979 -48.261,256.64899 -38.2304,386.09609 7.8889,97.9724 59.4834,184.8341 92.8629,275.4693 35.4976,79.3209 74.4756,158.3832 124.9016,229.2907 57.6972,72.509 135.4951,123.9761 216.4687,167.0349 81.7543,50.0488 171.0925,97.5012 269.9009,94.6934 187.1037,4.8353 369.5064,-58.9249 527.8022,-155.4482 118.2776,-68.0703 235.3649,-153.1501 295.3203,-279.9322 44.4106,-78.988 83.8261,-162.4483 93.2932,-253.7347 31.902,-191.4803 33.7982,-393.0904 -35.3549,-577.10921 -29.0005,-77.55214 -48.7902,-163.74624 -112.5376,-221.72032 -63.2316,-72.65853 -132.6499,-141.82999 -219.8781,-185.2455 -94.5683,-55.52119 -198.941,-111.53428 -312.256,-102.85757 -4.0872,0.0142 -8.1745,0.0285 -12.2618,0.0427 z"
       style="opacity:1;fill:#bfbfbf;fill-opacity:1;stroke:none;stroke-width:1.75393701;stroke-linecap:round;stroke-linejoin:round;stroke-miterlimit:4;stroke-dasharray:none;stroke-opacity:1" />
    <path
       d="m 2467.5,123.1468 c -1.1,0.3 -28.5,0.9 -118.5,2.4 -33.8,0.5 -64.4,1.2 -68,1.5 -9.4,0.6 -43.3,2.5 -58.5,3.1 -7.1,0.3 -16.6,0.8 -21,1.1 -4.4,0.4 -12.2,0.5 -17.4,0.4 -9.3,-0.2 -9.4,-0.2 -12.1,2.8 -3.8,4.1 -8.2,4.7 -18.3,2.6 -4.5,-1 -10.2,-2.1 -12.7,-2.5 -5.6,-1 -34.2,-0.3 -43,1 -6.8,1 -8.3,0.8 -16.4,-1.7 -6.1,-1.9 -8.5,-0.8 -12.7,6.1 -1.7,2.8 -9.9,11.6 -18.2,19.6 -8.3,8 -19.5,19.7 -25,26 -10.6,12.3 -33.1,41.8 -41.1,53.8 -6.5,9.9 -9.4,13.2 -11.6,13.2 -1,0 -8.4,-6.6 -16.6,-14.6 -16,-15.7 -28.4,-26.1 -61.9,-52.4 -5.3,-4.1 -13.6,-9.3 -20.3,-12.5 -6.6,-3.3 -14.4,-8.1 -19,-11.8 -4.2,-3.4 -9.3,-7.3 -11.2,-8.7 -1.9,-1.4 -6.6,-5.6 -10.5,-9.3 -3.8,-3.8 -8.1,-7.4 -9.5,-8.1 -1.8,-0.9 -6.4,-1.1 -16.5,-0.8 -19.1,0.6 -37.4,0.3 -41,-0.8 -6,-1.8 -60.2,-3.2 -187,-5 -39,-0.6 -92.1,-1.5 -118,-2 -98.7,-2 -160,-0.9 -297.5,5.6 -17.3,0.8 -50.8,2.1 -74.5,2.9 -23.6,0.8 -52,1.9 -63,2.4 -23.8,1.2 -39.2,1.8 -74,3.1 -38,1.4 -119.3,4.8 -155.5,6.4 -17.3,0.8 -42.1,1.8 -55,2.1 -12.9,0.3 -29.1,0.7 -36,1 -6.9,0.3 -23.3,0.7 -36.5,1 -13.2,0.3 -40.9,1.2 -61.5,2.1 -20.6,0.8 -48.5,1.9 -62,2.4 -15.8,0.6 -26.1,1.4 -29.1,2.3 -2.5,0.8 -7.2,3.6 -10.5,6.2 -3.2,2.7 -8.1,5.8 -10.9,7.1 -3.9,1.7 -9.2,6.3 -22.6,19.7 -32.8,33 -39.6,40.2 -54.5,57.7 -16.2,19 -20.7,24.5 -36.9,45.7 -3.3,4.3 -9.1,11.8 -13,16.8 -7.2,9.2 -27,36.4 -31.5,43.3 -4.3,6.6 -10.8,16.6 -13,19.7 -5.7,8.4 -11.5,17.5 -13.6,21.5 -1.4,2.5 -4.4,7.6 -6.8,11.5 -4.7,7.5 -16.9,28.4 -21.9,37.5 -3.4,6.2 -9.9,17.7 -13,23 -1.1,1.9 -4,7.3 -6.5,12 -5.2,10.1 -16.7,31.5 -18.8,35 -0.8,1.4 -2.4,4.5 -3.4,7 -1.1,2.5 -3.3,7 -4.9,10 -1.6,3 -4.1,9.1 -5.6,13.5 -1.5,4.4 -3.2,8.7 -3.9,9.5 -0.7,0.8 -3.6,7.1 -6.5,14 -2.9,6.9 -6.1,14.3 -7.2,16.5 -2.9,6.1 -8.9,21.6 -9.9,25.5 -0.5,1.9 -2,5.5 -3.3,8 -2.2,4.1 -7.5,16.3 -13.2,30 -1.2,3 -3,8.2 -3.9,11.5 -1,3.3 -2.6,8 -3.6,10.5 -1,2.5 -4.8,13.7 -8.5,25 -3.7,11.3 -7.4,21.7 -8.1,23.2 -0.8,1.5 -1.4,3.6 -1.4,4.7 0,1 -1.3,4.9 -2.9,8.4 -1.6,3.6 -3.3,8.7 -3.7,11.4 -0.4,2.6 -1.1,5.9 -1.7,7.3 -2,5.1 -7.2,24.5 -10.2,37.5 -1.2,5.3 -2.5,10.8 -5.5,22.5 -0.4,1.9 -1.1,5.5 -1.5,8 -0.4,2.5 -1.5,8.3 -2.5,13 -1.7,8 -4.7,23.9 -7,37.5 -0.6,3.3 -1.5,9.8 -2,14.5 -0.6,4.6 -1.7,12.3 -2.4,17 -0.8,4.7 -1.7,13 -2.1,18.5 -0.3,5.5 -1.1,12.9 -1.6,16.4 -4.2,27.5 -4.2,94.9 0.1,123.6 0.5,3.8 1.9,16.2 3,27.5 2.4,24.1 3.1,29.7 7.2,53 3.6,20.8 5.4,29.5 6.2,30.8 0.3,0.5 1.4,5.4 2.5,10.8 2.2,11.1 12.1,41.2 17.5,52.9 1.3,2.7 5.1,11.7 8.5,20 3.4,8.2 8,18.7 10.2,23.3 2.1,4.5 3.9,8.9 3.9,9.8 0,0.9 0.8,2.8 1.9,4.2 1,1.5 2.2,3.8 2.6,5.2 0.4,1.4 2.7,6.7 5.1,11.7 2.4,5.1 4.4,9.5 4.4,9.8 0,0.3 2.4,5.6 5.4,11.8 2.9,6.1 5.9,12.8 6.7,14.7 2.4,6 20.5,41.3 23.7,46.4 1.8,2.8 3.2,5.4 3.2,6 0,0.5 1,2.3 2.3,4 1.3,1.7 4,6.2 6.2,10.1 2.1,3.8 4.3,7.7 5,8.5 0.7,0.8 2.5,3.7 4,6.5 1.5,2.7 4.4,7.5 6.5,10.5 7.2,10.6 11.8,17.6 19.6,29.5 4.3,6.6 10.7,15.9 14.1,20.6 3.5,4.8 6.3,8.9 6.3,9.3 0,0.6 3.1,5 15.5,22.4 2.5,3.4 4.5,6.7 4.5,7.2 0,0.6 1.5,2.7 3.3,4.7 1.9,2.1 4.7,6 6.3,8.8 2.8,4.9 10.3,15.8 16.3,24 11.3,15.2 17.7,23.5 26,33.9 5.3,6.6 12,14.9 14.8,18.5 5.8,7.3 20.3,24.5 30.1,35.5 3.4,3.9 6.8,7.8 7.5,8.6 3.4,3.8 46.3,45.3 62.8,60.6 18.1,16.9 38.6,35.1 43.8,38.8 1.4,1.1 4.9,4 7.6,6.6 2.8,2.5 7.3,6.4 10,8.6 2.8,2.1 7.7,6.4 11.1,9.5 5,4.7 7.2,5.9 13.5,7.7 8.1,2.4 18.4,7.2 26.8,12.6 3,2 5.9,3.3 6.4,2.9 2.9,-1.8 20.4,-2.8 47.7,-2.7 33.9,0.1 89,1.2 96,1.9 2.5,0.3 19.8,1 38.5,1.5 18.7,0.6 36.3,1.3 39,1.5 2.8,0.2 14.5,0.6 26,1 11.6,0.3 24.2,0.8 28,1 3.9,0.2 14,0.7 22.5,1 8.5,0.3 22,0.8 30,1 13.7,0.5 26.9,1.1 76,3.5 24.6,1.3 40,1.8 62,2.4 38.5,1.1 59,1.8 83.5,3.1 14.3,0.7 33,1.3 41.5,1.4 8.5,0.1 17.5,0.4 20,0.7 5.3,0.6 7.5,0.7 78,2.8 72,2.1 84.8,2.5 108.5,3.7 11,0.6 31.7,1.4 46,1.9 14.3,0.5 34.6,1.3 45,1.9 17.5,0.9 48.5,2.1 108.5,4 12.9,0.5 69.1,0.9 124.9,1 55.8,0.1 101.9,0.5 102.5,0.8 0.5,0.4 9.6,0.6 20,0.4 25.3,-0.3 26.1,-0.5 39.1,-13 5.5,-5.3 14.5,-13.2 19.9,-17.6 5.5,-4.4 13,-10.7 16.7,-14 3.6,-3.3 12.4,-11.1 19.5,-17.4 7.1,-6.3 21.7,-20.4 32.5,-31.3 10.8,-10.9 20.2,-19.8 21,-19.8 2.1,0 2.6,0.5 13.4,12.5 16.6,18.4 66.6,69.4 78.4,80 15.1,13.4 14.3,13.1 26,11.2 26.4,-4.4 44.2,-5.4 66.3,-3.7 9.5,0.8 32.6,1.4 51.3,1.5 18.7,0 43.5,0.4 55,0.9 14.2,0.6 30.3,0.5 49.5,-0.4 15.7,-0.6 31.9,-1.3 36,-1.5 35.4,-1.4 407.1,-2.7 450.5,-1.5 9.9,0.3 35.6,0.4 57,0.3 21.5,-0.1 41.5,-0.1 44.5,0.1 3,0.3 41.7,0.5 86,0.5 60.7,0.1 88.7,-0.3 113.7,-1.5 l 33.2,-1.6 6,2.1 c 4.7,1.6 8.5,2.1 16.9,2.1 9.5,0 11.1,-0.3 14.6,-2.4 2.1,-1.3 4.4,-3.2 5,-4.3 0.6,-1.1 7,-8.5 14.3,-16.4 7.2,-7.9 14.5,-16.2 16.1,-18.4 1.7,-2.2 5.5,-7.2 8.6,-11 5,-6.3 8.6,-11.2 18.8,-25.6 1.8,-2.6 5.5,-7.5 8.1,-11 7.3,-9.8 17.6,-23.8 23.7,-32.4 3,-4.2 7.5,-10.3 10,-13.5 7.9,-10.1 42.2,-61.5 48.8,-73 1.8,-3.3 7.6,-12.5 11.3,-18.1 0.8,-1.3 4.2,-6.9 7.4,-12.4 3.2,-5.5 8.3,-14.1 11.3,-19 3,-5 6.3,-10.4 7.2,-12 1,-1.7 4.5,-7.6 7.8,-13.1 3.3,-5.6 7.3,-12.6 8.7,-15.5 1.5,-3 3.7,-6.8 5,-8.4 1.2,-1.7 5.6,-9.5 9.7,-17.5 10.3,-19.7 20.4,-38.6 26.8,-50 3,-5.2 6.7,-12 8.3,-15 1.5,-2.9 4.6,-8.3 6.7,-12 3.5,-5.9 13.9,-27 21.3,-43 1.6,-3.6 4.3,-9.2 5.9,-12.5 1.6,-3.3 4.6,-10.1 6.5,-15 1.9,-5 4.4,-11 5.5,-13.5 6.1,-13.4 15.6,-38.1 19.6,-51 2.9,-9.3 5.1,-15.6 7.8,-22.5 1.3,-3.3 2.4,-6.9 2.4,-7.9 0,-1.1 0.6,-4.2 1.4,-7 4.4,-15.2 7.6,-29.3 7.6,-32.9 0,-1.4 0.9,-6.9 2.1,-12.3 1.1,-5.5 2.4,-13.3 2.9,-17.4 0.5,-4.1 1.5,-10.4 2.1,-14 0.6,-3.6 1.5,-9.4 1.9,-13 0.4,-3.6 1.3,-9.4 1.9,-12.9 0.7,-3.5 1.8,-12.5 2.6,-20 2.8,-27.1 3.6,-34.7 4.5,-41.1 0.5,-3.6 1.4,-10.1 2,-14.5 0.7,-4.4 1.6,-10.2 2.1,-12.8 0.5,-2.6 0.9,-6.6 0.9,-8.8 0,-2.2 0.4,-5.9 0.9,-8.2 0.5,-2.3 1.5,-9.6 2.1,-16.2 0.6,-6.6 1.6,-15.2 2.1,-19.2 1.1,-7.7 1.3,-27.2 1,-103.3 -0.2,-49.4 -0.5,-54.4 -5.1,-94.5 -1,-9.4 -2.4,-22 -3,-28 -0.6,-6.1 -2,-17.3 -3,-25 -1.1,-7.7 -2.7,-19.4 -3.6,-26 -0.9,-6.6 -2.5,-15.6 -3.6,-20 -2.7,-11 -4.8,-20.2 -5.9,-25.5 -0.4,-2.5 -1.8,-7.9 -2.9,-12 -1.2,-4.1 -2.7,-9.8 -3.5,-12.5 -0.7,-2.8 -1.7,-6.1 -2.3,-7.5 -0.6,-1.4 -2.3,-7.7 -3.8,-14 -1.5,-6.3 -3.3,-12.7 -4,-14.2 -0.8,-1.5 -1.4,-3.6 -1.4,-4.6 0,-1.1 -0.7,-4.4 -1.6,-7.3 -3.7,-12.5 -10.6,-33.6 -12,-36.6 -0.8,-1.8 -2.1,-5 -2.8,-7 -3.7,-10.4 -21.9,-48.2 -32.4,-67.3 -4.1,-7.4 -9.2,-16.9 -11.4,-21 -2.2,-4.1 -4.8,-8.6 -5.8,-10 -1,-1.4 -4.3,-7.5 -7.5,-13.5 -3.1,-6.1 -6.5,-12.1 -7.5,-13.5 -1,-1.4 -4.1,-7 -7,-12.5 -2.8,-5.5 -5.7,-10.7 -6.4,-11.5 -0.7,-0.8 -4.1,-6.2 -7.6,-12 -3.5,-5.8 -7,-11.4 -7.7,-12.5 -0.8,-1.1 -3.7,-5.6 -6.6,-10.1 -8.3,-12.8 -13,-19.7 -16.8,-24.5 -2,-2.4 -3.9,-5.3 -4.3,-6.3 -0.3,-1 -2.4,-4.4 -4.6,-7.5 -11.4,-15.9 -16.9,-23.9 -18.3,-26.7 -0.9,-1.7 -2.3,-3.7 -3.3,-4.5 -0.9,-0.8 -4,-5 -6.9,-9.4 -4.7,-7.3 -8.8,-12.6 -23,-30 -8.4,-10.3 -21.8,-25.7 -26.6,-30.5 -4.4,-4.4 -9,-9.5 -20.8,-23 -6.9,-8 -26,-27.2 -40.3,-40.6 -15.3,-14.4 -23.8,-21.4 -34.9,-28.8 -3.7,-2.5 -7,-5 -7.4,-5.6 -0.4,-0.6 -2.7,-2 -5,-3 -2.5,-1.1 -4.6,-2.7 -5,-4 -0.9,-2.8 -12.3,-8 -17.3,-8 -3.5,0 -11.4,-1.4 -23,-4 -4.1,-0.9 -6.4,-0.9 -9.9,-0.1 -4.6,1.2 -10.4,1.1 -41.8,-0.9 -8.2,-0.5 -27.6,-1.2 -43,-1.5 -50.5,-1 -63.8,-1.5 -79,-2.6 -8.2,-0.6 -35.2,-1.2 -60,-1.4 -60.3,-0.5 -124.6,-1.9 -146,-3.1 -10.7,-0.7 -296.3,-1.4 -298,-0.8 z m 318.5,20.3 c 14,0.6 60,1.4 102.1,1.9 42.1,0.5 77.1,1.2 77.7,1.6 0.6,0.3 19.7,1.1 42.4,1.6 50,1.1 111,3.8 126.8,5.5 1.9,0.2 8,0.6 13.5,1 5.5,0.4 13.2,1.3 17,2.2 3.9,0.8 9,1.9 11.4,2.4 4.3,0.9 6.4,2.3 21.1,13.8 3.6,2.8 8.8,6.9 11.6,9 2.8,2.2 6.4,5.2 8,6.8 1.6,1.5 9.6,9.1 17.8,16.8 8.2,7.7 15.8,15.1 17,16.4 1.1,1.3 5,5.6 8.6,9.6 3.6,3.9 9.7,10.7 13.5,15.1 3.9,4.3 9.9,11.1 13.5,15 3.6,4 10.3,11.6 15,16.9 4.7,5.4 10.6,12 13.1,14.9 6.3,7.1 10.9,13.2 10.9,14.4 0,0.6 1.6,3 3.6,5.4 2,2.3 6.6,8.8 10.3,14.3 3.6,5.5 7.2,10.6 7.9,11.4 1.4,1.5 3,3.7 10.7,15.1 2.4,3.6 6.4,9.4 8.9,13 2.5,3.6 7.3,10.8 10.7,16 3.4,5.2 6.8,10.4 7.5,11.5 4.1,5.9 6.7,10 9.3,14.7 1.5,2.9 4.6,8 6.7,11.4 2.1,3.3 5.5,8.8 7.4,12.3 1.9,3.4 5,8.8 6.8,11.9 1.9,3.1 5.7,10.2 8.5,15.7 2.8,5.5 6.3,11.8 7.7,14 1.5,2.2 5,8.5 7.9,14 2.9,5.5 6.6,11.8 8.1,14 2.9,4.2 20.3,38.6 21.5,42.6 0.4,1.3 1.8,4 3.1,5.9 1.3,1.9 2.4,4 2.4,4.7 0,1.1 3.7,10 9.5,22.8 2.9,6.4 7.5,19.3 9.4,26.2 1.1,4 2.3,7.8 2.6,8.4 0.4,0.6 1.3,3.8 2.1,7.2 0.8,3.4 2.4,9.3 3.5,13.2 1.1,3.8 2.5,8.8 3.1,11 0.5,2.2 1.4,5.3 2,7 0.5,1.6 2.7,9.3 4.8,17 2.1,7.7 4.6,16.5 5.5,19.5 0.9,3 2,8 2.6,11 1,5.8 2.9,14.3 5,22.5 0.7,2.7 1.6,8.1 2,12 2.1,19.5 2.9,26.1 3.5,27.5 0.3,0.8 0.9,5.3 1.4,10 1.1,11.7 3.8,35.3 5.5,48.3 0.8,6 1.3,11.2 1,11.7 -0.2,0.4 0.1,4.9 0.9,10.1 0.7,5.2 1.4,10.7 1.5,12.4 0.4,7.7 0,139.9 -0.4,146.5 -1.4,19.1 -3.5,37.4 -5.5,48.5 -0.5,2.7 -1.6,11.3 -2.5,19 -0.9,7.7 -2,17.1 -2.6,21 -0.5,3.8 -1.4,11.3 -1.9,16.5 -0.5,5.2 -1.4,12.9 -2,17 -0.6,4.1 -1.5,11.1 -2,15.5 -1.7,14.7 -7.6,53.9 -11,73 -1.1,6.6 -2.5,14.7 -3,18 -0.5,3.3 -1.6,8.2 -2.5,11 -0.9,2.7 -2.2,7.7 -2.9,11 -0.8,3.3 -2.6,9.3 -4,13.2 -1.4,4 -2.6,8.1 -2.6,9 0,1 -0.9,3.3 -2,5.1 -1.1,1.8 -2,4.3 -2,5.5 0,1.3 -0.4,2.7 -0.9,3.2 -0.5,0.6 -1.4,2.8 -2.1,5 -1.7,5.9 -4.8,14.2 -8,21.5 -5.5,12.8 -6,14.1 -6,15 0,0.6 -1.1,3.3 -2.5,6.2 -1.4,2.8 -2.5,5.7 -2.5,6.2 0,0.6 -2.5,6.5 -5.6,13.1 -3.1,6.6 -8.7,19 -12.5,27.5 -3.8,8.5 -9.9,20.9 -13.6,27.5 -14.3,26 -22.6,40.6 -23.4,41.1 -0.5,0.3 -0.9,1.5 -0.9,2.7 0,1.2 -1.4,4.2 -3,6.7 -1.6,2.5 -3,5 -3,5.6 0,0.6 -1.2,2.9 -2.7,5 -1.4,2.1 -4.5,7.5 -6.8,11.9 -8.1,15.6 -19.9,36.6 -22.4,40 -0.5,0.5 -3.2,5.5 -6,11 -2.9,5.5 -6.5,11.6 -8.1,13.5 -1.5,2 -3.7,5.6 -5,8 -1.2,2.5 -4.1,7.4 -6.5,11 -2.3,3.6 -5.5,8.7 -7,11.5 -4,7 -18.6,30.7 -20.1,32.5 -0.7,0.8 -2.3,3.5 -3.7,6 -3.7,6.9 -8.8,14.9 -13.7,21.6 -2.5,3.3 -6.1,8.7 -8,11.8 -1.9,3.2 -4.5,7.2 -5.7,8.9 -1.3,1.8 -3.6,5.2 -5.2,7.7 -1.6,2.5 -4.2,6 -5.8,7.9 -2.8,3.4 -9.2,12.3 -13.8,19.3 -1.3,2 -2.9,3.9 -3.4,4.2 -1,0.7 -10.6,13.6 -15.1,20.6 -1.4,2.1 -3.7,5.3 -5.1,7.2 -1.4,1.8 -7.9,10.5 -14.4,19.3 -6.5,8.8 -12.3,16.4 -12.9,17 -0.6,0.5 -3.3,4 -5.9,7.7 -2.6,3.6 -5.7,7.5 -6.9,8.5 -1.3,1 -3.9,3.6 -5.8,5.9 -12.2,14.2 -19.5,22.1 -21.3,23.1 -1.5,0.8 -8.5,1.2 -22.2,1.3 -11,0 -29.7,0.5 -41.5,1 -25.2,1.1 -98.8,1.2 -233,0.3 -197.6,-1.4 -458.2,-0.5 -524,1.9 -55.6,1.9 -134.5,1.1 -169.1,-1.8 -9.6,-0.8 -26.5,-1.4 -37.5,-1.4 -10.9,0 -23.4,-0.4 -27.8,-0.9 -4.6,-0.5 -9.1,-0.5 -10.9,0 -6,1.7 -9.7,1.1 -13.6,-2.2 -8.7,-7.5 -27.9,-27 -86.3,-87.4 -5.7,-5.9 -11.5,-10.7 -16.8,-13.9 l -8.1,-4.9 -4.6,1.9 c -3.6,1.5 -5.3,3 -7.6,6.8 -1.5,2.7 -7.3,9.7 -12.8,15.5 -17.3,18.3 -59,57.1 -70.9,66.1 -2.5,1.8 -7,5.7 -10,8.5 -5.4,5.2 -28.8,23.3 -32.8,25.4 -2.7,1.4 -163.3,1.5 -235.2,0.1 -44.8,-0.9 -101.8,-2.8 -134.5,-4.5 -5.5,-0.3 -23,-1 -39,-1.6 -15.9,-0.5 -30.8,-1.2 -33,-1.4 -2.2,-0.2 -16.1,-0.6 -31,-0.9 -14.8,-0.4 -29.9,-0.9 -33.5,-1.1 -6.2,-0.5 -33.4,-1.4 -106.5,-3.5 -18.7,-0.5 -37.4,-1.2 -41.5,-1.4 -4.1,-0.3 -14.5,-0.8 -23,-1.1 -8.5,-0.3 -26.1,-1 -39,-1.5 -12.9,-0.5 -37,-1.4 -53.5,-2 -41.4,-1.4 -102.5,-3.8 -129.5,-5 -21.5,-1 -55.8,-2.4 -87,-3.5 -8,-0.3 -25.1,-1 -38,-1.5 -73.2,-3 -122,-4.4 -199.6,-5.8 l -36.1,-0.7 -5.9,-3.9 c -3.2,-2.2 -7.9,-5.6 -10.4,-7.7 -2.5,-2.1 -10.8,-9.1 -18.5,-15.5 -28,-23.3 -26,-21.6 -50.3,-43.5 -5.1,-4.6 -11.1,-9.8 -13.3,-11.5 -2.1,-1.8 -6.7,-5.8 -10.1,-9.1 -46.3,-43.8 -43.9,-41.3 -70.4,-71 -31.6,-35.2 -55.1,-66 -87.3,-114.3 -3.8,-5.8 -9.7,-14.6 -13,-19.5 -6.9,-10.2 -11.4,-17 -22.4,-33.5 -4.2,-6.3 -8.8,-13.1 -10.2,-15 -1.4,-1.9 -4.1,-5.6 -5.9,-8.1 -1.9,-2.6 -4,-5.7 -4.6,-7 -0.7,-1.3 -3.2,-5.3 -5.5,-8.9 -2.3,-3.6 -6.3,-10.1 -8.9,-14.5 -2.6,-4.4 -6.5,-10.7 -8.6,-14 -2.1,-3.3 -6,-10.3 -8.5,-15.5 -10.1,-20.5 -22.4,-46 -27,-56 -2.6,-5.8 -5.8,-12.8 -7.1,-15.5 -1.3,-2.8 -2.7,-6.6 -3,-8.5 -0.4,-1.9 -2,-5.8 -3.5,-8.5 -1.5,-2.8 -4.2,-8.4 -5.9,-12.5 -4.3,-10.3 -5.3,-12.5 -8.8,-20 -1.7,-3.6 -4.8,-10.8 -6.8,-16 -2,-5.2 -4,-10 -4.5,-10.6 -0.5,-0.6 -1.8,-3.6 -2.8,-6.6 -1,-2.9 -2.8,-7.2 -3.9,-9.3 -1.9,-4 -7,-20.6 -9.8,-32 -0.8,-3.3 -2.3,-9.8 -3.4,-14.5 -1.9,-7.9 -5.8,-29.1 -8,-44 -1.1,-7.6 -3.7,-31 -5.1,-46 -0.5,-5.8 -1.4,-12.4 -2,-14.7 -0.6,-2.3 -0.9,-4.8 -0.6,-5.6 0.3,-0.7 0.1,-5.1 -0.4,-9.8 -2,-20.3 -3,-83.6 -1.4,-90.9 0.3,-1.4 0.8,-7 1,-12.5 0.6,-12.9 1.9,-23.5 5.7,-47 0.6,-3.9 1.5,-9.9 1.9,-13.5 0.4,-3.6 1.2,-9 1.8,-12 0.6,-3 1.7,-9.6 2.4,-14.5 0.7,-5 1.7,-9.6 2.1,-10.3 0.6,-1 1.8,-7 5.5,-28.7 0.5,-2.8 2,-9.7 3.4,-15.5 1.4,-5.8 3.5,-14.3 4.6,-19 3.2,-13.4 4.3,-17.3 5.6,-21 0.7,-1.9 2,-6.2 2.8,-9.5 3.4,-13 21.5,-64.3 25.1,-71.3 0.9,-1.8 1.6,-3.4 1.5,-3.7 -0.1,-0.8 3.2,-9.4 4.8,-12.5 0.7,-1.4 1.3,-3.3 1.3,-4.2 0,-1 1,-4.1 2.3,-7 1.3,-2.9 3.2,-8 4.2,-11.3 1,-3.3 2.9,-9.2 4.2,-13 1.4,-3.9 3.1,-8.8 3.8,-11 0.7,-2.2 3.4,-8.3 5.9,-13.5 2.5,-5.2 4.6,-10.2 4.6,-11 0,-0.9 0.6,-2.4 1.4,-3.5 0.7,-1.1 2.3,-4.6 3.5,-7.9 3.1,-8.4 7.8,-18.7 13.5,-29.6 2.7,-5.2 9.8,-19.2 15.8,-31 6,-11.8 12.5,-24.7 14.6,-28.5 10.5,-19.6 13.6,-25.1 14.7,-26.5 1.2,-1.5 4.2,-6.9 12.5,-22.5 2.3,-4.4 5.8,-10.3 7.6,-13.1 1.9,-2.8 3.4,-5.3 3.4,-5.6 0,-0.9 9,-15.8 15.5,-25.8 21.1,-32.2 29.9,-45.2 34.8,-51.6 3.5,-4.4 6.4,-8.3 21.4,-28.3 4.7,-6.4 7.9,-10.4 19.5,-24.9 4.6,-5.6 10.1,-12.7 12.3,-15.6 4.4,-5.9 13,-16 21.2,-24.6 2.8,-3 6.6,-7.3 8.3,-9.5 4.5,-5.8 42.3,-43.9 57.6,-58.1 l 13.1,-12.2 8.4,-0.6 c 18,-1.3 76.8,-3.7 125.9,-5 100.5,-2.8 189.4,-5.9 247,-8.6 11.8,-0.6 42.2,-1.7 67.5,-2.5 25.3,-0.9 54.3,-2 64.5,-2.5 10.2,-0.5 33.1,-1.4 51,-2 17.9,-0.5 42.2,-1.4 54,-2 11.8,-0.6 33.7,-1.5 48.5,-2.1 14.9,-0.5 42.1,-1.7 60.5,-2.5 48.6,-2.2 163.8,-2.9 247,-1.5 39.3,0.6 84.8,1.4 101,1.6 50.7,0.8 82.8,1.5 134.5,3.1 72.9,2.2 85.7,2.8 89.2,4.6 1.7,0.8 9.3,6.2 16.9,11.9 67.3,50 64.6,48 77.9,59.4 11.4,9.8 26.1,23.3 38.2,35.1 9.6,9.4 11.3,11.5 11.3,14.2 0,3.3 0.7,4.1 4.1,4.7 1.2,0.2 3.2,1.6 4.5,3 1.2,1.4 2.8,2.5 3.4,2.5 1.8,0 6,-4.8 6,-6.8 0,-1 1.4,-3.1 3,-4.7 1.7,-1.6 3,-3.8 3,-5 0,-4.3 31.4,-47.5 50.4,-69.5 12.3,-14.2 33.8,-36.2 38.7,-39.6 3.9,-2.7 4.3,-2.7 10.2,-1.7 4.6,0.8 10.8,0.7 23.7,-0.3 9.6,-0.7 26.5,-1.8 37.5,-2.4 11,-0.6 23.6,-1.5 28,-2 4.4,-0.5 22.9,-1.4 41.2,-2 18.2,-0.6 46.1,-1.7 62,-2.5 15.8,-0.8 40.3,-1.5 54.3,-1.5 23,0 45.4,-0.6 116,-2.9 32.7,-1.1 309,-0.4 339,0.8 z"
       id="path5974"
       inkscape:connector-curvature="0"
       style="fill:#000000;stroke:none" />
    <path
       d="m 2664.5,242.6468 c -9.3,0.3 -20.6,1.1 -25,1.8 -4.4,0.6 -15,2 -23.5,3.1 -18.9,2.5 -31.2,4.4 -45,7.2 -5.8,1.1 -14.8,2.9 -20.1,3.9 -13.7,2.5 -31.8,6.7 -68.4,15.8 -6.7,1.7 -19.3,5.5 -28,8.6 -8.8,3.2 -23.6,8.3 -33,11.5 -20.4,7 -37.7,13.7 -58.5,23 -8.5,3.7 -20,8.7 -25.4,11 -24.4,10.2 -84.8,42.6 -103.6,55.4 -19.2,13.2 -58.7,44.5 -73,58 -10.1,9.5 -13.6,11.9 -19,13 -5.9,1.2 -22.2,16.1 -40.5,36.7 -5.6,6.4 -16.7,18.1 -24.7,26 -8,7.9 -16.6,17.3 -19.2,20.9 -6.8,9.4 -11.1,15 -20.2,26.4 -15,18.9 -28.1,40.4 -50.4,83.1 -3.2,6 -7.2,15.5 -8.9,21 -1.7,5.5 -3.6,11.3 -4.2,13 -0.6,1.6 -2.2,7.7 -3.6,13.5 -1.3,5.7 -6,21 -10.3,34 -4.3,12.9 -10.2,32.7 -13,44 -2.8,11.3 -6.7,25 -8.6,30.5 -4.8,13.8 -11.1,38.4 -12.3,48 -0.6,4.4 -1.5,13.8 -2.1,21 -0.5,7.1 -1.7,20.2 -2.5,29 -0.9,8.7 -1.3,17.2 -1,18.7 0.6,2.3 0.3,2.8 -1.3,2.8 -1.7,0 -2.2,-1.5 -4.1,-12.3 -1.2,-6.7 -2.6,-13.2 -3.2,-14.5 -0.5,-1.3 -0.9,-3.3 -0.9,-4.4 0,-1.2 -0.4,-3.5 -1,-5.2 -0.5,-1.7 -1.8,-6.9 -2.9,-11.6 -7.5,-32.3 -23.2,-79 -37.1,-110 -1.6,-3.6 -4,-9 -5.3,-12 -17.7,-39.7 -32.6,-69.8 -47.6,-96 -5.6,-9.6 -10.1,-18.6 -10.1,-20 0,-3 -5.6,-10.9 -14.3,-20 -3.4,-3.6 -9,-10.6 -12.5,-15.7 -14.7,-21.2 -38.9,-47 -69.6,-74.1 -11.1,-9.7 -22.3,-19.5 -24.9,-21.7 -53.2,-43.9 -98.4,-77.1 -130.2,-95.5 -6,-3.5 -13,-7.6 -15.5,-9.1 -31.4,-19.1 -78.3,-42.1 -124.5,-61.1 -31.5,-12.9 -45.9,-17.6 -74,-24.4 -3.3,-0.8 -8.5,-2.1 -11.5,-2.9 -3,-0.8 -11.1,-2.6 -18,-4 -6.9,-1.4 -14.1,-3 -16,-3.5 -5,-1.3 -30.2,-4.6 -45,-6 -6.9,-0.7 -19.2,-2.1 -27.5,-3.1 -38.6,-5 -39.6,-5 -51,-3.4 -5.9,0.8 -11.1,1.7 -11.6,2.1 -0.5,0.3 -4.4,-0.2 -8.6,-1.2 -6.1,-1.3 -10.7,-1.6 -23.2,-1.1 -16.5,0.5 -22,1.5 -43.6,8.2 -20.9,6.4 -34,10.3 -42.5,12.5 -19.4,5 -45.5,14.1 -62.7,21.8 -6.1,2.8 -23,9.8 -37.5,15.5 -18.6,7.5 -35.6,15.2 -58.3,26.7 -39.1,19.9 -41,21 -83,48.9 -24,16 -48.2,36.7 -63.8,54.9 -8.2,9.5 -9.8,10.4 -18.9,11.7 -2.8,0.4 -6.3,1.8 -8.9,3.7 -6.5,4.7 -52.5,51.4 -59.9,60.8 -3.6,4.6 -8.1,10.2 -10,12.6 -6,7.3 -15.3,18.5 -19.5,23.5 -8.4,9.9 -11.2,13.7 -17,22.9 -6.7,10.7 -33.4,63.5 -36.4,72 -1,3 -4.5,12.7 -7.6,21.5 -9.1,25.3 -13.3,38.4 -15,47 -0.9,4.4 -2.4,11.6 -3.5,16 -1,4.4 -2.4,11.4 -3,15.5 -0.7,4.1 -2.3,12.4 -3.5,18.5 -1.3,6 -2.8,15 -3.4,20 -0.6,4.9 -1.9,13.3 -3,18.5 -1.1,5.2 -2,10.8 -2.1,12.3 0,1.6 -0.4,3.6 -0.9,4.5 -0.5,0.9 -1.2,6.2 -1.6,11.7 -0.4,5.5 -0.9,10.3 -1.1,10.6 -0.3,0.6 -3,25 -4.2,39.4 -1.8,20.4 0,82.5 2.8,97.6 0.6,3.1 1.5,9.6 2,14.5 2.6,25.1 6.9,42.1 21.5,85.9 3.4,10.4 6.6,20.6 7,22.5 0.4,1.9 1.6,5 2.6,7 1,1.9 2.5,6 3.2,9 1.2,4.5 8.1,21.1 20.7,49.5 1,2.2 2.1,5.1 2.5,6.5 2.6,9.2 20.7,47.8 24.6,52.9 1.1,1.3 1.9,2.9 1.9,3.5 0,1.9 19.2,39.7 23.1,45.7 2,3 8.4,12.8 14.2,21.9 19.3,30 24.1,37.3 30.2,44.8 3.3,4.1 7,8.8 8.2,10.5 1.2,1.6 6.9,8 12.6,14.1 5.7,6.1 11.7,12.7 13.3,14.6 12.7,15.7 42.3,46 60.4,61.9 8.5,7.4 22.3,19.6 30.5,27.1 8.3,7.5 18.8,16.2 23.5,19.5 26.6,18.5 64.6,43.3 72.5,47.2 4.9,2.5 12.7,7 17.3,9.9 10.7,7 15.7,9.5 30,15 6.4,2.5 14.6,6.2 18.2,8.3 22,13 46,26.6 49.8,28.2 2.4,1 7.3,3.7 11,5.8 7.4,4.4 21.1,10.1 24.2,10.1 1.1,0 5.4,1.4 9.7,3.1 6.1,2.4 10.8,3.4 21.3,4.5 7.4,0.8 16.4,1.9 20,2.5 6.2,1.1 16.8,0.8 25.3,-0.7 2.5,-0.4 6.8,0.1 12.5,1.5 12.3,3 28.4,5.8 37.2,6.6 4.1,0.3 11.2,1.3 15.8,2 5.6,1 15.1,1.4 29,1.3 13,0 23.1,0.4 27.2,1.2 4.7,0.9 21.9,1.2 62.5,1.2 l 56,0.1 17.5,-3.1 c 9.6,-1.7 24.3,-3.6 32.5,-4.2 21.7,-1.5 24.3,-1.9 44.5,-7 7,-1.8 28.9,-4 44.5,-4.4 22.5,-0.7 42.1,-2.4 47.4,-4.1 8.9,-2.8 18.7,-5.4 26.1,-7 12.8,-2.7 20.2,-4.6 29,-7.5 7.9,-2.7 32.2,-15.2 48.7,-25.1 4,-2.4 14.1,-8.5 22.5,-13.6 22.5,-13.5 40.8,-25.7 65.2,-43.3 30.7,-22.2 45.6,-35 65.9,-56.8 3.3,-3.4 7.1,-6.9 8.6,-7.6 2.5,-1.3 6.2,-4.3 11.7,-9.3 1.8,-1.7 2.4,-3.2 2.4,-6.6 0,-3.5 0.7,-5.1 3.4,-8.3 5.9,-6.9 17.3,-23.8 23,-34.1 9.3,-16.9 27.5,-57.6 34,-76.3 2,-5.8 4.5,-12.8 5.5,-15.5 2.6,-6.8 8.5,-26.1 11.5,-37 1.3,-5 4.8,-17.6 7.9,-28 6.2,-21.6 9,-33.7 11.1,-48 2.6,-17.5 5.1,-40.8 6.1,-57.5 1.1,-18.2 1.5,-21 3.4,-21 1.2,0 2.5,2 4.3,6.2 1.4,3.5 4.4,10.3 6.5,15.3 2.2,4.9 5.1,11.9 6.3,15.5 1.2,3.6 5.2,13.2 8.8,21.5 3.5,8.2 7.9,19.3 9.7,24.5 1.8,5.2 5.6,15.1 8.5,22 2.8,6.9 7.1,17.7 9.5,24 12.6,33.2 26.3,61.7 41.7,87 11.2,18.5 12.7,21.2 26.2,49 9.3,19.1 13.9,26.9 27.5,46.6 9.9,14.3 15.8,22 22.4,29.1 4,4.3 8.5,9.8 9.9,12.3 1.4,2.5 5.8,7.2 9.8,10.5 4,3.3 11.2,9.7 16,14.1 30.1,28 66.8,53.4 109,75.4 17,8.8 26.3,14.3 50,29 21.1,13.1 26.9,16.4 45.1,25.3 24,11.8 39.7,18.4 55.9,23.6 32.6,10.5 43.6,12.1 96,14 21.9,0.8 29.3,0.7 52.5,-1 14.9,-1 30.8,-2.3 35.5,-2.8 4.7,-0.6 12.9,-1.5 18.3,-2 27.8,-3 62.8,-10.2 108.2,-22 8.8,-2.3 18.5,-5 21.5,-6.1 3,-1 10,-3.3 15.5,-5 26.5,-8.4 55.8,-20.7 93.9,-39.5 21.9,-10.8 28.9,-14.6 60.1,-32.7 7.2,-4.1 16.1,-9.1 19.8,-11.2 16.9,-9.2 26.1,-14.6 37.9,-22.3 5.3,-3.5 10.1,-6.3 10.6,-6.3 1.9,0 69.2,-45.7 78.7,-53.5 24.4,-20 61.6,-57 71.5,-71.1 0.8,-1.2 4.1,-5.6 7.3,-9.8 3.2,-4.3 7.8,-11 10.1,-14.9 2.4,-4 6.6,-11 9.5,-15.5 6.3,-10.2 21.7,-37.8 29.6,-52.7 5.3,-10.2 12.6,-23.8 16.6,-31 1,-1.7 3.4,-6.4 5.5,-10.5 2,-4.1 4.4,-8.4 5.3,-9.6 4.7,-6.1 18.7,-42.8 24.6,-64.4 1.3,-4.7 2.8,-9.7 3.3,-11.1 2.2,-5.7 7.4,-30.3 9.1,-42.9 0.5,-4.1 1.9,-11.8 3.1,-17 3.4,-15.4 4.8,-23.1 5.4,-30.5 0.7,-7.2 1.1,-10.2 4.5,-31.5 1.1,-6.9 2.7,-18.6 3.6,-26 0.8,-7.4 2,-17.1 2.5,-21.5 0.6,-4.4 1,-10.2 1,-12.9 0,-2.7 1,-13.3 2.1,-23.5 2.1,-18 2.1,-20.1 1.1,-64.6 -0.7,-25.3 -1.6,-48 -2.1,-50.5 -0.6,-2.5 -1,-11.6 -1.1,-20.2 0,-13.5 -0.6,-21.1 -3.3,-40.8 -0.8,-5.6 -3.6,-21.8 -5.3,-30.5 -0.8,-4.4 -1.9,-10.5 -2.4,-13.5 -0.5,-3.1 -1.6,-7.2 -2.5,-9.2 -0.8,-2.1 -1.5,-4.8 -1.5,-6.1 0,-1.3 -0.9,-5 -1.9,-8.3 -3.3,-10.3 -9.4,-32.6 -10.9,-39.9 -1.2,-6 -4.6,-18 -6,-21.5 -0.6,-1.4 -2.2,-6.6 -3.7,-11.5 -4,-13.6 -8.2,-26.4 -10.4,-32 -4,-10.2 -10.3,-25 -11.1,-26 -0.8,-0.9 -4.5,-11.4 -14.6,-41 -2.5,-7.2 -6.5,-17.1 -8.9,-22 -2.4,-5 -5.3,-11.5 -6.5,-14.5 -6.2,-15.4 -20.1,-33.8 -49.1,-65.1 -8.5,-9.1 -18.8,-20.5 -22.9,-25.3 -4.1,-4.8 -10.2,-11.5 -13.5,-14.9 -3.3,-3.4 -9.9,-10.8 -14.7,-16.3 -16.5,-19.2 -33.7,-34.3 -58.7,-51.5 -12.3,-8.4 -12.1,-8.3 -23.2,-16 -8.7,-6.1 -13.5,-9 -36.4,-21.4 -18.6,-10.1 -27.2,-14.9 -29.5,-16.4 -1.4,-1 -4.5,-2.8 -7,-4 -2.5,-1.3 -9.6,-5.6 -15.9,-9.7 -12.1,-7.9 -53.4,-29 -66.6,-34.2 -10.3,-4 -31.6,-10.5 -42.7,-13.1 -4.8,-1.1 -10.4,-2.8 -12.5,-3.6 -5.8,-2.5 -32.8,-9.1 -41.8,-10.4 -19.7,-2.6 -51.4,-3.9 -75,-3 z m 61.5,21.4 c 10.2,0.8 20.8,1.9 23.5,2.4 9.1,1.8 26.8,6.7 31,8.6 1.7,0.7 12,3.9 23,7 11,3.1 24.1,7.3 29,9.2 8.1,3.2 39.2,18 45.5,21.7 1.4,0.8 6.3,3.7 11,6.4 4.7,2.7 12.3,7.3 17,10.2 14.6,9 24.6,14.9 40.3,23.4 25.2,13.7 31.9,17.7 39.2,23.1 3.9,2.8 10.6,7.6 15,10.5 4.4,3 9.6,6.6 11.5,8 1.9,1.5 7.1,5.2 11.5,8.3 8.5,6 30.5,27 37.3,35.5 2.2,2.8 6.2,7.5 9,10.4 10.9,11.6 19.5,21.3 25,28.1 3.1,4 11.7,13.5 19,21.1 16,16.7 28.4,31 33.5,38.8 2,3.2 3.7,6 3.7,6.2 0,0.3 2.9,6.5 6.4,13.8 6.1,12.5 10.6,23.8 15.6,38.8 1.2,3.6 2.8,7.9 3.6,9.7 0.8,1.7 1.4,3.7 1.4,4.4 0,1.4 4.7,13.6 9.6,25.2 1.9,4.3 3.4,8.3 3.4,8.8 0,0.6 1.2,3.6 2.6,6.7 3.6,7.9 8.3,20.7 9.9,27.2 1.4,5.5 2.9,10.1 7,21.5 1.2,3.3 2.7,8.7 3.4,12 0.7,3.3 2.2,9.4 3.4,13.5 1.1,4.1 2.4,9.5 2.8,12 1,6.1 2.6,12.4 5.1,19.5 1.1,3.3 2.6,8.5 3.3,11.5 0.7,3 2.2,8.6 3.3,12.5 1,3.8 2.5,10.8 3.1,15.5 0.7,4.7 1.9,12.3 2.7,17 3.6,22 4.6,31.3 5.5,55 0.5,14 1.3,28.2 1.9,31.5 0.9,5.9 1.6,45.3 1.1,69 -0.4,23.3 -6.5,92.9 -8.7,98.5 -0.3,0.8 -1.4,8.2 -2.4,16.5 -3.8,29.8 -5.1,39.1 -6,42.5 -0.5,1.9 -1.3,6.6 -1.9,10.5 -1,8.2 -5.8,33.9 -8.1,44 -3.4,14.8 -4.5,19.1 -7.5,28 -1.8,5.5 -4.3,13.4 -5.5,17.5 -4,13.7 -9.3,26.3 -18.8,44.5 -5.2,9.9 -9.9,18.6 -10.5,19.3 -0.6,0.7 -3.4,5.9 -6.3,11.5 -10.9,21.3 -15.6,30.3 -17.2,32.7 -0.9,1.4 -3.3,5.6 -5.2,9.5 -5,9.6 -25.8,43.4 -34.4,55.7 -11.6,16.6 -51,57.8 -70.6,73.8 -7.4,6.1 -6.3,5.2 -17.5,13 -5.5,3.8 -13.6,9.5 -18,12.6 -17.8,12.5 -45.4,30.9 -51.2,34 -3.4,1.8 -8.4,4.9 -11.1,6.9 -2.7,1.9 -5.3,3.5 -5.7,3.5 -0.4,0 -4.4,2.2 -8.9,4.8 -4.5,2.7 -12.1,7.1 -17.1,9.7 -4.9,2.6 -11.9,6.7 -15.5,9 -3.6,2.3 -9.4,5.7 -13,7.5 -3.6,1.7 -6.9,3.6 -7.5,4 -0.5,0.4 -4.6,2.7 -9,5 -4.4,2.4 -9.1,5.1 -10.5,6 -4.5,3 -53.1,26.7 -69.5,33.8 -16.5,7.2 -73.2,26.6 -86.5,29.6 -4.1,1 -11.5,2.8 -16.5,4.1 -32.1,8.4 -67,14.8 -95.5,17.5 -5.2,0.5 -16.9,1.6 -26,2.5 -25.9,2.4 -45.4,2.8 -74.5,1.6 -34.3,-1.5 -42.9,-2.5 -59.1,-6.6 -28.4,-7.3 -48.2,-14.9 -78.4,-30 -18.7,-9.3 -26.2,-13.7 -50.8,-28.9 -9.5,-5.9 -27.3,-16 -39.5,-22.5 -46.9,-24.9 -83.2,-50 -110.5,-76.5 -5.2,-5.1 -7.6,-8.2 -8.3,-10.9 -0.8,-3.2 -1.8,-4.2 -5.2,-5.7 -2.3,-1.1 -6.1,-3.9 -8.5,-6.4 -2.3,-2.6 -4.6,-4.6 -5.1,-4.6 -1.1,0 -17.9,-21.6 -22.4,-28.8 -1.8,-2.7 -6.2,-9.5 -10,-15.1 -5.6,-8.3 -18.7,-32.6 -18.7,-34.7 0,-2.7 -12.9,-26.4 -27.5,-50.4 -4.8,-8 -9.6,-16.3 -10.5,-18.5 -1,-2.2 -4.3,-9.2 -7.3,-15.6 -6.1,-12.8 -10.7,-23.5 -16.2,-37.9 -2.1,-5.2 -5.9,-14.7 -8.5,-21 -2.7,-6.3 -7.9,-19.6 -11.5,-29.5 -3.7,-9.9 -7.1,-18.5 -7.5,-19 -1,-1.3 -9.5,-21.8 -12.5,-30.5 -1.3,-3.6 -5,-12.1 -8.2,-19 -3.3,-6.9 -7.4,-16.8 -9.1,-22 -13.2,-40.5 -14,-45.2 -16.7,-94.9 -0.8,-15.6 -2,-30.2 -2.6,-32.6 -0.9,-3.6 -0.8,-4.6 1,-7.6 2.6,-4.3 2.8,-14.9 0.5,-31.1 -0.9,-6.2 -1.3,-13.7 -1.1,-16.6 0.3,-3 0.2,-6.4 -0.2,-7.5 -0.5,-1.2 -0.2,-8.7 0.5,-16.7 0.7,-8 1.1,-15.3 0.8,-16.3 -0.3,-1 -0.1,-5.5 0.5,-10 0.6,-4.5 1.7,-15.2 2.6,-23.7 0.8,-8.5 2,-20.2 2.6,-26 0.6,-5.8 1.4,-12.1 1.9,-14 2.9,-11.8 4.6,-17.8 8,-28 4.6,-13.7 10.3,-32.9 13.7,-46 1.3,-5.2 3.8,-13.5 5.4,-18.5 1.7,-4.9 4.1,-12.4 5.4,-16.5 1.3,-4.1 3.5,-10.7 5,-14.5 1.4,-3.9 4.1,-12.9 6,-20 1.9,-7.2 4.1,-15.3 4.9,-18 2.2,-8 9.5,-25.3 14.1,-33.5 2.3,-4.1 7.2,-12.9 10.9,-19.5 15.7,-28.1 22,-37.8 36.1,-55.7 5.5,-6.9 14,-17.9 18.9,-24.3 5.2,-6.8 13.6,-16 19.9,-21.8 6,-5.6 16.2,-16.3 22.7,-23.7 15.5,-17.8 23.8,-25.5 28.4,-26.4 7.6,-1.4 14.9,-6.5 27.6,-18.9 12.7,-12.5 17.8,-16.7 49,-40.9 24.2,-18.7 36.8,-27.1 56,-37.3 9.1,-4.9 19.7,-10.6 23.5,-12.7 16.7,-9.2 36.2,-18.7 52,-25.4 9.4,-3.9 22.6,-9.7 29.5,-12.9 19.1,-8.7 27.5,-11.8 83.5,-31.1 14.2,-4.9 30.5,-9.2 47.5,-12.6 3,-0.6 15,-3.2 26.5,-5.8 11.6,-2.6 25.5,-5.5 31,-6.4 5.5,-1 12,-2.1 14.5,-2.7 9.6,-2 39.7,-6.4 64.5,-9.4 15,-1.7 55,-1.8 77.5,0 z m -1583.5,48.6 c 5,0.6 11.3,1.7 14.1,2.4 4,1 7.3,1.1 14,0.3 9.8,-1.1 15,-0.8 35.9,2.2 7.7,1.1 25.3,3.1 39,4.4 23.1,2.3 46.1,5.2 47.5,6.1 0.6,0.4 7.4,1.9 23,5.1 8.2,1.7 23.7,5.7 43,11.1 21,5.9 44.8,15.1 75.8,29.2 12.3,5.5 22.6,10.1 22.8,10.1 1.9,0 49,24.6 68.9,35.9 25.1,14.4 39.3,23.4 60.3,38.5 11,7.8 14.5,10.4 33.7,24.6 20.4,15.1 66.8,54.5 95.3,80.9 18.5,17.1 39.1,41.4 55.7,65.6 3.7,5.5 8.9,12.5 11.5,15.5 2.6,3 5.6,7.9 6.6,10.8 1.5,4.2 3.4,6.6 10,12.6 8.5,7.8 11.9,13.3 14.3,23.1 0.7,2.7 1.7,5.5 2.2,6.2 0.7,0.7 0.7,1.8 0.1,3 -0.7,1.4 1.6,7.2 10.5,25.8 20.1,42.1 27.5,59.4 37.5,87 15.9,44 21.6,63 27.8,94 1.7,8.2 3.7,17.9 4.5,21.5 6.3,28.5 11.2,71.2 12.6,109.5 0.5,15.9 1.3,38.9 1.8,51 1,27.1 0.6,60.7 -0.8,73.4 -0.6,5.3 -1.8,17 -2.7,26.1 -1.9,20.5 -5,43.3 -7,52.5 -3,14 -5.6,24.1 -7.8,31 -2.3,7.1 -4,12.9 -7.1,24.5 -0.9,3.6 -2.4,8.5 -3.2,11 -0.8,2.5 -1.8,6.1 -2.2,8 -1,4.1 -11.5,34.9 -15.9,46.5 -7.9,20.8 -29.4,65.2 -36.7,75.8 -2.4,3.6 -6.3,10.2 -8.6,14.6 -3.1,6.1 -6.1,10.1 -12,15.9 -4.3,4.2 -7.9,8.1 -7.9,8.5 0,1.2 -9,12.7 -9.9,12.7 -0.4,0 -4.3,3.6 -8.7,8.1 -20,20.5 -39.2,35.8 -80.3,64.2 -17.5,12.2 -21.6,14.8 -38.6,24.8 -6.6,3.9 -13.1,7.9 -14.5,8.9 -9,6.4 -51.9,28.9 -73.2,38.4 -11.3,5.1 -14.1,5.9 -26,7.6 -7.3,1.1 -25.9,2.7 -41.3,3.5 -25.4,1.4 -41.3,2.9 -56.5,5.5 -3,0.5 -9.8,1.4 -15,2 -5.2,0.6 -12.8,1.5 -16.8,2 -4,0.6 -9.8,1 -12.9,1 -5.5,0 -12.5,1 -25.8,3.5 -3.8,0.8 -10.4,1.9 -14.5,2.5 -10.6,1.6 -58.9,1.9 -96,0.8 -17.3,-0.6 -37.2,-1 -44.2,-0.9 -7.1,0.1 -16.7,-0.3 -21.5,-0.9 -4.9,-0.6 -12.5,-1.5 -17.1,-2 -4.6,-0.5 -12.4,-2.1 -17.3,-3.5 -25.8,-7.6 -36.5,-9.6 -59.4,-11 -28,-1.7 -39.9,-3.7 -48.5,-8.2 -4.7,-2.5 -7.2,-3.3 -9.3,-2.9 -2.1,0.4 -3.5,0 -5.4,-1.8 -1.4,-1.4 -6.2,-3.6 -10.7,-5.1 -9.7,-3.2 -20.7,-8.4 -29.6,-14.1 -8.3,-5.3 -17,-9.6 -29.5,-14.6 -5.5,-2.2 -12.6,-5.8 -15.9,-8 -3.2,-2.2 -7.7,-4.8 -10,-5.8 -4,-1.7 -6.2,-3.4 -17,-12.9 -2.7,-2.4 -6.4,-4.9 -8.2,-5.7 -1.7,-0.7 -4.5,-2.4 -6,-3.7 -1.6,-1.3 -4.7,-3 -6.9,-3.7 -2.2,-0.7 -9.5,-4.6 -16.2,-8.7 -7.9,-4.7 -13.3,-7.3 -15.2,-7.3 -3.8,0 -7.1,-1.5 -14.1,-6.1 -3,-2 -7.1,-4.7 -9.1,-6 -21.6,-14.3 -34.8,-24.4 -56.1,-43.1 -6.4,-5.7 -17.2,-15.2 -24,-21.1 -6.8,-5.9 -13.4,-11.8 -14.8,-13.1 -6,-5.6 -37.6,-39.7 -43.3,-46.8 -2,-2.5 -8.9,-10.2 -15.3,-16.9 -6.4,-6.8 -12.8,-14.2 -14.2,-16.4 -1.5,-2.2 -4,-5.6 -5.7,-7.7 -4.7,-5.6 -9.1,-12 -11,-15.8 -1,-1.9 -3.3,-5.6 -5.1,-8.3 -1.9,-2.6 -3.4,-5 -3.4,-5.3 0,-0.9 -9,-14.6 -13.6,-20.5 -5,-6.5 -7.7,-11.5 -30.9,-57.4 -9.4,-18.7 -18.3,-37.4 -19.8,-41.5 -1.4,-4.1 -3.7,-10.9 -5.2,-15 -1.4,-4.1 -5.1,-12.7 -8.2,-19 -3.1,-6.3 -6.4,-13.5 -7.3,-16 -5.8,-14.8 -10,-26.5 -10,-27.7 0,-0.7 -2.4,-8.7 -5.3,-17.6 -3,-8.9 -6.2,-18.9 -7.1,-22.2 -1,-3.3 -2.2,-6.9 -2.6,-8 -5.4,-12.1 -10.2,-33.2 -13.1,-57.5 -0.5,-4.1 -1.4,-11.6 -2,-16.5 -2.6,-21.8 -3,-28.7 -3.4,-56.5 -0.4,-28.8 1,-57 3.3,-68 0.6,-2.5 1.3,-7.9 1.6,-12 0.4,-4.1 1.5,-13.1 2.6,-20 1,-6.9 2.1,-13.9 2.3,-15.5 0.3,-1.7 1.4,-7.5 2.5,-13 1.1,-5.5 2.5,-13.8 3.2,-18.5 0.7,-4.7 1.8,-11.2 2.6,-14.5 0.7,-3.3 2.3,-11.6 3.5,-18.5 3.6,-21.5 8.1,-37.6 16.9,-60.5 1,-2.8 3.8,-10.4 6.1,-17 4.3,-12.6 7.9,-21.3 10.4,-25.5 0.9,-1.4 5,-9.5 9.2,-18 15.8,-32.2 21.1,-39.7 66.1,-93.3 11.2,-13.3 24.5,-26.3 29.9,-29 1.7,-0.9 12.7,-11.2 24.5,-22.9 20.9,-20.9 38.3,-35.5 48.8,-40.8 2.4,-1.2 7.4,-4.8 11.1,-7.9 12.4,-10.4 16.3,-13.3 42.4,-30.5 29,-19.2 34.9,-22.7 65,-38.2 30.5,-15.7 32.2,-16.5 53,-24.8 10.5,-4.1 26,-10.5 34.5,-14.2 30,-12.8 36.4,-15.1 71,-25.4 9.6,-2.9 24,-7.2 32,-9.7 8,-2.4 18.3,-5.2 23,-6.3 4.7,-1 11.4,-2.6 15,-3.4 6.5,-1.5 9,-1.5 25.5,0.5 z"
       id="path5978"
       inkscape:connector-curvature="0"
       style="fill:#000000;stroke:none" />
  </g>
</svg>
