<?xml version="1.0" encoding="UTF-8" standalone="no"?>
<svg
   xmlns:dc="http://purl.org/dc/elements/1.1/"
   xmlns:cc="http://creativecommons.org/ns#"
   xmlns:rdf="http://www.w3.org/1999/02/22-rdf-syntax-ns#"
   xmlns:svg="http://www.w3.org/2000/svg"
   xmlns="http://www.w3.org/2000/svg"
   xmlns:sodipodi="http://sodipodi.sourceforge.net/DTD/sodipodi-0.dtd"
   xmlns:inkscape="http://www.inkscape.org/namespaces/inkscape"
   version="1.0"
   width="2582.4429pt"
   height="1967.3594pt"
   viewBox="0 0 2582.4428 1967.3594"
   preserveAspectRatio="xMidYMid meet"
   id="svg2"
   inkscape:version="0.91 r13725"
   sodipodi:docname="plugs-angle.svg"
   inkscape:export-filename="/home/churchyard/RepRap/BI-3DT/powerplugs-task/pics/plugs-angle.svg.png"
   inkscape:export-xdpi="28.545877"
   inkscape:export-ydpi="28.545877">
  <defs
     id="defs72" />
  <sodipodi:namedview
     pagecolor="#ffffff"
     bordercolor="#666666"
     borderopacity="1"
     objecttolerance="10"
     gridtolerance="10"
     guidetolerance="10"
     inkscape:pageopacity="0"
     inkscape:pageshadow="2"
     inkscape:window-width="1848"
     inkscape:window-height="1056"
     id="namedview70"
     showgrid="false"
     inkscape:zoom="0.27143865"
     inkscape:cx="1833.1415"
     inkscape:cy="1110.0545"
     inkscape:window-x="72"
     inkscape:window-y="0"
     inkscape:window-maximized="1"
     inkscape:current-layer="svg2"
     fit-margin-top="0"
     fit-margin-left="0"
     fit-margin-right="0"
     fit-margin-bottom="0" />
  <metadata
     id="metadata4">
Created by potrace 1.13, written by Peter Selinger 2001-2015
<rdf:RDF>
  <cc:Work
     rdf:about="">
    <dc:format>image/svg+xml</dc:format>
    <dc:type
       rdf:resource="http://purl.org/dc/dcmitype/StillImage" />
    <dc:title></dc:title>
  </cc:Work>
</rdf:RDF>
</metadata>
  <g
     id="g4310"
     transform="translate(0.01484,0.0157225)">
    <path
       transform="scale(0.8,0.8)"
       inkscape:connector-curvature="0"
       id="path4270"
       d="m 1048.2814,937.55223 c -142.43266,3.91553 -287.17628,15.56403 -421.66034,66.17027 -25.02552,3.5052 -17.2118,35.5208 -20.42882,53.539 -1.24027,130.6427 10.80965,260.8514 7.40151,391.5636 0.19831,101.8135 -5.1414,203.4749 -10.4377,304.7423 21.43156,40.1654 43.39195,81.0912 72.00494,116.4728 46.41469,33.7841 106.79957,37.4276 161.68925,46.3758 95.31607,5.8887 191.07976,0.9865 286.44376,-2.3324 100.1715,-7.5968 200.8636,-18.4189 298.5009,-42.692 46.6353,-10.7627 84.3287,-43.0498 109.6182,-82.7104 8.1283,-17.0841 28.4655,-19.9832 43.0504,-9.426 58.7147,33.2496 112.4134,77.4281 178.9435,94.9646 102.3949,30.3435 209.796,39.5993 316.2334,36.628 68.3406,2.6425 137.8371,-6.2826 201.1562,-32.8782 34.5988,-17.4471 56.2111,-54.3654 65.7593,-90.2742 17.901,-18.5316 39.9226,7.1631 57.6356,13.5563 74.2099,39.5982 157.0163,60.0344 238.6813,77.7081 114.8162,9.6477 231.765,-9.1891 338.3818,-52.5639 87.1765,-40.9466 145.4964,-124.6876 186.0582,-209.0961 19.2354,-75.5101 28.3467,-153.934 29.0481,-231.816 -10.0476,-76.3113 -41.0835,-148.9177 -78.5672,-215.6263 -41.4263,-64.5306 -96.2954,-121.0962 -164.1621,-157.8563 -58.4282,-38.59988 -130.4713,-41.1134 -196.6273,-57.35449 -76.6429,-12.21819 -155.2101,-10.51755 -232.2889,-3.49506 -85.5485,13.03753 -168.309,50.00125 -231.2684,110.05805 -21.3343,20.6402 -53.6938,38.2593 -82.7701,22.1297 -47.9079,-20.9652 -84.748,-58.7381 -129.5686,-84.7697 -31.1532,-12.42793 -62.4401,-27.98702 -95.2738,-33.8522 -86.876,-1.59004 -175.3924,-7.99141 -260.1242,16.02186 -56.1546,12.40406 -106.3188,40.92924 -156.3067,67.98234 -18.8646,10.9131 -41.104,10.7612 -61.104,16.3844 -16.3285,16.1494 -30.979,37.4609 -36.114,59.9957 2.1373,13.5849 20.5099,9.544 27.1772,20.4783 85.4674,76.1321 145.8222,187.5282 137.5149,304.0648 -7.2782,68.8975 -28.415,137.6363 -65.366,196.6094 -64.8959,74.3563 -160.5242,119.6984 -258.4464,128.1079 -19.9751,18.7523 0.7402,57.9937 -23.3493,75.6027 -14.3804,-2.607 -8.9724,-26.6725 -12.2251,-37.1645 4.1956,-25.2195 -7.3928,-43.1755 -34.6016,-36.9477 -101.5709,-7.1889 -195.9636,-55.4732 -275.02603,-118.136 -52.03599,-43.8007 -96.5732,-99.8014 -119.28627,-164.3442 -15.40661,-69.4911 -3.03896,-141.7276 26.27061,-205.6822 29.49029,-59.9065 75.49194,-111.09 126.17954,-153.7237 32.77635,-28.8854 74.70395,-42.7002 116.77505,-50.8575 29.5913,-10.8471 53.3303,-37.5711 87.7342,-33.6603 54.3424,1.278 112.1098,-6.8057 162.0437,19.9726 23.8519,10.0977 48.2919,20.3078 69.1679,35.4252 19.6927,-1.9394 24.7402,-28.6449 35.5944,-42.0916 8.2641,-21.2 -28.4736,-25.1054 -40.0772,-37.67 -38.0007,-20.8046 -75.3745,-49.3837 -119.3006,-54.71429 -10.7577,0.29761 -19.2044,25.61707 -29.2064,11.8869 -2.6188,-12.49743 -6.627,-28.72562 -22.9391,-27.48665 -67.0055,-9.69715 -134.7536,-17.27693 -202.5377,-17.21873 z m 881.8535,136.33227 c 111.6835,6.6966 221.5993,54.3215 304.804,130.859 47.388,42.3692 88.1549,96.7202 102.5164,159.4489 3.0813,17.6149 -10.077,42.687 5.4542,55.8872 17.106,-0.6528 12.1953,-25.7047 16.1178,-37.1502 2.593,-46.5568 15.5891,-91.6379 38.3722,-132.3498 5.4017,-17.4182 24.5676,-32.2764 21.7099,-51.3574 -25.0559,-14.4271 -9.1976,-49.9254 5.9362,-66.9825 32.7961,-40.2107 88.5199,-43.3442 135.0659,-53.7069 55.961,-5.337 112.7757,-5.4467 168.7982,-1.2952 61.5636,17.8218 120.9642,46.2989 173.5113,83.0284 58.0165,50.0171 113.1117,104.3674 144.7726,175.0295 22.0914,39.8041 38.1986,83.161 40.272,128.5112 8.7593,47.4041 -14.4663,92.9315 -35.1273,134.0798 -57.1084,94.3287 -152.6029,163.7705 -258.5759,192.4209 -61.7212,18.9128 -131.8817,33.3827 -194.8458,10.2679 -63.9915,-32.6257 -108.0113,-93.409 -147.4996,-151.6587 -22.6533,-42.6029 -52.4262,-80.7537 -73.0411,-124.6181 -19.6465,-11.6467 -12.9627,20.3904 -14.2686,32.1277 -3.7924,63.7702 -40.1179,119.7857 -75.5955,170.5539 -37.461,43.526 -94.4575,68.3238 -150.9103,74.6817 -107.5384,6.735 -216.1752,-9.5207 -314.2903,-53.8076 -61.4658,-28.5284 -103.4335,-87.6684 -118.9913,-152.6588 -17.6454,-72.9319 -38.1885,-147.0053 -48.9363,-220.3897 -9.8066,-67.2051 9.6163,-137.3654 53.8436,-189.0894 29.6034,-33.0801 58.7631,-77.2372 106.3633,-83.2442 35.8491,-0.8815 64.4749,-29.6686 101.1393,-28.2638 4.4623,-0.2838 8.9348,-0.3597 13.4051,-0.3238 z m -941.54702,661.6366 c 7.2972,6.2439 -6.59906,19.5415 -10.03803,25.8628 -30.76524,39.9737 -59.13872,82.8003 -94.82137,118.3702 -15.63897,13.5559 -30.45,-15.6392 -14.73629,-25.105 32.23497,-41.1762 64.47965,-83.436 105.70847,-115.4871 4.3388,-1.9444 9.02237,-3.9757 13.88722,-3.6409 z"
       style="opacity:1;fill:#999999;fill-opacity:1;stroke:none;stroke-width:1.75393701;stroke-linecap:round;stroke-linejoin:round;stroke-miterlimit:4;stroke-dasharray:none;stroke-opacity:1" />
    <path
       id="path4272"
       transform="scale(0.8,0.8)"
       d="m 1204.1133,1088.1445 c -27.5275,0.1016 -53.5412,11.9715 -72.4531,32.0293 -20.8593,7.9465 -45.4252,2.8939 -66.4278,12.9864 -46.8877,16.5122 -81.67669,55.2605 -116.25193,89.2734 -64.14809,69.2292 -99.88653,170.9532 -75.16797,264.0391 54.599,114.3176 165.4844,193.6052 283.1641,233.8046 35.0106,10.1761 73.6388,19.4434 109.3906,11.1289 7.0232,-27.0301 -5.7277,-59.3588 7.3613,-84.8359 7.5181,-5.6706 23.7601,-9.6556 21.6211,5.5918 1.7288,26.2307 0.1928,54.0428 8.0742,78.877 59.0978,-2.9538 116.7299,-28.0472 166.9492,-59.1036 36.6919,-22.9203 69.7628,-53.7912 84.0489,-95.7148 28.0397,-69.5422 47.6884,-147.7129 24.9551,-221.6914 -17.6979,-66.2544 -61.0418,-122.4879 -106.9688,-171.9355 -10.6254,-10.6214 -26.5491,-26.0935 -37.6816,-7.2168 -8.9639,6.0644 -29.5043,8.54 -24.5293,-8.8868 0.583,-16.0176 7.9866,-37.4516 -15.7598,-39.0507 -45.2147,-19.1889 -91.4462,-39.3042 -141.6914,-37.7383 -14.3476,-0.9176 -28.7259,-1.6405 -43.1074,-1.418 -1.847,-0.099 -3.6903,-0.1454 -5.5254,-0.1387 z m 1444.9551,21.459 c -4.157,0 -8.3176,0.081 -12.4786,0.252 -44.3143,-0.2048 -88.2844,12.5358 -132.0136,12.8574 -13.6279,-15.4093 -34.8851,3.0848 -47.959,10.7285 -11.3981,6.1182 -30.0745,30.442 -10.0664,37.1797 18.6347,-5.9934 39.1762,-28.8622 59.6582,-15.8379 3.8946,20.9993 -25.1769,26.451 -35.5059,40.3496 -39.3254,36.7152 -62.4098,87.7198 -81.0527,137.2774 -9.5757,62.7062 1.9168,128.0986 24.2051,187.0234 22.02,42.961 53.2479,80.3595 76.4375,122.7168 35.2739,52.8727 76.7201,109.7121 141.0234,127.7871 73.4507,9.2447 146.5855,-14.2627 215.2656,-37.8418 68.2365,-25.9321 120.991,-79.9067 167.4903,-134.2227 21.9398,-37.5413 46.861,-78.348 40.1152,-123.8085 -4.1948,-71.4981 -42.2544,-136.3416 -84.1875,-192.4473 -53.2618,-66.565 -122.889,-120.1382 -203.5586,-148.9317 -37.3095,-14.9949 -77.1888,-23.0575 -117.373,-23.082 z m -745.3946,5.5703 c -31.2338,0.043 -54.076,31.3608 -84.9687,30.0899 -21.8424,-13.9819 -37.9472,15.8886 -52.4746,27.3105 -41.2929,39.5239 -81.3176,89.4173 -79.8653,149.8047 1.5761,89.394 28.6349,175.9515 48.9024,262.375 16.1995,68.6619 71.8593,126.4508 140.7578,143.2129 79.7817,25.2057 163.3672,42.1981 247.3848,35.0059 44.0837,-2.9966 87.7376,-20.9143 122.0722,-48.5625 34.2277,-35.0222 59.4039,-79.4378 74.7461,-125.7989 24.2547,-93.941 0.073,-193.9482 -46.4687,-276.9746 -70.5533,-109.5279 -195.0324,-178.7886 -323.0137,-194.7402 -14.075,-1.5824 -28.2537,-1.7334 -42.4004,-1.4942 -1.5786,-0.1567 -3.1358,-0.2306 -4.6719,-0.2285 z"
       style="opacity:1;fill:#bfbfbf;fill-opacity:1;stroke:none;stroke-width:1.75393701;stroke-linecap:round;stroke-linejoin:round;stroke-miterlimit:4;stroke-dasharray:none;stroke-opacity:1"
       inkscape:connector-curvature="0" />
    <path
       d="m 995.40816,1.4415 c -1.9,1 -4.6,4.2 -7.6,9.3 l -4.6,7.7 0.9,7.5 c 0.5,4.1 0.6,10.9 0.3,15 -0.3,4.1 -0.7,21.2 -1,38 -0.2,16.8 -0.9,41.5 -1.5,55 -1,24 -1.3,37.3 -2.6,99 -0.6,32.9 0.8,77.5 2.7,82.8 1.1,3.3 4,5.3 9.1,6.6 4.9,1.1 7.6,-1.1 12.10004,-10.3 l 4.2,-8.4 0.5,-44.6 c 0.3,-24.5 0.7,-44.7 0.8,-44.7 1.3,-0.8 6.5,-2.4 9.5,-2.9 4.4,-0.7 10.9,-6 12.7,-10.5 1.4,-3.4 5.2,-6 12.5,-8.6 4.4,-1.6 9.1,-1.8 38,-2 18.2,-0.1 37.1,-0.4 42,-0.7 6.3,-0.4 10.5,-0.1 14,0.9 3.3,1 13.6,1.8 31,2.4 14.3,0.4 28.5,1.3 31.5,1.9 7.5,1.4 16.7,2.9 21.5,3.6 16.5,2.4 24.7,4.2 36.5,8.2 7.4,2.4 14.9,5.1 16.5,5.8 4.1,1.9 10.3,4.1 21.5,7.7 5.2,1.6 12.2,4.1 15.5,5.5 7.1,3.1 26.8,16.1 34,22.5 11,9.7 20.8,16.8 30.2,21.9 13.5,7.3 19.5,11.8 36.7,27.7 10.6,9.8 16.3,16 20.2,21.7 2.9,4.4 6.5,8.8 7.8,9.7 1.4,1 3.4,3.5 4.6,5.5 1.2,2.1 4,5.2 6.3,7 3.7,2.8 7.6,8.6 9.1,13.5 0.3,1 2.7,2.8 5.3,4.1 2.7,1.2 6.3,3.3 8,4.6 2.4,1.8 3.9,2.2 6,1.7 1.5,-0.4 4.5,-1.1 6.6,-1.5 6.8,-1.5 11.7,-8.4 11.7,-16.5 0,-5.6 -3.4,-9.8 -13,-16.1 -7,-4.7 -9.1,-5.3 -18.7,-5.4 -3.5,-0.1 -6.3,-0.5 -6.3,-1.1 0,-0.6 2.6,-2.7 5.8,-4.7 3.1,-2 5.9,-3.8 6.2,-4 0.2,-0.2 -1.2,-1.9 -3.3,-3.8 -3.4,-3.1 -4.2,-4.9 -3.8,-8.1 0.1,-1.3 -6.5,-8.7 -21,-23.5 -11.5,-11.8 -36.2,-30.1 -48.9,-36.4 -4.6,-2.3 -12.1,-7.7 -19.5,-14.1 -9.3,-7.9 -35.3,-24.9 -45,-29.4 -4.9,-2.2 -14.5,-5.8 -21.4,-7.9 -6.9,-2.2 -19.3,-6.4 -27.5,-9.5 -18.3,-6.8 -26.6,-9.2 -37.6,-10.5 -4.7,-0.6 -12.5,-1.7 -17.5,-2.5 -4.9,-0.9 -14.6,-2.5 -21.5,-3.6 -8.3,-1.4 -20.9,-2.4 -37.5,-3 -13.7,-0.5 -29.5,-1.6 -34.9,-2.4 -7.7,-1.1 -18.7,-1.3 -49.8,-1.1 -22,0.2 -41.4,0.8 -43.1,1.4 -1.8,0.5 -5,1.2 -7.2,1.6 -2.2,0.4 -7.7,2.3 -12.3,4.2 -6.2,2.7 -8.6,3.3 -9.4,2.5 -0.9,-0.9 -0.8,-7.6 0.5,-26.4 1,-13.9 2,-29.6 2.3,-34.8 0.3,-5.2 1.1,-15.8 1.9,-23.5 0.8,-7.7 1.7,-21 2,-29.5 0.3,-8.5 1.3,-21.6 2.1,-29.1 1,-9.1 1.2,-14.3 0.5,-16 -3.2,-8.5 -16.3,-13.5 -24.60004,-9.4 z m 6.60004,165.2 c 2.3,6.1 -1.5,18.3 -5.70004,18.3 -1.8,0 -0.9,-10.7 1.4,-16.7 2,-5 2.90004,-5.3 4.30004,-1.6 z m -1.7,52.1 c -1.00004,3.5 -4.40004,2.9 -4.40004,-0.7 0,-1.6 0.6,-3.1 1.3,-3.4 1.9,-0.7 3.70004,1.6 3.10004,4.1 z"
       id="path8"
       inkscape:connector-curvature="0"
       style="fill:#000000;stroke:none" />
    <path
       d="m 1610.5082,108.1415 c -11.9,11.9 -31.3,34.2 -47.6,54.4 -12.2,15.2 -48.2,60.8 -51.7,65.6 -6.6,8.9 -15,22.3 -18.8,29.8 -6,12 -11.7,30.4 -12.2,40.1 l -0.6,8.5 3.7,3.1 c 7.2,5.9 12.1,6 22.1,0.5 4.5,-2.5 5.2,-3.3 7.5,-9.7 3.6,-9.5 18,-38.3 23.3,-46.4 10.3,-15.6 16,-24 20.5,-29.9 2.6,-3.4 9.5,-12.9 15.5,-21 13.2,-18 13.4,-18.4 33.3,-42.8 15.2,-18.9 29.3,-38.2 29.5,-40.7 0.1,-0.7 0.1,-1.9 0,-2.9 -0.1,-0.9 0.5,-3.3 1.4,-5.3 2.1,-5.2 1.9,-7.3 -1.5,-12.8 -2.7,-4.2 -3.4,-4.7 -6.6,-4.7 -3.3,0 -4.8,1.2 -17.8,14.2 z"
       id="path10"
       inkscape:connector-curvature="0"
       style="fill:#000000;stroke:none" />
    <path
       d="m 1221.6082,301.7415 c -6.7,4.1 -8.3,5.7 -12.5,12.2 -2.7,4.1 -6.8,12 -9.3,17.5 -8.4,18.9 -10.2,22 -12.9,22.3 -2.1,0.2 -4.4,-1.8 -13.4,-11.5 -11.8,-12.7 -22.5,-22.7 -26.8,-24.9 -4.6,-2.4 -16,-3.7 -21,-2.4 -11,3 -21.8,12.5 -33.4,29.5 -12.3,18.1 -17.1,31.6 -19.6,55 -1.3,12.7 -0.5,22.2 3.3,38.5 3.6,15.6 5.3,20.4 12,34.5 14.8,30.8 30.5,47.5 44.5,47.5 1.8,0 5.7,-0.5 8.6,-1.1 4.4,-1 6.3,-2.2 12,-7.7 11.6,-11.2 26,-35.2 38.8,-64.7 6.2,-14.1 7.6,-16.5 10,-16.5 1,0 5.3,3.7 9.6,8.1 10.2,10.6 25.8,22.1 38.1,28.3 11.8,6 13.3,7.1 13.3,10.6 0,3.4 2.7,5.9 11.5,10.5 6.1,3.2 7.6,3.6 11.8,3.1 14.5,-1.6 18.7,-14.8 10.5,-32.8 -2.5,-5.5 -13.7,-15.3 -26.3,-23.1 -19.3,-12 -27.1,-18.7 -43.2,-37.5 -7.7,-8.9 -7.9,-10.6 -2.4,-23.5 2.2,-5.1 5.1,-12.2 6.5,-15.9 1.3,-3.7 5.2,-12 8.5,-18.5 3.4,-6.5 6.1,-12.5 6.1,-13.3 0,-0.8 0.7,-3.4 1.5,-5.7 3,-8.8 -1.5,-17.9 -10.7,-21.8 -5.3,-2.2 -6.4,-1.9 -15.1,3.3 z m -81.4,56.4 c 2.9,3.3 11.2,12.5 18.4,20.4 7.3,8 13.6,15.7 14,17.2 1.7,6.9 -20.5,54.9 -36.7,79.4 -5.6,8.4 -7.7,6.6 -21.1,-17.7 -1.5,-2.8 -3.8,-8.6 -5.1,-13 -2,-7 -2.3,-10.1 -2.3,-25.5 0,-11.4 0.5,-19.4 1.4,-23 5.8,-23.6 17.9,-45.9 24,-44.3 1.2,0.3 4.5,3.2 7.4,6.5 z"
       id="path12"
       inkscape:connector-curvature="0"
       style="fill:#000000;stroke:none" />
    <path
       d="m 1009.9082,423.7415 c -2.3,1.2 -4.3,3.5 -6,6.8 -2.4,4.8 -2.5,5.2 -2.4,30.4 0.1,14 0.6,29 1.2,33.2 0.7,4.3 1.5,15.5 1.8,25 0.9,22.7 2.2,25.8 11.3,25.8 4.4,0 5.6,-0.9 10.3,-7.5 7.1,-10.2 7.4,-12.5 8.8,-59.1 0.7,-23.3 1.4,-34.5 2.4,-37.8 1.7,-5.7 0.8,-13.6 -1.9,-16.6 -1.6,-1.7 -3.1,-2 -11.9,-2 -7.9,0 -10.9,0.4 -13.6,1.8 z"
       id="path14"
       inkscape:connector-curvature="0"
       style="fill:#000000;stroke:none" />
    <path
       d="m 1416.3082,436.2415 c -4.8,3.3 -13,12 -25.4,26.7 -3,3.6 -11.1,12.6 -18.1,20 -24.8,26.5 -39.4,45.1 -43.5,55.2 -1.4,3.3 -3,9.6 -3.7,14 -1.3,9.2 -0.5,11.7 5.2,15.5 4.7,3.2 8.7,2.9 16.8,-1.2 7.5,-3.7 8.2,-4.6 16.4,-18.5 7.1,-12.2 14.1,-21.4 37.4,-49.5 15.2,-18.3 20,-24.5 27.7,-35.5 6.5,-9.3 6.6,-9.7 6.7,-15.8 0,-5.8 -0.3,-6.7 -3.2,-9.8 -4.8,-5.3 -9.7,-5.6 -16.3,-1.1 z"
       id="path16"
       inkscape:connector-curvature="0"
       style="fill:#000000;stroke:none" />
    <path
       sodipodi:nodetypes="ccccccsccsccccccccccccccccccccccccccccccccccccccsccccccccccccccccccccscscccccccccsccsccscccccccccccccsccccsssscsccscccccccccccccccccccccccccccccccccccccccccccccccccsccccccccccsccscccccccscscccccccsccscscccccscccccssssscccsccsccsccccccsccsscccccccccccccccscccccccccccccccccccscccccccccccscccccccccsccscccccccsccccccccccccccccscccccccccscccccccsscccccccccccsccssscscccsccsccccccscsccccccccsccsccssccccccccccccccssscccccscsccccccscccscsccccccscccccccccccsccsccccsscccccscccccsscccsccccccccccccccccccccccccccccccccccccccccccccccccscscccsccccccccccc"
       d="m 1296.8082,673.0415 c -3.4,2.1 -7.8,7.1 -15.5,17.5 -15,20.1 -15,20.1 -28.1,39.5 -8.8,12.9 -22.1,31.3 -28.8,39.8 -3.3,4.2 -9.9,12.8 -14.5,19.1 -8.7,11.7 -25,30.8 -27.6,32.3 -1.7,1 -4.4,-0.8 -4.4,-2.8 0,-0.8 1.2,-2.2 2.7,-3.3 2.6,-1.9 2.7,-2.1 1.3,-4.7 -0.8,-1.5 -4.4,-4.8 -8,-7.3 -3.6,-2.5 -10.1,-7.1 -14.5,-10.2 -11.5,-8.2 -36.2,-22.8 -50,-29.7 -22.1,-11 -50.8,-21.5 -62.7,-23 -2.7,-0.3 -5.3,-1.1 -5.8,-1.8 -1,-1.2 -0.9,-25.2 0.2,-48.5 l 0.3,-6.4 -4.4,-2.5 c -4.1,-2.2 -4.8,-2.3 -11.7,-1.3 -4,0.5 -9.4,2 -12,3.2 -7.6,3.7 -9.8,11.4 -7.3,26 0.5,3 1.4,10.1 2,15.8 1,9.6 0.9,10.5 -0.8,11.7 -2.1,1.6 -3.7,0.6 -5.6,-3.4 -1,-2.1 -2.50004,-2.9 -8.20004,-4.4 -12.1,-3 -30.4,-5.7 -45.4,-6.7 -8,-0.5 -26.3,-1.7 -40.6,-2.7 -71.4,-4.9 -193.1,0.9 -261.5,12.4 -72.8,12.3 -76.9,13.2 -123.5,28.3 -18.7,6.1 -28.8,9.2 -42,12.8 -5.6,1.6 -10.5,6 -11.4,10.2 -0.6,3.2 -1.1,3.6 -8.5,6.1 -9.6,3.2 -13.2,6.5 -15.1,14 -1.8,6.5 -2,24.8 -0.4,36.9 0.6,4.7 1.4,12.5 1.9,17.5 1.1,10.6 3.2,28.3 5.4,45 2.2,16.6 5.4,63.6 6.6,96 0.5,14.8 1.2,29.2 1.5,32 1.3,13.3 2.1,77.7 1,79.5 -0.8,1.3 -7.1,1.3 -11.5,-0.1 -5.3,-1.6 -20.4,-1.3 -32.9,0.7 l -11.2,1.8 -7.9,-2.4 c -12.9,-3.7 -18.9,-4.1 -71,-5 -27.2,-0.4 -63.4,-1.5 -80.5,-2.4 -50.8,-2.7 -161.1,-2.1 -187,1 -10.4,1.2 -23.4,5.6 -26.5,8.9 -2.7,2.9 -4.2,10.6 -2.7,14.5 0.8,2.2 0.6,3.3 -1.6,6.6 -1.5,2.1 -2.7,4.9 -2.7,6.1 0,6.1 -4.3,9.4 -14.5,10.8 -6.7,1 -8.4,2 -10.1,6 -2.1,5 -1.7,8.2 1.2,12.1 4.1,5.3 8.4,7.3 18.6,9 -1.292884,-12.6011 6.593805,24.0766 10.1,6.4 -1.5,0 -3.6,0.7 -4.5,1.4 -2.6,1.9 -6.1,10.4 -5.4,12.9 1.3,4.6 6,8.7 13.1,11.4 6.3,2.3 8.9,2.6 25.6,3.2 l 18.5,0.6 5.5,3.7 c 9.4,6.5 14.2,7.1 45.9,6.4 113.3,-2.6 208.4,-2.9 214,-0.7 4.2,1.7 25.5,2.7 72,3.7 l 33.5,0.6 4,-3.6 4,-3.6 -2.3,-1.9 c -1.2,-1.1 -2.8,-2.1 -3.4,-2.3 -2.3,-0.8 0.4,-2.7 4.7,-3.4 4.9,-0.7 7.5,0.5 7.5,3.6 0,1 0.7,2.3 1.5,3 2.2,1.9 1.8,4 -0.8,4 -5.1,0 -5.5,1.2 -6.6,20.5 -1.5,25.1 -5.9,85 -7.1,96.8 -0.5,5.6 -0.8,26.2 -0.5,47.5 0.3,30.8 0.7,37.8 1.8,38 0.8,0.2 2.1,-1.5 3.2,-3.7 2.2,-4.9 4.8,-7.4 7.2,-6.9 1.6,0.3 1.8,1.4 1.7,8.3 l 0,8 -3.6,0.3 c -2.7,0.2 -4.3,-0.3 -5.7,-1.7 -3.4,-3.4 -4.8,-2.6 -6,2.9 -1.5,7.1 -1.4,8 1.4,12.5 1.4,2.3 2.5,5.6 2.5,7.8 0,3.4 0.5,4 4.7,6.7 5.7,3.6 7.9,3.7 12.2,0.6 1.8,-1.4 4,-2.2 4.8,-1.9 0.8,0.3 2.5,3 3.9,6 1.3,3 4.5,8.9 7.1,13.1 5.7,9 5.9,9.5 14.3,24.8 4.7,8.7 8.2,13.6 13,18.5 5.9,5.9 8.4,7.4 26.5,16.3 38.2,18.8 49.2,22.6 74.5,26 15,2.1 23.3,3.2 35.5,5 35.3,5.3 46,5.8 116,6 72.4,0.1 88.7,0 102.5,-1.2 7.4,-0.7 24.3,-1.9 37.5,-2.7 55.3,-3.5 68,-4.6 98.50004,-9 17,-2.4 37.9,-5.3 47,-6.5 20.2,-2.5 38,-5.2 45,-6.6 4.1,-0.9 11.3,-2.4 16,-3.4 4.7,-1 15.9,-3.4 25,-5.3 20.9,-4.4 35.9,-9.4 47.4,-15.9 21.9,-12.3 44.9,-32.2 57,-49.2 3.6,-5.1 7.9,-10.7 9.6,-12.4 1.6,-1.8 3,-3.6 3,-4.2 0,-0.5 1.1,-3.4 2.5,-6.4 1.4,-3 2.5,-6.5 2.5,-7.8 0,-1.3 0.7,-4.1 1.5,-6.3 0.8,-2.2 1.4,-5.5 1.5,-7.3 0,-2.6 0.4,-3.3 1.8,-3 1.4,0.3 1.7,1.4 1.6,6.3 -0.2,8 -1.2,12.2 -4,16.7 -1.3,2.1 -2.4,4.9 -2.4,6.4 0,1.4 -0.7,3.2 -1.5,4.1 -1.9,1.8 -1.2,2.9 4.8,6.9 2.3,1.6 12.8,8.8 23.2,16 29.2,20.1 46.1,29.9 65.5,37.7 25.5,10.3 41.4,15.6 69,23.1 23.6,6.5 42.6,9.6 114.5,19.2 41.8,5.5 46,5.7 110.5,5.8 57.5,0.1 61.3,0 77.5,-2.2 15.4,-2 30.5,-4.8 47,-8.6 3.3,-0.8 11.2,-2.6 17.5,-4 26.1,-6 45.9,-14.2 64.2,-26.6 18.6,-12.5 27.4,-22.7 37.5,-43.4 2.4,-5 4.9,-9.3 5.6,-9.8 1.6,-1 4.1,-0.2 9.1,3.3 7.8,5.2 24.9,12.8 46.1,20.5 37.3,13.5 53.9,18.6 81.5,25 14.8,3.4 29.3,7.1 37.5,9.4 44.3,12.8 57.7,13.5 143,7 29,-2.2 42.2,-4.5 81.9,-14.1 18.2,-4.4 29,-7.2 56.1,-14.3 2.8,-0.7 9.1,-3.1 14,-5.3 5,-2.3 14.6,-6.4 21.5,-9.3 24.2,-10.2 39.3,-18.6 57,-31.8 14.3,-10.6 32.2,-26.3 38.1,-33.3 2.4,-2.9 5.8,-6.8 7.4,-8.7 5,-5.8 14.1,-19.1 20.4,-29.7 11.4,-19.3 14.7,-24.7 20.6,-34 3.3,-5.2 7.8,-12.3 10,-15.7 9.5,-14.9 18,-33.5 22.8,-49.8 3.3,-11.2 5.9,-24.7 7.7,-40 0.5,-4.7 1.8,-14.1 3,-21 4.8,-29.1 4.8,-29 6.6,-61 0.3,-5.8 1,-14.8 1.5,-20 4.1,-40.5 3.3,-53.4 -4.8,-84 -2.4,-9.1 -5.2,-20.3 -6.3,-25 -1,-4.7 -2.6,-10.7 -3.5,-13.4 -0.9,-2.6 -2,-6.9 -2.5,-9.5 -1.7,-9.1 -6.9,-22 -18.7,-46.1 -6.6,-13.5 -12.4,-25.6 -12.8,-27 -2.4,-8.1 -17.2,-35.7 -24.7,-46 -21.3,-29.6 -50.5,-62.8 -71.7,-81.7 -8.1,-7.2 -28.6,-21.6 -43.3,-30.4 -2.4,-1.4 -7.2,-4.3 -10.8,-6.6 -21.9,-13.5 -35.1,-20.4 -49.1,-25.6 -13.6,-5.1 -36.1,-11.5 -44.7,-12.7 -4.1,-0.6 -9.3,-1.4 -11.5,-1.9 -2.3,-0.5 -8.5,-1.7 -13.7,-2.6 -15.5,-2.6 -38.8,-7.7 -53.3,-11.6 -2,-0.5 -7.2,-1.4 -11.5,-2 -4.2,-0.5 -10.2,-1.4 -13.2,-1.9 -5.4,-0.9 -37.6,-2.5 -77.5,-3.8 -11,-0.4 -26.7,-0.4 -35,-0.1 -23.5,1 -70.2,4.8 -79,6.3 -18.2,3.3 -42.3,9.7 -56.7,15 -5.1,1.9 -13.6,5 -18.8,6.9 -26.6,9.7 -49,21.3 -68.5,35.4 -4.3,3.2 -10,7.1 -12.6,8.8 -4.9,3.2 -12.1,9.2 -19.8,16.5 -20.5,19.6 -25.7,24.1 -32.3,28.1 -6.2,3.8 -8,5.6 -10.4,9.9 -1.6,2.9 -3.8,5.9 -5,6.7 -1.8,1.2 -2.4,1.1 -4.4,-0.5 -4.6,-3.7 -3.2,-11.2 2.9,-16.2 1.7,-1.4 3.1,-3.2 3.1,-4 0,-1.6 -6.8,-6.4 -20.1,-14.3 -14.1,-8.3 -27.5,-17.6 -40.8,-28.4 -17.3,-13.9 -21.1,-16.7 -29.6,-21 -6.5,-3.3 -26.4,-11.1 -34.5,-13.5 -4.8,-1.4 -27,-9.7 -30,-11.3 -3.8,-1.9 -26.6,-7.2 -34.5,-8 -6.6,-0.7 -82.4,-1.7 -114.5,-1.5 -8,0 -18.1,0.7 -22.5,1.5 -4.4,0.8 -11.1,1.7 -15,2.1 -3.8,0.3 -11.3,1.4 -16.5,2.4 -5.2,1 -14.4,2.6 -20.5,3.5 -20.6,3.2 -39.8,7.6 -53.4,12.5 -19.8,7 -32.7,11.8 -37.5,13.9 -2.2,1 -7.7,3.4 -12.2,5.4 -7.8,3.4 -18.6,9.8 -29.2,17.4 -2.9,2.1 -6.8,4.8 -8.5,6 -1.8,1.3 -5.2,4.1 -7.7,6.2 -6.6,5.8 -15.3,12.1 -16.6,12.1 -0.6,0 -1.7,-0.7 -2.4,-1.5 -1.1,-1.3 -0.4,-2.9 4.2,-9.8 3.1,-4.5 7.7,-11.6 10.3,-15.7 2.6,-4.1 5.1,-7.7 5.4,-8 1.1,-0.9 4.1,-5.9 4.1,-6.9 0,-1.5 12,-17.1 15.2,-19.9 1.5,-1.3 5.5,-6.1 8.7,-10.6 3.3,-4.6 6.8,-8.9 7.7,-9.7 1,-0.8 3.4,-3.9 5.4,-6.9 4.2,-6.6 9.1,-13.3 18.3,-25.4 3.9,-5.2 6.7,-9.9 6.7,-11.3 0,-1.3 0.6,-3.6 1.4,-5.1 0.7,-1.5 1.7,-4.5 2,-6.8 0.7,-4.1 0.7,-4.1 -4.2,-7.3 -2.7,-1.7 -5.5,-3.1 -6.3,-3 -0.8,0 -3.5,1.4 -6,3 z m -269.9,70.4 c 0,0.8 -0.7,1.5 -1.5,1.5 -0.8,0 -1.5,-0.7 -1.5,-1.5 0,-0.8 0.7,-1.5 1.5,-1.5 0.8,0 1.5,0.7 1.5,1.5 z m -135.50004,12.6 c 6.1,0.6 14.4,1.3 18.5,1.5 4.1,0.3 9.9,0.9 12.9,1.5 3,0.5 8.6,0.9 12.5,0.9 3.9,0 11.2,0.6 16.1,1.4 5,0.8 12.6,1.7 17,2.1 4.4,0.3 9.9,1.1 12.3,1.6 2.4,0.5 9.8,1.7 16.5,2.5 7.80004,1 12.80004,2.2 14.00004,3.1 1.3,1.2 1.7,3.2 1.7,8 0,6 2.7,14.2 4.8,14.4 0.4,0 3.4,0.2 6.7,0.4 l 6,0.4 3,-4.2 c 1.7,-2.3 3.8,-5.6 4.7,-7.3 1,-1.7 2.4,-3.4 3.1,-3.7 1.5,-0.6 7.8,1.3 12.6,3.7 1.4,0.7 4.7,1.8 7.3,2.5 4.9,1.2 36.4,15.9 43.3,20.3 2.2,1.3 6.7,4 10,5.8 3.3,1.8 13.6,8.1 22.8,13.9 9.2,5.8 19.5,12.2 22.9,14.1 9,5.2 9.1,5.4 2.8,14.6 -2.9,4.4 -7.5,11.5 -10.1,16 -3.1,5.3 -6.2,9 -8.9,10.9 -3.9,2.7 -4.2,2.8 -5.8,1 -1.3,-1.3 -1.4,-1.9 -0.4,-2.2 1.8,-0.7 1.5,-3.4 -0.5,-5 -2.4,-1.8 -14.2,-7.9 -20.1,-10.2 -2.6,-1.1 -9.5,-4.2 -15.4,-7 -11.8,-5.5 -31.9,-13.4 -44.3,-17.4 -6,-1.9 -12,-2.8 -24,-3.7 -8.8,-0.6 -18.2,-1.5 -20.8,-2 -9.6,-1.9 -44.30004,-2.3 -57.20004,-0.7 -24.7,3.2 -51.3,14.8 -59.2,25.9 -1.8,2.6 -3,3.1 -7,3.5 -2.6,0.2 -9.3,1.4 -14.8,2.7 -5.5,1.3 -12.9,2.7 -16.4,3.1 -21.3,2.2 -46.4,16.2 -79,44.2 -24.5,21.1 -41.2,39.6 -68.2,75.8 -9.7,12.8 -21.7,34.2 -26,46 -1,2.7 -4.1,11.1 -6.9,18.5 -10.4,27.2 -13.9,41.1 -16,63.5 -1.4,14.6 -1.3,53.2 0.1,60.9 4.4,24.1 12.2,43.6 25.3,63.5 8.5,13 10.3,15.9 15.6,24.8 1.8,2.9 6.4,9 10.3,13.5 4,4.6 10.6,12.3 14.7,17.3 13,15.6 25.5,26.8 47.5,42.5 5,3.5 13.5,10.1 19,14.6 13.8,11.2 16.9,13 51.5,30.3 35.5,17.8 36.9,18.4 60,25.7 39.7,12.6 61.7,16.7 88.4,16.3 9.50004,-0.1 15.00004,0.2 15.50004,0.9 0.3,0.5 0.2,8 -0.2,16.6 -0.7,13.4 -0.6,15.9 0.7,17.8 1,1.4 1.6,4.5 1.6,8.3 0,8.2 2.9,13.2 8.7,15.1 6.4,2.2 8.2,0.9 13.6,-9.4 l 4.6,-9 0.7,-20.6 c 0.7,-21.1 1.3,-23.6 4.8,-22.3 0.8,0.3 5.7,0.1 10.8,-0.4 39.6,-4.3 65.2,-12.3 112.3,-35.3 19.2,-9.4 27.8,-14.9 41.5,-26.6 5.2,-4.4 15.2,-12.7 22.2,-18.5 19.3,-15.9 23.1,-20.9 35.3,-46 17.9,-36.9 19.2,-39.9 24.5,-60.6 2.7,-10.7 6.8,-26.4 9,-34.9 2.2,-8.5 4.8,-19.8 5.6,-25 1.9,-11.5 2.1,-42.4 0.4,-55.5 -2.6,-20.6 -8.3,-52.1 -10.6,-59.3 -2.4,-7.2 -18.5,-44.4 -24.2,-55.7 -3.7,-7.5 -13,-20.6 -23.4,-33.2 -5.1,-6.1 -12.4,-15.5 -16.3,-20.8 -3.8,-5.3 -8.4,-11.5 -10.2,-13.8 -3.8,-5.1 -19.5,-19.2 -32,-28.8 -9.2,-7 -9.2,-7.1 -12.7,-5.8 -2,0.7 -3.8,1 -4.1,0.7 -0.7,-0.7 1.7,-8.4 4.1,-13.1 3.8,-7.5 19.1,-31.6 22.1,-35 1.3,-1.3 3.3,-1.7 9.9,-1.7 19.4,0 44.8,-9.3 68.1,-25.1 19.8,-13.3 32.6,-19.2 77.3,-35.5 13.9,-5.1 21.7,-6.7 64.5,-13.4 5.9,-0.9 11.3,-1.7 29,-4.2 5.1,-0.7 16.9,-1.2 27,-1.1 96,0.8 103.9,1 112,2.8 7.3,1.6 17.9,5.3 26.5,9.2 1.9,0.8 8.7,3.3 15,5.4 19.8,6.6 23.3,8 30,11.6 10.4,5.7 13.2,7.7 23.6,16.6 12.7,10.7 21.2,16.9 40.9,29.8 32,21 33.2,21.6 48.9,25 11.3,2.4 14.8,2.4 24.4,-0.1 8.8,-2.4 17.9,-7.9 27.6,-16.8 23.8,-21.9 36.8,-32.3 56.7,-45.5 9.6,-6.3 29.4,-16.7 38.7,-20.2 3.4,-1.3 7.7,-3.1 9.5,-3.9 6,-2.8 30.6,-11.4 37.3,-13.1 3.7,-0.9 7.4,-2 8.3,-2.5 2,-0.9 11,-3.5 17.1,-4.9 8.9,-1.9 18.8,-3.1 34,-4.1 8.5,-0.6 20.2,-1.5 26,-2.1 19.2,-1.9 50.5,-2.1 82.6,-0.5 30.3,1.6 37.8,2.3 53.9,5.1 4.4,0.8 10.9,1.9 14.5,2.5 3.6,0.6 10.3,2 15,3.1 20.9,4.9 24.9,5.8 32,7.3 8.1,1.6 17.6,3.2 25.5,4.1 11.5,1.4 48.7,12.2 52.9,15.4 0.6,0.4 2.7,1.4 4.6,2.1 1.9,0.8 5.3,2.6 7.5,4 2.2,1.5 11.9,7.6 21.5,13.5 42.2,25.9 46.2,28.9 66.6,50.6 20.6,22 31,34.3 50.2,60.1 6.4,8.5 21.2,35.7 21.2,38.8 0,0.6 0.9,2.8 1.9,4.8 7.8,15 22.3,45.8 24,51.1 1.2,3.5 3.3,11.4 4.7,17.5 3.2,13.8 5.6,22.9 8.7,32.6 3.2,10 4.7,15.9 6.3,25.5 1.6,9.1 1.7,26.1 0.2,28.8 -0.8,1.6 -2.8,29.6 -4.3,62.1 -0.3,6 -0.8,11.3 -1.1,11.8 -0.3,0.5 -1.2,4.8 -2,9.6 -0.8,4.8 -2.1,12.5 -3,17.2 -1.8,10.5 -3.1,19.8 -4.4,31.6 -0.9,9.1 -1.3,11.2 -4.5,23.4 -1.8,7 -7.2,19.1 -11.5,25.5 -7.1,10.7 -13.8,21.2 -15,23.5 -0.7,1.4 -2.7,4.7 -4.5,7.5 -2.7,4.3 -5.8,9.5 -14.5,24.6 -3.6,6.2 -7.7,12.4 -10.5,15.8 -1.7,2 -4.3,5.4 -5.7,7.6 -4.2,6.3 -22.2,24 -36.4,35.8 -14.2,11.6 -17.8,14.4 -21.7,16.5 -2.3,1.3 -6.7,3.8 -9.7,5.7 -3,1.9 -8.4,4.8 -12,6.5 -6.8,3.3 -10.1,4.9 -13.5,6.7 -3.2,1.7 -23,9.3 -24.3,9.3 -0.6,0 -7.1,2 -14.4,4.4 -7.3,2.4 -17.6,5.4 -22.8,6.6 -5.2,1.2 -11.7,2.8 -14.4,3.6 -2.6,0.8 -5.8,1.4 -6.9,1.4 -1.1,0 -4.3,0.7 -7.1,1.4 -8.2,2.4 -17.8,4.7 -21.6,5.2 -1.9,0.3 -11.6,1.8 -21.5,3.4 -26.5,4.2 -58.4,6.5 -89.5,6.5 -16.3,0 -29.2,-0.5 -33.5,-1.2 -20.6,-3.6 -24.8,-4.5 -34,-7.3 -5.5,-1.6 -21,-5.7 -34.5,-9 -13.5,-3.3 -26.7,-6.6 -29.5,-7.5 -2.7,-0.8 -7,-2 -9.5,-2.6 -7.4,-1.8 -32.3,-10.6 -52.1,-18.5 -18.6,-7.4 -28.9,-12.5 -42.4,-21.1 -13.9,-9 -24,-14.2 -28.1,-14.9 -3.4,-0.5 -5.5,0 -10.4,2.2 -6.6,2.9 -10,6.3 -10,9.9 0,2.6 -6.8,20.1 -11.1,28.7 -1.6,3.1 -2.9,6.2 -2.9,6.8 0,2 -9.2,13.6 -14.9,18.7 -11,9.9 -27,18.1 -41.1,21.3 -1.9,0.4 -9.6,2.3 -17,4.2 -7.4,2 -16.4,4.1 -20,4.7 -3.6,0.7 -8.3,1.6 -10.5,2.1 -6.8,1.6 -19.6,3.9 -27.5,4.9 -4.1,0.6 -10.7,1.5 -14.7,2.1 -9.4,1.3 -101.3,1.3 -123.6,0 -9.5,-0.6 -28.7,-2.6 -42.7,-4.5 -14,-1.9 -29.1,-3.9 -33.5,-4.5 -38.6,-5.1 -64.6,-10 -82.5,-15.6 -4.1,-1.3 -8.1,-2.4 -8.9,-2.4 -2.2,0 -34.6,-11.3 -49.1,-17.2 -20.3,-8.2 -40.1,-19.9 -65.7,-39 -20,-14.9 -32.9,-22.8 -37.2,-22.8 -1.7,0 -3.1,-0.4 -3.1,-0.8 0,-0.5 -2.3,-1.9 -5.1,-3.2 -4.6,-2.2 -5.5,-2.3 -11.5,-1.3 -9.8,1.7 -13.1,4.6 -24.2,20.8 -10.9,15.9 -18,23.7 -30.2,33.5 -22.7,18.1 -33.7,22.6 -78.5,32 -31.7,6.7 -48.9,9.5 -93.5,15 -4.7,0.6 -12.5,1.7 -17.50004,2.5 -21,3.2 -41.4,5.6 -55.7,6.5 -18.2,1.2 -35,2.3 -66.8,4.6 -17.9,1.3 -40,1.8 -92.5,2 -37.9,0.1 -73.2,0.5 -78.3,0.7 -8.2,0.4 -20.8,-0.4 -28.2,-1.8 -10.5,-2.1 -35.3,-5.8 -49,-7.5 -14,-1.7 -21.5,-2.9 -26.5,-4.5 -2.7,-0.8 -6.1,-1.5 -7.5,-1.5 -1.4,0 -4.3,-0.9 -6.5,-2 -2.2,-1.1 -4.6,-2 -5.3,-2 -0.8,0 -3.1,-0.9 -5.1,-1.9 -9.4,-4.9 -21,-10.1 -25.1,-11.2 -6.4,-1.7 -10.3,-4.9 -14.1,-11.6 -1.9,-3.2 -3.6,-6.3 -3.8,-6.8 -1.5,-3.7 -11.1,-19.9 -14.2,-24.1 -2.2,-2.8 -3.9,-5.5 -3.9,-6 0,-0.5 -1.4,-2.5 -3,-4.4 -5.8,-6.7 -11,-15.3 -11,-18.1 0,-1.8 -1.4,-4.4 -3.9,-7.3 -2.2,-2.5 -5,-6.9 -6.4,-9.8 -2.5,-5.3 -2.5,-5.4 -2.3,-32.3 0.2,-14.9 0.8,-32.6 1.4,-39.5 0.7,-6.9 1.4,-17.9 1.8,-24.5 0.3,-6.6 0.7,-12.2 1,-12.6 0.2,-0.3 0.6,-9.3 0.9,-20 0.3,-10.7 0.8,-23.5 1.1,-28.4 0.9,-16.4 1.9,-97.2 1.8,-149.5 -0.1,-45.4 -2.3,-116.6 -4.9,-157 -0.3,-4.7 -1,-16.8 -1.5,-27 -0.5,-10.2 -1.4,-24.1 -2,-31 -1.4,-15.9 -1.3,-31.1 0.2,-34.7 1,-2.4 1.7,-9.4 3.2,-31.8 0.2,-2.8 1,-6.7 1.9,-8.7 1.3,-3 2.3,-3.9 5.9,-4.8 2.4,-0.7 8.1,-2.6 12.8,-4.3 4.6,-1.6 10.9,-3.8 14,-4.8 3,-0.9 12,-4.1 20,-6.9 8,-2.9 17,-5.9 20,-6.7 3,-0.8 7.3,-2 9.5,-2.8 4.8,-1.6 20.9,-5 36,-7.6 40.4,-6.9 67.2,-11 81.5,-12.4 9.1,-0.8 17.6,-1.8 19,-2 1.4,-0.3 10.2,-1 19.5,-1.5 9.4,-0.6 19.3,-1.2 22,-1.5 2.8,-0.2 15.6,-0.9 28.5,-1.6 12.9,-0.6 28.7,-1.5 35,-1.9 14.2,-0.9 59.6,-0.2 74.5,1.1 z m 148.00004,3.8 c 0.3,0.5 0.1,1.2 -0.5,1.6 -0.5,0.3 -1,-0.1 -1,-0.9 0,-1.8 0.6,-2.1 1.5,-0.7 z m -38,116.1 c 2.2,0.6 11.4,1.3 20.5,1.6 9.1,0.3 18.8,1 21.5,1.6 6,1.3 34.3,11.9 45.5,17 2.5,1.2 7.9,3.3 12.1,4.8 4.2,1.4 10.3,4.1 13.7,5.8 3.4,1.8 7.2,3.2 8.6,3.2 2.8,0 3.7,1.7 2.4,4.3 -0.5,1 -1.4,6.9 -2,13.1 -1.1,10.5 -1,11.8 0.7,15.6 2.5,5.5 6.1,7.3 13.6,6.8 4.8,-0.3 6.9,-1.1 11.5,-4.3 3.1,-2.1 6.1,-4.9 6.7,-6.2 1.7,-3.7 4.8,-2.8 10.7,3.1 2.9,2.9 8,7.5 11.4,10.1 3.4,2.7 8,7.4 10.2,10.4 14.6,19.6 26.9,35.5 31.8,41 5.2,6 11.5,14.8 16.4,23.1 1.1,1.9 4.8,9.8 8,17.5 3.3,7.7 7.6,17.4 9.6,21.5 2,4.1 3.6,8.3 3.6,9.3 0,1 0.5,2.8 1.1,3.9 1.9,3.6 7.5,42.8 8.3,57.7 0.6,13.8 -1.1,33.5 -3.9,44.6 -1.3,4.9 -4.3,16.9 -6.8,26.5 -2.5,9.6 -5.3,21 -6.2,25.3 -1,4.9 -3.8,12.2 -7.7,20 -3.3,6.7 -8.7,18 -11.9,25.1 -7.1,15.5 -8.6,17.6 -18.7,25.8 -4.2,3.4 -12.5,10.3 -18.3,15.4 -16.7,14.3 -24.9,20 -37.6,26.3 -36.5,18.1 -63.4,27.7 -90.3,32 -4.1,0.7 -9.4,1.7 -11.7,2.2 -5.7,1.2 -10,1.1 -10.9,-0.2 -0.4,-0.7 -0.8,-15 -0.9,-31.8 -0.2,-33.3 -0.5,-35.5 -5.5,-38.5 -6.6,-3.9 -22.7,3 -27.1,11.5 -2.1,4.3 -2.5,13.6 -0.9,20.4 0.6,2.2 1.5,11.9 2.1,21.5 1.3,22.2 2.3,20.9 -16.10004,20.4 -31.2,-0.9 -41.5,-2.8 -78.2,-14.5 -18.4,-5.9 -26,-9.3 -73.6,-33.2 -4.5,-2.3 -12.4,-7.5 -17.5,-11.4 -10,-7.9 -22.8,-17.7 -37.7,-28.7 -16.8,-12.4 -48.9,-46.7 -59.5,-63.4 -2.2,-3.5 -6.4,-10 -9.3,-14.5 -8.7,-13.4 -15.1,-24.9 -16.1,-29.2 -0.5,-2.2 -1.4,-5.4 -2,-7 -0.5,-1.7 -1.7,-8.6 -2.6,-15.5 -1.7,-13.2 -1.4,-45 0.4,-55.5 2,-11.2 5.2,-24.5 8,-33 1.6,-5 3.9,-12.4 5.1,-16.5 2.5,-8.3 13.1,-30.3 20.5,-42.6 5.1,-8.4 7,-10.8 18,-23.8 3.9,-4.6 10.2,-12 14,-16.6 8.9,-10.5 21.7,-22.1 43.1,-39.2 25.5,-20.3 32.6,-24.7 46.4,-28.8 16.8,-5 18.2,-5.2 35.4,-5.4 19.1,-0.2 16.2,1.1 25.3,-10.8 7.1,-9.3 22,-15.8 43.8,-19.2 5.2,-0.8 38.8,0.3 43.00004,1.4 z m 132.4,17.4 c 0.9,1.1 0.8,1.8 -0.5,3 -1.5,1.6 -1.8,1.6 -3.5,0 -1.4,-1.3 -1.6,-2 -0.8,-3.1 1.5,-1.7 3.3,-1.7 4.8,0.1 z m 36.3,21.7 c 1.8,2.4 1.9,2.9 0.5,5.6 -2.2,4.3 -7.5,9.6 -8.9,9 -3.4,-1.2 1.3,-18.2 4.8,-17.5 0.9,0.2 2.6,1.5 3.6,2.9 z m -694.50004,200.5 c 0.9,2.3 -1.3,4 -3.2,2.4 -0.8,-0.7 -1.5,-1.9 -1.5,-2.6 0,-1.9 3.9,-1.8 4.7,0.2 z m 572.40004,284.4 c 2,0 0.7,3.6 -1.8,4.7 -3,1.4 -5.7,1.7 -5.1,0.5 2.6,-5.3 3.3,-6.2 4.6,-5.7 0.7,0.3 1.8,0.5 2.3,0.5 z m -38.2,2.8 c 0.7,1.4 0.6,2.5 -0.6,4.1 -1.5,2.2 -1.5,2.2 -2.9,0.2 -1.2,-1.7 -1.2,-2.4 -0.2,-4.1 1.6,-2.5 2.4,-2.5 3.7,-0.2 z m -507.80004,36.8 c 0.7,0.9 1.4,3.9 1.5,6.7 0.2,2.8 0.5,6.1 0.9,7.4 1.4,5.6 -6.5,3.6 -9,-2.3 -2.1,-5 -1.9,-6.8 1.1,-10.3 2.9,-3.5 3.6,-3.7 5.5,-1.5 z"
       id="path18"
       inkscape:connector-curvature="0"
       style="fill:#000000;stroke:none" />
    <path
       d="m 2099.4082,852.5415 c -32.6,1.7 -92,11.9 -117.1,20 -28.4,9.2 -52.5,29.4 -58.1,48.9 -5,17.3 -5.4,22.6 -2.1,30.6 2.7,6.9 4.7,9 8.8,9.2 1.8,0.1 3.5,0.7 3.7,1.2 0.2,0.6 -2.3,4.5 -5.4,8.6 -7.6,9.9 -23.2,41.1 -34.7,68.9 -4.5,11 -9.3,34.7 -10.5,52.1 -1.2,15.9 -2.3,23.7 -3.8,26.4 -0.8,1.5 -0.8,3.3 0,6.8 1.8,8.1 -2,12.8 -5.8,7 -1.3,-2 -1.6,-3.9 -1.2,-7.9 0.3,-3 0.1,-5.6 -0.4,-5.9 -1.2,-0.8 -1.2,-7.2 0.1,-8 0.6,-0.3 1,-2.1 1,-3.9 0,-1.9 0.7,-3.9 1.5,-4.6 1.9,-1.6 2,-8.8 0.1,-13.2 -0.8,-1.8 -3.1,-8.5 -5.1,-14.8 -3.9,-12.1 -10.9,-27.7 -15.5,-34.5 -1.4,-2.2 -4.5,-7.4 -6.8,-11.5 -2.3,-4.1 -6.4,-10.7 -9.1,-14.5 -2.8,-3.9 -7,-10 -9.5,-13.6 -8.1,-12 -24.7,-29.1 -40.4,-41.5 -8.1,-6.5 -16.3,-13 -18.2,-14.6 -16.1,-13.2 -27.4,-22.1 -32.5,-25.5 -9.8,-6.5 -40.6,-22.7 -61,-32 -21.8,-9.9 -70.6,-24.4 -93.6,-27.7 -5.8,-0.9 -12.9,-2 -15.8,-2.6 -9.4,-1.8 -29.1,-2.3 -40.6,-1.1 -20.6,2.2 -35.8,7.6 -50.5,17.9 -5.2,3.6 -7.2,4.5 -10,4.3 -20.6,-1.8 -35.3,2.6 -52,15.4 -9.9,7.7 -16.2,13.8 -34.4,33.5 -13,14.1 -18.8,21.1 -30.4,37 -4.5,6.2 -11.5,18.4 -16,28 -11.5,24.2 -15.2,42.2 -15.9,76 -0.6,32.6 2.8,56 14.1,97.3 1.5,5.4 4.5,18.2 6.6,28.5 7.5,36.1 18.2,82 22.1,94.7 7.4,24.1 17.8,45.4 29.6,60.8 15.3,19.8 42.4,43.2 60.8,52.5 19.8,10 59.8,24.3 81.5,29.1 13.1,2.9 18.2,4 38,8 11.3,2.4 41,6.6 56.5,8 35.9,3.4 52.5,3.9 73.8,2 14,-1.2 40.3,-6.8 52.6,-11.1 17.9,-6.3 40.6,-17.2 50.6,-24.2 5.8,-4 22,-17.4 24.6,-20.2 4.9,-5.5 13.7,-18 18.6,-26.4 2.7,-4.7 7.7,-12.8 11,-18.1 8.6,-13.4 19.2,-32.8 24,-43.9 8.6,-19.7 12.1,-36 13.9,-65.3 0.6,-11.3 0.6,-12 -1.6,-14.9 -1.5,-2 -1.9,-3.3 -1.2,-4 2.6,-2.6 4.8,0.1 12.8,15.9 12.1,24 18.7,35.4 25.5,44 9.3,12 14.6,20.4 20.4,32.6 5.3,11.2 8.6,16.3 24.5,38.4 29,40.3 43.4,55.4 76.5,80.5 23,17.3 47.4,24.2 86,24.2 25.9,0 37.8,-2.1 87.5,-15.9 46.3,-12.8 58.1,-17.4 92.9,-36.7 32.9,-18.2 48.6,-30.3 77.1,-59.4 32.3,-33.1 43.7,-48.7 57,-78.4 2.3,-5.2 5,-11.3 6,-13.5 8.7,-19.4 14.6,-37.8 15.9,-50 1.9,-18.5 -2.6,-56.3 -9.8,-81.2 -3.9,-13.6 -6.8,-20.5 -16.3,-39.7 -16.1,-32.6 -31.3,-59.1 -41.3,-72.1 -11.6,-15.3 -52,-57.1 -73.5,-76.3 -11.6,-10.4 -37.3,-27.4 -53.5,-35.5 -28,-14 -67.6,-31 -83,-35.5 -9,-2.7 -24.6,-5.8 -35.5,-7.2 -8.8,-1.1 -51.1,-2 -63.5,-1.4 z m 57.3,23.4 c 9,0.6 17.3,1.5 18.4,2.1 3.4,1.8 0.3,2.7 -6,1.6 -7.3,-1.1 -55.4,-1.5 -68.9,-0.4 -8.7,0.7 -10.3,0.6 -10.3,-0.7 0,-1.1 1.9,-1.6 7.8,-2.1 4.2,-0.3 8.8,-0.7 10.2,-0.9 6.1,-0.7 33.9,-0.5 48.8,0.4 z m -79.8,4.9 c 0,1 -3.4,2.1 -6.7,2.1 -2.3,0 -3,-1 -1.6,-2.3 1,-1 8.3,-0.8 8.3,0.2 z m 113,0.1 c 0,0.5 -0.7,1 -1.5,1 -0.8,0 -1.5,-0.5 -1.5,-1 0,-0.6 0.7,-1 1.5,-1 0.8,0 1.5,0.4 1.5,1 z m -134,2.5 c 0,0.8 -0.2,1.5 -0.4,1.5 -0.2,0 -5.1,0.9 -10.7,1.9 -5.7,1.1 -14.7,2.7 -19.9,3.6 -10.6,1.9 -20.2,4.8 -23.6,7 -2.1,1.4 -2.2,1.6 -0.8,4.5 2,3.9 2.3,4 7,3 2.1,-0.5 8.9,-1.6 14.9,-2.5 6.1,-0.9 14.4,-2.3 18.5,-3 4.1,-0.8 11.3,-1.9 16,-2.5 4.7,-0.6 10.5,-1.5 13,-2 13.1,-2.7 50.2,-3.8 66.5,-2 5,0.5 13.7,1.5 19.5,2.1 20,2.2 38,7 55.7,14.7 4.8,2.1 11.7,5.1 15.3,6.6 21.9,9.3 47.3,22.7 63.6,33.6 18.9,12.7 27.8,20.3 55.2,47.8 27.3,27.4 36.3,38.8 51.8,65.7 6.6,11.5 10.4,18.4 10.4,18.9 0,0.4 1.1,2.3 2.5,4.4 7.7,11.6 24.5,53 24.5,60.3 0,1.7 0.6,5.4 1.4,8.2 3,11.2 5.5,35.2 4.7,45.2 -0.4,5.4 -3.6,15.6 -7.6,24 -1.8,3.8 -3.6,8.1 -4,9.5 -0.4,1.4 -2.9,7.2 -5.7,13 -14.5,30.5 -16.5,33.3 -52.2,70 -8.3,8.5 -17.1,17.1 -19.6,19 -2.5,1.9 -6.6,5.4 -9.3,7.7 -10.2,8.9 -57.4,35.3 -74.7,41.9 -2.5,0.9 -5.4,2 -6.5,2.4 -1.1,0.5 -5.6,1.6 -10,2.5 -4.4,1 -10,2.3 -12.5,3 -10.7,3 -50,13.4 -60.5,16 -21,5.1 -36.2,6.4 -55.1,4.6 -28,-2.6 -43.9,-10 -72.7,-33.8 -10.7,-8.8 -21.4,-21.6 -40.4,-48.1 -2.1,-2.9 -6.7,-9.2 -10.3,-14 -8.4,-11.2 -12.8,-18.6 -17.9,-29.5 -4.8,-10.5 -10.9,-19.8 -18.6,-28.7 -5,-5.7 -7.7,-9.7 -16.7,-25 -1.1,-1.9 -4.4,-7.3 -7.3,-12 -2.9,-4.7 -6.5,-10.9 -7.9,-13.8 -2.8,-5.5 -7,-21.7 -8.5,-32.4 -0.5,-3.4 -2.1,-11.7 -3.5,-18.3 -6.7,-31 -7.1,-34.6 -6.9,-56.5 0.4,-31.4 0.5,-31.8 16.2,-66.4 13.9,-30.7 14.7,-32.1 30.7,-54.6 2.5,-3.6 5.6,-8.2 7,-10.2 4.7,-7.2 13.4,-14.6 26.5,-22.5 7.4,-4.3 14,-9 15.2,-10.7 1.5,-2.1 2.3,-5 2.5,-9.2 0.4,-5.9 0.3,-6.4 -3.1,-10 -3.5,-3.8 -3.7,-3.9 -9.8,-3.7 -4.4,0.1 -8.1,1 -12.8,3.1 -3.6,1.6 -8.8,3.7 -11.6,4.7 -4.9,1.8 -12.5,8.5 -24.4,21.8 -2.5,2.9 -4.8,4.6 -5.7,4.3 -1.8,-0.7 -1,-2.8 3.8,-9.6 2.2,-3 5,-7.2 6.4,-9.2 1.4,-2 2.7,-5.1 2.8,-7 0.2,-1.8 0.4,-3.6 0.5,-3.9 0,-0.4 2.3,-2.1 4.9,-3.8 2.6,-1.7 5.8,-4.4 7,-6.1 1.3,-1.6 2.8,-3 3.4,-3 0.6,0 3.4,-1.1 6.2,-2.4 2.8,-1.3 8,-3.6 11.6,-5.1 3.6,-1.5 8.3,-3.5 10.5,-4.5 2.2,-1 6,-2.1 8.5,-2.5 2.5,-0.4 6.4,-1.3 8.8,-2.1 2.4,-0.8 8.7,-2.1 14,-3 5.3,-0.9 12.6,-2.2 16.2,-2.9 3.6,-0.7 6.8,-1.3 7.3,-1.4 0.4,0 0.7,0.6 0.7,1.4 z m -554,5.1 c 0,0.3 -1.3,2.3 -2.9,4.3 -4.5,5.6 -17.1,10.2 -17.1,6.2 0,-1 11.3,-9.4 14,-10.4 2.1,-0.8 6,-0.8 6,-0.1 z m 45.5,7.4 c 8.3,0.5 20.1,2 26.5,3.4 6.3,1.3 14.9,3.1 19,4 9.4,2 23.6,5.8 36,9.6 5.2,1.6 11.3,3.4 13.5,4.1 12.8,3.8 51.8,22.6 69.9,33.6 8.9,5.4 25.4,17.8 34.5,25.9 2.5,2.2 8.2,6.8 12.6,10.1 11.4,8.7 27.7,24.4 34.4,33.2 9.4,12.4 27.9,40.5 31.5,48.1 4.4,9 9.4,22.4 19.9,53 9,26.5 10.1,31.7 13.3,63.7 1.3,13.6 1.4,19.2 0.4,35 -2,33.7 -4.6,49.8 -10.6,64.1 -4.8,11.5 -12.9,26.6 -20.7,38.4 -4.1,6.2 -10.1,15.8 -13.2,21.3 -7.9,13.7 -10.1,16.6 -19.3,24.5 -8.7,7.6 -19.3,13.9 -36,21.5 -15.1,6.9 -24.4,10.2 -37.2,13.5 -14.9,3.8 -16.1,4 -39,4.6 -32.3,0.9 -62,-1.7 -99.5,-8.7 -6,-1.1 -14.4,-2.6 -18.6,-3.4 -18.9,-3.5 -43.4,-9.9 -59.4,-15.5 -13.3,-4.7 -36.3,-13.9 -42,-16.8 -11.3,-5.6 -35.9,-27.1 -44.5,-38.7 -15.7,-21.3 -25.8,-47 -34.1,-86 -0.6,-3.3 -2.7,-12.3 -4.6,-20 -1.9,-7.7 -5.4,-23.9 -7.8,-36 -2.4,-12.1 -6.2,-28.3 -8.4,-36 -7.6,-26.8 -11.5,-57.3 -10.8,-85.7 0.4,-18.4 0.7,-21.4 3.4,-31.8 5.1,-19.7 9.8,-29.1 24.1,-48.5 19.8,-26.8 52.7,-59.8 63.4,-63.8 1.1,-0.4 2.9,0.3 4.7,1.9 5.4,4.5 13,5.6 19.7,2.8 2.2,-0.9 7.9,-4.3 12.8,-7.6 17.4,-11.8 28,-16.3 42,-17.8 3.9,-0.4 7.6,-0.8 8.1,-0.8 0.6,-0.1 7.8,0.3 16,0.8 z m 740.6,26 c 1.9,1.6 2.1,1.9 0.7,2 -2.5,0 -6.8,-1.8 -6.8,-3 0,-1.7 3.6,-1.1 6.1,1 z m -348.1,15 c 0,0.5 -0.6,1 -1.4,1 -0.8,0 -1.8,-0.5 -2.1,-1 -0.3,-0.6 0.3,-1 1.4,-1 1.2,0 2.1,0.4 2.1,1 z m -49.9,247.7 c 0.4,3.7 1.2,6.9 1.9,7.8 0.4,0.5 1.1,4.9 1.4,9.7 0.4,7.2 0.2,8.8 -0.9,8.8 -0.8,0 -1.7,-1.2 -2,-2.8 -0.3,-1.5 -1,-4.7 -1.6,-7.2 -0.5,-2.5 -0.9,-5.9 -0.9,-7.5 0,-1.7 -0.2,-4.5 -0.6,-6.3 -0.5,-2.5 -0.3,-3.2 1,-3.2 0.9,0 1.6,0.3 1.7,0.7 z"
       id="path20"
       inkscape:connector-curvature="0"
       style="fill:#000000;stroke:none" />
    <path
       d="m 2131.3082,973.8415 c -6.7,3.1 -16.3,17.4 -16.4,24.3 0,3.2 -1.5,10.1 -3.8,17.8 -1.7,5.6 -1.9,13.7 -0.7,25.8 1,9.5 6.2,16.8 15.6,21.7 l 7.1,3.7 11.3,-0.9 c 14.2,-1.2 18.9,-3.4 30.6,-14.2 6.8,-6.3 9.5,-9.7 12.7,-15.9 7.3,-14 7.7,-26.5 1.2,-37.9 -3.9,-6.9 -15.8,-16.9 -25.7,-21.9 -7.2,-3.5 -8.5,-3.8 -17.8,-4.1 -8.2,-0.3 -10.7,0 -14.1,1.6 z m 22.3,30.6 c 6.4,2.7 10,6.1 10.8,10.2 0.4,2 1.3,5 2.1,6.5 2.3,4.5 0.8,9.3 -4.9,15.7 -2.8,3.1 -6,6.1 -7.1,6.8 -2.9,1.7 -10,1.6 -14.2,-0.2 -4.5,-1.9 -4,-3.9 1.2,-4.3 3.9,-0.3 8.4,-3.4 8.4,-5.8 0,-2.4 3.5,-8.4 5.3,-9 1.7,-0.5 2.5,-4.4 0.8,-4.4 -0.5,0 -2.8,-2 -5.2,-4.5 -2.4,-2.5 -4.8,-4.5 -5.5,-4.5 -0.6,0 -2.2,-0.9 -3.5,-2 l -2.4,-2 2.5,-2 c 3,-2.4 6.8,-2.5 11.7,-0.5 z"
       id="path22"
       inkscape:connector-curvature="0"
       style="fill:#000000;stroke:none" />
    <path
       d="m 1994.9082,1118.8415 c -4.7,1.5 -9.3,3.2 -10.3,3.7 -4,2.3 -15.1,14.3 -17.4,18.9 -1.4,2.7 -4,6.6 -5.8,8.6 -5.3,6 -6.8,11.3 -6.2,22.1 1.3,20.9 3.8,27 15.7,38.1 9.7,9.1 16.1,12.2 25.5,12.2 13.9,-0.1 21.3,-4.4 36.4,-21.3 11.3,-12.8 13.3,-16.8 15.3,-30.6 3.1,-21.7 -6.8,-40.4 -26.6,-50.1 -10.9,-5.4 -14.3,-5.6 -26.6,-1.6 z m 4.6,34.6 c 3.2,1.3 3.5,1.8 2.9,4.3 -0.4,2.2 0,3.3 2.1,5.2 3.8,3.6 7.4,9.6 7.4,12.4 0,2.9 -2.6,5 -9.1,7.1 -2.6,0.9 -6.8,3.4 -9.2,5.6 -6.8,5.9 -12.3,4.5 -8.3,-2.1 0.9,-1.6 1.6,-3.7 1.6,-4.9 0,-1.1 0.5,-4 1.1,-6.3 1.1,-3.9 0.9,-4.8 -1.5,-10 -2.1,-4.5 -2.5,-6.1 -1.6,-7.7 2.6,-5 8.1,-6.3 14.6,-3.6 z"
       id="path24"
       inkscape:connector-curvature="0"
       style="fill:#000000;stroke:none" />
    <path
       d="m 2320.8082,1121.3415 c -0.4,0.4 -3.3,1.1 -6.5,1.6 -8.9,1.5 -15.9,5.5 -24.6,14 -10.9,10.8 -12.2,14 -12.3,30.5 0,12.7 0.1,13.2 3.3,19.7 4,8.1 16.5,20.3 25.1,24.6 5,2.4 6.6,2.7 16.1,2.7 13.9,-0.1 21.2,-2.5 30.3,-10 16.5,-13.7 23.5,-30.2 19.4,-46 -2.2,-8.4 -10.4,-21.1 -17.2,-26.7 -9.2,-7.5 -15.3,-10.1 -24.9,-10.6 -4.5,-0.2 -8.4,-0.1 -8.7,0.2 z m 13.3,36.8 c 5.7,5 6,5.4 5.3,8.8 -0.4,1.9 -0.7,5.6 -0.6,8.2 0.2,6.8 -3.2,14.3 -8.2,17.9 -5,3.6 -8.2,3.9 -7.2,0.6 0.3,-1.2 0.9,-5.6 1.2,-9.7 l 0.5,-7.6 -3.6,-3.2 c -3.9,-3.4 -8.8,-4.2 -11.9,-2 -1.6,1.2 -2,4.1 -1.6,12.3 0.1,1.1 -0.2,3 -0.6,4.1 -0.5,1.7 0,2.6 2.9,4.4 5.3,3.2 7,5.1 5.5,6 -3,1.9 -10.4,-2.4 -11.1,-6.5 -0.2,-1.1 -0.8,-2.5 -1.4,-3.2 -0.7,-0.7 -1.5,-5.2 -1.9,-10.1 -0.8,-9.8 0.5,-14 4.6,-16.3 1.1,-0.6 3.7,-2.6 5.8,-4.4 2.7,-2.5 4.8,-3.5 8.1,-3.8 2.5,-0.2 5.3,-0.4 6.3,-0.5 1,-0.1 4.6,2.2 7.9,5 z"
       id="path26"
       inkscape:connector-curvature="0"
       style="fill:#000000;stroke:none" />
    <path
       d="m 1569.3082,965.8415 c -7.3,2.6 -16.3,9 -22.2,15.7 -5.2,6 -8.8,12.3 -14.8,26.4 -2,4.7 -4.8,11.2 -6.2,14.5 -2.8,6.6 -3.3,14.1 -1.6,27 2,14.8 14.7,25.5 30.3,25.5 7.3,0 11.1,-1.3 18.4,-6.2 4,-2.7 7.5,-4.2 11.5,-4.8 16.6,-2.7 33.4,-17.2 40.4,-34.9 1.7,-4.3 2.2,-7.8 2.2,-15.1 0.1,-8.6 -0.2,-10.1 -3,-16 -5.7,-11.8 -23.6,-28.7 -34.5,-32.6 -5.6,-1.9 -14.3,-1.7 -20.5,0.5 z m 18.5,34.5 c 5.1,-0.6 6.2,-0.4 6.7,1 0.4,1.1 -0.2,2.7 -1.8,4.4 -3.7,4 -4.7,8.8 -3.3,17 0.6,3.1 0.3,5.2 -0.8,7.5 -0.9,1.8 -1.9,4.4 -2.2,5.9 -0.5,2.9 -4.8,5.8 -8.3,5.8 -1,0 -2.7,0.7 -3.8,1.5 -2.9,2.2 -12.6,2 -15.4,-0.3 l -2.3,-1.9 3.7,-2.8 c 2.2,-1.7 3.5,-3.4 3.2,-4.2 -0.3,-0.8 0.1,-3 0.9,-5 2.2,-5.2 1.8,-10.5 -1,-16.1 -1.4,-2.8 -2.5,-5.4 -2.5,-5.9 0,-1.8 3.7,-4.3 9.6,-6.7 5.2,-2 6.2,-2.1 8.6,-1 1.8,1 4.5,1.2 8.7,0.8 z"
       id="path28"
       inkscape:connector-curvature="0"
       style="fill:#000000;stroke:none" />
    <path
       d="m 1735.8082,1112.2415 c -6.8,1.9 -18.7,9.7 -25,16.4 -6.4,6.7 -12.9,17.9 -14.1,24 -0.4,2.4 -1.2,6.2 -1.6,8.5 -0.4,2.4 -0.5,8.1 -0.2,12.8 0.5,7.5 1.2,9.7 5.3,18.3 5.5,11.2 8.8,15.4 16.9,20.9 9.6,6.4 18.4,9.1 30.8,9.2 9.4,0.1 11.1,-0.2 16.3,-2.6 7.9,-3.7 19.9,-13.7 23.6,-19.8 4.3,-7 5.7,-10.7 7,-18.6 1.8,-10.6 -1.2,-22.9 -8.1,-32.6 -1,-1.5 -2.8,-5.3 -3.8,-8.4 -4,-11.6 -12.1,-20.8 -22.7,-26 -6.5,-3.2 -17.2,-4.1 -24.4,-2.1 z m 1.1,24.1 c 1.9,0.8 6.1,2.3 9.2,3.4 3.1,1.1 8.2,3.9 11.2,6.2 5.1,3.7 5.6,4.4 5.6,8 0,3.3 -0.5,4.3 -3.5,6.6 -1.9,1.4 -3.5,3.2 -3.5,3.8 0,0.7 -1.8,3.6 -3.9,6.5 -4.4,5.9 -4.3,7.3 1,10.4 4.1,2.3 4.7,4.6 1.9,6.9 -1.6,1.3 -3.6,1.8 -6.4,1.6 -3.3,-0.2 -4.3,-0.8 -5.4,-3.1 -1.1,-2.2 -1.9,-2.7 -5.1,-2.7 -6,0 -17.3,-9.5 -20.6,-17.2 -1.7,-4.3 -2,-12.4 -0.4,-13.4 0.6,-0.3 2.4,0.8 3.9,2.5 1.6,1.7 3.5,3.1 4.3,3.1 0.8,0 3.1,1.3 5.1,2.9 2.1,1.7 4.4,2.7 5.2,2.4 0.8,-0.3 3,-2.8 4.9,-5.7 3.4,-5.1 3.4,-5.1 1.6,-8.1 -0.9,-1.6 -2.8,-3.6 -4.2,-4.3 -3,-1.6 -10.5,-0.9 -14.5,1.4 -3.7,2.1 -6.4,1.3 -6.4,-1.9 0,-3.4 4.4,-7.5 9.9,-9.1 5.7,-1.8 5.8,-1.8 10.1,-0.2 z"
       id="path30"
       inkscape:connector-curvature="0"
       style="fill:#000000;stroke:none" />
    <path
       d="m 1439.9082,1113.3415 c -6.4,2.4 -13.5,6.4 -15.7,8.8 -3,3.1 -7.8,14 -9.3,20.9 -1.2,5.5 -1.1,10.3 0.9,23.9 1.2,8.2 2,10.7 6.5,20.2 4.4,9.3 6.9,12.4 13.8,17.2 4.2,2.8 7.2,3.9 13.8,5.1 4.7,0.8 9.9,1.2 11.5,0.9 9.2,-2 17.9,-10.4 22,-21.7 1.5,-3.9 4.5,-11 6.8,-15.6 3.3,-7 4.1,-9.6 4.1,-14.6 0.1,-10.1 -7,-21.9 -18.2,-30.3 -2.1,-1.4 -5.6,-4.3 -8,-6.3 -4.6,-4 -14.3,-8.3 -20.7,-9.2 -2.3,-0.4 -5.5,0 -7.5,0.7 z m 7.3,38.3 c 0.3,0.5 0.6,3.5 0.8,6.8 l 0.4,6 -4.4,-0.3 c -2.3,-0.2 -5.6,0.2 -7.1,0.8 -5.4,2.3 -10.7,-3.7 -7.6,-8.5 2.4,-3.6 16.4,-7.3 17.9,-4.8 z"
       id="path32"
       inkscape:connector-curvature="0"
       style="fill:#000000;stroke:none" />
    <path
       d="m 780.80816,1385.2415 c -8.2,2.8 -14,7.7 -30.8,26.1 -17.2,18.8 -26.6,29.9 -57.4,67.4 -4,4.9 -7.7,12.1 -7.7,15.1 0,4 3.4,12.6 6,15.3 3.2,3.2 7.5,3.6 14.4,1.6 6,-1.8 17.2,-13 25.2,-25.1 6.8,-10.4 22.6,-31.7 30.9,-41.7 11.6,-14 31.4,-39 34.2,-43.2 2.9,-4.3 3.2,-5.3 2.6,-10 -0.3,-3 -1.2,-5.8 -2.1,-6.6 -2.3,-1.8 -7.8,-1.4 -15.3,1.1 z"
       id="path34"
       inkscape:connector-curvature="0"
       style="fill:#000000;stroke:none" />
    <path
       d="m 1003.4082,916.6415 c -7.90004,2.9 -13.90004,6.8 -21.40004,14.2 -7.8,7.7 -9.1,10.7 -9.1,21.2 0,15.5 8.2,30.9 20,37.3 11.80004,6.4 24.20004,7.9 34.90004,4.1 8.7,-3 15.9,-11.1 19.7,-22 3.9,-11.1 1.1,-31.9 -5.3,-39.5 -3.6,-4.4 -12.4,-10.7 -18.8,-13.6 -7.3,-3.4 -13.8,-3.9 -20,-1.7 z m 15.1,29.4 c 0.3,0.6 0.2,1.5 -0.4,2.1 -1.2,1.2 -5.5,-0.8 -4.7,-2.3 0.8,-1.2 4.2,-1.2 5.1,0.2 z m -0.7,21.6 c -2.7,2.8 -4.9,3 -4.9,0.4 0,-2.5 4.1,-5.2 5.8,-3.8 1,0.8 0.8,1.5 -0.9,3.4 z"
       id="path36"
       inkscape:connector-curvature="0"
       style="fill:#000000;stroke:none" />
    <path
       d="m 1031.8082,1045.8415 c -3.3,0.5 -6,1.8 -9.3,4.5 -6.9,5.6 -7.6,7.6 -7.6,21 0,13.2 0.8,11.7 -14.1,27.1 -4.30004,4.4 -15.10004,17 -24.10004,28 -18.2,22.4 -28,34 -38.3,45.9 -8.8,10.2 -16.4,19.8 -19.9,25.5 -4.5,7.1 -9.6,21.4 -9.6,26.8 0,9.4 6.4,16 14.5,14.8 11.2,-1.6 20.8,-10.1 27.7,-24.4 6,-12.3 11.2,-20.1 32.8,-48.1 9,-11.7 20.70004,-27.5 21.70004,-29.4 1.9,-3.4 5.1,-5.9 6.8,-5.3 1.2,0.5 1.5,2.3 1.5,7.9 0,8.3 1.9,42.1 2.6,45.5 0.5,2.6 2.5,3.9 7.5,4.7 2,0.3 4.3,0.8 5.2,1.1 4.2,1.7 10.8,-6.8 12.5,-16 0.6,-3.3 1.4,-14.6 1.7,-25 0.3,-10.5 1,-24.4 1.5,-31 0.5,-6.6 1.2,-16.4 1.6,-21.7 0.5,-8.3 1,-10.3 3.4,-14 1.8,-2.8 3,-6.3 3.4,-10 0.6,-5.4 0.4,-5.9 -2.5,-9.3 -2.8,-3.2 -3,-3.8 -2,-6.3 1.4,-3.3 0.2,-7.4 -3.1,-11 -2.3,-2.3 -4.8,-2.6 -13.9,-1.3 z m -0.4,32 c -1.9,5.9 -9.5,10.8 -9.5,6.1 0,-1.8 8.9,-9.5 9.8,-8.5 0.2,0.2 0.1,1.3 -0.3,2.4 z"
       id="path38"
       inkscape:connector-curvature="0"
       style="fill:#000000;stroke:none" />
    <path
       d="m 1156.9082,1101.2415 c -9.6,2.7 -25,15.3 -28.6,23.3 -3.4,7.6 -4.9,20 -3.5,27.5 3,15.3 13.5,28.4 28.3,35.4 10.5,5 24,6.6 33.6,4.1 8.8,-2.3 14,-5.4 21.8,-13.1 8.7,-8.6 10.4,-12.4 10.4,-25 0,-11.9 -1.6,-16.2 -10.1,-26.7 -5,-6.2 -17.7,-16.8 -20.2,-16.8 -0.6,0 -5.2,-2 -10.2,-4.5 -10.3,-5 -15.1,-6 -21.5,-4.2 z m 14.8,21.5 c 3.5,3.7 7.2,11.2 7.2,14.5 0,2.7 -8.1,13.2 -12.4,16.1 -2.9,1.9 -6.7,2.1 -8.3,0.5 -1.4,-1.4 2.8,-11.2 6.4,-15.1 2.8,-2.9 2.8,-6.2 0.2,-12.5 -1,-2.6 -1,-3.4 0,-4.7 2,-2.3 4,-2 6.9,1.2 z"
       id="path40"
       inkscape:connector-curvature="0"
       style="fill:#000000;stroke:none" />
    <path
       d="m 805.20816,1104.8415 c -16,7.7 -27.1,17.2 -30.3,25.9 -5.2,13.9 -4.3,42.7 1.8,54.7 7.6,15 26.4,26.5 43.3,26.5 6.9,0 19.7,-3.6 25.7,-7.3 9.1,-5.4 18.2,-13.6 22.2,-19.8 5.4,-8.4 9.2,-20.2 9.1,-28.7 0,-15.5 -0.3,-18.6 -1.7,-20.6 -0.7,-1.1 -1.4,-3.6 -1.4,-5.6 0,-7.9 -10.6,-18.2 -21.5,-21 -2.2,-0.6 -5.6,-1.8 -7.5,-2.7 -3.9,-1.8 -12.3,-3.1 -25,-3.9 -8,-0.5 -8.9,-0.3 -14.7,2.5 z m 11.5,10.3 c 3,3.7 -2.7,10.8 -6.3,7.8 -2.3,-1.9 -1.8,-4.6 1.1,-6.9 3.1,-2.4 3.8,-2.5 5.2,-0.9 z m 14.9,19.3 c 1.9,0.8 5.6,1.5 8.2,1.6 2.5,0 5.4,0.4 6.4,0.8 2.7,1 8,14.7 6.7,17.2 -1.6,2.9 -2.8,2.4 -7.7,-3.1 -2.5,-2.8 -5.2,-5 -6,-5 -0.8,0 -3.1,-0.7 -5,-1.7 -3.3,-1.5 -3.8,-1.5 -10.1,0.7 -8,2.8 -9.9,4.2 -10.4,8.1 -0.5,3.3 1.7,5.9 5,5.9 2.2,0 3.1,-0.8 7.5,-6.4 2.6,-3.2 6.7,-3.8 9.5,-1.3 0.9,0.9 2.8,3.6 4.1,6 l 2.4,4.4 -2.6,3.5 c -1.5,1.9 -2.7,3.9 -2.7,4.4 0,1.3 -5.8,6.8 -8.7,8.3 -1.2,0.6 -5.5,1.1 -9.6,1.1 -6.1,0 -8,-0.4 -10.8,-2.3 -4.6,-3.1 -7.5,-8.7 -8.3,-16 -0.5,-5.3 -0.3,-6.6 1.7,-9.6 1.2,-2 2.8,-4.8 3.4,-6.2 1.6,-3.7 15.9,-11.4 22.1,-11.8 0.7,-0.1 2.9,0.6 4.9,1.4 z"
       id="path42"
       inkscape:connector-curvature="0"
       style="fill:#000000;stroke:none" />
    <path
       d="m 2508.4082,805.9415 c -0.8,1.2 2,2.4 3.5,1.5 0.6,-0.3 0.8,-1.1 0.5,-1.6 -0.8,-1.2 -3.2,-1.2 -4,0.1 z"
       id="path44"
       inkscape:connector-curvature="0"
       style="fill:#000000;stroke:none" />
    <path
       d="m 338.40816,1130.1415 c -1.2,0.8 -6.8,1.3 -14.6,1.4 -9.3,0.2 -14.2,0.7 -19.1,2.2 -4,1.3 -8,1.9 -10.4,1.5 -4.5,-0.5 -23.4,3.7 -30,6.9 -7.6,3.5 -6.8,8.5 1.1,7.1 4.5,-0.7 4,-0.7 14.8,0.3 7.2,0.6 8.1,0.5 13.2,-2.1 5.9,-3 9.4,-3.4 45.5,-5.6 28.6,-1.7 32.4,-2.2 32.8,-4 0.2,-0.9 -1.4,-2.7 -3.6,-4.3 -3.4,-2.3 -5.1,-2.7 -12.3,-3 -4.6,-0.2 -10,-0.6 -11.9,-1 -2.1,-0.4 -4.3,-0.1 -5.5,0.6 z"
       id="path46"
       inkscape:connector-curvature="0"
       style="fill:#000000;stroke:none" />
    <path
       d="m 118.40816,1136.9415 c -0.7,1.1 1,1.9 3.8,1.7 2.1,-0.1 2.2,-1.3 0.1,-2.1 -2.2,-0.9 -3.2,-0.8 -3.9,0.4 z"
       id="path48"
       inkscape:connector-curvature="0"
       style="fill:#000000;stroke:none" />
    <path
       d="m 132.30816,1137.0415 c -0.3,0.6 -0.1,1.6 0.5,2.2 1.2,1.2 6.1,-0.6 6.1,-2.3 0,-1.3 -5.7,-1.3 -6.6,0.1 z"
       id="path50"
       inkscape:connector-curvature="0"
       style="fill:#000000;stroke:none" />
    <path
       d="m 149.70816,1137.6415 c 0.7,0.3 1.6,0.2 1.9,-0.1 0.4,-0.3 -0.2,-0.6 -1.3,-0.5 -1.1,0 -1.4,0.3 -0.6,0.6 z"
       id="path52"
       inkscape:connector-curvature="0"
       style="fill:#000000;stroke:none" />
    <path
       d="m 359.10816,1159.2415 c -3.2,3.8 3.2,7.8 13.5,8.5 8.2,0.5 12.9,-0.9 13.9,-4.1 1.1,-3.4 -2,-4.7 -11,-4.7 -4.5,0 -9.7,-0.3 -11.6,-0.6 -2.5,-0.4 -4,-0.2 -4.8,0.9 z"
       id="path54"
       inkscape:connector-curvature="0"
       style="fill:#000000;stroke:none" />
    <path
       d="m 276.40816,1184.8415 c -2.7,0.4 -5.6,1 -6.4,1.5 -0.8,0.5 -5.7,1 -11,1.1 -5.3,0.1 -10.7,0.5 -11.9,0.9 -3.7,1.2 -2,3.1 2.5,2.8 2.2,-0.2 5.9,0.4 8.3,1.2 3.3,1.1 4.8,1.2 6.4,0.4 1.3,-0.7 9.4,-1.3 20.6,-1.4 10.2,-0.2 18.8,-0.3 19.3,-0.4 0.4,0 0.7,-0.9 0.7,-1.9 0,-1.6 -1.1,-2.2 -5.3,-3.1 -3.5,-0.7 -6.2,-0.7 -7.8,-0.1 -1.4,0.5 -3.2,0.6 -4,0.1 -2.5,-1.3 -6.3,-1.7 -11.4,-1.1 z"
       id="path56"
       inkscape:connector-curvature="0"
       style="fill:#000000;stroke:none" />
    <path
       d="m 218.20816,1188.3415 c -0.8,1.2 1.5,2.4 6.2,3.2 2.2,0.3 4.9,1.3 6.1,2 2.6,1.8 4.8,1 6.2,-2.1 0.9,-1.8 0.8,-2.6 -0.1,-3.2 -1.6,-1.1 -17.8,-1 -18.4,0.1 z"
       id="path58"
       inkscape:connector-curvature="0"
       style="fill:#000000;stroke:none" />
    <path
       d="m 312.90816,1187.8415 c 0.1,1.7 1.9,3.1 3.3,2.5 2.4,-0.9 2.1,-2.1 -0.8,-2.6 -1.4,-0.3 -2.5,-0.2 -2.5,0.1 z"
       id="path60"
       inkscape:connector-curvature="0"
       style="fill:#000000;stroke:none" />
    <path
       d="m 206.00816,1189.5415 c 0,1.1 0.3,1.4 0.6,0.6 0.3,-0.7 0.2,-1.6 -0.1,-1.9 -0.3,-0.4 -0.6,0.2 -0.5,1.3 z"
       id="path62"
       inkscape:connector-curvature="0"
       style="fill:#000000;stroke:none" />
    <path
       d="m 608.10816,1609.6415 c -4.9,2.7 -26.4,22.7 -33.4,31.2 -3.5,4.1 -8.8,10.2 -11.8,13.5 -3,3.4 -8,9.2 -11,13 -3,3.8 -8.7,10.3 -12.5,14.5 -3.9,4.2 -10,11.4 -13.5,16.1 -3.5,4.7 -11.8,15.7 -18.4,24.5 -14.3,18.9 -16.3,21.8 -25.9,35.4 -3.9,5.7 -10.8,15.4 -15.3,21.5 -13,18 -32.8,48.9 -37,57.8 -1.7,3.6 -1.7,4 0.1,9.8 1.4,4.5 2.9,7 5.8,9.6 3.6,3.3 4.3,3.6 8.1,3 9.1,-1.5 17.8,-8.7 23.5,-19.4 2.2,-4.2 7,-12.7 10.6,-18.7 3.5,-6.1 7.7,-13.2 9.2,-15.8 6.2,-10.6 29.2,-44.7 42.8,-63.4 4.4,-6.1 10.5,-14.5 13.5,-18.8 3,-4.3 10,-13.5 15.5,-20.4 5.5,-6.9 11.1,-14.2 12.5,-16.1 1.4,-1.9 5.2,-6.9 8.5,-11.1 6.4,-8.2 19.6,-25.7 25.7,-34.2 2.1,-2.9 3.8,-6.4 3.8,-7.9 0,-1.7 1.3,-4.3 3.3,-6.5 5.1,-5.9 8.7,-11.7 8.7,-14 0,-2.6 -3.5,-5.3 -7,-5.3 -1.4,0 -4,0.8 -5.8,1.7 z"
       id="path66"
       inkscape:connector-curvature="0"
       style="fill:#000000;stroke:none" />
    <path
       d="m 1045.3082,1662.0415 c -5.5,2.1 -10,6.8 -13,13.5 -2.2,5 -2.4,24.8 -0.4,41.9 1.4,12.4 1.8,59.2 1.2,129 -0.4,43.8 1.2,77.4 3.9,82.4 1,2 1.9,4.5 1.9,5.6 0,1.2 0.5,2.6 1.2,3.3 1.7,1.7 3.7,9.4 4.7,17.9 1,8.5 3,12.4 6.2,11.6 2.6,-0.7 5.9,-5.9 5.9,-9.5 0,-1.5 0.5,-3.9 1,-5.3 2.1,-5.6 3,-23.1 4,-84 0.6,-34.7 1.8,-74.5 2.5,-88.5 0.8,-14.7 1.3,-43.4 1.3,-68 -0.2,-44.5 -0.5,-47.5 -4.7,-50.7 -2.4,-1.8 -9.9,-1.5 -15.7,0.8 z"
       id="path68"
       inkscape:connector-curvature="0"
       style="fill:#000000;stroke:none" />
  </g>
</svg>
