solid OpenSCAD_Model
  facet normal -1 0 0
    outer loop
      vertex 0 0 -16
      vertex 0 0 22
      vertex 0 3 -16
    endloop
  endfacet
  facet normal -1 0 0
    outer loop
      vertex 0 3 3
      vertex 0 0 22
      vertex 0 3 22
    endloop
  endfacet
  facet normal -1 0 0
    outer loop
      vertex 0 3 -16
      vertex 0 0 22
      vertex 0 3 0
    endloop
  endfacet
  facet normal -1 0 0
    outer loop
      vertex 0 14 -16
      vertex 0 17 3
      vertex 0 17 -16
    endloop
  endfacet
  facet normal -1 0 0
    outer loop
      vertex 0 3 3
      vertex 0 17 3
      vertex 0 14 0
    endloop
  endfacet
  facet normal -1 0 0
    outer loop
      vertex 0 3 3
      vertex 0 14 0
      vertex 0 3 0
    endloop
  endfacet
  facet normal -1 0 0
    outer loop
      vertex 0 3 3
      vertex 0 3 0
      vertex 0 0 22
    endloop
  endfacet
  facet normal -1 0 0
    outer loop
      vertex 0 14 0
      vertex 0 17 3
      vertex 0 14 -16
    endloop
  endfacet
  facet normal 0 -1 0
    outer loop
      vertex 0 0 22
      vertex 0 0 -16
      vertex 3 0 -16
    endloop
  endfacet
  facet normal 0 -1 0
    outer loop
      vertex 3 0 3
      vertex 0 0 22
      vertex 3 0 0
    endloop
  endfacet
  facet normal 0 -1 0
    outer loop
      vertex 3 0 0
      vertex 0 0 22
      vertex 3 0 -16
    endloop
  endfacet
  facet normal 0 -1 0
    outer loop
      vertex 3 0 4
      vertex 14 0 4
      vertex 3 0 6
    endloop
  endfacet
  facet normal 0 -1 0
    outer loop
      vertex 17 0 -16
      vertex 14 0 0
      vertex 14 0 -16
    endloop
  endfacet
  facet normal 0 -1 0
    outer loop
      vertex 17 0 22
      vertex 14 0 0
      vertex 17 0 -16
    endloop
  endfacet
  facet normal 0 -1 0
    outer loop
      vertex 14 0 0
      vertex 3 0 3
      vertex 3 0 0
    endloop
  endfacet
  facet normal 0 -1 0
    outer loop
      vertex 3 0 4
      vertex 0 0 22
      vertex 3 0 3
    endloop
  endfacet
  facet normal 0 -1 0
    outer loop
      vertex 3 0 6
      vertex 0 0 22
      vertex 3 0 4
    endloop
  endfacet
  facet normal 0 -1 0
    outer loop
      vertex 3 0 8
      vertex 14 0 8
      vertex 3 0 10
    endloop
  endfacet
  facet normal 0 -1 0
    outer loop
      vertex 17 0 22
      vertex 14 0 3
      vertex 14 0 0
    endloop
  endfacet
  facet normal 0 -1 0
    outer loop
      vertex 17 0 22
      vertex 14 0 4
      vertex 14 0 3
    endloop
  endfacet
  facet normal 0 -1 0
    outer loop
      vertex 3 0 16
      vertex 3 0 18
      vertex 0 0 22
    endloop
  endfacet
  facet normal 0 -1 0
    outer loop
      vertex 3 0 8
      vertex 0 0 22
      vertex 3 0 6
    endloop
  endfacet
  facet normal 0 -1 0
    outer loop
      vertex 3 0 10
      vertex 0 0 22
      vertex 3 0 8
    endloop
  endfacet
  facet normal 0 -1 0
    outer loop
      vertex 14 0 18
      vertex 3 0 18
      vertex 14 0 16
    endloop
  endfacet
  facet normal 0 -1 0
    outer loop
      vertex 17 0 22
      vertex 14 0 6
      vertex 14 0 4
    endloop
  endfacet
  facet normal 0 -1 0
    outer loop
      vertex 17 0 22
      vertex 14 0 8
      vertex 14 0 6
    endloop
  endfacet
  facet normal 0 -1 0
    outer loop
      vertex 3 0 12
      vertex 0 0 22
      vertex 3 0 10
    endloop
  endfacet
  facet normal 0 -1 0
    outer loop
      vertex 3 0 20
      vertex 14 0 20
      vertex 0 0 22
    endloop
  endfacet
  facet normal 0 -1 0
    outer loop
      vertex 3 0 14
      vertex 0 0 22
      vertex 3 0 12
    endloop
  endfacet
  facet normal 0 -1 0
    outer loop
      vertex 3 0 18
      vertex 3 0 20
      vertex 0 0 22
    endloop
  endfacet
  facet normal 0 -1 0
    outer loop
      vertex 3 0 16
      vertex 14 0 16
      vertex 3 0 18
    endloop
  endfacet
  facet normal 0 -1 0
    outer loop
      vertex 17 0 22
      vertex 14 0 10
      vertex 14 0 8
    endloop
  endfacet
  facet normal 0 -1 0
    outer loop
      vertex 17 0 22
      vertex 14 0 12
      vertex 14 0 10
    endloop
  endfacet
  facet normal 0 -1 0
    outer loop
      vertex 3 0 16
      vertex 0 0 22
      vertex 3 0 14
    endloop
  endfacet
  facet normal 0 -1 0
    outer loop
      vertex 3 0 12
      vertex 14 0 12
      vertex 3 0 14
    endloop
  endfacet
  facet normal 0 -1 0
    outer loop
      vertex 17 0 22
      vertex 14 0 14
      vertex 14 0 12
    endloop
  endfacet
  facet normal 0 -1 0
    outer loop
      vertex 17 0 22
      vertex 14 0 16
      vertex 14 0 14
    endloop
  endfacet
  facet normal 0 -1 0
    outer loop
      vertex 17 0 22
      vertex 0 0 22
      vertex 14 0 20
    endloop
  endfacet
  facet normal 0 -1 0
    outer loop
      vertex 17 0 22
      vertex 14 0 18
      vertex 14 0 16
    endloop
  endfacet
  facet normal 0 -1 0
    outer loop
      vertex 17 0 22
      vertex 14 0 20
      vertex 14 0 18
    endloop
  endfacet
  facet normal 0 -1 0
    outer loop
      vertex 14 0 14
      vertex 3 0 14
      vertex 14 0 12
    endloop
  endfacet
  facet normal 0 -1 0
    outer loop
      vertex 14 0 10
      vertex 3 0 10
      vertex 14 0 8
    endloop
  endfacet
  facet normal 0 -1 0
    outer loop
      vertex 14 0 6
      vertex 3 0 6
      vertex 14 0 4
    endloop
  endfacet
  facet normal 0 -1 0
    outer loop
      vertex 14 0 3
      vertex 3 0 3
      vertex 14 0 0
    endloop
  endfacet
  facet normal 0 0 -1
    outer loop
      vertex 0 0 -16
      vertex 0 3 -16
      vertex 3 0 -16
    endloop
  endfacet
  facet normal 0 0 -1
    outer loop
      vertex 3 0 -16
      vertex 0 3 -16
      vertex 3 3 -16
    endloop
  endfacet
  facet normal 0 1 0
    outer loop
      vertex 0 3 -16
      vertex 0 3 0
      vertex 3 3 -16
    endloop
  endfacet
  facet normal 0 1 0
    outer loop
      vertex 3 3 -16
      vertex 0 3 0
      vertex 3 3 0
    endloop
  endfacet
  facet normal 0 0 -1
    outer loop
      vertex 0 3 0
      vertex 0 14 0
      vertex 3 3 0
    endloop
  endfacet
  facet normal 0 0 -1
    outer loop
      vertex 3 3 0
      vertex 0 14 0
      vertex 3 14 0
    endloop
  endfacet
  facet normal 0 -1 0
    outer loop
      vertex 0 14 0
      vertex 0 14 -16
      vertex 3 14 -16
    endloop
  endfacet
  facet normal 0 -1 0
    outer loop
      vertex 3 14 0
      vertex 0 14 0
      vertex 3 14 -16
    endloop
  endfacet
  facet normal 0 0 -1
    outer loop
      vertex 0 14 -16
      vertex 0 17 -16
      vertex 3 14 -16
    endloop
  endfacet
  facet normal 0 0 -1
    outer loop
      vertex 3 14 -16
      vertex 0 17 -16
      vertex 3 17 -16
    endloop
  endfacet
  facet normal 0 1 0
    outer loop
      vertex 0 17 -16
      vertex 0 17 3
      vertex 3 17 -16
    endloop
  endfacet
  facet normal 0 1 0
    outer loop
      vertex 14 17 0
      vertex 0 17 3
      vertex 17 17 3
    endloop
  endfacet
  facet normal 0 1 0
    outer loop
      vertex 14 17 -16
      vertex 17 17 3
      vertex 17 17 -16
    endloop
  endfacet
  facet normal 0 1 0
    outer loop
      vertex 3 17 0
      vertex 0 17 3
      vertex 14 17 0
    endloop
  endfacet
  facet normal 0 1 0
    outer loop
      vertex 3 17 -16
      vertex 0 17 3
      vertex 3 17 0
    endloop
  endfacet
  facet normal 0 1 0
    outer loop
      vertex 14 17 0
      vertex 17 17 3
      vertex 14 17 -16
    endloop
  endfacet
  facet normal 0 0 1
    outer loop
      vertex 14 3 3
      vertex 17 3 3
      vertex 0 17 3
    endloop
  endfacet
  facet normal 0 0 1
    outer loop
      vertex 0 17 3
      vertex 0 3 3
      vertex 3 3 3
    endloop
  endfacet
  facet normal 0 0 1
    outer loop
      vertex 14 0 3
      vertex 0 17 3
      vertex 3 3 3
    endloop
  endfacet
  facet normal 0 0 1
    outer loop
      vertex 3 0 3
      vertex 14 0 3
      vertex 3 3 3
    endloop
  endfacet
  facet normal 0 0 1
    outer loop
      vertex 14 0 3
      vertex 14 3 3
      vertex 0 17 3
    endloop
  endfacet
  facet normal 0 0 1
    outer loop
      vertex 17 3 3
      vertex 17 17 3
      vertex 0 17 3
    endloop
  endfacet
  facet normal 0 1 0
    outer loop
      vertex 0 3 3
      vertex 0 3 22
      vertex 3 3 3
    endloop
  endfacet
  facet normal 0 1 0
    outer loop
      vertex 3 3 20
      vertex 0 3 22
      vertex 17 3 22
    endloop
  endfacet
  facet normal 0 1 0
    outer loop
      vertex 14 3 3
      vertex 17 3 22
      vertex 17 3 3
    endloop
  endfacet
  facet normal 0 1 0
    outer loop
      vertex 14 3 4
      vertex 17 3 22
      vertex 14 3 3
    endloop
  endfacet
  facet normal 0 1 0
    outer loop
      vertex 14 3 6
      vertex 17 3 22
      vertex 14 3 4
    endloop
  endfacet
  facet normal 0 1 0
    outer loop
      vertex 3 3 3
      vertex 0 3 22
      vertex 3 3 4
    endloop
  endfacet
  facet normal 0 1 0
    outer loop
      vertex 3 3 20
      vertex 17 3 22
      vertex 14 3 20
    endloop
  endfacet
  facet normal 0 1 0
    outer loop
      vertex 3 3 4
      vertex 0 3 22
      vertex 3 3 6
    endloop
  endfacet
  facet normal 0 1 0
    outer loop
      vertex 14 3 6
      vertex 3 3 4
      vertex 3 3 6
    endloop
  endfacet
  facet normal 0 1 0
    outer loop
      vertex 0 3 22
      vertex 3 3 8
      vertex 3 3 6
    endloop
  endfacet
  facet normal 0 1 0
    outer loop
      vertex 14 3 8
      vertex 17 3 22
      vertex 14 3 6
    endloop
  endfacet
  facet normal 0 1 0
    outer loop
      vertex 14 3 10
      vertex 17 3 22
      vertex 14 3 8
    endloop
  endfacet
  facet normal 0 1 0
    outer loop
      vertex 3 3 8
      vertex 0 3 22
      vertex 3 3 10
    endloop
  endfacet
  facet normal 0 1 0
    outer loop
      vertex 14 3 10
      vertex 3 3 8
      vertex 3 3 10
    endloop
  endfacet
  facet normal 0 1 0
    outer loop
      vertex 0 3 22
      vertex 3 3 12
      vertex 3 3 10
    endloop
  endfacet
  facet normal 0 1 0
    outer loop
      vertex 14 3 12
      vertex 17 3 22
      vertex 14 3 10
    endloop
  endfacet
  facet normal 0 1 0
    outer loop
      vertex 14 3 14
      vertex 17 3 22
      vertex 14 3 12
    endloop
  endfacet
  facet normal 0 1 0
    outer loop
      vertex 3 3 8
      vertex 14 3 10
      vertex 14 3 8
    endloop
  endfacet
  facet normal 0 1 0
    outer loop
      vertex 3 3 12
      vertex 0 3 22
      vertex 3 3 14
    endloop
  endfacet
  facet normal 0 1 0
    outer loop
      vertex 14 3 14
      vertex 3 3 12
      vertex 3 3 14
    endloop
  endfacet
  facet normal 0 1 0
    outer loop
      vertex 0 3 22
      vertex 3 3 16
      vertex 3 3 14
    endloop
  endfacet
  facet normal 0 1 0
    outer loop
      vertex 14 3 16
      vertex 17 3 22
      vertex 14 3 14
    endloop
  endfacet
  facet normal 0 1 0
    outer loop
      vertex 3 3 16
      vertex 0 3 22
      vertex 3 3 18
    endloop
  endfacet
  facet normal 0 1 0
    outer loop
      vertex 14 3 18
      vertex 3 3 16
      vertex 3 3 18
    endloop
  endfacet
  facet normal 0 1 0
    outer loop
      vertex 0 3 22
      vertex 3 3 20
      vertex 3 3 18
    endloop
  endfacet
  facet normal 0 1 0
    outer loop
      vertex 3 3 16
      vertex 14 3 18
      vertex 14 3 16
    endloop
  endfacet
  facet normal 0 1 0
    outer loop
      vertex 14 3 18
      vertex 17 3 22
      vertex 14 3 16
    endloop
  endfacet
  facet normal 0 1 0
    outer loop
      vertex 3 3 12
      vertex 14 3 14
      vertex 14 3 12
    endloop
  endfacet
  facet normal 0 1 0
    outer loop
      vertex 14 3 20
      vertex 17 3 22
      vertex 14 3 18
    endloop
  endfacet
  facet normal 0 1 0
    outer loop
      vertex 3 3 4
      vertex 14 3 6
      vertex 14 3 4
    endloop
  endfacet
  facet normal 0 0 1
    outer loop
      vertex 0 3 22
      vertex 0 0 22
      vertex 17 0 22
    endloop
  endfacet
  facet normal 0 0 1
    outer loop
      vertex 17 3 22
      vertex 0 3 22
      vertex 17 0 22
    endloop
  endfacet
  facet normal 1 0 0
    outer loop
      vertex 17 0 22
      vertex 17 0 -16
      vertex 17 3 -16
    endloop
  endfacet
  facet normal 1 0 0
    outer loop
      vertex 17 3 3
      vertex 17 0 22
      vertex 17 3 0
    endloop
  endfacet
  facet normal 1 0 0
    outer loop
      vertex 17 3 0
      vertex 17 0 22
      vertex 17 3 -16
    endloop
  endfacet
  facet normal 1 0 0
    outer loop
      vertex 17 3 3
      vertex 17 3 22
      vertex 17 0 22
    endloop
  endfacet
  facet normal 1 0 0
    outer loop
      vertex 17 17 -16
      vertex 17 14 0
      vertex 17 14 -16
    endloop
  endfacet
  facet normal 1 0 0
    outer loop
      vertex 17 17 3
      vertex 17 14 0
      vertex 17 17 -16
    endloop
  endfacet
  facet normal 1 0 0
    outer loop
      vertex 17 14 0
      vertex 17 3 3
      vertex 17 3 0
    endloop
  endfacet
  facet normal 1 0 0
    outer loop
      vertex 17 17 3
      vertex 17 3 3
      vertex 17 14 0
    endloop
  endfacet
  facet normal 0 0 -1
    outer loop
      vertex 14 0 -16
      vertex 14 3 -16
      vertex 17 0 -16
    endloop
  endfacet
  facet normal 0 0 -1
    outer loop
      vertex 17 0 -16
      vertex 14 3 -16
      vertex 17 3 -16
    endloop
  endfacet
  facet normal -1 0 0
    outer loop
      vertex 14 0 -16
      vertex 14 0 0
      vertex 14 3 -16
    endloop
  endfacet
  facet normal -1 0 0
    outer loop
      vertex 14 3 -16
      vertex 14 0 0
      vertex 14 3 0
    endloop
  endfacet
  facet normal 0 0 -1
    outer loop
      vertex 3 0 0
      vertex 3 3 0
      vertex 14 0 0
    endloop
  endfacet
  facet normal 0 0 -1
    outer loop
      vertex 14 0 0
      vertex 3 3 0
      vertex 14 3 0
    endloop
  endfacet
  facet normal 1 0 0
    outer loop
      vertex 3 0 0
      vertex 3 0 -16
      vertex 3 3 -16
    endloop
  endfacet
  facet normal 1 0 0
    outer loop
      vertex 3 3 0
      vertex 3 0 0
      vertex 3 3 -16
    endloop
  endfacet
  facet normal 1 0 0
    outer loop
      vertex 3 0 4
      vertex 3 0 3
      vertex 3 3 3
    endloop
  endfacet
  facet normal 1 0 0
    outer loop
      vertex 3 3 4
      vertex 3 0 4
      vertex 3 3 3
    endloop
  endfacet
  facet normal -1 0 0
    outer loop
      vertex 14 0 3
      vertex 14 0 4
      vertex 14 3 3
    endloop
  endfacet
  facet normal -1 0 0
    outer loop
      vertex 14 3 3
      vertex 14 0 4
      vertex 14 3 4
    endloop
  endfacet
  facet normal 0 0 -1
    outer loop
      vertex 3 0 4
      vertex 3 3 4
      vertex 14 0 4
    endloop
  endfacet
  facet normal 0 0 -1
    outer loop
      vertex 14 0 4
      vertex 3 3 4
      vertex 14 3 4
    endloop
  endfacet
  facet normal 1 0 0
    outer loop
      vertex 3 0 8
      vertex 3 0 6
      vertex 3 3 6
    endloop
  endfacet
  facet normal 1 0 0
    outer loop
      vertex 3 3 8
      vertex 3 0 8
      vertex 3 3 6
    endloop
  endfacet
  facet normal 0 0 1
    outer loop
      vertex 3 3 6
      vertex 3 0 6
      vertex 14 0 6
    endloop
  endfacet
  facet normal 0 0 1
    outer loop
      vertex 14 3 6
      vertex 3 3 6
      vertex 14 0 6
    endloop
  endfacet
  facet normal -1 0 0
    outer loop
      vertex 14 0 6
      vertex 14 0 8
      vertex 14 3 6
    endloop
  endfacet
  facet normal -1 0 0
    outer loop
      vertex 14 3 6
      vertex 14 0 8
      vertex 14 3 8
    endloop
  endfacet
  facet normal 0 0 -1
    outer loop
      vertex 3 0 8
      vertex 3 3 8
      vertex 14 0 8
    endloop
  endfacet
  facet normal 0 0 -1
    outer loop
      vertex 14 0 8
      vertex 3 3 8
      vertex 14 3 8
    endloop
  endfacet
  facet normal 1 0 0
    outer loop
      vertex 3 0 12
      vertex 3 0 10
      vertex 3 3 10
    endloop
  endfacet
  facet normal 1 0 0
    outer loop
      vertex 3 3 12
      vertex 3 0 12
      vertex 3 3 10
    endloop
  endfacet
  facet normal 0 0 1
    outer loop
      vertex 3 3 10
      vertex 3 0 10
      vertex 14 0 10
    endloop
  endfacet
  facet normal 0 0 1
    outer loop
      vertex 14 3 10
      vertex 3 3 10
      vertex 14 0 10
    endloop
  endfacet
  facet normal -1 0 0
    outer loop
      vertex 14 0 10
      vertex 14 0 12
      vertex 14 3 10
    endloop
  endfacet
  facet normal -1 0 0
    outer loop
      vertex 14 3 10
      vertex 14 0 12
      vertex 14 3 12
    endloop
  endfacet
  facet normal 0 0 -1
    outer loop
      vertex 3 0 12
      vertex 3 3 12
      vertex 14 0 12
    endloop
  endfacet
  facet normal 0 0 -1
    outer loop
      vertex 14 0 12
      vertex 3 3 12
      vertex 14 3 12
    endloop
  endfacet
  facet normal 1 0 0
    outer loop
      vertex 3 0 16
      vertex 3 0 14
      vertex 3 3 14
    endloop
  endfacet
  facet normal 1 0 0
    outer loop
      vertex 3 3 16
      vertex 3 0 16
      vertex 3 3 14
    endloop
  endfacet
  facet normal 0 0 1
    outer loop
      vertex 3 3 14
      vertex 3 0 14
      vertex 14 0 14
    endloop
  endfacet
  facet normal 0 0 1
    outer loop
      vertex 14 3 14
      vertex 3 3 14
      vertex 14 0 14
    endloop
  endfacet
  facet normal -1 0 0
    outer loop
      vertex 14 0 14
      vertex 14 0 16
      vertex 14 3 14
    endloop
  endfacet
  facet normal -1 0 0
    outer loop
      vertex 14 3 14
      vertex 14 0 16
      vertex 14 3 16
    endloop
  endfacet
  facet normal 0 0 -1
    outer loop
      vertex 3 0 16
      vertex 3 3 16
      vertex 14 0 16
    endloop
  endfacet
  facet normal 0 0 -1
    outer loop
      vertex 14 0 16
      vertex 3 3 16
      vertex 14 3 16
    endloop
  endfacet
  facet normal 1 0 0
    outer loop
      vertex 3 0 20
      vertex 3 0 18
      vertex 3 3 18
    endloop
  endfacet
  facet normal 1 0 0
    outer loop
      vertex 3 3 20
      vertex 3 0 20
      vertex 3 3 18
    endloop
  endfacet
  facet normal 0 0 1
    outer loop
      vertex 3 3 18
      vertex 3 0 18
      vertex 14 0 18
    endloop
  endfacet
  facet normal 0 0 1
    outer loop
      vertex 14 3 18
      vertex 3 3 18
      vertex 14 0 18
    endloop
  endfacet
  facet normal -1 0 0
    outer loop
      vertex 14 0 18
      vertex 14 0 20
      vertex 14 3 18
    endloop
  endfacet
  facet normal -1 0 0
    outer loop
      vertex 14 3 18
      vertex 14 0 20
      vertex 14 3 20
    endloop
  endfacet
  facet normal 0 0 -1
    outer loop
      vertex 3 0 20
      vertex 3 3 20
      vertex 14 0 20
    endloop
  endfacet
  facet normal 0 0 -1
    outer loop
      vertex 14 0 20
      vertex 3 3 20
      vertex 14 3 20
    endloop
  endfacet
  facet normal 0 1 0
    outer loop
      vertex 14 3 1
      vertex 14 3 0
      vertex 3 3 1
    endloop
  endfacet
  facet normal 0 1 0
    outer loop
      vertex 3 3 1
      vertex 14 3 0
      vertex 3 3 0
    endloop
  endfacet
  facet normal 1 0 0
    outer loop
      vertex 3 14 0
      vertex 3 14 1
      vertex 3 3 1
    endloop
  endfacet
  facet normal 1 0 0
    outer loop
      vertex 3 3 0
      vertex 3 14 0
      vertex 3 3 1
    endloop
  endfacet
  facet normal 0 -1 0
    outer loop
      vertex 14 14 0
      vertex 14 14 1
      vertex 3 14 1
    endloop
  endfacet
  facet normal 0 -1 0
    outer loop
      vertex 3 14 0
      vertex 14 14 0
      vertex 3 14 1
    endloop
  endfacet
  facet normal 0 0 -1
    outer loop
      vertex 3 14 0
      vertex 3 17 0
      vertex 14 14 0
    endloop
  endfacet
  facet normal 0 0 -1
    outer loop
      vertex 14 14 0
      vertex 3 17 0
      vertex 14 17 0
    endloop
  endfacet
  facet normal 1 0 0
    outer loop
      vertex 3 14 0
      vertex 3 14 -16
      vertex 3 17 -16
    endloop
  endfacet
  facet normal 1 0 0
    outer loop
      vertex 3 17 0
      vertex 3 14 0
      vertex 3 17 -16
    endloop
  endfacet
  facet normal -1 0 0
    outer loop
      vertex 14 14 -16
      vertex 14 14 0
      vertex 14 17 -16
    endloop
  endfacet
  facet normal -1 0 0
    outer loop
      vertex 14 17 -16
      vertex 14 14 0
      vertex 14 17 0
    endloop
  endfacet
  facet normal 0 0 -1
    outer loop
      vertex 14 14 -16
      vertex 14 17 -16
      vertex 17 14 -16
    endloop
  endfacet
  facet normal 0 0 -1
    outer loop
      vertex 17 14 -16
      vertex 14 17 -16
      vertex 17 17 -16
    endloop
  endfacet
  facet normal 0 -1 0
    outer loop
      vertex 14 14 0
      vertex 14 14 -16
      vertex 17 14 -16
    endloop
  endfacet
  facet normal 0 -1 0
    outer loop
      vertex 17 14 0
      vertex 14 14 0
      vertex 17 14 -16
    endloop
  endfacet
  facet normal 0 0 -1
    outer loop
      vertex 14 3 0
      vertex 14 14 0
      vertex 17 3 0
    endloop
  endfacet
  facet normal 0 0 -1
    outer loop
      vertex 17 3 0
      vertex 14 14 0
      vertex 17 14 0
    endloop
  endfacet
  facet normal 0 1 0
    outer loop
      vertex 14 3 -16
      vertex 14 3 0
      vertex 17 3 -16
    endloop
  endfacet
  facet normal 0 1 0
    outer loop
      vertex 17 3 -16
      vertex 14 3 0
      vertex 17 3 0
    endloop
  endfacet
  facet normal -1 0 0
    outer loop
      vertex 14 14 1
      vertex 14 14 0
      vertex 14 3 1
    endloop
  endfacet
  facet normal -1 0 0
    outer loop
      vertex 14 3 1
      vertex 14 14 0
      vertex 14 3 0
    endloop
  endfacet
  facet normal 0 0 -1
    outer loop
      vertex 14 14 1
      vertex 14 3 1
      vertex 3 14 1
    endloop
  endfacet
  facet normal 0 0 -1
    outer loop
      vertex 3 14 1
      vertex 14 3 1
      vertex 3 3 1
    endloop
  endfacet
endsolid OpenSCAD_Model
