<?xml version="1.0" encoding="UTF-8" standalone="no"?><!DOCTYPE svg PUBLIC "-//W3C//DTD SVG 1.1//EN" "http://www.w3.org/Graphics/SVG/1.1/DTD/svg11.dtd"><svg width="100%" height="100%" viewBox="0 0 1300 800" version="1.1" xmlns="http://www.w3.org/2000/svg" xmlns:xlink="http://www.w3.org/1999/xlink" xml:space="preserve" xmlns:serif="http://www.serif.com/" style="fill-rule:evenodd;clip-rule:evenodd;stroke-linecap:square;stroke-miterlimit:1.41421;"><path d="M52.637,783.593c-0.288,-259.271 -2.317,80.812 0.035,-178.868c0.154,-6.889 0.38,-13.772 0.902,-20.65c0.447,-5.894 1.077,-11.782 1.988,-17.64c0.595,-3.83 1.312,-7.648 2.198,-11.44c5.698,-24.392 28.787,-55.635 67.92,-43.6c25.644,7.886 45.15,27.692 69.076,34.199c0,0 13.256,-61.507 6.989,-97.899c-11.433,-66.394 -33.945,-129.61 -80.916,-158.142c-24.159,-14.676 -48.009,-31.213 -55.808,-55.123c-13.507,-41.406 -12.303,-85.313 -12.4,-129.422l0,-88.601l33.858,0c0,173.153 0,-84.577 0,88.576c0.129,58.75 -8.634,129.382 36.316,152.372c101.377,51.85 126.775,188.685 107.578,286.296c-3.415,17.364 -22.369,35.581 -47.666,28.217c-28.055,-8.168 -51.152,-40.012 -78.061,-35.448c-23.89,4.052 -18.165,62.535 -18.277,122.105c-0.07,37.008 2.106,125.046 2.106,125.046" style="fill:none;stroke:#0d0d0d;stroke-width:5.5px;"/><path d="M389.634,783.593l0,-668.581c0,0 35.436,9.769 21.019,-33.39c-14.416,-43.159 -21.019,-57.333 -21.019,-57.333l0,-7.882l-31.528,0l0,767.186" style="fill:none;stroke:#0d0d0d;stroke-width:5.5px;stroke-miterlimit:1.5;"/><path d="M659.941,783.593l0,-490.058l0,-23.911l-10.509,-25.077l10.509,-24.748l-10.509,-26.205l10.509,-23.876l-10.509,-24.843l10.509,-26.965l-10.509,-26.605l10.509,-25.155l0,-49.743l-31.528,0l0,50.868l10.51,24.03l-10.51,25.829l10.51,27.741l-10.51,22.074l10.51,26.645l-10.51,25.426l10.51,25.527l-10.51,23.23l0,515.816" style="fill:none;stroke:#0d0d0d;stroke-width:5.5px;stroke-miterlimit:1.5;"/><path d="M1123.39,783.593l0,-704.13l-31.528,-63.056l0,767.186" style="fill:none;stroke:#0d0d0d;stroke-width:5.5px;stroke-miterlimit:1.5;"/><g><path d="M699.941,16.407l74.059,74.059" style="fill:none;stroke:#c32525;stroke-width:5.5px;stroke-miterlimit:1.5;"/><path d="M774,16.407l-74.059,74.059" style="fill:none;stroke:#c32525;stroke-width:5.5px;stroke-miterlimit:1.5;"/></g><g><path d="M432.537,16.407l74.059,74.059" style="fill:none;stroke:#c32525;stroke-width:5.5px;stroke-miterlimit:1.5;"/><path d="M506.596,16.407l-74.059,74.059" style="fill:none;stroke:#c32525;stroke-width:5.5px;stroke-miterlimit:1.5;"/></g><g><path d="M129.23,16.407l74.059,74.059" style="fill:none;stroke:#c32525;stroke-width:5.5px;stroke-miterlimit:1.5;"/><path d="M203.289,16.407l-74.059,74.059" style="fill:none;stroke:#c32525;stroke-width:5.5px;stroke-miterlimit:1.5;"/></g><path d="M1163.39,55.817l26.767,26.767l58.295,-58.295" style="fill:none;stroke:#72c325;stroke-width:5.5px;stroke-miterlimit:1.5;"/><g><circle cx="159.118" cy="722.829" r="38.171" style="fill:#616c72;"/><text x="145.77px" y="740.009px" style="font-family:'Arial-BoldMT', 'Arial', sans-serif;font-weight:700;font-size:48px;fill:#ebebeb;">1</text></g><g><circle cx="462.273" cy="722.829" r="38.171" style="fill:#616c72;"/><text x="448.926px" y="740.009px" style="font-family:'Arial-BoldMT', 'Arial', sans-serif;font-weight:700;font-size:48px;fill:#ebebeb;">2</text></g><g><circle cx="738.112" cy="722.829" r="38.171" style="fill:#616c72;"/><text x="724.764px" y="740.009px" style="font-family:'Arial-BoldMT', 'Arial', sans-serif;font-weight:700;font-size:48px;fill:#ebebeb;">3</text></g></svg>