<?xml version="1.0" encoding="UTF-8" standalone="no"?>
<svg
   xmlns:dc="http://purl.org/dc/elements/1.1/"
   xmlns:cc="http://creativecommons.org/ns#"
   xmlns:rdf="http://www.w3.org/1999/02/22-rdf-syntax-ns#"
   xmlns:svg="http://www.w3.org/2000/svg"
   xmlns="http://www.w3.org/2000/svg"
   xmlns:sodipodi="http://sodipodi.sourceforge.net/DTD/sodipodi-0.dtd"
   xmlns:inkscape="http://www.inkscape.org/namespaces/inkscape"
   version="1.0"
   width="3492.9531pt"
   height="1975.5673pt"
   viewBox="0 0 3492.9532 1975.5672"
   preserveAspectRatio="xMidYMid meet"
   id="svg15502"
   inkscape:version="0.91 r13725"
   sodipodi:docname="plugs-z.svg"
   inkscape:export-filename="/home/churchyard/RepRap/BI-3DT/powerplugs-task/pics/plugs-z.svg.png"
   inkscape:export-xdpi="21.101788"
   inkscape:export-ydpi="21.101788">
  <defs
     id="defs15564" />
  <sodipodi:namedview
     pagecolor="#ffffff"
     bordercolor="#666666"
     borderopacity="1"
     objecttolerance="10"
     gridtolerance="10"
     guidetolerance="10"
     inkscape:pageopacity="0"
     inkscape:pageshadow="2"
     inkscape:window-width="1848"
     inkscape:window-height="1056"
     id="namedview15562"
     showgrid="false"
     inkscape:zoom="0.17875517"
     inkscape:cx="1192.7487"
     inkscape:cy="961.91728"
     inkscape:window-x="72"
     inkscape:window-y="0"
     inkscape:window-maximized="1"
     inkscape:current-layer="svg15502"
     fit-margin-top="0"
     fit-margin-left="0"
     fit-margin-right="0"
     fit-margin-bottom="0" />
  <metadata
     id="metadata15504">
Created by potrace 1.13, written by Peter Selinger 2001-2015
<rdf:RDF>
  <cc:Work
     rdf:about="">
    <dc:format>image/svg+xml</dc:format>
    <dc:type
       rdf:resource="http://purl.org/dc/dcmitype/StillImage" />
    <dc:title />
  </cc:Work>
</rdf:RDF>
</metadata>
  <path
     style="opacity:1;fill:#999999;fill-opacity:1;stroke:none;stroke-width:1.75393701;stroke-linecap:round;stroke-linejoin:round;stroke-miterlimit:4;stroke-dasharray:none;stroke-opacity:1"
     d="m 2057.7026,603.59297 c -173.8388,3.9696 -343.8651,44.71666 -515.2335,69.78769 -11.9516,12.7377 -1.8753,36.42004 -5.1919,53.34052 -1.3367,31.41681 4.3328,62.56359 5.4021,93.7137 -4.3026,15.0596 -19.9986,-3.41192 -19.8714,-11.83632 -5.9761,-41.56733 -3.6091,-84.67771 3.078,-126.47821 -7.7778,-12.44388 -26.2991,-0.72489 -38.117,-1.35746 -128.3676,18.66024 -257.969,30.29127 -388.0068,26.08376 -70.2386,0.68075 -140.97383,-4.88723 -210.90766,2.85166 -23.54872,-3.21346 -19.80096,23.32332 -23.904,38.79591 -7.07744,92.6585 -3.2308,185.87802 -5.18904,278.75638 0.70328,133.3752 -8.03392,268.8048 20.7476,400.0794 6.80456,35.6443 35.43111,62.4214 69.28727,73.0083 56.69403,16.7099 117.27473,11.2161 175.16433,18.3814 128.9984,-0.7739 258.093,-2.3666 386.9319,-9.1599 12.334,-10.4158 2.474,-32.6326 5.5935,-47.7964 1.3341,-13.1906 -2.8931,-28.8892 5.5814,-40.231 7.606,28.3584 6.8438,58.8866 15.7488,86.3647 87.0214,0.3466 174.376,-7.6399 261.6082,-7.7152 118.5147,-3.828 237.3538,-0.833 355.6583,-9.2697 40.6391,-5.4317 81.8184,-21.3378 106.8912,-55.4111 45.3816,-52.5461 41.9473,-126.6259 34.3227,-191.1293 -17.0294,-138.027 -42.5677,-274.76524 -56.9445,-413.0278 -11.1868,-58.39274 -28.2881,-115.93476 -50.0152,-171.23975 -14.1867,-30.38633 -43.3449,-54.99764 -78.2122,-54.66939 -18.0907,-1.54928 -36.2717,-1.9248 -54.4221,-1.84189 z"
     id="path16150"
     inkscape:connector-curvature="0"
     sodipodi:nodetypes="cccccccccccccccccccccccccc" />
  <path
     style="fill:#000000;stroke:none"
     inkscape:connector-curvature="0"
     id="path15508"
     d="m 1468.4721,0.18625874 c -2.2,0.1 -8.7,0.89999996 -14.5,1.79999996 -14.3,2.2 -19,5.2 -19,12.1000003 0,3.5 5.3,12.8 8,14.3 3.8,2 19.6,1.1 27.4,-1.6 2.1,-0.8 5.9,-1.4 8.3,-1.4 2.5,0 7.3,-0.7 10.6,-1.6 3.6,-0.9 10.9,-1.6 17.7,-1.7 9.9,-0.2 12,0.1 14.9,1.8 4.6,2.7 8.2,10 8.8,17.8 0.5,5.7 0.2,6.9 -3.6,15 -2.3,4.9 -4.1,9 -4.1,9.2 0,0.2 -2.1,3.4 -4.7,7.1 -2.7,3.6 -7.3,10.2 -10.3,14.7 -9,13.000001 -10,13.400001 -36,14.300001 -21.1,0.7 -29.1,2.4 -32.6,6.9 -4.1,5.4 -4.8,9.7 -2.5,14.9 2.2,5.1 5.3,7.5 10.7,8.2 2.2,0.3 5.1,1 6.5,1.5 3,1.2 7.2,6.3 6.7,8.3 -0.2,0.7 -5.6,6.1 -12.2,12 -6.5,5.9 -13,12.1 -14.4,13.9 -3.8,4.7 -11.6,13.3 -18.3,20.3 -3.5,3.7 -5.9,7.1 -5.9,8.3 0,3.5 2.6,7.5 8,12.4 5.8,5.2 12.7,8.2 22.1,9.4 7.4,0.9 28.6,1 40.9,0.1 4.7,-0.4 15.5,-0.9 24,-1.3 8.5,-0.3 21.6,-1.5 29,-2.5 7.4,-1 17.8,-2.3 23,-2.9 36.7,-4.3 65.4,-9.3 74.8,-13 2.9,-1.2 6.6,-2.1 8.1,-2.1 4.1,0 14.1,-8.2 14.1,-11.6 0,-5.2 -2.6,-9.1 -7.3,-10.9 -5.3,-2 -10,-1.7 -23.8,1.4 -8.6,1.9 -19.3,3.6 -45.4,7.1 -4.4,0.6 -12,1.7 -17,2.5 -20.5,3.4 -70.5,8.5 -98.6,10.1 l -10.5,0.6 -3.2,-3.3 c -5.9,-6.1 -5,-7.7 17.6,-30.1 8.6,-8.6 21.5,-21.5 28.6,-28.7 11.8,-12 13.4,-13.3 18.5,-14.8 3.1,-0.9 10,-3.3 15.3,-5.4 5.4,-2.2 10.6,-3.9 11.6,-3.9 2.6,0 10.2,-6.1 10.8,-8.6 0.7,-2.900001 -1.8,-7.700001 -5.3,-9.900001 -3.9,-2.4 -6.3,-5.6 -6.3,-8.3 0,-2.4 3.3,-8.2 8.5,-14.7 1.7,-2.2 4.7,-7.2 6.5,-11 6,-12.5 5.2,-30.4 -1.7,-38.6 -4,-4.7 -16.3,-12.4000003 -23.6,-14.8000003 -3.4,-1.1 -9.1,-2.3 -12.7,-2.59999996 -7.1,-0.6 -41,-1.2 -47.5,-0.7 z" />
  <path
     style="fill:#000000;stroke:none"
     inkscape:connector-curvature="0"
     id="path15512"
     d="m 1729.8721,96.086259 c -1.5,0.9 -3.9,3.5 -5.3,5.700001 -3,4.5 -3,2.7 -0.7,30.6 0.6,7.4 1.6,15.7 2.1,18.3 1.5,7.1 1.2,10.2 -0.9,12.1 -1.1,1 -6.9,2.6 -15.2,4.1 -15,2.7 -25,6.2 -29.1,10 -2.4,2.2 -2.8,3.3 -2.8,8.4 0,15 14.6,20.8 34.1,13.5 9.9,-3.6 16.9,-4.2 19.2,-1.7 1.6,1.8 5.1,10.9 7.6,19.8 3.2,11.8 6.4,22.9 8.6,30 1.4,4.4 3.8,12.5 5.4,18 1.6,5.5 3.4,11.3 4,13 0.6,1.6 2,6.1 3.1,10 1.1,3.8 3.4,9.4 5,12.2 3.6,6.2 5.5,6.6 11.5,2.5 3.4,-2.4 4.2,-3.6 5.4,-8.7 2.1,-9 1.7,-19.5 -1.3,-31.5 -3.1,-12.2 -4.7,-20 -7.6,-36 -1.1,-6.3 -2.5,-13.1 -3,-15 -1.1,-3.4 -2.7,-13.9 -3.7,-23.2 -0.4,-4.1 -0.2,-4.8 1.9,-6.1 1.2,-0.9 5,-2 8.3,-2.6 8,-1.4 24.3,-6.7 28.3,-9.1 2.9,-1.8 3.2,-2.5 3.2,-6.6 0,-6.2 -1.3,-8.2 -7.3,-11 -6.5,-3 -7.6,-3 -13.7,0.1 -5,2.5 -16.8,5.5 -21.9,5.5 -1.5,0 -3.5,-0.8 -4.4,-1.8 -2.8,-3.2 -5.8,-14.6 -8.3,-32.2 -3.1,-22.3 -2.9,-21.5 -6.2,-24.600001 -5.4,-5.2 -11.6,-6.6 -16.3,-3.7 z" />
  <path
     style="fill:#000000;stroke:none"
     inkscape:connector-curvature="0"
     id="path15516"
     d="m 1485.0721,243.78626 c -1.8,2.1 -6,20.1 -6.3,26.4 -0.1,3.1 -0.2,26.2 -0.2,51.2 -0.1,43.5 0,46.5 2.7,69.5 5.1,44.1 11.3,61.3 24.6,67.9 5.2,2.6 8.7,2.2 13.4,-1.6 2.9,-2.4 6.7,-11.4 6.7,-15.9 0,-1.5 -1.3,-5.2 -2.9,-8.2 -10.7,-20.4 -16.1,-46 -19.1,-91.2 -0.6,-8.8 -1.5,-20.1 -2,-25 -0.6,-5 -1.3,-15.7 -1.6,-23.9 -0.3,-8.2 -1,-16 -1.5,-17.3 -0.5,-1.4 -0.9,-4.7 -0.9,-7.6 0,-4.4 -0.4,-7.6 -2.6,-19.5 -1,-5 -7.6,-8.1 -10.3,-4.8 z" />
  <path
     style="fill:#000000;stroke:none"
     inkscape:connector-curvature="0"
     id="path15536"
     d="m 2039.9721,576.48626 c -6.9,0.4 -22.4,1.7 -34.5,2.9 -29.4,2.9 -47.8,4.5 -79.3,7 -32,2.5 -69.9,7.3 -91.2,11.7 -8.3,1.7 -13,2.4 -30,4.7 -6.3,0.9 -19.6,3 -29.5,4.6 -9.9,1.6 -20.9,3.4 -24.5,4 -8.9,1.3 -27.1,4.6 -48,8.5 -9.6,1.9 -21.3,4.1 -26,4.9 -4.7,0.9 -10.7,2.1 -13.5,2.6 -2.7,0.5 -8.4,1.6 -12.5,2.4 -4.1,0.8 -13.6,2.5 -21,3.6 -7.4,1.2 -18.2,3 -24,4.1 -5.8,1.1 -13.4,2.4 -17,2.9 -3.6,0.5 -10.5,1.6 -15.5,2.5 -4.9,0.8 -15.1,2.5 -22.5,3.6 -7.4,1.2 -16,2.5 -19,3 -3,0.5 -11.1,1.6 -18,2.4 -6.9,0.8 -17.4,2.1 -23.5,2.9 -6,0.8 -19.3,2.4 -29.5,3.6 -10.2,1.1 -21,2.5 -24,3 -3,0.5 -9.5,1.4 -14.5,2 -4.9,0.6 -12.1,1.5 -16,2 -41.1,5.7 -81.3,9.4 -144,13 -9.3,0.5 -23.3,1.5 -31,2.1 -7.7,0.5 -46.6,1.3 -86.5,1.6 -66.2,0.4 -75.1,0.3 -102,-1.5 -47.49996,-3.3 -80.69996,-4.7 -106.49996,-4.4 -12.5,0.1 -18,0.7 -33,3.6 -9.9,1.9 -22,4.2 -27,5.1 -28.4,5.2 -49,22.3 -65.6,54.2 -4.5,8.5 -5,10.1 -4.4,13.7 0.3,2.3 0.8,6.6 1.1,9.6 0.7,8.6 1.2,9.9 4.4,11.5 2.7,1.4 3.4,1.4 5.8,0.1 7.2,-4 7.3,-4 9,-2.9 2.1,1.3 2.7,5.8 4.1,31.8 0.6,11 1.6,27 2.2,35.5 1.8,27.7 1.1,169.90004 -1.1,198.00004 -1.7,22.4 -1.9,51 -1,125 0.7,50.2 1.3,74.5 2.4,84.5 1.6,14.6 3.7,41.6 5.6,71.5 1.3,20.5 4.6,49 7.9,69.5 0.5,3.3 1.4,9.1 2,13 2.9,19.6 5.7,32.9 9.3,45 3,10.3 3.9,12.3 8,19.5 2,3.6 4.6,8.1 5.7,10.1 3.2,5.9 19.9,22.7 28.6,28.8 29.4,20.9 50.9,29 93,35 3.9,0.6 15.99996,1.3 26.99996,1.6 19,0.5 53.5,2.1 67.5,3 27.8,1.8 52.3,2.8 68,2.7 27.7,-0.2 57.1,-1.1 69.5,-2.2 6.1,-0.5 45,-0.9 86.6,-0.8 41.5,0 76.9,-0.2 78.5,-0.5 1.6,-0.4 13.5,-0.9 26.4,-1.2 12.9,-0.3 26.7,-1 30.5,-1.5 3.9,-0.6 14.7,-1.5 24,-2 9.4,-0.5 22.8,-1.5 29.9,-2.1 10.5,-0.9 13.1,-0.8 14.2,0.3 1,1 1.4,7.5 1.9,26.8 0.3,14 1,29.8 1.5,35 0.5,5.2 1.4,17.1 1.9,26.5 1.4,26.5 2.1,28.6 10.6,33.4 6.7,3.8 9.4,3.9 12.7,0.3 5,-5.2 7,-13 4.8,-18.6 -0.5,-1.4 -1.4,-10.4 -2,-19.8 -0.6,-9.5 -1.4,-23.2 -2,-30.3 -2.8,-40.2 -3.1,-48.3 -1.6,-52 0.8,-1.9 2.1,-3.5 2.8,-3.6 0.7,0 19.1,-0.1 40.8,-0.1 39.4,0 73.8,-1.3 120,-4.3 40.2,-2.6 61.9,-3.3 113.9,-4 27.2,-0.3 53.8,-1 59,-1.6 5.8,-0.6 39.7,-0.9 84.6,-0.8 127.9,0.4 147.4,0.2 168,-1.5 22.1,-1.9 27.5,-2.7 45,-7.2 19.1,-5 23.5,-6.2 29,-8.4 2.8,-1.1 9.2,-3.6 14.3,-5.6 5.1,-2 9.9,-3.3 10.7,-3 0.9,0.3 1.5,1.9 1.5,4.1 0,5.1 2.3,8.9 6.5,10.9 4.6,2.2 9.1,1.5 17.6,-2.6 5.5,-2.6 7.5,-3 13.9,-2.9 13.3,0.2 50,3.5 83.5,7.6 24.3,2.9 30.4,3.4 33.6,2.5 6.6,-1.9 8.9,-7 4.9,-10.8 -4.3,-4 -23.8,-8.2 -54.5,-11.8 -10.8,-1.2 -19.5,-2.3 -31,-3.7 -6.6,-0.9 -20.6,-1.8 -31.2,-2 -19.4,-0.4 -22.3,-0.9 -22.3,-4.3 0,-0.7 2.6,-3.3 5.8,-5.6 21.6,-16 30.3,-25.3 41.9,-44.3 16.6,-27.3 23.8,-49.6 26.3,-81.4 1.7,-22.9 0.6,-85.1 -1.9,-106.6 -1.6,-13.5 -3.9,-29.6 -5.6,-39 -1.8,-10.1 -3.2,-19.5 -4.4,-30.5 -0.5,-4.1 -1.7,-12 -2.5,-17.5 -0.9,-5.5 -2.1,-13.4 -2.6,-17.5 -0.5,-4.1 -1.6,-12 -2.4,-17.5 -2.1,-13.1 -5.3,-35.5 -6.1,-42.5 -0.3,-3 -1.5,-10.5 -2.5,-16.5 -1,-6.1 -2.1,-12.6 -2.4,-14.5 -0.3,-1.9 -1.3,-7.8 -2.2,-13 -0.9,-5.2 -1.8,-11.1 -2,-13 -0.3,-1.9 -1.3,-8.7 -2.4,-15 -2.7,-16.00004 -4.1,-25.30004 -5,-33.50004 -0.5,-3.9 -1.8,-13.8 -3,-22 -1.1,-8.3 -2.7,-20.6 -3.5,-27.5 -0.9,-6.9 -2.2,-17.2 -3,-23 -0.8,-5.8 -2,-16.6 -2.6,-24 -4.5,-55.9 -8.8,-80.2 -20.9,-118.5 -3.8,-12 -6.2,-19.9 -8,-26.5 -0.5,-1.9 -3.6,-12.1 -6.9,-22.5 -3.3,-10.5 -7,-22.6 -8.1,-27 -1.2,-4.4 -2.8,-10.3 -3.6,-13 -2.5,-8.9 -10,-25 -15,-32.4 -2.7,-4 -6.3,-9.4 -8,-12.1 -5.1,-8.3 -12,-16.5 -18.9,-22.6 -8.3,-7.3 -10.9,-9 -22.6,-15.3 -7.7,-4.1 -11.7,-5.4 -21.9,-7.6 -25.3,-5.2 -66.2,-7.4 -100,-5.4 z m 62,31.5 c 22.9,1.8 34.6,4.3 45,9.5 11.8,6 19.3,12.8 29.5,27.2 11.3,15.9 15.3,23.6 18.8,36.2 5,18 5.9,20.8 10.7,35.5 4.8,14.3 13.2,43 18.4,62.5 1.5,5.5 3.3,12.2 4.1,15 5.3,18.3 9.3,42.5 11.5,69 1.8,23 3.1,35.8 4.5,45.5 0.8,5.2 2.3,16.9 3.5,26 3,24 8.1,60.1 11.4,80.20004 0.9,5.1 2.5,15.6 3.7,23.3 1.2,7.7 2.5,16.2 3,19 3.2,20.5 5.3,33.5 6.5,42.5 3.1,22.4 7.3,49.8 9.7,64 0.8,4.7 1.8,11.4 2.1,15 0.4,3.6 1.8,13.5 3.1,22 1.3,8.5 3.1,20.9 4,27.5 0.9,6.6 2,14.2 2.5,17 2.7,14.6 4.2,88.7 2.1,103.5 -3.8,25.8 -10.1,43.8 -23.6,67 -1.8,3 -4.7,8.1 -6.6,11.4 -7.1,12.1 -40,41.2 -48.9,43.1 -1.9,0.4 -4.8,1.4 -6.3,2.2 -1.6,0.8 -7,2.7 -12,4.3 -5.1,1.6 -10.5,3.4 -12.2,3.9 -7.8,2.8 -28.8,7.2 -38.7,8.1 -6.1,0.6 -11.4,1.2 -11.7,1.4 -2.3,1.4 -45.5,2 -140.1,2.1 -60.7,0.1 -123.3,0.7 -140.5,1.3 -17,0.6 -44.3,1.2 -60.5,1.2 -16.2,0 -39.2,0.6 -51,1.5 -11.8,0.8 -31.6,1.9 -44,2.5 -12.4,0.6 -29.9,1.6 -39,2.1 -9.1,0.5 -28.5,1.1 -43,1.4 -44.3,0.9 -59.8,1.5 -67.7,2.7 -7.2,1 -7.7,1 -9.3,-1 -1.2,-1.4 -1.9,-5 -2.4,-11.9 -0.4,-5.4 -1.1,-12.5 -1.6,-15.8 -0.5,-3.3 -1.8,-12.3 -2.9,-20 -1.1,-7.7 -2.5,-15.6 -3,-17.5 -0.6,-1.9 -1.1,-7 -1.1,-11.3 0,-6.9 -0.3,-8.1 -2.5,-10.2 -4.9,-4.9 -7.9,-2.8 -12.7,8.7 -2.7,6.7 -3,8.2 -2.9,18.8 0,6.3 0.7,21.3 1.5,33.3 0.9,12.5 1.1,22.8 0.7,24.1 -1.8,4.6 -2.8,4.8 -26.8,5.1 -12.5,0.1 -31.6,0.8 -42.3,1.4 -10.7,0.6 -26.5,1.4 -35,1.6 -8.5,0.2 -22,0.8 -30,1.3 -8,0.5 -44.6,1 -81.5,1.1 -36.8,0 -77.8,0.6 -91,1.2 -22.4,1 -78.3,1.3 -88.5,0.4 -2.5,-0.2 -9.4,-0.6 -15.5,-1 -6,-0.4 -12.1,-0.9 -13.5,-1.1 -3.6,-0.6 -27.5,-2.3 -41.5,-2.9 -6.6,-0.3 -14.7,-0.7 -18,-1 -3.3,-0.3 -13.9,-0.8 -23.4,-1.1 -9.59996,-0.3 -18.59996,-1 -19.89996,-1.5 -1.3,-0.5 -3.9,-0.9 -5.8,-0.9 -6.6,0 -22,-4.3 -34.9,-9.7 -20.1,-8.5 -29.1,-14.4 -41.4,-27.1 -8.1,-8.4 -10,-11.1 -14.3,-20.2 -4.7,-9.8 -6.2,-15.1 -8.6,-30.5 -0.5,-2.8 -1.1,-5.6 -1.5,-6.2 -0.4,-0.7 -1.4,-6 -2.2,-12 -0.8,-5.9 -2,-14.2 -2.5,-18.3 -0.6,-4.1 -1.5,-9.5 -2,-12 -1.2,-5.7 -2.4,-19.9 -5,-57.5 -1.1,-16.5 -2.7,-36.3 -3.5,-44 -0.8,-7.7 -1.9,-19 -2.5,-25 -0.8,-9.1 -2,-83 -2.3,-145 -0.1,-19.4 1.2,-53.5 2,-54.9 0.4,-0.6 0.8,-20.7 0.9,-44.60004 0.1,-24.1 0.8,-50.6 1.5,-59.5 1.4,-18 1.5,-52.6 0.3,-94 -1.2,-39.3 -1,-68.7 0.5,-77 0.7,-3.8 2.4,-10.8 3.8,-15.5 3.8,-12.5 5,-26.4 2.8,-32.1 -0.9,-2.4 3.4,-3.8 13.3,-4.4 4.8,-0.4 12.8,-1.5 17.7,-2.5 5,-1 12.4,-2.4 16.6,-3 14.8,-2.1 67,-1 108.39996,2.3 17.3,1.4 161.5,1.8 187,0.6 22.2,-1.1 47.1,-2.8 66,-4.4 8.8,-0.8 20.3,-1.7 25.5,-2 5.2,-0.4 11.5,-0.9 14,-1.1 2.5,-0.3 10.8,-0.9 18.5,-1.4 21.5,-1.5 34.4,-2.8 53.5,-5.6 9.6,-1.4 23.1,-3.2 30,-3.9 6.9,-0.8 17.4,-2.1 23.3,-2.9 6,-0.9 14.5,-1.9 19,-2.2 4.5,-0.3 8.5,-0.8 8.9,-1 0.4,-0.3 6.3,-1.3 13,-2.4 6.8,-1 16,-2.6 20.5,-3.5 13.2,-2.8 16,-0.8 13,9.7 -6.1,21 -8.6,86.1 -4.3,110 3.5,19.2 10.8,29.8 20.7,29.8 5.1,0 8.5,-3 10.6,-9.6 1.4,-4.7 1.5,-6.3 0.5,-11.7 -0.7,-3.4 -1.9,-10.3 -2.7,-15.2 -0.8,-5 -2,-11.7 -2.7,-15 -0.9,-4.3 -1.3,-19.6 -1.3,-53.8 0,-41.6 0.2,-48 1.5,-48.7 0.8,-0.4 7.1,-1.1 14,-1.5 6.9,-0.4 16.8,-1.5 22,-2.5 5.2,-1 12.2,-2.2 15.5,-2.5 3.3,-0.4 8,-1.2 10.5,-2 2.5,-0.7 8.3,-1.8 13,-2.5 10.5,-1.4 18,-2.6 29,-4.6 15.4,-2.7 19.5,-3.5 22.6,-4.5 1.7,-0.5 4.3,-0.9 5.8,-0.9 1.5,0 4.6,-0.4 6.9,-1 2.3,-0.5 8.3,-1.6 13.2,-2.5 5,-0.9 10.8,-2 13,-2.5 19.5,-4.3 71.5,-13.1 94,-16 5,-0.6 10.8,-1.6 13,-2.1 5.3,-1.2 27.2,-4.9 36,-6 3.9,-0.5 10.8,-1.6 15.5,-2.4 12.2,-2.2 29.6,-4.4 44,-5.6 6.9,-0.5 23.8,-1.9 37.5,-3 26.9,-2.2 36.1,-3.1 52.5,-4.8 15.6,-1.6 48.2,-4.1 58.5,-4.4 11.4,-0.3 18.2,0 42.5,1.9 z m -1239.99996,108.9 c 0,1.4 -3.4,5.7 -16.5,21.3 -2.5,2.9 -4.3,5.7 -4,6.2 0.8,1.3 -3.1,8.6 -5,9.4 -5.5,2.1 -7.2,-1.2 -3.4,-6.5 1.1,-1.6 2.3,-4.6 2.6,-6.6 0.6,-3.9 2.9,-7.2 12.3,-17.4 3.8,-4.2 6.6,-6.3 9,-6.9 5,-1.1 5,-1.1 5,0.5 z" />
  <path
     style="fill:#000000;stroke:none"
     inkscape:connector-curvature="0"
     id="path15538"
     d="m 1516.9721,1182.9863 c 0.7,0.7 0.6,2.8 -0.4,7 -4.8,20 -7.8,47.3 -8.6,77.9 -0.8,28.2 -0.1,45.6 2,53 1.8,6.1 8.4,14 13.7,16.5 5.9,2.8 9.1,1.6 13.3,-4.8 4.2,-6.4 4.5,-8.1 2.6,-17 -4.1,-19.3 -4.9,-27.5 -4.8,-49.5 0,-12 0.6,-27.9 1.3,-35.4 1.4,-17 0.5,-35.3 -2,-38.5 -1,-1.3 -2,-4.2 -2.3,-6.5 -14.8,-2.7 -3.2653,-0.3204 -14.8,-2.7 z"
     sodipodi:nodetypes="cccccscccccc" />
  <path
     style="fill:#000000;stroke:none"
     inkscape:connector-curvature="0"
     id="path15544"
     d="m 3348.9721,1409.0863 c -3.9,3.6 -6.9,13.5 -8,25.8 -0.6,7.6 -0.4,10.3 1.5,17.5 5.1,19.7 16,37.8 37.7,63 18.4,21.3 34.4,34.9 47,39.9 9,3.6 9.3,4.2 7.9,16.3 -1.3,12.1 -3.2,31.6 -3.6,37.3 -0.1,2.2 -0.5,7.1 -0.9,11 -0.3,3.8 -1.3,16.7 -2.2,28.5 -2.7,38.3 -8.1,78.8 -13.9,103.5 -8.6,37 -9.6,40.1 -20.7,63.5 -8.2,17.3 -22.6,33.8 -34.1,39.3 -5,2.3 -7.1,2.6 -21.9,3.3 -17.8,0.7 -24,2.3 -27.8,7.2 -2.7,3.4 -2.5,6.2 0.8,10.8 2.5,3.4 3.8,4.1 9.9,5.7 5.7,1.5 7.9,1.6 11.1,0.8 2.2,-0.6 4.7,-0.9 5.5,-0.5 0.9,0.3 7.5,0.1 14.7,-0.6 12.6,-1 13.6,-1.3 21.9,-5.4 27,-13.7 43.4,-33.1 55.1,-65.1 1.2,-3.3 2.7,-7.1 3.3,-8.5 1.7,-4.1 5.6,-19.3 5.7,-22.2 0,-1.5 0.4,-2.9 0.9,-3.2 0.5,-0.3 1.1,-2 1.5,-3.8 0.3,-1.8 1.2,-7.1 2,-11.8 0.8,-4.7 2.2,-11.4 3.1,-15 0.9,-3.6 2.1,-9.9 2.5,-14 0.5,-4.1 1.3,-10.7 1.9,-14.5 0.5,-3.9 1.7,-14.4 2.6,-23.5 0.8,-9.1 2.1,-19.2 2.6,-22.5 0.6,-3.3 1.3,-10.1 1.5,-15 0.3,-7.8 2.2,-30.8 5.5,-66 0.5,-5.5 1.1,-13.2 1.4,-17 0.3,-3.9 1.3,-10.7 2.1,-15.3 0.9,-4.5 1.4,-9.2 1.1,-10.3 -0.7,-2.6 1.4,-15.2 6.8,-41.9 4.1,-20.2 10.7,-41.7 18.6,-60.8 1.3,-3.2 1.1,-11.9 -0.2,-12.8 -0.6,-0.3 -1.7,-2.2 -2.5,-4 -1.7,-3.9 -4.8,-6.3 -9.7,-7.1 -5.7,-0.9 -10.7,4.5 -17.7,19.2 -6.4,13.3 -8.8,20.1 -11.4,32 -1,4.4 -2.3,10.5 -3.1,13.5 -1.5,6.2 -3.7,18.7 -6,33.3 -3,19.7 -6.6,21.2 -17.5,7.7 -3.6,-4.5 -9.8,-11.7 -13.7,-16.1 -4,-4.4 -7.3,-8.4 -7.3,-8.9 0,-0.5 -2.3,-3.5 -5.1,-6.7 -10.3,-11.7 -22.9,-32 -28.4,-45.7 -3.5,-8.6 -3.6,-9.2 -2.6,-15.1 2.4,-13.9 0.4,-22.5 -6.2,-26.5 -4.5,-2.8 -8.1,-2.5 -11.7,0.7 z" />
  <path
     style="fill:#000000;stroke:none"
     inkscape:connector-curvature="0"
     id="path15546"
     d="m 3304.0721,1408.9863 c -6.8,2.9 -30.1,25.4 -56,53.9 -8.5,9.4 -16.9,18.7 -18.8,20.7 -4.4,4.9 -7.3,5 -11,0.2 -1.5,-2 -5,-6.4 -7.8,-9.7 -10.2,-12.2 -12.9,-16.3 -18.1,-26.7 -1.9,-3.8 -2.1,-8 -0.9,-14.7 0.6,-3.6 0.3,-5 -2.6,-10.7 -2.7,-5.4 -4.1,-7 -8.1,-9.1 -4.3,-2.3 -5.1,-2.5 -7.5,-1.3 -3.8,1.8 -11.9,12.2 -13.8,17.6 -2.9,8.5 -1.3,20.1 4.5,32.9 4.2,9.3 10.6,17.7 25,32.7 15.9,16.6 16,16.7 5.4,27.8 -5.1,5.4 -19.3,22.8 -25.2,30.8 -8.8,12.2 -16.6,23.5 -21.2,31.1 -7.6,12.6 -10.9,17.7 -16.1,25.4 -7.8,11.6 -9.1,16.2 -6.6,23.5 1.5,4.2 5.9,6.1 11.9,5 5.3,-1 8.6,-3.6 12.5,-9.6 1.7,-2.7 4.3,-6.3 5.7,-8 1.4,-1.8 2.6,-3.5 2.6,-3.9 0,-0.4 1.5,-2.5 3.3,-4.8 1.8,-2.3 5.7,-8 8.6,-12.7 3,-4.7 8.4,-12.6 12.2,-17.5 15,-19.8 23.2,-30.3 27.9,-35.7 2.9,-3.2 5,-6.7 5,-8 0,-1.7 1.1,-2.8 3.9,-4.1 2,-0.9 4.4,-1.7 5.2,-1.7 0.8,0 5,3.6 9.4,8.1 4.4,4.4 13.4,12.8 20,18.7 23.8,20.9 33.9,31.8 44.8,48.4 5.2,7.8 6.2,8.9 10,9.9 3.6,1 4.7,0.9 7.7,-0.7 7.7,-4.2 10.7,-15 5.7,-21.1 -4.1,-5.1 -8.5,-12.3 -9.6,-15.9 -1.3,-4.5 -19.4,-23.2 -44.2,-45.7 -13.3,-12 -20.9,-20.3 -20.9,-22.7 0,-3.9 4.5,-9.3 14.9,-17.8 5.8,-4.8 12.9,-10.7 15.6,-13.2 2.8,-2.5 11.6,-10 19.5,-16.7 15.5,-13.2 25.7,-23.6 28.9,-29.9 1.8,-3.5 1.9,-4.7 1.1,-10.8 -1.2,-7.8 -3.1,-11.6 -7,-14 -3.5,-2 -11.3,-2 -15.9,0 z" />
  <path
     style="fill:#000000;stroke:none"
     inkscape:connector-curvature="0"
     id="path15548"
     d="m 2825.7721,1479.8863 c -5.6,1.8 -9.4,6 -10.3,11.4 -0.9,5.4 1.6,9.6 7.7,12.7 5.8,2.9 9.6,3 14.8,0.4 2.2,-1.1 6,-2.2 8.5,-2.5 6.8,-0.7 86.4,1.3 98.5,2.5 5.8,0.5 14.8,1.1 20,1.4 5.2,0.2 16.9,0.9 26,1.5 16.1,1 44,2.3 51,2.3 13.6,0.1 21.3,-5.7 14.6,-11 -1.9,-1.4 -4.9,-2.1 -12.3,-2.6 -6.3,-0.4 -12.4,-1.6 -17.2,-3.2 -4,-1.4 -7.9,-2.3 -8.7,-2 -1.7,0.7 -35.8,-1.2 -45.4,-2.5 -4.1,-0.5 -14.7,-1.6 -23.5,-2.4 -8.8,-0.8 -19.1,-1.9 -23,-2.4 -3.8,-0.6 -19.4,-1.5 -34.5,-2.1 -15.1,-0.6 -30.6,-1.3 -34.5,-1.6 -23.7,-1.4 -27.1,-1.4 -31.7,0.1 z" />
  <path
     style="fill:#000000;stroke:none"
     inkscape:connector-curvature="0"
     id="path15550"
     d="m 2555.4721,1485.9863 c -30.9,1.6 -35,2 -38.1,4 -6.3,4.2 -6.8,12.7 -0.9,18.9 3,3.3 3.7,3.5 9.4,3.5 3.4,0 7.8,-0.7 9.9,-1.6 3.3,-1.4 13.6,-2.8 28.7,-4 2.8,-0.2 16.9,-0.5 31.5,-0.7 26.6,-0.5 35.8,0.1 59.5,3.7 5.5,0.8 18.5,2 28.9,2.6 17.6,1 19.1,0.9 22.4,-0.8 4.8,-2.5 6.4,-6.8 3.3,-9.3 -1.2,-1 -3.7,-2 -5.4,-2.3 -11.4,-1.6 -18.7,-3 -21.8,-4.1 -2,-0.7 -7.6,-1.8 -12.5,-2.4 -15.2,-1.9 -21.6,-2.9 -30.9,-4.6 -21.3,-3.9 -47.9,-4.8 -84,-2.9 z" />
  <path
     style="fill:#000000;stroke:none"
     inkscape:connector-curvature="0"
     id="path15552"
     d="m 360.47214,1494.7863 c -3.3,0.7 -10.5,2.1 -16,3 -15.6,2.8 -18.1,3.9 -19.8,8.8 -0.8,2.2 3.4,7.3 7.6,9.5 3.8,1.9 18.7,1.4 41.7,-1.5 8.4,-1.1 18.7,-1.7 24.5,-1.5 5.5,0.2 15,0.5 21,0.7 6.1,0.2 12.4,0.6 14,0.9 1.7,0.4 8.9,0.9 16,1.3 7.2,0.3 13.4,0.8 13.8,1.1 0.4,0.3 4.2,0.1 8.3,-0.2 8.5,-0.8 13.4,-3.8 13.4,-8 0,-3.7 -4,-5.9 -15.1,-8.2 -14.5,-3.1 -24.6,-4.1 -53.4,-5.7 -32.4,-1.8 -48.6,-1.8 -56,-0.2 z" />
  <path
     style="fill:#000000;stroke:none"
     inkscape:connector-curvature="0"
     id="path15554"
     d="m 112.47214,1497.2863 c -1.1,0.5 -4.1,1 -6.7,1 -2.6,0.1 -7.8,0.8 -11.6,1.6 -3.8,0.7 -7.7,1.4 -8.8,1.3 -1,0 -6.8,0.4 -12.9,1 -6,0.6 -19.7,1.1 -30.3,1.1 -10.6,0.1 -20.5,0.4 -22,0.7 -4,1 -16,7.2 -18.2,9.4 -4.6,4.6 -0.6,12.2 6.3,12.2 4.7,0 11.8,-1.2 14,-2.4 1.1,-0.5 10.3,-1 20.5,-1 15.6,0 45.2,-2.1 47.2,-3.3 0.3,-0.2 6.4,-0.9 13.6,-1.5 7.1,-0.6 14.7,-1.6 16.8,-2.1 2.2,-0.6 17.1,-1.1 34.6,-1 26.9,0 31.2,-0.3 34.1,-1.7 4.7,-2.4 5.6,-4.4 3.6,-7.5 -1.9,-2.9 -5.3,-4.1 -17.7,-6.3 -10.1,-1.7 -59.4,-2.9 -62.5,-1.5 z" />
  <path
     style="fill:#000000;stroke:none"
     inkscape:connector-curvature="0"
     id="path15556"
     d="m 714.97214,1503.2863 c -19,0.7 -21.6,1.2 -26,5.3 -8.8,8 -10.3,13.7 -4.9,18.2 3.8,3.2 5.8,3.2 16.7,0.1 13.6,-3.8 28.4,-4.5 80.2,-3.8 86.1,1.3 105.1,0.8 113.3,-3.4 6.1,-3.1 0.6,-8.3 -9,-8.3 -2.6,-0.1 -6.8,-0.5 -9.3,-1 -10.4,-2.3 -23.6,-3.9 -40,-5.1 -9.6,-0.6 -20.2,-1.4 -23.5,-1.6 -10.5,-0.8 -78.3,-1 -97.5,-0.4 z" />
  <path
     style="fill:#000000;stroke:none"
     inkscape:connector-curvature="0"
     id="path15558"
     d="m 1472.6721,1709.4863 c -24.1,1.9 -31.1,6.7 -30.5,20.8 0.3,6.2 0.5,6.6 3.6,8.4 5.4,3.2 13.7,3.4 20.7,0.4 8.9,-3.7 12.2,-4.6 21,-5.8 9.6,-1.3 9.3,-1.3 17.5,-0.5 16,1.8 26,5.1 32.4,10.6 4.5,4 6.6,7.8 6.6,12.1 0,4.1 -6.9,18.8 -12.2,25.8 -4.8,6.4 -16.5,18.8 -19,20.2 -0.9,0.5 -7.5,1.6 -14.5,2.4 -13.3,1.5 -25.3,4.2 -29,6.5 -2.9,1.9 -4.3,5.2 -4.3,10.6 0,4.7 0.3,5.1 6.9,10.2 4.1,3.2 2.3,6.5 -10.2,18.2 -17.7,16.6 -28.6,28.4 -36.6,39.4 -7.2,10 -7.3,10.1 -6.7,15.1 0.3,2.7 0.6,6 0.6,7.1 0,1.2 2,4.4 4.5,7.2 3.8,4.2 5.7,5.4 12.3,7.6 13.4,4.4 39.9,6.1 57.7,3.7 8,-1.1 18.3,-2.9 44,-7.6 4.4,-0.8 11.2,-1.9 15,-2.5 3.9,-0.6 9,-1.5 11.5,-2 2.5,-0.5 7.4,-1.3 11,-1.9 19.7,-3.1 26.8,-4.4 29.1,-5.2 2.8,-1.1 6.9,-8.4 6.9,-12.2 0,-3.2 -2.5,-6.3 -7.3,-9.1 -6,-3.4 -9.2,-3.9 -15,-2.2 -2.9,0.8 -10.8,1.7 -17.7,2.1 -6.9,0.4 -17.7,1.5 -24,2.5 -6.3,1 -13.3,2.1 -15.5,2.4 -5.3,0.7 -8.5,1.2 -24,3.7 -7.1,1.1 -16.2,2.4 -20.2,2.9 -4,0.5 -7.6,1.1 -8,1.3 -0.4,0.3 -5.7,0.8 -11.6,1.2 -11.8,0.8 -13.7,0.2 -13.7,-4.3 0,-2.8 3,-7.1 10.4,-15.1 6.5,-6.8 24.8,-24.6 34.7,-33.7 4.2,-3.8 11.5,-10.4 16.2,-14.7 10,-9 14.4,-11.2 24.7,-12.1 11.6,-1 15,-4.7 11.5,-12.6 -2.3,-5 -1.6,-7.5 3.9,-14.3 14,-17.1 19.5,-39.1 13.1,-51.8 -4.5,-8.7 -18.8,-20.9 -30.1,-25.6 -5.9,-2.5 -19.7,-6.8 -24.4,-7.6 -7.6,-1.4 -10.5,-1.7 -20.5,-2 -6,-0.2 -15.4,0 -20.8,0.4 z" />
  <path
     style="fill:#000000;stroke:none"
     inkscape:connector-curvature="0"
     id="path15560"
     d="m 1778.4721,1924.3863 c -1.6,0.4 -5.2,0.8 -8,0.9 -2.7,0 -8.8,1 -13.5,2 -4.7,1.1 -12.1,2.7 -16.5,3.6 -4.4,0.9 -9.2,2 -10.7,2.5 -1.5,0.5 -9.8,1.4 -18.5,2 -8.7,0.6 -18.7,1.5 -22.3,1.9 -3.6,0.5 -8.3,0.7 -10.5,0.5 -2.2,-0.2 -8,-0.1 -13,0.2 -8.7,0.6 -9.1,0.8 -12.6,4.3 -4.6,4.5 -6.3,10.3 -5.3,17.7 1,8.2 4.5,11.1 16.9,14.5 9.3,2.5 33.4,0.4 41.5,-3.6 1.4,-0.7 6.1,-2 10.5,-2.9 4.4,-1 9.6,-2.1 11.5,-2.6 1.9,-0.5 8.9,-2.1 15.5,-3.5 6.6,-1.4 14,-3.2 16.5,-4 11,-3.3 19,-5.4 25.5,-6.5 8.6,-1.6 12.1,-3.2 13.9,-6.8 3.9,-7.7 2.3,-12.5 -6,-18 -4.9,-3.3 -8.5,-3.8 -14.9,-2.2 z" />
  <path
     sodipodi:nodetypes="cccccscccccc"
     d="m 1519.2098,926.90345 c 0.7,0.7 0.6,2.8 -0.4,7 -4.8,20 -7.8,47.3 -8.6,77.90005 -0.8,28.2 -0.1,45.6 2,53 1.8,6.1 8.4,14 13.7,16.5 5.9,2.8 9.1,1.6 13.3,-4.8 4.2,-6.4 4.5,-8.1 2.6,-17 -4.1,-19.3 -4.9,-27.5 -4.8,-49.5 0,-12.00005 0.6,-27.90005 1.3,-35.40005 1.4,-17 0.5,-35.3 -2,-38.5 -1,-1.3 -2,-4.2 -2.3,-6.5 -14.8,-2.7 -3.2653,-0.3204 -14.8,-2.7 z"
     id="path11228"
     inkscape:connector-curvature="0"
     style="fill:#000000;stroke:none" />
  <path
     sodipodi:nodetypes="cccccscccccc"
     d="m 1516.9721,556.43098 c 0.7,0.7 0.6,2.8 -0.4,7 -4.8,20 -7.8,47.3 -8.6,77.9 -0.8,28.2 -0.1,45.6 2,53 1.8,6.1 8.4,14 13.7,16.5 5.9,2.8 9.1,1.6 13.3,-4.8 4.2,-6.4 4.5,-8.1 2.6,-17 -4.1,-19.3 -4.9,-27.5 -4.8,-49.5 0,-12 0.6,-27.9 1.3,-35.4 1.4,-17 0.5,-35.3 -2,-38.5 -1,-1.3 -2,-4.2 -2.3,-6.5 -14.8,-2.7 -3.2653,-0.3204 -14.8,-2.7 z"
     id="path11230"
     inkscape:connector-curvature="0"
     style="fill:#000000;stroke:none" />
</svg>
