<?xml version="1.0" encoding="UTF-8" standalone="no"?>
<svg
   xmlns:dc="http://purl.org/dc/elements/1.1/"
   xmlns:cc="http://creativecommons.org/ns#"
   xmlns:rdf="http://www.w3.org/1999/02/22-rdf-syntax-ns#"
   xmlns:svg="http://www.w3.org/2000/svg"
   xmlns="http://www.w3.org/2000/svg"
   xmlns:sodipodi="http://sodipodi.sourceforge.net/DTD/sodipodi-0.dtd"
   xmlns:inkscape="http://www.inkscape.org/namespaces/inkscape"
   version="1.0"
   width="3776.8335pt"
   height="1324.1101pt"
   viewBox="0 0 3776.8334 1324.11"
   preserveAspectRatio="xMidYMid meet"
   id="svg13467"
   inkscape:version="0.91 r13725"
   sodipodi:docname="plugs-xy-center-odd.svg"
   inkscape:export-filename="/home/churchyard/RepRap/BI-3DT/powerplugs-task/pics/plugs-xy-center-odd.svg.png"
   inkscape:export-xdpi="19.521114"
   inkscape:export-ydpi="19.521114">
  <defs
     id="defs13757" />
  <sodipodi:namedview
     pagecolor="#ffffff"
     bordercolor="#666666"
     borderopacity="1"
     objecttolerance="10"
     gridtolerance="10"
     guidetolerance="10"
     inkscape:pageopacity="0"
     inkscape:pageshadow="2"
     inkscape:window-width="1848"
     inkscape:window-height="1056"
     id="namedview13755"
     showgrid="false"
     fit-margin-top="0"
     fit-margin-left="0"
     fit-margin-right="0"
     fit-margin-bottom="0"
     inkscape:zoom="0.16958813"
     inkscape:cx="3023.9018"
     inkscape:cy="17.459725"
     inkscape:window-x="72"
     inkscape:window-y="0"
     inkscape:window-maximized="1"
     inkscape:current-layer="svg13467" />
  <metadata
     id="metadata13469">
Created by potrace 1.13, written by Peter Selinger 2001-2015
<rdf:RDF>
  <cc:Work
     rdf:about="">
    <dc:format>image/svg+xml</dc:format>
    <dc:type
       rdf:resource="http://purl.org/dc/dcmitype/StillImage" />
    <dc:title></dc:title>
  </cc:Work>
</rdf:RDF>
</metadata>
  <g
     id="g15288">
    <path
       sodipodi:nodetypes="ccccc"
       inkscape:connector-curvature="0"
       id="rect12912"
       d="M 176.93333,79.773013 C 1254.2125,54.797173 2333.4369,13.991204 3402.1098,59.052885 3646.7315,329.03098 3914.4283,689.74553 3493.1975,1233.1932 2343.0616,1160.087 554.75607,1317.8367 126.32915,1236.6465 154.44263,852.17314 37.567733,514.86043 176.93333,79.773013 Z"
       style="opacity:1;fill:#999999;fill-opacity:1;stroke:none;stroke-width:1.75393701;stroke-linecap:round;stroke-linejoin:round;stroke-miterlimit:4;stroke-dasharray:none;stroke-opacity:1" />
    <g
       transform="translate(-58.000195,-426.1103)"
       id="g14440">
      <path
         style="fill:#000000;stroke:none"
         inkscape:connector-curvature="0"
         id="path13493"
         d="m 1963,428.9 c -4.2,1.6 -11.7,3.4 -17,4 -19.3,2.4 -20.9,2.8 -24.8,6.2 l -3.6,3.2 -16,-0.7 c -56.1,-2.2 -237.9,-2.5 -379.1,-0.7 -45.6,0.5 -114,1.3 -152,1.6 -37.9,0.3 -74.6,0.8 -81.5,1 -6.9,0.2 -25.8,0.7 -42,1 -39.4,0.7 -69.4,1.6 -70.1,2.1 -0.9,0.5 -59.9,2.2 -99.9,2.9 -36.3,0.6 -95.2,2.2 -112,3 -5.8,0.3 -19.5,1 -30.5,1.6 -11,0.6 -25.2,1.2 -31.5,1.5 -6.3,0.3 -15.1,0.9 -19.5,1.5 -4.4,0.5 -19.9,1.4 -34.5,1.9 -14.6,0.5 -27.8,1.2 -29.5,1.5 -1.6,0.2 -12.4,0.7 -24,1 -21.5,0.5 -63.9,2.2 -80,3.1 -4.9,0.3 -17.1,0.9 -27,1.4 -25.3,1.3 -52.7,2.9 -61.5,3.6 -10.1,0.7 -14.1,1 -37.5,2.2 -21.8,1.2 -45.2,3.2 -67,5.8 -22.3,2.5 -26.2,3.1 -40,5.3 -24,3.8 -45.7,5.1 -79.5,4.9 -35.4,-0.3 -37.6,-0.3 -102,0.1 -43.3,0.3 -46.9,0.4 -53,2.3 -9,2.8 -14.4,5.7 -22.5,12.2 -13.1,10.4 -17.3,14.6 -20.6,20.4 -3.4,6 -12.6,15.2 -22.8,22.7 -5.2,3.8 -6.5,5.5 -9.6,12.2 -2,4.3 -4.3,10.2 -5.1,13.1 -0.8,2.9 -2.4,7.4 -3.7,10 -1.3,2.6 -2.4,6.2 -2.5,8 -0.2,1.9 -0.9,4.7 -1.7,6.2 -0.8,1.6 -1.5,5.4 -1.5,8.4 0,3.1 -0.8,7.7 -1.9,10.4 -1.1,2.6 -2.2,7 -2.6,9.8 -0.4,2.7 -1.4,6.2 -2.2,7.7 -0.9,1.9 -1.2,4.2 -0.8,6.6 0.3,2.1 0.1,5.9 -0.6,8.6 -1.1,4.3 -1,4.9 0.6,6.1 2.4,1.8 11.9,1.6 16.6,-0.3 4.7,-1.8 12.3,-1.4 12.7,0.7 0.1,0.9 -1,2 -2.9,2.7 -4,1.5 -3.4,3.2 2.1,6.2 l 4.3,2.4 -3.6,3.1 c -2.6,2.2 -3.7,3.9 -3.7,5.8 0,2.2 -0.8,3.2 -4,4.8 -4.7,2.4 -10.8,2.7 -11.6,0.5 -0.3,-0.8 0.4,-2.7 1.6,-4.2 1.8,-2.3 1.9,-2.9 0.7,-3.8 -2.2,-1.6 -3.2,-5.5 -1.3,-5.5 1.5,0 3.2,-1.8 2.3,-2.6 -0.2,-0.3 -1.5,-0.7 -2.8,-0.9 -1.3,-0.3 -3.4,-1 -4.6,-1.6 -1.9,-1 -2.6,-0.9 -4.2,0.5 -1.1,1 -2.3,3.2 -2.7,4.9 -0.3,1.7 -1.6,4.7 -2.7,6.6 -2.3,4 -2.7,8.2 -2.7,31.6 0,26.1 -0.1,27.9 -1.2,29.2 -0.6,0.8 -0.9,3.6 -0.5,7.1 0.2,3.1 0.1,8.4 -0.4,11.7 -1,6.6 -1.2,31.3 -0.2,32.9 0.4,0.5 0.8,6.4 1,13 0.8,25.2 1.1,29.3 2.2,34.6 0.8,4 0.9,6.9 0.1,10.7 -0.6,2.9 -1.3,10.6 -1.6,17 -0.2,6.5 -0.6,15.4 -1,19.8 -0.3,4.4 -0.5,9 -0.5,10.2 0.4,9.3 -0.4,18.7 -1.6,20.8 -0.7,1.3 -0.8,2.7 -0.3,3.6 0.8,1.3 1.1,9.6 1,25.2 0,1.5 -0.5,3.8 -1.2,5 -0.7,1.2 -1.3,6.1 -1.5,10.8 -0.1,4.8 -0.7,9.8 -1.2,11.2 -0.6,1.4 -0.6,4.9 -0.1,8.3 0.4,3.6 0.4,6.6 -0.2,7.8 -0.6,1 -0.9,7.4 -0.9,14.1 0.1,10.8 -0.1,12.7 -1.9,15.9 -1.2,1.9 -1.9,4 -1.5,4.6 0.4,0.6 -0.1,2.3 -1.1,3.8 -2,2.9 -4.4,8.9 -4.4,11 0,0.7 1.6,2.2 3.6,3.4 l 3.6,2.1 -0.8,14.1 c -0.4,7.8 -0.8,18 -0.8,22.7 -0.1,5.4 -0.6,9.2 -1.4,10.1 -0.7,0.9 -1.2,3.1 -1.2,4.9 0.2,3.6 -1.6,15.5 -3,20.4 -0.9,3.2 -2.5,22.9 -2.3,28 0.1,1.6 -0.3,4.2 -0.8,5.7 -0.8,1.8 -0.7,3.2 0.1,4.7 0.9,1.8 2,2.1 6.8,2 9.8,-0.1 17.4,-4.4 19.2,-10.8 1.4,-5 2.2,-6 5,-6.3 2.2,-0.3 2.5,0 2.2,2.8 -0.3,2.8 0,3.1 2.9,3.1 1.9,0 3.5,0.6 4.1,1.6 1.5,2.7 5.5,2.1 8,-1.3 1.2,-1.7 2.3,-3.6 2.4,-4.3 0.1,-0.6 0.5,-4.8 0.9,-9.2 0.4,-4.4 1.1,-8.8 1.7,-9.8 0.5,-1 1.2,-6.9 1.5,-13 1.2,-28.3 1.9,-41.9 2.8,-54.2 2.3,-30.5 2.7,-38.8 2.6,-52.3 -0.1,-5.7 0.1,-10.7 0.4,-11.2 0.3,-0.4 0.7,-9.5 1,-20.2 0.6,-23.5 1.2,-39.3 2.4,-60.3 0.6,-8.8 1.5,-25.2 2.2,-36.5 0.7,-11.3 1.2,-36.3 1.2,-55.5 0,-76.3 -0.5,-120.8 -1.3,-122.9 -0.4,-1.3 -0.3,-3.1 0.5,-4.6 0.7,-1.4 1.8,-6.6 2.5,-11.5 0.7,-5 2,-10.4 2.8,-12 0.9,-1.7 1.9,-4.8 2.3,-7 1.8,-9.6 4.2,-17.4 7.3,-23.5 1.8,-3.6 3.9,-9.6 4.6,-13.5 0.6,-3.9 2.1,-9.4 3.2,-12.3 1.8,-4.6 1.9,-5.8 0.8,-10.2 -1.1,-4.5 -1,-5.5 0.8,-9.4 2.3,-4.8 14.5,-16.6 23.2,-22.4 13.4,-8.9 24.5,-11.4 47,-10.6 10.1,0.4 22.2,0.2 31,-0.6 8.2,-0.7 36.8,-1.4 65.5,-1.5 28.1,-0.2 54.2,-0.6 58,-1 17.6,-1.5 39.6,-4.2 65.5,-8 10.8,-1.6 33.7,-3.9 55,-5.5 8,-0.6 20.4,-1.5 27.5,-2.1 7.2,-0.5 20.2,-1.4 29,-1.9 8.8,-0.5 23.4,-1.4 32.5,-1.9 75.9,-4.8 90.2,-5.6 131.5,-7.1 35.3,-1.2 81.2,-3.6 115,-6 13.8,-1 20.4,-1.3 58.5,-3 28.7,-1.3 79.8,-2.8 118.5,-3.4 39.1,-0.7 59.6,-1.2 99.5,-2.6 15.7,-0.6 41.1,-1.4 56.5,-2 36.7,-1.3 124.3,-2.6 240,-3.6 37.4,-0.3 73.4,-0.8 80,-1 6.6,-0.2 21.2,-0.6 32.5,-0.9 30.6,-0.7 252.7,-0.7 274,0.1 10.2,0.3 28.5,0.7 40.7,0.8 19.8,0.1 22.4,0.3 24,1.9 1.5,1.5 1.8,4.3 2,24.5 0.2,20.1 0.8,32.4 2.8,63 0.3,4.5 1,9.4 1.5,10.8 0.6,1.4 1,4.2 1,6.2 0,5.5 4.1,25.9 5.6,28 1.6,2.1 3.5,1.1 7.7,-4.1 2.4,-2.9 3.1,-5.1 3.9,-11.4 0.5,-4.3 0.9,-8.9 0.9,-10.3 -0.1,-8.7 0.1,-11.6 1.1,-12.7 0.7,-0.9 0.7,-1.7 0,-2.6 -0.6,-0.7 -1.1,-4 -1.1,-7.3 0,-3.2 0,-9.5 -0.1,-13.8 0,-4.4 0.4,-8.4 0.9,-8.9 0.5,-0.5 2.3,-0.6 4,-0.2 2.7,0.6 3.1,1 2.5,2.8 -0.3,1.2 -1,2.6 -1.5,3.1 -0.4,0.5 0.4,2.5 1.9,4.4 2.4,3.1 2.7,4.4 2.5,9.8 -0.1,3.5 0.2,6.6 0.7,6.9 0.6,0.3 1,2.3 1,4.3 0,2.8 1,5 4.1,9 2.2,3 3.9,6.1 3.8,7 -0.3,3.4 0.2,4.1 3.4,5.1 2.3,0.8 3.9,2.4 5.6,5.5 2.7,5.2 5.5,8.1 7,7.1 1.5,-0.9 1.4,-6.9 -0.8,-32.5 -1.1,-12.4 -2.5,-31.1 -3.1,-41.5 -0.7,-10.5 -1.8,-25.8 -2.5,-34 -1.2,-13.4 -1.2,-15.2 0.2,-16.7 1.5,-1.7 5.1,-1.8 50.7,-1.6 27,0.1 60.1,-0.1 73.6,-0.5 13.5,-0.4 33.2,-0.9 43.9,-1.2 10.6,-0.3 19.6,-0.7 20,-0.9 0.3,-0.2 51,-0.7 112.6,-1 154.4,-0.8 180.9,-1.2 283,-3.7 87.1,-2.2 223.3,-1.7 300.5,1.1 14,0.5 35.9,1.1 48.5,1.5 79.6,1.9 148.6,4.3 192.5,6.6 10.7,0.5 30.8,1.4 44.5,1.9 13.8,0.6 29.1,1.2 34,1.5 38.3,2 107.7,4.4 146.5,5.1 37.5,0.6 42.1,1.3 45.8,6.3 2.9,4 6.6,5.8 17.6,8.8 5,1.3 12.3,3.2 16.1,4.3 35.5,9.4 40.9,11.2 52.3,16.9 14,7 40.8,24.3 54.2,34.9 11.6,9.2 41.4,39 53.3,53.3 4.7,5.7 12,15.4 16,21.4 26.5,39.6 43,64.9 44.2,67.8 2,4.9 19.1,39.2 27.5,55.2 4,7.7 10.8,20.7 15,29 4.2,8.2 11.2,21.6 15.4,29.7 7,13.5 15.9,35.7 20,50.3 1,3.3 3,10.3 4.6,15.5 7.7,25.1 13.4,45.6 15.9,58 1.1,5.2 3.4,16 5,24 1.7,8 4,19.2 5.1,25 1.2,5.8 2.7,13.6 3.5,17.5 1.7,8.1 6.3,32.5 7.6,40.4 1.4,9 0.1,9.4 -17.9,6.1 -13.4,-2.4 -40,-5.8 -60.2,-7.6 -8.5,-0.7 -19.8,-1.8 -25,-2.4 -5.2,-0.5 -16.7,-1.7 -25.5,-2.5 -8.8,-0.8 -23.2,-2.2 -32,-3 -8.8,-0.8 -22.1,-2 -29.5,-2.5 -7.4,-0.6 -21.4,-1.7 -31,-2.6 -23,-1.9 -41.2,-3.2 -65,-4.4 -10.7,-0.6 -20.2,-1.3 -21,-1.6 -0.8,-0.4 -53,-1 -116,-1.5 -63,-0.5 -125.1,-1.3 -138,-1.8 -41.5,-1.8 -68,-3 -89,-4 -39.7,-2 -68.9,-3.1 -109.5,-4.1 -94.6,-2.3 -200.6,-5.2 -244,-6.5 -15.7,-0.5 -71.7,-3 -148,-6.5 -12.6,-0.6 -26.1,-1.7 -30,-2.5 -9.1,-1.8 -62,-3 -69,-1.5 -2.9,0.5 -27.1,1.2 -56.5,1.5 -72,0.6 -85.8,1.2 -86.9,3.3 -0.6,1.2 -0.2,4.6 1.3,10.2 1.3,4.7 2.6,12.7 3,17.8 0.8,11.2 2.3,19.2 3.7,20.7 0.5,0.5 8.1,1.3 16.7,1.6 8.6,0.4 20.7,1.4 26.7,2.3 27.9,4.1 70.3,2.8 96.3,-2.8 17.5,-3.9 51,-5.6 73.2,-3.7 7.4,0.6 21.4,1.3 31,1.6 9.6,0.3 19.6,0.8 22.2,1 4.4,0.5 41.6,2.4 59.3,3 4.4,0.2 12.3,0.6 17.5,0.9 33.5,1.9 92.9,3.9 155.5,5.1 6.6,0.1 19.7,0.5 29,0.9 9.4,0.3 31,0.8 48,1.1 17.1,0.3 47.4,1.1 67.5,1.7 20.1,0.6 39.7,1.2 43.5,1.3 8.9,0.2 37.4,1.4 52.5,2.1 6.3,0.3 16.5,0.7 22.5,1 6.1,0.2 18.7,0.8 28,1.4 9.4,0.5 27.4,1.3 40,1.6 12.7,0.3 28.9,0.8 36,0.9 7.2,0.2 46.5,0.6 87.5,0.9 70.5,0.5 104.7,1.1 124,2.1 4.7,0.3 19.1,0.9 32,1.5 25,1.1 49.9,2.8 51,3.5 0.3,0.2 6.5,0.7 13.6,1 35,1.7 62.6,3.9 64.5,5.1 0.8,0.5 4.3,0.9 7.9,1 3.6,0 14.4,0.8 24,1.7 24.6,2.3 38.6,2.3 42.7,-0.2 2.5,-1.6 5.7,-2.1 16,-2.5 7,-0.3 15.3,-1 18.3,-1.5 3,-0.5 6.3,-1 7.3,-1 2.4,-0.1 2.1,-2.9 -0.5,-5.1 -1.7,-1.3 -2.5,-1.5 -3,-0.7 -0.5,0.8 -0.8,0.6 -0.8,-0.6 0,-1.8 1.3,-2.1 6.7,-1.8 1.7,0.1 5.2,-0.5 7.6,-1.3 3.8,-1.3 5.5,-1.3 10.1,-0.4 6.7,1.5 10.9,0.3 11.4,-3 0.3,-1.6 -0.5,-2.7 -2.7,-4 -4.9,-2.7 -3.6,-5.2 2.8,-5.2 1.5,0 4.3,-0.8 6.3,-1.8 2.7,-1.4 5.2,-1.8 10.9,-1.5 4.1,0.2 8.9,0.9 10.6,1.4 5.9,1.9 8.2,7.9 4.3,11.4 -3.2,2.9 -2.5,5.9 2,8.9 4.4,2.9 4.5,4.7 0.2,4.5 -4,-0.2 -15.2,1.3 -15.2,2 0,0.3 2,2.8 4.4,5.5 3.8,4.4 4.6,4.8 7.4,4.3 3.4,-0.7 5.2,0.7 3.3,2.6 -2.7,2.7 0.7,7.9 6,9.2 4.2,1 5.9,-1.4 4.7,-6.7 -0.5,-2.4 -1.3,-6.6 -1.7,-9.5 -0.4,-2.9 -1.5,-6.1 -2.5,-7.2 -1.7,-1.9 -1.7,-2 1.2,-3.5 3.9,-2 6.2,-5.3 6.2,-8.8 0,-1.7 1.9,-5 5.5,-9.5 8,-9.9 8.2,-10.9 5,-29.3 -1.5,-8.5 -3.1,-17.7 -3.6,-20.4 -0.4,-2.6 -1.3,-6.2 -1.8,-8 -0.6,-1.7 -1.3,-6 -1.7,-9.6 -0.3,-3.6 -2.1,-12.8 -3.9,-20.5 -3.1,-13.1 -4.9,-22 -5.9,-29 -0.2,-1.7 -1.1,-5.5 -1.9,-8.5 -0.8,-3 -2.5,-10.6 -3.7,-16.9 -1.2,-6.3 -2.7,-12.6 -3.4,-14 -0.8,-1.4 -1.7,-4.6 -2.1,-7.1 -0.3,-2.5 -1.2,-6.3 -2,-8.5 -0.7,-2.2 -2.3,-7.4 -3.5,-11.5 -1.2,-4.1 -3.1,-10.2 -4.2,-13.5 -2.6,-8.1 -5.6,-17.9 -7.3,-24 -2.5,-9 -13.2,-36.2 -17.4,-44.2 -1.1,-2.1 -3.4,-6.7 -5.2,-10.3 -6,-12.3 -17.2,-33.5 -18.9,-36 -1,-1.4 -3.7,-6.3 -6,-11 -2.3,-4.7 -5.6,-11.2 -7.4,-14.5 -1.8,-3.3 -8.9,-17 -15.8,-30.5 -6.9,-13.5 -14.3,-27.4 -16.5,-31 -9.3,-15.7 -14.1,-23.1 -21.5,-33.1 -2.5,-3.5 -6.3,-9.1 -8.5,-12.5 -2.1,-3.4 -7.8,-12 -12.8,-19.3 -4.9,-7.2 -9.9,-14.7 -11,-16.5 -5.2,-8.6 -35.5,-42.5 -52.8,-59.3 -20.8,-20.1 -58.6,-46.3 -76.2,-52.9 -3.3,-1.2 -9.6,-3.6 -14,-5.4 -4.4,-1.8 -13.2,-4.5 -19.5,-6.1 -6.3,-1.6 -12.5,-3.4 -13.8,-4.1 -1.2,-0.6 -4.8,-4.5 -7.9,-8.5 -3,-4 -6.3,-7.5 -7.2,-7.7 -0.9,-0.3 -4.1,-0.6 -7.2,-0.7 -4.4,-0.2 -6.2,0.3 -8.7,2.1 -3.1,2.3 -12.1,4.4 -14.8,3.3 -0.7,-0.3 -1.4,-1.1 -1.4,-1.7 0,-0.7 -1.1,-2.3 -2.5,-3.6 -1.4,-1.3 -2.5,-2 -2.5,-1.6 0,0.4 -1,0.1 -2.2,-0.6 -1.3,-0.7 -4.1,-1.1 -6.3,-1 -2.2,0.1 -6,-0.2 -8.5,-0.7 -7.8,-1.7 -23.6,-2.5 -71.5,-3.5 -15.4,-0.4 -35.4,-1.2 -44.5,-1.7 -9.1,-0.6 -22.3,-1.3 -29.5,-1.5 -21.7,-0.8 -34.6,-1.3 -43.5,-1.9 -15.2,-1 -75.1,-3.7 -91,-4.1 -8.5,-0.2 -16.1,-0.6 -16.7,-0.9 -0.7,-0.2 -12.2,-0.7 -25.5,-1 -13.4,-0.3 -36,-1 -50.3,-1.5 -14.3,-0.4 -26.9,-0.8 -28,-0.8 -1.1,0 -4.7,-0.2 -8,-0.6 -3.3,-0.3 -15.7,-0.8 -27.5,-1.1 -34.9,-0.8 -60.4,-1.6 -61.1,-2 -0.3,-0.2 -13.1,-0.7 -28.4,-1 -15.3,-0.3 -28.1,-0.8 -28.5,-1 -1.1,-0.7 -73.8,-1.6 -123.6,-1.6 -47.4,0 -82.8,0.3 -169.9,1.8 -24.7,0.5 -55.9,0.8 -69.3,0.8 -21.8,0 -24.2,0.2 -24.2,1.7 0,1.6 4.6,3.8 8.2,3.8 2.8,0 8,2.9 7.6,4.2 -0.3,0.7 -2.8,2.4 -5.6,4 l -5.2,2.8 -8.2,-1.5 c -9.8,-1.7 -15.2,-1.9 -17.9,-0.5 -1.3,0.8 -4.4,0.6 -10.6,-0.4 -4.9,-0.8 -13.5,-1.8 -19.3,-2.1 -5.8,-0.4 -13.9,-1.3 -18,-2.1 -14,-2.5 -19.5,-3.6 -23.4,-4.7 -3.3,-1 -4,-0.9 -5.2,0.7 -0.7,1.1 -1.1,2.2 -0.9,2.6 0.6,1 -9.4,7.4 -20,13 l -8,4.1 -11.5,-0.6 c -8.1,-0.4 -13.4,-0.2 -18,0.7 -8.2,1.8 -14.3,0.7 -18.3,-3.2 -3.5,-3.4 -2.3,-4.5 3.2,-3 4.4,1.2 8.5,0 14.1,-4 1.5,-1.1 3.7,-2 4.7,-2 1,0 2.7,-0.6 3.8,-1.4 2.4,-1.7 12.3,-2.3 18.8,-1.2 3.2,0.6 5.7,0.5 7.4,-0.3 4,-1.8 1.2,-3.8 -6.3,-4.6 -3.5,-0.4 -6.7,-1.2 -7,-1.7 -0.3,-0.5 -2.3,-0.6 -4.5,-0.3 -2.1,0.4 -7.9,0.1 -12.8,-0.5 -6.8,-0.9 -10.4,-0.9 -14.5,0 -4.5,0.9 -6.4,0.8 -11.1,-0.5 -7.3,-2.2 -14.4,-1.4 -23.2,2.6 -3.6,1.6 -7.8,2.9 -9.4,2.9 -3.6,0 -8.4,-2.3 -9.2,-4.5 -1,-2.3 -4.4,-1.8 -12.1,1.9 -7.8,3.8 -18.6,8.1 -22.8,9.1 -3.3,0.8 -3.8,3.5 -0.7,3.5 3,0 15.7,-5 21.9,-8.5 3.4,-2 9,-2 9,0 0,1.7 -13.1,8.6 -20.9,10.9 -3,0.9 -8.2,1.6 -11.6,1.6 -5.5,0 -6.9,-0.4 -12.3,-4 -3.4,-2.1 -7.5,-4.6 -9.2,-5.5 -4.9,-2.5 -3.2,-3.9 5.6,-4.6 8.2,-0.6 16,-3.1 14.9,-4.9 -0.4,-0.6 -5.9,-1 -13.8,-1 l -13.2,0 -9.5,4.1 c -8.6,3.7 -11.9,5.2 -20.3,9.6 -2.2,1.2 -4.4,1.3 -11.8,0.5 -9.8,-1.1 -14.6,-3.4 -14.2,-6.8 0.7,-4.9 2.1,-4.7 -55.4,-4.9 -41.3,0 -54.3,-0.4 -56.1,-1.3 -2.1,-1.2 -2.2,-1.7 -1.6,-7.8 1,-9.5 -0.3,-10.1 -12.6,-5.5 z m -12.9,25.7 c 2.9,2.7 5.5,3.2 11.4,1.9 2.6,-0.5 3.5,-0.1 6.4,2.9 1.9,2 4.1,3.6 4.8,3.6 0.7,0 1.3,0.8 1.3,1.9 0,2.7 6.1,3.1 56.1,3.2 40.4,0.1 49.7,0.6 44,2.4 -2.5,0.7 -2.8,4 -0.5,4.9 0.9,0.3 5.5,0.6 10.2,0.7 4.8,0 9.6,0.4 10.7,0.9 1.9,0.7 1.8,0.8 -0.5,1.3 -2.3,0.5 -23.9,2.2 -32,2.6 -1.9,0 -4.8,-0.4 -6.3,-1 -2.1,-0.9 -3.4,-0.9 -5.3,0 -1.7,0.7 -13.5,1.3 -34.2,1.7 -17.4,0.3 -32.4,1 -33.4,1.5 -2,1.1 -2.4,3.9 -0.7,5.6 0.9,0.9 0.7,2 -0.7,4.4 -2.7,4.6 -4.7,5.6 -7.8,4 -3.6,-2 -4.9,-1 -8.6,6.6 -1.9,3.7 -4.9,8.5 -6.7,10.6 -1.8,2 -3.3,4.7 -3.3,6 0,1.2 -1.1,3.9 -2.5,5.9 -2.6,3.9 -3.1,5.8 -1.6,5.8 1.4,0 0.7,9.6 -0.9,11.4 -1,1.3 -1,1.6 0.3,1.6 0.8,0 1.7,0.8 1.9,1.7 0.7,2.7 -0.6,6.8 -2.2,6.8 -0.7,0 -1.5,0.6 -1.7,1.2 -0.3,0.8 0.4,1.3 1.5,1.3 1.1,0 2.3,-0.6 2.5,-1.3 0.3,-0.7 0.6,-0.4 0.6,0.6 0.2,3.9 -5.2,6.5 -8.4,4.1 -1.7,-1.2 -2,-2.7 -2,-8.3 0,-4.3 -0.5,-7.4 -1.4,-8.5 -1.1,-1.3 -1.3,-3.6 -0.8,-10 0.4,-6.2 0.2,-9 -0.9,-11.1 -0.8,-1.5 -1.4,-3.8 -1.4,-5.2 0,-1.3 -0.6,-3.6 -1.4,-5.1 -1.9,-3.8 -3.7,-19.3 -3.7,-32.2 0.1,-19.6 1.9,-24.7 9.6,-26.3 4,-0.9 4.9,-0.7 7.6,1.9 z m 182.2,5.2 c 2.2,1.9 1.1,3.1 -3.9,4.3 -4.7,1.1 -15.6,0.1 -15.1,-1.4 0.5,-1.6 12.9,-5.6 15.2,-5 1.1,0.3 2.8,1.2 3.8,2.1 z m 640.7,-0.2 c 5.8,0.3 14.5,0.6 19.4,0.7 6.1,0.1 9.1,0.6 9.3,1.4 0.3,0.7 -0.4,1.4 -1.4,1.4 -1.6,0.1 -1.6,0.2 0,0.6 0.9,0.2 1.7,0.8 1.7,1.2 0,0.5 1.1,0.6 2.5,0.3 2.7,-0.5 3.5,-2.2 1.1,-2.2 -0.8,0 -1.8,-0.5 -2.2,-1.1 -0.4,-0.6 0.1,-1 1.2,-0.8 1.1,0.1 2.6,-0.1 3.5,-0.5 2.6,-1.1 9.7,1.2 10.4,3.3 0.4,1.4 2.3,2.2 7.1,3.1 7.2,1.4 9.9,0.5 7.4,-2.5 -1.7,-2.1 -1.1,-2.5 4.6,-3.1 3.5,-0.4 5.8,-0.1 7.9,1 2.3,1.2 2.5,1.6 1.1,1.6 -1.6,0 -1.8,0.2 -0.7,1.2 1,1.1 1.6,0.9 2.9,-0.8 1.6,-1.9 2.6,-2 15.7,-1.8 7.7,0.1 19.4,0.5 26,1 6.6,0.4 15.3,0.7 19.3,0.5 5.8,-0.1 8.2,0.3 11.7,2 4.4,2.2 5.7,2.2 14,0 6.8,-1.8 11.7,-1.3 15.7,1.4 3.7,2.5 3.8,2.5 5,0.5 1.3,-2 7.8,-3 7.8,-1.1 0,0.5 1.6,0.3 3.6,-0.4 2.1,-0.7 5,-0.9 6.8,-0.5 1.7,0.3 8.8,0.7 15.9,0.9 7,0.1 13.8,0.6 15,1 1.3,0.5 3,0.6 3.7,0.1 2.3,-1.4 16.3,-0.5 19.1,1.3 2.2,1.5 3.3,1.5 8.1,0.5 5.4,-1.1 5.8,-1.1 9.5,1.5 4.7,3.3 5.3,3.3 8.7,0.6 2.4,-1.9 3.5,-2.1 8.4,-1.5 3.1,0.4 7.3,0.9 9.2,1.1 1.9,0.1 5.2,0.7 7.3,1.3 2.5,0.7 5,0.7 7.3,0 2,-0.5 7.5,-0.8 12.2,-0.7 4.8,0.1 11,-0.1 13.8,-0.5 4.1,-0.7 5.9,-0.5 9,1 3.2,1.5 6,1.8 15.8,1.6 6.6,-0.1 12.8,-0.4 13.8,-0.8 1,-0.3 3.8,0.4 6.3,1.6 3.8,1.8 4.9,2 8.6,1 3.1,-0.9 5.4,-0.8 9.3,0.1 2.8,0.7 10.9,1.2 18.1,1.2 7.1,0 14.1,0.4 15.3,0.8 1.5,0.6 3.9,0.5 6.4,-0.1 2.9,-0.8 5.5,-0.8 9.6,0.1 3.1,0.6 9.7,1.1 14.6,1.1 5.6,0 10.2,0.6 12.5,1.5 3.1,1.3 4.2,1.3 9.9,-0.2 5.4,-1.5 7.2,-1.6 11.5,-0.6 2.9,0.7 7.7,1.3 10.7,1.3 5.8,0.1 18.1,-1.5 19.9,-2.6 0.6,-0.4 2.5,0.1 4.3,1 2.2,1.2 5.2,1.7 9.3,1.5 3.3,-0.1 7.6,-0.1 9.5,-0.1 11.4,0.4 15.6,0.2 26,-1.3 6.3,-0.9 14,-2.5 17.1,-3.5 5.9,-2.1 8.1,-1.7 8.5,1.5 0.2,1 1.2,2.4 2.3,3.2 2.6,1.6 2.7,4.8 0.4,5.5 -1,0.2 -4.5,0.7 -7.7,1.1 -3.6,0.4 -7.7,1.6 -10.3,3.2 -3.6,2.1 -5,2.4 -8.5,1.7 -4.6,-0.7 -19.9,-1.4 -36.8,-1.6 -32.1,-0.4 -152.8,-4.5 -154,-5.3 -0.4,-0.2 -4.9,-0.5 -10.1,-0.5 -9.1,-0.1 -46.7,-2.3 -61.9,-3.6 -4.1,-0.3 -13.6,-0.8 -21,-0.9 -7.4,-0.2 -21.1,-0.6 -30.5,-0.9 -9.3,-0.4 -26.2,-0.9 -37.5,-1.1 -11.3,-0.3 -25.9,-0.8 -32.5,-1 -11.7,-0.5 -25.1,-0.8 -88.9,-2 -16.9,-0.3 -31.1,-0.7 -31.5,-1 -0.4,-0.2 -18.9,-0.7 -41.2,-1 -22.2,-0.3 -45.6,-1 -51.9,-1.5 -17.9,-1.4 -174.5,-0.3 -221.5,1.5 -15.1,0.6 -71,1.7 -77.5,1.5 -18.5,-0.5 -24.1,-0.8 -24.7,-1.3 -1.5,-1.5 -0.1,-1.8 14.7,-3.2 10.8,-1 13,-1.5 13,-3 0,-1.9 -3.5,-2.8 -6.1,-1.5 -1.1,0.7 -3.2,0.9 -4.6,0.5 -2.3,-0.5 -2.4,-0.8 -1.1,-2.1 1.8,-1.8 5.9,-2 59.8,-2.9 21.7,-0.4 45.6,-0.9 53,-1.1 7.4,-0.3 27.7,-0.7 45,-1 17.3,-0.2 32.9,-0.5 34.5,-0.7 5.8,-0.5 121.1,0.3 131.5,0.9 z m 55,2.8 c 0,0.6 -1.1,1 -2.5,0.9 -3.6,-0.1 -3.7,-0.2 -3,-1.4 0.8,-1.2 5.6,-0.8 5.5,0.5 z m -1015,2.2 c 67.6,0.9 98.8,0.9 102.7,0 4.2,-1 5.5,1.4 2.6,4.7 -1.2,1.3 -2.1,3.7 -2.1,6 -0.2,6 -0.4,6.1 -11.6,5.3 -5.6,-0.4 -17.3,-0.9 -26.1,-1.1 -8.8,-0.2 -23,-0.7 -31.5,-1.1 -13.5,-0.6 -32.2,-1 -68,-1.5 -19.4,-0.2 -176,0 -189.5,0.2 -12.8,0.3 -17.7,0.3 -27.5,0 -1.9,0 -7.2,0.1 -11.7,0.2 -8.3,0.3 -12.5,-0.5 -9,-1.9 0.9,-0.3 2.3,-0.4 3.1,-0.1 0.8,0.3 2.3,-0.3 3.5,-1.4 1.7,-1.6 2.7,-1.8 6,-1 2.1,0.4 4.5,0.5 5.2,0 0.7,-0.4 1.6,-0.6 2,-0.3 0.4,0.2 0.7,-0.2 0.6,-0.9 -0.1,-3.8 0.4,-4.7 2.8,-4.7 1.9,0 2.5,0.5 2.5,2.3 0,2.3 0.2,2.3 10.2,2.3 7.2,-0.1 10.3,-0.5 10.6,-1.4 0.6,-2 3.6,-1.4 5.6,1.3 1,1.4 2.7,2.3 3.7,2.2 2.8,-0.5 3.6,-1.7 1.1,-1.7 -1.2,0 -2.2,-0.5 -2.2,-1.1 0,-0.5 -0.5,-0.7 -1,-0.4 -0.6,0.3 -1.3,-0.1 -1.6,-0.9 -0.3,-0.9 -1.5,-1.6 -2.5,-1.6 -1,0 -1.9,-0.4 -1.9,-0.9 0,-0.5 1,-0.9 2.3,-0.9 1.2,0 4.9,-0.3 8.2,-0.6 3.3,-0.3 11,-1 17,-1.4 12.2,-0.9 117.2,-0.7 196.5,0.4 z m 419,0.4 c 2,1.3 0.9,2 -3.5,2.3 -4.5,0.2 -6,-1.9 -1.8,-2.6 1.5,-0.2 3,-0.5 3.3,-0.5 0.3,-0.1 1.2,0.2 2,0.8 z m -645.6,0.9 c 0.4,0.5 0.3,1.7 0,2.6 -0.5,1.1 -0.9,1.3 -1.4,0.5 -0.4,-0.6 -1.6,-1.3 -2.6,-1.5 -1,-0.2 -2,-0.4 -2.2,-0.4 -0.2,-0.1 0,-0.6 0.3,-1.1 0.8,-1.2 5.2,-1.3 5.9,-0.1 z m 659.2,0.9 c -0.3,0.2 -1.7,0.6 -3.1,0.7 -2.8,0.4 -3.5,-1.1 -0.7,-1.7 1.9,-0.5 4.5,0.2 3.8,1 z m -669.7,0.8 c 0.2,0.2 -1,0.4 -2.7,0.4 -1.8,0 -3.2,-0.5 -3.2,-1 0,-0.9 4.7,-0.4 5.9,0.6 z m -211.6,1.9 c 0.1,0.5 -1.9,1.1 -4.5,1.3 -3.8,0.3 -4.8,0 -4.8,-1.2 0,-2.5 8.8,-2.6 9.3,-0.1 z m 41.7,-1 c 0.7,0.8 0.9,1.5 0.4,1.6 -7.3,0.9 -9.9,-0.2 -5.1,-2.1 3.1,-1.2 3.3,-1.2 4.7,0.5 z m 57.3,-0.4 c 0.7,0 0.3,0.4 -0.8,0.9 -2.9,1.3 -3.5,1.2 -3.5,-0.6 0,-1.1 0.5,-1.4 1.6,-1 0.9,0.3 2.1,0.6 2.7,0.7 z m 8.7,-0.1 c 0,0.5 -1.2,1 -2.6,1 -1.4,0 -2.3,-0.4 -1.9,-1 0.3,-0.6 1.5,-1 2.6,-1 1,0 1.9,0.4 1.9,1 z m -186.7,1.5 c 3.9,0.6 4.9,2 1.9,2.9 -2.1,0.7 -19.2,0 -20,-0.8 -0.9,-1 0.3,-1.6 4.9,-2.5 4.3,-0.8 5.8,-0.7 13.2,0.4 z m 48.7,0 c 0,1.2 -1.3,1.5 -5.5,1.5 -4.2,0 -5.5,-0.3 -5.5,-1.5 0,-1.2 1.3,-1.5 5.5,-1.5 4.2,0 5.5,0.3 5.5,1.5 z m 18.8,-0.3 c -0.3,0.7 -2.7,1.3 -5.9,1.5 -5.1,0.3 -5.3,0.2 -2.9,-1.2 3.1,-1.8 9.3,-2 8.8,-0.3 z M 1393,469 c 0,1.1 -1.2,1.3 -7.5,1.2 -8.5,-0.1 -9.5,-0.2 -9.5,-1.2 0,-0.6 3.5,-1 8.5,-1 5,0 8.5,0.4 8.5,1 z m 27,0 c 0,0.5 -0.9,1.4 -2,2 -1.5,0.8 -2,0.8 -2,-0.3 0,-0.8 0.3,-1.7 0.7,-2 1,-1 3.3,-0.8 3.3,0.3 z m 29.5,0 c 0.3,0.6 -0.4,1 -1.7,1 -1.8,0 -2,-0.2 -0.8,-1 1.9,-1.2 1.8,-1.2 2.5,0 z m 632.5,0 c 0,0.5 -1.2,1 -2.6,1 -1.4,0 -2.3,-0.4 -1.9,-1 0.3,-0.6 1.5,-1 2.6,-1 1,0 1.9,0.4 1.9,1 z m -778.2,2.5 c 0,2.7 -2.5,3.4 -4.6,1.3 -2.1,-2.1 -1.3,-3.8 1.7,-3.8 2.4,0 2.9,0.4 2.9,2.5 z m -46.8,-0.6 c 0,1 -5,2.1 -9.7,2.1 -2.7,0 -3.3,-0.3 -2.5,-1.3 1.1,-1.3 12.2,-2.1 12.2,-0.8 z m 1120.8,0.9 c 2.3,0.1 4.2,0.6 4.2,1.1 0,1.5 -6.7,2.2 -21.2,2.2 -13.7,0 -18.8,-1.1 -14,-2.8 1.8,-0.7 17.8,-0.9 31,-0.5 z m -1186,1.1 c 1,0.6 1,1 -0.2,2.1 -0.9,0.7 -1.4,1.6 -1.1,2 0.7,1.1 -1.6,0.7 -3.5,-0.5 -0.8,-0.6 -2.2,-1 -3,-1.1 -6.7,-0.5 -6.7,-0.4 -3,-1.8 4.1,-1.6 9,-1.9 10.8,-0.7 z m 27.7,0.1 c -0.3,0.5 -1,1 -1.6,1 -0.5,0 -0.9,-0.5 -0.9,-1 0,-0.6 0.7,-1 1.6,-1 0.8,0 1.2,0.4 0.9,1 z m 180.2,1 c 0.3,1.1 1.2,2 1.9,2 1.5,0 2,2.6 0.7,3.3 -0.5,0.3 -2.2,0.8 -3.8,1.1 -2.6,0.6 -3.3,0.3 -4.8,-2.3 -1.6,-2.8 -1.6,-2.9 0.6,-4.4 3,-2.2 4.8,-2.1 5.4,0.3 z m 46.3,1.5 c 0,3.7 -2.2,4.7 -7.8,3.7 -2.7,-0.5 -6,-0.7 -7.3,-0.4 -4.4,0.8 -6.2,0.7 -6.6,-0.4 -0.5,-1.6 4,-3.4 6,-2.3 1.8,1.1 6.7,0.2 6.7,-1.2 0,-1.1 6.1,-2.7 7.8,-2.1 0.6,0.2 1.2,1.4 1.2,2.7 z m 83.3,-0.7 c 2.4,2.1 1,3.1 -4.6,3.3 -5.4,0.3 -7.1,-0.8 -5.4,-3.2 2.4,-3.2 6.4,-3.2 10,-0.1 z m 696.6,-1.2 c 1.8,1.7 -7.5,3.9 -9.8,2.5 -1.2,-0.8 -1.3,-1.2 -0.1,-2.6 1,-1.2 2.3,-1.5 5.4,-0.9 2.3,0.3 4.3,0.8 4.5,1 z m 18.8,-0.3 c 1.5,1.6 -2.3,2.7 -7.1,2.1 -5.5,-0.6 -6.6,-1 -6.6,-2.6 0,-1.2 12.4,-0.7 13.7,0.5 z m -33.7,1.1 c 0,1.7 -15.8,3.2 -17.4,1.6 -1.9,-1.9 1.5,-3 9.7,-3 5.8,0 7.7,0.3 7.7,1.4 z m -1066.2,0.8 c -0.6,1.8 -2.8,2.1 -2.8,0.4 0,-0.9 0.7,-1.6 1.6,-1.6 0.9,0 1.4,0.5 1.2,1.2 z m 197,1.5 c 0.2,1.6 -0.4,2.2 -2.7,2.6 -3.3,0.7 -8.1,-0.6 -8.1,-2.2 0,-1.7 3.4,-3 7,-2.7 2.6,0.3 3.6,0.9 3.8,2.3 z m 17.6,-1.2 c 0.4,1 -0.1,1.5 -1.4,1.5 -1.1,0 -2,-0.7 -2,-1.5 0,-0.8 0.6,-1.5 1.4,-1.5 0.8,0 1.6,0.7 2,1.5 z m 56.6,2.6 c 0,1.1 -5,2.9 -8,2.9 -2.3,0 -3,-0.4 -3,-2 0,-1.1 0.8,-2.3 1.8,-2.6 0.9,-0.3 2.4,-0.9 3.2,-1.3 1.4,-0.8 5.9,1.5 6,3 z m 88.8,-2.5 c 1.2,0.8 2.2,1.9 2.2,2.5 0,1.5 -3,1 -3.6,-0.6 -0.4,-0.8 -1.5,-1.5 -2.6,-1.5 -1,0 -1.6,-0.5 -1.3,-1 0.9,-1.4 2.7,-1.2 5.3,0.6 z m -198.4,0 c 2.9,1.1 1.6,1.9 -3.4,2.1 -4.6,0.3 -6,-0.4 -4.3,-2 0.8,-0.9 5.6,-0.9 7.7,-0.1 z m 17.6,1.1 c 0,2.8 -4.2,4.2 -9.6,3.2 -5.6,-1.1 -6.8,-1.9 -2.8,-1.9 1.6,0 3.8,-0.7 4.8,-1.5 2.8,-2.1 7.6,-2 7.6,0.2 z m 150.5,-0.8 c 0.8,1.4 -3.1,2.4 -5.7,1.5 l -2.3,-0.8 2.5,-0.7 c 3.6,-1 4.8,-1 5.5,0 z m 17.8,1.6 c -0.7,1.9 -1.9,1.9 -2.6,0.1 -0.3,-0.8 -0.1,-1.7 0.6,-1.9 1.8,-0.6 2.7,0.2 2,1.8 z M 1062,477 c 0,0.5 -0.7,1 -1.5,1 -0.8,0 -1.5,-0.5 -1.5,-1 0,-0.6 0.7,-1 1.5,-1 0.8,0 1.5,0.4 1.5,1 z m 174.8,0.7 c 0.2,0.9 -0.7,1.3 -2.8,1.3 -2.8,0 -3.1,-0.2 -2,-1.5 1.5,-1.8 4.1,-1.6 4.8,0.2 z m 20.9,0.5 c -0.3,0.8 -0.6,0.5 -0.6,-0.6 -0.1,-1.1 0.2,-1.7 0.5,-1.3 0.3,0.3 0.4,1.2 0.1,1.9 z m 12.8,-0.2 c 1.7,1.9 1.7,2 -0.9,3 -2,0.7 -3.4,0.5 -6.1,-0.8 -4.7,-2.3 -4.4,-3.7 0.9,-3.9 3.2,-0.1 4.8,0.3 6.1,1.7 z m -17.8,0.6 c -0.3,0.3 -1.2,0.4 -1.9,0.1 -0.8,-0.3 -0.5,-0.6 0.6,-0.6 1.1,-0.1 1.7,0.2 1.3,0.5 z m 34.1,0.9 c 0.1,0.5 -0.5,1 -1.3,0.9 -4.6,-0.2 -5.6,-0.5 -5.1,-1.2 0.7,-1.1 6.1,-0.9 6.4,0.3 z m -93.1,2.2 c 0.6,1.6 -3.1,2.2 -4.5,0.7 -0.9,-1 -0.9,-1.3 0.1,-1.7 1.8,-0.6 4.1,-0.1 4.4,1 z M 960.5,486 c 0.3,0.5 -0.3,1 -1.4,1 -1.2,0 -2.1,-0.5 -2.1,-1 0,-0.6 0.6,-1 1.4,-1 0.8,0 1.8,0.4 2.1,1 z m -167.1,4.1 c 1.4,0.7 2.3,1.6 2,2 -0.3,0.5 0,0.9 0.7,0.9 0.8,0 0.8,0.5 -0.2,1.6 -1.7,2.1 -8.8,1.3 -10.6,-1.2 -1,-1.4 -1,-1.9 0.5,-3 2.1,-1.7 4.4,-1.7 7.6,-0.3 z m -30.4,1.4 c 0,0.8 -0.4,1.5 -1,1.5 -0.5,0 -0.7,-0.7 -0.4,-1.5 0.4,-0.8 0.8,-1.5 1,-1.5 0.2,0 0.4,0.7 0.4,1.5 z m 14,2.1 c 0,0.8 -0.7,1.4 -1.5,1.4 -1.5,0 -2.1,-2.1 -0.9,-3.3 1,-0.9 2.4,0.2 2.4,1.9 z m -36,0.4 c 0,0.5 -1.6,1 -3.5,1 -1.9,0 -3.5,-0.5 -3.5,-1 0,-0.6 1.6,-1 3.5,-1 1.9,0 3.5,0.4 3.5,1 z m -63.3,4.6 c -0.3,0.3 -1.2,0.4 -1.9,0.1 -0.8,-0.3 -0.5,-0.6 0.6,-0.6 1.1,-0.1 1.7,0.2 1.3,0.5 z m 2759.6,11.1 c 3.4,1.7 3.2,3.8 -0.5,6.6 -2.5,1.9 -2.7,1.9 -7.5,0.1 -8.6,-3.2 -10.9,-5.4 -8.2,-8.1 1.4,-1.4 12.5,-0.5 16.2,1.4 z M 191.8,597.2 c -0.7,1.9 -3.8,2.2 -3.8,0.4 0,-1 0.9,-1.6 2.1,-1.6 1.2,0 1.9,0.5 1.7,1.2 z m -19.1,92.5 c 0.4,1.1 -2.6,2.7 -3.5,1.9 -0.2,-0.3 -0.2,-1.2 0.2,-2.1 0.6,-1.8 2.7,-1.6 3.3,0.2 z M 160,704.2 c 0,0.5 -0.7,0.8 -1.5,0.8 -1.7,0 -1.8,-0.2 -0.9,-2.5 0.5,-1.3 0.8,-1.4 1.5,-0.3 0.5,0.7 0.9,1.6 0.9,2 z m 12.4,4.7 c -0.2,0.2 0.3,1.5 1,3 1.5,3.1 1.1,5.6 -1.6,9.4 -2.4,3.4 -1.8,5.5 1.9,5.9 3.7,0.4 3.7,3.2 0.1,3.6 -2.2,0.3 -2.8,0.8 -2.8,2.8 0,4.1 1.8,6.4 5,6.4 1.6,0 3.1,0.3 3.3,0.7 0.9,1.6 -1.2,5.1 -3.5,5.8 -1.3,0.4 -3.4,1.6 -4.7,2.6 -1.5,1.3 -4,1.9 -7.1,1.9 -4.3,0 -4.9,-0.4 -7.9,-4.1 -3.1,-3.8 -3.2,-4.1 -1.6,-5.9 0.9,-1 2.8,-2 4.1,-2.2 2.8,-0.3 3.3,-2.3 0.6,-2.3 -1.2,0 -1.7,-0.9 -1.8,-2.9 -0.1,-1.9 -0.9,-3.5 -2.3,-4.4 -1.3,-0.9 -2.1,-2.5 -2.1,-4.4 0,-1.6 -0.5,-3.8 -1.1,-4.9 -1.1,-2.1 -0.3,-6.3 1,-5.4 0.5,0.2 2.6,-1.1 4.7,-3.1 2.6,-2.3 4.6,-3.4 6,-3.1 1.2,0.2 3.2,-0.2 4.5,-0.8 1.7,-0.9 2.6,-1 3.5,-0.1 0.6,0.6 1,1.3 0.8,1.5 z M 3652,717 c 0,0.5 -0.4,1 -1,1 -0.5,0 -1,-0.5 -1,-1 0,-0.6 0.5,-1 1,-1 0.6,0 1,0.4 1,1 z m 19.4,38.5 c 0.3,0.9 -0.1,1.8 -1,2.2 -1.9,0.7 -2.8,-0.2 -2.1,-2.2 0.8,-1.9 2.3,-1.9 3.1,0 z m 28.4,47.4 c 0.3,0.8 -0.1,1.2 -0.9,0.9 -0.7,-0.2 -1.5,-1 -1.7,-1.7 -0.3,-0.8 0.1,-1.2 0.9,-0.9 0.7,0.2 1.5,1 1.7,1.7 z m 6.5,16.1 c 0.4,1.5 0,2 -1.3,2 -1.8,0 -3.4,-2.3 -2.3,-3.4 1.3,-1.2 3.1,-0.5 3.6,1.4 z m 1.2,4.1 c 1,1.5 -0.1,2.3 -2,1.5 -0.9,-0.3 -1.3,-1 -1,-1.6 0.8,-1.3 2.2,-1.3 3,0.1 z m 6.6,19.4 c -0.1,1.5 -2.4,1.2 -2.9,-0.3 -0.3,-0.9 0.2,-1.3 1.2,-1 1,0.1 1.7,0.7 1.7,1.3 z m 53.3,191.3 c 0.7,1.2 -2.3,5.2 -3.9,5.2 -2.4,0 -2.6,-1.9 -0.5,-4 2.1,-2.1 3.6,-2.5 4.4,-1.2 z M 2526.5,1048 c 0.3,0.5 1.7,1 3.1,1 1.5,0 2.4,0.6 2.4,1.5 0,1.1 -1.2,1.5 -4,1.6 -2.2,0.1 -4.5,0.2 -5.2,0.3 -1.8,0.2 -1.8,-3.3 0,-4.4 2.2,-1.2 2.9,-1.2 3.7,0 z m 1237.7,3.9 c 1.3,1.5 1.4,2.1 0.3,2.4 -1.5,0.6 -3.5,-1.1 -3.5,-3 0,-1.9 1.3,-1.6 3.2,0.6 z m -1179.2,8.2 c 2.5,0.6 7.7,1.2 11.5,1.4 18.3,0.8 29.5,1.8 29.5,2.6 0,1.1 -2,1.2 -20.5,1 -21.6,-0.2 -30.5,-1 -30.5,-2.7 0,-0.8 1,-1.9 2.3,-2.4 2.8,-1.1 2.4,-1.1 7.7,0.1 z m 50,4.4 c 0,0.8 -0.4,1.5 -1,1.5 -0.5,0 -1,-0.7 -1,-1.5 0,-0.8 0.5,-1.5 1,-1.5 0.6,0 1,0.7 1,1.5 z m 9,0.6 c 0,0.5 -0.4,0.9 -1,0.9 -0.5,0 -1,-0.7 -1,-1.6 0,-0.8 0.5,-1.2 1,-0.9 0.6,0.3 1,1 1,1.6 z m 32,0.9 c 0,0.5 -0.7,1 -1.5,1 -0.8,0 -1.5,-0.5 -1.5,-1 0,-0.6 0.7,-1 1.5,-1 0.8,0 1.5,0.4 1.5,1 z m 30,1.1 c 0,0.5 -1.1,0.9 -2.5,0.9 -3.3,0 -3.3,-1.5 0,-1.6 1.4,-0.1 2.5,0.2 2.5,0.7 z m 37.7,1.5 c -0.3,0.3 -1.2,0.4 -1.9,0.1 -0.8,-0.3 -0.5,-0.6 0.6,-0.6 1.1,-0.1 1.7,0.2 1.3,0.5 z m 15.3,1 c 0,1 -0.7,1.4 -2.2,1.2 -3.2,-0.5 -3.5,-2.8 -0.4,-2.8 1.7,0 2.6,0.5 2.6,1.6 z m 25,0.4 c 0,0.5 -0.4,1 -1,1 -0.5,0 -1,-0.5 -1,-1 0,-0.6 0.5,-1 1,-1 0.6,0 1,0.4 1,1 z m 19.4,-0.4 c 4.1,1.6 0.8,2.4 -8.1,2.2 -6.6,-0.2 -9.8,-0.7 -10.1,-1.6 -0.3,-0.9 1.8,-1.2 8.1,-1.2 4.7,0 9.2,0.3 10.1,0.6 z m 7.6,1.4 c 0,0.5 -0.4,1 -1,1 -0.5,0 -1,-0.5 -1,-1 0,-0.6 0.5,-1 1,-1 0.6,0 1,0.4 1,1 z m 11,0.5 c 0,1.1 -1.2,1.5 -4.5,1.5 -3.3,0 -4.5,-0.4 -4.5,-1.5 0,-1.1 1.2,-1.5 4.5,-1.5 3.3,0 4.5,0.4 4.5,1.5 z m 69.9,0.1 c 25.6,0.2 52,0.7 58.6,1 6.6,0.3 21.2,0.7 32.5,0.8 30,0.5 61.6,1.7 63,2.6 3.6,2.2 -1.8,2.7 -29.7,2.4 -31.9,-0.3 -67.2,-1.1 -84.3,-1.9 -16.8,-0.7 -43.6,-1.5 -69.5,-2.1 -13.2,-0.3 -25.3,-0.7 -27,-0.9 -1.6,-0.2 -4.9,-0.4 -7.2,-0.4 -3.3,-0.1 -4.3,-0.5 -4.3,-1.7 0,-1.5 1.2,-1.6 10.7,-1 5.9,0.4 31.6,0.9 57.2,1.2 z" />
      <path
         style="fill:#000000;stroke:none"
         inkscape:connector-curvature="0"
         id="path13495"
         d="m 2031.4,473.1 c -0.3,0.6 -0.1,1.6 0.5,2.2 0.6,0.6 1.1,0.8 1.1,0.4 0,-0.4 0.8,-0.3 1.9,0.2 2.2,1.2 5.8,-0.9 4.7,-2.7 -0.9,-1.5 -7.3,-1.6 -8.2,-0.1 z" />
      <path
         style="fill:#000000;stroke:none"
         inkscape:connector-curvature="0"
         id="path13497"
         d="m 2059.7,472.6 c -1.1,1.2 0.3,2.4 2.9,2.4 1.6,0 2.4,-0.5 2.2,-1.3 -0.5,-1.3 -4,-2.2 -5.1,-1.1 z" />
      <path
         style="fill:#000000;stroke:none"
         inkscape:connector-curvature="0"
         id="path13499"
         d="m 2020.5,474 c -0.3,0.5 0.3,1 1.4,1 1.2,0 2.1,-0.5 2.1,-1 0,-0.6 -0.6,-1 -1.4,-1 -0.8,0 -1.8,0.4 -2.1,1 z" />
      <path
         style="fill:#000000;stroke:none"
         inkscape:connector-curvature="0"
         id="path13503"
         d="m 2495.4,466.1 c -0.8,1.3 -0.3,1.8 2.2,2.1 1,0.2 2,-0.1 2.2,-0.7 0.5,-1.3 -3.6,-2.6 -4.4,-1.4 z" />
      <path
         style="fill:#000000;stroke:none"
         inkscape:connector-curvature="0"
         id="path13505"
         d="m 2478.5,468 c 0.4,0.6 1.1,0.8 1.6,0.5 1.4,-0.9 1.1,-1.5 -0.7,-1.5 -0.8,0 -1.2,0.5 -0.9,1 z" />
      <path
         style="fill:#000000;stroke:none"
         inkscape:connector-curvature="0"
         id="path13507"
         d="m 1759.5,470 c -0.3,0.5 0.1,1 0.9,1 0.9,0 1.6,-0.5 1.6,-1 0,-0.6 -0.4,-1 -0.9,-1 -0.6,0 -1.3,0.4 -1.6,1 z" />
      <path
         style="fill:#000000;stroke:none"
         inkscape:connector-curvature="0"
         id="path13509"
         d="m 1784,470 c 0,0.5 0.5,1 1,1 0.6,0 1,-0.5 1,-1 0,-0.6 -0.4,-1 -1,-1 -0.5,0 -1,0.4 -1,1 z" />
      <path
         style="fill:#000000;stroke:none"
         inkscape:connector-curvature="0"
         id="path13511"
         d="m 1808.7,469.9 c -3,1.1 0,2.9 6,3.6 5.3,0.8 8.7,-0.2 7.5,-2.1 -0.8,-1.3 -11,-2.4 -13.5,-1.5 z" />
      <path
         style="fill:#000000;stroke:none"
         inkscape:connector-curvature="0"
         id="path13513"
         d="m 1604.6,471.5 c -0.3,0.8 -0.1,1.5 0.4,1.5 0.6,0 1,-0.7 1,-1.5 0,-0.8 -0.2,-1.5 -0.4,-1.5 -0.2,0 -0.6,0.7 -1,1.5 z" />
      <path
         style="fill:#000000;stroke:none"
         inkscape:connector-curvature="0"
         id="path13515"
         d="m 1607,471 c 0,0.5 0.5,1 1.1,1 0.5,0 0.7,-0.5 0.4,-1 -0.3,-0.6 -0.8,-1 -1.1,-1 -0.2,0 -0.4,0.4 -0.4,1 z" />
      <path
         style="fill:#000000;stroke:none"
         inkscape:connector-curvature="0"
         id="path13517"
         d="m 1610,472 c 0,0.5 0.5,1 1,1 0.6,0 1,-0.5 1,-1 0,-0.6 -0.4,-1 -1,-1 -0.5,0 -1,0.4 -1,1 z" />
      <path
         style="fill:#000000;stroke:none"
         inkscape:connector-curvature="0"
         id="path13519"
         d="m 1651.3,471.7 c 0.9,0.2 2.3,0.2 3,0 0.6,-0.3 -0.1,-0.5 -1.8,-0.5 -1.6,0 -2.2,0.2 -1.2,0.5 z" />
      <path
         style="fill:#000000;stroke:none"
         inkscape:connector-curvature="0"
         id="path13521"
         d="m 1695.8,471.7 c 0.6,0.2 1.8,0.2 2.5,0 0.6,-0.3 0.1,-0.5 -1.3,-0.5 -1.4,0 -1.9,0.2 -1.2,0.5 z" />
      <path
         style="fill:#000000;stroke:none"
         inkscape:connector-curvature="0"
         id="path13523"
         d="m 1833.5,472 c -0.8,1.3 4,3.1 6,2.4 1.9,-0.8 1.9,-2 -0.1,-2.8 -2.4,-0.9 -5.2,-0.7 -5.9,0.4 z" />
      <path
         style="fill:#000000;stroke:none"
         inkscape:connector-curvature="0"
         id="path13525"
         d="m 1877.1,472 c -1,0.5 -0.8,0.9 0.4,1.4 2.3,0.8 3.5,0.8 3.5,-0.3 0,-1.3 -2.5,-2 -3.9,-1.1 z" />
      <path
         style="fill:#000000;stroke:none"
         inkscape:connector-curvature="0"
         id="path13527"
         d="m 2307.5,440 c -0.3,0.6 0,1.7 0.9,2.5 2.8,2.9 16.6,1.1 16.6,-2.1 0,-1.1 -1.9,-1.4 -8.4,-1.4 -4.7,0 -8.8,0.5 -9.1,1 z" />
      <path
         style="fill:#000000;stroke:none"
         inkscape:connector-curvature="0"
         id="path13529"
         d="m 2358.5,440 c -0.4,0.6 -1.7,1 -3.1,1 -1.3,0 -2.4,0.4 -2.4,1 0,0.5 1.7,0.7 3.8,0.5 2,-0.2 4,-0.4 4.5,-0.4 0.4,-0.1 0.7,-0.5 0.7,-1 0,-1.3 -2.8,-2.2 -3.5,-1.1 z" />
      <path
         style="fill:#000000;stroke:none"
         inkscape:connector-curvature="0"
         id="path13531"
         d="m 2164,451 c 0,0.5 0.5,1 1,1 0.6,0 1,-0.5 1,-1 0,-0.6 -0.4,-1 -1,-1 -0.5,0 -1,0.4 -1,1 z" />
      <path
         style="fill:#000000;stroke:none"
         inkscape:connector-curvature="0"
         id="path13545"
         d="m 2020.8,635.5 c -1.2,1.3 -20.1,2.2 -29.8,1.5 -5.2,-0.4 -11,-0.3 -12.9,0.1 -1.8,0.4 -12.4,0.8 -23.5,1 -17,0.2 -20.7,0.5 -24.1,2 -2.2,1 -8.5,3 -14,4.4 -12.6,3.3 -46.6,14.7 -56.4,18.9 -16.2,6.8 -43.5,20.9 -59.6,30.6 -9.3,5.7 -19.9,11.8 -23.5,13.7 -7.5,3.8 -35.3,25.3 -44.9,34.6 -5.8,5.7 -30.3,33.2 -48.1,54.2 -10.8,12.8 -27.2,37.9 -35.1,54 -8.6,17.4 -11.1,26.3 -13.9,49 -0.5,4.4 -1.4,11.1 -2,15 -1.6,10.3 -2.3,42.7 -1.2,52.5 1.2,10.3 3.2,18.8 8.2,34 5.3,16.2 8.7,26.9 9.9,31 0.5,1.9 1.9,6.2 3.1,9.5 2,5.9 2,5.9 0,7.9 -1.8,1.8 -4.2,2.1 -26.2,3.2 -24.1,1.2 -50.6,3 -87.3,5.9 -35.1,2.8 -77.7,5.4 -127,8 -47.8,2.5 -61.9,3.4 -85.5,5.4 -6.3,0.6 -20.9,1.7 -32.5,2.6 -11.5,0.9 -25,2 -30,2.5 -4.9,0.5 -14.6,1.4 -21.5,2 -6.9,0.6 -16.1,1.5 -20.5,2 -7.3,0.8 -21.3,2 -62,5 -7.7,0.6 -19.4,1.5 -26,2 -6.6,0.5 -19.2,1.4 -28,1.9 -8.8,0.6 -23.2,1.5 -32,2.1 -28.6,1.9 -86.4,4.2 -145,5.9 -41.3,1.2 -72.5,2.6 -103,4.7 -12.6,0.9 -29.1,2 -36.5,2.4 -7.4,0.5 -14.4,1.1 -15.5,1.4 -1.1,0.3 -11.2,1 -22.5,1.6 -11.3,0.6 -26.8,1.5 -34.5,2 -7.7,0.6 -24.6,1.7 -37.5,2.5 -12.9,0.9 -24.2,1.8 -25,2 -0.8,0.2 -13.9,1.1 -29,2 -15.1,0.9 -34.7,2.2 -43.5,3 -8.8,0.8 -27.2,1.9 -41,2.5 -13.7,0.5 -36.2,1.4 -50,2 -21.5,0.8 -47.6,2.6 -67.5,4.6 -13.8,1.3 -34.3,4.1 -58.8,7.8 -37.9,5.8 -45,6.4 -84.2,7 -41.6,0.6 -74.1,2.1 -84.1,3.7 -3.7,0.6 -13.3,1.2 -21.5,1.4 -8.2,0.1 -19,1 -24.1,1.9 -9.1,1.6 -21.3,5.5 -24.5,8 -2.9,2.2 -4.7,9 -3.6,13.8 0.6,2.4 1.2,7.4 1.4,11.2 0.2,3.7 0.8,7.4 1.4,8.2 2,2.3 6.6,2.7 10.2,0.8 4.7,-2.5 13.6,-4.5 14.4,-3.2 0.4,0.6 0,1.4 -0.7,1.9 -1.2,0.8 -1.2,1.1 0.1,1.9 0.8,0.5 2.2,0.7 3,0.4 0.8,-0.3 4.8,-0.8 9,-1.1 6.4,-0.5 8.4,-0.2 12.4,1.6 2.7,1.1 6.4,2.1 8.2,2.1 2.1,0 4.1,0.8 5.4,2.2 1.4,1.6 3.4,2.3 6.8,2.4 2.6,0.1 9.7,0.8 15.7,1.4 6.1,0.7 13.6,1 16.7,0.7 5.8,-0.5 13.8,-4.1 13.8,-6.2 0,-0.6 1.7,-1.9 3.7,-2.9 3.3,-1.6 7.4,-1.9 29.8,-2.2 46.2,-0.6 63.6,-1.5 87.5,-4.6 4.7,-0.5 10.1,-1.4 12,-1.9 1.9,-0.6 8.5,-1.6 14.5,-2.4 6.1,-0.7 14.8,-1.8 19.5,-2.4 36.9,-4.8 61.2,-6.9 88,-7.7 11.8,-0.4 23.1,-0.8 25,-0.9 1.9,-0.2 14,-0.8 26.9,-1.4 12.9,-0.7 23.7,-1.3 24,-1.5 0.3,-0.2 7.8,-0.7 16.6,-1 15.2,-0.6 27.8,-1.3 39,-2.1 2.7,-0.2 10.4,-0.7 17,-1 16.5,-0.8 52.1,-3.3 63,-4.4 5,-0.5 10.4,-0.9 12,-0.9 1.7,0 8.9,-0.4 16,-1 7.2,-0.6 21.1,-1.6 31,-2.2 9.9,-0.6 28.8,-2 42,-3 29,-2.3 74.7,-4.4 115.5,-5.5 20.6,-0.5 44.2,-1.3 58.5,-1.9 6.1,-0.3 22,-1 35.5,-1.6 13.5,-0.6 31.7,-1.5 40.5,-2.1 8.8,-0.5 20.5,-1.2 26,-1.4 31.9,-1.4 35.4,-1.6 74.5,-5.1 9.6,-0.9 21.8,-1.8 27,-2 12.7,-0.6 27.6,-1.8 57.5,-4.8 36,-3.6 54.9,-5.3 72,-6.6 8.3,-0.6 20.4,-1.5 27,-2 6.6,-0.5 20.3,-1.4 30.5,-2 10.2,-0.5 26.6,-1.5 36.5,-2.1 9.9,-0.5 26.3,-1.4 36.5,-2 10.2,-0.5 24.1,-1.4 31,-1.9 6.9,-0.6 21.5,-1.5 32.5,-2 11,-0.6 22.4,-1.5 25.3,-2.1 2.9,-0.6 5.9,-0.9 6.6,-0.6 0.6,0.3 4.8,0.1 9.1,-0.4 13.8,-1.6 31.6,-3 42,-3.4 5.5,-0.3 11,-0.7 12.2,-1 1.2,-0.3 9.8,-1 19,-1.6 9.2,-0.5 21.8,-1.5 27.8,-2 23,-2.2 24.5,-1.7 28.1,9.2 1.1,3.5 2.9,8 3.9,9.9 2.7,4.9 5.3,12.3 7.5,21 2.1,8.4 9.4,24.9 14,31.5 1.7,2.5 5.5,7.1 8.4,10.2 2.9,3.2 7.1,8.7 9.3,12.3 2.2,3.6 6.5,10.8 9.7,16 3.1,5.2 8.4,13.3 11.7,18 3.3,4.7 9.2,13.8 13.1,20.3 6.7,11.2 16.8,23.5 30.4,37.1 17.8,17.9 59.1,41.4 98.3,56.1 6.4,2.4 15.7,6.2 20.6,8.5 5,2.3 14.6,6.1 21.5,8.6 12.1,4.2 50.2,15.4 52.5,15.4 0.6,0 2.1,0.9 3.2,2 1.9,1.7 2.1,3 2.2,14.7 0,7 0.3,15.9 0.6,19.8 0.6,6.9 -0.4,20 -2.6,34 -0.6,3.8 -1.1,8.7 -1.2,10.8 -0.1,2.7 -0.9,4.4 -2.4,5.7 -2.8,2.2 -2.9,3.2 -0.3,4.8 2.7,1.7 2.5,3.7 -0.6,5.9 -2.4,1.8 -2.5,2.1 -1,3.5 2.2,2.3 2.1,2.6 -2.1,4.5 l -3.8,1.8 0.4,14.5 c 0.1,8 0.5,14.8 0.7,15.1 0.2,0.4 2,0.9 4,1.2 6.9,1.1 8.6,6.8 2.7,9.3 -2.1,0.9 -4.5,2 -5.3,2.4 -1.7,0.8 -1.6,-0.1 -1.9,51.5 0,17 0.1,32.6 0.4,34.5 1.7,11.6 1.7,11 -1.5,14 -2,1.9 -3,3.8 -3,5.7 0,1.7 -0.7,4.4 -1.6,6.2 -1.8,3.7 -4.2,3.5 -8.4,-0.5 l -2.5,-2.4 3.2,-2.9 c 4.1,-3.7 3.2,-4.4 -6.7,-6 -7.3,-1.1 -78.7,-1 -80.7,0.2 -0.4,0.2 -14,0.8 -30.2,1.1 -16.2,0.4 -29.7,0.9 -30.1,1.1 -0.4,0.2 -11.7,0.7 -25.1,1 -34.5,0.7 -51.7,1.3 -72.9,2.5 -10.2,0.5 -30.4,1.5 -45,2.1 -25.2,1 -53.4,2.2 -77.5,3.3 -6,0.3 -29.7,1 -52.5,1.6 -54.9,1.4 -74.1,1.9 -94.5,2.6 -9.3,0.3 -23.3,0.7 -31,0.9 -40.3,1 -62.6,1.7 -67.5,2.1 -3,0.3 -7.3,0.5 -9.5,0.4 -2.2,-0.1 -4.4,-0.2 -5,-0.1 -5.6,0.4 -64.8,2 -91,2.5 -2.2,0 -17.5,0.4 -34,0.8 -16.5,0.5 -39.2,1 -50.5,1.3 -11.3,0.2 -26.3,0.7 -33.5,1 -7.1,0.3 -20.4,0.8 -29.5,1.1 -20.8,0.7 -29.6,1.1 -44,1.9 -6.3,0.3 -26.3,0.8 -44.5,1.1 -33.4,0.4 -72.3,1.8 -80.5,2.8 -2.5,0.3 -16,0.8 -30,1.1 -14,0.3 -29.5,1 -34.5,1.5 -4.9,0.6 -15.3,1.2 -23.1,1.5 -7.8,0.3 -17.6,1 -21.9,1.5 -4.2,0.5 -8.1,0.8 -8.5,0.5 -1,-0.6 -46.4,2.3 -54.9,3.5 -3.6,0.5 -6.8,0.7 -7.1,0.5 -0.4,-0.3 -7,0 -14.6,0.5 -7.7,0.5 -20,1.2 -27.4,1.5 -7.4,0.2 -25.4,0.9 -40,1.4 -14.6,0.5 -30.8,1.3 -36,1.6 -5.2,0.4 -14.2,0.8 -20,1 -5.8,0.1 -19.9,0.8 -31.5,1.3 -22.1,1.2 -31.7,1.6 -79.5,3.2 -16.2,0.6 -34.2,1.3 -40,1.6 -5.8,0.3 -39.8,0.8 -75.7,1.1 -92.5,0.8 -109.9,-0.4 -165.3,-11.2 -7.4,-1.5 -17.4,-3.8 -22.2,-5.1 -12.1,-3.3 -14.7,-3.2 -19.1,1.1 -3.7,3.6 -4.6,5.8 -2.6,7 0.5,0.4 1.4,1.8 1.9,3.1 0.5,1.3 2.8,3.3 5,4.4 5.1,2.6 5.1,5.2 0,6.1 -1.9,0.4 -4.9,1.3 -6.7,2 -2.8,1.2 -3.4,1.1 -5.3,-0.6 -1.3,-1.2 -3.3,-1.8 -5,-1.7 -1.6,0.2 -3.7,-0.4 -4.8,-1.4 -1.2,-1 -5.1,-2.5 -8.9,-3.5 -11.6,-3 -13.5,-2.3 -8.8,3.2 2.6,3.2 2.6,5.9 -0.1,13.2 -2.1,5.5 -1.7,8.1 1.7,13.1 2.6,4 3.5,4.6 6.6,4.6 2.2,0 4.9,1 7.6,2.9 2.6,1.8 6.5,3.4 10,4 3.3,0.6 8.6,2.4 11.8,4.1 3.3,1.6 9.7,4.3 14.2,5.9 32.8,11.5 38,12.9 58.2,15.7 6.1,0.8 13.9,1.9 17.5,2.4 19.9,2.7 106.1,4.2 156,2.5 8.5,-0.3 24.7,-0.7 36,-1 11.3,-0.4 28.6,-1 38.5,-1.5 50.6,-2.6 78.7,-4.1 94.5,-5 18.7,-1.2 20.4,-1.3 72.5,-3.6 39.7,-1.7 63.3,-3.2 106.5,-6.5 7.4,-0.5 21.4,-1.4 31,-1.9 9.6,-0.5 24.5,-1.4 33,-2 8.5,-0.6 22.5,-1.5 31,-2 8.5,-0.5 22.9,-1.4 32,-1.9 19.7,-1.2 52.8,-2.6 112.5,-4.6 24.2,-0.8 49.9,-1.7 57,-2 17.1,-0.7 74.1,-2.3 102.5,-3 12.4,-0.3 36.2,-1 53,-1.5 16.8,-0.5 46.7,-1.4 66.5,-2 19.8,-0.5 50,-1.4 67,-2 17.1,-0.5 49.2,-1.4 71.5,-2 22.3,-0.6 53.3,-1.5 69,-2 15.7,-0.6 51.9,-1.7 80.5,-2.5 28.6,-0.8 54,-1.7 56.5,-2 2.5,-0.3 18.2,-1 35,-1.5 16.8,-0.5 48.5,-1.9 70.5,-2.9 22,-1.1 48.3,-2.3 58.5,-2.6 10.2,-0.3 28.9,-1 41.5,-1.6 12.7,-0.5 42.8,-1.2 67,-1.5 34,-0.4 45,-0.9 48.4,-2 2.5,-0.8 6.3,-1.4 8.7,-1.4 4.3,0 5.9,-1.1 6.5,-4.4 0.7,-3.7 5.3,-5.8 15.1,-7 5.1,-0.6 10,-1.6 10.9,-2.1 2.9,-1.8 5,-6.1 4.5,-9 -0.9,-4.7 -2.5,-5.4 -5.1,-2.1 -2.5,3.2 -3.8,2.9 -6,-1.5 -1.3,-2.5 -2,-5.9 -3.8,-19.9 -0.1,-0.8 0.2,-6.4 0.7,-12.3 0.6,-8.4 1.2,-11 2.4,-11.4 2.1,-0.9 4.7,2.6 7.4,9.9 1.7,4.8 3.1,6.8 6.9,9.7 2.6,2 5.1,4.5 5.5,5.6 0.3,1.1 1.8,3.3 3.3,5 5.5,6.1 6,7.5 3.8,11.2 -3.2,5.5 -2,6.6 7,5.8 11.3,-0.9 16.7,-0.8 26.8,0.5 5,0.7 12.2,1.4 16,1.6 12.9,0.6 26,2.6 30.2,4.5 2.3,1 4.9,1.9 5.8,1.9 0.9,0 4.4,0.6 7.8,1.4 3.4,0.8 9.6,2 13.7,2.7 11.5,1.8 18.4,5.3 15,7.4 -0.8,0.5 -0.8,1.1 0,2 1.5,1.8 34.1,2 391.5,2 340.4,0.1 520.9,0.9 613.5,2.7 138.7,2.8 302.4,0.9 335.5,-3.9 16.8,-2.4 22.5,-2.7 23.8,-1.4 0.7,0.7 1.2,2.9 1.3,5 0,5.5 2.6,8.8 7.6,10.1 2.4,0.7 6.3,2.7 8.7,4.6 2.4,1.9 5.4,3.4 6.5,3.4 1.2,0 7.4,-1.1 13.9,-2.5 10.3,-2.1 12.4,-2.9 18,-6.8 3.4,-2.5 15.2,-9.1 26.2,-14.7 23.6,-12.1 32.9,-17.4 41.9,-24.2 7.9,-5.9 20.7,-18.4 26.2,-25.5 16.4,-21.3 28.7,-38.1 33.4,-45.4 5.8,-9.1 16.5,-25.6 23.8,-36.6 4.8,-7.3 13.2,-23.4 13.2,-25.5 0,-0.7 0.8,-2.7 1.8,-4.3 1,-1.7 2.2,-4.3 2.6,-5.8 1,-4 18.5,-43.4 27.7,-62.2 2.7,-5.6 5.1,-11.9 10,-25.5 1.1,-3 2.4,-6.3 2.9,-7.2 0.6,-1 1,-2.6 1,-3.6 0,-1 0.4,-2.2 1,-2.8 1,-1 9.2,-22.7 11.5,-30.4 0.8,-2.5 2.4,-7 3.6,-10 1.2,-3 2.5,-7.1 3,-9 0.7,-3.4 2.1,-8.5 3.9,-14.5 2.3,-7.7 3.2,-11.8 5,-23 2.2,-13.1 5.6,-37.4 7,-50 1.4,-12.8 6,-56.4 6.7,-63.1 0.5,-5.1 0,-8 -2.5,-16.5 -8.1,-27.8 -9.8,-34.5 -12.2,-46.9 -1.2,-6.4 -2,-8.1 -4.4,-8.9 -2.2,-0.8 -33.8,1.2 -36.7,2.4 -1.4,0.5 -1.7,3.9 -2.3,23.9 -0.4,13.2 -1.6,30.1 -2.8,39.2 -1.9,15.4 -2.4,19.7 -4.7,40.9 -0.5,5.5 -1.5,14.3 -2.1,19.5 -0.6,5.2 -1.5,13.4 -2,18.2 -0.5,4.8 -1.3,9.6 -1.9,10.7 -0.6,1.1 -1.1,3.8 -1.1,6 0,3.9 -0.6,7 -3.7,19.6 -2.7,11.2 -13.4,43 -15.4,46 -0.3,0.5 -1.2,2.8 -1.9,5 -2.2,7 -8,21.8 -10.5,27 -1.3,2.7 -4.3,9.5 -6.6,15 -2.3,5.5 -4.5,10.5 -5,11.1 -1.2,1.4 -13.9,30.5 -13.9,31.7 0,1.2 -5.3,13.1 -14.1,31.4 -5.9,12.4 -10.3,19.6 -26.2,43.3 -1.7,2.5 -4.8,7.2 -7,10.5 -2.2,3.3 -4.8,7 -5.9,8.1 -1.1,1.2 -2.7,3.5 -3.6,5.2 -1.5,2.7 -5,7.4 -17,22.6 -1.7,2.2 -4,5.3 -5,6.7 -4.3,6.5 -24.8,21.9 -29.1,21.9 -2.5,0 -8.9,3.1 -14.6,7.1 -7,4.9 -18,8.2 -15.9,4.7 0.7,-1.1 -12,-0.5 -24.6,1.2 -3.6,0.5 -10.2,1 -14.7,1.1 -4.5,0.1 -8.7,0.5 -9.5,1 -2.5,1.6 0.9,3.2 6.9,3.3 4.4,0.1 5.8,0.5 5.8,1.6 0,1.1 -1.3,1.5 -5,1.6 -2.7,0.1 -8.1,0.6 -12,1.2 -9.1,1.5 -15.1,1.5 -19.2,0 -3,-1.1 -3.5,-1 -6,1.5 l -2.8,2.6 -24.2,0 c -15.3,0 -26.4,0.5 -30.2,1.2 -4.6,1 -6.8,1 -9.8,0.1 -2.9,-0.9 -6.2,-0.9 -12.8,-0.1 -6.7,0.8 -9.8,0.8 -13.2,-0.2 -3.3,-0.9 -4.7,-0.9 -5.6,0 -1.6,1.6 -5.2,1.4 -6.7,-0.4 -1.8,-2.2 -0.7,-2.9 5,-3.1 2.7,-0.1 5.6,-0.6 6.3,-1.2 1.1,-0.9 20.9,-1.9 42.5,-2 4.2,-0.1 6.7,-0.6 7.8,-1.6 1.4,-1.5 1.3,-1.6 -0.8,-1.7 -1.3,-0.1 -50.4,-0.2 -109.3,-0.4 -58.8,-0.1 -117.8,-0.6 -131,-0.9 -43.2,-1.1 -77.5,-1.7 -101.7,-1.5 -1.6,0 -5.7,0 -9.3,0 -3.6,0 -8,0 -9.7,0 -1.8,0 -17.9,0 -35.8,0 -17.9,0 -36.3,0 -41,0.1 -4.7,0 -35.3,-0.2 -68,-0.6 -32.7,-0.4 -81.5,-0.9 -108.5,-1.1 -26.9,-0.3 -67.4,-0.7 -90,-1 -36.3,-0.5 -146.9,-0.5 -355.5,-0.3 -58.3,0.1 -127.4,0.1 -138.5,0 -68.4,-0.6 -161.5,-0.2 -163.7,0.6 -2.5,1 -2.6,1.3 -1.6,4.6 1,3.1 0.8,3.9 -1.5,6.9 -2.1,2.8 -3.5,3.6 -6.9,3.9 -6.8,0.7 -8.1,0.1 -7.4,-3.6 0.4,-1.7 2,-4.4 3.6,-6.1 3.5,-3.7 3.6,-3.9 1,-7.5 -3.3,-4.6 -7.1,-16.6 -8.3,-26.3 -1.6,-12.3 -1.5,-34.6 0.1,-54.2 1.1,-13 1.1,-20.1 0.1,-39.2 -1,-19.4 -1,-26.6 0.2,-42.6 1.6,-22.5 1.7,-31.2 0.6,-54.3 -1.1,-21.4 -1.9,-20.3 13.6,-18.1 21.8,3.1 28.1,3.7 41.6,3.7 13.4,0 24.4,-1.3 37.1,-4.3 3.6,-0.9 11.7,-2.7 18,-4.2 36.5,-8.2 70.5,-24.3 96.6,-45.7 4.4,-3.5 11.7,-9.1 16.4,-12.3 12,-8.3 15.3,-11 24.7,-19.9 10.5,-10.1 18.2,-21.3 27.9,-41.1 4.2,-8.5 8,-15.8 8.4,-16 0.5,-0.3 1.2,-2 1.5,-3.8 0.4,-1.7 2.7,-7.1 5,-11.8 6.7,-13.3 12.2,-26.7 14.5,-35.4 1.2,-4.4 3.9,-19.7 6,-34 2.2,-14.3 5.3,-31 6.9,-37 1.6,-6.1 3,-12.5 3,-14.3 0.1,-1.8 0.6,-4.2 1.2,-5.4 0.8,-1.4 0.8,-2.7 0,-4.6 -0.6,-1.5 -1.3,-4.8 -1.5,-7.4 -0.4,-5.5 -1.6,-7.3 -5.3,-8.3 -1.5,-0.3 -3.9,-1.5 -5.5,-2.6 -2.1,-1.5 -3.2,-1.8 -4.7,-1 -2.2,1.2 -3.4,5.1 -2.5,8.5 0.3,1.5 -0.1,2.9 -1.1,4 -2.1,2.1 -2.8,2 -5,-0.4 -1,-1.1 -3,-2 -4.4,-2 -2.3,0 -2.8,0.6 -3.9,4.5 -0.7,2.8 -0.9,5.3 -0.3,6.3 0.7,1.5 2.6,10.8 2.4,12.2 -0.1,0.3 -0.3,2.8 -0.6,5.6 -0.6,5.9 -2.4,15.5 -3.8,20 -0.5,1.7 -0.8,5.5 -0.8,8.6 0.1,3.1 -0.1,6.1 -0.5,6.7 -1.2,1.9 -3.4,11.5 -3.4,14.6 0.1,10.1 -2.9,17.3 -6.6,15.9 -1.8,-0.7 -2.1,-6.3 -0.5,-15.4 0.5,-3 1.1,-9 1.4,-13.2 0.4,-7.3 1,-10.6 3.4,-18.8 4.3,-14.9 5,-18 4.6,-19.8 -0.2,-1.2 0,-3.5 0.5,-5.1 0.5,-1.7 0.4,-3.1 -0.1,-3.3 -1,-0.4 -4.2,-20.5 -3.4,-21.8 0.3,-0.5 0,-2.1 -0.6,-3.7 -0.6,-1.5 -1.4,-5.3 -1.9,-8.3 -1,-7.1 -5.7,-15.2 -8.5,-14.8 -1.4,0.2 -2.4,1.7 -3.4,5 -1.7,5.6 -4.7,6.6 -5.7,2 -0.3,-1.5 -1.2,-5 -2,-7.8 -2.1,-7.7 -3,-32.4 -1.2,-34.7 2,-2.6 4.6,-1.2 5.4,2.9 0.8,4.3 3.1,4.4 6.3,0.5 2,-2.4 2.5,-4.2 2.6,-9.8 0.1,-3.7 0.6,-7.7 1.2,-8.8 1.1,-2 1.2,-2 3.5,0.3 3,2.7 4,2.8 5.6,0.2 0.7,-1.2 2.4,-2.5 3.8,-3.1 2.2,-0.8 2.5,-1.3 1.9,-3.7 -0.4,-1.5 -0.9,-4.6 -1.2,-7 -0.5,-4.1 -3.1,-7 -5.2,-5.8 -2,1.3 -4.5,-2.3 -4.5,-6.5 -0.1,-2.4 -0.6,-4.9 -1.2,-5.6 -0.6,-0.7 -1.5,-3.8 -1.8,-7 -0.4,-3.2 -1.3,-8.1 -2,-10.8 -0.8,-2.8 -1.6,-7.1 -2,-9.7 -0.5,-4.1 -0.3,-4.8 1.9,-6.2 2.7,-1.8 3.3,-5 1.2,-6.3 -1.9,-1.2 -5.7,-6.4 -5.2,-7.2 0.2,-0.4 -0.9,-1.5 -2.6,-2.5 -3.5,-2.1 -3.9,-6.1 -1,-9.5 1.8,-2.1 1.9,-2.6 0.5,-6.9 -0.8,-2.6 -1.7,-5.8 -2,-7.2 -2,-8.5 -4.9,-14.7 -9,-19.3 -4.2,-4.7 -5.3,-6.7 -9.9,-17.7 -1,-2.5 -2.7,-5.6 -3.6,-7 -0.9,-1.4 -2.4,-4.6 -3.2,-7.1 -0.9,-2.5 -3.6,-7.6 -6.1,-11.2 -6.9,-10.1 -11.7,-20.2 -11.4,-24.1 0.1,-2.7 -0.6,-4.4 -3.8,-8.1 -2.1,-2.6 -4.3,-5.4 -4.9,-6.3 -6.5,-10.6 -20.1,-26.4 -24.7,-28.8 -3,-1.6 -32.8,-31.2 -32.8,-32.6 0,-0.5 1.1,-1.3 2.5,-2 2.1,-0.9 3.2,-0.6 8.1,2.3 6.2,3.8 17.7,13.3 21.2,17.6 1.3,1.5 3.7,4.7 5.5,7 7.8,10.2 15.1,18.5 25.1,28.3 5.8,5.8 10.9,11.4 11.2,12.5 0.7,2.5 4.9,8.9 8.6,13.3 1.5,1.8 2.8,4.2 2.8,5.2 0,1.1 1.3,4.4 2.9,7.3 1.6,2.8 3.1,6.4 3.5,7.8 0.3,1.4 2.4,4.6 4.6,7.1 4.5,5.2 5.8,8 7.1,15.8 0.6,3 1.2,7 1.6,8.8 0.3,1.9 1.8,4.3 3.6,5.8 2.8,2.4 3.5,4 5.4,13.9 0.3,1.6 1.6,4.6 2.8,6.5 5.2,8.3 8.1,17.1 8.4,25.2 0.1,2.2 1,4.8 2.4,6.5 1.7,2.1 2.3,4.3 2.5,8.7 0.2,3.4 1,6.9 2,8.4 3.3,5.1 4.2,9.3 2.7,12.2 -0.8,1.5 -1.2,3 -0.9,3.3 0.3,0.2 0.7,4.7 1,9.8 0.9,15.1 1.1,16.6 1.8,17.8 0.9,1.4 5.6,20 5.6,22.2 0,0.8 1.4,2.5 3,3.8 2.1,1.5 2.9,2.8 2.5,4 -0.3,1 0.2,2.5 1.3,3.4 1.7,1.5 2,1.5 5.4,-0.8 2.1,-1.4 4.3,-2.5 5.1,-2.5 3.2,0 3.8,-2.5 2.2,-8.6 -0.8,-3.3 -1.7,-11.3 -2,-17.9 -0.2,-6.6 -1.1,-14.7 -2,-18 -0.9,-3.3 -2,-7.8 -2.5,-10 -7.5,-34.2 -11.6,-49.9 -16.5,-63 -2.9,-8 -3.9,-10.8 -9,-26 -4.6,-13.8 -8.6,-24.9 -12.8,-35.5 -1.4,-3.6 -3.7,-10.1 -5,-14.5 -3,-9.5 -8.6,-22.7 -11.9,-28.1 -1.3,-2.2 -4.1,-7.5 -6.1,-11.9 -2.1,-4.4 -4.5,-9.4 -5.3,-11 -1.8,-3.7 -11.5,-16.9 -15.4,-21 -1.5,-1.7 -4.4,-5.5 -6.4,-8.5 -2,-3 -6.3,-8.7 -9.6,-12.5 -3.3,-3.9 -7.9,-9.3 -10.2,-12.2 -4.6,-5.7 -24.3,-23.7 -32.3,-29.5 -6.7,-4.8 -27.2,-15.5 -42.5,-22.1 -6.9,-3 -17,-7.5 -22.6,-10 -5.6,-2.6 -10.4,-4.7 -10.9,-4.7 -0.4,0 -6.9,-2.9 -14.4,-6.4 -23.9,-11.2 -43.2,-15.5 -72.6,-16.3 -10.4,-0.3 -19.3,-0.2 -19.7,0.2 z m -26.4,18.1 c 5.8,0.8 6.6,2.3 3.2,5.7 -3.2,3.2 -3.3,4.5 -0.3,5.2 2.7,0.6 14.6,0 16.8,-1 1,-0.4 1.9,0 2.2,0.8 0.4,1 -1.1,3 -3.9,5.5 -2.4,2.3 -4.4,4.6 -4.4,5.1 0,0.6 -2,1.6 -4.5,2.2 -4.1,1 -9.5,5.5 -9.5,7.9 0,1.1 -10.6,6.1 -15.5,7.3 -2.2,0.5 -5.9,1 -8.2,1.1 -2.5,0 -4.3,0.5 -4.3,1.2 0,0.6 -0.9,2.2 -1.9,3.6 -1.1,1.3 -2.1,3.7 -2.3,5.3 -0.4,3.6 -2.6,4.2 -9,2.5 -5.4,-1.5 -13.8,-9.8 -13.8,-13.9 0,-3.4 4.3,-11.7 8.4,-15.9 5.5,-5.9 15,-12.9 22.5,-16.7 12.9,-6.5 15.5,-7.1 24.5,-5.9 z m 50.6,18.9 c 1.1,1.3 0.8,1.5 -1.3,1.5 -1.9,0 -2.5,-0.4 -2.1,-1.5 0.4,-0.8 1,-1.5 1.4,-1.5 0.4,0 1.3,0.7 2,1.5 z m 57.5,7.5 c 0.4,0.6 -0.5,1 -1.9,1 -1.4,0 -2.6,-0.5 -2.6,-1 0,-0.6 0.9,-1 1.9,-1 1.1,0 2.3,0.4 2.6,1 z m -175,11 c 1.1,1.8 -2.5,10.9 -6.1,15.1 -3.2,3.9 -3.4,4.3 -1.8,6 1.1,1.2 1.4,2.7 0.9,4.7 -0.8,3.7 0.8,5 7.1,5.7 2.7,0.3 7.9,1.1 11.5,1.7 5.5,0.9 7.4,0.8 11.5,-0.5 2.7,-0.9 6.7,-1.9 8.9,-2.2 2.2,-0.4 8.6,-2.5 14.3,-4.6 13,-5 14.5,-4.7 13.6,2.4 -0.4,2.9 -1.5,7 -2.4,9.2 -1.3,2.7 -1.5,4.4 -0.8,5.2 0.7,0.8 0.5,1.9 -0.6,3.4 -1.4,2 -1.3,2.5 0.6,6.3 3.5,6.7 3.6,7.1 3.9,11.6 0.2,2.8 -0.1,4.5 -0.9,4.8 -0.6,0.2 -3.6,-0.8 -6.5,-2.3 -4.1,-1.9 -7.6,-2.7 -14.3,-3.2 -10.4,-0.7 -11.8,-1.3 -10,-4.8 0.9,-1.8 1,-4.2 0.4,-8.7 -1.4,-10.6 -1.8,-11.8 -4.3,-12.4 -2.7,-0.7 -8.3,2 -9.2,4.3 -0.4,0.9 -0.1,6.4 0.6,12.2 1.3,10.4 1.6,14.8 2.5,36.6 0.3,6 1.3,16.6 2.2,23.5 0.9,6.9 1.8,17 1.9,22.5 0.2,5.5 0.7,15.8 1.1,23 0.4,7.1 0.9,15.9 0.9,19.5 1.5,61.1 2.5,78.1 5.6,94.5 1.1,6 2.4,14.1 2.9,18 1.1,9.3 2.7,19.5 5.5,34 2.3,11.9 2.3,12 0.4,14 -1.7,1.7 -3.1,2 -10.7,1.7 -7.8,-0.2 -33,3 -35.5,4.5 -1,0.6 -14.9,2.5 -18.7,2.6 -1.4,0 -7.9,-0.5 -14.6,-1.2 -8.1,-0.8 -23.9,-1 -47.5,-0.6 -35.4,0.5 -45.7,1.2 -50,3.6 -4.9,2.6 -17.5,5.1 -25.4,5 -4.4,-0.1 -16.7,0.4 -27.3,0.9 -10.6,0.6 -20.1,0.8 -21.1,0.5 -1.9,-0.6 -6.5,-10.2 -8.9,-18.5 -2.2,-7.8 -7.2,-24.4 -13.2,-44.5 -5.8,-19.3 -7.8,-45.5 -5.2,-69.6 1.1,-10.7 5.8,-36.1 8.1,-43.7 1.3,-4.4 14.7,-27.8 21.3,-37.3 10.3,-14.6 12.4,-17.3 21.4,-27.3 4.9,-5.6 11.2,-12.6 14,-15.6 8.5,-9.5 20.6,-20.8 28.9,-27.1 4.4,-3.3 10,-7.6 12.5,-9.5 16.6,-13 58.2,-37.5 73,-43 1.9,-0.7 10.5,-4.3 19,-8 27.7,-11.9 38.7,-15.3 40.5,-12.4 z m 128.5,3.5 c 8.2,1.5 11.6,2.8 35.5,13.3 8.8,3.9 20.3,8.9 25.5,11.1 19.1,8.3 39.6,19.2 48.3,25.7 9.9,7.5 26.2,24.2 34.5,35.4 3.1,4.1 8.5,11.1 12.1,15.5 8.7,10.8 14.1,19.3 18.5,29.5 2.1,4.7 4.8,9.8 6,11.5 5,6.6 11,20.3 17,39 1.9,6 5.8,17.5 8.6,25.5 5.6,16.1 10.2,32.4 12.6,44.5 0.8,4.4 2.4,11.1 3.4,15 1,3.8 2.1,9.2 2.5,12 0.4,2.7 1.3,7 2,9.5 2.2,7.1 6.5,33.3 6.5,39.6 0,4.1 -2.1,5.4 -9.5,5.9 -3.8,0.3 -9.3,0.7 -12.1,1 -2.7,0.3 -6.1,0.2 -7.5,-0.3 -3.1,-1.2 -24.4,-1.7 -36.4,-0.8 -25,1.7 -58,6 -59.1,7.7 -0.3,0.5 -1,0.6 -1.6,0.3 -0.6,-0.4 -9.6,-0.8 -20,-1 -10.4,-0.1 -20.3,-0.7 -22.1,-1.3 -7.3,-2.2 -24,-4.3 -36.7,-4.4 -13.5,-0.2 -45.2,0.9 -56.5,1.9 -5.6,0.5 -6.2,0.3 -8.7,-2.3 -2.8,-3 -3.8,-5.9 -6.3,-18.8 -0.8,-4.4 -2,-10.3 -2.5,-13 -1,-4.9 -4.1,-27.5 -6.1,-44.5 -0.5,-4.7 -1.5,-9.9 -2.1,-11.5 -0.8,-2 -1.3,-11.5 -1.3,-27.5 -0.1,-13.5 -0.5,-32.3 -1,-41.8 l -0.8,-17.2 2.8,-2.2 c 2.6,-2 2.7,-2.5 2.1,-8 -0.3,-3.5 -0.1,-6.8 0.5,-8.2 0.9,-1.9 0.8,-3.3 -0.3,-6.3 -0.9,-2.3 -1.6,-7.8 -1.7,-14.2 -0.1,-5.8 -0.4,-10.8 -0.6,-11.1 -0.2,-0.4 -0.7,-6.2 -1,-13.1 -1.6,-33.8 -4.5,-65 -7.2,-77 -1.7,-7.8 -1.1,-9.5 4.6,-12.7 5.7,-3.2 17.1,-7.2 23.1,-8.2 6.9,-1.1 25.2,-0.3 35,1.5 z m -63.3,337.4 c 2.2,2.1 3.7,2.8 5.9,2.5 1.6,-0.1 3.9,0.4 5.1,1.2 1.2,0.8 3.4,1.4 4.8,1.4 3.8,0 7.7,4.5 9.8,11.5 1.1,3.3 2.5,7.5 3.3,9.3 1.9,4.4 1.8,13.2 -0.2,16 -1.6,2.3 -4.8,2.9 -5.9,1.2 -1.1,-1.8 -3.1,-1.1 -6.6,2.3 -2.7,2.6 -4.6,3.5 -8.2,3.9 -4.3,0.5 -4.9,0.3 -6.6,-2.1 -1,-1.4 -2.1,-3.7 -2.5,-5.1 -0.3,-1.4 -1.4,-3.5 -2.4,-4.8 -1.5,-2 -2.2,-2.2 -4.6,-1.3 -3.5,1.4 -6.4,0 -7.2,-3.7 -0.3,-1.5 -1.2,-4.7 -2,-7.2 -1.3,-4.2 -2.2,-15.5 -1.3,-16.4 0.2,-0.2 2.4,-0.6 4.9,-0.7 5.1,-0.4 6.5,-1.7 7.5,-7.2 0.9,-4.5 2.4,-4.7 6.2,-0.8 z m -300.2,33.1 c 0.3,0.5 -0.1,1 -1,1 -0.9,0 -1.3,-0.5 -1,-1 0.3,-0.6 0.8,-1 1,-1 0.2,0 0.7,0.4 1,1 z m 55.4,1.4 c 0.6,0.4 1.1,2.6 1.1,5 0,3.8 0.4,4.5 4,7.2 2.2,1.6 5.6,5.3 7.6,8.1 2.9,4.4 4,5.3 6.5,5.3 1.7,0 6.7,0.9 11.2,2.1 8.6,2.2 12,2.2 31.2,-0.1 4.4,-0.5 13.6,-1.7 20.5,-2.5 6.9,-0.8 17.9,-1.7 24.5,-2 6.6,-0.3 15.2,-0.9 19,-1.4 17.9,-2.1 75,-7.1 89.7,-7.8 15,-0.8 16.2,-0.2 17.2,8.9 0.3,3.5 0.1,11 -0.4,16.8 -0.6,5.8 -1.3,35.5 -1.5,66 -0.4,49.5 -0.2,57.7 1.5,76 1.1,11.3 2.5,24.3 3.2,29 0.6,4.7 1.2,13.8 1.2,20.3 0.1,9.3 0.4,12 1.6,12.7 2.4,1.6 5.8,1.1 7.2,-0.9 0.7,-1 2.3,-2.1 3.6,-2.5 1.3,-0.5 2.1,-1.1 1.7,-1.4 -0.3,-0.3 1,-1.6 3,-2.8 2,-1.2 4.4,-3.6 5.3,-5.5 3.4,-6.6 7.2,-6.2 7.2,0.7 0,1.7 0.7,5.1 1.5,7.4 0.8,2.3 1.5,5.7 1.5,7.5 0,3.8 1.2,5 6,6.2 4.8,1.3 4.6,3.7 -0.4,4.3 -2.2,0.3 -4.1,1 -4.3,1.6 -0.4,1.1 5.8,6.4 7.5,6.4 0.5,0 1.5,1.4 2.2,3 0.8,1.9 2.2,3.2 3.9,3.6 1.4,0.3 4.6,1.2 7,2 2.5,0.8 5.1,1.4 5.9,1.4 0.9,0 2.3,0.7 3.2,1.5 0.9,0.8 4.2,1.7 7.3,2 3.1,0.2 6.6,0.9 7.8,1.5 l 2.1,1.2 -2.2,1.5 c -2.1,1.5 -4.3,1.4 -11,-0.2 -3.5,-0.9 -10.3,-0.7 -15.6,0.5 -2.5,0.6 -5.5,0.8 -6.7,0.5 -1.2,-0.3 -2.8,-0.1 -3.6,0.4 -1.6,1 -0.6,3.1 1.5,3.1 0.8,0 1.4,0.7 1.4,1.6 0,2.3 -6.7,4.7 -11.5,4.1 -2.2,-0.4 -6,-0.9 -8.5,-1.2 -5.4,-0.7 -7.5,-2.8 -5.7,-5.7 1,-1.6 0.9,-2.2 -0.8,-3.4 -1.1,-0.8 -3,-1.3 -4.3,-1.1 -5.4,1 -19,-5.3 -20.4,-9.5 -0.3,-0.7 -2.2,-1.1 -5,-1 -5.4,0.3 -6.6,-0.8 -3.7,-3.4 1.7,-1.6 2.5,-1.6 6.2,-0.6 3.9,1 4.3,0.9 5.9,-1.1 1,-1.2 1.8,-3.1 1.8,-4.2 0,-1.1 0.7,-3.1 1.5,-4.5 0.8,-1.4 1.4,-3 1.5,-3.7 0,-2.1 -4.2,-5.2 -12.6,-9.2 -4.5,-2.2 -8.5,-4.4 -8.8,-5 -0.4,-0.6 -3.3,-1.8 -6.4,-2.7 -6.9,-1.9 -15,-5 -29.8,-11.5 -6.1,-2.7 -11.7,-4.9 -12.6,-4.9 -0.8,0 -3.9,-1.3 -6.9,-2.9 -3,-1.5 -6.5,-3.2 -7.9,-3.6 -4.5,-1.3 -34.9,-16.1 -41.8,-20.3 -12.7,-7.9 -32.2,-22.5 -32.2,-24.2 0,-0.5 -3.9,-5 -8.6,-10.2 -4.8,-5.1 -9.8,-11.1 -11.3,-13.2 -4,-6 -10.8,-16.7 -13,-20.6 -1.1,-1.9 -4.5,-6.7 -7.5,-10.5 -3.1,-3.9 -6.8,-9.1 -8.3,-11.8 -5.6,-9.5 -18,-26.6 -25.6,-35.2 -3.3,-3.8 -7.5,-13.2 -11.7,-26.6 -0.4,-1.4 -1.4,-3.7 -2.1,-5 -0.7,-1.3 -1.6,-4 -2,-5.9 -0.4,-1.9 -1.5,-5.5 -2.4,-8 -1.6,-4.3 -1.6,-7.6 -0.1,-11.1 0.5,-1.2 -0.3,-2.3 -2.8,-3.9 -3.7,-2.2 -5,-6.4 -2.3,-7.3 1.9,-0.6 17.3,0 18.6,0.7 z m -27.7,2.9 c 0.9,0.6 2.5,2.9 3.4,5.2 1,2.2 2.4,4.7 3.2,5.7 0.8,1 1.5,4.7 1.6,10 0.2,4.5 0.9,10.5 1.5,13.3 1.8,7.4 1.8,10.6 0,11.8 -2,1.2 -7.4,-1.2 -7.4,-3.3 0,-0.8 -0.6,-3 -1.4,-4.8 -1.4,-3.4 -3.5,-4 -6.4,-1.8 -1,0.8 -2.6,1.2 -3.5,0.9 -1.4,-0.3 -1.8,0.2 -1.7,2.4 0,1.9 -0.6,2.9 -1.9,3.1 -2.9,0.6 -4.2,-1.4 -2.3,-3.6 1.5,-1.6 1.5,-2 0.1,-4 -0.8,-1.2 -1.2,-2.7 -0.9,-3.2 0.3,-0.6 -0.2,-1 -1.1,-1 -1.5,0 -1.5,-0.3 0.5,-2.1 2.8,-2.6 2.3,-4.2 -1.4,-4.9 -4,-0.7 -4.1,-2.2 -0.1,-4.4 1.9,-1 4.5,-2.9 5.7,-4.2 l 2.2,-2.4 -2.1,-2.3 c -2.2,-2.4 -3,-5.7 -1.3,-5.7 0.5,0 1.9,-1.6 3.1,-3.6 2,-3.1 2.5,-3.4 5.3,-2.8 1.7,0.3 3.9,1.1 4.9,1.7 z m -63.1,1.7 c 2.5,1.4 2.4,3.6 -0.2,5.1 -3.7,1.9 -13.9,-0.4 -13.9,-3.3 0,-2.4 10.4,-3.7 14.1,-1.8 z m 38.3,3.7 c 0.4,0.9 0.3,2 -0.2,2.5 -1.1,1.1 -4.7,-1.6 -3.8,-3 1.1,-1.7 3.3,-1.5 4,0.5 z m 597.8,4 c 1.9,1.7 2,2.7 1.6,14.3 -0.5,10.5 -1,14 -3.7,21.9 -1.7,5.1 -3.1,10.2 -3.1,11.3 0,1 -0.9,5.6 -2,10.1 -1,4.5 -2.6,15.6 -3.5,24.7 -1.8,17.9 -3.7,25.2 -10.5,38.9 -4,8.2 -16.7,36 -19.5,42.8 -2.4,5.8 -10.4,13.7 -21.5,21.3 -19.6,13.3 -26.7,18.2 -32,22 -9.3,6.7 -16.2,11.2 -23.5,15.3 -8.2,4.6 -25.7,12.6 -30,13.7 -1.6,0.5 -6.1,1.7 -10,2.8 -22.6,6.5 -39,8.6 -55.1,7.1 -6.6,-0.6 -19.6,-1.4 -29,-1.8 -17,-0.6 -21.4,-1.6 -19.7,-4.4 0.9,-1.5 1.1,-5.2 1.2,-26.2 0.1,-17.9 -0.8,-30 -4.9,-63.2 -1.2,-9.4 -1.4,-66.2 -0.4,-114.6 0.7,-31.9 0.8,-32.8 2.8,-33.9 1.2,-0.7 9.8,-1.5 20,-1.9 15.7,-0.6 19,-0.4 25.8,1.2 10.9,2.6 36.1,3.9 78,3.9 35.8,0 45.8,-0.6 57.8,-3.7 5.2,-1.4 11.9,-1.7 34.5,-1.8 18.2,-0.1 29,-0.6 31,-1.3 4.2,-1.6 13.2,-0.7 15.7,1.5 z M 235.8,1194.2 c 0.3,1.7 -3,3.1 -10.1,4.3 -2.9,0.5 -3.9,0.2 -4.3,-1 -0.9,-2.2 -0.3,-2.6 6.3,-4 6.7,-1.5 7.7,-1.4 8.1,0.7 z m 3548.2,18.3 c 0,1.3 0.7,2.5 1.5,2.9 1.7,0.6 2,4.2 0.4,5.2 -0.6,0.3 -0.9,2 -0.6,3.8 0.2,1.7 0,4.1 -0.6,5.4 -0.7,1.6 -0.7,2.9 0.3,4.7 1,1.9 1.1,3.4 0.3,6.2 -0.6,2.1 -1.1,9.2 -1.2,15.7 -0.1,9.9 -0.5,12.5 -2.1,15.1 -1.3,2.2 -2,5.3 -2.2,10.1 -0.1,5.2 -0.7,7.4 -2.2,9.1 -1.9,2.2 -1.9,2.4 -0.2,5.5 1.7,3.2 1.7,3.5 -0.3,8.1 -1.2,2.7 -2.1,6.1 -2.1,7.7 0,1.5 -0.7,4.5 -1.6,6.5 -1.1,2.8 -1.3,4.4 -0.6,6 0.9,2 0.1,5.1 -1.8,6.5 -1.9,1.4 -3.9,7.1 -3.4,9.7 0.4,2.2 -0.3,4.4 -3.1,9 -2,3.4 -3.9,8.3 -4.4,11.2 -0.4,2.8 -1.6,6 -2.6,7.1 -1.5,1.7 -1.6,2.4 -0.7,4.6 1.8,3.8 1.5,6.6 -1.3,10.6 -1.4,2 -2.5,4.8 -2.5,6.2 0,1.6 -0.9,3.2 -2.4,4.1 -1.3,0.9 -2.6,2.9 -3,4.6 -0.3,1.7 -1.5,4.3 -2.6,5.9 -1.1,1.5 -2,4.4 -2,6.3 0,2 -1,4.9 -2.5,7.1 -1.4,2 -2.5,3.9 -2.5,4.2 0,0.3 -1.3,1.7 -3,3.1 -1.6,1.3 -3,3.4 -3,4.5 0,1.1 -1.3,3.8 -2.9,6.1 -2.8,4.1 -4,9.1 -4.5,19.1 -0.1,2.6 -1.1,4.9 -3.1,7.2 -1.7,1.9 -3,4.6 -3.1,5.9 -0.1,1.4 -1.3,3.9 -2.8,5.4 -1.9,2 -2.6,3.5 -2.2,4.8 0.3,1.1 -0.1,2.8 -0.9,3.9 -0.8,1 -1.5,2.8 -1.5,4 0,1.1 -1.1,3.5 -2.5,5.4 -1.4,1.9 -2.5,3.8 -2.5,4.3 0,0.6 -2.2,3.3 -4.9,6.2 -4.8,5 -7.1,10.1 -7.1,15.4 0,1.6 -1.4,3.6 -3.9,5.7 -4,3.5 -5.5,6.4 -6.5,12.5 -0.4,1.9 -1.5,4.5 -2.5,5.6 -1.2,1.3 -1.8,3.3 -1.7,5.9 0.1,3.7 0,3.9 -2.8,3.6 -2.5,-0.3 -2.8,-0.1 -2.3,2 0.7,2.6 -3.2,7.8 -5.8,7.8 -0.8,0 -1.5,0.6 -1.5,1.3 0,0.7 -1.3,1.8 -3,2.4 -3.7,1.4 -4.2,5 -0.7,5.5 2.9,0.4 2.4,3.6 -1.1,6.5 -1.5,1.1 -2.7,2.5 -2.7,3 -0.2,2.3 -3,9.2 -5,11.8 -3.4,4.6 -26.5,27.9 -30.7,30.9 -2.7,2.1 -4.6,2.6 -7.5,2.4 -3.5,-0.3 -3.8,-0.1 -4.1,2.5 -0.2,1.7 -1.3,3.2 -3,4.1 -1.5,0.8 -4.7,3.3 -7.2,5.5 -2.4,2.3 -5,4.1 -5.6,4.1 -1.5,0 -2.6,2.8 -1.4,3.5 1.8,1.1 1.1,2.3 -1.9,3.3 -2.7,0.9 -3,0.8 -3.6,-1.5 -0.3,-1.3 -0.3,-3.4 0.1,-4.5 0.6,-1.9 0.3,-2 -3.7,-1.5 -2.4,0.3 -5,0.6 -5.7,0.6 -0.9,0.1 -1.2,1.1 -1,3.1 0.2,2.4 -0.3,3.4 -2.6,4.9 -3.4,2.3 -2,3.6 2.8,2.7 6.1,-1.2 8.9,1.5 3.9,3.6 -4.2,1.8 -8.3,5.9 -8.3,8.3 0,1.2 -1.6,3.7 -3.6,5.6 -2.4,2.3 -3.3,4 -3,5.3 0.8,3 -2.6,9.7 -6.8,13.4 -4.5,3.9 -7,3.8 -7.4,-0.2 -0.2,-1.6 -1,-4 -1.9,-5.2 -0.8,-1.3 -1.2,-3.1 -0.9,-4.2 1.4,-4.4 -10.7,-16.2 -21.1,-20.6 -10.3,-4.3 -15.3,-3.5 -22.7,3.7 -4.1,3.8 -4.5,4.7 -4,7.4 0.8,4 -0.8,4.5 -10.1,3.3 -3.8,-0.4 -12.6,-0.6 -19.5,-0.4 -40.4,1.5 -89.5,2.1 -92.7,1.2 -2,-0.5 -7.5,-0.7 -12.2,-0.4 -10.7,0.7 -32.6,1.4 -67.1,2.1 -14.6,0.3 -27.6,0.6 -29,0.7 -2.8,0.1 -73.2,-0.9 -121.5,-1.7 -26.6,-0.5 -109.4,-0.7 -233.5,-0.5 -17.3,0 -39.1,-0.2 -48.5,-0.5 -53,-1.7 -196.4,-2 -600,-1.2 -137.7,0.2 -159.5,-0.2 -159.5,-2.8 0,-1.8 8.6,-2.5 39,-3.1 14.6,-0.3 27.6,-0.8 29,-1.1 1.4,-0.3 3.9,-0.5 5.6,-0.4 2.9,0.2 5.3,-1.3 4.1,-2.5 -0.2,-0.3 -9.8,-0.7 -21.3,-0.9 -43,-0.9 -63.4,-2.1 -63.4,-4 0,-2.2 12.5,-3.4 39,-3.7 21.6,-0.2 73.3,-0.2 81.5,0.1 6.4,0.3 42.4,0.4 86.5,0.3 290.8,-0.4 444.2,0 518,1.5 16.8,0.3 94.2,0.7 172,0.8 77.8,0.2 146.5,0.5 152.5,0.8 8.4,0.4 121.8,2.1 135.5,2 38.4,-0.1 150.1,-3.6 151.8,-4.7 1.7,-1.1 17.7,-2.9 27.2,-3.1 12.7,-0.3 11.1,0 14.5,-2.9 2.3,-2 4.4,-2.6 10.4,-3.1 4.2,-0.3 9.9,-1.2 12.7,-2 2.8,-0.9 7.2,-1.4 9.7,-1.4 3.1,0.2 5.4,-0.4 7.2,-1.7 1.5,-1 4.4,-2.9 6.4,-4.1 2,-1.2 3.8,-3.1 4.1,-4.1 0.5,-1.9 0.7,-1.9 7.4,0.4 3.8,1.3 7.3,2.1 7.8,1.8 0.5,-0.3 3.6,0.8 7,2.5 7.4,3.8 9.7,3.9 12.8,0.6 1.6,-1.7 3.4,-2.5 5.7,-2.5 3.1,0 13.6,-5 14.9,-7.1 0.3,-0.5 1.5,-0.9 2.6,-0.9 3.1,0 10.9,-4 11.5,-5.9 1,-2.6 9.4,-10.2 11.1,-9.9 0.8,0.2 1.7,-0.3 2,-1.1 0.3,-0.8 -0.1,-1.2 -0.9,-0.9 -1.7,0.6 -4.9,-0.9 -4.9,-2.3 0,-0.5 1.9,-1.8 4.3,-2.8 4.7,-2 10.1,-8.9 9.1,-11.6 -1.4,-3.5 3.3,-7.3 11,-9 2.6,-0.6 2.8,-0.9 2.3,-4.2 -0.6,-3.7 0.9,-7.9 3.7,-10.2 0.9,-0.8 1.6,-2 1.6,-2.9 0,-0.8 2,-3.5 4.5,-5.9 2.5,-2.3 4.5,-4.9 4.5,-5.7 0,-0.8 1.9,-3.6 4.2,-6.1 2.4,-2.6 4.3,-5.2 4.4,-5.8 0,-0.7 0.2,-1.9 0.3,-2.7 0,-0.8 1.7,-2.6 3.5,-3.8 2.1,-1.4 3.7,-3.5 4.1,-5.2 0.3,-1.6 1.2,-3.1 2,-3.4 2.2,-0.8 10.5,-12.8 10.5,-15.1 0,-1.2 2.2,-5.5 5,-9.6 2.7,-4 5,-8.2 5,-9.2 0,-1.1 0.9,-3 1.9,-4.4 1.6,-1.9 1.8,-3 1,-5 -1,-2.6 0.6,-5.7 5,-9.7 1.2,-1.1 2.1,-2.5 2.1,-3.2 0,-0.7 1.1,-2.5 2.4,-4.1 1.3,-1.5 2.7,-4.3 3,-6 0.4,-1.8 1.2,-3.6 1.7,-3.9 1.7,-1 2.7,-4.8 1.8,-6.6 -0.7,-1.3 -0.3,-2.3 1.6,-4 2,-1.7 2.4,-2.8 2,-4.8 -0.4,-1.7 0.1,-3.5 1.2,-5.1 1,-1.3 2.9,-4.6 4.2,-7.2 1.2,-2.6 3.4,-5.5 4.7,-6.4 3.4,-2.2 4.6,-4.9 4.9,-10.5 0.1,-2.8 0.9,-5.6 1.9,-6.7 1.9,-2.1 7.6,-16.3 7.6,-19 0,-0.9 1.4,-2.8 3.1,-4 2.6,-1.9 3,-2.8 2.5,-5.2 -0.4,-1.9 0.1,-4 1.4,-6.2 2.5,-4.2 6.3,-15.5 5.6,-16.6 -0.3,-0.4 0.7,-2.8 2.3,-5.3 3.5,-5.6 4.5,-8.4 3.1,-9.3 -1.7,-1 -1.2,-4.1 1,-6 2.8,-2.5 5.6,-9 6.4,-15.1 0.5,-2.7 1.6,-6.9 2.6,-9.4 1,-2.5 2.3,-7.2 2.9,-10.5 2.5,-14.6 3.3,-21.5 2.8,-23.6 -0.3,-1.2 -0.2,-3 0.3,-3.9 0.5,-1 1.2,-5.5 1.5,-10.1 0.3,-4.6 0.9,-10.2 1.5,-12.4 0.5,-2.2 1.2,-5.4 1.6,-7 0.4,-1.7 1.3,-3.8 2.2,-4.7 1.2,-1.4 1.4,-3.3 0.9,-8.8 -0.5,-6.3 0.9,-14.8 3,-18.3 0.8,-1.4 3.3,1.5 3.3,3.8 z m -1612.9,106.4 c -1.5,2.7 -14.7,10.8 -15.9,9.7 -0.9,-1 1,-2.5 3.8,-3.1 1.7,-0.4 2.8,-1 2.6,-1.4 -0.7,-1.1 0.7,-2.7 4.4,-5 4.5,-2.7 6.4,-2.8 5.1,-0.2 z m -78.3,27.1 c 2.3,0 4.2,0.4 4.2,0.9 0,0.9 -4.8,2.6 -6.3,2.2 -0.5,-0.1 -3.5,0.6 -6.8,1.5 -5,1.4 -6.6,1.5 -10.4,0.4 -2.5,-0.7 -4.5,-1.5 -4.5,-1.9 0,-1.5 9.8,-3.9 14.5,-3.5 2.8,0.2 6.9,0.4 9.3,0.4 z m -73.9,31.3 c 4.7,0.7 8.6,1.8 8.9,2.5 0.5,1.6 -4.4,2 -9.3,0.8 -1.8,-0.5 -2.5,-0.2 -2.5,0.9 0,0.8 0.8,1.5 1.9,1.5 3.9,0 4.3,2.4 1.2,8 -2.2,4 -2.8,6.2 -2.4,8.7 0.3,1.8 0.3,3.3 -0.1,3.3 -1.9,0 -7.6,-7.8 -7.6,-10.4 0,-3 -4.1,-6.6 -7.4,-6.6 -3.5,0 -7.3,-3.1 -6.1,-4.9 0.8,-1.4 5.1,-1.4 7.6,0 2.7,1.4 5.6,0.4 4,-1.4 -0.8,-1 -0.7,-1.7 0.1,-2.5 1.4,-1.4 1.1,-1.4 11.7,0.1 z m -8,208.1 c 3.9,2 11.3,10.4 11,12.4 -0.2,0.9 0.1,2.7 0.5,4 1,3.1 -2.7,9 -6.2,9.8 -3.4,0.8 -5.4,2.3 -4.6,3.5 1,1.7 -0.9,10.2 -2.8,12.1 -1.4,1.4 -2.3,1.6 -3.8,0.8 -1.1,-0.6 -2,-1.8 -2,-2.6 0,-0.9 -1.1,-2.9 -2.4,-4.5 -3.9,-4.6 -7.9,-18.3 -7.1,-24.4 0.8,-6.6 2.3,-8.4 8.7,-10.6 6.4,-2.2 5.4,-2.2 8.7,-0.5 z M 3516,1630 c 0,0.5 -0.4,1 -1,1 -0.5,0 -1,-0.5 -1,-1 0,-0.6 0.5,-1 1,-1 0.6,0 1,0.4 1,1 z m -415,4.4 c 0,1.1 -1.9,1.5 -2.5,0.6 -0.3,-0.5 0.1,-1 0.9,-1 0.9,0 1.6,0.2 1.6,0.4 z m 212,1.1 c 0,1.6 -4.5,2.1 -5.4,0.6 -0.8,-1.2 0.4,-2.1 3.1,-2.1 1.4,0 2.3,0.6 2.3,1.5 z m -103.7,1 c -0.4,1.5 -3.6,1.2 -4.1,-0.3 -0.3,-0.9 0.3,-1.3 1.9,-1 1.3,0.1 2.3,0.7 2.2,1.3 z m 84.7,-0.5 c 0,0.5 -0.4,1 -1,1 -0.5,0 -1,-0.5 -1,-1 0,-0.6 0.5,-1 1,-1 0.6,0 1,0.4 1,1 z m 47,0 c 0,0.5 -0.7,1 -1.5,1 -0.8,0 -1.5,-0.5 -1.5,-1 0,-0.6 0.7,-1 1.5,-1 0.8,0 1.5,0.4 1.5,1 z m 3.4,1.1 c -0.3,0.5 -1,0.7 -1.5,0.3 -0.5,-0.3 -0.7,-1 -0.3,-1.5 0.3,-0.5 1,-0.7 1.5,-0.3 0.5,0.3 0.7,1 0.3,1.5 z m 260.4,4.2 c 0.4,2 -2.5,3.4 -4,1.9 -0.7,-0.7 -0.6,-1.5 0.3,-2.6 1.7,-1.8 3.3,-1.5 3.7,0.7 z m -1637,11.5 c 2.5,1.4 2.9,4.4 0.8,6.1 -0.8,0.7 -3.7,1.4 -6.5,1.6 -9.3,0.8 -11.7,3.9 -4,5.1 2.1,0.4 3.9,1.2 3.9,1.9 0,1.8 -7,2.4 -26.5,2.5 -40.6,0.1 -103,1.8 -152,4 -23.6,1.1 -66.4,2.9 -83.5,3.5 -5.8,0.2 -21.3,0.9 -34.5,1.5 -34.9,1.5 -119.5,4.9 -137.2,5.5 -8.3,0.3 -19.8,0.7 -25.5,1 -5.7,0.2 -18.6,0.7 -28.8,1 -10.2,0.3 -27,1 -37.5,1.5 -10.4,0.5 -35,1.2 -54.5,1.5 -19.5,0.3 -43.6,1 -53.5,1.4 -9.9,0.5 -22.7,0.9 -28.5,1 -5.8,0.1 -22.4,0.6 -37,1.1 -14.6,0.5 -32.3,0.9 -39.5,0.8 -7.1,0 -15.2,0.2 -18,0.6 -2.7,0.3 -14.9,0.8 -27,1.1 -20.7,0.4 -34.3,0.8 -73,2 -8.8,0.3 -28.1,0.7 -43,1 -14.8,0.2 -32.6,0.7 -39.5,1 -28.2,1.3 -35.6,1.5 -59.5,2 -30.9,0.5 -65.3,2.2 -76.3,3.6 -4.5,0.6 -8.8,0.9 -9.6,0.6 -0.7,-0.3 -3.1,-0.2 -5.2,0.3 -2.2,0.5 -11.2,0.5 -20.9,0 -12.5,-0.6 -17.4,-0.5 -18.4,0.3 -0.9,0.8 -6.6,1.2 -15.8,1.4 -7.9,0.1 -16.8,0.7 -19.7,1.3 -3,0.6 -8.5,0.8 -12.3,0.5 -4,-0.3 -8.1,-0.1 -9.7,0.5 -1.5,0.5 -9.3,1.3 -17.4,1.6 -8.1,0.3 -21,1 -28.7,1.5 -14.4,1 -19.1,1.2 -26,0.9 -2.2,-0.1 -6.3,0.1 -9.1,0.5 -3.4,0.5 -5.4,0.4 -5.8,-0.4 -0.9,-1.5 -6.2,-1.4 -8.9,0.1 -1.9,1.1 -19.5,3 -25.4,2.8 -6.3,-0.2 -10.6,-0.1 -18.8,0.5 -4.9,0.3 -9.7,0.5 -10.5,0.4 -3.3,-0.3 -15.8,0.1 -21.5,0.7 -12.2,1.2 -25.6,1.8 -33,1.5 -2.2,-0.1 -9.2,0.1 -15.5,0.4 -6.3,0.4 -17.1,0.8 -24,1 -8,0.2 -13.7,0.8 -16,1.8 -2.7,1.1 -6.4,1.3 -15.5,1 -6.6,-0.2 -12.7,-0.4 -13.5,-0.4 -11.2,0.6 -45.6,1.6 -70.2,2.2 -16.5,0.4 -20.2,-0.5 -11.8,-2.9 4.9,-1.4 13.2,-5.2 14.1,-6.5 0.3,-0.4 1.1,0.4 1.7,1.8 1,2.1 1.8,2.5 5.2,2.5 4.6,0 6.7,-0.9 10.6,-4.5 1.5,-1.4 3.1,-2.5 3.5,-2.5 0.5,0 2.3,1.4 4,3.1 l 3.2,3.2 8.1,-0.8 c 7.7,-0.8 14.1,-0.8 19.6,-0.3 1.8,0.2 2.8,-0.3 3.5,-2 1,-2.3 1.3,-2.3 9.5,-1.6 9.8,0.8 21.9,0.8 30.5,-0.1 6.7,-0.7 10.4,-0.7 22,-0.2 6.6,0.4 8.6,0.1 11.3,-1.5 3,-1.8 3.5,-1.9 7.5,-0.5 3.8,1.3 4.9,1.3 8.3,0.1 2.1,-0.8 5,-1.2 6.2,-0.9 1.3,0.3 4.9,-0.1 7.9,-1 3,-0.9 6.3,-1.3 7.3,-1 1,0.3 5.4,0.8 9.9,1 6.1,0.3 9.1,0 11.9,-1.3 2,-0.9 6.2,-1.7 9.2,-1.8 3,-0.2 7.1,-0.3 9,-0.4 1.9,-0.1 6.4,0 10,0.1 3.6,0.1 7.4,-0.2 8.5,-0.8 1.1,-0.6 5.4,-0.9 9.5,-0.7 4.1,0.2 8.4,0.3 9.5,0.2 1.1,0 3.8,0 6,0.1 9.9,0.4 17.9,0 19.9,-1.2 2.3,-1.3 9.5,-1.8 25.6,-1.6 7.7,0 11.7,-0.4 14.7,-1.6 3.7,-1.5 5.5,-1.5 15.4,-0.5 9.5,1 11.7,1 15.3,-0.3 2.2,-0.8 6.4,-1.8 9.1,-2.1 14.7,-1.8 18.4,-2.4 19.3,-3 1.1,-0.6 35.7,-2.7 51.2,-3.1 4.7,-0.1 10,-0.5 11.9,-0.9 3.8,-0.9 3.6,-0.9 37.8,-2.4 13.4,-0.6 24.6,-1.3 25,-1.5 0.5,-0.3 17,-0.8 36.8,-1.2 19.7,-0.3 36.2,-0.8 36.5,-1 0.5,-0.3 51.8,-1.8 57.5,-1.7 1.1,0 13.5,-0.4 27.5,-0.9 14,-0.6 34.1,-1.2 44.5,-1.4 10.5,-0.2 44.4,-1.3 75.5,-2.5 31.1,-1.2 66,-2.3 77.5,-2.6 11.6,-0.2 26,-0.6 32,-0.8 6.1,-0.3 26.1,-0.9 44.5,-1.5 81.7,-2.7 93.8,-3.2 98.5,-4.1 13.7,-2.6 23.6,-3.1 80.5,-4.6 33.8,-0.9 63.8,-1.7 66.5,-1.7 2.8,0.1 11.3,-0.3 19,-0.8 7.7,-0.5 19,-0.9 25,-1 6.1,0 14.6,-0.5 19,-1 4.5,-0.5 18.2,-1.1 30.5,-1.4 12.4,-0.3 27,-0.9 32.5,-1.5 5.5,-0.5 16.8,-1 25,-1 8.3,-0.1 21.1,-0.5 28.5,-1 17.3,-1.2 56.6,-2.7 93.5,-3.6 16,-0.4 38,-0.9 49,-1.3 31.7,-1 48.7,-0.7 51.3,0.7 z m 68.4,0.6 c 2,1.4 1.4,2.6 -1.2,2.6 -2,0 -4.3,-2.4 -3.3,-3.3 1,-1 2.6,-0.8 4.5,0.7 z m 1475.5,19.2 c -0.3,0.3 -1.2,0.4 -1.9,0.1 -0.8,-0.3 -0.5,-0.6 0.6,-0.6 1.1,-0.1 1.7,0.2 1.3,0.5 z M 306,1707 c 0,0.5 -0.7,1 -1.5,1 -0.8,0 -1.5,-0.5 -1.5,-1 0,-0.6 0.7,-1 1.5,-1 0.8,0 1.5,0.4 1.5,1 z m -52,5.5 c 0,0.8 -0.9,1.5 -2,1.5 -2.2,0 -2.6,1 -1,2.6 0.7,0.7 0.6,1.6 -0.3,2.8 -1,1.4 -1.7,1.5 -4,0.7 -1.6,-0.6 -4.2,-1.1 -5.8,-1.1 -4.6,0 -3.4,-1.5 2.9,-3.4 3.1,-1 6.6,-2.5 7.7,-3.2 2.4,-1.7 2.5,-1.7 2.5,0.1 z m 19.4,1.5 c 0.6,0 2.7,1.4 4.6,3.2 l 3.5,3.2 -4,0.7 c -4.7,0.8 -7.2,-0.3 -8.6,-3.7 -1.1,-3 -0.3,-4.8 1.8,-4 0.8,0.3 2,0.6 2.7,0.6 z m 32.6,0 c 1.3,0.9 1.2,1.3 -0.8,3 -2.7,2.2 -2.2,4 1.1,4 1.2,0 2.8,0.4 3.6,0.9 1.2,0.7 0.6,1.3 -2.2,2.7 -3.2,1.6 -4.4,1.6 -8.2,0.6 -2.5,-0.7 -6.7,-1.2 -9.4,-1.2 -2.7,0 -5.6,-0.3 -6.5,-0.6 -1.7,-0.7 -1,-3.4 0.9,-3.4 0.8,0 1.5,-1 1.7,-2.3 0.3,-2.2 0.9,-2.3 6.1,-1.1 1.8,0.4 3.3,0.1 4.5,-0.9 1.5,-1.3 4,-2.3 6.7,-2.6 0.6,0 1.7,0.4 2.5,0.9 z m 77.2,1.6 c 1.5,1 0.8,3.3 -1.2,3.9 -2.4,0.8 -2.5,1.8 -0.6,3.4 1.1,0.9 2,0.9 3.5,0.2 2.9,-1.6 4.6,-1.4 7.2,0.9 2.3,1.9 2.3,2.1 0.6,3.4 -1.2,1 -2.8,1.1 -5.2,0.6 -1.9,-0.4 -8.1,-0.5 -13.8,-0.3 -7.2,0.4 -10.6,0.2 -11.1,-0.6 -0.9,-1.3 -5.2,-1.5 -6.1,-0.2 -0.7,1.2 -20.9,0.4 -21.3,-0.8 -0.5,-1.6 6,-4.4 10.6,-4.7 2.4,-0.2 5,-0.8 5.8,-1.5 1,-0.8 1.8,-0.8 2.7,-0.1 0.6,0.5 3.1,1.6 5.4,2.2 3.4,1 5.1,1 8.8,0 4,-1.1 6.2,-3 3.5,-3 -2,0 -1,-1.9 1.8,-3.3 2.5,-1.3 7.3,-1.4 9.4,-0.1 z m -122.2,3.5 c 0,1.5 -3,2.3 -4.2,1.1 -0.6,-0.6 -0.7,-1.5 -0.4,-2 0.7,-1.2 4.6,-0.4 4.6,0.9 z m 57.5,3.9 c 0,1.8 -3.3,2.6 -4.8,1.1 -0.9,-0.9 -0.8,-1.4 0.3,-2.1 2.1,-1.4 4.5,-0.8 4.5,1 z m 10.5,1 c 0,0.5 -0.7,1 -1.5,1 -0.8,0 -1.5,-0.5 -1.5,-1 0,-0.6 0.7,-1 1.5,-1 0.8,0 1.5,0.4 1.5,1 z" />
      <path
         style="fill:#000000;stroke:none"
         inkscape:connector-curvature="0"
         id="path13547"
         d="m 2057.5,733 c -1.1,1.8 0.5,3.1 2.6,2 1.1,-0.6 1.7,-1.5 1.4,-2.1 -0.8,-1.2 -3.2,-1.2 -4,0.1 z" />
      <path
         style="fill:#000000;stroke:none"
         inkscape:connector-curvature="0"
         id="path13569"
         d="m 1934.7,1240.7 c -4.4,1.8 -4.4,3.7 0,4.1 3.8,0.4 8.6,-3.2 6.3,-4.8 -1.9,-1.2 -1.7,-1.2 -6.3,0.7 z" />
      <path
         style="fill:#000000;stroke:none"
         inkscape:connector-curvature="0"
         id="path13573"
         d="m 1706.8,1099.6 c -1,0.9 0.4,4.4 1.7,4.4 0.8,0 1,-0.9 0.7,-2.5 -0.4,-2.4 -1.3,-3.1 -2.4,-1.9 z" />
      <path
         style="fill:#000000;stroke:none"
         inkscape:connector-curvature="0"
         id="path13575"
         d="m 3653.5,1556 c 0.3,0.5 0.8,1 1.1,1 0.2,0 0.4,-0.5 0.4,-1 0,-0.6 -0.5,-1 -1.1,-1 -0.5,0 -0.7,0.4 -0.4,1 z" />
      <path
         style="fill:#000000;stroke:none"
         inkscape:connector-curvature="0"
         id="path13577"
         d="m 3497.7,1651 c -2.2,1.8 -2.5,2.5 -1.6,3.6 2.1,2.5 7.1,3.3 10.2,1.5 1.5,-0.8 2.7,-1.8 2.8,-2.1 0,-0.3 0.2,-1.3 0.4,-2.3 0.2,-1.1 -0.3,-1.7 -1.5,-1.7 -0.9,0 -3.1,-0.3 -4.6,-0.6 -2.1,-0.4 -3.7,0.1 -5.7,1.6 z" />
      <path
         style="fill:#000000;stroke:none"
         inkscape:connector-curvature="0"
         id="path13579"
         d="m 2499,1659.5 c 0,0.8 0.5,1.5 1,1.5 0.6,0 1,-0.7 1,-1.5 0,-0.8 -0.4,-1.5 -1,-1.5 -0.5,0 -1,0.7 -1,1.5 z" />
      <path
         style="fill:#000000;stroke:none"
         inkscape:connector-curvature="0"
         id="path13581"
         d="m 2677,1659.5 c -1,1.3 -0.9,1.5 0.9,1.5 1.1,0 2.1,-0.4 2.1,-0.9 0,-1.8 -1.8,-2.1 -3,-0.6 z" />
      <path
         style="fill:#000000;stroke:none"
         inkscape:connector-curvature="0"
         id="path13583"
         d="m 3450,1659.2 -2.5,1 2.4,0.9 c 3,1.2 17.6,0 19.8,-1.6 1.4,-1 0,-1.3 -7.7,-1.3 -5.2,0 -10.6,0.4 -12,1 z" />
      <path
         style="fill:#000000;stroke:none"
         inkscape:connector-curvature="0"
         id="path13585"
         d="m 2386.7,1659.6 c -0.4,0.5 -1.8,0.9 -2.9,0.9 -1.2,0 -2.3,0.6 -2.6,1.4 -0.4,1.1 1,1.3 6.6,0.9 6.8,-0.3 9.2,-1.1 7.9,-2.4 -1,-1 -8.2,-1.6 -9,-0.8 z" />
      <path
         style="fill:#000000;stroke:none"
         inkscape:connector-curvature="0"
         id="path13587"
         d="m 2399.1,1659.9 c -2,1.3 0.5,2.4 3.7,1.6 2,-0.5 2.3,-0.8 1.1,-1.6 -1.8,-1.1 -3,-1.1 -4.8,0 z" />
      <path
         style="fill:#000000;stroke:none"
         inkscape:connector-curvature="0"
         id="path13589"
         d="m 2408.2,1659.7 c -1.9,0.7 -0.4,2.3 2.3,2.3 2.9,0 4.1,-1.6 1.9,-2.4 -1.8,-0.7 -2.3,-0.7 -4.2,0.1 z" />
      <path
         style="fill:#000000;stroke:none"
         inkscape:connector-curvature="0"
         id="path13591"
         d="m 2508,1660 c 0,0.5 0.7,1 1.6,1 0.8,0 1.2,-0.5 0.9,-1 -0.3,-0.6 -1,-1 -1.6,-1 -0.5,0 -0.9,0.4 -0.9,1 z" />
      <path
         style="fill:#000000;stroke:none"
         inkscape:connector-curvature="0"
         id="path13593"
         d="m 2701.8,1660.2 c 1.7,0.8 2.6,0.8 3.4,0 0.9,-0.9 0.4,-1.2 -2.2,-1.1 -3.3,0 -3.4,0.1 -1.2,1.1 z" />
      <path
         style="fill:#000000;stroke:none"
         inkscape:connector-curvature="0"
         id="path13595"
         d="m 2720.1,1660.6 c 0,1.1 0.3,1.4 0.6,0.6 0.3,-0.7 0.2,-1.6 -0.1,-1.9 -0.3,-0.4 -0.6,0.2 -0.5,1.3 z" />
      <path
         style="fill:#000000;stroke:none"
         inkscape:connector-curvature="0"
         id="path13597"
         d="m 3427,1660.4 c 0,0.9 0.6,1.6 1.4,1.6 0.8,0 2.1,0.3 3,0.6 1.1,0.4 1.6,0.1 1.6,-1 0,-0.9 -0.6,-1.6 -1.4,-1.6 -0.8,0 -2.1,-0.3 -3,-0.6 -1.1,-0.4 -1.6,-0.1 -1.6,1 z" />
      <path
         style="fill:#000000;stroke:none"
         inkscape:connector-curvature="0"
         id="path13599"
         d="m 3436,1660 c -1.2,0.8 -1.2,1.2 -0.3,1.8 1.8,1.2 8.5,0.2 8,-1.2 -0.5,-1.5 -5.8,-1.9 -7.7,-0.6 z" />
      <path
         style="fill:#000000;stroke:none"
         inkscape:connector-curvature="0"
         id="path13601"
         d="m 2194.8,1660.8 c -1.6,0.2 -2.8,0.8 -2.8,1.3 0,1.1 -0.1,1.1 11.8,1.1 8.5,0.1 11.3,-0.4 10,-1.7 -0.6,-0.6 -15.5,-1.2 -19,-0.7 z" />
      <path
         style="fill:#000000;stroke:none"
         inkscape:connector-curvature="0"
         id="path13603"
         d="m 2223.3,1661 c -4.7,1.9 -2.3,3 6.8,3 6.8,0 9,-0.3 8.7,-1.3 -0.8,-2.2 -11.2,-3.4 -15.5,-1.7 z" />
      <path
         style="fill:#000000;stroke:none"
         inkscape:connector-curvature="0"
         id="path13605"
         d="m 2258.6,1660.9 c -0.7,1 3.8,3.1 6.7,3.1 1.2,-0.1 3.3,-0.7 4.6,-1.4 2.3,-1.3 2.3,-1.3 -1.5,-1.9 -5.4,-0.9 -9.2,-0.9 -9.8,0.2 z" />
      <path
         style="fill:#000000;stroke:none"
         inkscape:connector-curvature="0"
         id="path13607"
         d="m 2275,1661.2 c 0,1.2 2,1.6 9.2,2.2 5.6,0.4 9.6,0.2 10.2,-0.4 1.6,-1.6 0.6,-1.8 -9.7,-2.6 -8.2,-0.6 -9.7,-0.5 -9.7,0.8 z" />
      <path
         style="fill:#000000;stroke:none"
         inkscape:connector-curvature="0"
         id="path13609"
         d="m 2307.7,1660.7 c -1.4,1.3 -0.6,2.3 1.8,2.3 1.6,0 2.5,-0.6 2.5,-1.5 0,-1.5 -3.1,-2.1 -4.3,-0.8 z" />
      <path
         style="fill:#000000;stroke:none"
         inkscape:connector-curvature="0"
         id="path13611"
         d="m 2319,1661.5 c 0,1.9 5.7,3 7.5,1.5 0.8,-0.6 1.9,-0.9 2.5,-0.5 1.3,0.8 11,0.9 11.8,0.1 1.3,-1.4 -1.5,-1.9 -11.3,-2.1 -8.1,-0.2 -10.5,0 -10.5,1 z" />
      <path
         style="fill:#000000;stroke:none"
         inkscape:connector-curvature="0"
         id="path13613"
         d="m 2353,1661 c -1.1,0.7 -0.6,1 2,1 1.9,0 4.2,-0.5 5,-1 1.1,-0.7 0.6,-1 -2,-1 -1.9,0 -4.2,0.5 -5,1 z" />
      <path
         style="fill:#000000;stroke:none"
         inkscape:connector-curvature="0"
         id="path13615"
         d="m 2433.5,1661 c 0.3,0.5 1,1 1.6,1 0.5,0 0.9,-0.5 0.9,-1 0,-0.6 -0.7,-1 -1.6,-1 -0.8,0 -1.2,0.4 -0.9,1 z" />
      <path
         style="fill:#000000;stroke:none"
         inkscape:connector-curvature="0"
         id="path13617"
         d="m 2669,1661 c 0,0.5 0.5,1 1,1 0.6,0 1,-0.5 1,-1 0,-0.6 -0.4,-1 -1,-1 -0.5,0 -1,0.4 -1,1 z" />
      <path
         style="fill:#000000;stroke:none"
         inkscape:connector-curvature="0"
         id="path13619"
         d="m 2249,1662.5 c 0,1 1,1.5 3,1.5 2,0 3,-0.5 3,-1.5 0,-1 -1,-1.5 -3,-1.5 -2,0 -3,0.5 -3,1.5 z" />
      <path
         style="fill:#000000;stroke:none"
         inkscape:connector-curvature="0"
         id="path13621"
         d="m 2298.3,1662.1 c 1.1,0.7 2.3,0.7 3.5,0 1.4,-0.9 1.1,-1 -1.8,-1 -2.9,0 -3.2,0.1 -1.7,1 z" />
      <path
         style="fill:#000000;stroke:none"
         inkscape:connector-curvature="0"
         id="path13623"
         d="m 3417,1662 c 0,0.5 0.9,1 2,1 1.1,0 2,-0.5 2,-1 0,-0.6 -0.9,-1 -2,-1 -1.1,0 -2,0.4 -2,1 z" />
      <path
         style="fill:#000000;stroke:none"
         inkscape:connector-curvature="0"
         id="path13625"
         d="m 1939.6,1661.9 c -1.6,0.3 -3.1,1.2 -3.3,1.8 -0.3,0.9 0.5,1.1 2.9,0.7 3.6,-0.7 5.5,-1.9 4.1,-2.6 -0.4,-0.2 -2.1,-0.2 -3.7,0.1 z" />
      <path
         style="fill:#000000;stroke:none"
         inkscape:connector-curvature="0"
         id="path13627"
         d="m 1870.5,1663.1 c -1.6,0.5 -4.7,0.7 -6.8,0.4 -2.2,-0.3 -5.4,-0.3 -7.3,0.1 -2.8,0.5 -3.2,0.9 -2.3,2 1.4,1.7 5.7,1.8 9.5,0.3 2,-0.7 3.4,-0.7 4.9,0.1 2.9,1.5 13,0 13,-2 0,-1.8 -6.5,-2.4 -11,-0.9 z" />
      <path
         style="fill:#000000;stroke:none"
         inkscape:connector-curvature="0"
         id="path13629"
         d="m 1892,1664 c 0,0.5 0.7,1 1.5,1 0.8,0 1.5,-0.5 1.5,-1 0,-0.6 -0.7,-1 -1.5,-1 -0.8,0 -1.5,0.4 -1.5,1 z" />
      <path
         style="fill:#000000;stroke:none"
         inkscape:connector-curvature="0"
         id="path13631"
         d="m 1931,1664 c 0,0.5 0.7,1 1.5,1 0.8,0 1.5,-0.5 1.5,-1 0,-0.6 -0.7,-1 -1.5,-1 -0.8,0 -1.5,0.4 -1.5,1 z" />
      <path
         style="fill:#000000;stroke:none"
         inkscape:connector-curvature="0"
         id="path13633"
         d="m 1806.5,1664.7 c -4.5,0.9 -5.1,1.5 -3,2.3 2.9,1.2 8.3,1.2 9,-0.1 0.4,-0.6 0.5,-1.2 0.4,-1.3 -0.9,-0.8 -4.6,-1.3 -6.4,-0.9 z" />
      <path
         style="fill:#000000;stroke:none"
         inkscape:connector-curvature="0"
         id="path13635"
         d="m 1819.2,1665.2 c 0.5,1.5 6.8,2.4 6.8,1 0,-1.2 -2.4,-2.2 -5.2,-2.2 -1.1,0 -1.8,0.5 -1.6,1.2 z" />
      <path
         style="fill:#000000;stroke:none"
         inkscape:connector-curvature="0"
         id="path13637"
         d="m 1829.5,1665 c -0.7,1.2 -0.7,1.2 7,1.2 3.2,0 6.1,-0.5 6.3,-1 0.4,-1.3 -12.5,-1.5 -13.3,-0.2 z" />
      <path
         style="fill:#000000;stroke:none"
         inkscape:connector-curvature="0"
         id="path13639"
         d="m 1779.2,1665.8 c -4.3,1.3 -1.8,2.7 4.2,2.4 6.5,-0.2 7.8,-0.8 5.6,-2.2 -1.7,-1.1 -6.3,-1.1 -9.8,-0.2 z" />
      <path
         style="fill:#000000;stroke:none"
         inkscape:connector-curvature="0"
         id="path13641"
         d="m 1799,1666 c 0,0.5 0.5,1 1.1,1 0.5,0 0.7,-0.5 0.4,-1 -0.3,-0.6 -0.8,-1 -1.1,-1 -0.2,0 -0.4,0.4 -0.4,1 z" />
      <path
         style="fill:#000000;stroke:none"
         inkscape:connector-curvature="0"
         id="path13643"
         d="m 1762.5,1667.1 c -1.6,0.6 -6,0.8 -9.7,0.4 -9,-0.7 -20.8,0.4 -20.8,2 0,0.9 4.5,1.1 18.8,0.8 17.7,-0.4 24.9,-1.4 23.6,-3.4 -0.7,-1.2 -8,-1 -11.9,0.2 z" />
      <path
         style="fill:#000000;stroke:none"
         inkscape:connector-curvature="0"
         id="path13645"
         d="m 1711,1670.5 c 0,0.8 0.2,1.5 0.4,1.5 0.2,0 0.6,-0.7 1,-1.5 0.3,-0.8 0.1,-1.5 -0.4,-1.5 -0.6,0 -1,0.7 -1,1.5 z" />
      <path
         style="fill:#000000;stroke:none"
         inkscape:connector-curvature="0"
         id="path13647"
         d="m 1697.7,1670.6 c -0.9,1 0.2,2.4 1.9,2.4 0.8,0 1.4,-0.7 1.4,-1.5 0,-1.5 -2.1,-2.1 -3.3,-0.9 z" />
      <path
         style="fill:#000000;stroke:none"
         inkscape:connector-curvature="0"
         id="path13649"
         d="m 1676,1672 c 0,0.5 0.5,1 1,1 0.6,0 1,-0.5 1,-1 0,-0.6 -0.4,-1 -1,-1 -0.5,0 -1,0.4 -1,1 z" />
      <path
         style="fill:#000000;stroke:none"
         inkscape:connector-curvature="0"
         id="path13651"
         d="m 1601.7,1673.6 c -0.2,0.2 -2.1,0.5 -4.1,0.6 -4.1,0.1 -5.2,1 -3.3,2.6 0.8,0.7 3.9,0.7 9.7,0 8.1,-0.9 9.8,-1.4 8.9,-2.2 -0.7,-0.6 -10.7,-1.5 -11.2,-1 z" />
      <path
         style="fill:#000000;stroke:none"
         inkscape:connector-curvature="0"
         id="path13653"
         d="m 1619.7,1673.7 c -1.7,1.6 -0.4,2.4 3.5,2.1 5.5,-0.4 6.4,-2.8 1.1,-2.8 -2.2,0 -4.3,0.3 -4.6,0.7 z" />
      <path
         style="fill:#000000;stroke:none"
         inkscape:connector-curvature="0"
         id="path13655"
         d="m 1637,1674 c 0,0.5 0.5,1 1,1 0.6,0 1,-0.5 1,-1 0,-0.6 -0.4,-1 -1,-1 -0.5,0 -1,0.4 -1,1 z" />
      <path
         style="fill:#000000;stroke:none"
         inkscape:connector-curvature="0"
         id="path13657"
         d="m 1568.5,1675 c -6,0.4 -11.1,0.8 -11.1,0.9 -0.1,0 -0.5,0.8 -0.8,1.7 -0.6,1.5 0.4,1.6 10.1,0.9 6,-0.4 12.5,-0.7 14.5,-0.6 2,0.1 3.9,-0.3 4.3,-0.8 0.6,-1.1 -2.7,-3.2 -4.7,-2.9 -0.7,0.1 -6.2,0.5 -12.3,0.8 z" />
      <path
         style="fill:#000000;stroke:none"
         inkscape:connector-curvature="0"
         id="path13659"
         d="m 1533.6,1677.5 c -0.4,1.2 0.3,1.5 3.4,1.5 2.9,0 4,-0.4 4,-1.5 0,-1 -1,-1.5 -3.4,-1.5 -2.1,0 -3.6,0.6 -4,1.5 z" />
      <path
         style="fill:#000000;stroke:none"
         inkscape:connector-curvature="0"
         id="path13661"
         d="m 1479.2,1678.9 c -1.1,0.7 -1,1 0.3,1.5 2.3,0.9 2.5,0.8 2.5,-0.9 0,-1.7 -0.9,-1.9 -2.8,-0.6 z" />
      <path
         style="fill:#000000;stroke:none"
         inkscape:connector-curvature="0"
         id="path13663"
         d="m 1488.7,1678.6 c -0.9,1 0.2,2.4 1.9,2.4 0.8,0 1.4,-0.7 1.4,-1.5 0,-1.5 -2.1,-2.1 -3.3,-0.9 z" />
      <path
         style="fill:#000000;stroke:none"
         inkscape:connector-curvature="0"
         id="path13665"
         d="m 1508,1678.4 c 0,0.2 0.7,0.6 1.5,1 0.8,0.3 1.5,0.1 1.5,-0.4 0,-0.6 -0.7,-1 -1.5,-1 -0.8,0 -1.5,0.2 -1.5,0.4 z" />
      <path
         style="fill:#000000;stroke:none"
         inkscape:connector-curvature="0"
         id="path13667"
         d="m 1529,1679 c 0,0.5 0.7,1 1.5,1 0.8,0 1.5,-0.5 1.5,-1 0,-0.6 -0.7,-1 -1.5,-1 -0.8,0 -1.5,0.4 -1.5,1 z" />
      <path
         style="fill:#000000;stroke:none"
         inkscape:connector-curvature="0"
         id="path13669"
         d="m 1440,1681.5 c 0,0.8 0.7,1.5 1.5,1.5 0.8,0 1.5,-0.7 1.5,-1.5 0,-0.8 -0.7,-1.5 -1.5,-1.5 -0.8,0 -1.5,0.7 -1.5,1.5 z" />
      <path
         style="fill:#000000;stroke:none"
         inkscape:connector-curvature="0"
         id="path13671"
         d="m 1452,1681 c 0,1.3 2,1.3 4,0 1.2,-0.8 0.9,-1 -1.2,-1 -1.6,0 -2.8,0.4 -2.8,1 z" />
      <path
         style="fill:#000000;stroke:none"
         inkscape:connector-curvature="0"
         id="path13673"
         d="m 1406,1682 c 0,0.5 0.5,1 1,1 0.6,0 1,-0.5 1,-1 0,-0.6 -0.4,-1 -1,-1 -0.5,0 -1,0.4 -1,1 z" />
      <path
         style="fill:#000000;stroke:none"
         inkscape:connector-curvature="0"
         id="path13675"
         d="m 2315,979.5 c 0,0.9 0.6,1.2 1.5,0.9 0.8,-0.4 1.5,-1 1.5,-1.5 0,-0.5 -0.7,-0.9 -1.5,-0.9 -0.8,0 -1.5,0.7 -1.5,1.5 z" />
      <path
         style="fill:#000000;stroke:none"
         inkscape:connector-curvature="0"
         id="path13677"
         d="m 2303,1038 c 0,0.5 0.7,1 1.6,1 0.8,0 1.2,-0.5 0.9,-1 -0.3,-0.6 -1,-1 -1.6,-1 -0.5,0 -0.9,0.4 -0.9,1 z" />
      <path
         style="fill:#000000;stroke:none"
         inkscape:connector-curvature="0"
         id="path13683"
         d="m 3721.4,1109.2 c -1.1,1.8 2.7,4 6,3.4 3.6,-0.8 4,-1.1 3.3,-3.1 -0.8,-1.8 -8.2,-2.1 -9.3,-0.3 z" />
      <path
         style="fill:#000000;stroke:none"
         inkscape:connector-curvature="0"
         id="path13685"
         d="m 3736.5,1109.5 c -1.8,1.4 -1.8,1.6 -0.2,3.2 1.3,1.3 3.2,1.7 7.9,1.5 9.3,-0.4 9.9,-2.1 1.8,-4.9 -4.6,-1.6 -7.1,-1.6 -9.5,0.2 z" />
      <path
         style="fill:#000000;stroke:none"
         inkscape:connector-curvature="0"
         id="path13687"
         d="m 3794.5,1116 c -0.8,1.4 0.3,3 2.1,3 1.6,0 1.6,-0.2 0.8,-2.4 -0.7,-1.8 -2,-2.1 -2.9,-0.6 z" />
      <path
         style="fill:#000000;stroke:none"
         inkscape:connector-curvature="0"
         id="path13691"
         d="m 3614.7,1129.5 c 1,2.1 2.4,3.5 3.5,3.5 2.6,0 2.2,-2.5 -0.8,-4.9 -3.8,-3 -4.6,-2.6 -2.7,1.4 z" />
      <path
         style="fill:#000000;stroke:none"
         inkscape:connector-curvature="0"
         id="path13693"
         d="m 58,1145.5 c 0,0.8 0.5,1.5 1,1.5 0.6,0 1,-0.7 1,-1.5 0,-0.8 -0.4,-1.5 -1,-1.5 -0.5,0 -1,0.7 -1,1.5 z" />
      <path
         style="fill:#000000;stroke:none"
         inkscape:connector-curvature="0"
         id="path13695"
         d="m 3802,1147.2 c 0,4.5 6,21.8 7.5,21.8 1.9,0 1.9,-3.2 0.1,-9 -0.8,-2.5 -2.1,-6.7 -2.8,-9.5 -1.5,-5.4 -4.8,-7.7 -4.8,-3.3 z" />
      <path
         style="fill:#000000;stroke:none"
         inkscape:connector-curvature="0"
         id="path13703"
         d="m 3831.3,1178.2 c 0.2,0.7 1,1.3 1.7,1.3 0.7,0 1.5,-0.6 1.8,-1.3 0.2,-0.7 -0.5,-1.2 -1.8,-1.2 -1.3,0 -2,0.5 -1.7,1.2 z" />
      <path
         style="fill:#000000;stroke:none"
         inkscape:connector-curvature="0"
         id="path13707"
         d="m 125.7,1201 c -5,1.5 -5.7,2.7 -5.3,8.8 0.4,5 1.5,8.5 4.6,14.3 0.5,0.9 1.2,8.6 1.6,17.1 l 0.7,15.4 -3.7,3.1 c -4.3,3.8 -4.4,4.6 -1.1,6.1 3,1.4 3.2,2.9 0.6,5.6 -1.7,1.8 -1.8,2.7 -1.1,6.1 0.5,2.2 1.4,8.7 2,14.5 0.6,5.8 1.2,12.1 1.5,14 2,16 2.6,20.4 3,21.1 0.3,0.4 1,4.1 1.5,8.1 0.5,4 1.9,13.1 3,20.3 1.1,7.1 2.5,17.7 3.1,23.5 0.6,5.8 1.2,12.3 1.4,14.6 2.2,22.1 3.4,73.5 2.1,94.4 -2,33.6 -2.1,35.9 -3.5,45.5 -0.6,4.4 -1.5,12.7 -2.1,18.5 -0.5,5.8 -1.4,14.3 -1.9,19 -0.5,4.7 -1.2,13.8 -1.5,20.2 -0.3,7.6 -1.1,12.8 -2,14.7 -1,1.8 -1.6,6.3 -1.8,11.8 -0.4,13.1 1.1,14.2 8.8,6.3 2.7,-2.7 5.4,-5 6.1,-5 0.6,0 2.5,-1.1 4.2,-2.5 3,-2.6 3.8,-2.7 16.2,-2.5 2.6,0 5.2,0.6 5.7,1.3 0.6,0.7 1.2,3.9 1.3,7.2 0.1,4.4 0.7,6.6 2.2,8.2 1.1,1.2 1.7,2.9 1.4,3.7 -0.5,1.2 0.7,2.3 4.2,4.1 6.8,3.4 8,2.3 9.3,-8.6 0.5,-4.6 1.6,-11.2 2.4,-14.6 0.8,-3.4 1.4,-7.9 1.4,-10 0,-2.1 0.6,-8.8 1.4,-14.8 0.8,-6.1 2.2,-17.5 3,-25.5 0.9,-8 2.1,-19.9 2.8,-26.5 1.9,-17.7 1.5,-92.7 -0.6,-115.5 -0.9,-9.6 -1.8,-19.1 -2.1,-21 -0.7,-5.3 -1.4,-10.6 -2.5,-20.5 -0.5,-5 -1.4,-10.8 -1.9,-13 -1.3,-5.1 -1.7,-7.4 -3.2,-16 -0.7,-3.9 -1.8,-8.4 -2.5,-10.1 -0.8,-1.8 -1.6,-5.2 -1.8,-7.5 -1.3,-10.6 -4.1,-26.2 -5,-27.8 -0.6,-0.8 -2.7,-30.7 -3.1,-42.1 -0.7,-21 -1.8,-37.3 -3,-44.1 -0.8,-4.2 -1.2,-8.5 -0.9,-9.6 1.3,-4.8 -8.4,-7 -14.1,-3.3 -4,2.7 -4.7,2.6 -11.3,-1.7 -3.1,-2 -7.9,-4.2 -10.7,-4.9 -5.6,-1.5 -5,-1.5 -8.8,-0.4 z m 46.6,256.5 c -0.6,1.7 -2.9,2 -3.8,0.6 -0.6,-1.1 2.5,-3.2 3.7,-2.5 0.4,0.3 0.5,1.1 0.1,1.9 z m 2.1,5.6 c 3,3.6 2.9,2.8 1.2,10.1 -0.7,3.2 -1.2,7.4 -1,9.5 0.3,3.8 -0.7,5.3 -3.8,5.3 -4.3,0 -6.5,-8.3 -3.6,-13 1,-1.6 1,-2.4 0,-4 -1.6,-2.6 -1.5,-3.5 0.4,-7.6 2,-4.2 3.5,-4.3 6.8,-0.3 z m -1,30.5 c 2.2,2.1 2,4.7 -0.4,6.9 -1.1,1 -1.9,2.5 -1.8,3.4 0.3,1.7 -2.4,2.6 -4.9,1.7 -1.4,-0.6 -1.4,-0.9 0.1,-3.1 1.3,-2 1.4,-2.9 0.4,-5.1 -1.1,-2.3 -1,-2.8 0.7,-4 2.4,-1.8 4,-1.8 5.9,0.2 z m -1.8,81.8 c 0.6,1.5 -2.2,4.9 -4.7,5.9 -1,0.4 -0.9,0.6 0.3,0.6 3.2,0.2 4.6,3.7 3.7,9.2 -0.4,2.7 -0.6,5.6 -0.3,6.3 0.6,1.5 -4.9,3.9 -6.1,2.8 -0.4,-0.4 -1,-0.7 -1.3,-0.8 -0.4,0 -2.4,-0.5 -4.6,-1.2 -6.2,-1.8 -8.4,-6.3 -4.7,-9.6 1.1,-1 2.1,-3 2.3,-4.5 0.3,-2.4 0.6,-2.6 4.6,-2.3 3.8,0.3 4.2,0.2 4.2,-2 0,-2.7 0.9,-4.3 3,-5.1 2.4,-0.9 3,-0.8 3.6,0.7 z" />
      <path
         style="fill:#000000;stroke:none"
         inkscape:connector-curvature="0"
         id="path13709"
         d="m 257.3,1201.2 c -2.7,1.3 -2.9,2.3 -0.8,3.2 2.1,0.8 6.7,-1.2 6.2,-2.7 -0.5,-1.6 -2.7,-1.8 -5.4,-0.5 z" />
      <path
         style="fill:#000000;stroke:none"
         inkscape:connector-curvature="0"
         id="path13727"
         d="m 2245,1460 c 0,0.5 0.7,1 1.5,1 0.8,0 1.5,-0.5 1.5,-1 0,-0.6 -0.7,-1 -1.5,-1 -0.8,0 -1.5,0.4 -1.5,1 z" />
      <path
         style="fill:#000000;stroke:none"
         inkscape:connector-curvature="0"
         id="path13735"
         d="m 3484,1625.5 -3.5,1.4 4.5,-0.2 c 2.5,-0.1 4.4,-0.6 4.3,-1.2 -0.2,-1.5 -1.5,-1.5 -5.3,0 z" />
      <path
         style="fill:#000000;stroke:none"
         inkscape:connector-curvature="0"
         id="path13737"
         d="m 3427,1627.2 -2.5,1 2.3,0.9 c 2.3,0.9 5.2,0.3 5.2,-1.1 0,-1.4 -2.4,-1.8 -5,-0.8 z" />
      <path
         style="fill:#000000;stroke:none"
         inkscape:connector-curvature="0"
         id="path13739"
         d="m 145.5,1629.1 c -1.7,0.4 -6.2,3.6 -10.2,6.9 -6.6,5.6 -7.2,6.5 -9.7,13.7 l -2.5,7.7 4.9,4.6 c 2.8,2.6 5,5.4 5,6.2 0,3.2 3.8,3.1 7.4,0 1.9,-1.6 4.8,-3.8 6.6,-4.8 2,-1.2 2.9,-2.5 2.7,-3.5 -0.8,-2.8 0.5,-3.6 8.8,-5.2 7,-1.5 8.2,-1.5 10.2,-0.2 5,3.3 9.1,0.3 7.9,-5.9 -0.9,-4.6 -3.1,-7.3 -7.4,-8.7 -2,-0.6 -5.4,-2.7 -7.4,-4.5 -6.4,-5.7 -11.5,-7.7 -16.3,-6.3 z" />
      <path
         style="fill:#000000;stroke:none"
         inkscape:connector-curvature="0"
         id="path13741"
         d="m 1993.3,1683.2 c 0.2,0.7 1.2,1.3 2.2,1.3 1,0 2,-0.6 2.3,-1.3 0.2,-0.7 -0.6,-1.2 -2.3,-1.2 -1.7,0 -2.5,0.5 -2.2,1.2 z" />
      <path
         style="fill:#000000;stroke:none"
         inkscape:connector-curvature="0"
         id="path13743"
         d="m 2115.7,1684.5 c 2.7,3.7 12.2,4.8 11.1,1.3 -0.5,-1.5 -6.4,-3.6 -10.1,-3.7 -2.8,-0.1 -2.8,-0.1 -1,2.4 z" />
    </g>
  </g>
</svg>
