<?xml version="1.0" standalone="no"?>
<!DOCTYPE svg PUBLIC "-//W3C//DTD SVG 20010904//EN"
 "http://www.w3.org/TR/2001/REC-SVG-20010904/DTD/svg10.dtd">
<svg version="1.0" xmlns="http://www.w3.org/2000/svg"
 width="2110.077235pt" height="2271.237747pt" viewBox="0 0 2110.077235 2271.237747"
 preserveAspectRatio="xMidYMid meet">
<metadata>
Created by potrace 1.13, written by Peter Selinger 2001-2015
</metadata>
<g transform="translate(-22.435429,2362.511916) scale(0.100000,-0.100000)"
fill="#000000" stroke="none">
<path d="M9050 23619 c-25 -5 -90 -13 -145 -18 -155 -15 -206 -22 -257 -36
-26 -8 -105 -24 -175 -35 -71 -12 -153 -29 -183 -37 -30 -8 -93 -26 -140 -39
-47 -12 -130 -39 -185 -59 -55 -20 -237 -83 -405 -140 -286 -97 -359 -125
-680 -260 -203 -86 -497 -228 -650 -315 -88 -50 -293 -160 -297 -160 -3 0 -31
-15 -62 -34 -31 -19 -123 -72 -206 -119 -335 -188 -566 -326 -880 -527 -126
-81 -243 -154 -260 -164 -29 -16 -65 -40 -309 -209 -143 -99 -464 -348 -600
-466 -54 -47 -135 -117 -179 -156 -44 -38 -129 -115 -187 -171 -110 -105 -152
-134 -193 -134 -33 0 -197 -77 -197 -92 1 -7 7 -24 15 -38 33 -57 23 -76 -103
-205 -467 -478 -912 -1061 -1242 -1625 -129 -221 -147 -253 -263 -470 -52 -96
-143 -282 -176 -360 -128 -299 -155 -363 -181 -430 -12 -30 -27 -68 -35 -85
-14 -34 -111 -334 -149 -465 -14 -47 -46 -152 -71 -235 -26 -82 -50 -166 -55
-185 -7 -34 -32 -124 -65 -240 -8 -30 -24 -93 -35 -140 -10 -47 -25 -112 -33
-145 -34 -140 -77 -347 -92 -435 -8 -52 -24 -138 -35 -190 -25 -128 -47 -288
-59 -445 -17 -203 -19 -226 -30 -295 -29 -194 -36 -640 -13 -920 7 -74 18
-220 26 -325 18 -226 31 -340 50 -455 8 -47 23 -139 35 -205 11 -66 29 -174
40 -240 45 -266 128 -664 187 -895 9 -36 25 -101 36 -145 11 -44 28 -109 39
-145 10 -36 21 -83 25 -105 4 -22 20 -80 35 -130 16 -49 36 -123 44 -165 9
-41 27 -111 40 -155 48 -156 87 -291 107 -365 11 -41 42 -140 69 -220 101
-299 135 -395 141 -406 4 -6 25 -64 48 -130 22 -65 49 -138 60 -161 11 -24 20
-45 20 -48 0 -2 11 -28 23 -57 13 -29 38 -89 56 -133 88 -213 112 -268 158
-360 14 -27 54 -115 90 -194 65 -146 155 -323 177 -351 7 -8 35 -60 63 -115
53 -105 230 -419 263 -466 11 -15 20 -30 20 -32 0 -6 284 -456 333 -527 17
-25 44 -61 60 -80 29 -35 71 -95 124 -178 33 -51 174 -245 183 -252 7 -5 61
-81 136 -191 24 -36 64 -89 87 -116 23 -28 61 -75 84 -105 39 -49 80 -101 223
-278 121 -150 261 -311 377 -436 85 -91 130 -148 147 -185 20 -44 57 -85 203
-224 253 -243 406 -378 647 -575 44 -36 100 -83 125 -106 25 -22 82 -67 125
-100 239 -179 356 -264 489 -356 82 -57 170 -119 197 -138 80 -58 285 -194
460 -307 91 -58 194 -125 230 -148 94 -60 406 -256 470 -295 30 -18 135 -82
234 -142 98 -60 203 -122 235 -139 56 -30 84 -46 176 -102 73 -45 166 -96 395
-222 113 -62 243 -134 290 -160 103 -58 374 -192 450 -224 30 -12 91 -39 135
-61 44 -21 123 -56 175 -78 52 -22 134 -56 182 -76 48 -20 91 -36 95 -36 5 0
101 -34 213 -76 113 -42 250 -91 305 -109 55 -18 120 -41 145 -49 203 -73 608
-188 705 -201 28 -4 66 -12 85 -19 19 -8 58 -17 85 -21 28 -4 97 -18 155 -31
58 -13 128 -28 155 -34 28 -5 93 -19 145 -30 52 -11 127 -27 165 -34 39 -8
117 -24 175 -35 106 -22 241 -43 380 -61 41 -5 104 -14 140 -20 123 -19 395
-49 555 -61 172 -12 913 -5 1060 10 190 21 438 60 630 100 55 12 147 31 205
42 58 11 137 27 175 35 39 8 114 23 169 34 54 11 122 28 152 39 29 11 110 36
181 56 574 162 983 337 1538 657 400 231 900 588 1155 825 41 38 107 94 145
125 86 70 270 247 447 433 168 177 550 623 608 710 8 13 45 61 82 106 38 46
106 140 152 209 151 225 291 444 336 520 23 41 57 98 75 125 71 111 303 558
392 754 135 299 225 507 293 676 81 204 139 348 161 400 80 193 210 538 233
620 10 33 22 74 27 90 10 28 21 63 53 175 91 312 200 764 231 952 7 47 18 104
24 125 21 81 49 248 97 563 42 287 92 811 121 1290 21 352 25 1430 5 1675 -31
389 -57 659 -67 695 -2 8 -13 80 -25 160 -11 80 -32 201 -45 270 -13 69 -31
170 -40 225 -9 54 -23 126 -31 160 -9 33 -24 98 -34 145 -26 121 -136 550
-175 685 -8 28 -33 113 -56 190 -22 77 -51 176 -64 220 -12 44 -48 159 -80
255 -31 96 -95 292 -141 435 -236 724 -390 1108 -609 1516 -153 286 -353 607
-541 869 -45 63 -91 134 -103 157 -11 22 -35 54 -54 70 -18 15 -56 59 -83 97
-27 38 -85 114 -129 170 -44 55 -89 113 -100 127 -41 54 -357 434 -520 625
-55 64 -116 136 -135 160 -19 23 -75 88 -125 145 -49 56 -115 132 -145 169
-30 38 -102 121 -160 184 -58 64 -130 145 -160 181 -187 218 -636 660 -845
833 -24 20 -117 100 -207 177 -265 227 -340 289 -399 332 -31 23 -62 48 -70
55 -13 13 -344 281 -400 323 -14 11 -82 65 -150 120 -68 55 -189 148 -269 208
-80 59 -177 133 -216 163 -40 30 -108 79 -153 107 -44 29 -153 102 -243 163
-90 60 -194 128 -233 151 -38 22 -119 69 -180 105 -60 35 -141 80 -180 100
-274 139 -340 172 -415 206 -47 22 -137 58 -200 81 -63 23 -124 46 -135 51
-19 9 -140 46 -250 76 -27 8 -84 25 -125 38 -100 33 -301 74 -465 95 -206 27
-282 32 -590 38 -344 6 -694 -9 -960 -42 -66 -8 -194 -22 -285 -30 -147 -13
-268 -30 -480 -66 -180 -31 -221 -43 -320 -89 -58 -27 -143 -58 -190 -69 -193
-45 -223 -66 -234 -156 -10 -81 1 -89 125 -92 57 -1 130 -4 162 -7 32 -2 73 0
90 5 18 6 97 14 177 19 80 6 165 14 190 19 25 6 88 12 140 15 52 2 148 14 213
25 66 12 144 21 175 21 32 0 95 5 142 10 81 9 178 18 300 26 30 2 204 6 385 9
333 4 621 -5 750 -24 39 -6 122 -18 185 -27 114 -16 383 -80 457 -108 21 -9
56 -20 78 -25 165 -39 635 -245 880 -388 268 -155 361 -198 409 -189 40 8 86
56 86 91 0 27 24 49 45 41 22 -8 18 -30 -15 -84 -25 -42 -28 -53 -20 -81 7
-24 5 -45 -5 -75 -12 -34 -13 -70 -5 -211 6 -93 17 -200 26 -237 8 -36 14 -84
14 -105 -1 -21 4 -92 10 -158 9 -88 10 -261 4 -655 -10 -599 -12 -1326 -4
-1680 3 -135 0 -326 -8 -450 -26 -458 -21 -617 29 -828 31 -131 42 -272 31
-392 -5 -60 -5 -110 0 -116 6 -8 19 -6 46 7 42 22 80 18 127 -14 45 -30 56
-47 45 -68 -8 -15 -23 -18 -86 -17 -68 0 -80 3 -101 24 -33 33 -59 31 -66 -5
-4 -18 -21 -40 -44 -58 -67 -49 -234 -226 -265 -280 -16 -29 -34 -56 -39 -59
-5 -3 -39 -51 -75 -107 -37 -56 -103 -148 -148 -203 -45 -56 -107 -135 -138
-175 -58 -75 -107 -128 -322 -349 -275 -283 -585 -645 -781 -910 -146 -198
-457 -583 -600 -742 -44 -49 -89 -104 -99 -121 -11 -18 -52 -70 -91 -117 -69
-82 -126 -157 -251 -325 -82 -111 -289 -424 -387 -587 -61 -101 -105 -170
-192 -303 -143 -218 -222 -341 -254 -395 -166 -280 -171 -287 -206 -274 -8 4
-15 15 -15 25 0 40 -59 138 -107 176 -26 21 -95 83 -153 138 -58 55 -123 114
-145 130 -22 16 -74 61 -115 100 -134 126 -211 178 -410 277 -52 25 -160 92
-240 147 -257 179 -521 355 -670 446 -190 117 -211 132 -443 318 -108 87 -238
186 -288 221 -158 111 -394 337 -588 565 -131 154 -391 439 -581 636 -137 143
-260 290 -350 420 -108 156 -279 334 -455 473 -38 31 -93 76 -121 101 -28 25
-91 80 -140 121 -48 41 -113 102 -143 134 -125 132 -158 162 -203 184 -74 36
-75 41 -40 125 42 96 45 114 32 172 -23 104 -49 267 -44 280 3 7 -1 76 -10
152 -8 76 -18 170 -21 208 -4 39 -12 106 -20 150 -7 44 -16 109 -19 145 -4 36
-13 110 -21 165 -26 171 -45 330 -70 600 -23 235 -32 316 -65 553 -5 39 -15
105 -20 145 -6 39 -15 110 -20 157 -12 93 -41 248 -100 525 -21 99 -48 241
-60 315 -12 74 -26 155 -31 180 -6 25 -12 56 -13 70 -2 14 -6 42 -10 62 -6 28
-3 53 15 102 23 62 23 66 6 100 -22 48 -70 76 -127 76 -47 0 -116 -26 -137
-51 -18 -23 -36 -173 -24 -214 9 -32 7 -39 -20 -69 -27 -32 -29 -39 -28 -117
0 -108 11 -195 49 -404 46 -254 47 -261 75 -390 37 -172 55 -282 55 -345 0
-30 9 -98 21 -150 11 -52 24 -156 29 -230 5 -74 13 -162 19 -195 5 -33 15
-112 20 -175 6 -63 16 -146 21 -185 6 -38 15 -144 20 -235 5 -91 16 -219 25
-285 42 -312 44 -364 14 -406 -37 -53 -65 -37 -119 66 -17 33 -64 110 -104
170 -40 61 -90 139 -111 175 -21 36 -83 132 -137 214 -54 81 -119 190 -143
241 -42 90 -115 203 -250 390 -36 50 -71 102 -79 116 -8 14 -41 63 -73 108
-79 113 -186 289 -235 386 -22 44 -45 89 -51 100 -6 11 -17 34 -25 50 -8 17
-25 41 -37 55 -22 24 -56 110 -70 175 -4 19 -33 55 -82 101 -74 71 -75 72 -59
96 15 23 170 164 256 233 21 17 87 73 147 125 148 128 295 245 495 394 91 69
194 147 229 175 34 28 85 58 112 67 28 9 69 34 91 54 45 42 48 43 449 284 120
72 246 148 280 169 34 20 96 55 137 76 41 21 113 61 160 88 47 28 187 103 310
168 124 65 234 124 245 131 11 7 58 28 105 47 47 20 175 80 285 135 180 90
263 128 490 222 126 52 389 147 445 160 30 7 62 16 72 21 9 5 79 25 155 45
129 34 205 52 378 89 39 8 111 23 160 34 50 11 117 24 150 31 33 6 77 18 97
25 59 23 262 61 388 74 183 19 250 31 328 61 140 54 162 82 162 205 -1 89 -31
142 -101 177 -48 24 -68 28 -179 32 -69 3 -145 1 -170 -5z m5754 -1159 c19
-12 53 -46 77 -76 23 -30 59 -73 80 -95 21 -22 52 -62 69 -87 29 -43 31 -52
26 -107 -4 -41 -1 -68 8 -84 8 -14 12 -41 9 -60 -3 -34 2 -42 85 -126 106
-108 293 -268 448 -384 32 -24 80 -63 105 -85 26 -23 93 -78 150 -123 57 -46
129 -103 159 -128 30 -25 88 -70 127 -100 40 -31 77 -64 83 -75 6 -12 30 -35
54 -53 57 -42 237 -192 350 -291 150 -132 524 -515 730 -749 47 -54 97 -108
110 -120 12 -12 50 -53 82 -92 32 -38 97 -113 144 -167 47 -53 119 -138 161
-190 82 -100 339 -404 473 -558 45 -52 93 -108 107 -124 84 -102 112 -115 153
-71 31 33 34 31 139 -64 38 -34 78 -66 91 -70 12 -5 28 -21 36 -35 20 -38 -1
-54 -80 -62 -36 -4 -81 -15 -101 -25 -28 -14 -79 -20 -230 -29 -403 -23 -623
-43 -825 -75 -172 -27 -217 -34 -299 -45 -44 -6 -105 -15 -135 -20 -30 -5
-107 -16 -170 -25 -222 -32 -626 -96 -685 -110 -33 -8 -85 -18 -115 -24 -188
-34 -395 -87 -683 -175 -216 -66 -309 -102 -463 -177 -138 -67 -143 -63 -137
99 4 101 -1 167 -21 322 -49 366 -49 358 -25 629 23 271 23 354 -6 906 -14
253 -16 392 -9 755 12 674 14 1170 4 1220 -13 65 -29 205 -41 360 -8 110 -15
144 -35 183 -28 57 -32 133 -8 178 15 29 14 33 -20 94 -19 35 -33 71 -31 82
12 58 16 73 20 73 2 0 19 -9 39 -20z m-11549 -1978 c24 -16 55 -85 55 -122 0
-21 7 -45 15 -54 14 -14 14 -18 1 -44 -18 -35 -38 -44 -74 -36 -37 9 -47 19
-78 72 -36 64 -35 137 2 170 25 22 60 28 79 14z m-97 -529 c43 -47 57 -71 73
-128 37 -129 128 -341 187 -440 54 -90 166 -265 215 -335 77 -113 87 -126 131
-190 25 -36 64 -90 85 -120 78 -108 195 -299 266 -435 15 -27 47 -81 72 -120
116 -182 147 -233 232 -382 100 -175 109 -206 66 -248 l-24 -25 -53 21 c-29
11 -64 31 -78 44 -14 12 -38 29 -55 38 -62 31 -396 137 -555 176 -91 23 -205
52 -255 66 -49 14 -117 31 -150 39 -160 38 -512 133 -700 188 -200 60 -367
105 -430 118 -33 7 -90 21 -127 31 -38 11 -105 24 -150 30 -98 12 -114 20
-123 59 -5 24 0 37 27 72 18 24 35 45 38 48 24 23 133 178 252 359 122 185
409 556 620 801 59 69 134 156 165 195 86 103 180 195 200 195 9 0 41 -26 71
-57z m15971 -1623 c32 0 51 -5 54 -14 6 -16 -28 -76 -43 -76 -25 0 -90 -52
-119 -96 -37 -57 -42 -117 -11 -156 20 -27 18 -38 -10 -38 -25 0 -105 74 -125
116 l-17 36 32 26 32 27 -26 24 c-14 14 -26 28 -26 32 0 5 20 20 44 34 50 29
58 43 50 85 -4 16 -4 37 0 46 5 14 13 12 61 -15 41 -23 67 -31 104 -31z
m-17372 -370 c54 -39 128 -66 295 -109 40 -11 114 -31 163 -45 50 -14 173 -48
275 -76 102 -28 217 -59 255 -70 92 -26 220 -59 270 -70 22 -5 73 -21 113 -35
41 -14 81 -25 90 -25 9 0 52 -11 96 -24 89 -26 188 -51 281 -71 147 -31 320
-82 490 -143 409 -147 475 -161 420 -88 -21 28 -19 36 10 36 24 0 109 -67 148
-117 10 -13 25 -23 33 -23 8 0 46 -16 84 -36 59 -31 73 -35 98 -26 42 14 57 2
44 -36 -13 -37 10 -80 61 -114 94 -63 381 -304 447 -375 41 -44 176 -171 300
-280 239 -212 329 -303 432 -435 34 -45 79 -100 99 -122 19 -23 52 -63 72 -89
44 -59 243 -280 397 -442 149 -156 340 -370 512 -575 158 -187 375 -382 638
-569 79 -57 158 -119 305 -240 49 -41 162 -122 250 -179 378 -248 564 -373
617 -418 99 -85 134 -112 189 -144 30 -18 64 -42 77 -53 13 -12 59 -44 103
-72 229 -145 366 -249 390 -297 11 -21 29 -44 40 -51 11 -6 30 -30 41 -52 35
-67 153 -175 261 -237 98 -57 177 -85 274 -97 30 -4 66 -17 83 -29 l30 -23 9
25 c6 13 15 27 20 31 6 3 27 31 46 61 48 74 69 83 134 53 56 -25 71 -51 51
-89 -7 -13 -9 -37 -5 -60 11 -65 -25 -78 -217 -80 -18 0 -43 -13 -67 -35 -60
-55 -121 -42 -106 23 7 34 -5 47 -56 56 -47 8 -87 -19 -72 -50 6 -10 14 -44
17 -75 6 -46 13 -62 42 -90 18 -18 34 -40 34 -50 0 -13 -89 -151 -237 -369
-147 -215 -428 -556 -674 -816 -270 -285 -484 -521 -584 -643 -33 -41 -82 -99
-108 -130 -46 -53 -186 -232 -357 -456 -126 -166 -227 -291 -308 -384 -126
-143 -323 -380 -393 -471 -60 -78 -114 -153 -223 -309 -22 -31 -59 -83 -83
-116 -24 -33 -62 -87 -85 -120 -100 -144 -240 -304 -431 -492 -220 -219 -213
-215 -300 -191 -41 11 -47 9 -103 -21 -76 -41 -133 -52 -225 -42 -105 12 -490
-13 -864 -54 -71 -8 -215 -19 -320 -25 -104 -6 -228 -15 -275 -20 -47 -5 -161
-16 -255 -25 -184 -17 -285 -29 -440 -51 -55 -8 -134 -19 -175 -24 -41 -6
-111 -17 -155 -24 -44 -8 -134 -24 -199 -35 -66 -11 -127 -23 -137 -26 -35
-11 -135 -27 -184 -30 -70 -3 -177 -56 -222 -111 -63 -75 -90 -65 -142 56 -18
41 -39 82 -46 90 -25 29 -173 256 -194 297 -12 23 -34 57 -50 75 -15 18 -36
49 -46 68 -10 19 -39 67 -64 106 -123 191 -148 231 -178 283 -18 31 -49 88
-69 126 -19 39 -42 77 -50 85 -7 9 -28 45 -47 81 -19 35 -46 84 -61 107 -15
24 -42 78 -61 120 -19 42 -61 128 -94 191 -34 62 -61 115 -61 117 0 2 -24 55
-54 117 -30 61 -61 130 -69 152 -25 68 -67 169 -81 195 -8 14 -35 79 -60 145
-26 66 -55 140 -66 165 -23 55 -54 143 -115 320 -25 74 -66 190 -90 256 -25
67 -45 127 -45 132 0 6 -16 61 -36 124 -19 62 -42 138 -51 168 -9 30 -23 73
-31 95 -8 22 -28 92 -44 155 -16 63 -36 140 -44 170 -8 30 -19 71 -24 90 -4
19 -39 159 -78 310 -38 151 -77 311 -86 355 -8 44 -29 141 -46 215 -17 74 -35
166 -41 203 -5 37 -17 86 -25 109 -8 22 -14 55 -14 72 0 17 -7 60 -15 96 -9
36 -19 94 -25 130 -5 36 -14 94 -21 130 -13 72 -13 74 -28 210 -6 52 -15 120
-21 150 -5 30 -14 116 -20 190 -6 74 -15 171 -20 215 -36 308 -36 1002 -1
1245 6 36 17 144 26 240 9 96 26 225 37 285 11 61 26 151 34 200 18 112 35
196 85 405 40 171 74 337 82 403 12 92 32 96 492 100 229 3 410 9 455 16 41 7
102 16 135 21 193 29 275 47 411 91 194 62 394 96 614 104 231 8 367 19 565
45 204 27 314 46 350 60 56 21 289 50 415 50 69 0 151 4 182 10 32 5 91 10
130 11 102 3 135 14 153 49 46 88 15 198 -66 238 -45 23 -70 19 -117 -18 -50
-40 -73 -20 -37 32 40 58 26 62 -213 67 -217 3 -269 -4 -537 -71 -197 -50
-269 -57 -670 -68 -369 -9 -379 -11 -670 -104 -368 -118 -473 -136 -930 -156
-137 -6 -288 -18 -335 -26 -126 -21 -162 -19 -190 11 -20 22 -22 29 -12 45 6
11 30 54 52 97 23 43 45 82 51 88 5 5 9 19 9 32 0 12 11 46 25 75 13 29 42
103 64 163 45 125 70 187 133 335 25 58 49 116 53 130 8 25 18 48 70 165 15
33 31 71 35 85 40 118 80 197 111 218 44 30 73 24 146 -28z m17536 4 c11 -11
-3 -24 -18 -18 -8 4 -12 10 -9 15 6 11 18 12 27 3z m-125 -40 c43 -7 54 -17
28 -27 -8 -3 -16 -21 -18 -39 -3 -31 -6 -34 -50 -42 -44 -9 -48 -12 -48 -37 0
-43 22 -85 110 -214 22 -32 143 -228 201 -327 9 -15 21 -33 27 -40 5 -7 31
-53 56 -103 25 -49 53 -101 61 -115 8 -14 24 -45 35 -70 10 -25 26 -56 34 -70
21 -37 141 -314 172 -395 14 -38 39 -106 56 -150 66 -173 80 -211 87 -240 5
-16 25 -77 45 -135 21 -58 64 -190 97 -295 33 -104 86 -269 118 -365 32 -96
76 -231 96 -300 21 -69 45 -150 55 -180 10 -30 25 -80 34 -110 16 -56 44 -154
71 -245 73 -248 119 -421 160 -605 10 -41 24 -104 32 -140 8 -36 19 -96 23
-135 5 -38 18 -119 30 -180 24 -119 35 -178 44 -240 49 -303 86 -581 86 -641
0 -28 4 -75 10 -105 14 -79 29 -339 36 -609 3 -129 7 -241 10 -248 3 -12 -10
-615 -21 -892 -3 -80 -2 -168 3 -197 15 -87 -6 -96 -130 -61 -33 10 -40 8 -68
-16 -17 -14 -38 -26 -46 -26 -20 0 -131 -61 -433 -237 -339 -198 -369 -215
-526 -303 -71 -40 -191 -110 -265 -155 -74 -44 -144 -84 -154 -88 -79 -30
-703 -428 -896 -571 -41 -30 -122 -89 -180 -130 -58 -42 -118 -86 -135 -99
-35 -28 -273 -204 -390 -290 -44 -32 -137 -96 -208 -142 -70 -47 -190 -131
-266 -187 -77 -57 -174 -128 -218 -158 -152 -106 -212 -179 -213 -257 0 -39
-25 -57 -55 -41 -11 6 -49 34 -85 63 -36 28 -125 93 -199 144 -74 51 -213 159
-309 239 -361 304 -426 355 -637 502 -60 41 -154 108 -209 148 -282 203 -367
264 -554 398 -112 79 -238 171 -280 203 -112 84 -303 219 -407 286 -142 91
-339 230 -473 334 -68 53 -136 105 -151 116 -14 11 -83 65 -151 120 -68 55
-150 118 -181 140 -31 22 -105 74 -164 115 -343 241 -464 337 -804 638 -35 31
-88 75 -116 97 -198 153 -249 199 -338 304 -120 142 -158 181 -252 257 -164
133 -249 214 -270 257 -11 24 -35 66 -53 93 l-32 51 65 144 c36 78 101 200
144 269 43 69 88 143 101 165 45 78 154 251 191 305 20 30 80 120 132 200 52
80 118 177 146 215 28 39 66 93 85 121 41 61 179 246 276 369 39 50 95 122
124 161 29 38 111 139 182 224 71 84 149 179 174 211 25 31 120 151 213 266
92 114 188 235 215 268 159 201 280 340 527 611 184 201 337 372 404 453 35
42 91 108 125 146 34 39 75 88 91 109 17 22 48 62 69 90 94 121 186 248 246
336 139 206 214 293 265 306 24 6 60 -10 106 -47 56 -45 173 -31 264 31 71 49
164 90 347 156 322 115 537 181 703 215 229 46 478 87 880 144 99 14 248 37
330 50 154 25 367 58 490 75 96 14 256 27 545 45 135 9 277 22 315 29 39 8
113 20 165 26 143 18 140 17 140 46 0 24 3 26 33 20 17 -3 51 -9 75 -12z
m-14318 -183 c0 -41 33 -80 64 -74 15 3 23 10 19 18 -5 14 44 45 71 45 8 0 20
-17 26 -37 7 -21 16 -42 21 -47 12 -13 11 -53 0 -61 -6 -3 -4 -17 4 -32 10
-18 11 -31 4 -39 -7 -8 -7 -14 1 -19 5 -3 17 -19 25 -35 15 -29 14 -30 -15
-45 -16 -9 -30 -23 -30 -31 0 -30 -31 -81 -56 -93 -43 -19 -155 -7 -174 19 -3
4 -15 12 -27 19 -13 6 -23 18 -23 25 0 7 -15 24 -34 37 -25 17 -35 32 -38 56
-2 19 -2 36 1 39 12 12 5 41 -17 72 -30 42 -24 75 26 137 28 35 46 47 75 51
20 4 37 10 37 15 0 5 9 9 20 9 15 0 20 -7 20 -29z m363 -674 c3 -7 -1 -21 -9
-32 -8 -10 -14 -26 -14 -35 0 -9 -16 -33 -35 -53 -42 -43 -90 -50 -120 -17
-17 19 -17 21 21 62 21 24 51 53 68 66 33 24 81 29 89 9z m137 -61 c0 -49 -78
-74 -124 -39 l-23 17 46 23 c25 12 58 23 74 23 22 0 27 -4 27 -24z m14370 -46
c0 -5 -2 -10 -4 -10 -3 0 -8 5 -11 10 -3 6 -1 10 4 10 6 0 11 -4 11 -10z m67
-96 c8 -22 -18 -37 -36 -20 -7 8 -10 19 -7 25 10 16 36 13 43 -5z m26 -85 c-2
-8 7 -21 19 -29 53 -36 88 -80 118 -150 18 -41 41 -93 51 -116 11 -22 19 -52
19 -67 0 -15 9 -36 20 -47 11 -11 20 -32 20 -46 0 -14 6 -38 14 -52 29 -55 46
-108 44 -139 -1 -21 9 -45 31 -74 17 -24 31 -53 31 -66 0 -13 4 -23 8 -23 14
0 58 -99 97 -220 21 -63 46 -133 55 -155 10 -22 21 -56 25 -75 4 -19 15 -55
25 -80 10 -25 28 -79 39 -120 12 -41 31 -100 42 -130 12 -30 36 -103 54 -161
18 -59 36 -112 40 -119 4 -6 15 -46 26 -88 10 -42 22 -88 28 -102 16 -45 89
-298 111 -385 7 -27 17 -54 21 -60 4 -5 10 -28 14 -50 4 -22 11 -44 15 -50 4
-5 11 -32 14 -60 4 -27 11 -63 16 -80 34 -118 40 -145 40 -167 0 -14 7 -42 15
-61 8 -20 17 -62 21 -94 3 -32 14 -83 25 -113 24 -72 56 -247 58 -317 1 -49
-26 -43 -40 10 -20 72 -39 171 -39 199 0 15 -9 42 -20 61 -14 23 -19 44 -15
59 4 14 -3 52 -15 88 -12 35 -23 76 -25 92 -7 55 -27 143 -37 162 -5 10 -14
39 -18 65 -5 25 -18 80 -30 121 -11 41 -23 89 -26 105 -12 71 -93 326 -117
370 -6 11 -10 30 -8 42 1 12 -12 49 -29 82 -22 42 -30 69 -26 85 4 18 -1 33
-19 54 -14 17 -25 37 -25 46 0 9 -9 33 -20 53 -11 20 -17 46 -14 58 3 13 -3
31 -16 47 -11 15 -22 45 -25 66 -2 22 -11 54 -19 70 -9 17 -16 38 -16 47 0 9
-9 28 -20 43 -17 24 -30 63 -47 142 -2 14 -13 43 -22 65 -10 22 -26 65 -37 95
-10 30 -23 61 -28 68 -19 27 -62 137 -129 334 -15 43 -31 86 -37 95 -10 18
-39 93 -84 223 -13 36 -33 84 -45 107 -11 23 -21 53 -21 66 0 35 -18 82 -57
145 -20 34 -32 66 -30 79 2 12 1 24 -3 25 -4 2 -11 14 -15 27 -5 17 -4 22 6
19 8 -3 13 -12 12 -19z m1162 -3549 c3 -5 -1 -10 -9 -10 -9 0 -16 5 -16 10 0
6 4 10 9 10 6 0 13 -4 16 -10z m42 -256 c-3 -3 -12 -4 -19 -1 -8 3 -5 6 6 6
11 1 17 -2 13 -5z m20 -60 c-3 -3 -12 -4 -19 -1 -8 3 -5 6 6 6 11 1 17 -2 13
-5z m38 -265 c0 -15 -7 -25 -17 -27 -13 -3 -18 3 -18 21 0 13 3 27 7 31 13 12
28 -1 28 -25z m2 -55 c-3 -3 -12 -4 -19 -1 -8 3 -5 6 6 6 11 1 17 -2 13 -5z
m11 -42 c3 -17 -2 -22 -17 -22 -16 0 -21 6 -21 26 0 33 33 30 38 -4z m12 -137
c0 -8 -6 -15 -14 -15 -8 0 -16 7 -20 15 -4 10 1 15 14 15 11 0 20 -7 20 -15z
m-3 -31 c-3 -3 -12 -4 -19 -1 -8 3 -5 6 6 6 11 1 17 -2 13 -5z m14 -51 c7 -19
6 -35 -2 -55 -9 -22 -9 -32 0 -41 14 -14 14 -54 -1 -63 -19 -12 -35 22 -37 78
-3 96 18 139 40 81z m-10383 -403 c22 -11 46 -20 51 -20 14 0 81 -89 81 -108
0 -19 -73 -92 -93 -92 -24 0 -80 58 -73 76 7 19 -15 74 -37 93 -17 13 -23 52
-10 64 11 12 38 8 81 -13z m111 -291 c-7 -4 -17 -5 -22 -2 -5 3 -3 9 4 14 7 4
17 5 22 2 5 -3 3 -9 -4 -14z m27 -80 c29 -21 83 -73 120 -116 80 -90 308 -319
380 -380 78 -66 162 -131 305 -235 74 -53 243 -188 376 -300 271 -228 282
-236 483 -379 187 -132 494 -364 690 -520 96 -77 346 -256 656 -471 180 -125
345 -244 631 -454 98 -71 273 -197 388 -279 318 -225 326 -232 484 -354 172
-134 192 -150 251 -205 74 -68 289 -247 370 -307 358 -265 449 -336 542 -426
59 -57 116 -103 126 -103 17 0 19 7 14 78 -3 49 -11 88 -22 107 -11 18 -16 41
-13 57 3 17 -2 36 -17 56 -22 30 -22 31 -5 79 10 26 22 52 26 56 4 5 55 -39
114 -98 104 -104 106 -107 111 -160 5 -49 4 -55 -20 -70 -15 -10 -26 -27 -26
-40 0 -27 -23 -48 -72 -66 -62 -21 -48 -53 47 -108 64 -37 101 -90 109 -153 4
-29 16 -80 26 -113 10 -33 24 -85 31 -115 6 -30 20 -82 30 -115 25 -82 69
-275 69 -302 0 -12 4 -32 9 -45 5 -13 17 -52 26 -88 10 -36 26 -90 36 -120 19
-59 80 -308 99 -405 29 -151 48 -242 126 -585 31 -135 60 -263 64 -285 5 -22
24 -110 44 -195 20 -85 36 -163 36 -174 0 -17 50 -240 70 -316 51 -188 71
-290 63 -333 -5 -22 3 -36 38 -75 53 -58 83 -73 121 -60 16 6 41 8 56 5 37 -7
58 7 82 54 15 28 20 55 18 87 -3 40 -8 49 -38 70 -54 36 -46 47 31 44 84 -4
96 7 81 75 -6 27 -18 93 -27 148 -9 55 -20 110 -25 121 -4 12 -18 68 -30 125
-11 57 -34 156 -50 219 -16 63 -57 230 -90 370 -34 140 -70 293 -82 340 -11
47 -24 103 -29 125 -4 22 -19 87 -32 145 -14 58 -32 146 -41 195 -9 50 -23
110 -30 135 -8 25 -21 79 -30 120 -9 41 -30 136 -47 210 -33 142 -53 236 -68
310 -5 25 -19 91 -30 148 -12 56 -21 115 -21 129 0 15 -12 65 -26 111 -26 88
-24 104 16 117 11 3 69 -16 142 -49 68 -30 150 -65 183 -79 33 -14 128 -54
212 -90 83 -36 182 -77 220 -91 37 -13 118 -43 178 -65 61 -22 187 -67 280
-100 198 -70 249 -90 445 -176 80 -35 159 -67 175 -71 17 -3 53 -17 80 -29 86
-40 235 -78 262 -68 18 7 16 33 -3 54 -9 10 -17 36 -18 56 -1 33 2 38 23 41
14 2 33 -6 50 -22 41 -39 92 -57 142 -48 37 6 45 13 66 52 13 24 32 54 42 65
10 11 16 26 14 33 -3 7 4 12 16 12 18 0 19 -2 6 -27 -9 -17 -11 -29 -5 -31 20
-7 10 -56 -17 -84 -15 -15 -31 -28 -36 -28 -5 0 -20 -10 -32 -22 -12 -13 -36
-31 -53 -40 -21 -11 -32 -25 -32 -39 0 -20 -39 -103 -107 -229 -16 -30 -58
-109 -93 -175 -92 -177 -259 -475 -286 -512 -13 -17 -24 -35 -24 -40 0 -24
-345 -551 -409 -626 -21 -23 -63 -80 -95 -127 -58 -85 -92 -130 -196 -260 -30
-37 -71 -89 -90 -115 -19 -25 -63 -79 -96 -118 -34 -40 -71 -91 -83 -115 -12
-23 -25 -42 -30 -42 -5 0 -39 -38 -75 -84 -62 -80 -172 -185 -246 -237 -19
-13 -105 -87 -191 -164 -472 -422 -751 -628 -1309 -963 -171 -102 -534 -284
-675 -337 -33 -12 -118 -46 -190 -75 -71 -29 -152 -61 -178 -71 -27 -11 -86
-31 -130 -44 -45 -14 -154 -49 -242 -79 -137 -45 -310 -92 -570 -151 -145 -34
-396 -76 -590 -101 -184 -23 -259 -27 -605 -31 -407 -6 -400 -6 -920 42 -163
15 -327 36 -425 55 -60 12 -144 26 -185 30 -80 10 -97 13 -200 35 -36 8 -153
31 -260 50 -107 20 -260 52 -340 71 -80 19 -156 34 -169 34 -39 0 -205 39
-371 86 -30 9 -77 22 -105 30 -69 19 -355 100 -440 125 -38 11 -128 42 -200
69 -71 26 -161 58 -199 69 -38 12 -74 25 -80 30 -13 10 -155 65 -211 82 -22 6
-44 15 -50 19 -5 5 -44 22 -85 38 -154 62 -577 269 -820 402 -181 100 -252
134 -359 176 -39 15 -71 34 -71 41 0 7 36 50 80 96 105 107 120 158 80 274
-17 53 -49 179 -81 326 -9 45 -10 72 0 125 18 107 29 205 25 237 -3 29 -55 85
-116 127 -23 15 -26 25 -31 105 -5 78 -13 106 -66 238 -76 186 -231 645 -231
681 0 10 -14 58 -30 108 -17 50 -37 111 -44 136 -8 25 -28 92 -46 150 -17 58
-46 152 -64 210 -19 58 -46 146 -61 195 -43 140 -54 175 -79 245 -89 250 -184
583 -206 727 -10 65 -9 77 11 137 20 58 21 71 10 101 -7 19 -9 44 -6 55 7 23
33 27 41 5 4 -8 14 -15 23 -15 20 0 352 314 482 455 154 167 244 283 500 644
112 158 280 372 459 586 80 96 315 388 361 450 25 33 74 98 109 145 189 253
428 535 705 834 72 78 193 213 270 301 77 88 163 185 190 216 28 30 84 95 125
144 41 48 122 142 180 208 58 65 112 129 120 141 76 111 316 413 337 425 20
11 20 11 89 -40z m10305 -281 c0 -7 2 -25 4 -40 3 -22 0 -28 -15 -28 -20 0
-34 38 -24 64 7 19 34 21 35 4z m6 -84 c-3 -3 -12 -4 -19 -1 -8 3 -5 6 6 6 11
1 17 -2 13 -5z m-19 -721 c-2 -17 -10 -29 -20 -31 -14 -3 -18 3 -18 27 0 25 4
31 21 31 16 0 20 -5 17 -27z m-5 -139 c4 -32 5 -70 1 -84 -7 -31 -26 -233 -26
-278 1 -32 -27 -60 -47 -47 -12 7 -4 295 9 329 5 15 10 45 10 67 0 46 16 82
33 76 7 -2 15 -30 20 -63z m-233 -34 c0 -5 16 -25 36 -44 26 -25 35 -41 31
-56 -3 -11 -1 -23 5 -26 5 -4 8 -19 4 -34 -3 -19 0 -33 10 -41 18 -15 14 -48
-15 -111 -11 -27 -17 -55 -14 -75 5 -31 3 -33 -24 -33 -36 0 -75 36 -50 46 23
8 16 44 -9 50 -44 11 -59 1 -65 -43 -3 -23 -11 -49 -19 -58 -15 -19 -29 -94
-60 -330 -28 -219 -91 -608 -121 -745 -5 -25 -13 -70 -17 -100 -4 -30 -11 -60
-15 -67 -4 -6 -12 -31 -17 -55 -5 -24 -23 -106 -40 -183 -18 -77 -36 -158 -40
-180 -8 -38 -34 -139 -94 -365 -14 -52 -46 -162 -71 -245 -25 -82 -55 -179
-66 -215 -11 -36 -24 -78 -29 -95 -5 -16 -34 -102 -65 -190 -32 -88 -68 -189
-80 -225 -13 -36 -33 -87 -45 -115 -30 -69 -98 -248 -124 -324 -12 -36 -29
-69 -38 -74 -10 -7 -41 -3 -99 12 -46 12 -113 28 -149 36 -36 7 -117 37 -180
66 -63 28 -196 83 -295 121 -99 38 -207 80 -240 93 -33 13 -107 38 -165 55
-158 49 -616 234 -744 300 -139 72 -309 179 -409 257 -40 30 -98 69 -131 85
-100 50 -124 90 -96 162 40 105 298 356 684 664 32 26 79 65 105 87 25 22 95
78 155 125 60 47 134 105 165 130 172 137 465 336 773 525 81 49 203 124 270
166 161 99 416 249 653 384 261 148 461 272 611 378 96 67 110 82 96 100 -5 6
-20 37 -33 67 -12 30 -29 63 -37 73 -14 15 -13 17 5 17 11 0 28 9 38 20 19 21
55 27 55 10z m186 -466 c9 -34 -10 -54 -32 -32 -13 12 -14 20 -5 37 16 28 29
27 37 -5z m-3944 -2155 c26 -17 48 -35 48 -39 0 -17 -36 -70 -47 -70 -7 0 -18
-12 -25 -27 -19 -38 -161 -109 -191 -95 -22 10 -22 10 6 21 42 16 35 41 -12
41 -46 0 -54 14 -39 63 12 38 52 67 93 67 37 0 65 17 65 40 0 39 40 38 102 -1z
m36 -205 c12 -8 22 -20 22 -26 0 -5 8 -22 19 -36 10 -15 21 -44 25 -64 5 -27
17 -45 41 -64 19 -15 35 -34 35 -43 0 -9 25 -40 55 -69 l56 -52 -33 -46 c-36
-51 -47 -61 -68 -66 -8 -2 -43 -18 -78 -36 -78 -41 -101 -38 -165 24 l-47 45
0 88 c0 67 -4 92 -15 101 -8 7 -15 22 -15 35 0 12 -9 30 -20 40 -11 10 -20 26
-20 35 0 12 -11 20 -31 24 -22 4 -30 11 -27 23 2 10 12 19 23 22 11 2 23 7 26
12 3 5 15 0 27 -11 l21 -20 11 20 c16 30 78 67 130 79 3 0 16 -6 28 -15z
m-10838 -602 c24 -19 32 -50 55 -216 24 -173 84 -385 185 -651 55 -147 107
-304 160 -490 22 -76 118 -390 134 -435 8 -25 30 -92 47 -150 88 -291 165
-517 185 -540 7 -8 26 -44 42 -78 29 -61 30 -66 16 -104 -19 -56 -19 -229 2
-299 9 -30 35 -99 59 -154 46 -107 75 -194 75 -229 0 -11 10 -55 21 -96 11
-41 26 -98 33 -125 17 -66 70 -158 109 -191 18 -15 39 -39 47 -54 8 -15 23
-42 33 -60 17 -30 17 -34 3 -71 -15 -36 -15 -42 -1 -62 35 -50 4 -50 -68 0
-30 20 -63 50 -73 66 -11 15 -32 35 -47 43 -16 8 -45 30 -65 48 -20 18 -57 46
-82 62 -25 17 -108 73 -185 125 -77 53 -183 121 -235 152 -52 31 -139 85 -192
119 -54 35 -140 90 -190 123 -229 147 -426 276 -458 300 -40 30 -95 67 -326
219 -32 22 -75 53 -96 70 -20 17 -68 54 -108 81 -39 28 -99 72 -133 98 -139
107 -252 194 -297 227 -62 45 -267 218 -351 295 -36 33 -90 82 -120 109 -104
94 -305 292 -395 391 -50 55 -151 165 -224 245 -73 80 -149 165 -168 190 -20
25 -57 68 -82 96 -25 29 -79 91 -120 139 -124 144 -218 245 -261 279 -22 17
-62 50 -90 74 -27 23 -58 42 -69 42 -29 0 -50 11 -50 27 0 12 16 14 88 12 92
-2 260 13 352 32 30 6 87 17 125 24 39 7 99 20 135 28 36 9 103 23 150 32 47
9 114 23 150 30 36 7 95 16 131 19 37 4 89 13 115 21 27 8 71 15 98 15 26 0
85 7 130 15 44 8 133 19 196 25 184 17 377 40 485 57 55 8 154 19 220 25 295
22 420 34 640 57 147 15 240 13 265 -7z m13588 -834 c-4 -27 -28 -36 -28 -10
0 20 8 32 22 32 5 0 8 -10 6 -22z"/>
<path d="M8585 6170 c-24 -26 -8 -45 30 -36 20 5 26 12 23 29 -4 29 -30 33
-53 7z"/>
</g>
</svg>
