<?xml version="1.0" encoding="UTF-8" standalone="no"?>
<svg
   xmlns:dc="http://purl.org/dc/elements/1.1/"
   xmlns:cc="http://creativecommons.org/ns#"
   xmlns:rdf="http://www.w3.org/1999/02/22-rdf-syntax-ns#"
   xmlns:svg="http://www.w3.org/2000/svg"
   xmlns="http://www.w3.org/2000/svg"
   xmlns:sodipodi="http://sodipodi.sourceforge.net/DTD/sodipodi-0.dtd"
   xmlns:inkscape="http://www.inkscape.org/namespaces/inkscape"
   version="1.0"
   width="1973.5894pt"
   height="1999.2206pt"
   viewBox="0 0 1973.5893 1999.2206"
   preserveAspectRatio="xMidYMid meet"
   id="svg2"
   inkscape:version="0.91 r13725"
   sodipodi:docname="plugs-pins.svg"
   inkscape:export-filename="/home/churchyard/RepRap/BI-3DT/powerplugs-task/pics/plugs-pins.svg.png"
   inkscape:export-xdpi="37.34655"
   inkscape:export-ydpi="37.34655">
  <defs
     id="defs24" />
  <sodipodi:namedview
     pagecolor="#ffffff"
     bordercolor="#666666"
     borderopacity="1"
     objecttolerance="10"
     gridtolerance="10"
     guidetolerance="10"
     inkscape:pageopacity="0"
     inkscape:pageshadow="2"
     inkscape:window-width="1848"
     inkscape:window-height="1056"
     id="namedview22"
     showgrid="false"
     inkscape:zoom="0.26710672"
     inkscape:cx="1664.0536"
     inkscape:cy="1248.4217"
     inkscape:window-x="72"
     inkscape:window-y="0"
     inkscape:window-maximized="1"
     inkscape:current-layer="svg2"
     fit-margin-top="0"
     fit-margin-left="0"
     fit-margin-right="0"
     fit-margin-bottom="0" />
  <metadata
     id="metadata4">
Created by potrace 1.13, written by Peter Selinger 2001-2015
<rdf:RDF>
  <cc:Work
     rdf:about="">
    <dc:format>image/svg+xml</dc:format>
    <dc:type
       rdf:resource="http://purl.org/dc/dcmitype/StillImage" />
    <dc:title></dc:title>
  </cc:Work>
</rdf:RDF>
</metadata>
  <g
     id="g4154"
     transform="translate(-342.20969,-0.00576666)">
    <path
       sodipodi:nodetypes="ccccccccccccccccccccc"
       transform="matrix(0.8,0,0,0.80000008,0,-9.7656259e-5)"
       inkscape:connector-curvature="0"
       id="path4152"
       d="m 1563.1062,15.866644 c -52.3938,-0.815804 -99.2551,26.311542 -150.1843,32.926621 17.7499,-6.741024 26.0234,-31.688569 -1.053,-26.02395 -76.3448,6.695855 -147.4441,40.062874 -217.3183,69.354021 C 1017.1679,171.84935 861.33419,297.19136 738.62446,447.47374 587.06709,641.82186 484.17506,875.60104 448.98581,1119.8566 c -14.6145,115.0725 -4.89111,231.9445 22.39527,344.4076 38.45692,171.0037 113.42903,334.4273 225.20396,470.0592 93.13178,118.6121 202.10138,225.1603 327.28006,309.7254 131.5259,98.4798 291.4356,146.8074 447.592,190.4956 179.0061,45.3045 366.4746,62.7056 550.2527,41.4813 201.1692,-33.4625 386.4203,-140.9763 522.2777,-292.084 149.2601,-158.5966 246.1995,-361.3535 291.53,-573.3851 26.6513,-123.1207 45.8206,-248.6643 40.9273,-375.0079 2.4677,-160.9509 -36.0434,-322.90329 -117.8246,-462.09541 C 2684.4424,642.51013 2577.5999,534.04704 2468.4603,432.02317 2329.6694,311.82373 2167.4743,222.76535 2002.9248,143.26627 1927.8733,109.05743 1852.0824,75.873074 1771.7183,56.021851 1703.2518,38.804698 1634.4551,15.329037 1563.1062,15.866644 Z M 1865.1785,2359.4773 c -1.5795,16.4359 -18.0154,-2.313 0,0 z"
       style="opacity:1;fill:#999999;fill-opacity:1;stroke:none;stroke-width:67.0892868;stroke-linecap:round;stroke-linejoin:round;stroke-miterlimit:4;stroke-dasharray:none;stroke-opacity:1" />
    <path
       transform="matrix(0.8,0,0,0.80000008,0,-9.7656259e-5)"
       inkscape:connector-curvature="0"
       id="path4154"
       d="m 1636.1093,618.34412 c -41.0375,6.24778 -77.71,34.03898 -102.7285,66.27004 -10.8124,18.09577 15.7545,21.50385 27.8393,20.01385 54.7543,1.49593 110.213,8.14713 164.5339,5.31204 7.3056,-15.33101 2.3505,-38.83414 -5.1528,-55.45196 -19.5493,-24.07265 -54.2807,-35.13127 -84.4919,-36.14397 z"
       style="opacity:1;fill:#bfbfbf;fill-opacity:1;stroke:none;stroke-width:17.92000008;stroke-linecap:round;stroke-linejoin:round;stroke-miterlimit:4;stroke-dasharray:none;stroke-opacity:1" />
    <path
       transform="matrix(0.8,0,0,0.80000008,0,-9.7656259e-5)"
       inkscape:connector-curvature="0"
       id="path4156"
       d="m 1526.2442,713.31435 c -6.5224,30.20064 26.4219,49.92707 47.6533,64.97579 34.0749,18.18363 74.9072,30.28859 113.5577,23.55244 28.1581,-10.97357 37.198,-45.71347 39.6099,-73.01184 -10.1463,-16.72703 -38.2993,-5.40045 -55.682,-10.31745 -47.589,-1.39615 -95.7693,-7.05344 -142.9087,-6.06876 l -2.2302,0.86982 z"
       style="opacity:1;fill:#bfbfbf;fill-opacity:1;stroke:none;stroke-width:17.92000008;stroke-linecap:round;stroke-linejoin:round;stroke-miterlimit:4;stroke-dasharray:none;stroke-opacity:1" />
    <path
       transform="matrix(0.8,0,0,0.80000008,0,-9.7656259e-5)"
       inkscape:connector-curvature="0"
       id="path4162"
       d="m 2296.7183,1198.929 c -31.3389,1.9787 -57.4248,28.8373 -68.5148,56.6034 -4.8,42.0115 23.9808,81.2072 55.3968,106.2017 10.9888,8.8342 36.4982,22.041 41.2771,-0.066 6.2908,-50.3981 6.6555,-101.8516 5.4842,-152.5827 -5.6561,-10.695 -23.2592,-8.9033 -33.6433,-10.1566 z"
       style="opacity:1;fill:#bfbfbf;fill-opacity:1;stroke:none;stroke-width:17.92000008;stroke-linecap:round;stroke-linejoin:round;stroke-miterlimit:4;stroke-dasharray:none;stroke-opacity:1" />
    <path
       transform="matrix(0.8,0,0,0.80000008,0,-9.7656259e-5)"
       inkscape:connector-curvature="0"
       id="path4164"
       d="m 2348.0643,1209.7437 c -14.5001,11.1244 -4.6503,35.4461 -8.6211,51.6677 0.6747,33.5639 -4.7363,68.3181 2.3692,101.2367 13.8772,10.3973 31.2564,-8.4872 41.8255,-17.1324 35.3842,-37.8497 24.0406,-110.4786 -23.0552,-133.1689 -3.9796,-1.457 -8.185,-3.2601 -12.5184,-2.6031 z"
       style="opacity:1;fill:#bfbfbf;fill-opacity:1;stroke:none;stroke-width:17.92000008;stroke-linecap:round;stroke-linejoin:round;stroke-miterlimit:4;stroke-dasharray:none;stroke-opacity:1" />
    <path
       transform="matrix(0.8,0,0,0.80000008,0,-9.7656259e-5)"
       inkscape:connector-curvature="0"
       id="path4160"
       d="m 1093.7304,1195.6166 c -2.9515,31.7837 4.177,65.0537 2.6396,97.5002 3.2628,18.8429 -7.1807,45.3784 6.1653,58.8516 38.4814,1.5595 84.3781,-12.3454 98.479,-52.49 17.0218,-29.6649 0.032,-64.8031 -27.0623,-81.2965 -22.2229,-18.9939 -51.6585,-27.6204 -80.2216,-22.5653 z"
       style="opacity:1;fill:#bfbfbf;fill-opacity:1;stroke:none;stroke-width:17.92000008;stroke-linecap:round;stroke-linejoin:round;stroke-miterlimit:4;stroke-dasharray:none;stroke-opacity:1" />
    <path
       transform="matrix(0.8,0,0,0.80000008,0,-9.7656259e-5)"
       inkscape:connector-curvature="0"
       id="path4158"
       d="m 1073.9729,1207.0601 c -30.0497,2.2214 -59.7295,18.3334 -69.4947,48.4138 -21.30143,45.1606 24.2049,93.457 69.2607,91.6798 20.5589,-12.0569 9.9381,-42.1283 12.9719,-61.678 -1.0041,-24.6665 1.6318,-50.1505 -3.5099,-74.3208 -1.8856,-3.2627 -5.7382,-4.3395 -9.228,-4.0948 z"
       style="opacity:1;fill:#bfbfbf;fill-opacity:1;stroke:none;stroke-width:17.92000008;stroke-linecap:round;stroke-linejoin:round;stroke-miterlimit:4;stroke-dasharray:none;stroke-opacity:1" />
    <path
       d="m 1249.799,0.2171 c -18.2,1.4 -32.2,3.9 -56.2,10 -12.1,3 -14,3 -15.3,0.1 -1.8,-4 -7.4,-5.1 -26,-5.2 -32.5,0 -61.1,4.4 -93,14.5 -32.5,10.3 -70.19999,24.6 -93.39999,35.4 -7.5,3.5 -18.5,8.6 -24.6,11.3 -21.5,9.8 -66.5,34.1 -93.4,50.6 -23.6,14.4 -59.4,38.5 -76.1,51.2 -47.8,36.3 -102.1,83.9 -133.1,116.7 -35,37 -72,82.9 -97.9,121.3 -4.1,6 -8.7,12.8 -10.2,15 -9.1,12.9 -26,39.5 -38.5,60.5 -22.4,37.6 -57.4,109.9 -74.8,154.5 -2.6,6.6 -7.3,18.7 -10.5,27 -5.1,12.9 -10.3,27.7 -18.8,53 -1.1,3.3 -3.2,10 -4.7,15 -1.4,4.9 -3,10.1 -3.5,11.5 -1.3,3.9 -6.5,23 -10.5,39 -4.2,16.6 -4.6,18 -7.4,31.5 -4.6,22.3 -6,29.3 -7.1,36.5 -0.7,4.1 -1.8,10.9 -2.5,15 -9.8,55.8 -12.8,126.7 -7.5,180.5 1.9,19.2 3,29.1 4.5,38.5 4.8,31.9 7.8,49.9 8.6,52.5 0.5,1.6 1.3,5.7 1.8,9 1.2,7.7 4.9,25.3 6,28.5 0.5,1.4 1.9,7 3.1,12.5 1.2,5.5 3.2,13.4 4.5,17.5 1.2,4.1 2.7,9.3 3.3,11.5 2,7.5 8.3,28 10.1,33 1,2.7 2.8,8.4 4,12.5 1.3,4.1 2.7,8.6 3.3,10 0.6,1.4 1.9,5 2.9,8 4.8,14.7 12.7,36.1 17.9,48.5 2.3,5.5 5,12 5.9,14.5 9.3,23.7 29.7,65.3 43.6,89 19.2,32.8 25.7,42.7 50.9,78.5 5.2,7.5 15.6,21.4 27.1,36.3 5.5,7.2 32.7,41 43.1,53.7 67.6,82.2 188.1,184.8 284.4,242.2 23.4,13.9 64.3,34.4 83.5,41.8 3.3,1.2 9.4,3.7 13.5,5.5 13.3,5.7 59.99999,23 77.99999,29 42.1,13.9 57.9,18.8 99,30.6 25.8,7.4 62.1,16.8 75.5,19.4 4.7,0.9 10.3,2.1 23.5,5 84.4,18.3 250.5,31.3 319,25 6.3,-0.6 15.8,-1.5 21,-2 30.5,-2.8 72.9,-11.2 109.5,-21.5 32.6,-9.2 76.1,-24.8 105.5,-37.7 24.8,-11 59.7,-29.1 78.1,-40.6 3.5,-2.3 8.4,-5.3 10.9,-6.8 27.5,-16.7 69.9,-48.1 95.9,-71.2 42.2,-37.3 88.8,-88.4 125.5,-137.6 21.4,-28.7 51.9,-75.8 69.3,-107.1 12.9,-23.2 36.9,-73.3 45.8,-95.5 2.1,-5.2 5,-12.7 6.5,-16.5 17.2,-43.1 36.9,-104.5 43.1,-134.5 0.5,-2.5 2.8,-11.7 5,-20.5 4,-15.8 5.4,-22.3 10.5,-48 4.9,-25.1 9.5,-52.6 14.9,-89 10.1,-67.8 12.5,-97.5 12.5,-155 0,-61.5 -4.8,-123.3 -13.4,-172.5 -0.8,-4.7 -2.2,-12.3 -3,-17 -1.5,-8.8 -8.3,-37.3 -11.2,-47 -14.3,-47.8 -28.3,-84.5 -46.4,-121.6 -14.7,-29.9 -39,-71.5 -52.6,-89.8 -1.6,-2.2 -5.5,-7.5 -8.5,-11.6 -13.2,-17.9 -36.7,-49.1 -42.3,-56 -22.2,-27.6 -50,-57.5 -100.5,-108.4 -64.3,-64.7 -70.3,-69.7 -157.1,-130.8 -63,-44.4 -83.9,-57.3 -135.5,-83.8 -22.8,-11.7 -36.8,-19.3 -66.2,-36.1 -24.4,-14 -44.6,-23.9 -76.1,-37.3 -15,-6.4 -33.7,-14.6 -41.5,-18.2 -7.8,-3.6 -19.4,-9 -25.7,-11.9 -16.1,-7.5 -29.5,-12.7 -51.5,-20 -25.1,-8.4 -60.4,-18.8 -81.5,-23.9 -5.8,-1.4 -25.1,-6.1 -43,-10.5 -28.4,-6.9 -51.1,-12.3 -57.5,-13.6 -13.1,-2.7 -41.4,-4.8 -52.5,-3.9 z m 16,16.4 c 13.2,0.9 32.1,2.8 35.5,3.4 1.1,0.2 4.1,0.7 6.8,1 2.6,0.4 8,1.8 12,3.2 3.9,1.4 12.6,3.9 19.2,5.5 6.6,1.7 13.6,3.4 15.5,3.9 1.9,0.5 6,1.5 9,2.1 3,0.6 11.8,2.8 19.5,4.7 7.7,1.9 16,3.8 18.5,4.3 2.5,0.4 7.7,1.7 11.5,2.9 3.9,1.2 9.5,2.8 12.5,3.6 32.3,8.5 80.4,24.9 99.5,33.9 3.9,1.8 10.8,5 15.5,7 4.7,2 9.9,4.5 11.6,5.6 1.7,1 4.9,2.5 7,3.3 2.1,0.8 6.8,2.7 10.4,4.4 3.6,1.6 10.6,4.6 15.5,6.7 5,2.1 12.9,5.5 17.8,7.6 4.8,2.2 9.2,3.9 9.7,3.9 2.1,0 43.6,21 57,28.8 33.9,19.7 42.7,24.5 73,39.9 45.2,23.1 68.4,37 103.7,62 22.3,15.9 42.6,30.2 59.3,41.9 10.2,7.2 20.8,14.8 23.6,17 2.8,2.1 8,6.1 11.5,8.9 23.7,18.3 47.1,39.9 87.9,81.1 41.8,42.2 72,74.6 87.2,93.4 2.4,3 7.1,8.9 10.5,13 14.9,18.5 50.1,66.4 59.5,81 10.8,16.8 13.6,21.5 22.4,37.7 23.5,42.9 37.3,74.3 51.3,116.3 9.3,27.9 8.8,26 16.5,56.5 11,43.7 16,80.1 20,144 5,79.9 2.3,137.2 -10.5,223 -10.6,71.4 -18.1,109.8 -32,164 -2.7,10.4 -5.1,20.1 -5.5,21.5 -1.1,4.2 -6.3,21.8 -11.1,37 -10.3,32.5 -25.3,71.3 -44.5,114.5 -18.6,41.7 -55.3,105.7 -80.6,140.5 -31,42.5 -39.5,53.3 -70.7,89.4 -51.9,60.2 -118.2,115.1 -190.5,157.4 -16,9.4 -40.3,21.8 -61.1,31 -62.8,28 -129.2,47.4 -190.9,55.6 -37.3,5 -39.2,5.1 -91.5,5 -49.9,-0.1 -67.7,-0.8 -113,-4.9 -9.3,-0.8 -22.4,-2 -29,-2.5 -6.6,-0.6 -15.4,-1.5 -19.5,-2 -4.1,-0.6 -15.1,-1.9 -24.5,-3.1 -18.3,-2.2 -28.3,-3.7 -47,-6.9 -6.6,-1.1 -14.5,-2.5 -17.5,-3 -19.6,-3.3 -91.5,-20.8 -115,-28 -5.2,-1.6 -18.7,-5.6 -30,-9 -43.8,-13 -125.59999,-41.9 -151.49999,-53.5 -39.1,-17.5 -45.6,-20.7 -66,-32.3 -26.1,-14.7 -40.2,-23.7 -70.5,-45.1 -16.5,-11.5 -43.7,-31.6 -56.5,-41.6 -2.9,-2.2 -7.8,-6 -11.1,-8.5 -7.6,-5.8 -33.3,-27.2 -42.2,-35.3 -3.8,-3.4 -9.8,-8.6 -13.3,-11.6 -28.7,-24 -81.3,-78.3 -109.4,-113 -39.7,-49 -47.6,-59.3 -80.9,-106.6 -9.6,-13.7 -23.6,-36.1 -35.9,-57.5 -8.8,-15.4 -29.7,-57.6 -35.7,-72 -2.8,-6.9 -6.2,-15 -7.5,-18 -2.4,-5.5 -6,-14.9 -12.8,-33 -1.9,-5.2 -5.8,-16.5 -8.6,-25 -2.8,-8.5 -5.8,-17.5 -6.7,-20 -5.2,-15.2 -15.8,-53.1 -20.5,-73 -1.7,-6.9 -3.4,-14.1 -3.9,-16 -0.9,-3.4 -5.2,-26.5 -9,-48.5 -2,-11.2 -4.1,-25 -5.9,-38.5 -0.6,-4.1 -1.6,-10.9 -2.1,-15 -5.3,-37.1 -5.3,-99.2 -0.1,-147 1.9,-16.9 5.1,-40.8 7.1,-52 2.2,-13 7,-38 8.5,-44.5 0.9,-3.9 2,-8.8 2.5,-11 3.2,-13.8 4.2,-18.2 6.9,-28.5 12.3,-47.6 30,-98.3 55.2,-158.2 36.5,-86.8 83.5,-168.8 136.2,-237.8 4.4,-5.8 11.4,-14.9 15.5,-20.2 18.9,-24.8 49.9,-59.4 75.3,-84.3 36.4,-35.6 86.2,-77.3 128.4,-107.5 46.7,-33.5 89.5,-59 138.5,-82.5 25.9,-12.4 29.4,-14 59.5,-26.7 19.89999,-8.4 74.99999,-27.3 89.49999,-30.7 26.5,-6.3 67.7,-11.4 68.6,-8.6 0.2,0.5 -4.7,3 -10.9,5.4 -8.9,3.4 -12.2,5.2 -15.9,8.9 -8.2,7.9 -6,10 8.9,8.8 6.5,-0.6 10.7,-1.6 17.2,-4.3 9.5,-3.9 18.4,-6.7 49.6,-15.3 18.5,-5 35.4,-8.1 48.5,-8.8 1.4,-0.1 8.1,0.3 15,0.8 z"
       id="path8"
       inkscape:connector-curvature="0"
       style="fill:#000000;stroke:none" />
    <path
       d="m 1286.699,484.1171 c -12.5,1.5 -17.7,3.6 -18.5,7.4 -0.3,1.4 -0.7,3.6 -1,4.8 -0.3,1.5 -2.3,3 -6.2,4.9 -19.8,9.6 -36.2,25.5 -45.5,44.3 -2.3,4.6 -4.8,8.6 -5.5,8.9 -0.7,0.2 -8.9,-0.3 -18,-1.2 -27.5,-2.7 -32.8,-2.2 -35.9,3.7 -1.4,2.7 -1.3,3.2 0.5,5.6 2.6,3.6 7.5,4.6 29.9,6.1 11.3,0.7 20,1.8 20.9,2.5 1.2,0.9 1.7,3 1.8,8.6 0.1,6.4 0.6,8.5 3.6,14.4 7.4,14.6 21.7,26.7 45.7,38.8 20.3,10.2 28.9,13.2 45.3,15.7 6.9,1.1 15,2.5 18,3.1 3,0.5 10.9,1.3 17.6,1.6 14.2,0.7 17.7,-0.2 29.9,-7.5 6.8,-4.1 8.4,-5.7 11,-10.3 6.6,-12.1 17.7,-46.1 16,-48.9 -0.3,-0.5 0.3,-1.3 1.3,-1.9 2.1,-1.1 44,3.2 48.2,5 2.4,1 2.4,1.1 -3.5,6.2 -9.6,8.4 -16.9,19.3 -27.5,41.2 -5.4,11 -11.5,24 -13.4,28.9 -2,4.8 -5,11.5 -6.7,14.8 -3.7,7.4 -3.3,10.3 1.6,12.4 8.1,3.3 11,0.6 18.5,-17.3 3,-7 7.9,-18.2 11,-24.8 3.1,-6.6 6.3,-13.5 7.1,-15.3 1.6,-3.8 3.3,-4.1 5.1,-1 1.9,3.5 2.4,81.9 0.7,116.8 -1.7,34.9 -1.8,110 -0.1,142.5 1.6,32.1 2.7,45.2 5.8,65.5 1.3,9.1 2.4,16.8 2.4,17.2 0,0.5 -0.9,0.8 -2,0.8 -2.5,0 -4.9,-4.6 -13.4,-25.7 -3.5,-8.7 -7.7,-18.6 -9.4,-22 -4.7,-9.1 -11,-12.8 -15.7,-9.1 -3.5,2.7 -3.2,6.5 1.1,15.6 2,4.3 6.7,14.9 10.3,23.7 12,28.9 18,36.8 33.9,44 4.1,1.9 9.8,0.7 13.1,-2.9 2.1,-2.3 14.7,-31.8 24.7,-58 6.5,-17.1 10,-24.6 17.6,-38.1 7.1,-12.5 7.5,-13.8 5.7,-17.8 -5.4,-11.9 -19.4,2.1 -32.6,32.8 -2.2,4.9 -6.6,15.4 -9.8,23.2 -4.5,11 -6.3,14.3 -7.7,14.3 -1,0 -1.8,-0.4 -1.8,-0.9 0,-0.6 -0.7,-6.1 -1.5,-12.3 -3.4,-26.3 -5.5,-111.5 -4.3,-177.3 1.6,-88.5 1.2,-126.6 -1.9,-154.8 -0.6,-5.8 -0.5,-5.9 1.8,-5.5 2,0.2 3.5,2.6 8.6,12.6 3.4,6.8 8,16.9 10.2,22.5 4.7,12.1 16.9,39.6 21.7,48.7 1.9,3.6 5.1,8.4 7.3,10.7 3.4,3.8 4.4,4.3 8.3,4.3 4.3,0 8.8,-2.6 8.8,-5.1 0,-1.5 -3,-7.1 -5,-9.4 -3.5,-3.8 -17.2,-32.7 -26.2,-55 -7.9,-19.6 -15.3,-34 -20.2,-39.3 -5.6,-6.1 -4.5,-6.6 11.6,-6.4 7.3,0.1 15.6,0.5 18.3,0.8 6.5,0.7 44.7,-1.3 50.5,-2.7 2.5,-0.5 6.2,-2.1 8.3,-3.5 4.8,-3.1 4.8,-6.9 0.2,-9.5 -2.8,-1.6 -5.5,-1.7 -36.5,-0.8 -43.2,1.2 -62.2,0.3 -110,-5.1 -13.4,-1.6 -14,-1.9 -14,-7.9 0,-7.9 -2,-25.1 -3.6,-31.6 -0.9,-3.3 -2.6,-7.9 -4,-10.2 -7.7,-13.3 -36.4,-29.3 -62.9,-34.9 -13,-2.7 -22.8,-2.9 -39.6,-0.9 z m 46.1,17.5 c 16.8,4.6 37.4,17.1 41.6,25.2 2,3.9 4,15 4.9,27 0.9,12.4 1.2,12.2 -16.7,10.8 -7.3,-0.5 -24.1,-1.4 -37.3,-2 -13.2,-0.5 -35.2,-1.5 -49,-2.1 -32.6,-1.3 -44.1,-2.3 -45.9,-3.8 -1.4,-1.1 -1.3,-1.8 0.6,-5.4 5.8,-11.4 18.5,-24.9 31.3,-33.3 8.9,-5.8 24.4,-13.8 32,-16.5 7.5,-2.7 28.5,-2.6 38.5,0.1 z m -94.5,72 c 13.1,1.6 33.3,2.9 63,4 53,1.9 76,3.2 77.3,4.2 1.9,1.6 0.7,6.3 -5.9,24.1 -9.1,24.2 -9.5,24.9 -21.3,30.3 -8.4,3.8 -13.4,4 -32.8,1 -25.8,-3.9 -32.5,-5.8 -48.5,-13.6 -17.1,-8.3 -24.9,-13.6 -34.2,-23.6 -7.7,-8.2 -11.1,-14.2 -11.1,-19.5 0,-1.9 -0.6,-4.1 -1.2,-4.7 -1,-1 -1,-1.5 0.2,-2.2 1.9,-1.2 4.7,-1.2 14.5,0 z"
       id="path10"
       inkscape:connector-curvature="0"
       style="fill:#000000;stroke:none" />
    <path
       d="m 858.09901,835.2171 c -2.2,2.2 -2.4,3 -1.8,6.2 0.5,2 0.9,22.1 1.1,44.7 0.1,22.5 0.7,45.3 1.2,50.5 0.6,5.2 0.7,9.8 0.3,10.3 -0.4,0.4 -4,1.6 -8,2.7 -16.2,4.5 -37.3,17.5 -47.2,29.1 -12.1,14.2 -17.9,27.5 -17.9,41.3 0,7.1 0.2,8.3 4,19.6 5.2,15.8 23.4,34 41.1,41.1 5.7,2.2 22.3,5.9 26.8,5.9 1.5,0 3.5,0.6 4.4,1.2 1.6,1.2 1.6,2.9 0.6,21.8 -0.7,13.6 -0.7,30.5 -0.1,50.5 l 0.9,30 -2.9,5.1 c -3.9,7.2 -3.9,14.4 0.1,20.5 2.5,3.8 3,5.7 3.6,14.7 0.6,7.9 1.2,10.8 2.7,12.7 4.2,5.4 10,1.3 11.4,-8.2 0.9,-6 2.2,-6.8 9.2,-5.5 3.1,0.7 10.9,1.9 17.2,2.7 12.9,1.8 19.5,3.6 25.7,7.1 4.9,2.8 7.3,3 11.9,0.8 4.3,-2.1 4.9,-4.1 2.5,-9.6 -1.7,-4 -2.7,-4.9 -9.2,-8.1 -9.3,-4.6 -17.9,-6.4 -47.1,-10.2 -7.5,-1 -9.3,-3.5 -8.9,-12.2 0.1,-2.8 10.6,-11.3 13.8,-11.3 1.2,0 4.1,0.9 6.3,2.1 3.8,2 6.1,2.1 52.3,3 26.5,0.5 88.79999,1.1 138.39999,1.4 49.6,0.2 106.6,0.9 126.5,1.6 37.6,1.2 83.6,0.6 86.9,-1.2 1,-0.5 2.1,-2 2.5,-3.3 0.7,-2.8 -1.8,-8.1 -4.3,-9.1 -1,-0.4 -8.5,-0.9 -16.8,-1.1 -8.2,-0.2 -31.9,-0.9 -52.5,-1.6 -21,-0.6 -100.6,-1.2 -180.9,-1.3 -93.09999,-0.1 -143.59999,-0.5 -143.79999,-1.1 -0.2,-0.6 0.7,-1.9 1.9,-3.1 3.5,-3.1 31.4,-20.6 39.4,-24.6 4,-2 7.9,-4.3 8.8,-5.2 2.3,-2.3 2,-7.7 -0.6,-11 -1.9,-2.5 -2.6,-2.7 -7.3,-2.3 -6.9,0.6 -18.3,7.5 -47,28.3 -13.9,10.1 -22.1,15.5 -23.1,15.1 -1.4,-0.5 -1.5,-5.3 -1.2,-41.4 0.2,-32.6 0.6,-41.2 1.7,-42.5 1.1,-1.4 2.8,-1.6 11.5,-1.1 24.4,1.5 55.4,-8.1 69.2,-21.4 4.8,-4.7 11.5,-17.1 15.5,-29 3.3,-9.7 4.1,-22.4 1.9,-31.6 -1.5,-6.5 -8.3,-19.6 -13.4,-25.7 -10,-11.8 -35.6,-28.5 -51.1,-33.2 -11.1,-3.3 -16.4,-4 -27.4,-3.5 -9.2,0.5 -11.3,0.3 -12.3,-1 -1,-1.2 -1.3,-11.5 -1.4,-45.6 -0.1,-55.6 -0.7,-60.9 -6.6,-65 -3.2,-2.3 -5.5,-2 -8.5,1 z m 49.9,127 c 9.2,2.9 15.1,5.9 27.9,14.5 10.7,7.1 17.2,14.2 21.8,23.9 3.2,6.6 3.6,8.6 3.9,16.5 0.3,8.1 0,9.9 -2.8,17.4 -4.5,12.3 -9.8,21.7 -14.1,25.5 -10.9,9.3 -37.1,17.1 -54.9,16.4 -5.4,-0.2 -7.6,-0.7 -8.3,-1.9 -0.7,-1.2 -0.6,-10.4 0.3,-29.5 1.4,-29.9 1.2,-33.6 -3.2,-64.5 -2.5,-17.8 -2.4,-18.2 4.5,-19.8 7.9,-1.7 16.2,-1.2 24.9,1.5 z m -44.4,17.1 c 3,24.4 3.4,34.7 3,62.1 -0.7,36.1 0.5,34.4 -20,29.8 -14.1,-3.2 -20.8,-6.5 -28.2,-14 -10.7,-10.7 -16.3,-24.5 -15.4,-37.9 0.6,-9.6 7.8,-23.6 17.2,-33.5 8.2,-8.6 10.1,-9.7 18.2,-10.7 3.5,-0.4 9.2,-2.1 13.4,-4 5,-2.3 7.9,-3.1 9,-2.5 1.1,0.6 1.9,3.6 2.8,10.7 z"
       id="path12"
       inkscape:connector-curvature="0"
       style="fill:#000000;stroke:none" />
    <path
       d="m 1853.499,838.6171 c -3.8,3 -4,6.3 -1.3,19.5 1.3,6.6 2.9,16.4 3.5,21.8 1.3,11.5 3.4,60.4 2.7,62.2 -0.3,0.9 -2.8,1.3 -7.8,1.2 -4.3,0 -10.4,0.8 -14.8,2 -4.1,1.2 -9.1,2.4 -11.1,2.7 -3.7,0.7 -24.3,13.8 -31.1,19.8 -6.7,5.9 -16,18.2 -19.5,25.5 -4.3,9 -5.3,18.5 -2.9,28.7 3.3,14.1 14.7,38.4 23,49.1 17.1,22.2 36.4,36 52.5,37.4 3.8,0.4 7.6,1.2 8.4,1.9 1.3,1.1 1.5,4.7 1.4,24.8 -0.2,23.2 -0.2,23.5 -2.4,24 -1.1,0.3 -3,0.1 -4.2,-0.5 -5.1,-2.8 -61.8,-22.1 -64.7,-22.1 -2.3,0 -3.8,0.7 -4.8,2.2 -2.9,4.2 -1.5,11.6 2.6,14 1.3,0.7 16.4,6 33.7,11.8 32.2,10.7 36.1,12.6 31.6,15.3 -3.3,2 -25,9.3 -40,13.6 -18.6,5.3 -27.9,8.9 -35.3,14 -5.3,3.6 -6.2,4.6 -6.2,7.2 0,3.3 4.6,8.9 7.4,8.9 0.8,0 5,-1.8 9.3,-3.9 4.5,-2.3 14.3,-5.7 23.3,-8.1 15,-4.1 26.9,-8.1 39.8,-13.5 9.7,-4 9.9,-3.8 10.6,11.3 0.4,7 1.2,19.9 1.9,28.7 0.6,8.8 1.1,23.6 1.2,32.9 0,16.3 0.1,16.9 2.2,18.3 3.4,2.3 9.1,-0.9 12.1,-6.7 2.3,-4.4 2.4,-5 1.8,-23.5 -0.3,-10.5 -1.3,-27.3 -2.2,-37.5 -0.9,-11.1 -1.7,-36.4 -2.1,-63.5 l -0.5,-45 2.2,-2.8 c 1.2,-1.5 2.9,-2.7 3.8,-2.7 3.3,-0.1 17.9,-6.7 25.9,-11.9 10.4,-6.7 21.2,-18 25.7,-26.9 3.5,-6.9 5.7,-16.5 7.1,-31.3 1.7,-16.7 -6.4,-40.3 -20.1,-58.5 -9.2,-12.2 -18.3,-18.4 -32.4,-21.9 -3.6,-0.9 -7.1,-2.2 -7.8,-2.9 -0.9,-0.9 -1.5,-8.7 -2.2,-29.2 -0.5,-15.3 -1.2,-31.1 -1.5,-34.9 -1.5,-19 -5.8,-45 -8.1,-49.6 -2.2,-4.4 -6.5,-5.1 -10.7,-1.9 z m 3.3,127.5 3,1.6 0,26.7 c 0,37 -2,97.4 -3.2,98.9 -1.3,1.6 -6.9,1.7 -12.3,0.2 -15.6,-4.2 -33.9,-20.5 -44.8,-39.9 -4.6,-8.3 -10.5,-22 -12.3,-28.5 -1.8,-6.5 -1.8,-18.3 0,-22.6 5.4,-12.8 22.1,-29.4 36.7,-36.4 5.2,-2.5 5.9,-2.6 17.7,-2.1 8.1,0.4 13.2,1.1 15.2,2.1 z m 32.9,8.6 c 2.5,1.1 6,3.1 7.8,4.5 6.4,4.8 17,23.7 20.8,36.9 2.8,9.6 0.6,33.4 -4,42.5 -3.6,7.2 -11,16.4 -16.7,20.8 -7.5,5.7 -18.3,11.4 -21,11 -2.2,-0.3 -2.3,-0.6 -2.1,-10.8 1.5,-109.7 1.4,-105.4 3.1,-106.8 1.9,-1.5 5.7,-0.9 12.1,1.9 z"
       id="path14"
       inkscape:connector-curvature="0"
       style="fill:#000000;stroke:none" />
    <path
       d="m 1338.899,987.1171 c -4.6,2.2 -15.9,9.5 -27.8,17.9 -3,2.2 -4.1,2.3 -33,3 -37.3,0.8 -46,-0.1 -64,-6.8 -6.7,-2.5 -13.1,-4.6 -14.1,-4.6 -1.1,0 -3.1,0.9 -4.6,2.1 -3.2,2.6 -3.5,7 -0.5,10 3.2,3.2 13.6,7.6 26.6,11.1 l 11.8,3.2 33.5,0.1 33.5,0 2.3,5 c 4.3,9.1 11.9,15 22.8,17.6 9.6,2.3 9.4,1.8 9.4,19.2 -0.1,8.3 -0.5,22.4 -1,31.2 -0.4,8.8 -1.4,26.1 -2,38.5 -1.3,25.3 -1.5,26.9 -3.5,27.6 -1.5,0.6 -24,-8.4 -34.9,-13.8 -8.9,-4.5 -12.7,-2.6 -10.6,5.3 0.8,2.8 2.3,4.8 5.3,7 5.1,3.8 20.3,11 30.7,14.6 9.2,3.2 10,3.8 10,7.3 0,3.6 -3.3,7 -14.6,14.7 -17,11.5 -34.8,20.5 -55.4,27.8 -13.7,4.9 -24.3,9.8 -26.9,12.4 -3,3 -2.7,7.2 0.8,10.5 3.6,3.5 5.1,3.5 13.6,0.3 3.9,-1.4 13.3,-4.9 21,-7.8 15.9,-5.8 29.2,-12.5 46.5,-23.5 6.7,-4.2 12.7,-7.4 13.4,-7.1 2.6,1 3.5,48.2 1.1,64.2 -1.1,7.7 -1.1,9.3 0.1,11.2 3,4.8 11.4,1.8 14.3,-5 4.1,-9.7 4.4,-13 3.8,-35.5 -0.3,-11.9 -0.9,-22.7 -1.3,-23.9 -1.3,-4.5 2,-4.4 20.1,0.8 25.3,7.3 31.6,8.5 35.5,6.9 4.2,-1.8 5.9,-4.6 5.3,-9.3 -0.4,-2.9 -1.2,-4.1 -3.4,-5.2 -1.5,-0.8 -3.6,-1.5 -4.5,-1.5 -0.9,0 -4.7,-0.8 -8.3,-1.9 -3.6,-1 -11.3,-3.1 -17.1,-4.6 -24,-6.2 -29.1,-8.6 -27,-12.6 1.6,-2.9 14.4,-11.1 16.2,-10.4 0.9,0.4 1.9,1.8 2.2,3.1 0.4,1.4 2.1,3.4 3.9,4.5 3.8,2.3 8.8,2.2 26.2,-0.7 10.4,-1.7 22.7,-1.8 215,-1.8 190.7,-0.1 204.2,-0.2 207.1,-1.8 3.7,-2 4.4,-3.4 3.7,-7.1 -0.8,-4.2 -3.7,-6 -10.1,-6.3 -3.1,-0.1 -15.1,-0.7 -26.7,-1.2 -26.3,-1.4 -278.7,-2 -335.5,-0.9 -23.1,0.5 -46.8,1.5 -53.4,2.3 -10.6,1.2 -13.9,1.2 -12.5,0 0.2,-0.1 6.2,-3.3 13.2,-7 18.6,-9.8 20.7,-12.1 17.6,-18.9 -2.9,-6.3 -10,-5.8 -21.1,1.4 -9,5.8 -42.5,21.9 -44.3,21.3 -1.8,-0.7 -1.8,1.4 -0.1,-24 2.5,-35.7 3.9,-73 3.3,-84.2 -0.3,-5.9 -0.3,-11.2 0.1,-11.8 0.4,-0.6 3.5,-3 7,-5.3 3.5,-2.3 8.4,-6.9 10.9,-10.1 2.5,-3.2 5.1,-6.1 5.8,-6.4 0.7,-0.2 4.8,0 9.1,0.6 8.3,1.2 40.6,1.5 112.9,1 41.9,-0.3 44.2,-0.4 48.2,-2.3 5.7,-2.8 9.3,-7.2 9.3,-11.4 0,-5.2 -2.5,-6.1 -11.2,-3.9 -5.9,1.4 -10,1.6 -25.2,1.1 -9.9,-0.3 -35.3,-0.1 -56.3,0.6 -39,1.1 -79.9,0.1 -84.2,-2.2 -1.2,-0.7 -2.1,-2.7 -2.5,-6.2 -0.9,-6.7 -3.6,-12 -8.1,-15.7 -7.1,-5.8 -18.3,-6.9 -27.4,-2.7 z m 18.8,13.4 c 2,1.3 -0.3,4.1 -3.3,4.1 -1.3,0 -4.4,0.7 -6.9,1.6 -2.6,0.9 -5.5,1.3 -6.4,1 -1.4,-0.6 -1.3,-0.9 0.7,-2.3 2.7,-1.9 10.9,-5.2 13,-5.2 0.8,-0.1 2.1,0.3 2.9,0.8 z"
       id="path16"
       inkscape:connector-curvature="0"
       style="fill:#000000;stroke:none" />
    <path
       d="m 1487.799,1889.6171 c 0,0.5 0.9,1 2,1 1.1,0 2,-0.5 2,-1 0,-0.6 -0.9,-1 -2,-1 -1.1,0 -2,0.4 -2,1 z"
       id="path18"
       inkscape:connector-curvature="0"
       style="fill:#000000;stroke:none" />
  </g>
</svg>
