<?xml version="1.0" encoding="UTF-8" standalone="no"?>
<svg
   xmlns:dc="http://purl.org/dc/elements/1.1/"
   xmlns:cc="http://creativecommons.org/ns#"
   xmlns:rdf="http://www.w3.org/1999/02/22-rdf-syntax-ns#"
   xmlns:svg="http://www.w3.org/2000/svg"
   xmlns="http://www.w3.org/2000/svg"
   xmlns:sodipodi="http://sodipodi.sourceforge.net/DTD/sodipodi-0.dtd"
   xmlns:inkscape="http://www.inkscape.org/namespaces/inkscape"
   version="1.0"
   width="3557.1658pt"
   height="1256.8479pt"
   viewBox="0 0 3557.1658 1256.8479"
   preserveAspectRatio="xMidYMid meet"
   id="svg11958"
   inkscape:version="0.91 r13725"
   sodipodi:docname="plugs-xy-center-even.svg"
   inkscape:export-filename="/home/churchyard/RepRap/BI-3DT/powerplugs-task/pics/plugs-xy-center-even.svg.png"
   inkscape:export-xdpi="20.737593"
   inkscape:export-ydpi="20.737593">
  <defs
     id="defs12226" />
  <sodipodi:namedview
     pagecolor="#ffffff"
     bordercolor="#666666"
     borderopacity="1"
     objecttolerance="10"
     gridtolerance="10"
     guidetolerance="10"
     inkscape:pageopacity="0"
     inkscape:pageshadow="2"
     inkscape:window-width="1848"
     inkscape:window-height="1056"
     id="namedview12224"
     showgrid="false"
     fit-margin-top="0"
     fit-margin-left="0"
     fit-margin-right="0"
     fit-margin-bottom="0"
     inkscape:zoom="0.24415922"
     inkscape:cx="2407.1092"
     inkscape:cy="994.19393"
     inkscape:window-x="72"
     inkscape:window-y="0"
     inkscape:window-maximized="1"
     inkscape:current-layer="svg11958" />
  <metadata
     id="metadata11960">
Created by potrace 1.13, written by Peter Selinger 2001-2015
<rdf:RDF>
  <cc:Work
     rdf:about="">
    <dc:format>image/svg+xml</dc:format>
    <dc:type
       rdf:resource="http://purl.org/dc/dcmitype/StillImage" />
    <dc:title></dc:title>
  </cc:Work>
</rdf:RDF>
</metadata>
  <g
     id="g13019"
     transform="translate(-120.6418,-417.57134)">
    <path
       sodipodi:nodetypes="ccccc"
       inkscape:connector-curvature="0"
       id="rect12912"
       d="M 226.08197,517.39288 C 1272.3659,493.69575 2320.539,454.97895 3358.4643,497.73358 c 237.5834,256.1559 497.5781,598.40272 88.4669,1114.02712 l -3269.99749,3.2766 C 204.2383,1250.248 90.726101,930.20495 226.08197,517.39288 Z"
       style="opacity:1;fill:#999999;fill-opacity:1;stroke:none;stroke-width:1.75393701;stroke-linecap:round;stroke-linejoin:round;stroke-miterlimit:4;stroke-dasharray:none;stroke-opacity:1" />
    <path
       d="m 1895,418.6234 c -8.2,3.5 -19.1,6.2 -27.5,6.8 -12.4,0.9 -16.2,1.9 -19.7,5.2 -3.3,3.2 -2.4,3.1 -30.3,2 -74.2,-2.9 -204.9,-3.7 -415.5,-2.4 -152.8,0.9 -225.1,1.9 -272.5,3.7 -49.4,1.8 -54.8,2 -88,2.5 -82.1,1.3 -99.1,1.6 -115.5,2.5 -9.6,0.5 -24.2,1.2 -32.5,1.5 -8.2,0.3 -17.5,0.8 -20.5,1 -13.3,1.1 -37.7,2.5 -52,3 -8.5,0.3 -21.8,0.8 -29.5,1 -7.7,0.3 -20.7,0.8 -29,1 -60.1,1.9 -110.2,4.2 -143,6.6 -8.2,0.6 -19.5,1.3 -25,1.4 -24.2,0.8 -38.2,1.7 -55,3.5 -9.9,1 -22,2.2 -27,2.5 -4.9,0.3 -13.7,1.2 -19.5,2 -56.9,7.6 -57.1,7.6 -156,7.1 -91.6,-0.5 -90.1,-0.5 -103.6,4.5 -3,1.1 -7.5,3.6 -9.9,5.4 -2.4,1.9 -6.3,4.6 -8.7,6.1 -5.8,3.7 -14.3,12.5 -17.5,18.2 -4.2,7.6 -4.5,8 -8.2,10.1 -2,1.1 -4.3,2.8 -5.1,3.8 -1.4,1.5 -9.8,8.8 -11.9,10.3 -1.9,1.3 -7.1,9.5 -7.1,11.2 0,2.3 1.7,2.3 7.6,-0.3 3.8,-1.7 6,-2 10.9,-1.6 5.3,0.5 6.2,0.3 7.3,-1.4 1.4,-2.2 5,-2.5 7.7,-0.5 2.3,1.7 1.4,4.3 -1.7,4.8 -2.1,0.3 -2.3,0.8 -2.3,6.3 l 0.1,6 4.2,2.1 c 5.7,2.7 8.6,5.8 8.7,9.1 0,3.7 2.6,3.7 3.6,0 1,-3.7 8.9,-12.8 15.8,-18.4 3.1,-2.5 9.6,-6.4 14.4,-8.8 l 8.8,-4.4 19.7,0.6 c 12.6,0.3 28,0 42.7,-1 16.8,-1.1 33,-1.4 60,-1 42.8,0.6 54,-0.2 111,-7.7 6,-0.8 17.1,-1.9 34.5,-3.5 2.5,-0.3 11.3,-0.9 19.5,-1.5 8.3,-0.6 16.4,-1.3 18,-1.5 1.7,-0.3 15.2,-1.2 30,-2 46.9,-2.6 62.6,-3.4 79,-4.4 18.2,-1.2 54.9,-2.8 80,-3.6 9.4,-0.3 27.8,-1.1 41,-1.6 13.2,-0.6 27.8,-1.2 32.5,-1.4 8.2,-0.3 15.5,-0.7 66,-3.9 28,-1.8 80.7,-3.3 143,-4.1 50.1,-0.7 52,-0.7 113,-2.9 65.7,-2.3 88.2,-2.8 178,-3.2 45.9,-0.3 107.8,-0.7 137.5,-0.9 173.5,-1.6 213.8,-1.5 348.8,1.1 36.7,0.6 38,0.7 40.3,2.8 2.5,2.1 2.5,2.2 2.9,25.1 0.5,27.6 1.3,47 2.5,58.5 0.5,4.7 1.6,15.7 2.5,24.5 0.8,8.8 2,20 2.6,25 0.6,4.9 1.4,12.2 1.8,16.1 0.5,3.9 1.1,7.5 1.4,8.1 0.3,0.5 1,5.6 1.6,11.4 0.6,5.7 1.3,12.4 1.5,14.9 0.3,2.5 1.8,16.6 3.4,31.5 1.6,14.8 3,28.6 3,30.5 0.1,3.5 1.9,33.9 2.7,46 2.1,32.5 2.5,43.6 3,100 0.3,29.4 0.8,55.1 1.1,57 0.4,3.2 4.4,7.6 4.4,5 0,-0.5 0.8,-1 1.9,-1 2.6,0 4.3,-2.4 4.8,-6.7 0.2,-2.1 0.8,-4 1.3,-4.3 1.1,-0.7 1.6,-11.4 2.5,-52.5 0.6,-31.8 0.8,-49 0.5,-49 -0.1,0 -0.4,-7.7 -0.5,-17.2 -0.2,-9.4 -0.8,-18.7 -1.4,-20.6 -0.8,-2.3 -0.8,-4.2 -0.2,-5.9 1.2,-3.3 0.6,-17.3 -0.9,-21.6 -0.8,-2.1 -0.9,-4.1 -0.3,-6 0.6,-1.5 0.6,-3.9 0.2,-5.4 -0.4,-1.5 -1,-9.5 -1.3,-17.8 -0.3,-8.2 -0.8,-16.6 -1.1,-18.7 -0.6,-3.9 -0.8,-7 -2,-27.3 -0.4,-6.3 -0.9,-12.2 -1.3,-13 -0.3,-0.8 -0.7,-3.3 -0.8,-5.5 -0.1,-2.2 -0.5,-6.9 -0.9,-10.5 -0.4,-3.6 -0.7,-7.6 -0.7,-9 0.1,-1.4 -0.5,-5.7 -1.3,-9.5 -0.7,-3.9 -1.1,-9.7 -0.9,-12.9 0.3,-4.1 0,-6.2 -0.8,-6.8 -0.7,-0.4 -1.3,-2.8 -1.4,-5.5 0,-2.6 -0.4,-5.7 -0.8,-6.9 -0.5,-1.4 -0.2,-2.6 0.9,-3.7 1.3,-1.3 1.4,-2.1 0.5,-3.8 -0.7,-1.1 -0.9,-3 -0.6,-4.2 0.3,-1.2 0,-2.7 -0.6,-3.4 -0.5,-0.7 -1.2,-3.3 -1.3,-5.7 -0.2,-2.4 -1.1,-5.8 -2,-7.6 -1.2,-2.3 -1.5,-4.5 -1,-7.9 0.3,-2.5 0.2,-6 -0.3,-7.6 -0.6,-1.8 -0.6,-4 0,-5.5 0.6,-1.5 0.5,-3.4 -0.3,-5.1 -0.6,-1.6 -0.7,-3.4 -0.3,-4.1 0.5,-0.7 0.9,-1.5 0.9,-1.8 0.1,-0.3 0.4,-2.2 0.9,-4.3 0.5,-2.6 0.3,-4.3 -0.5,-5.3 -0.6,-0.8 -0.8,-1.4 -0.4,-1.4 0.4,0 -0.3,-1.6 -1.4,-3.6 -2,-3.3 -2,-3.8 -0.7,-6.5 1.3,-2.7 1.3,-3.1 -0.5,-4.7 -1.9,-1.8 -2.1,-3.3 -3.3,-25.7 -0.2,-2.8 -1,-9.7 -1.9,-15.5 -2.7,-18.5 -2.5,-28.2 0.6,-34.8 2.7,-5.8 5.8,-7.2 10.8,-4.9 1.9,0.9 7.1,2.3 11.5,3 9.7,1.7 10.4,2 10.5,5.5 0,1.5 0.3,3.5 0.7,4.4 0.7,1.6 0.9,1.6 3.7,0.2 2.4,-1.2 3.7,-1.3 6.5,-0.4 2.2,0.7 17,1.1 41.2,1.3 26.7,0.1 37.8,0.5 37.8,1.3 0,1.6 -7.5,4.3 -9.1,3.3 -2.1,-1.3 -6.4,-1.1 -9.5,0.6 -3.6,1.8 -4.3,1.7 15.6,2 9.1,0.1 17.5,0.5 18.8,0.9 7.8,2.6 -6.9,4.8 -25.8,4 -5.8,-0.3 -11.2,-0.5 -12,-0.5 -32,0.2 -50,1 -53.5,2.2 -3.6,1.3 -4,1.8 -3.7,4.4 0.1,1.7 -0.5,4.7 -1.4,6.7 -1.8,4.1 -3.5,3.6 -4.8,-1.5 -0.4,-1.8 -1.3,-2.7 -2.6,-2.7 -1.7,0 -2,0.7 -2,4 0,3.3 -0.7,4.7 -4,8.2 -2.2,2.4 -4.2,5 -4.5,5.8 -0.3,0.8 -1.8,2.3 -3.5,3.2 -2.4,1.4 -3,2.4 -3,5.2 0,1.9 -0.4,3.8 -1,4.1 -1.3,0.8 -1.3,5.5 0,7.5 0.6,1 0.4,2 -0.6,3.1 -0.9,1 -1.7,3.4 -1.8,5.4 -0.2,2.3 -1.1,4.2 -2.5,5.1 -2.6,1.9 -2.8,5.4 -0.2,5.4 1.2,0 2.5,1.5 3.9,4.7 1.9,4.2 1.9,4.9 0.6,6 -0.9,0.6 -1.1,1.4 -0.5,1.7 0.5,0.4 0.8,2.4 0.6,4.6 -0.3,2.3 0.3,5.5 1.2,7.7 0.9,2.1 1.7,7.1 1.9,11.1 l 0.2,7.3 -2.9,-0.6 c -4,-0.9 -3.6,0.5 1.1,4.6 2.2,1.9 4,4.3 4,5.4 0,1.1 0.7,3.3 1.5,4.9 1.2,2.3 1.3,3.6 0.5,6 -0.8,2.2 -0.7,3.2 0.2,3.7 0.7,0.4 1.2,2.5 1.1,4.6 0,2.1 -0.1,6.4 -0.2,9.5 -0.1,3.2 0.3,6.6 0.8,7.7 0.9,1.7 1.5,7.7 1.1,12.1 -0.1,0.8 0.1,3.7 0.3,6.5 0.2,2.7 -0.1,5.6 -0.7,6.4 -0.8,1 -0.3,1.9 1.8,3.6 2.4,1.9 2.7,2.5 1.7,4.4 -0.7,1.1 -2.1,2.1 -3.1,2.1 -1.1,0 -2,0.4 -2,1 0,0.5 -0.1,1.3 -0.2,1.7 -0.1,0.5 1.1,1 2.8,1.3 2.9,0.5 2.9,0.6 2.9,7 0,3.6 0.3,7 0.7,7.5 1.1,1.7 0.7,10.6 -0.5,12.6 -0.9,1.5 -0.7,2.3 1,4.1 l 2.1,2.3 -2.2,3.2 c -1.9,2.8 -2.3,4.5 -1.7,8.4 0.1,0.3 1,1.5 2,2.6 2,2.1 2,2.1 0,3.9 -2.6,2.3 -2.4,4.3 0.4,5.3 2,0.8 2.4,1.7 2.5,5.6 0,2.5 0.6,6.8 1.2,9.6 1.2,5.1 0.6,11.9 -1,11.9 -0.6,0 -1,0.7 -1,1.5 0,0.8 0.4,1.5 0.9,1.5 0.4,0 1.6,2 2.6,4.5 1.6,4.2 1.6,4.7 0.1,7.1 -1,1.3 -2,2.3 -2.4,2 -0.5,-0.3 -1.4,-0.1 -2.2,0.4 -1.2,0.7 -1.2,1.3 -0.1,3.4 1.2,2.1 1.2,2.8 0.1,4.1 -1.8,2.2 -0.5,3 2.6,1.6 1.4,-0.6 2.9,-0.9 3.3,-0.6 1.3,0.7 2.7,11.7 3.6,26.5 1.2,20.2 2.3,24.1 6.9,23.3 3.2,-0.7 6.6,2.8 6.6,6.8 0,1.7 1.1,4.4 2.4,6.2 1.4,1.8 2.8,4.4 3.1,5.9 0.8,3.1 3.2,3.8 3.7,1.1 0.7,-3.6 -1.2,-62.1 -2.7,-81.8 -0.8,-11.6 -1.8,-24.4 -2.1,-28.5 -0.9,-13.7 -2.4,-27.7 -7.5,-70.5 -1.7,-14.3 -3.4,-29.4 -3.9,-33.5 -0.5,-4.1 -1.2,-9.3 -1.5,-11.5 -2.7,-20.7 -7.2,-73.6 -8,-94.5 -0.2,-6.9 -0.7,-16.2 -1.1,-20.7 -0.8,-9.9 0.7,-15.4 3.5,-12.9 0.9,0.7 4.5,1.7 8.1,2.1 9.2,1.1 107.6,0.8 144,-0.5 16.8,-0.5 74.4,-1 128,-0.9 53.6,0 122.7,-0.3 153.5,-0.6 59.7,-0.7 62.2,-0.7 171,-2.5 62.8,-1.1 196.8,-0.7 210.5,0.5 2.5,0.2 14.9,0.7 27.5,1 12.7,0.3 35.8,1 51.5,1.6 15.7,0.5 46.1,1.4 67.5,1.9 21.5,0.6 57.7,1.7 80.5,2.5 39,1.4 52.5,2 104.5,4.5 11.6,0.6 26.4,1.3 33,1.5 6.6,0.3 23.3,0.9 37,1.5 27.5,1.1 74.3,2.6 110,3.5 12.7,0.3 24.4,1.1 26.2,1.6 1.8,0.6 4.6,2.8 6.3,5 2.7,3.3 4.4,4.2 11.3,6.3 11.7,3.5 44.1,12.2 51.2,13.7 7,1.4 31.1,12.9 40.5,19.2 3.6,2.4 10.6,7 15.5,10.4 26.4,17.7 59.1,49.6 78.2,76.2 3.4,4.7 7,9.7 8.1,11.1 1,1.4 4.2,6.5 7.1,11.4 2.9,4.9 5.9,9.9 6.7,11 15,21.9 25.9,40 31.8,53.1 3.8,8.2 10.5,22.2 14.9,31 4.4,8.8 8.5,17.1 9.1,18.5 1,2.2 5.3,10.7 19.1,38 10.6,20.9 14.8,30.8 19.7,46 2.6,8.5 5.5,17.5 6.4,20 0.8,2.5 3,10.3 4.9,17.5 1.9,7.1 4.3,16.4 5.5,20.5 1.1,4.1 3.2,12.9 4.5,19.5 1.4,6.6 3,14 3.6,16.5 0.6,2.5 1.4,6.7 1.8,9.5 0.5,2.7 2.4,13.8 4.4,24.5 2,10.7 4.1,22.6 4.7,26.5 4.2,26 5.6,34 7.1,39.6 0.5,2.1 0.6,4.4 0.3,5.4 -0.9,2.3 -4.9,3.6 -7.8,2.5 -3.8,-1.4 -43.5,-6.9 -65.1,-9 -6,-0.6 -17.1,-1.7 -24.5,-2.6 -7.4,-0.8 -20.9,-2.1 -30,-3 -9.1,-0.9 -20.1,-1.9 -24.5,-2.4 -57.1,-5.6 -102.5,-9 -170,-13 -9.9,-0.6 -49,-1.2 -87,-1.5 -105.7,-0.7 -150.4,-2.2 -259.5,-8.5 -18.3,-1.1 -58.9,-2.6 -92.5,-3.5 -88,-2.4 -264.1,-9 -295,-11 -92.8,-6.2 -150.9,-8 -280,-9.1 -41.8,-0.3 -76.3,-0.8 -76.7,-1 -0.4,-0.3 -28.6,-0.5 -62.5,-0.5 -56.9,0 -134.8,2.2 -165.3,4.7 -9.6,0.8 -10.9,-0.3 -9.2,-7.4 0.6,-2.6 2.2,-14.4 3.6,-26.2 1.4,-11.8 3.3,-26.7 4.2,-33 0.8,-6.3 2.2,-16.5 3,-22.5 4.3,-32.1 5.3,-37.3 8.5,-46.5 1.7,-4.6 3.6,-9.1 4.4,-10 0.7,-0.8 3.8,-6.2 6.8,-12 3,-5.8 7.7,-14.8 10.4,-20 2.8,-5.2 7.7,-14.5 10.8,-20.5 3.2,-6.1 7.9,-14.2 10.5,-18 2.6,-3.9 6.8,-11.1 9.3,-16 6.4,-12.8 17.2,-28.6 26.5,-38.6 10.4,-11.3 14,-16.7 15.8,-23.7 2.2,-8.3 0.9,-19.4 -3.1,-26 -2.6,-4.4 -4.4,-4.7 -10.3,-1.7 -2.7,1.4 -5.6,2.5 -6.4,2.5 -0.8,0 -3.2,0.9 -5.3,2.1 -2.2,1.1 -5.7,2.7 -7.7,3.4 -4.5,1.7 -17.8,11.7 -25,18.9 -10.3,10.2 -17.3,19.2 -30.8,39.6 -1.4,2 -4.7,6.4 -7.3,9.6 -2.6,3.3 -5.4,7.4 -6.2,9.2 -0.8,1.8 -2.9,5.6 -4.7,8.5 -5.1,7.9 -5.3,8.4 -12.2,21.2 -15.1,28.2 -30.6,62.7 -30.6,68.1 0,1.2 -0.7,3.8 -1.5,5.7 -0.8,2 -1.5,5 -1.5,6.7 0,1.7 -1,4.4 -2.2,6 -1.7,2.4 -1.9,3.4 -1.1,5.2 0.8,1.8 0.5,3 -1.3,5.9 -1.2,2 -2.5,5.2 -2.8,7 -0.3,1.9 -0.8,5 -1.2,6.9 -0.3,1.9 -0.8,5.7 -1,8.5 -0.2,2.7 -1,8.5 -1.8,13 -0.8,4.4 -1.7,10.7 -2.1,14 -0.3,3.3 -1,9.1 -1.5,13 -0.9,6.5 -2.3,20 -3.5,33.7 -0.3,3.4 0,6 0.6,6.3 1.6,1 3.7,-1.3 4.4,-4.8 0.4,-1.8 1.3,-4.1 2,-5.2 0.7,-1.1 1.5,-3.6 1.8,-5.5 1.9,-10.9 2.7,-12 9.8,-12 3.6,0 3.8,1.6 0.4,3.2 -3.6,1.6 -2.5,3.2 2.4,3.6 3,0.2 4.2,0 4,-1 -0.1,-0.7 0.1,-2.5 0.5,-4.1 1.2,-4 4.1,-3.5 5.9,1.1 0.8,2.1 2.8,5.2 4.4,6.9 4.3,4.6 8,12.3 7.3,15.3 -1.2,5.2 4.3,24.1 8,27.5 2.1,1.9 2.6,5 1,6 -1.9,1.2 -1.1,7.3 1.5,10.3 2.3,2.8 3.4,7.2 1.8,7.2 -0.5,0 -0.9,2 -0.9,4.5 -0.1,2.6 -0.8,5.3 -1.7,6.3 -0.9,1 -1.6,3.7 -1.7,6.2 -0.2,12.1 0,15.7 1.4,17.5 0.9,1.1 1.6,3.5 1.6,5.3 0,1.8 0.9,5 2,7.2 1.1,2.2 2,5.5 2,7.5 0,1.9 0.4,3.5 0.8,3.5 0.4,0 1.7,1.4 2.7,3.2 4.2,6.7 7.5,12.5 10.1,17.5 2.5,4.9 2.6,5.4 1.1,7.1 -1.6,1.7 -1.5,2 1.3,4.7 1.6,1.6 2.7,3.1 2.5,3.4 -0.3,0.2 -2.7,0.7 -5.3,0.9 -5.5,0.4 -6.6,1.2 -6.7,4.8 0,2.3 -0.4,2.7 -3.7,2.9 -6.7,0.4 -7.9,3.2 -5.2,12.2 1.2,4.1 -3,2.7 -7.9,-2.6 -2.5,-2.7 -5.8,-5.1 -7.3,-5.5 -2.6,-0.7 -2.7,-0.7 -2,3.3 0.3,2.2 2.9,7.9 5.7,12.8 2.9,4.8 6.6,11.3 8.4,14.4 2.7,4.7 11.4,17.7 20.6,30.9 1.9,2.8 17.2,27.1 28.9,46 4.1,6.6 9.2,14.9 11.4,18.3 2.1,3.4 7.3,11.3 11.5,17.5 4.2,6.1 8.7,12.9 10.1,15.1 22.7,34.9 41.3,57.6 67,81.4 6.2,5.8 12.2,10.5 20.9,16.3 4.1,2.7 9.2,6.1 11.3,7.6 5.9,3.9 15.5,4.8 21.5,1.9 2.4,-1.1 5,-2.1 5.7,-2.1 5,0 9.6,-9.7 11.7,-24.7 1.2,-8.7 0.6,-14.5 -2,-19.4 -8.4,-16.1 -12.8,-23 -18.4,-28.4 -14.5,-14.2 -38.7,-41.3 -49.8,-56 -4.1,-5.3 -9.3,-12.2 -11.7,-15.3 -2.3,-3.1 -6.1,-8.8 -8.4,-12.7 -5.5,-9.2 -29.7,-47.9 -36.3,-57.9 -1.6,-2.5 -6.4,-9.9 -10.6,-16.3 -4.1,-6.5 -9.5,-14.6 -12,-17.9 -2.4,-3.4 -5.2,-7.4 -6.1,-9 -1,-1.6 -3,-4.8 -4.5,-7 -1.6,-2.3 -4.4,-6.6 -6.4,-9.5 -2,-3 -5.5,-8.6 -7.9,-12.4 -2.4,-3.9 -6.1,-9.6 -8.1,-12.8 -2.1,-3.1 -4.7,-8.2 -5.8,-11.2 -1.1,-3 -3.8,-9 -6,-13.2 -8.6,-17.3 -15.1,-35 -15.1,-41.5 0,-2.7 -0.7,-4.4 -2.6,-6.1 -1.7,-1.6 -2.2,-2.7 -1.5,-3.1 0.6,-0.4 1.1,-3.2 1.1,-6.2 0,-4.6 -0.4,-5.9 -2.5,-7.8 -3.1,-2.9 -3.1,-4 -0.1,-6 2.2,-1.4 3.3,-1.4 8.7,-0.3 7.1,1.4 8.3,2.9 4.2,5 -1.5,0.8 -3.6,2.4 -4.6,3.5 -1.8,2 -1.8,2.1 0,3 1,0.5 4.1,1.5 7,2.2 8.4,1.9 9.2,5.1 2.6,9 -6.6,3.9 -3.7,4.3 29.3,4.1 16.8,0 31,-0.3 31.4,-0.6 3.1,-1.9 110.4,-2.6 189,-1.2 25.6,0.5 64.3,1 86,1.2 81.4,0.7 145.2,2.6 188.5,5.6 7.7,0.5 26.6,1.6 42,2.4 15.4,0.8 30.9,1.7 34.5,2 5.8,0.4 28.7,1.3 80.5,3 16.4,0.5 40.4,1.5 48.5,2 11.9,0.8 66.2,2.6 88.5,3 13.8,0.3 26.4,0.7 28,1 1.7,0.2 14.9,0.7 29.5,1 14.6,0.3 36.4,1 48.5,1.6 12.1,0.6 31.7,1.5 43.5,2 11.8,0.6 24.9,1.2 29,1.4 25.2,1.5 46.5,2.6 60.5,3 8.8,0.3 18.5,0.8 21.5,1 3,0.3 19.5,0.7 36.5,1 17.1,0.3 36.4,0.7 43,1 6.6,0.2 37.7,0.7 69,1.1 59.5,0.7 62.5,0.7 82,1.9 6.6,0.3 21.2,1 32.5,1.5 11.3,0.5 32.7,1.8 47.5,2.9 81.4,6.2 91.5,7.1 95.8,8.9 1.9,0.8 3.5,0.8 5.4,0.1 1.8,-0.7 4.2,-0.7 7.3,0 7.4,1.6 40.6,3.4 50.2,2.7 4.9,-0.4 10.5,-1.4 12.4,-2.3 3.3,-1.6 3.7,-1.6 6.9,0.1 3.2,1.8 3.7,1.8 10.4,0.1 3.9,-0.9 7.7,-1.5 8.4,-1.2 0.8,0.3 2.9,0.2 4.7,-0.2 2.4,-0.5 3.4,-1.3 3.6,-2.9 0.3,-1.7 -0.1,-2.2 -2,-2.2 -2.6,0 -4.3,-2.7 -2.7,-4.3 1.2,-1.2 7.8,-1.1 14.6,0.3 4.1,0.8 5.9,0.8 7.6,0 3.3,-1.8 7.9,-3 7.9,-2 0,1 9.9,-1.5 11.3,-2.9 1.8,-1.8 -0.1,-4.1 -3.4,-4.1 -5,0 -2.9,-2.2 4.2,-4.2 5,-1.5 8.4,-1.8 15.6,-1.5 10.8,0.6 13.3,1.7 13.3,5.6 0,2.9 -3.3,6.1 -6.3,6.1 -1.6,0 -4.4,2.9 -3.1,3.1 0.5,0.1 2.5,0.3 4.5,0.4 2.2,0.1 5.1,1.3 7.4,3.1 l 3.7,2.8 3.7,-1.9 c 2.9,-1.6 3.7,-2.7 3.9,-5.4 0.3,-3.2 5.6,-12.1 7.2,-12.1 0.4,0 1.9,-2.5 3.4,-5.5 2.2,-4.2 2.7,-6.3 2.2,-9.2 -0.3,-2.1 -0.9,-7 -1.5,-10.9 -0.5,-3.8 -2.1,-14 -3.6,-22.5 -1.5,-8.4 -3.1,-18.3 -3.6,-21.9 -1,-7.5 -3.4,-21.2 -4.9,-28.5 -0.6,-2.8 -1.7,-8.8 -2.5,-13.5 -0.8,-4.7 -1.9,-10.5 -2.4,-13 -2.3,-11.8 -5.2,-24.9 -6.2,-28.5 -0.5,-2.2 -1.4,-5.8 -1.9,-8 -0.5,-2.2 -2.1,-8.3 -3.5,-13.5 -1.5,-5.2 -3,-11.1 -3.4,-13 -1.2,-5.3 -7.1,-26.2 -8.2,-28.8 -0.5,-1.3 -0.9,-3 -0.9,-3.9 0,-0.9 -1.5,-5.2 -3.3,-9.7 -1.9,-4.5 -5.3,-13.1 -7.7,-19.1 -2.4,-6.1 -15.4,-33.1 -28.9,-60.1 -13.5,-27.1 -26.2,-52.5 -28.1,-56.5 -7.1,-15.3 -20.3,-37.9 -35.3,-60.5 -5.5,-8.2 -10.7,-16.3 -11.8,-17.9 -1,-1.7 -6.7,-10.2 -12.6,-19 -16.7,-25 -51.9,-63.6 -73.3,-80.6 -9.7,-7.6 -12.8,-9.8 -28.3,-20.1 -8.5,-5.7 -28.1,-15.8 -30.6,-15.8 -0.6,0 -2.8,-0.8 -4.9,-1.9 -4.7,-2.4 -16.2,-6.2 -27.4,-9.1 -9.5,-2.5 -15.5,-6.4 -17.7,-11.7 -0.7,-1.5 -2.8,-4 -4.8,-5.6 -4.7,-3.5 -10.3,-3.6 -18.6,-0.1 -3.4,1.4 -8.2,2.7 -10.7,2.7 -5.1,0.1 -12.7,-3.1 -12.2,-5.2 0.2,-0.9 -0.4,-1.2 -1.9,-0.8 -1.2,0.3 -3.4,0 -4.8,-0.7 -4,-2.1 -17.3,-3.8 -28.6,-3.8 -4.3,0 -40.2,-1.5 -55,-2.3 -16.5,-0.9 -52.9,-2 -58.5,-1.8 -3,0.1 -12.7,-0.2 -21.5,-0.8 -8.8,-0.6 -18.7,-1.2 -22,-1.3 -3.3,-0.2 -14.8,-0.9 -25.5,-1.5 -10.7,-0.6 -24.7,-1.3 -31,-1.5 -6.3,-0.3 -14.2,-0.8 -17.5,-1 -6.1,-0.6 -37.8,-1.6 -65.5,-2 -16.6,-0.3 -42.2,-1.2 -58.5,-2 -5.5,-0.3 -19.2,-0.8 -30.5,-1.1 -11.3,-0.3 -25.9,-0.8 -32.5,-1.1 -6.6,-0.3 -17.6,-0.7 -24.5,-0.9 -6.9,-0.2 -22.6,-0.8 -35,-1.4 -12.4,-0.6 -28.8,-1.1 -36.5,-1.1 -7.7,0 -22.8,-0.3 -33.5,-0.6 -52.8,-1.3 -206,-0.7 -284.5,1.1 -19,0.5 -57.8,0.6 -67.5,0.2 -3.3,-0.2 -4.5,0.2 -4.8,1.3 -0.2,1.2 1.6,2.1 6.8,3.5 3.9,1.1 7.8,2.7 8.7,3.7 1.4,1.6 1.1,1.9 -4,4.4 l -5.5,2.7 -10.4,-1.6 c -8.9,-1.4 -11,-1.4 -14.3,-0.3 -2.7,1 -4.7,1.1 -6.5,0.4 -1.3,-0.5 -9.7,-1.6 -18.5,-2.3 -8.8,-0.8 -19.8,-2.1 -24.5,-3 -4.7,-0.9 -10.8,-2 -13.5,-2.4 -2.8,-0.4 -5.6,-1 -6.3,-1.5 -1.7,-1 -5.2,0.2 -5.2,1.9 0,2.1 -9.1,8.4 -19.2,13.4 -8.2,4.1 -9,4.3 -14.5,3.7 -8.5,-1 -9.8,-1 -20.9,0.3 -9.6,1.2 -10.4,1.1 -14.1,-0.7 -2.2,-1.2 -4.6,-2.8 -5.3,-3.8 -1.3,-1.5 -1.1,-1.6 3,-1.2 4.6,0.5 11.3,-1.4 13.8,-3.9 0.7,-0.7 2.6,-1.3 4.1,-1.3 3,0 5.6,-2.1 4.3,-3.5 -0.4,-0.4 1.1,-0.5 3.3,-0.3 2.2,0.3 5,0.1 6.3,-0.3 1.4,-0.6 4.1,-0.4 6.7,0.2 7.6,1.9 12.3,-0.7 5.8,-3.2 -5,-1.9 -37.9,-4.8 -41.9,-3.8 -2.8,0.8 -5.2,0.7 -10.3,-0.6 -5.9,-1.4 -7.2,-1.4 -12.2,-0.1 -3.1,0.8 -7.6,2.4 -9.9,3.6 -5.3,2.7 -12.4,2.3 -14.9,-0.8 -3,-3.8 -5.5,-3.6 -15.5,1.2 -5.2,2.5 -11.3,5 -13.5,5.6 -2.2,0.6 -4.3,1.5 -4.6,2 -0.3,0.6 -1.5,1 -2.6,1 -1,0 -1.9,0.4 -1.9,1 0,1.2 -0.4,1.2 5.6,0.1 2.7,-0.5 8.4,-2.6 12.6,-4.5 4.2,-1.9 8.7,-3.8 10,-4.1 2.6,-0.6 5.4,0.8 4.4,2.3 -0.9,1.5 -8.1,5.1 -18.1,8.9 -11.2,4.4 -16.7,4.3 -24.1,-0.5 -2.7,-1.7 -7,-4.3 -9.6,-5.7 -2.7,-1.4 -4.8,-2.9 -4.8,-3.4 0,-1.4 4.8,-1.9 13.9,-1.5 16,0.7 18,0.3 14.2,-3.5 -1.9,-1.9 -3.2,-2.1 -16.6,-2.1 l -14.4,0 -10.5,4.5 c -5.8,2.5 -10.9,4.5 -11.4,4.5 -0.4,0 -2.5,1.2 -4.6,2.7 -3.9,2.6 -4.1,2.6 -12.7,1.6 -10.2,-1.2 -15.3,-3.9 -14.3,-7.7 0.4,-1.7 0,-2.5 -1.2,-3 -1,-0.4 -23.9,-0.6 -51.1,-0.6 -41.1,0 -49.9,-0.2 -52.8,-1.4 l -3.5,-1.5 0,-7 c 0,-8.4 -1.4,-9.8 -7,-7.4 z m 155.4,31.4 c 3,1.4 4.1,3.9 2.4,5.4 -1.8,1.6 -17.8,0.8 -17.8,-0.9 0,-0.9 7.3,-4.1 12.7,-5.5 0.1,-0.1 1.3,0.4 2.7,1 z m -360.4,3.3 c 15.1,0.4 37.4,0.9 49.5,1.1 12.1,0.3 34.4,0.8 49.5,1.2 31.9,0.9 50.2,0.8 54.8,-0.2 2.9,-0.7 3.2,-0.5 3.2,1.8 0,1.3 -0.7,3 -1.5,3.7 -0.9,0.7 -1.5,2.9 -1.5,5.1 0,4.9 -1.9,5.9 -8.5,4.9 -2.7,-0.4 -10.6,-1.1 -17.5,-1.5 -8.8,-0.5 -13,-1.2 -14.2,-2.2 -0.9,-0.8 -2.2,-1.2 -2.9,-0.8 -2.2,1.4 -28.4,1.8 -32.3,0.5 -2,-0.6 -3.6,-1.5 -3.6,-2 0,-1.4 5.5,-2.2 8.1,-1.2 2.9,1.1 7.3,-0.2 6.6,-2 -0.4,-1.2 -2.7,-1.4 -9.7,-0.9 -1.4,0.1 -5.2,-0.3 -8.4,-0.8 -5,-0.8 -11.7,-1.1 -26.1,-1.1 -1.8,0 -7.5,0.1 -26,0.4 -6.9,0.1 -10.5,2 -4.2,2.2 1.7,0.1 5.8,0.2 9,0.2 3.1,0.1 5.7,0.6 5.7,1.2 0,2.6 -5.3,3.1 -30.5,2.9 -1.1,0 -3.7,0.1 -5.9,0.2 -3.2,0.3 -4.3,-0.2 -6.2,-2.5 -1.3,-1.5 -3.4,-2.9 -4.5,-3.1 -1.2,-0.3 -3.7,-0.9 -5.5,-1.5 -4.1,-1.4 -9.8,-0.1 -10.2,2.4 -0.4,1.7 0.1,1.8 5.2,1.2 4.6,-0.6 5.5,-0.5 5.1,0.6 -0.5,1.1 -3.7,1.5 -14.5,1.6 -14.1,0.3 -16.8,-0.4 -12.9,-3.2 3,-2.1 1.9,-4.6 -1.8,-4 -1.5,0.3 -4.1,0.7 -5.8,0.8 -2.6,0.3 -3,0.7 -2.7,2.8 0.2,2.2 -0.2,2.7 -3,3.1 -1.8,0.4 -6.7,0.4 -10.8,0.2 -9.4,-0.6 -11.4,-0.6 -22.2,-0.1 -8,0.4 -9.1,0.2 -12.3,-2 -4.4,-3 -4.5,-3 -4.5,0.2 0,2.4 -0.3,2.5 -2.7,1.9 -2.9,-0.8 -3.4,-0.8 -9.8,-0.2 -2.2,0.3 -4.8,0.2 -5.9,-0.2 -1.7,-0.7 -1.7,-0.8 -0.2,-2.4 1,-0.9 3.4,-1.7 5.4,-1.8 3.4,0 3.5,-0.1 1.3,-1 -1.9,-0.7 -16.4,-0.7 -20.1,0 -1.8,0.4 2.8,1.8 6.2,1.9 5,0.2 5.4,0.5 3.3,2.6 -3.5,3.4 -12.7,1.1 -11.2,-2.8 0.7,-1.7 -1.6,-4 -2.8,-2.8 -0.4,0.4 -0.6,-0.2 -0.4,-1.2 0.4,-2.1 0.6,-2.1 12.4,-3.3 8.9,-0.9 94.5,-0.8 137.5,0.1 z m 925.5,0.4 c 1.6,0.5 4.5,0.5 6.4,0.1 4,-0.8 5.6,-0.7 5.6,0.6 0,0.6 -0.3,0.9 -0.7,0.7 -0.5,-0.1 -0.8,0.5 -0.8,1.3 0,1.6 4.3,3.1 6,2 0.8,-0.5 0.7,-1.2 -0.5,-2.5 -1.5,-1.6 -1.4,-1.8 1.3,-2.9 3.9,-1.6 8.6,0.1 7.7,2.8 -0.9,2.9 2,4.7 5.5,3.4 1.5,-0.6 3.9,-0.8 5.3,-0.6 1.4,0.3 2.8,0 3.2,-0.7 0.5,-0.8 -0.5,-1.1 -3.6,-0.9 -3.5,0.3 -4.4,0 -4.7,-1.4 -0.4,-1.8 2.2,-2.4 3.3,-0.7 1.1,1.7 13.4,1.2 15.3,-0.6 1.2,-1.2 2.7,-1.5 6,-1 2.5,0.3 5.8,0.6 7.3,0.6 3.6,0 3.8,1.7 0.4,3 -3.8,1.4 -3,3 1.4,3 3.8,0 6.8,-1.9 4.3,-2.8 -2.9,-0.9 -0.8,-2.2 3.6,-2.2 5,0 7.4,1.3 6.5,3.6 -0.3,0.8 0,1.4 0.6,1.4 0.7,0 1.4,-0.7 1.7,-1.5 0.4,-0.8 1.4,-1.5 2.4,-1.5 1.1,0 2.2,-0.5 2.5,-1 0.3,-0.6 3.3,-1 6.6,-1 5.7,0 8.4,1.1 8.7,3.5 0.4,3.2 10.1,1.9 13.6,-1.8 2.2,-2.4 2.7,-2.5 6.6,-1.5 3.7,1 4.1,1.3 3.6,3.4 -0.6,2.1 -0.3,2.4 2.3,2.4 1.7,0 4.3,-1.1 6.1,-2.7 3,-2.5 3.8,-2.6 12.4,-2.5 13.7,0.3 17.6,1.1 18.6,3.6 0.7,1.7 0.9,1.8 0.9,0.3 0.1,-2.6 9,-2.4 11.4,0.3 2.1,2.5 4.5,2.6 5.4,0.2 0.9,-2.4 2,-3 4.8,-2.4 1.8,0.3 2.4,1 2.2,2.6 -0.2,1.9 0.2,2.1 3.8,1.8 2.2,-0.2 5.3,-1.2 6.9,-2.4 2.3,-1.6 3.7,-1.9 7.4,-1.4 2.5,0.3 5.5,1.5 6.7,2.6 2.6,2.4 2.9,2.4 5,0.3 2,-2 13.6,-2.9 16.6,-1.3 1,0.6 3.1,1.2 4.6,1.5 1.5,0.2 4.1,0.7 5.6,1.1 2,0.5 3.1,0.2 4,-1 1.1,-1.4 2,-1.6 5.5,-0.8 2.6,0.6 5.8,0.6 8.3,0.1 4.3,-1 6.1,-0.6 5.4,1.4 -0.3,0.7 -0.1,1.8 0.4,2.6 0.7,1.1 1.3,1 3.2,-0.8 3,-2.8 6.7,-3.7 9,-2.2 2.3,1.4 9.9,1.5 9.9,0.1 0,-1.6 15.2,-1.2 19.2,0.5 2.6,1 3.8,1.1 4.6,0.3 1.3,-1.3 5.8,0.5 7.8,3.1 0.9,1.1 1.6,1.1 4.3,-0.3 1.8,-1 5.4,-2 8,-2.3 4,-0.5 5.4,-0.2 7.9,1.7 2.4,1.8 3.7,2.1 5.9,1.4 7.4,-2.1 17.6,-2.1 23,0.1 3.2,1.3 6,1.5 12,1.1 20.8,-1.5 23.8,-1.5 25.5,0.1 1.3,1.2 2.9,1.4 6.8,0.9 3.4,-0.5 5.8,-0.2 7.7,0.7 2.4,1.3 3.6,1.2 8.8,-0.1 5.4,-1.3 6.5,-1.3 10.5,0 3.4,1.2 8.4,1.5 20.5,1.4 12.1,-0.2 16.7,0.1 18.9,1.2 2.4,1.2 3.6,1.2 6.6,0.2 2.3,-0.8 5.6,-1 8.6,-0.5 8.9,1.2 25.8,1.6 31.4,0.7 3.3,-0.5 6.8,-0.5 8.5,0.1 1.7,0.5 12.2,1 23.5,1.1 15.4,0.1 21,0.5 22.6,1.6 1.9,1.1 2.7,1.1 5.7,-0.3 4.6,-2.2 8.3,-2.1 11.4,0.3 3.6,2.8 10.9,2.7 13.2,-0.2 1.6,-1.9 3.2,-2.2 14.2,-2.9 6.8,-0.5 14.7,-1.3 17.4,-1.8 7.9,-1.5 10.5,-1.4 10.5,0.6 0,1 0.7,3.1 1.5,4.7 2,3.8 1.2,4.6 -4.4,4.6 -2.8,0 -6.9,0.9 -9.6,2.1 -5.8,2.6 -18.3,2.9 -56.5,1.5 -24,-0.8 -34,-1.1 -68.5,-2 -9.3,-0.2 -26.2,-0.9 -37.5,-1.6 -11.3,-0.6 -29.2,-1.3 -39.9,-1.5 -10.6,-0.3 -22,-0.9 -25.2,-1.5 -6,-1.1 -22,-1.8 -52.9,-2.3 -9.7,-0.2 -18,-0.6 -18.6,-0.9 -0.5,-0.4 -15.1,-0.9 -32.4,-1.3 -17.3,-0.4 -38.2,-0.9 -46.5,-1.2 -8.2,-0.3 -23.8,-0.6 -34.5,-0.8 -10.7,-0.1 -27.4,-0.6 -37,-1 -16.7,-0.7 -36.7,-1.3 -67.5,-2 -24.3,-0.5 -64.9,-1.6 -96,-2.5 -16.5,-0.5 -46.2,-0.6 -66,-0.3 -39.2,0.6 -40.9,0.7 -47.5,0.2 -2.5,-0.2 -13.7,0 -25,0.4 -23.5,0.9 -69.8,1.7 -114,2.2 -37,0.4 -41.2,-0.1 -31.7,-3.7 2.8,-1 6,-1.4 9,-1.1 2.5,0.3 6.2,0.2 8.1,-0.1 2.9,-0.6 3.6,-1.1 3.6,-3.1 0,-3.1 2.5,-3.6 16.5,-3.4 6.1,0.1 22.1,-0.2 35.8,-0.6 17.6,-0.5 24.7,-0.4 24.7,0.4 0,1.5 3.3,1.4 4.9,-0.2 0.6,-0.6 3.5,-1.3 6.4,-1.4 16.1,-0.4 30.6,-0.1 33.7,0.8 2.8,0.9 4.4,0.8 7.2,-0.4 3.8,-1.6 5.8,-1.1 5.5,1.3 -0.2,1.6 0.4,2 2.9,2 1,0 1.4,-0.6 1.1,-1.5 -1.2,-2.9 11.7,-4.6 18.2,-2.4 2.4,0.9 3.8,0.9 5.4,0 1.2,-0.6 6.3,-1.2 11.2,-1.3 16.3,-0.5 55.9,0.2 59,1 z m -1250.5,3.3 c 0,0.5 -0.7,0.9 -1.5,0.9 -1.5,0 -2,-1.2 -0.9,-2.3 0.8,-0.8 2.4,0.1 2.4,1.4 z m 149,0.7 c 0,2.3 0.6,3 3.6,4.1 3,1.1 4.1,1.1 6,0 1.3,-0.7 2.4,-1.5 2.4,-1.9 0,-0.4 1.5,-0.7 3.4,-0.8 2.7,-0.1 3.6,0.3 4.1,1.9 1.1,3.4 -1.3,5.2 -6,4.4 -2.2,-0.4 -6.3,-0.6 -9.1,-0.5 -3.4,0.1 -5.5,-0.4 -6.3,-1.4 -0.7,-0.8 -0.8,-1.7 -0.2,-2 1.3,-0.9 0.1,-4.6 -1.5,-4.6 -0.8,0 -1.4,-0.5 -1.4,-1 0,-0.6 1.1,-1 2.5,-1 2.1,0 2.5,0.5 2.5,2.8 z m 1230,-1.4 c 0,0.3 -0.4,0.8 -1,1.1 -0.5,0.3 -1,0.1 -1,-0.4 0,-0.6 0.5,-1.1 1,-1.1 0.6,0 1,0.2 1,0.4 z m -365,1.6 c 0,0.5 -0.7,1 -1.5,1 -0.8,0 -1.8,0 -2.2,0.1 -0.4,0 -0.9,-0.4 -1.1,-1 -0.2,-0.6 0.8,-1.1 2.2,-1.1 1.4,0 2.6,0.4 2.6,1 z m -380.2,2.7 c 0.2,0.9 -0.8,1.3 -3.2,1.3 -3.7,0 -4.9,-1.5 -1.8,-2.3 2.6,-0.7 4.5,-0.3 5,1 z m -583.2,0.8 c 1.8,1.4 1.8,1.4 -0.7,1.5 -1.4,0 -3.4,0.9 -4.4,2 -1.3,1.5 -2.1,1.7 -3.1,0.9 -1.7,-1.4 -0.7,-3.8 2,-4.9 3,-1.3 4,-1.2 6.2,0.5 z m 79.4,1.2 c 1.2,1.1 -3,2.3 -7,1.9 -2.5,-0.3 -4.8,-0.5 -5.2,-0.5 -0.5,-0.1 -0.8,-0.5 -0.8,-1 0,-0.6 1.5,-0.7 3.4,-0.4 2,0.3 3.6,0.1 4.1,-0.6 0.6,-1 4.1,-0.7 5.5,0.6 z m -65.2,0.1 c 0.9,0.6 0.5,1.2 -1.3,2 -1.4,0.7 -3.2,1.2 -4,1.2 -1.5,0 -2,-2.1 -0.8,-3.3 0.9,-0.9 4.5,-0.8 6.1,0.1 z m 7.1,1.8 c -1.5,1.8 -3.9,1.8 -3.9,0.1 0,-2 0.9,-2.5 3.1,-2 1.5,0.4 1.7,0.8 0.8,1.9 z m 40,-0.7 c 2.3,1.5 -3,3.5 -7.2,2.7 -5.3,-1 -4.5,-3.6 1.2,-3.6 2.5,0 5.3,0.4 6,0.9 z m 29.1,0.7 c 0,1 -0.7,1.4 -2.2,1.2 -3.2,-0.5 -3.5,-2.8 -0.4,-2.8 1.7,0 2.6,0.5 2.6,1.6 z m 232,-0.8 c 0,0.4 -1.6,0.9 -3.5,1 -1.9,0.2 -3.5,-0.2 -3.5,-0.8 0,-0.5 1.6,-1 3.5,-1 1.9,0 3.5,0.4 3.5,0.8 z m 23.5,0.6 c 1.7,1.2 1.7,1.3 -0.6,1.9 -2.9,0.7 -16.7,0 -18.2,-1 -1.9,-1.2 2.5,-2.2 9.9,-2.2 4.4,-0.1 7.7,0.4 8.9,1.3 z m 388.5,0.6 c 2.8,1.7 -3.8,3.3 -8.8,2 -2.4,-0.6 -4.6,-0.8 -5,-0.6 -0.5,0.3 -1.4,0 -2.2,-0.5 -1.1,-0.7 0.1,-0.9 3.7,-0.7 2.9,0.1 5.6,-0.1 5.9,-0.5 1,-1 4.6,-0.8 6.4,0.3 z m -1085,3.4 c 0,0.3 -0.4,0.8 -1,1.1 -0.5,0.3 -1,0.1 -1,-0.4 0,-0.6 0.5,-1.1 1,-1.1 0.6,0 1,0.2 1,0.4 z m -312,7.6 c 0,1.6 -2.1,2.2 -3.6,0.9 -1.1,-0.9 -1.2,-1.4 -0.3,-2 1.4,-0.8 3.9,-0.1 3.9,1.1 z m -27.2,2.1 c -1.6,1 -3.3,-0.5 -2.3,-2.1 0.5,-0.8 1.1,-0.8 2.1,0.1 1.2,1 1.2,1.4 0.2,2 z m 2600.7,23.6 c 3.8,1.4 5.1,2.5 5.3,4.2 0.5,3.1 -0.9,4.3 -5.3,4.8 -4.7,0.5 -12.5,-3.9 -12.5,-7.1 0,-5 3.1,-5.5 12.5,-1.9 z m -3100,17 c 0.4,1.2 -0.2,2.5 -1.9,4 -1.5,1.3 -2.6,3.3 -2.6,4.7 0,3.1 -2.6,4 -7.8,2.6 -6.7,-1.8 -6.9,-3.2 -0.9,-7.1 9.5,-6.2 12.1,-7 13.2,-4.2 z m 3361,287.4 c 1.8,3.3 1.7,7 -0.1,7.6 -1.4,0.5 -5.8,-8.2 -4.9,-9.7 1.2,-1.9 3.5,-1 5,2.1 z m -1636.1,110.4 c 0.3,0.9 0,1.5 -0.9,1.5 -0.8,0 -1.5,-0.7 -1.5,-1.5 0,-0.8 0.4,-1.5 0.9,-1.5 0.5,0 1.1,0.7 1.5,1.5 z m 0.4,9.3 c -0.4,2.2 -4.6,2.8 -5.4,0.8 -0.4,-0.9 -0.1,-2.3 0.6,-3.1 1.6,-1.9 5.3,-0.1 4.8,2.3 z m -7,7.3 c 5.7,1.4 7.3,2.6 5.2,3.9 -1.6,1.1 -10.3,1.3 -13.6,0.4 l -2.1,-0.6 2.1,-2.4 c 2.4,-2.8 2.3,-2.7 8.4,-1.3 z m 1.2,14.3 c 0,1.5 -4.5,5.6 -6.1,5.6 -1.5,0 -0.5,-7.5 1.2,-9.6 1.2,-1.4 1.5,-1.4 3.1,0.6 1,1.2 1.8,2.8 1.8,3.4 z m 394,84.7 c 0,0.5 -0.7,0.9 -1.5,0.9 -1.5,0 -2,-1.2 -0.9,-2.3 0.8,-0.8 2.4,0.1 2.4,1.4 z m 47,-0.1 c 0,0.5 -0.9,1 -2,1 -1.1,0 -2,-0.5 -2,-1 0,-0.6 0.9,-1 2,-1 1.1,0 2,0.4 2,1 z m 115,5 c 0,0.5 -0.4,1 -1,1 -0.5,0 -1,-0.5 -1,-1 0,-0.6 0.5,-1 1,-1 0.6,0 1,0.4 1,1 z m 258.9,9.6 c 1.7,0.4 3.1,1 3.1,1.4 0,1.2 -5.7,2 -9,1.3 -3.5,-0.7 -3.9,-2 -0.7,-2.6 1.2,-0.2 2.5,-0.5 2.8,-0.6 0.4,0 2.1,0.2 3.8,0.5 z m -40.9,1.4 c 0,0.5 -1.1,1 -2.5,1 -1.4,0 -2.5,-0.5 -2.5,-1 0,-0.6 1.1,-1 2.5,-1 1.4,0 2.5,0.4 2.5,1 z m 88,1 c 0,0.5 -1.3,1.1 -3,1.1 -1.6,0.1 -3.5,0.2 -4.2,0.3 -0.6,0.1 -1.3,-0.5 -1.5,-1.2 -0.3,-0.8 0.9,-1.2 4.1,-1.2 2.5,0 4.6,0.4 4.6,1 z m 5.1,0.5 c -0.1,1.5 -2.4,1.2 -2.9,-0.3 -0.3,-0.9 0.2,-1.3 1.2,-1 1,0.1 1.7,0.7 1.7,1.3 z m 26.5,0.1 c 1.3,0.3 2.4,1.1 2.4,1.6 0,0.7 -2.5,0.8 -6.7,0.4 -3.8,-0.3 -8,-0.6 -9.5,-0.6 -1.6,0 -2.8,-0.4 -2.8,-0.9 0,-1 10.1,-2 12.8,-1.4 0.8,0.2 2.5,0.6 3.8,0.9 z m 15.8,0 c 3.2,0.5 4.6,1.1 4.6,2.2 0,1.3 -1.3,1.4 -8.1,0.9 -8.7,-0.7 -10.2,-1.2 -7.9,-2.7 1.8,-1.1 5,-1.2 11.4,-0.4 z m 26.1,2.4 c 0.4,0.6 -0.7,1 -2.4,1 -1.7,0 -3.1,-0.4 -3.1,-0.8 0,-1.1 4.8,-1.3 5.5,-0.2 z m 14.3,-0.4 c 4.4,1.2 2.1,2.5 -4,2.2 -3.8,-0.2 -6.3,-0.8 -6.6,-1.6 -0.4,-1.3 6.3,-1.7 10.6,-0.6 z m -888.8,116.4 c 0,1.3 0.6,1.7 1.8,1.3 2.6,-0.6 5.9,3.3 4.5,5.5 -0.8,1.4 -0.4,2 2.6,3.7 2.8,1.6 3.7,2.8 3.9,5.2 0.2,2.3 1,3.4 3.1,4.2 1.5,0.7 3.2,2.4 3.9,3.9 0.7,1.5 2.1,4 3,5.7 1,1.6 3.1,5.2 4.7,8 1.6,2.7 3.7,6.1 4.7,7.4 1,1.3 1.8,3.9 1.8,5.7 0,1.9 0.5,3.4 1.1,3.4 2.2,0 13.9,13 13.9,15.4 0,1.2 1.4,3.5 3.1,5.2 1.8,1.6 4.5,5.7 6,9.1 1.6,3.5 3.4,6.3 3.9,6.3 1.9,0 7.8,7 8.5,9.9 0.3,1.6 1.3,3.5 2.1,4.2 0.8,0.6 1.4,1.7 1.4,2.3 0,0.7 2.1,4.1 4.8,7.5 2.6,3.5 5.4,7.6 6.2,9.1 0.8,1.6 4,4.9 7.1,7.4 3,2.5 7,6.6 8.7,9 2.8,3.9 3.2,5.1 2.6,8.3 -1,5.7 -2.2,7.3 -5.2,7.3 -4.3,0 -11.4,-4.1 -13.9,-8 -1.2,-1.9 -4.1,-5.3 -6.4,-7.6 -2.8,-2.7 -4.3,-5.1 -4.4,-7 -0.4,-5.5 -1.7,-7.9 -5.5,-10.6 -2.1,-1.4 -4.4,-3.7 -5.2,-5.1 -3.3,-5.9 -11.2,-17.3 -13.1,-18.8 -1.2,-1 -1.8,-2.4 -1.5,-3.6 0.4,-1.4 -1,-3.4 -5,-7.4 -5,-5 -9.2,-12 -9.2,-15.5 0,-0.8 -1.3,-3.8 -3,-6.7 -1.6,-3 -3,-6.6 -3,-8.2 0,-1.6 -0.8,-3.7 -1.7,-4.7 -1.5,-1.6 -1.5,-2.2 -0.4,-4 1.5,-2.4 0.2,-3.8 -3.6,-3.8 -1.6,0 -2.3,-0.6 -2.3,-2 0,-1 -0.9,-2.8 -2.1,-3.9 -1.8,-1.6 -1.9,-2.2 -0.9,-4.1 1.1,-2.1 0.8,-2.6 -3.3,-6.2 -2.6,-2.1 -5.1,-5.3 -5.7,-7.3 -0.6,-1.9 -2.4,-4.5 -3.9,-5.8 -2.3,-1.9 -2.6,-2.7 -1.9,-4.6 0.6,-1.7 0.3,-3 -1.2,-5.1 -1.1,-1.5 -2,-3.3 -2,-3.8 0,-0.6 -0.9,-1.4 -2,-1.7 -2.3,-0.7 -2.6,-2.1 -0.7,-2.8 1.7,-0.6 3.7,1.2 3.7,3.3 z m 135.3,167.1 c 2.1,0.5 4.1,1.7 4.4,2.5 0.3,0.7 2.2,1.9 4.3,2.5 3.4,1 3.9,1.6 4.5,5 0.4,2.2 1.1,4.1 1.6,4.5 1.5,0.9 1,4.4 -0.5,4.4 -0.8,0 -1.8,0.5 -2.1,1 -1,1.7 1.5,4 4.2,4 2.3,0 10.3,5.5 10.3,7.1 0,2 -3.8,2.7 -8.5,1.7 -6.5,-1.4 -13,0.1 -19.6,4.7 -2.8,1.9 -6,3.5 -7,3.5 -1.1,0 -3.8,-1.7 -6.2,-3.8 -2.3,-2.1 -5.4,-4.3 -6.8,-4.9 -4.4,-1.9 -5,-9.2 -1.9,-20.4 2.4,-8.8 3.3,-9.9 7.9,-9.9 2,-0.1 5,-0.7 6.6,-1.5 3.8,-1.7 4.2,-1.7 8.8,-0.4 z"
       id="path11988"
       inkscape:connector-curvature="0"
       style="fill:#000000;stroke:none" />
    <path
       d="m 1611.3,458.4234 c -0.9,0.7 -1.3,1.7 -0.9,2.3 1,1.6 10.5,1.5 13.4,-0.2 2,-1.1 2.1,-1.4 0.9,-2.5 -1.9,-1.5 -11.2,-1.2 -13.4,0.4 z"
       id="path11990"
       inkscape:connector-curvature="0"
       style="fill:#000000;stroke:none" />
    <path
       d="m 1586.6,458.8234 c -0.9,1.4 2.1,3.3 4.3,2.6 2.7,-0.8 1.6,-3.5 -1.4,-3.5 -1.3,0 -2.6,0.4 -2.9,0.9 z"
       id="path11992"
       inkscape:connector-curvature="0"
       style="fill:#000000;stroke:none" />
    <path
       d="m 1568,460.9234 c 0,0.5 0.5,1 1.1,1 0.5,0 0.7,-0.5 0.4,-1 -0.3,-0.6 -0.8,-1 -1.1,-1 -0.2,0 -0.4,0.4 -0.4,1 z"
       id="path11994"
       inkscape:connector-curvature="0"
       style="fill:#000000;stroke:none" />
    <path
       d="m 1683,460.8234 c 0,0.6 0.5,1.3 1,1.6 0.6,0.3 1,-0.1 1,-0.9 0,-0.9 -0.4,-1.6 -1,-1.6 -0.5,0 -1,0.4 -1,0.9 z"
       id="path11996"
       inkscape:connector-curvature="0"
       style="fill:#000000;stroke:none" />
    <path
       d="m 1788.5,461.9234 c -1,1.6 1.9,2.2 4.8,1.1 1.5,-0.6 2.7,-1.3 2.7,-1.6 0,-1 -6.9,-0.5 -7.5,0.5 z"
       id="path11998"
       inkscape:connector-curvature="0"
       style="fill:#000000;stroke:none" />
    <path
       d="m 1801.8,461.6234 c -3.9,1 -0.6,3.6 3.7,2.9 1.1,-0.1 2,-0.9 2,-1.7 0,-1.5 -2.7,-2 -5.7,-1.2 z"
       id="path12000"
       inkscape:connector-curvature="0"
       style="fill:#000000;stroke:none" />
    <path
       d="m 2664.2,456.5234 c -1.1,1.2 -1,1.5 0.3,2 2.1,0.8 2.9,-0.1 1.8,-1.9 -0.7,-1.3 -1,-1.3 -2.1,-0.1 z"
       id="path12002"
       inkscape:connector-curvature="0"
       style="fill:#000000;stroke:none" />
    <path
       d="m 2577,456.9234 c 0,0.5 0.7,1 1.5,1 0.8,0 1.5,-0.5 1.5,-1 0,-0.6 -0.7,-1 -1.5,-1 -0.8,0 -1.5,0.4 -1.5,1 z"
       id="path12004"
       inkscape:connector-curvature="0"
       style="fill:#000000;stroke:none" />
    <path
       d="m 2611.6,456.6234 c -1.2,1.2 -0.5,2.3 1.4,2.3 1.1,0 2,-0.4 2,-0.9 0,-1.1 -2.6,-2.2 -3.4,-1.4 z"
       id="path12006"
       inkscape:connector-curvature="0"
       style="fill:#000000;stroke:none" />
    <path
       d="m 2474.6,458.4234 c -0.3,0.8 -0.1,1.5 0.4,1.5 1.3,0 2.2,-1.8 1.1,-2.4 -0.5,-0.3 -1.1,0.1 -1.5,0.9 z"
       id="path12008"
       inkscape:connector-curvature="0"
       style="fill:#000000;stroke:none" />
    <path
       d="m 2617,458.0234 c 0,0.5 0.5,0.7 1,0.4 0.6,-0.3 1,-0.8 1,-1.1 0,-0.2 -0.4,-0.4 -1,-0.4 -0.5,0 -1,0.5 -1,1.1 z"
       id="path12010"
       inkscape:connector-curvature="0"
       style="fill:#000000;stroke:none" />
    <path
       d="m 2434.5,458.7234 c -2,2.1 6.5,3.9 10.6,2.3 l 2.4,-0.9 -2.7,-1.1 c -2.8,-1 -9.3,-1.2 -10.3,-0.3 z"
       id="path12012"
       inkscape:connector-curvature="0"
       style="fill:#000000;stroke:none" />
    <path
       d="m 2708,458.9234 c 0,0.5 0.9,1 2.1,1 1.1,0 1.7,-0.5 1.4,-1 -0.3,-0.6 -1.3,-1 -2.1,-1 -0.8,0 -1.4,0.4 -1.4,1 z"
       id="path12014"
       inkscape:connector-curvature="0"
       style="fill:#000000;stroke:none" />
    <path
       d="m 2395,460.5234 c 0,1.1 0.5,1.4 1.6,1 0.9,-0.3 2.7,-0.6 4,-0.6 1.4,0 2.2,-0.4 1.9,-1 -0.3,-0.6 -2.2,-1 -4.1,-1 -2.5,0 -3.4,0.4 -3.4,1.6 z"
       id="path12016"
       inkscape:connector-curvature="0"
       style="fill:#000000;stroke:none" />
    <path
       d="m 2841.5,463.9234 c 0.3,0.5 1.3,1 2.1,1 0.8,0 1.4,-0.5 1.4,-1 0,-0.6 -0.9,-1 -2.1,-1 -1.1,0 -1.7,0.4 -1.4,1 z"
       id="path12018"
       inkscape:connector-curvature="0"
       style="fill:#000000;stroke:none" />
    <path
       d="m 2221.4,434.0234 c -1.6,2.6 8,4.8 12.7,2.9 5.5,-2.3 3,-4 -6.1,-4 -3.2,0 -6.2,0.5 -6.6,1.1 z"
       id="path12020"
       inkscape:connector-curvature="0"
       style="fill:#000000;stroke:none" />
    <path
       d="m 1897.7,463.6234 c -1.3,1.3 -0.7,6.1 0.8,6.7 1.7,0.6 4,-3.8 3.1,-6.1 -0.6,-1.4 -2.8,-1.8 -3.9,-0.6 z"
       id="path12022"
       inkscape:connector-curvature="0"
       style="fill:#000000;stroke:none" />
    <path
       d="m 1949.8,464.6234 c -4.1,0.6 -3.4,1.9 1.3,2.7 4.9,0.8 7,-0.2 4.4,-2.1 -1.1,-0.7 -2.1,-1.2 -2.4,-1.2 -0.3,0.1 -1.8,0.4 -3.3,0.6 z"
       id="path12024"
       inkscape:connector-curvature="0"
       style="fill:#000000;stroke:none" />
    <path
       d="m 163.1,545.1234 c -1.1,2.7 0.9,5.4 3.3,4.5 2.3,-0.9 2,-4.4 -0.4,-5.7 -1.7,-0.9 -2.2,-0.7 -2.9,1.2 z"
       id="path12034"
       inkscape:connector-curvature="0"
       style="fill:#000000;stroke:none" />
    <path
       d="m 2498.7,553.6234 c -0.9,0.8 1.2,3.3 2.9,3.3 2,0 2.8,-2.1 1.3,-3.1 -1.7,-1 -3.3,-1.1 -4.2,-0.2 z"
       id="path12036"
       inkscape:connector-curvature="0"
       style="fill:#000000;stroke:none" />
    <path
       d="m 169,555.6234 c 0,0.3 0.9,1.6 2,3 2.5,3.2 2.5,6.8 0.1,11.7 -1.5,2.8 -1.7,4.4 -1.1,6.2 0.6,1.4 1.2,3.5 1.4,4.7 1,5.2 2.7,7.8 6.1,9.2 3.8,1.6 16.2,2 18.4,0.6 1.5,-1 6.1,0.6 6.1,2.1 0,0.4 0.6,0.8 1.3,0.8 1.6,0 6.7,-12.1 6.7,-16 0,-3.3 -2.3,-5.1 -4.3,-3.1 -1.9,1.9 -3.6,1.2 -5.2,-2.4 -1,-1.9 -4.7,-6 -8.3,-9.2 -3.7,-3.2 -6.8,-6.1 -7,-6.5 -0.2,-0.5 -1.1,-0.4 -2.1,0.1 -1.1,0.6 -3.2,0.6 -5.7,0 -5.4,-1.4 -8.4,-1.8 -8.4,-1.2 z"
       id="path12038"
       inkscape:connector-curvature="0"
       style="fill:#000000;stroke:none" />
    <path
       d="m 1871.5,561.9234 c 0.3,0.5 1.3,1 2.1,1 0.8,0 1.4,-0.5 1.4,-1 0,-0.6 -0.9,-1 -2.1,-1 -1.1,0 -1.7,0.4 -1.4,1 z"
       id="path12042"
       inkscape:connector-curvature="0"
       style="fill:#000000;stroke:none" />
    <path
       d="m 155.2,578.6234 c -1.1,0.4 -4.2,5.3 -4.2,6.6 0,0.3 1.2,0.8 2.7,1.2 2,0.5 3.1,0.2 4,-1.1 2.6,-3.6 1.1,-7.9 -2.5,-6.7 z"
       id="path12044"
       inkscape:connector-curvature="0"
       style="fill:#000000;stroke:none" />
    <path
       d="m 152.9,594.7234 c -1.7,1.5 -3.7,4.5 -4.4,6.6 -1.2,3.3 -1.1,4.2 0.2,6.2 1.3,2.1 1.3,2.5 -0.6,4.5 -1.5,1.6 -2.1,3.6 -2.1,6.7 0,2.9 -0.7,5.4 -2.1,7.4 -1.2,1.6 -1.9,3.1 -1.6,3.4 0.3,0.3 -0.1,2.9 -0.9,5.7 -0.8,2.9 -1.4,8.3 -1.3,12.2 0.1,3.8 -0.3,8.8 -0.9,11 -0.7,2.6 -0.9,10.1 -0.5,21 0.3,9.3 0.5,18.6 0.3,20.5 -0.2,3.9 -0.2,5.1 0.6,13 0.8,8.5 1.8,44.5 1.3,49 -0.1,1.4 0.1,12.2 0.5,24 0.7,19.9 0.9,32.3 0.5,41 -0.1,1.9 -0.1,4.6 0,6 0.5,5.7 -0.8,24.4 -1.9,27.1 -1,2.3 -1,3.5 0,5.8 1.2,3 0.4,9.7 -2.1,17.8 -0.7,2.2 -0.7,3.9 0,5.1 0.6,1.1 0.8,2.1 0.6,2.4 -0.3,0.2 -0.6,3.8 -0.8,7.9 -0.2,4.1 -0.8,8.4 -1.5,9.5 -0.6,1.2 -0.9,2.4 -0.5,2.7 0.5,0.5 0.5,6.6 0,28.7 -0.1,3.6 -0.6,7.1 -1.1,7.8 -0.9,1.4 1,9.7 2.7,11.9 1.4,1.8 -1.1,11.5 -3.5,13.3 -1.1,1 -2.1,3.2 -2.3,5.5 -0.7,6.7 -1.1,7.7 -3.9,10 l -2.8,2.2 3.6,3.6 c 3.7,3.7 5.3,7.7 4,9.9 -0.8,1.3 -2,12.9 -2.9,28.8 -0.6,9.7 -2.3,29.3 -3.2,36.5 -0.3,2.2 -0.7,7.1 -0.8,11 -0.2,3.8 -0.7,9.9 -1,13.5 -0.9,10 -0.4,11 5.3,11 4.3,-0.1 12.8,-2.4 16,-4.3 0.6,-0.5 1.2,-1.8 1.2,-3 0,-4 7.5,-22.7 9.2,-22.7 1.4,0 1.9,2.1 0.8,3.5 -1.8,2.1 0.2,4.1 4.6,4.8 4.9,0.8 7.4,3.3 7.4,7.2 0,3.1 1.3,4.5 4.1,4.5 1.7,0 4,-6.9 4.4,-13.3 0.2,-3.4 0.9,-11.2 1.5,-17.2 1.2,-12.5 2.5,-38.7 4,-78.5 0.5,-15.1 1.2,-31.8 1.4,-37 0.7,-13.9 1.6,-35.4 2.1,-52.5 0.3,-8.3 1,-26.9 1.7,-41.5 1.2,-25.3 1.3,-40.2 0.9,-124 -0.2,-46.6 0.6,-72 2.5,-78.6 0.8,-2.8 1.4,-6.4 1.4,-8 -0.1,-5.1 0.8,-13.3 1.6,-14.5 0.4,-0.7 1.1,-2.9 1.5,-4.8 1.5,-7.6 5.1,-22.1 6.3,-25.9 0.6,-1.7 0.4,-2.2 -1.1,-2.2 -2,0 -6.3,6.4 -6.3,9.4 0,1.5 -1.5,2 -5,1.7 -0.8,-0.1 -2.8,1 -4.5,2.3 -2.4,1.9 -2.9,3.1 -3,6.7 l 0,4.4 -7,0.7 c -5.6,0.5 -7.8,0.3 -11,-1.1 -4.6,-2.1 -8.2,-5.6 -6.6,-6.5 0.6,-0.4 0.8,-1.2 0.5,-1.9 -0.2,-0.7 0.4,-2.2 1.6,-3.2 2,-1.8 2.7,-4.5 1.2,-4.5 -0.5,0 -1.7,-0.6 -2.7,-1.4 -1.7,-1.3 -1.6,-1.4 1.8,-3.1 4.3,-2 4.6,-3.3 1.4,-6.3 -3.1,-2.9 -5,-2.8 -8.8,0.6 z"
       id="path12046"
       inkscape:connector-curvature="0"
       style="fill:#000000;stroke:none" />
    <path
       d="m 187.3,600.7234 c -0.8,0.5 -0.8,1.2 0.3,2.6 1.3,1.9 1.4,1.9 3.4,0.1 1.6,-1.4 1.7,-2 0.8,-2.7 -1.6,-1 -3,-1 -4.5,0 z"
       id="path12048"
       inkscape:connector-curvature="0"
       style="fill:#000000;stroke:none" />
    <path
       d="m 1604.2,652.4234 c -7.4,2 -9.1,3.5 -16.4,13.3 -7.5,10.3 -9,13.6 -9.6,22 l -0.4,6.2 6.8,7 c 3.7,3.9 9,8.4 11.8,10.2 2.8,1.8 10.4,7 16.9,11.6 13.6,9.7 22.7,15 34.9,20.1 28.5,12.1 47.6,30 73.1,68.2 5.5,8.3 12,20.1 29,52.9 8.6,16.6 12.8,23.9 25.7,45 10,16.4 14,24.3 17.1,33.5 1.2,3.8 7.2,16.7 13.2,28.5 16.1,31.5 18.9,38.9 15.1,40.4 -0.8,0.3 -2.8,-0.1 -4.3,-0.8 -3,-1.6 -12.4,-1.4 -81.6,1.8 -47.1,2.2 -78.7,3.5 -113,4.6 -29,1 -48.8,2 -81.5,4.1 -8.5,0.5 -26.1,1.6 -39,2.4 -12.9,0.9 -29.8,2 -37.5,2.5 -22.3,1.6 -45.4,3 -67,4 -70.3,3.3 -100.5,4.9 -113,6 -6,0.5 -21.6,1.7 -34.5,2.6 -12.9,0.8 -30.9,2.2 -39.8,3 -9,0.7 -24.8,2 -35,2.9 -10.3,0.8 -23,1.9 -28.2,2.5 -5.2,0.5 -17.1,1.5 -26.5,2 -9.3,0.6 -23.7,1.5 -32,2 -57.8,3.9 -126,6.7 -211.5,8.6 -34.9,0.7 -131.2,5.6 -138,6.9 -1.4,0.3 -16.2,1.2 -33,2 -29.8,1.5 -60.9,3.4 -88,5.5 -7.4,0.6 -22.5,1.5 -33.5,2.1 -11,0.6 -26.5,1.5 -34.5,2 -8,0.5 -20.3,1.2 -27.5,1.4 -7.1,0.2 -20.2,0.7 -29,1 -8.8,0.3 -22.7,0.8 -31,1 -33.6,1.1 -72.6,4.9 -112.5,11.1 -12.6,1.9 -16.6,2.4 -26,3.4 -5.8,0.7 -28.7,1.3 -51,1.5 -22.3,0.2 -51.5,1.1 -65,1.9 -13.5,0.9 -28.8,1.9 -34,2.1 -23,1.3 -36.4,4.1 -45.4,9.3 -5.6,3.3 -6.2,5.4 -4.7,18.3 0.8,6.3 1.7,12.1 2.2,13 0.6,1.2 2.7,1.5 11.9,1.4 6.1,-0.1 11.4,0.3 11.7,0.8 0.3,0.4 5.7,0.7 12.1,0.6 12.6,-0.2 23,0.7 24.9,2.3 0.7,0.6 1.1,2 1,3.1 -0.2,2 0.3,2.2 5.3,2.3 3,0 7.9,0.6 10.9,1.2 12.3,2.7 28,0.8 33.2,-4 6.7,-6.2 6.2,-6.1 30.3,-5.5 37.8,0.9 62.1,-0.7 112.1,-7.6 39.9,-5.5 62.3,-7.6 90,-8.2 12.1,-0.3 29.9,-1 39.5,-1.5 9.6,-0.6 28.1,-1.5 41,-2.1 12.9,-0.5 28.2,-1.2 34,-1.4 5.8,-0.3 13.7,-0.7 17.5,-1 3.9,-0.3 15.8,-1 26.5,-1.5 24.8,-1.2 64.9,-3.7 80.5,-5 15.1,-1.3 46.2,-3.1 62.4,-3.5 6.9,-0.2 16.4,-0.9 21.2,-1.5 4.8,-0.6 9.8,-1 11.1,-0.9 2.2,0.2 11.1,-0.1 59.3,-2.1 26,-1.1 52.8,-1.9 91.5,-2.5 14.6,-0.3 29.4,-0.7 33,-1 3.6,-0.3 13.3,-0.8 21.5,-1 8.3,-0.3 15.9,-0.7 17,-1 1.2,-0.2 7.7,-0.7 14.5,-1 6.9,-0.3 19,-1 27,-1.5 8,-0.5 22.2,-1.5 31.5,-2.1 31.7,-2.1 43,-2.9 54.5,-3.9 26.9,-2.2 46.5,-4 62,-5.4 9.1,-0.9 21.5,-2 27.5,-2.6 6.1,-0.6 18.2,-1.5 27,-2 8.8,-0.6 22.3,-1.5 30,-2 7.7,-0.5 21.7,-1.2 31,-1.5 9.4,-0.3 19.2,-0.8 22,-1.1 2.7,-0.3 14.4,-0.9 26,-1.5 44.1,-1.9 125.5,-7.1 128.5,-8.2 0.8,-0.3 6.7,-0.8 13,-1.1 6.3,-0.3 18.3,-1 26.5,-1.6 37.1,-2.4 81,-4.4 154.5,-7 15.1,-0.5 29.5,-1.2 32,-1.4 2.5,-0.3 11.5,-0.7 20,-1.1 55,-2 78,-3.9 78,-6.4 0,-0.5 -1.7,-1.8 -3.7,-2.8 -3.8,-1.8 -3.8,-2 -3.4,-7.8 0.1,-0.9 1.3,-2 2.7,-2.5 1.4,-0.6 2.2,-1.5 1.8,-2.1 -1,-1.7 -7,-3.9 -10.8,-3.9 -1.9,0 -4.1,-0.3 -5,-0.6 -2.5,-1 -1.9,-3.3 1.2,-4 1.5,-0.3 4.6,-1.3 6.9,-2.1 2.3,-0.9 4.9,-1.3 5.7,-1 1.7,0.7 5.9,9.5 5.2,11.1 -0.2,0.6 0.5,2.5 1.5,4.3 1.1,1.7 2.2,5.2 2.4,7.8 0.3,2.6 1.1,7.2 1.9,10.3 2.9,11.3 4.4,38.8 2.6,47.9 -0.5,2.6 -1.5,8.2 -2.1,12.3 -0.7,4.1 -2,8.6 -3,10 -1.4,2.2 -11.9,23.7 -11.9,24.5 0,0.9 -14.4,30.2 -15.5,31.5 -0.7,0.8 -2.9,4.9 -5.1,9 -4.1,8.1 -15.8,26.5 -21.9,34.5 -2,2.8 -9.4,11.7 -16.4,19.8 -16,18.9 -26.4,31.8 -34.6,43.2 -20.6,28.4 -53,67.2 -66,78.8 -15,13.4 -22.7,21.8 -26,28.2 l -2.9,5.8 2.2,6.1 c 2.2,6.1 2.3,8.7 0.6,20.8 l -0.6,4.7 5.7,5.5 c 8.1,7.7 9.7,8.2 19.7,6.2 5.3,-1.1 9.7,-2.7 12.7,-4.6 2.4,-1.7 5.6,-3 6.9,-3 1.7,0 3.9,-1.5 6.6,-4.4 2.3,-2.3 7.5,-6.8 11.6,-9.8 9.4,-6.8 22.6,-19.3 30.7,-28.9 21.1,-25.1 35.8,-44 53.8,-68.9 3.3,-4.6 9.5,-12.2 13.8,-16.8 16,-17.4 27.9,-32.4 33.6,-42.7 1.9,-3.3 4.2,-6.9 5.2,-8 1,-1.1 2.3,-3.1 2.9,-4.5 0.6,-1.4 2.4,-4.8 4,-7.5 3.5,-5.8 8,-15 8,-16.2 0,-0.5 1.2,-2.6 2.7,-4.8 5.3,-7.8 20.4,-38.5 19.6,-39.9 -0.6,-1.1 -2,-0.8 -6.8,1.5 -3.3,1.6 -6.3,2.9 -6.8,2.9 -0.4,0 -1.2,-1.1 -1.7,-2.5 -1.6,-4.3 -4.6,-1.5 -13.3,12 -3.6,5.7 -8.5,10.7 -9.7,10 -1,-0.6 0.9,-8.6 2.6,-10.5 0.7,-0.9 3,-5.6 4.9,-10.5 2,-5 4.5,-10.4 5.6,-12.1 1,-1.7 1.9,-4.5 1.9,-6.1 0,-1.6 1.1,-4.4 2.5,-6.3 2.6,-3.5 3.6,-11 1.4,-11 -0.6,0 -2.5,1.1 -4.3,2.5 -3.5,2.7 -6.6,3.3 -6.6,1.2 0,-0.7 1.1,-2.9 2.5,-5 2.5,-3.7 5.8,-14.3 9.1,-29.2 0.3,-1.7 1.7,-6.7 3,-11.2 2.5,-8.3 4.6,-21 4.6,-27.3 0,-9.6 -3.1,-27.9 -5.1,-30.4 -0.6,-0.6 -0.8,-2.2 -0.5,-3.4 0.4,-1.3 -0.2,-3.1 -1.5,-4.8 -1.2,-1.5 -2.1,-3.2 -2.1,-3.9 0,-0.7 -1.4,-4.2 -3,-7.8 -2.8,-5.9 -4.1,-10.5 -5.7,-20.7 -0.3,-1.9 -1.1,-4.2 -1.9,-5 -0.7,-0.9 -1.2,-3.3 -1.2,-5.5 0.1,-2.2 -0.6,-5.5 -1.5,-7.4 -1.6,-3.2 -1.6,-3.6 -0.1,-5.9 1.2,-1.8 1.4,-3 0.6,-4.7 -1.1,-2.4 -1,-9.1 0.2,-14.1 0.7,-2.9 0.5,-3.3 -3.1,-5 -2.6,-1.3 -3.9,-2.7 -4.1,-4.4 -0.2,-1.4 -1.5,-3.7 -2.9,-5.2 -2.3,-2.4 -2.4,-2.9 -1.2,-6.1 1,-3 1,-3.9 -0.3,-5.9 -1.1,-1.7 -1.3,-2.9 -0.5,-4.6 0.8,-1.8 0.6,-2.6 -1.1,-4.2 -3.1,-2.9 -3.8,-6.1 -1.6,-7.7 1,-0.7 2.1,-1.3 2.6,-1.3 1.8,0 8.8,8.1 8.8,10.2 0.1,2.6 7.9,9.1 12.2,10.2 1.5,0.3 3.9,1.7 5.5,3 2.6,2.2 2.6,2.4 1,4.1 -2.3,2.3 -0.6,4.5 3.4,4.5 3.6,0 3.7,1.2 0.3,3.5 l -2.6,1.7 2.3,2.4 c 1.2,1.3 3.1,2.4 4.1,2.4 1.1,0 2.7,1.5 3.9,3.5 1.8,3 2.6,3.5 5.9,3.5 3,0 4,-0.4 4.5,-2.1 0.9,-2.9 -2.1,-10.7 -5.6,-14.4 -1.6,-1.7 -2.9,-3.9 -2.9,-5 0,-1 -3.7,-9.3 -8.3,-18.4 -4.6,-9.1 -10.9,-22.7 -14.1,-30.1 -3.2,-7.4 -7.7,-16.9 -10.1,-21 -2.4,-4.1 -4.8,-8.6 -5.3,-10.1 -0.6,-1.4 -3,-5.9 -5.4,-10 -2.4,-4 -7.5,-13.7 -11.2,-21.4 -3.7,-7.7 -7.4,-14.7 -8.1,-15.5 -0.8,-0.8 -3.1,-4.9 -5.3,-9 -2.1,-4.1 -4.6,-8.9 -5.5,-10.5 -1,-1.7 -4.1,-8 -7.1,-14 -7.9,-16.2 -16.5,-32.7 -18,-34.5 -0.7,-0.8 -2.7,-4.1 -4.5,-7.2 -1.8,-3.2 -4.5,-6.7 -6.2,-7.9 -1.6,-1.1 -3.6,-3.5 -4.3,-5.2 -1.6,-3.9 -23.4,-26.8 -29.3,-30.8 -2.3,-1.6 -7.5,-6.2 -11.6,-10.2 -4.1,-4 -9.1,-8.1 -11.3,-9.1 -2.1,-1 -7.9,-4.2 -12.9,-7.1 -4.9,-2.9 -10.8,-5.8 -13,-6.5 -2.2,-0.7 -5.1,-2.1 -6.5,-3 -5.3,-3.6 -14.6,-8.8 -17,-9.5 -1.4,-0.4 -6.6,-2.7 -11.5,-5 -5,-2.4 -11.5,-5 -14.5,-5.9 -6.5,-1.9 -17.6,-2 -24.8,-0.1 z m 63.5,50.7 c 4.5,1.2 9,4.7 13.6,10.7 2,2.5 1.6,3.5 -1.6,3.8 -1.2,0.1 -3.5,0.4 -5.2,0.7 -1.6,0.4 -2.3,0.3 -1.5,0 4.5,-2 2.2,-5.1 -4.1,-5.6 -3.9,-0.3 -4.4,-0.6 -4.7,-3 -0.2,-1.5 -1.4,-3.4 -2.8,-4.2 -5.1,-3.4 -2.1,-4.6 6.3,-2.4 z m 34.2,25.4 c 4.5,2.1 6.1,3.4 7,5.9 0.7,2 2.5,3.9 4.7,5.1 3.1,1.7 11.4,11.3 11.4,13.3 0,0.4 -1.1,1.8 -2.5,3.1 -2.1,1.9 -2.7,2.1 -4,1 -0.9,-0.7 -1.3,-2 -1,-2.8 0.3,-0.8 0.3,-2.4 -0.1,-3.5 -0.5,-1.6 -0.8,-1.7 -1.5,-0.6 -0.7,1.1 -0.9,1 -0.9,-0.4 0,-0.9 0.5,-1.7 1.2,-1.7 2.8,0 -1.1,-2.1 -4.1,-2.2 -1.7,-0.1 -3.1,-0.4 -3.1,-0.8 0,-0.3 -1.6,-1.4 -3.5,-2.3 -1.9,-0.9 -3.5,-2.3 -3.5,-3.2 0,-0.8 -1.4,-2.7 -3.1,-4.2 -3.8,-3.5 -5.1,-5.7 -4.3,-7.7 0.8,-2 0.6,-2.1 7.3,1 z m 28.6,34.4 c 0.3,0.5 -0.3,1 -1.4,1 -1.2,0 -2.1,-0.5 -2.1,-1 0,-0.6 0.6,-1 1.4,-1 0.8,0 1.8,0.4 2.1,1 z m 13.7,16.7 c 0.8,1 1.9,3.5 2.5,5.5 1,3.5 0.9,3.8 -0.8,3.8 -1,0 -1.9,-0.7 -1.9,-1.4 0,-0.8 -1.1,-2.7 -2.4,-4.1 -2.5,-2.6 -2.5,-5.5 -0.1,-5.5 0.6,0 1.9,0.8 2.7,1.7 z m 12.8,19.3 c 2.4,4.6 0,6.3 -5.3,3.9 -3,-1.4 -6,-6.4 -5.2,-8.8 0.5,-1.8 0.8,-1.8 5.1,0.6 2.4,1.4 4.9,3.3 5.4,4.3 z m 4.7,9.4 c 0.1,0.1 0.5,1.7 0.8,3.5 0.3,1.9 0.8,3.8 1.1,4.3 1.2,1.9 -2.8,1.8 -5.6,-0.2 -3.2,-2.3 -3.6,-3.9 -1.9,-7.1 0.7,-1.5 1.6,-1.8 3.2,-1.3 1.2,0.3 2.3,0.7 2.4,0.8 z m 32.7,60.7 c -0.7,1.2 -4.4,1.2 -4.4,0 0,-0.5 0.6,-1.1 1.3,-1.4 1.7,-0.6 3.8,0.3 3.1,1.4 z m 16.8,18.6 c 1,0.9 1.8,2.1 1.8,2.8 0,0.7 0.9,2 2,3 4.2,3.8 1.5,9.5 -3.6,7.8 -2.1,-0.7 -2.8,-1.6 -2.9,-3.7 0,-1.6 -0.8,-3.4 -1.8,-4.1 -1.8,-1.3 -2.1,-3.2 -1.1,-5.9 0.8,-2.1 3.3,-2 5.6,0.1 z m -1579.5,259 c 0.5,1.4 -6.3,3.6 -9.7,3.1 -3.2,-0.4 -3.2,-3 0,-3.9 3.6,-1.1 9.3,-0.6 9.7,0.8 z m 1611.8,18.3 c 0.7,1.2 -1.4,5.4 -2.3,4.6 -0.8,-0.9 -1.2,-3.8 -0.6,-4.8 0.7,-1.1 2.2,-1 2.9,0.2 z m -4.5,7 c 0,0.5 -0.7,1 -1.5,1 -0.8,0 -1.5,-0.5 -1.5,-1 0,-0.6 0.7,-1 1.5,-1 0.8,0 1.5,0.4 1.5,1 z m -4.2,41.2 c -0.6,1.8 -2.8,2.1 -2.8,0.4 0,-0.9 0.7,-1.6 1.6,-1.6 0.9,0 1.4,0.5 1.2,1.2 z m -14.4,22 c -1.9,3.2 -5.7,7.8 -6.5,7.8 -1.9,0 -0.8,-3.6 1.9,-6.2 2.8,-2.8 5.9,-3.8 4.6,-1.6 z m -8.4,10.7 c 0,1.1 -5.5,8.4 -12.3,16.3 -6.7,7.9 -14.5,17.2 -17.1,20.8 -2.7,3.6 -5.4,6.9 -6,7.5 -0.6,0.5 -2.9,3.7 -5,7 -2.1,3.3 -5.4,7.6 -7.4,9.5 -3.8,3.9 -14.2,17.2 -18.5,23.8 -2.8,4.3 -24.6,26.5 -34.9,35.5 -3.2,2.7 -5.8,5.8 -5.8,6.8 0,5.5 9.3,-1.2 23.2,-16.6 1.9,-2.2 5.6,-5.9 8.2,-8.3 2.5,-2.3 4.6,-4.8 4.6,-5.5 0,-1.5 6.7,-8.7 9.7,-10.4 3.3,-1.9 4,0.4 1,3.5 -1.3,1.5 -3.1,3.9 -3.8,5.3 -1.6,3.2 -12.6,15.2 -29.4,32.3 -6.6,6.7 -12.6,13.4 -13.4,14.9 -0.8,1.5 -1.8,2.7 -2.3,2.7 -0.4,0 -0.8,1.6 -0.8,3.6 0,2.9 -0.9,4.4 -5.4,9 -4.7,4.7 -6,5.4 -9.3,5.4 -4.7,0 -7,-1.6 -7.5,-5 -0.4,-3 -4.7,-4 -6.8,-1.6 -1.6,2 -3.4,2 -6.4,0.1 -2.4,-1.6 -13.6,-4.8 -18.7,-5.4 -0.4,-0.1 -1,-0.8 -1.3,-1.7 -0.9,-2.3 1.8,-5.7 7.5,-9.3 2.7,-1.8 5.6,-4.2 6.2,-5.2 1.7,-2.7 4.7,-2.5 4.7,0.3 0.1,5.2 4.4,6.5 6.6,2 0.6,-1.3 2.4,-3.7 4,-5.3 2.4,-2.5 2.7,-3.3 1.6,-4.9 -1.9,-3 0.3,-3.3 5.2,-0.5 5.6,3.1 8.4,3.2 12.7,0 1.9,-1.3 5.5,-3.8 8,-5.5 2.6,-1.7 5.8,-4.7 7.2,-6.8 1.3,-2.1 5.2,-6.6 8.6,-9.9 3.3,-3.4 6.1,-6.5 6.1,-7 0,-0.5 1,-1.9 2.3,-3.1 3.9,-3.6 7.2,-8.2 8.3,-11.5 0.7,-2.1 2.4,-4 5.1,-5.5 4.3,-2.3 20.3,-17.5 20.3,-19.1 0,-0.6 1.7,-3 3.8,-5.5 7.4,-8.9 12,-15.2 14.3,-19.1 3.2,-5.6 12.5,-17.2 15.4,-19.1 1.3,-0.9 2.7,-2.6 3,-3.7 0.8,-2.5 11.3,-12.6 13.3,-12.7 0.6,0 1.2,0.9 1.2,1.9 z m -87.5,93 c 0.3,0.6 -0.3,1.5 -1.4,2 -2.6,1.4 -3.1,1.4 -3.1,-0.3 0,-2.1 3.4,-3.4 4.5,-1.7 z"
       id="path12050"
       inkscape:connector-curvature="0"
       style="fill:#000000;stroke:none" />
    <path
       d="m 1661.9,1391.5234 c -1.7,2.1 0.5,4.3 2.8,2.8 0.9,-0.6 1.8,-1.5 2,-2.1 0.6,-1.7 -3.5,-2.2 -4.8,-0.7 z"
       id="path12052"
       inkscape:connector-curvature="0"
       style="fill:#000000;stroke:none" />
    <path
       d="m 1896.6,756.4234 c -0.3,0.8 -0.1,1.5 0.4,1.5 0.6,0 1,-0.7 1,-1.5 0,-0.8 -0.2,-1.5 -0.4,-1.5 -0.2,0 -0.6,0.7 -1,1.5 z"
       id="path12054"
       inkscape:connector-curvature="0"
       style="fill:#000000;stroke:none" />
    <path
       d="m 1896.8,787.6234 c 0.7,0.3 1.6,0.2 1.9,-0.1 0.4,-0.3 -0.2,-0.6 -1.3,-0.5 -1.1,0 -1.4,0.3 -0.6,0.6 z"
       id="path12056"
       inkscape:connector-curvature="0"
       style="fill:#000000;stroke:none" />
    <path
       d="m 1895.3,1006.2234 c -4.2,1.4 -4.7,3 -3,9.1 4,14.3 5.1,19.6 5.2,25.1 0.1,6.7 3.2,16.5 5.2,16.5 0.7,0 1.5,-2 1.9,-5 0.7,-5.6 1.5,-6.1 3.4,-2.5 3.6,6.7 4.6,-2.6 1.7,-15.5 -1.2,-5.4 -1.5,-9.6 -1.1,-15.5 0.6,-6.9 0.4,-8.3 -1.2,-10.3 -2.2,-2.7 -7.5,-3.5 -12.1,-1.9 z"
       id="path12058"
       inkscape:connector-curvature="0"
       style="fill:#000000;stroke:none" />
    <path
       d="m 1913.6,1062.1234 c -0.2,0.7 -0.7,3.3 -1.1,5.7 -0.5,3.7 -0.2,4.8 1.6,6.7 2.7,2.9 6.5,3.3 5.4,0.6 -0.4,-0.9 -1,-4.4 -1.4,-7.7 -0.5,-4.6 -1,-6.1 -2.4,-6.3 -0.9,-0.2 -1.9,0.2 -2.1,1 z"
       id="path12060"
       inkscape:connector-curvature="0"
       style="fill:#000000;stroke:none" />
    <path
       d="m 1918.7,1087.1234 c 0.3,2.4 0.9,5 1.3,5.8 0.4,0.8 0.6,4.1 0.4,7.4 -0.2,3.2 0.1,6.7 0.7,7.8 0.8,1.4 0.6,1.9 -0.8,2.4 -4,1.2 -4.8,2.2 -4.8,6 -0.1,2.2 -0.6,4.8 -1.2,5.9 -0.6,1.1 -1.5,4.7 -1.9,8 -1,8 -1.1,8.5 -0.1,12.4 0.6,2.3 0.3,5.5 -0.8,10.2 -1.1,4.5 -1.6,9.6 -1.3,14.4 0.2,4.1 0,7.5 -0.4,7.5 -0.5,0 -0.8,0.7 -0.8,1.5 0,0.8 -0.7,1.5 -1.5,1.5 -0.8,0 -1.5,-0.7 -1.5,-1.5 0,-0.8 0.5,-1.5 1.1,-1.5 0.7,0 0.5,-1 -0.5,-2.5 -0.9,-1.3 -1.6,-3.5 -1.6,-4.7 0,-3.2 -1.5,-5.2 -3.4,-4.5 -1.2,0.5 -1.6,2 -1.6,6.2 0,5 0.3,5.7 2.5,6.7 l 2.5,1.1 -2.1,2.3 c -2,2.1 -2.1,3 -1.5,9.4 0.3,3.9 0.3,8.2 0,9.5 -0.8,3.1 -4,3.3 -4.9,0.4 -0.8,-2.4 -1.7,-23.2 -1.5,-33.2 0.1,-6.1 0,-6.7 -1.8,-6.7 -1.4,0 -2.9,1.5 -4.6,4.5 -3.7,6.7 -4,8.3 -2.1,11.9 1.4,2.6 1.5,3.8 0.6,7.4 -0.7,2.3 -1.6,4.2 -2.1,4.2 -0.5,0 -1.8,1.7 -2.8,3.7 -1.7,3.4 -1.8,5.3 -1.1,18.8 0.3,8.2 1.2,20.4 1.8,27 1.3,14.6 4.9,93 6.1,133.5 0.7,24.9 0.3,153.5 -0.6,182.5 -0.1,4.9 -0.3,10.2 -0.3,11.6 -0.1,1.4 -1.2,3.8 -2.5,5.2 -2.4,2.6 -2.5,2.6 -6.8,1.1 -3.6,-1.3 -10.8,-1.6 -44.8,-1.7 -39.1,-0.2 -108.8,0.9 -116,1.8 -1.9,0.2 -12.7,0.7 -24,1 -11.3,0.3 -32.9,1 -48,1.5 -15.1,0.5 -35.4,1.2 -45,1.5 -9.6,0.3 -20,0.7 -23,0.9 -10.6,0.8 -100.5,3.1 -159.2,4 -19.6,0.3 -40.1,0.8 -45.5,1.2 -5.4,0.3 -10.5,0.5 -11.3,0.5 -7.8,-0.3 -42.9,0.3 -88,1.4 -8.5,0.2 -39.8,0.6 -69.5,0.9 -29.7,0.4 -59.6,0.9 -66.5,1.2 -15.2,0.6 -11.9,0.6 -28,0.5 -15.5,0 -42.3,0.4 -79.5,1.3 -14.3,0.4 -34.3,0.9 -44.5,1.1 -10.1,0.3 -19.9,1 -21.8,1.6 -2.5,0.8 -5,0.8 -9.8,-0.1 -4.1,-0.8 -10.2,-1 -17.1,-0.6 -6,0.4 -24.1,0.9 -40.3,1.2 -16.2,0.3 -31.7,0.7 -34.5,0.9 -2.7,0.2 -11.1,0.4 -18.5,0.5 -7.4,0 -18,0.5 -23.5,1 -5.5,0.5 -19.4,1.2 -31,1.5 -22.6,0.6 -38.6,1.2 -50.5,2 -24,1.6 -67,3.4 -118.5,5 -9.3,0.3 -21.3,0.7 -26.5,1 -5.2,0.3 -21.9,0.7 -37,1 -15.1,0.3 -33.1,0.7 -40,1 -6.9,0.2 -25.1,0.7 -40.5,1 -15.4,0.3 -32.3,0.8 -37.5,1 -13.4,0.7 -114.8,0.6 -131,-0.1 -18.3,-0.7 -51.2,-4.1 -63,-6.4 -3,-0.6 -9.3,-1.7 -14,-2.5 -13,-2.3 -30.7,-6.4 -38.9,-9.1 -9.1,-3 -10.2,-3 -15.1,0.1 -5.4,3.4 -5.4,8 0.2,14.1 1.3,1.5 1.8,3.3 1.6,5.5 -0.3,2.8 -0.8,3.4 -3.7,4.2 -3.7,0.9 -10,-1.3 -16.6,-5.8 -1.6,-1.1 -5.2,-2.2 -7.9,-2.5 -2.8,-0.3 -5.3,-1.1 -5.8,-2 -1.4,-2.2 2.8,-8.3 7.5,-11 2,-1.2 3.5,-2.5 3.2,-3 -1.1,-1.8 0.8,-4 3.5,-4 1.5,0 4.1,-0.5 5.8,-1.1 2.4,-0.8 3.7,-0.7 6.1,0.5 3.7,2 9.7,2.1 10.4,0.3 0.7,-1.8 -2.8,-9.5 -5.5,-12.4 -1.2,-1.3 -3,-2.3 -3.9,-2.3 -1,0 -4.1,-2 -6.9,-4.5 -9.7,-8.7 -16.6,-7.9 -26.7,2.9 -5.7,6 -9.3,13.2 -9.3,18.3 0,1.3 1.2,3.1 3,4.3 3.4,2.4 6,7.7 6,12.4 0.1,1.9 1.2,4.4 3,6.6 3.4,3.8 3.7,5.6 1.5,8.6 -2,3 -1.4,12.7 1.1,15.6 3,3.5 4.7,4.7 6.9,4.8 1.1,0 3.6,1.1 5.5,2.4 1.9,1.2 6,2.9 9,3.6 3,0.7 8.8,2.8 12.8,4.7 11.8,5.6 36.9,14.4 48.2,16.9 15.2,3.4 42.1,7.2 60,8.4 34.2,2.4 154.6,1.8 213,-1 24,-1.1 30.7,-1.4 70,-3 89.2,-3.5 140.6,-5.8 147.5,-6.5 2.8,-0.3 18.7,-1.2 35.5,-2.1 16.8,-0.8 39.1,-1.9 49.5,-2.5 70,-3.7 94.5,-4.6 156.5,-5.9 28.9,-0.5 56.8,-1.2 62,-1.5 9.4,-0.5 48.8,-1.2 111,-2 17.9,-0.2 40.4,-0.6 50,-1 9.6,-0.3 33,-0.7 52,-1 52.2,-0.7 195.2,-3.3 214.5,-4 9.4,-0.2 31.4,-0.7 49,-1 17.6,-0.3 45.7,-1 62.5,-1.6 53.2,-1.6 88.1,-2.8 100.5,-3.4 46,-2.1 139.8,-4.5 180.3,-4.6 20.3,0 27.5,-0.4 31.4,-1.5 2.7,-0.9 5.7,-1.3 6.5,-1 1.8,0.7 5.3,-1.1 5.3,-2.8 0,-1.4 3.5,-4.8 6.7,-6.5 1.3,-0.6 6,-1.4 10.5,-1.8 7.6,-0.6 8.6,-0.9 11.1,-3.7 2.6,-2.7 2.8,-3.5 2.3,-8.5 -0.9,-10.6 -1.7,-13.1 -3.8,-13.1 -1,0 -1.7,0.4 -1.4,0.9 1,1.5 -1.2,6.1 -2.9,6.1 -2.4,0 -3.2,-3.7 -2.8,-14 1,-27.6 2.5,-33.3 8.4,-31.5 2.6,0.9 3.1,-4.6 3.3,-36.4 0.1,-25.7 0,-27.6 -1.6,-27.5 -1.4,0.1 -1.8,-0.5 -1.7,-3 0.1,-1.7 0.3,-2.3 0.6,-1.4 0.6,2.3 1.9,2.3 2.5,0 0.9,-3.2 -0.7,-5.6 -3.7,-5.7 -2.3,0 -3,-0.6 -3.6,-2.9 -1.1,-3.8 0.5,-6.6 3.7,-6.6 1.4,0 3.4,-0.5 4.5,-1.1 1.4,-0.7 3,-0.7 5.5,0.1 3,1 4.1,0.9 6.9,-0.6 2.6,-1.4 3.2,-2.2 2.5,-3.4 -0.6,-1.1 -0.2,-2.7 1.2,-4.8 1.6,-2.6 2.3,-3 3.4,-2.1 2.2,1.8 1.7,5.7 -1.1,7.5 -2,1.3 -2.5,2.5 -2.5,5.8 0,2.3 -0.5,8 -1.1,12.6 -0.6,4.7 -1.2,12.8 -1.5,18 -0.6,14.5 -0.8,16.4 -1.9,17.2 -0.6,0.5 -0.4,1.2 0.5,1.8 1.3,0.9 1.3,1.1 0,2 -1,0.6 -1.1,1 -0.2,1 0.9,0 1.2,4.2 1.2,17.7 0.1,9.8 0.5,19.8 1,22.3 0.5,3 0.5,4.7 -0.2,5.1 -0.6,0.4 -0.8,2.1 -0.5,4 0.4,1.9 0,8.7 -0.7,15.1 -1.1,9 -1.9,12.4 -3.5,14.4 -3.8,4.8 -3.5,4.9 24.2,4.5 4.3,0 9.9,0.4 12.5,1 2.6,0.6 9.2,1.3 14.7,1.5 12,0.4 22.4,2 28.5,4.4 2.5,0.9 8.8,2.5 14,3.4 20.1,3.7 26,5.7 26,9 0.1,3.7 0.5,3.8 45.1,4.2 23.9,0.2 53.1,0.6 64.9,0.9 11.8,0.2 76,0.7 142.5,1 145,0.6 188.5,1.1 287,3 13.2,0.3 47.2,0.7 75.5,1 28.3,0.3 55.2,1.1 59.7,1.6 4.5,0.6 8.5,0.9 9,0.6 0.8,-0.5 67.3,0.7 97.8,1.7 8.8,0.3 48,0.8 87,1.1 39.1,0.4 75.7,1 81.5,1.5 5.7,0.5 10.7,0.7 11.1,0.5 0.3,-0.3 12.7,0 27.5,0.5 67.1,2.4 93.8,2.9 165.9,2.9 79.4,0.1 129.7,-0.8 144.2,-2.5 14.8,-1.7 22.5,-1.8 24.1,-0.2 0.7,0.7 1.2,2.4 1.2,3.9 0,6.1 4.3,10.9 9.7,10.9 1,0 3.8,1.4 6.2,3 5.5,3.7 9.2,3.8 22.5,0.5 6.5,-1.6 11.4,-3.4 14,-5.3 2.3,-1.7 15.5,-8.6 29.4,-15.5 31.7,-15.8 39.5,-20.9 54.8,-36.1 13.5,-13.5 18.3,-19.3 36.4,-44.3 28.5,-39.2 40.8,-59.3 50,-81.8 1.7,-4.4 7.6,-17 13,-28 14.2,-29.2 31,-66.6 31,-69.3 0,-0.5 1.2,-3.6 2.6,-6.8 2.8,-6.4 2.9,-6.7 10.7,-28.4 7.1,-19.8 10.4,-30.8 11.7,-39.1 0.5,-3.6 2.1,-11.9 3.4,-18.5 2.4,-11.6 3.8,-20.8 5.6,-36.9 0.4,-4.4 1.5,-12.3 2.4,-17.5 1.8,-10.7 3,-19.9 4.8,-37.7 l 1.2,-12.2 -3.7,-13.8 c -3.3,-12.7 -4.7,-18.6 -9.2,-39.3 -0.9,-4.1 -2.1,-8.1 -2.7,-8.8 -1.4,-1.6 -35.4,-0.7 -37.5,0.9 -0.8,0.8 -1.3,3.5 -1.3,7.8 0,9.7 -1.9,38.7 -3,45.6 -0.5,3.3 -1.2,8.7 -1.5,12 -0.3,3.3 -0.8,7.1 -1.2,8.5 -1,4.5 -2.3,13.2 -4.3,29.5 -1.1,8.8 -2.7,20 -3.6,25 -2.5,14.7 -3.1,18.6 -4.3,26.8 -0.6,4.3 -1.5,8.6 -2.1,9.7 -0.5,1 -1,2.9 -1,4.2 -0.1,2.1 -1.5,6.6 -9.4,28.6 -1.4,3.9 -3.4,9.1 -4.5,11.5 -1,2.3 -4.5,10.7 -7.7,18.7 -3.1,8 -6.6,15.8 -7.6,17.5 -1,1.6 -1.8,3.6 -1.8,4.4 0,1.3 -6.3,15.1 -10.6,23.3 -0.8,1.6 -2,4 -2.8,5.5 -3.6,6.9 -11.5,24 -12.1,26.3 -0.4,1.4 -1.3,3.4 -2,4.5 -0.7,1.1 -2.6,5.4 -4.3,9.5 -3,7.5 -9.1,19.9 -12.6,25.5 -5.1,8.1 -16.5,24.7 -20.6,30 -2.6,3.3 -5.3,7.1 -6,8.5 -0.7,1.4 -3,4.5 -5,7 -2,2.5 -4.2,5.5 -4.9,6.7 -0.6,1.2 -2.8,4.2 -4.9,6.7 -2,2.5 -5.4,6.7 -7.5,9.3 -14,17.9 -14.8,18.8 -27.4,29.1 -4.3,3.5 -6.5,4.5 -11.3,5.3 -4.1,0.6 -8.2,2.2 -12.6,5 -3.6,2.2 -8.6,4.8 -11.2,5.8 -2.6,1 -6.3,2.6 -8.3,3.4 -3.1,1.4 -3.9,1.4 -5.5,0.3 -1,-0.8 -2.4,-1.2 -3.1,-0.9 -0.7,0.3 -5,0 -9.7,-0.6 -6.2,-0.9 -9.7,-0.9 -13.3,0 -2.6,0.6 -9.7,1 -15.8,1 -7.4,-0.1 -11.8,0.4 -13.6,1.3 -1.8,0.9 -3.2,1 -4.3,0.4 -1,-0.6 -3.4,-0.7 -5.4,-0.3 l -3.7,0.8 2.8,0.9 c 2.6,0.9 3.6,3.1 1.8,4.2 -2.6,1.6 -43.2,3 -49.4,1.6 -1.9,-0.4 -4.8,-0.1 -7.1,0.7 -6.6,2.2 -14.3,2.7 -23.2,1.3 -8.9,-1.4 -10.1,-2.6 -4.4,-4.5 3.6,-1.2 4.8,-2.9 3,-4 -1.8,-1.1 -35.2,-0.5 -39.2,0.7 -2.9,0.8 -4.1,0.8 -5.3,-0.2 -1.3,-1.1 -8.8,-1.4 -22,-0.9 -1.8,0.1 -8.6,0.1 -19.5,0.1 -1.9,0 -9.6,-0.2 -17,-0.5 -16.3,-0.7 -43.2,-1.4 -79.5,-2.2 -14.8,-0.3 -33.1,-0.8 -40.5,-1 -14.8,-0.5 -50.1,-1.5 -76,-2.2 -9.1,-0.2 -32.7,-0.6 -52.5,-0.8 -85.4,-1 -128.4,-1.9 -135.5,-2.9 -1.9,-0.3 -25.3,-0.8 -52,-1 -26.7,-0.3 -58.4,-0.8 -70.5,-1.1 -12.1,-0.3 -27.6,-0.7 -34.5,-0.8 -6.9,-0.2 -24.9,-0.6 -40,-1 -15.1,-0.4 -43.7,-0.9 -63.5,-1.2 -19.8,-0.3 -49.9,-0.8 -67,-1.1 -17,-0.3 -76,-0.7 -131,-1 -55,-0.3 -104,-0.7 -109,-0.9 -39.2,-1.2 -241.4,-2.1 -248.5,-1.1 -8,1.2 -7.6,3.3 -7,-38.1 0.5,-39.8 0.6,-120.6 0.2,-158.1 -0.3,-21 -0.4,-23.2 -2,-23.3 -1.4,0 -1.3,-0.2 0.3,-0.9 1.7,-0.7 1.7,-0.9 0.3,-0.9 -1.6,-0.1 -1.8,-1.2 -1.9,-8.4 -0.1,-4.5 -0.1,-8.5 0,-8.9 0.1,-0.8 0.1,-6.8 -0.1,-14.8 -0.1,-2.5 0.4,-13.3 1,-24 3.3,-56.8 3.1,-87 -0.8,-138 -0.4,-6.3 -0.6,-13.8 -0.3,-16.5 0.5,-4.6 0.1,-6 -4.5,-15 -2.7,-5.5 -6.6,-14.3 -8.6,-19.5 -2.1,-5.2 -4.6,-11 -5.7,-12.8 -1,-1.8 -1.9,-4.2 -1.9,-5.3 0,-1.2 -0.7,-1.9 -1.9,-1.9 -1.7,0 -1.8,0.5 -1.4,4.2 z m 6.4,26 c 0.1,0.7 0.1,1.8 0,2.4 -0.1,0.6 1.6,1.8 3.7,2.6 3.4,1.3 4.2,2.3 6.4,7.9 2.4,5.9 2.5,6.6 1.1,9.3 -1.2,2.4 -1.3,3.3 -0.2,5.2 0.9,1.8 1,3 0.1,4.9 -0.7,1.4 -1.2,3.7 -1.2,5.1 0,3.6 -4.2,12.4 -6,12.4 -1.9,0 -5.5,-6.3 -4.7,-8.4 0.3,-0.8 -0.3,-2.2 -1.4,-3.2 -1,-0.9 -1.9,-2.8 -1.9,-4.2 0,-1.4 -1,-3.6 -2.1,-4.8 -2.1,-2.3 -2.1,-2.4 -0.4,-5 1.4,-2.2 1.7,-4.1 1.2,-10.6 -0.3,-4.7 -0.1,-8 0.5,-8.4 0.5,-0.4 0.7,-1.9 0.4,-3.5 -0.5,-2.6 -0.3,-2.9 1.9,-2.9 1.4,0 2.6,0.6 2.6,1.2 z m 8.9,61.3 c 0,0.8 -0.7,1.5 -1.5,1.5 -0.8,0 -1.5,-0.7 -1.5,-1.5 0,-0.8 0.7,-1.5 1.5,-1.5 0.8,0 1.5,0.7 1.5,1.5 z m 1718.5,22.7 c 0.3,2.4 0.8,5.5 1.1,6.9 0.4,1.8 0,2.8 -1.1,3.3 -1.8,0.6 -1.2,4.5 0.8,5.8 0.7,0.4 0.6,1.9 -0.3,4.8 -1,3.1 -1.1,4.3 -0.2,5.2 1.8,1.8 1.4,3.4 -1.7,7 -3.2,3.7 -4.5,10.3 -2.9,14.8 0.7,2 0.6,3.5 -0.3,5.2 -0.7,1.3 -1.3,5.2 -1.4,8.8 -0.1,3.6 -0.7,7.8 -1.3,9.3 -0.7,1.6 -1.2,4.3 -1.2,6 -0.1,1.8 -0.7,4.3 -1.5,5.7 -0.8,1.4 -1.4,3.8 -1.5,5.3 0,1.5 -0.9,4.5 -2,6.7 -1.2,2.3 -2,6 -2,8.7 0,2.6 -0.7,5.7 -1.5,6.7 -0.8,1.1 -1.5,2.9 -1.5,4 0,1.2 -0.7,3 -1.5,4 -0.8,1.1 -1.5,2.9 -1.5,4.1 0,1.1 -0.6,2.9 -1.4,4 -0.7,1.1 -1.6,3.3 -2,5 -0.4,1.6 -1.5,3.8 -2.3,4.7 -1,1.1 -1.8,4.5 -2.1,8.9 -0.4,5.8 -1.1,8.1 -3.5,11.6 -2.2,3.4 -2.8,5.1 -2.3,7.4 0.5,2.6 0.1,3.1 -3.3,4.9 -4.1,2 -5.2,4.7 -5.1,11.9 0,1.8 -0.6,4.1 -1.4,5 -1.7,2 -16,29.6 -17.1,33.1 -0.4,1.4 -2.7,5.8 -5.2,9.8 -3.6,6 -4.2,7.6 -3.3,9.3 0.9,1.6 0.6,2.5 -1.4,5 -1.4,1.7 -2.6,4.1 -2.6,5.4 0,1.2 -0.6,2.8 -1.4,3.4 -0.8,0.7 -1.8,2.6 -2.1,4.2 -0.4,1.6 -1.2,3.2 -1.9,3.6 -2.3,1.4 -4.6,5.7 -4.6,8.5 0,1.6 -1.2,4 -3,6 -1.6,1.8 -3,3.9 -3,4.8 0,0.9 -2.4,4 -5.4,6.9 -4,3.9 -5.7,6.6 -6.7,10 -0.6,2.5 -2,5.5 -3,6.6 -1,1.1 -3.2,4.7 -5,8 -1.7,3.2 -4.5,7.6 -6.2,9.7 -2.6,3.3 -3.6,3.8 -7.3,3.8 -2.9,0 -4.4,0.5 -4.8,1.6 -1.2,3.2 -0.7,3.6 3.7,3 4.3,-0.7 4.4,-0.6 5.4,2.8 0.9,2.9 0.8,4 -0.9,6.6 -1.7,2.8 -2.3,3.1 -5.1,2.6 -4.8,-0.9 -7.1,1.1 -5.7,4.8 0.6,1.6 0.8,3.2 0.4,3.5 -0.3,0.3 -3.5,0.6 -7.1,0.6 -6.8,0 -9,1.3 -5.1,3 4.5,2.1 4,9.9 -0.7,11.1 -2.2,0.5 -2.5,1.1 -2.1,3 0.5,1.9 0,2.8 -2.3,4.2 -1.6,1 -5.3,4.4 -8.3,7.6 -7.2,8 -13.5,12.6 -16.9,12.6 -1.6,0 -4.4,0.9 -6.4,2 -6.5,3.6 -8.8,1.9 -6.5,-5 1.5,-4.4 3,-5.3 6.4,-4 2,0.7 3,0.4 5.3,-1.7 1.5,-1.5 2.7,-3.4 2.5,-4.2 -0.2,-1.3 0,-1.2 0.8,0.1 2.5,4.1 10,0 10,-5.4 0,-1.5 0.5,-2.8 1,-2.8 0.6,0 1,-0.5 1,-1 0,-0.6 -0.9,-1 -2.1,-1 -2.7,0 -7.9,-3.1 -7.9,-4.7 0,-0.8 1.3,-1.3 3.4,-1.3 4.4,0 9.2,-3.9 10.2,-8.3 0.9,-4.1 3.2,-7.7 5,-7.7 1.8,0 9.4,-5 9.4,-6.1 0,-0.5 -0.9,-1.3 -2,-1.9 -1.1,-0.6 -2,-1.5 -2,-2 0,-1.8 6.6,-7.7 9.3,-8.4 2.6,-0.6 2.8,-0.9 2.1,-3.9 -1.1,-5 -0.8,-6.2 3.1,-11.2 2,-2.6 4.2,-6 5,-7.6 0.8,-1.5 3.9,-5.2 7,-8.3 3,-3 5.5,-6.3 5.5,-7.4 0,-1 1.2,-2.9 2.6,-4.3 1.4,-1.3 3.7,-4.7 5.1,-7.4 1.4,-2.8 3.3,-6.1 4.3,-7.5 0.9,-1.4 2,-4 2.3,-5.8 0.4,-1.9 1.6,-4.6 2.7,-6.2 1.1,-1.5 2,-3.7 2,-4.7 0,-1 0.9,-2.6 2,-3.6 1.2,-1 2,-2.9 2,-4.9 0,-3.3 2.4,-6.8 4.7,-6.8 0.7,0 1.3,-1.1 1.3,-2.4 0,-1.4 0.5,-2.8 1,-3.1 1.1,-0.7 7,-12.8 7,-14.4 0,-1.9 7,-13.7 9.4,-16 1.4,-1.3 2.2,-3 1.9,-3.7 -0.3,-0.8 0.1,-2.2 0.9,-3.2 0.9,-0.9 1.8,-3 2.2,-4.6 0.4,-1.5 1.4,-3.5 2.1,-4.3 0.8,-0.8 1.8,-2.6 2.1,-4.1 0.4,-1.5 2.2,-4.7 4,-7.1 2.3,-2.9 3.4,-5.5 3.4,-7.7 0,-1.8 0.6,-4.5 1.4,-6.1 0.8,-1.5 2,-4.2 2.7,-5.8 0.7,-1.7 2.1,-4.1 2.9,-5.5 0.9,-1.4 2.7,-5.4 3.9,-9 1.3,-3.6 2.7,-6.9 3.2,-7.5 0.5,-0.5 0.9,-1.7 0.9,-2.6 0,-1 1.1,-3.1 2.5,-4.7 1.4,-1.7 2.5,-3.9 2.5,-5.1 0,-1.1 0.7,-3.5 1.4,-5.3 0.8,-1.8 2.2,-7.4 3.1,-12.3 1,-5 2.5,-10.4 3.6,-12 1,-1.7 2.1,-5.1 2.5,-7.5 0.4,-2.5 1.5,-6.2 2.6,-8.3 2.1,-4.3 2.7,-6.8 3.6,-17.7 0.5,-5.6 1.3,-8.4 3.1,-10.8 2.2,-3.1 2.3,-3.7 1.1,-7.3 -0.9,-2.5 -1.1,-6.3 -0.7,-11.2 0.4,-5 0.3,-7.7 -0.5,-8.5 -1.3,-1.3 1,-4.4 5.3,-6.9 2.4,-1.4 2.5,-1.8 1.2,-3.1 -0.8,-0.8 -1.2,-2.4 -0.9,-3.4 0.2,-1.1 -0.1,-3.1 -0.7,-4.5 -1,-2.2 -0.8,-2.8 1.2,-4.4 3.3,-2.7 3.8,-2.4 4.6,2.3 z m -1718,10.8 c 0.3,0.5 -0.3,1 -1.4,1 -1.2,0 -2.1,-0.5 -2.1,-1 0,-0.6 0.6,-1 1.4,-1 0.8,0 1.8,0.4 2.1,1 z m -0.1,9.5 c 1.2,3.3 1.8,11.4 0.8,13.1 -0.6,1.1 -0.7,2.7 -0.1,4.2 0.5,1.4 0.5,5 -0.1,9 -0.9,6.6 -2,33.2 -2.5,62.7 -0.1,8.2 -0.5,17.7 -0.9,21 -0.4,3.3 -0.9,11.4 -1.2,18 -0.3,6.6 -0.8,15.8 -1,20.5 -1.4,23.6 -1.6,30.4 -1.7,53.9 -0.2,23 -0.4,25.5 -1.9,26.5 -3.4,2.1 -5.3,-0.4 -5.3,-7 0,-15.2 1.9,-60.4 3,-71.9 0.3,-2.8 0.7,-10.2 0.9,-16.5 0.3,-6.3 1,-17.8 1.5,-25.5 1,-13.8 1.7,-31.5 2.6,-65 0.7,-27.3 1.5,-42.6 2.1,-43.6 0.8,-1.4 3.1,-1.1 3.8,0.6 z m 2.3,218.1 c -0.3,0.3 -1.2,0.4 -1.9,0.1 -0.8,-0.3 -0.5,-0.6 0.6,-0.6 1.1,-0.1 1.7,0.2 1.3,0.5 z m 0.3,2.4 c 0,0.5 -0.7,1 -1.5,1 -0.8,0 -1.5,-0.5 -1.5,-1 0,-0.6 0.7,-1 1.5,-1 0.8,0 1.5,0.4 1.5,1 z m -0.7,10.6 c 0.9,1 -0.4,3.4 -1.8,3.4 -1.7,0 -2.8,-1.7 -2,-3 0.7,-1.1 2.8,-1.3 3.8,-0.4 z m 1468.2,144.3 c 0.7,3.3 2.6,4.4 6.1,3.5 1.4,-0.4 3.1,-0.1 4,0.7 2.2,1.8 16,2.1 17.5,0.3 0.9,-1.1 4.3,-2.1 13.6,-3.8 1.2,-0.3 3.3,-1.2 4.8,-2.2 2.4,-1.5 2.7,-1.5 4.4,0 0.9,0.9 2.4,1.6 3.2,1.6 2.2,0 -2.4,4 -9.8,8.5 -4.6,2.8 -6.9,4.9 -7.1,6.4 -0.2,1.3 -1.4,2.6 -2.8,3.2 -3,1.1 -2.9,4.3 0.1,4.5 5.4,0.3 5.6,0.8 2.3,4.5 -1.2,1.3 -2.9,3.3 -3.9,4.4 -1,1.2 -2.9,5.1 -4.3,8.7 -1.6,4.7 -3.6,7.8 -6.2,10.2 -4.4,4 -5.4,4.4 -5.4,1.8 0,-1 -0.9,-2.5 -2,-3.5 -1.1,-0.9 -2,-2.5 -2,-3.5 0,-6.3 -8.3,-15.5 -17.8,-19.8 -12.5,-5.7 -22.5,-4.3 -27.3,3.8 -4.7,7.8 2.6,7.2 -89.4,8.2 -2.2,0 -15.6,-0.5 -29.7,-1.1 -14.2,-0.7 -28.6,-1 -32,-0.8 -3.5,0.2 -16,0.7 -27.8,1.1 -11.8,0.3 -22.6,0.7 -24,0.8 -1.4,0 -11.7,-0.2 -23,-0.7 -11.3,-0.4 -43.3,-0.9 -71.2,-1.2 -28,-0.2 -51.3,-0.7 -52,-1.1 -0.6,-0.4 -8.8,-0.9 -18.2,-1 -9.4,-0.2 -28.6,-0.6 -42.6,-0.9 -14,-0.3 -53.2,-0.7 -87,-1 -61.7,-0.5 -95.5,-1 -128,-2 -9.6,-0.3 -29.4,-0.8 -44,-1.1 -21.7,-0.4 -53.9,-1.2 -63.5,-1.5 -1.1,-0.1 -3.6,0 -5.5,0.1 -1.9,0.1 -15,0 -29,-0.4 -14,-0.3 -44.4,-0.8 -67.5,-1.1 -23.1,-0.3 -42.6,-0.8 -43.4,-1.1 -0.8,-0.2 -59.1,-0.7 -129.5,-1 -289.6,-1.1 -333.2,-1.6 -335.1,-3.5 -1.8,-1.8 1.7,-2.9 8.7,-2.8 3.6,0.1 7.1,-0.1 7.6,-0.4 0.5,-0.4 15.5,-0.7 33.3,-0.7 35.5,-0.2 50.9,-0.8 50.9,-2.1 0,-0.4 -1.9,-0.8 -4.2,-0.9 -33.6,-0.9 -47.2,-1.3 -62.8,-2 -10.2,-0.5 -20.6,-0.9 -23.1,-0.9 -4.6,-0.1 -9.1,-2.3 -7.6,-3.8 0.5,-0.4 4.3,-0.9 8.5,-1 17.4,-0.4 90.2,-0.3 110.7,0.1 12.1,0.3 82.3,0.8 156,1.1 73.7,0.3 138.3,0.8 143.5,1 5.2,0.2 31.3,0.7 58,1.1 26.7,0.3 48.9,0.8 49.4,1.1 0.4,0.3 23.4,0.7 51,0.9 27.5,0.1 62.5,0.7 77.6,1.3 15.1,0.6 34.3,1 42.5,1.1 8.3,0 23.1,0.5 33,1 9.9,0.6 46.6,1.2 81.5,1.5 88.6,0.7 138.9,1.4 150,2 11.8,0.8 25,1.2 64,2 16.8,0.4 44.5,1.1 61.5,1.6 37.3,1.2 26.7,1.2 83,0.3 72.1,-1 112.4,-2.2 115.8,-3.3 1.8,-0.6 8.7,-1.3 15.4,-1.5 9.8,-0.4 13.1,-0.9 16.5,-2.6 2.4,-1.2 7,-2.4 10.3,-2.7 3.3,-0.3 7.9,-1.1 10.3,-1.9 2.3,-0.8 6.3,-1.4 8.9,-1.4 4.9,0 15,-4.8 18.7,-8.9 2.8,-3 5.3,-2.7 6.1,0.8 z m -181.2,0.5 c 1.6,1.3 1.6,1.4 -0.4,1.9 -3.2,0.8 -5.2,-0.2 -3.8,-1.9 1.4,-1.7 1.9,-1.7 4.2,0 z m 18.7,0.5 c 0,1.3 -6.7,3.4 -8.1,2.5 -0.9,-0.5 -0.7,-1.1 0.6,-2.1 2.1,-1.5 7.5,-1.8 7.5,-0.4 z m -38,1 c 0,1.2 -2.9,2.3 -4.1,1.5 -1.8,-1 -0.9,-2.4 1.6,-2.4 1.4,0 2.5,0.4 2.5,0.9 z m -1319.4,4.3 c 1.5,1.5 1.5,1.7 -0.8,3.2 -2,1.3 -5.2,1.7 -14.7,1.7 -6.7,0 -13.3,0.4 -14.7,0.9 -2.9,1.1 -3.4,4.5 -0.5,3.5 2.6,-0.8 7.1,0.4 7.1,2 0,1.7 -5.4,2.7 -8.4,1.5 -1.8,-0.7 -2.3,-1.4 -1.9,-3 0.4,-1.6 0.2,-1.9 -1.1,-1.4 -0.9,0.3 -1.6,1.5 -1.6,2.5 0,2.6 -2.8,3.1 -15.1,2.7 -9.9,-0.3 -48.6,0.5 -90.4,1.7 -10.4,0.4 -25.1,0.8 -32.6,1 -7.5,0.2 -19.9,0.6 -27.5,1 -7.7,0.4 -20.2,0.8 -27.9,1 -7.7,0.1 -26.8,0.8 -42.5,1.4 -15.7,0.7 -35.9,1.4 -45,1.5 -9.1,0.2 -19,0.6 -22,1 -8.7,1 -52,1.3 -52,0.4 0,-0.5 -0.8,-0.4 -1.8,0.1 -2.1,1.1 -19.2,1.8 -66.2,2.6 -19,0.4 -37.6,0.8 -41.5,1.1 -12.2,0.7 -53,1.5 -160.5,2.9 -20.6,0.2 -48.5,0.7 -62,1 -13.5,0.3 -36,0.7 -50,1 -14,0.2 -34.5,0.7 -45.5,1 -11,0.3 -42.5,0.8 -70,1.1 -51.3,0.7 -81.2,1.2 -97,1.9 -4.9,0.1 -10.7,-0.1 -12.9,-0.5 -2.2,-0.5 -4.9,-0.4 -6.3,0.1 -2.1,0.8 -21.2,1.1 -38.3,0.6 -2.5,0 -8.5,0.2 -13.5,0.6 -20.1,1.6 -25,1.7 -27.6,0.6 -2.1,-0.8 -3.3,-0.7 -5.9,0.6 -2,1 -6.5,1.8 -12.6,2 -5.2,0.2 -9.9,0.7 -10.5,1.1 -0.6,0.3 -2.2,0.1 -3.5,-0.6 -1.9,-1.1 -3.1,-1.1 -6.3,0 -2.2,0.7 -4.9,1 -6,0.7 -1.1,-0.3 -3.9,-0.1 -6.2,0.4 -5.7,1.3 -9.8,0.3 -11.1,-2.7 -1.8,-4 0.6,-5.3 11.3,-6.5 5.2,-0.6 12,-1.7 15.1,-2.5 3.2,-0.8 8,-1.4 10.6,-1.4 2.7,0 7.3,-0.4 10.1,-1 3.2,-0.6 6.8,-0.6 9.1,-0.1 2.6,0.6 6.2,0.4 10.5,-0.4 4.3,-0.8 8.3,-0.9 11.8,-0.3 2.8,0.4 6.8,0.6 8.7,0.3 1.9,-0.3 8,-0.7 13.5,-1 5.5,-0.3 16.8,-1 25,-1.5 17.9,-1.1 43,-2.3 46.5,-2.2 21,0.4 51.2,0.3 53.7,-0.2 1.9,-0.4 5.1,-0.2 8,0.7 4.3,1.3 5.4,1.3 8.9,-0.1 5,-1.9 43.5,-2.7 50.2,-1 3.4,0.8 4.9,0.8 7,-0.3 2.1,-1 10.2,-1.3 34.7,-1.4 17.6,-0.1 33.6,-0.5 35.5,-0.8 1.9,-0.4 18.6,-0.9 37,-1.2 18.4,-0.3 40.7,-0.7 49.5,-0.9 8.8,-0.2 31.5,-0.7 50.5,-1 19,-0.3 38.8,-0.8 44,-1.1 5.2,-0.3 26.2,-0.8 46.5,-1 20.4,-0.3 43.8,-1.2 52,-2 8.3,-0.7 27.6,-1.6 43,-2 15.4,-0.3 35.9,-0.7 45.5,-1 39.2,-1.1 66.3,-1.8 80,-2 8,-0.1 25.3,-0.8 38.5,-1.5 13.2,-0.6 31.2,-1.3 40,-1.5 8.8,-0.1 18.3,-0.5 21,-0.9 4.9,-0.6 16.5,-1 62,-2.1 12.1,-0.3 25.4,-0.8 29.5,-1 4.1,-0.3 25.7,-0.7 48,-1.1 22.3,-0.3 40.6,-0.7 40.7,-0.8 0.1,0 10.7,0.1 23.7,0.4 20.1,0.4 23.8,0.7 25.2,2.2 z m 143.4,0.2 c 0.9,1.2 0.5,1.6 -2.5,2.2 -3.8,0.7 -6.3,-0.5 -5.1,-2.5 1,-1.6 6.2,-1.3 7.6,0.3 z m -1307,36.1 c 3,0 6,0.4 6.7,0.8 0.6,0.4 1.3,0.1 1.6,-0.5 0.3,-0.9 0.9,-0.7 2,0.7 1.5,1.9 1.4,2 -3.6,2.7 -2.9,0.4 -7.8,1 -10.9,1.2 -3.1,0.2 -6.2,0.7 -6.8,1.1 -1.3,0.8 -9,-1.4 -9,-2.5 0,-0.4 1.9,-1.7 4.3,-2.9 3,-1.5 5.1,-1.9 7.2,-1.4 1.7,0.4 5.5,0.7 8.5,0.8 z m -22.3,1.1 c 0.9,2.4 -1.9,3.7 -3.4,1.7 -1.8,-2.4 -1.6,-3.3 0.7,-3.3 1.1,0 2.3,0.7 2.7,1.6 z m -412.9,0.9 c 2.3,0.8 1.2,3.4 -2,5.1 l -3.2,1.7 2.2,1.7 c 1.9,1.6 2,1.9 0.5,2.4 -0.9,0.4 -2.4,0 -3.3,-0.9 -1.5,-1.4 -2.1,-1.4 -6,0 -4.9,1.7 -8.6,1.9 -9.5,0.5 -0.3,-0.6 0.2,-1.3 1.2,-1.7 2.4,-0.9 7.3,-5.5 7.3,-6.8 0,-2.3 2.3,-3.2 6.8,-2.8 2.6,0.3 5.3,0.6 6,0.8 z m 400.1,-0.6 c 3.4,2.1 -6.9,5.6 -15.4,5.2 -1.6,-0.1 -4.9,0.4 -7.2,1 -3.3,0.9 -5,0.9 -7.2,-0.1 -2.4,-1 -4,-0.9 -7.9,0 -4.1,1.1 -5.6,1.1 -9.3,-0.2 -3.9,-1.3 -4.7,-1.2 -7.4,0.1 -2.7,1.5 -9.2,1.7 -24,0.9 -1.1,0 -4.2,0.5 -7,1.1 -10.8,2.5 -12.5,2.5 -14.5,0.3 -1.1,-1.2 -2,-2.5 -2,-3 0,-1.3 5.6,-2 7.4,-1 0.9,0.5 3.2,0.5 5.3,-0.1 6.1,-1.7 22.5,-3.1 26.7,-2.3 2.1,0.4 11.1,0.2 20,-0.5 8.8,-0.6 19.5,-0.9 23.6,-0.7 4.1,0.2 8.2,-0.1 9,-0.6 1.9,-1.2 8.1,-1.3 9.9,-0.1 z m -420.1,3.3 c -0.6,1.8 -2.8,2.1 -2.8,0.4 0,-0.9 0.7,-1.6 1.6,-1.6 0.9,0 1.4,0.5 1.2,1.2 z m -9.4,3.2 c 1.7,2.2 1.8,2.8 0.6,3.6 -1.7,1 -7,-1.5 -7,-3.3 0,-1.7 2.2,-3.8 3.4,-3.4 0.5,0.2 1.9,1.6 3,3.1 z m 318.2,-1.3 c 2.9,2.4 1.4,3.6 -4.8,4.2 -4.6,0.4 -7.2,0.1 -9.6,-1 -3,-1.4 -3.4,-1.4 -4.5,0.1 -2,2.7 -11.3,4.1 -26.2,3.9 -7.7,-0.1 -19.2,-0.1 -25.5,0 -36.3,0.5 -47.5,0.2 -47.5,-1.3 0,-1.2 1.6,-1.5 8,-1.5 13,-0.1 28.8,-1.6 31.6,-3 1.4,-0.8 5.7,-1.3 10,-1.3 23.5,0.1 36.8,0.4 37.4,1 0.3,0.3 1.9,0.1 3.6,-0.5 2.3,-0.9 3.4,-0.9 5.1,0.2 1.2,0.7 2.3,0.9 2.7,0.4 1.4,-2.2 4.9,-3 11.4,-2.7 3.9,0.2 7.6,0.9 8.3,1.5 z m -328.6,1.9 c 0,1 -3.1,2.2 -3.8,1.6 -0.2,-0.3 -0.2,-1.2 0.1,-2 0.6,-1.5 3.7,-1.2 3.7,0.4 z m 181,2.4 c 3,0 7.3,-0.1 9.5,-0.2 11.9,-0.6 17.8,1.3 13.9,4.3 -1.5,1.3 -4,1.5 -12.9,1.2 -6,-0.3 -15.3,-0.1 -20.5,0.4 -5.2,0.5 -15.1,1.1 -22,1.4 -6.9,0.2 -13.4,0.7 -14.6,1 -1.1,0.2 -2.9,-0.2 -4,-0.9 -1.4,-1.1 -1.6,-1.7 -0.6,-2.8 1.3,-1.6 16.5,-4.3 22.7,-4 10.3,0.4 15.2,0.3 17.5,-0.7 1.4,-0.5 3.2,-0.7 4,-0.3 0.8,0.4 4,0.6 7,0.6 z m -121.5,1.5 c 0,1.9 -4.5,3.1 -8.4,2.2 -3.1,-0.6 -3.1,-2.2 -0.1,-3.4 2.8,-1.1 8.5,-0.3 8.5,1.2 z m 31,-0.6 c 2.2,1.7 1.2,3.7 -1.9,3.7 -3.1,0 -4.8,-1.9 -3.3,-3.6 1.5,-1.7 2.9,-1.7 5.2,-0.1 z m -19.5,0.7 c 0,0.5 -0.4,1 -1,1 -0.5,0 -1,-0.5 -1,-1 0,-0.6 0.5,-1 1,-1 0.6,0 1,0.4 1,1 z m 11.8,1.2 c -0.6,1.8 -2.8,2.1 -2.8,0.4 0,-0.9 0.7,-1.6 1.6,-1.6 0.9,0 1.4,0.5 1.2,1.2 z m 20.2,0.8 c 0,0.5 -1.1,1 -2.5,1 -1.4,0 -2.5,-0.5 -2.5,-1 0,-0.6 1.1,-1 2.5,-1 1.4,0 2.5,0.4 2.5,1 z"
       id="path12066"
       inkscape:connector-curvature="0"
       style="fill:#000000;stroke:none" />
    <path
       d="m 2135.7,1605.6234 c -1,0.3 -1.6,1 -1.4,1.6 0.4,1.3 14.5,2.9 18.7,2.1 1.4,-0.2 8.1,-0.5 15,-0.5 11.2,-0.1 12.2,-0.3 9.5,-1.4 -3.1,-1.3 -8.1,-1.6 -27,-1.6 -5.5,0 -10.7,-0.1 -11.5,-0.3 -0.8,-0.2 -2.3,-0.1 -3.3,0.1 z"
       id="path12068"
       inkscape:connector-curvature="0"
       style="fill:#000000;stroke:none" />
    <path
       d="m 2192.5,1607.0234 c -1,1.6 0.2,2.3 4,2.3 1.9,0 3.7,-0.3 4.1,-0.6 1.3,-1.4 -0.8,-2.8 -4.1,-2.8 -1.9,0 -3.7,0.5 -4,1.1 z"
       id="path12070"
       inkscape:connector-curvature="0"
       style="fill:#000000;stroke:none" />
    <path
       d="m 2231.7,1606.5234 c -1.6,1.7 -0.4,2.4 3.9,2.4 3.2,0 4.4,-0.4 4.2,-1.3 -0.5,-1.3 -6.9,-2.2 -8.1,-1.1 z"
       id="path12072"
       inkscape:connector-curvature="0"
       style="fill:#000000;stroke:none" />
    <path
       d="m 2257,1607.4234 c 0,1.3 1.2,1.5 7,1.4 9.2,-0.2 8.9,-2.3 -0.3,-2.7 -5.6,-0.2 -6.7,0 -6.7,1.3 z"
       id="path12074"
       inkscape:connector-curvature="0"
       style="fill:#000000;stroke:none" />
    <path
       d="m 2414.5,1606.9234 c -0.3,0.6 0.1,1.3 1,1.6 1.9,0.8 3,0 2,-1.5 -0.8,-1.4 -2.2,-1.4 -3,-0.1 z"
       id="path12076"
       inkscape:connector-curvature="0"
       style="fill:#000000;stroke:none" />
    <path
       d="m 2220.5,1607.9234 c -0.3,0.5 0.1,1 1,1 0.9,0 1.3,-0.5 1,-1 -0.3,-0.6 -0.8,-1 -1,-1 -0.2,0 -0.7,0.4 -1,1 z"
       id="path12078"
       inkscape:connector-curvature="0"
       style="fill:#000000;stroke:none" />
    <path
       d="m 2569.3,1607.6234 c -1.8,0.7 -1.6,3.1 0.3,3.5 0.9,0.2 4.1,0.1 7,0 3.8,-0.3 5.4,-0.8 5.4,-1.8 0,-1 -1.3,-1.4 -4.4,-1.4 -2.4,0 -5,-0.2 -5.8,-0.4 -0.7,-0.3 -1.9,-0.2 -2.5,0.1 z"
       id="path12080"
       inkscape:connector-curvature="0"
       style="fill:#000000;stroke:none" />
    <path
       d="m 3366.3,1610.1234 c -4,1.1 -4.4,3.9 -0.8,5.8 3.6,1.9 8,0.3 8,-2.9 0,-3 -2.9,-4.1 -7.2,-2.9 z"
       id="path12082"
       inkscape:connector-curvature="0"
       style="fill:#000000;stroke:none" />
    <path
       d="m 3325.3,1616.9234 c -1.3,0.5 -2.3,1.4 -2.3,2 0,1.3 7.7,1.3 8.5,0 0.4,-0.6 1.9,-0.4 4.1,0.5 2.8,1.1 4.1,1.2 5.7,0.4 2,-1.1 2,-1.2 0.1,-2.6 -1.2,-0.9 -2.9,-1.1 -4.4,-0.7 -3.1,0.8 -3.8,0.8 -7,0.1 -1.4,-0.4 -3.5,-0.2 -4.7,0.3 z"
       id="path12084"
       inkscape:connector-curvature="0"
       style="fill:#000000;stroke:none" />
    <path
       d="m 3298.1,1619.3234 c -1,1.2 -0.8,1.7 0.8,2.6 1.6,0.8 2.8,0.7 5.3,-0.6 3,-1.6 3.1,-1.8 1.3,-2.5 -3.2,-1.2 -6.2,-1 -7.4,0.5 z"
       id="path12086"
       inkscape:connector-curvature="0"
       style="fill:#000000;stroke:none" />
    <path
       d="m 3311,1619.4234 c 0,0.9 0.9,1.5 2.5,1.5 1.6,0 2.5,-0.6 2.5,-1.5 0,-0.9 -0.9,-1.5 -2.5,-1.5 -1.6,0 -2.5,0.6 -2.5,1.5 z"
       id="path12088"
       inkscape:connector-curvature="0"
       style="fill:#000000;stroke:none" />
    <path
       d="m 1777.5,1605.8234 c -1.1,0.4 -3.8,0.6 -6.1,0.3 -2.6,-0.3 -4.4,0 -4.9,0.8 -1.6,2.5 1.3,3.1 11.8,2.4 10.2,-0.6 13.9,-1.5 12.4,-3 -1.1,-1.1 -10.9,-1.5 -13.2,-0.5 z"
       id="path12090"
       inkscape:connector-curvature="0"
       style="fill:#000000;stroke:none" />
    <path
       d="m 1798.3,1605.5234 c -0.7,0.3 -1.3,1.1 -1.3,1.7 0,1.7 27.4,1.7 29.1,-0.1 0.7,-0.6 1.1,-1.2 0.9,-1.3 -2.8,-0.4 -27.8,-0.7 -28.7,-0.3 z"
       id="path12092"
       inkscape:connector-curvature="0"
       style="fill:#000000;stroke:none" />
    <path
       d="m 1836.3,1605.7234 c -1.8,0.2 -3.3,0.7 -3.3,1.3 0,1.2 7.7,1.2 8.4,0 0.8,-1.2 -1.2,-1.7 -5.1,-1.3 z"
       id="path12094"
       inkscape:connector-curvature="0"
       style="fill:#000000;stroke:none" />
    <path
       d="m 1755,1606.8234 -3.5,0.6 3.4,1.3 c 6.3,2.2 13,0.8 8.2,-1.7 -2.1,-1.2 -2.7,-1.2 -8.1,-0.2 z"
       id="path12096"
       inkscape:connector-curvature="0"
       style="fill:#000000;stroke:none" />
    <path
       d="m 1735.8,1607.6234 c -4.3,0.3 -5.8,0.8 -5.8,1.9 0,1.2 1.4,1.4 8.1,1 4.5,-0.3 8.3,-0.7 8.6,-1 1,-1 -0.9,-2.6 -3,-2.4 -1.2,0.1 -4.8,0.3 -7.9,0.5 z"
       id="path12098"
       inkscape:connector-curvature="0"
       style="fill:#000000;stroke:none" />
    <path
       d="m 1748,1607.3234 c 0,0.2 0.7,0.6 1.5,1 0.8,0.3 1.5,0.1 1.5,-0.4 0,-0.6 -0.7,-1 -1.5,-1 -0.8,0 -1.5,0.2 -1.5,0.4 z"
       id="path12100"
       inkscape:connector-curvature="0"
       style="fill:#000000;stroke:none" />
    <path
       d="m 1689.5,1609.3234 -3,1.4 2.4,0.9 c 3.5,1.4 13.7,-0.4 12,-2.2 -1.3,-1.3 -8.7,-1.4 -11.4,-0.1 z"
       id="path12102"
       inkscape:connector-curvature="0"
       style="fill:#000000;stroke:none" />
    <path
       d="m 1705.8,1608.6234 c -3.1,0.8 -1.9,2.4 1.5,2.1 1.7,-0.2 3.1,-0.8 3,-1.3 -0.2,-1.2 -2.1,-1.5 -4.5,-0.8 z"
       id="path12104"
       inkscape:connector-curvature="0"
       style="fill:#000000;stroke:none" />
    <path
       d="m 1717.2,1609.0234 c 0.2,0.6 0.7,1 1.1,1 0.4,-0.1 1.6,-0.1 2.7,-0.1 1.1,0 2,-0.5 2,-1 0,-0.6 -1.4,-1 -3.1,-1 -1.7,0 -2.9,0.5 -2.7,1.1 z"
       id="path12106"
       inkscape:connector-curvature="0"
       style="fill:#000000;stroke:none" />
    <path
       d="m 1637,1611.6234 c 0,1.4 1,1.6 8,1.3 10.8,-0.3 10.8,-2.6 0,-2.5 -5.7,0 -8,0.4 -8,1.2 z"
       id="path12108"
       inkscape:connector-curvature="0"
       style="fill:#000000;stroke:none" />
    <path
       d="m 1656,1611.0234 c 0,0.5 0.5,0.7 1,0.4 0.6,-0.3 1,-0.8 1,-1.1 0,-0.2 -0.4,-0.4 -1,-0.4 -0.5,0 -1,0.5 -1,1.1 z"
       id="path12110"
       inkscape:connector-curvature="0"
       style="fill:#000000;stroke:none" />
    <path
       d="m 1665,1610.9234 c 0,0.5 0.5,1 1,1 0.6,0 1,-0.5 1,-1 0,-0.6 -0.4,-1 -1,-1 -0.5,0 -1,0.4 -1,1 z"
       id="path12112"
       inkscape:connector-curvature="0"
       style="fill:#000000;stroke:none" />
    <path
       d="m 1669,1610.9234 c 0,0.5 1.8,1 3.9,1 2.2,0 4.3,-0.5 4.6,-1 0.4,-0.6 -1.2,-1 -3.9,-1 -2.5,0 -4.6,0.4 -4.6,1 z"
       id="path12114"
       inkscape:connector-curvature="0"
       style="fill:#000000;stroke:none" />
    <path
       d="m 1603,1613.4234 c 0.7,0.8 2.5,1.5 4.1,1.5 1.9,0 2.9,-0.5 2.9,-1.5 0,-1.1 -1.1,-1.5 -4.1,-1.5 -3.6,0 -4,0.2 -2.9,1.5 z"
       id="path12116"
       inkscape:connector-curvature="0"
       style="fill:#000000;stroke:none" />
    <path
       d="m 1568.5,1613.7234 c -1.3,1.3 -0.2,2.1 2.5,2 1.7,-0.1 2.9,-0.6 2.7,-1.1 -0.3,-1.1 -4.3,-1.7 -5.2,-0.9 z"
       id="path12118"
       inkscape:connector-curvature="0"
       style="fill:#000000;stroke:none" />
    <path
       d="m 1581.5,1613.8234 c -0.3,0.5 -0.1,1.3 0.5,1.6 1.5,0.9 7.1,-0.5 6.4,-1.6 -0.7,-1.2 -6.1,-1.2 -6.9,0 z"
       id="path12120"
       inkscape:connector-curvature="0"
       style="fill:#000000;stroke:none" />
    <path
       d="m 1536.3,1614.7234 c -3.4,0.5 -2.8,2 1,2.7 5.3,1 23,-0.8 23.5,-2.3 0.3,-1.1 -1.8,-1.3 -10.9,-1 -6.3,0.2 -12.4,0.4 -13.6,0.6 z"
       id="path12122"
       inkscape:connector-curvature="0"
       style="fill:#000000;stroke:none" />
    <path
       d="m 1562,1614.9234 c 0,0.5 0.5,1 1,1 0.6,0 1,-0.5 1,-1 0,-0.6 -0.4,-1 -1,-1 -0.5,0 -1,0.4 -1,1 z"
       id="path12124"
       inkscape:connector-curvature="0"
       style="fill:#000000;stroke:none" />
    <path
       d="m 1480.5,1616.3234 c -1.8,1.3 -1.8,1.4 0.1,2.3 1.8,1 8.6,1 22.4,0.1 4.1,-0.2 5.5,-0.7 5.5,-1.8 0,-2.1 -25.2,-2.7 -28,-0.6 z"
       id="path12126"
       inkscape:connector-curvature="0"
       style="fill:#000000;stroke:none" />
    <path
       d="m 1515.7,1615.5234 c -1.4,1.4 -0.6,2.4 1.9,2.4 1.6,0 2.4,-0.5 2.2,-1.3 -0.5,-1.4 -3.1,-2.1 -4.1,-1.1 z"
       id="path12128"
       inkscape:connector-curvature="0"
       style="fill:#000000;stroke:none" />
    <path
       d="m 1525,1615.9234 c 0,0.5 0.9,1 2,1 1.1,0 2,-0.5 2,-1 0,-0.6 -0.9,-1 -2,-1 -1.1,0 -2,0.4 -2,1 z"
       id="path12130"
       inkscape:connector-curvature="0"
       style="fill:#000000;stroke:none" />
    <path
       d="m 1436.6,1617.1234 c -0.9,0.5 -2.4,0.7 -3.4,0.4 -2.1,-0.7 -4.9,0.8 -3.3,1.8 1.2,0.8 16.9,0.9 27.9,0.3 6.6,-0.4 9.2,-1.1 8.1,-2.1 -1,-0.9 -27.8,-1.3 -29.3,-0.4 z"
       id="path12132"
       inkscape:connector-curvature="0"
       style="fill:#000000;stroke:none" />
    <path
       d="m 1405,1617.9234 c -2.2,1.4 -1.2,1.7 8.2,2.7 6.4,0.6 9.4,0.6 11,-0.3 2.1,-1.1 2.1,-1.2 0.2,-2.1 -2.4,-1.3 -17.5,-1.5 -19.4,-0.3 z"
       id="path12134"
       inkscape:connector-curvature="0"
       style="fill:#000000;stroke:none" />
    <path
       d="m 1373,1618.9234 c 0,0.5 1.6,1.2 3.5,1.5 1.9,0.3 5.1,0.8 7.1,1.1 5.4,0.8 14.4,-0.6 14.4,-2.2 0,-1.1 -2.5,-1.4 -12.5,-1.4 -7.3,0 -12.5,0.4 -12.5,1 z"
       id="path12136"
       inkscape:connector-curvature="0"
       style="fill:#000000;stroke:none" />
    <path
       d="m 1193.8,1620.7234 c -1,0.2 -1.8,0.7 -1.8,1.2 0,1.3 4.1,2.3 5.1,1.3 1.3,-1.3 -1.1,-3.1 -3.3,-2.5 z"
       id="path12138"
       inkscape:connector-curvature="0"
       style="fill:#000000;stroke:none" />
    <path
       d="m 1292,1620.9234 c 0,0.5 0.7,1 1.5,1 0.8,0 1.5,-0.5 1.5,-1 0,-0.6 -0.7,-1 -1.5,-1 -0.8,0 -1.5,0.4 -1.5,1 z"
       id="path12140"
       inkscape:connector-curvature="0"
       style="fill:#000000;stroke:none" />
    <path
       d="m 1357.5,1620.9234 c -0.3,0.5 0.1,1 0.9,1 0.9,0 1.6,-0.5 1.6,-1 0,-0.6 -0.4,-1 -0.9,-1 -0.6,0 -1.3,0.4 -1.6,1 z"
       id="path12142"
       inkscape:connector-curvature="0"
       style="fill:#000000;stroke:none" />
    <path
       d="m 1273.5,1621.9234 c -0.3,0.5 0.1,1 1,1 0.9,0 1.3,-0.5 1,-1 -0.3,-0.6 -0.8,-1 -1,-1 -0.2,0 -0.7,0.4 -1,1 z"
       id="path12144"
       inkscape:connector-curvature="0"
       style="fill:#000000;stroke:none" />
    <path
       d="m 1145.3,1623.4234 c -0.8,2.3 0.3,2.9 2.6,1.3 2.1,-1.5 1.8,-2.8 -0.6,-2.8 -0.7,0 -1.6,0.7 -2,1.5 z"
       id="path12146"
       inkscape:connector-curvature="0"
       style="fill:#000000;stroke:none" />
    <path
       d="m 1210.5,1622.9234 c 0.3,0.5 0.8,1 1.1,1 0.2,0 0.4,-0.5 0.4,-1 0,-0.6 -0.5,-1 -1.1,-1 -0.5,0 -0.7,0.4 -0.4,1 z"
       id="path12148"
       inkscape:connector-curvature="0"
       style="fill:#000000;stroke:none" />
    <path
       d="m 1213.5,1622.8234 c -0.3,0.5 -0.1,1.2 0.5,1.6 0.5,0.3 1,-0.1 1,-0.9 0,-1.8 -0.6,-2.1 -1.5,-0.7 z"
       id="path12150"
       inkscape:connector-curvature="0"
       style="fill:#000000;stroke:none" />
    <path
       d="m 1110.8,1623.6234 c -2.4,0.6 -2.3,2.3 0.2,2.3 1.1,0 2,-0.7 2,-1.5 0,-0.8 -0.1,-1.4 -0.2,-1.4 -0.2,0.1 -1.1,0.3 -2,0.6 z"
       id="path12152"
       inkscape:connector-curvature="0"
       style="fill:#000000;stroke:none" />
    <path
       d="m 1115.8,1623.6234 c 0.7,0.3 1.6,0.2 1.9,-0.1 0.4,-0.3 -0.2,-0.6 -1.3,-0.5 -1.1,0 -1.4,0.3 -0.6,0.6 z"
       id="path12154"
       inkscape:connector-curvature="0"
       style="fill:#000000;stroke:none" />
    <path
       d="m 1133,1623.9234 c 0,0.5 0.5,1 1,1 0.6,0 1,-0.5 1,-1 0,-0.6 -0.4,-1 -1,-1 -0.5,0 -1,0.4 -1,1 z"
       id="path12156"
       inkscape:connector-curvature="0"
       style="fill:#000000;stroke:none" />
    <path
       d="m 1105,1624.9234 c 0,0.5 0.7,1 1.5,1 0.8,0 1.5,-0.5 1.5,-1 0,-0.6 -0.7,-1 -1.5,-1 -0.8,0 -1.5,0.4 -1.5,1 z"
       id="path12158"
       inkscape:connector-curvature="0"
       style="fill:#000000;stroke:none" />
    <path
       d="m 970.4,1626.0234 c -1.1,1.9 1.2,3.1 4.5,2.4 3.6,-0.8 4,-2 0.9,-2.9 -3.3,-0.8 -4.6,-0.7 -5.4,0.5 z"
       id="path12160"
       inkscape:connector-curvature="0"
       style="fill:#000000;stroke:none" />
    <path
       d="m 1022,1625.9234 c 0,0.5 1,1 2.3,1 1.8,0 1.9,-0.2 0.7,-1 -1.9,-1.3 -3,-1.3 -3,0 z"
       id="path12162"
       inkscape:connector-curvature="0"
       style="fill:#000000;stroke:none" />
    <path
       d="m 939.5,1627.9234 c 0.3,0.5 1,1 1.6,1 0.5,0 0.9,-0.5 0.9,-1 0,-0.6 -0.7,-1 -1.6,-1 -0.8,0 -1.2,0.4 -0.9,1 z"
       id="path12164"
       inkscape:connector-curvature="0"
       style="fill:#000000;stroke:none" />
    <path
       d="m 883,1630.9234 c -1.2,0.8 -1,1 0.8,1 1.3,0 2,-0.4 1.7,-1 -0.7,-1.2 -0.6,-1.2 -2.5,0 z"
       id="path12166"
       inkscape:connector-curvature="0"
       style="fill:#000000;stroke:none" />
    <path
       d="m 3588.4,1084.2234 c -3,1.5 -2.7,5 0.4,6.5 3.1,1.4 5.9,1.6 6.7,0.2 0.6,-0.9 -3.5,-8.1 -4.5,-7.9 -0.3,0.1 -1.5,0.6 -2.6,1.2 z"
       id="path12168"
       inkscape:connector-curvature="0"
       style="fill:#000000;stroke:none" />
    <path
       d="m 1650.7,1087.7234 c -1.4,1.6 -1.4,1.8 0.8,2.8 1.9,0.9 2.8,0.9 4.2,-0.2 1.7,-1.3 1.7,-1.5 -0.1,-2.9 -2.5,-1.9 -2.9,-1.9 -4.9,0.3 z"
       id="path12170"
       inkscape:connector-curvature="0"
       style="fill:#000000;stroke:none" />
    <path
       d="m 3603.2,1089.2234 c -1.8,2.1 -0.5,2.7 7.2,3.2 10.2,0.7 9.7,-2.9 -0.5,-4.1 -4.3,-0.5 -5.7,-0.3 -6.7,0.9 z"
       id="path12172"
       inkscape:connector-curvature="0"
       style="fill:#000000;stroke:none" />
    <path
       d="m 3623.3,1090.5234 c -2.3,1.6 -0.8,3.2 3.4,3.7 1.7,0.2 3.8,1.1 4.8,2 0.9,0.9 2.4,1.7 3.4,1.7 1,0 2.6,0.8 3.5,1.9 0.9,1 3.1,2.1 4.7,2.5 3.1,0.6 6.8,4 6.9,6.3 0,1.7 4.9,5.3 7.2,5.3 2.7,0 2.9,-1.4 1.9,-11.9 -1.2,-13 -1,-12.9 -19.5,-12.9 -10.4,0 -15.1,0.4 -16.3,1.4 z"
       id="path12174"
       inkscape:connector-curvature="0"
       style="fill:#000000;stroke:none" />
    <path
       d="m 3556.4,1097.9234 c -2.8,1.1 -3.6,2.4 -2.8,4.5 0.6,1.4 1.5,1.6 4.8,1.2 4.9,-0.7 6.1,-0.1 8.4,4 0.9,1.7 3,4.9 4.6,7.2 3.1,4.4 2.9,7.1 -0.5,7.1 -1.1,0 -3.3,0.7 -4.7,1.5 -1.5,0.8 -3.9,1.9 -5.4,2.5 -1.6,0.5 -2.8,1.6 -2.8,2.5 0,0.9 -1.1,2 -2.5,2.5 -1.7,0.7 -2.5,1.7 -2.5,3.4 0,1.5 -0.8,3 -2.1,3.7 -1.6,0.8 -2,1.7 -1.6,3.9 0.4,1.6 0,3.5 -0.8,4.6 -2.1,2.7 -1.8,3.9 1.5,7.7 1.7,1.9 3,4.1 3,4.9 0,0.8 0.7,2.3 1.5,3.4 2,2.6 1.9,4.8 -0.4,6.8 -1,1 -2.2,3.3 -2.6,5.2 -0.3,2 -0.9,4.2 -1.1,4.9 -0.3,0.8 0.6,2.6 2,4 2.1,2.1 2.9,2.4 4.6,1.5 1.1,-0.6 2,-2.1 2,-3.5 0,-1.8 0.8,-2.6 3.4,-3.5 4.8,-1.6 9.2,-8.9 7.8,-12.9 -0.6,-1.7 -0.6,-3.4 -0.1,-4.2 0.5,-0.8 0.9,-2.6 0.9,-4.1 0,-1.6 1.3,-4.2 3.1,-6.2 3.6,-4.1 4.9,-8.2 4.9,-15.2 0,-4.3 0.5,-5.6 3,-8.2 2.1,-2.3 3,-4.2 3,-6.6 0,-3.6 -1.1,-4.9 -6.3,-7.5 -2.6,-1.3 -3.2,-2.1 -3,-4.5 0.3,-3.7 -0.7,-4.9 -7.2,-8.6 -5.3,-3.1 -8.3,-3.6 -12.1,-2 z m 16.4,29.9 c 1,0.6 1,1 -0.3,2.1 -1.8,1.5 -4.2,0 -3.1,-1.9 0.8,-1.3 1.6,-1.4 3.4,-0.2 z m -4.3,9.1 c 2.3,2.6 1.4,6.1 -2.4,8.3 -6.2,3.7 -8.4,1.4 -5.2,-5.7 2.2,-5.1 4.6,-5.9 7.6,-2.6 z"
       id="path12178"
       inkscape:connector-curvature="0"
       style="fill:#000000;stroke:none" />
    <path
       d="m 3597.5,1103.9234 c -0.7,1.1 0.2,3 1.3,3 0.4,0 1.4,-0.5 2.2,-1 1.3,-0.9 1.3,-1.1 0,-2 -1.9,-1.2 -2.7,-1.2 -3.5,0 z"
       id="path12180"
       inkscape:connector-curvature="0"
       style="fill:#000000;stroke:none" />
    <path
       d="m 1641.8,1110.6234 c 0.7,0.3 1.6,0.2 1.9,-0.1 0.4,-0.3 -0.2,-0.6 -1.3,-0.5 -1.1,0 -1.4,0.3 -0.6,0.6 z"
       id="path12182"
       inkscape:connector-curvature="0"
       style="fill:#000000;stroke:none" />
    <path
       d="m 3672,1126.0234 c 0,0.5 0.5,3 1.1,5.5 0.9,3.4 1.6,4.4 3.1,4.4 1.7,0 1.9,-0.4 1.3,-2.3 -0.4,-1.2 -0.9,-3.7 -1.2,-5.5 -0.4,-2.3 -1,-3.2 -2.4,-3.2 -1,0 -1.9,0.5 -1.9,1.1 z"
       id="path12184"
       inkscape:connector-curvature="0"
       style="fill:#000000;stroke:none" />
    <path
       d="m 3515.5,1131.8234 c -1.1,1.9 5.6,6.7 8.1,5.7 2.3,-0.9 1.6,-2.5 -1.8,-4.6 -3.6,-2.2 -5.4,-2.5 -6.3,-1.1 z"
       id="path12186"
       inkscape:connector-curvature="0"
       style="fill:#000000;stroke:none" />
    <path
       d="m 1897.7,1141.6234 c -0.4,0.3 -0.7,1.6 -0.7,2.8 0,1.1 -0.5,2.6 -1.1,3.2 -1.7,1.7 -0.1,5 2.7,5.7 4.6,1.2 5.4,-1.1 3.2,-8.4 -1.2,-3.8 -2.6,-4.9 -4.1,-3.3 z"
       id="path12190"
       inkscape:connector-curvature="0"
       style="fill:#000000;stroke:none" />
    <path
       d="m 125.4,1152.8234 c -2.3,1 -4.3,2.5 -4.7,3.3 -0.6,1.8 3.6,18.3 5.2,20.2 0.7,0.8 1.2,6.8 1.3,15.5 l 0.1,14.1 -2.8,3 -2.9,3 2.2,2.3 2.2,2.3 -2.2,2.1 c -1.8,1.9 -1.9,2.5 -1,5 0.7,1.5 1.6,7.7 2.2,13.8 1.2,14 2.7,24.3 3.9,27.5 0.5,1.4 1.2,5.4 1.6,9 0.7,7.4 1,9.8 2.5,19.5 0.6,3.8 1.5,10.1 2,14 0.6,3.8 1.2,7.6 1.4,8.5 2.6,8.8 5,51.9 4.9,88.5 -0.1,42.7 -0.3,52.4 -1.5,57.5 -1.2,5.2 -2,12.9 -1.9,17.9 0.1,1.9 -0.3,4.9 -0.8,6.5 -0.6,1.7 -1.3,7.4 -1.7,12.6 -0.3,5.2 -1,14.2 -1.4,20 -0.4,5.8 -1.3,16.2 -2,23.1 -0.8,6.9 -1.1,13.3 -0.7,14.2 0.9,2.4 3.3,2.1 7.4,-1.1 2,-1.5 5.5,-3.2 7.7,-3.7 2.7,-0.7 4.5,-1.8 5.3,-3.5 2.7,-5.5 10.5,-8.2 11.8,-4 0.4,1.3 1.9,2.3 3.7,2.7 3.3,0.6 6.8,5.3 6.8,8.9 0,2.8 5.6,11.1 9.6,14.1 5.1,3.8 6.1,2.1 7.9,-14.2 7,-64.5 9.3,-92.8 9.8,-117.5 0.4,-16.9 -0.6,-53.1 -1.7,-64 -0.3,-2.5 -1,-10.8 -1.6,-18.5 -1.6,-19.3 -6.8,-53.5 -9.9,-65.1 -0.6,-2.2 -1.7,-7.6 -2.5,-12 -0.9,-4.3 -2.2,-10.8 -3,-14.4 -0.7,-3.6 -1.7,-9.2 -2,-12.5 -0.4,-3.3 -1.1,-8.9 -1.6,-12.5 -1,-6.8 -3.1,-36.7 -3.6,-50.5 -0.6,-18.6 -1.4,-28.6 -2.4,-30.5 -2,-3.8 -8.1,-2 -9.8,2.9 -1.1,3.2 -7.8,8.1 -11.1,8.1 -3.3,0 -6.3,-4.8 -5.6,-9 0.8,-4.6 -1.1,-6.4 -8.3,-7.9 -7,-1.5 -8,-1.4 -12.8,0.8 z m 46.8,177.1 c 0.4,1.9 1,9.1 1.3,16 0.4,10.1 0.2,13 -0.9,14.5 -2.8,3.8 -3.8,0.4 -4.1,-13.3 -0.2,-7.2 -0.6,-14.9 -1,-17.2 -0.7,-3.9 -0.6,-4.1 1.6,-3.8 1.7,0.2 2.5,1.2 3.1,3.8 z m 1.2,35.2 c 0.3,0.7 0.7,4.1 1,7.5 0.4,4.9 0.3,6.3 -0.8,6.3 -0.7,0 -1.9,-0.6 -2.5,-1.4 -1.2,-1.5 -2.5,-11.2 -1.6,-12.7 0.9,-1.3 3.5,-1.1 3.9,0.3 z m 0.3,20.4 c -0.3,0.3 -1.2,0.4 -1.9,0.1 -0.8,-0.3 -0.5,-0.6 0.6,-0.6 1.1,-0.1 1.7,0.2 1.3,0.5 z m 2.3,15.9 c 0,2 -0.5,2.5 -2.5,2.5 -2,0 -2.5,-0.5 -2.5,-2.5 0,-2 0.5,-2.5 2.5,-2.5 2,0 2.5,0.5 2.5,2.5 z m -2.3,24.5 c 0,3 -0.1,7.9 -0.4,10.7 -0.4,4.4 -0.8,5.3 -2.4,5.3 -1.6,0 -1.9,-0.8 -2,-4.8 -0.2,-6.3 -0.1,-6.9 0.6,-12.5 0.5,-3.8 1,-4.7 2.3,-4.5 1.3,0.3 1.7,1.6 1.9,5.8 z m 2,89.2 c -1,12.5 -1.8,15.8 -3.7,15.8 -1,0 -2,-1 -2.4,-2.3 -1,-3.6 -0.7,-7.7 0.5,-7.7 0.8,0 1,-1.4 0.6,-4.1 -0.7,-5 0.9,-8.9 3.6,-8.9 1.8,0 1.9,0.5 1.4,7.2 z m -14.8,9.4 c 1.1,3 1.1,3.8 0,4.5 -1.8,1.1 -2.5,0.2 -3.3,-4.4 -0.9,-5 1.5,-5.1 3.3,-0.1 z"
       id="path12192"
       inkscape:connector-curvature="0"
       style="fill:#000000;stroke:none" />
    <path
       d="m 251.8,1153.1234 c -3,1 -3.6,2.5 -1.4,3.4 1.9,0.7 8.9,-2.3 8.1,-3.6 -0.8,-1.2 -3.1,-1.2 -6.7,0.2 z"
       id="path12194"
       inkscape:connector-curvature="0"
       style="fill:#000000;stroke:none" />
    <path
       d="m 3526.3,1175.1234 c -1.3,2.1 -4.3,11.1 -4.3,13 0,2.5 4.8,2.4 7.5,-0.2 1.2,-1.2 4.4,-2.6 7,-3.3 5.8,-1.4 8,-4.1 5.1,-6.2 -1.1,-0.8 -2.9,-1.2 -4.3,-0.9 -1.4,0.4 -3.6,-0.2 -5.8,-1.5 -4.2,-2.5 -4.2,-2.5 -5.2,-0.9 z"
       id="path12196"
       inkscape:connector-curvature="0"
       style="fill:#000000;stroke:none" />
    <path
       d="m 2024.5,1627.0234 c -1,1.6 2.6,3.8 6.2,3.9 4.6,0 5,-1.8 0.9,-3.5 -4.2,-1.8 -6.2,-1.9 -7.1,-0.4 z"
       id="path12212"
       inkscape:connector-curvature="0"
       style="fill:#000000;stroke:none" />
  </g>
</svg>
