<?xml version="1.0" encoding="UTF-8" standalone="no"?>
<svg
   xmlns:dc="http://purl.org/dc/elements/1.1/"
   xmlns:cc="http://creativecommons.org/ns#"
   xmlns:rdf="http://www.w3.org/1999/02/22-rdf-syntax-ns#"
   xmlns:svg="http://www.w3.org/2000/svg"
   xmlns="http://www.w3.org/2000/svg"
   xmlns:sodipodi="http://sodipodi.sourceforge.net/DTD/sodipodi-0.dtd"
   xmlns:inkscape="http://www.inkscape.org/namespaces/inkscape"
   version="1.0"
   width="3458.1152pt"
   height="1890.5934pt"
   viewBox="0 0 3458.1152 1890.5935"
   preserveAspectRatio="xMidYMid meet"
   id="svg10987"
   inkscape:version="0.91 r13725"
   sodipodi:docname="plugs-xy.svg"
   inkscape:export-filename="/home/churchyard/RepRap/BI-3DT/powerplugs-task/pics/plugs-xy.svg.png"
   inkscape:export-xdpi="21.326637"
   inkscape:export-ydpi="21.326637">
  <defs
     id="defs11043" />
  <sodipodi:namedview
     pagecolor="#ffffff"
     bordercolor="#666666"
     borderopacity="1"
     objecttolerance="10"
     gridtolerance="10"
     guidetolerance="10"
     inkscape:pageopacity="0"
     inkscape:pageshadow="2"
     inkscape:window-width="1848"
     inkscape:window-height="1056"
     id="namedview11041"
     showgrid="false"
     inkscape:zoom="0.188311"
     inkscape:cx="2966.4581"
     inkscape:cy="1355.4021"
     inkscape:window-x="72"
     inkscape:window-y="0"
     inkscape:window-maximized="1"
     inkscape:current-layer="svg10987"
     fit-margin-top="0"
     fit-margin-left="0"
     fit-margin-right="0"
     fit-margin-bottom="0" />
  <metadata
     id="metadata10989">
Created by potrace 1.13, written by Peter Selinger 2001-2015
<rdf:RDF>
  <cc:Work
     rdf:about="">
    <dc:format>image/svg+xml</dc:format>
    <dc:type
       rdf:resource="http://purl.org/dc/dcmitype/StillImage" />
    <dc:title></dc:title>
  </cc:Work>
</rdf:RDF>
</metadata>
  <path
     style="opacity:1;fill:#999999;fill-opacity:1;stroke:none;stroke-width:1.75393701;stroke-linecap:round;stroke-linejoin:round;stroke-miterlimit:4;stroke-dasharray:none;stroke-opacity:1"
     d="m 1801.8019,952.75501 c -236.139,4.86348 -472.0596,19.72333 -707.5646,36.84065 -23.0638,-0.95468 -45.099,14.07394 -41.3731,39.52694 -3.5959,86.5607 -6.2347,174.5825 -2.9044,260.4072 69.4898,3.6179 142.6201,-7.8686 213.4498,-11.2492 220.3711,-16.5615 440.4991,-34.8558 661.0907,-47.9865 15.4798,-19.4857 3.2307,-53.6379 6.6172,-79.1265 -3.0251,-65.7963 -5.3421,-133.4703 -18.3373,-197.3443 -36.5879,-2.65045 -74.0967,-0.55924 -110.9783,-1.06829 z"
     id="path11624"
     inkscape:connector-curvature="0"
     transform="matrix(0.80000008,0,0,0.80000008,-1.9531252e-4,0)" />
  <path
     style="opacity:1;fill:#999999;fill-opacity:1;stroke:none;stroke-width:1.75393701;stroke-linecap:round;stroke-linejoin:round;stroke-miterlimit:4;stroke-dasharray:none;stroke-opacity:1"
     d="m 2430.632,942.6425 c -162.2152,1.93591 -324.9254,-0.82133 -486.7592,10.11251 -14.8783,17.79832 -0.1118,47.06515 -1.717,69.01499 10.7565,65.9578 3.2295,134.2236 15.2833,200.1541 23.1623,13.719 58.0164,-1.4113 85.6592,1.844 254.669,0.1569 509.7952,4.3331 763.9691,17.2915 23.0371,-1.8467 51.6461,11.5398 71.9999,-0.2796 -2.4539,-80.2515 -38.7489,-157.9915 -85.4429,-222.5167 -36.388,-54.93496 -103.6133,-76.35779 -166.8927,-74.16875 -65.3392,-2.11693 -130.7373,-1.41209 -196.0997,-1.45205 z"
     id="path11626"
     inkscape:connector-curvature="0"
     transform="matrix(0.80000008,0,0,0.80000008,-1.9531252e-4,0)" />
  <path
     style="opacity:1;fill:#999999;fill-opacity:1;stroke:none;stroke-width:1.75393701;stroke-linecap:round;stroke-linejoin:round;stroke-miterlimit:4;stroke-dasharray:none;stroke-opacity:1"
     d="m 2030.0521,1238.4256 c -22.4425,1.8441 -46.6069,-2.9484 -68.1531,3.7857 -7.8444,51.4968 1.0533,106.3579 0.2148,158.9982 1.9064,36.9913 1.2338,74.3713 5.749,111.1044 23.2302,13.608 55.8776,3.1217 82.3285,7.3688 240.585,-1.4784 480.993,11.0889 721.5693,8.0022 72.9885,-60.7977 106.647,-159.1101 114.1521,-251.5681 -9.718,-24.4954 -38.1201,-0.856 -41.0723,16.3148 -8.0152,10.8674 0.8586,-14.8704 4.9059,-20.8992 -7.11,-22.1495 -40.394,-12.5267 -58.1947,-17.459 -253.5667,-11.9825 -507.6748,-14.3061 -761.4995,-15.6478 z"
     id="path11628"
     inkscape:connector-curvature="0"
     transform="matrix(0.80000008,0,0,0.80000008,-1.9531252e-4,0)" />
  <path
     style="opacity:1;fill:#999999;fill-opacity:1;stroke:none;stroke-width:1.75393701;stroke-linecap:round;stroke-linejoin:round;stroke-miterlimit:4;stroke-dasharray:none;stroke-opacity:1"
     d="m 1902.3856,1246.1941 c -232.7598,15.1114 -465.3005,32.899 -698.0018,49.4632 -51.7194,4.7835 -103.5813,8.7821 -155.0792,15.4954 -13.8552,17.4101 3.6915,44.0592 2.9663,64.8238 8.1644,52.3559 5.9067,105.7024 6.0572,158.1285 18.0241,24.8746 56.4852,12.5201 82.5492,16.6572 185.5455,-6.0263 370.6712,-21.4002 556.4523,-22.6263 82.0558,-3.4272 165.8861,0.6075 246.7921,-7.3586 0.083,-88.4661 -2.3712,-178.2826 -9.1687,-266.8769 -5.4493,-11.6642 -22.6843,-6.5363 -32.5674,-7.7063 z"
     id="path11630"
     inkscape:connector-curvature="0"
     transform="matrix(0.80000008,0,0,0.80000008,-1.9531252e-4,0)" />
  <g
     id="g11609"
     transform="translate(0.02282358,0.01288747)">
    <path
       d="m 1516.4533,2.14 c -9.2,4.8 -11.1,12.4 -6.5,25.4 5.5,15.5 10.6,22.8 29.6,41.6 12.2,12.2 15.4,16 18.1,21.5 1.8,3.7 4.1,7.9 5.2,9.4 1.7,2.4 2,5.1 2.6,21.5 0.5,14.5 0.4,19.4 -0.6,21.4 -1.4,2.8 -6.2,5.6 -11.6,6.5 -13.5,2.5 -20,5.6 -29,14.1 -5.6,5.3 -7.3,6.4 -9.1,5.8 -8.1,-2.6 -14.2,-1.1 -16.1,3.9 -1.6,4.1 -1.4,42.9 0.2,72.1 2.3,39.9 2.9,46.9 5.2,57.5 3.8,18.3 4.1,20.3 4.9,32 0.6,7.6 0.3,19.5 -0.6,35.5 -1.6,26.4 -1.2,50 1.2,71 2.8,24.4 4.3,51 4.9,86.5 0.7,37.9 1.8,51.3 6.6,80.5 7.6,46.3 9,61.7 9,100.7 0,27.3 -0.1,29.8 -1.7,30.6 -1,0.6 -26.8,1.2 -57.3,1.5 -30.5,0.3 -69.9,1.2 -87.5,2 -17.6,0.9 -39.9,1.8 -49.5,2.1 -34.6,1.2 -71.8,2.7 -87.5,3.6 -8.8,0.5 -28.4,1.4 -43.5,2 -33.9,1.3 -59.9,2.6 -88,4.5 -11.8,0.8 -33.6,1.9 -48.5,2.5 -46.4,1.9 -80.60002,4.4 -108.40002,8.1 -13.6,1.8 -20.4,2.1 -56.1,2 -38.2,-0.1 -41,0 -46.5,1.9 -7.2,2.5 -14.6,8 -17.4,13.1 -1.2,2.1 -4,5.2 -6.2,7 -5,3.9 -7.4,8.6 -9.8,19.1 -4.2,18.1 -5.4,30.9 -4.8,54.3 0.4,12.1 1.1,28.7 1.7,37 0.7,8.9 0.9,24.3 0.5,38 -0.3,12.6 -0.6,30.6 -0.6,40 -0.1,19.5 -1.7,52.7 -2.7,53.7 -0.4,0.4 -30.6,0.9 -67.2,1.1 -36.9,0.2 -85,1.2 -108,2.1 -22.8,0.9 -45.5,1.8 -50.5,2 -4.9,0.1 -24.7,0.8 -44,1.5 -19.2,0.6 -45.1,1.6 -57.5,2.1 -12.4,0.6 -33.3,1.3 -46.5,1.6 -13.2,0.3 -28.5,1 -34,1.5 -5.5,0.6 -20.1,1.1 -32.5,1 -12.6,0 -25.4,0.4 -29,1.1 -9.8,1.7 -114.3,1.2 -132.5,-0.7 -34,-3.4 -40.7,-3.2 -45.4,1.9 -3.4,3.6 -2,5.9 6.1,10.2 5.8,3 8.8,3.9 15.2,4.5 4.5,0.4 15.3,1.5 24.1,2.5 29.3,3 179,1.9 201.5,-1.5 3.6,-0.6 22,-1.5 41,-2.1 18.9,-0.6 34.7,-1.3 35.1,-1.6 0.5,-0.2 15.5,-0.7 33.6,-0.9 39.1,-0.6 54.6,-1.1 87.8,-3 13.8,-0.7 40.5,-1.6 59.5,-2 19,-0.3 39.9,-0.8 46.5,-1 6.6,-0.3 23.3,-1 37,-1.6 41,-1.7 43.7,-1.8 50.3,-3.6 4.9,-1.2 6.5,-1.4 7.1,-0.4 0.4,0.6 1.8,1.3 3.1,1.6 3.2,0.6 3.5,1.2 1.7,3.3 -1.1,1.2 -1.7,3.6 -1.7,7.1 0,6.7 -1.6,7.3 -6.6,2.3 -7,-6.9 -22.2,-9.9 -31.9,-6.2 -1.1,0.4 -7.2,1.3 -13.5,2 -13.9,1.4 -25.7,4.4 -28.7,7.2 -4.3,4 -2.5,8.4 4.7,11.7 2.9,1.3 6.9,1.5 24.5,1.3 13.2,-0.2 23.3,0.1 27.2,0.8 6,1.2 6.5,1.1 12.7,-1.8 4,-1.9 6.7,-3.8 7.1,-5.1 0.3,-1.2 1.5,-2.1 2.5,-2.1 1.5,0 1.9,1.1 2.5,6.7 0.8,9.7 2.9,23.8 5.9,40.8 3.6,20 4.2,48.4 1.6,73.5 -0.7,5.8 -1.3,15.9 -1.5,22.5 -0.1,6.6 -0.6,13.1 -0.9,14.5 -0.5,1.9 0.2,4.2 2.4,8.5 2.3,4.3 3,6.8 2.6,8.8 -1.1,5.6 0,6.4 18.9,13.1 19.7,7 20.5,7.1 66,7 22.6,-0.1 47.5,-0.6 55.5,-1.3 13.8,-1.1 23.4,-1.7 62.50002,-4.1 18.1,-1.2 49.5,-3.4 71,-5 38.6,-3 43.5,-3.2 107,-5.5 19.9,-0.7 126.6,-3.3 168,-4 18.2,-0.3 45.2,-1 60,-1.5 73.1,-2.6 110.7,-3.2 111.8,-2.1 0.9,0.9 1.2,10.8 1.2,35.9 0,19.1 0.5,70.2 0.9,113.7 1,89.9 0.4,108.8 -6.4,203.5 -2.6,36.3 -7,115.8 -7,126.2 0,9.3 1.1,10.4 7.4,8.1 5.2,-2 7.6,-1.8 11.9,0.7 2.7,1.6 3.6,1.8 4.5,0.8 0.9,-1.3 1.6,-12.2 2.7,-47.8 0.8,-24 1.5,-37.9 2.6,-52 0.5,-6.9 1.6,-22.9 2.4,-35.5 0.8,-12.7 2.1,-32.9 2.9,-45 4.2,-62.5 5,-121.6 3.2,-244.5 -0.8,-53.3 -0.7,-62.7 0.5,-63.6 3.2,-2.5 295.7,-2.5 357.4,0 7.2,0.3 27.2,0.8 44.5,1.1 17.3,0.3 48.4,1.3 69,2.1 20.6,0.8 59.7,1.7 86.9,1.9 l 49.5,0.4 2.3,2.9 c 5.7,7.4 14.5,7.3 30.8,-0.3 27.6,-13 26.4,-12.3 36,-21.9 5,-5 13.8,-15.5 19.6,-23.2 8.8,-11.7 12.8,-18.4 23.1,-38.5 13.8,-26.9 23.7,-49.4 26.7,-60.9 3.9,-15.2 11.1,-63.9 11.1,-76.1 0,-3 -0.5,-6 -1.2,-6.7 -1.7,-1.7 -20.5,-1.6 -23.8,0.1 -2.3,1.2 -2.6,2 -3.2,10.2 -0.4,5 -1.3,12.8 -2.2,17.5 -0.8,4.7 -1.8,10.1 -2,12 -5.5,36.4 -6.8,40.3 -28.4,84 -11.8,23.8 -15.1,29 -33.4,51.7 -10.4,12.9 -12.8,14.7 -27.3,20.4 l -8,3.1 -53.5,-0.6 c -29.4,-0.4 -65.6,-1.1 -80.5,-1.6 -54.4,-2 -86.6,-3 -114,-3.6 -15.4,-0.3 -45.3,-0.9 -66.5,-1.4 -21.2,-0.5 -75.6,-0.7 -121,-0.5 -159.6,0.8 -191,0.8 -191.6,0.2 -0.6,-0.6 -1.4,-59.5 -1.7,-125.7 -0.1,-21.2 -0.6,-47.5 -1.1,-58.5 l -0.8,-20 -3,-3.1 c -2.2,-2.3 -2.9,-3.9 -2.6,-6 0.3,-2.8 0.4,-2.9 6.8,-3.1 3.6,-0.2 14.4,-0.7 24,-1.3 50.8,-3 179.1,-3.6 221,-1.1 9.6,0.6 37.8,1.5 62.5,2.1 79.9,1.8 126.5,3.1 149,4 12.1,0.5 40.7,0.9 63.5,1 22.8,0 51.4,0.5 63.5,1 40.1,1.7 63.9,3.1 71,4 3.9,0.6 12.9,1.2 20,1.5 17.1,0.8 19,1.1 25.8,4.7 6.8,3.7 7.7,7.6 1.9,8.4 -2.1,0.4 -4.2,2.5 -6.2,6.4 -1.9,3.7 -1.9,3.8 0.1,7.5 1.7,3.1 1.9,4.3 1,6.2 -1.5,3.2 -1.4,4 0.6,4.7 2.3,0.9 7.3,-4.1 7.3,-7.3 0,-1.4 0.9,-4 2,-5.6 1.1,-1.7 2,-4.2 2,-5.6 0,-1.4 0.9,-3.4 2,-4.4 2.6,-2.4 2.5,-5.2 -0.2,-7.6 -1.8,-1.4 -2,-1.8 -0.7,-1.9 0.9,0 2.2,0.7 3,1.6 1.4,1.7 6.4,1.6 17.9,-0.5 5,-1 7.9,-1 12.8,0 3.5,0.6 8.7,0.9 11.6,0.5 4.6,-0.5 5.7,-0.3 8.6,1.9 l 3.4,2.5 89.6,-0.3 c 82.2,-0.3 136.7,0.1 190,1.7 11.3,0.3 45.7,0.8 76.5,1.1 30.8,0.3 80.1,0.7 109.5,1 52.4,0.5 103.2,1.8 142,3.5 31.1,1.3 204.5,0.4 230,-1.3 28.8,-1.8 32.4,-3.5 30,-13.7 -1.8,-7.5 -2.9,-8.1 -13.5,-7 -5,0.4 -20.2,1.2 -34,1.6 -13.7,0.3 -28.4,0.8 -32.5,1 -24.6,0.9 -155.3,0.2 -194,-1.1 -55.7,-1.8 -89.1,-2.4 -178,-3 -38.8,-0.3 -96.6,-1.1 -128.5,-1.7 -54.6,-1.1 -190.8,-1.7 -253,-1 -24.5,0.3 -28.8,0.1 -34.6,-1.5 -7.9,-2.1 -9.9,-3.6 -9.9,-7.3 0,-7.5 -9.7,-59.2 -13.5,-72 -8.5,-28.2 -9.4,-30.5 -20,-50 -3.8,-6.9 -10.3,-19.1 -14.6,-27.3 -4.3,-8.1 -10.3,-18.4 -13.5,-23 -3.2,-4.5 -7.3,-10.5 -9.3,-13.2 -1.9,-2.8 -5.3,-7.7 -7.5,-10.9 -5.9,-8.5 -27.8,-29.9 -36.6,-35.8 -13.2,-8.7 -26.9,-14.4 -41.3,-17.3 -1.6,-0.3 -4.1,-1.9 -5.5,-3.4 -4.1,-4.4 -5.8,-4.8 -18.7,-5.2 -35.6,-1 -333.3,-0.3 -368,0.9 -20.9,0.7 -62.7,1.7 -93,2.2 -30.2,0.6 -64.2,1.5 -75.5,2 -45.3,2.1 -58.6,2.4 -59.5,1 -0.4,-0.7 -0.7,-16.8 -0.6,-35.9 0.2,-37.5 -1,-54.4 -6.5,-86.1 -6.3,-36.7 -8,-54.9 -8.9,-99 -0.6,-26.8 -2.3,-55.9 -4.5,-73 -3.2,-26.4 -3.6,-50.5 -1.4,-91 0.7,-13.3 -0.8,-32.5 -3.6,-45.5 -3.3,-15.4 -4.8,-28.2 -6,-52 -0.6,-12.7 -1.6,-25.3 -2.2,-28 -0.5,-2.8 -1.2,-14.7 -1.4,-26.6 -0.4,-19.7 -0.3,-21.7 1.2,-22.3 1.1,-0.4 3.2,0.4 5.6,2 l 3.9,2.8 5.2,-1.9 c 2.9,-1 6.8,-2.9 8.7,-4.1 4.1,-2.6 9.2,-4.1 17.1,-4.9 9.7,-1 24.1,-9.2 27.6,-15.7 1.5,-2.8 1.8,-6.3 2,-24.1 0.1,-11.5 0.7,-26.1 1.3,-32.5 0.6,-6.4 1.5,-18.2 2,-26.2 0.6,-8 1.5,-19.2 2,-25 2.1,-22.7 1.2,-28.4 -5.7,-35.7 -2.9,-3.1 -3.7,-3.5 -6.8,-3 -1.9,0.3 -5.4,1.9 -7.8,3.6 -6.7,4.6 -7.7,8 -7.7,27 0,13.1 -0.3,16.1 -1.6,17.1 -1.2,1.1 -1.8,1.1 -3,-0.2 -2.6,-2.6 -10.2,-14 -12.5,-18.8 -5.8,-11.7 -8.8,-19 -10.3,-24 -2,-6.8 -6.6,-12.7 -12,-15.1 -5.3,-2.4 -6.4,-2.4 -11.6,0.4 z m 620.5,757.2 c 2.2,1.2 9,3.2 15,4.4 21.6,4.5 29.7,7.8 46.2,18.7 11.2,7.4 28.8,25.1 36.8,37 3.3,4.9 8,11.6 10.4,14.9 2.4,3.3 7,11.2 10.2,17.5 3.2,6.3 9.1,17.3 13,24.5 11.1,20.5 13.6,26.3 18.4,42.5 4.6,15.5 8.2,31.1 12,52.5 0.9,4.9 2,10.6 2.5,12.6 2.4,9 0.7,10.7 -8.7,9 -7,-1.3 -16.9,-2.3 -45.3,-4.6 -9.6,-0.8 -23.6,-1.9 -31,-2.5 -31.1,-2.5 -49.4,-3.1 -122.5,-4 -42.3,-0.4 -86.9,-1.3 -99,-1.9 -12.1,-0.6 -40,-1.3 -62,-1.6 -40.9,-0.5 -74.7,-1.5 -128.1,-3.5 -42.5,-1.7 -173.4,-0.8 -202.9,1.4 -12.1,0.8 -24.1,1.8 -26.7,2.2 -2.7,0.3 -5.5,0.1 -6.7,-0.6 -2,-1 -2.1,-1.7 -2.1,-26.8 0,-44.9 -3.3,-95.5 -8,-124.2 -3.4,-20.4 -6.4,-59.8 -4.8,-61.7 0.8,-1 5.8,-1.3 18.7,-1.3 9.7,-0.1 25,-0.5 34.1,-1 9.1,-0.5 45.8,-1.4 81.5,-2.1 35.8,-0.6 81.4,-1.7 101.5,-2.4 25.5,-0.9 82.7,-1.3 190,-1.2 l 153.5,0 4,2.2 z m -608.7,5.7 c 0.6,0.7 1.3,6.7 1.7,13.3 0.8,14.2 2.9,35.7 5,51 5.6,40.6 6.7,57.8 8,122.2 0.5,25.4 0.4,27.3 -1.2,28.1 -1.8,1 -15.4,2 -65.3,4.7 -47.4,2.6 -62.8,3.6 -87.5,5.6 -13.2,1 -34.8,2.6 -48,3.4 -13.2,0.8 -28.3,2 -33.5,2.5 -5.2,0.5 -15.6,1.4 -23,2 -7.4,0.6 -19.6,1.7 -27,2.5 -37.1,3.8 -57.1,5.3 -104,7.5 -22.8,1.1 -47.1,2.5 -54,3 -6.9,0.6 -19,1.5 -27,2 -8,0.6 -24.8,1.9 -37.5,3 -12.6,1 -30.9,2.4 -40.50002,3 -9.6,0.6 -24.9,1.5 -34,2 -9.1,0.6 -19.6,1.5 -23.5,2.1 -28.3,4.3 -40.7,5.6 -52.9,5.8 -7.7,0.1 -17.6,0.6 -22,1.2 -12.2,1.4 -19.1,1.2 -20.6,-0.6 -1.2,-1.4 -1,-9.8 0.5,-28 1,-12.2 0.7,-101.7 -0.4,-127.1 -1.5,-32.5 -1.3,-34.7 4,-52.3 1,-3.5 1.9,-8.3 1.9,-10.7 0,-3.8 0.6,-5.1 4.3,-9.1 7.5,-8.2 7,-8.1 51.2,-8.8 30.1,-0.5 42,-1.1 52.2,-2.6 20.7,-2.9 86.70002,-7.9 125.80002,-9.4 8.3,-0.4 27.2,-1.5 42,-2.5 14.9,-1.1 39.4,-2.4 54.5,-3 26.7,-1 80.8,-3.5 98,-4.5 4.7,-0.3 22.2,-0.9 39,-1.5 16.8,-0.6 46.3,-1.7 65.5,-2.6 72.6,-3.2 146.5,-4.3 148.3,-2.2 z m 15,237.3 c 0.2,1.6 1.1,3.8 2,4.8 1.3,1.5 1.5,5.1 1.3,27 -0.1,13.8 0.3,30.4 0.8,36.7 2.4,25.4 4.1,69.5 4.1,104.7 0,35.8 -0.1,37.3 -1.9,38.3 -1.2,0.6 -11.6,1 -26.8,1 -13.6,0 -43.7,0.7 -66.8,1.5 -37.2,1.3 -124.6,3.3 -218.5,5 -17.3,0.3 -34.3,0.8 -37.7,1 -3.3,0.3 -19.9,1 -36.7,1.5 -16.8,0.5 -39.4,1.7 -50.3,2.5 -10.9,0.8 -34.4,2.4 -52.3,3.5 -30.9,1.9 -43.8,2.6 -85.50002,5 -58.3,3.4 -93.4,3.1 -113.5,-1 -11.6,-2.3 -15.5,-4.2 -14.5,-6.8 1.6,-3.8 4.4,-26.9 5.4,-44.3 1.6,-25.5 0,-50.9 -4.3,-69.4 -4.8,-20.3 -5.8,-26.7 -9,-56.7 -0.2,-2.1 0,-4.1 0.6,-4.4 0.6,-0.4 5.6,-0.8 11.2,-0.9 6.1,-0.1 13.8,-1 19.5,-2.3 6.8,-1.6 12.7,-2.2 21.2,-2.2 7.8,0 18.9,-1 33.1,-3.1 19.4,-2.7 34.7,-4 98.80002,-7.9 9.1,-0.6 24.2,-1.7 33.5,-2.5 26.7,-2.4 39.9,-3.3 71.5,-4.9 16.2,-0.8 39,-2 50.5,-2.6 25,-1.3 67.1,-4.8 97,-8 5,-0.5 22.1,-1.8 38,-2.9 49.3,-3.5 57.7,-4.1 67.5,-5.1 15.7,-1.7 46.1,-3.8 70,-5 29.4,-1.4 83.4,-5.1 84,-5.6 0.2,-0.3 2,-0.4 4,-0.2 3.1,0.3 3.5,0.7 3.8,3.3 z m 734.2,26.5 c 0,0.5 -0.7,1 -1.5,1 -0.8,0 -1.5,-0.5 -1.5,-1 0,-0.6 0.7,-1 1.5,-1 0.8,0 1.5,0.4 1.5,1 z m -711.4,197.2 c -0.3,5.1 -0.5,12.3 -0.6,16 0,5.4 -0.3,6.8 -1.5,6.8 -1.3,0 -1.5,-2 -1.5,-12.3 0,-14.6 0.7,-19.7 2.7,-19.7 1.2,0 1.4,1.6 0.9,9.2 z"
       id="path10993"
       inkscape:connector-curvature="0"
       style="fill:#000000;stroke:none" />
    <path
       d="m 1658.2533,85.84 c -4.8,1.4 -9.5,4.9 -10.6,7.8 -2.9,7.3 -4.2,14.3 -4.2,22.2 0,10.4 -0.4,10.9 -11,14.5 -9.7,3.3 -14.4,6.7 -17.1,12.2 -2.1,4.3 -2.1,4.7 -0.6,7.9 1.9,3.9 8.4,8.9 13.8,10.6 2.9,0.8 5.6,0.8 11.3,-0.1 4.2,-0.7 8.4,-1 9.4,-0.7 1.2,0.4 2.7,3.4 4.6,8.8 1.5,4.5 3.8,10 5.1,12.3 3.3,5.5 10.2,12.5 12.4,12.5 2.9,0 6.9,-4.5 7.7,-8.5 0.7,-3.8 0.4,-5.4 -3.5,-19.5 -1.1,-4.1 -2.1,-8.9 -2.1,-10.5 0.1,-4.9 5.4,-7.6 18.3,-9.4 8.8,-1.2 13.7,-3.8 16,-8.2 1.5,-3.2 1.5,-4 0.4,-7.4 -2,-5.7 -4.9,-7.4 -13.2,-7.7 -3.8,-0.2 -9.9,0.1 -13.5,0.5 -10.3,1.3 -10.5,1 -10.5,-16.5 0,-15.6 -0.8,-18.2 -6.1,-20.6 -2.8,-1.3 -2.9,-1.3 -6.6,-0.2 z"
       id="path10995"
       inkscape:connector-curvature="0"
       style="fill:#000000;stroke:none" />
    <path
       d="m 95.15328,896.84 c -2.1,1.2 -5.3,4.2 -7.1,6.8 -5.9,8.2 -16.7,29.1 -19.6,37.7 -0.7,2.1 -2.1,5.2 -3.1,6.9 -1,1.7 -2.3,5.3 -3,8.1 -2.3,9.5 -6.4,14.4 -11.1,13.1 -3.8,-0.9 -15.9,-27.2 -21.8,-47.5 -2.6,-8.8 -5.4,-12.1 -10.4,-12.1 -3,0 -4,0.7 -7.1,4.7 -4.5,5.8 -4.9,7.7 -4.2,17.3 0.6,8.9 5.2,22.8 9.9,29.7 1.5,2.3 2.8,4.5 2.8,5 0,0.4 2.3,4.3 5,8.7 8,12.4 13.9,23.3 13.9,25.9 0.1,1 -1.7,4.9 -3.9,8.7 -2.2,3.8 -4.9,8.8 -5.9,11.2 -1,2.4 -3.1,7 -4.6,10.3 -6.1,13 -18.4,44.8 -20.4,52.5 -0.7,2.5 -2.1,8.3 -3.2,12.9 -1.8,7.9 -1.8,8.6 -0.2,10.3 3.4,3.7 11.5,0.8 14.5,-5.3 0.9,-1.9 3.9,-9.3 6.7,-16.4 7.6,-19.6 13.2,-32.8 19.5,-45.5 6.7,-13.4 7.1,-14 10.1,-14 2.6,0 4.3,1.8 8,8.5 1.5,2.7 3.6,6 4.6,7.4 1,1.3 1.9,2.8 1.9,3.4 0,0.5 2.5,4.4 5.5,8.6 3.1,4.2 9.7,13.9 14.8,21.5 9.8,14.8 12.8,17.6 19,17.6 5.5,0 7.7,-2.7 7.7,-9.5 0,-4.5 -0.8,-7.2 -4.5,-14.8 -5.2,-10.5 -11.6,-21.8 -16.6,-29.3 -1.9,-2.8 -5.1,-8 -7.2,-11.5 -2.1,-3.5 -6.3,-10.5 -9.2,-15.4 -8.1,-13.5 -9.5,-16.2 -9.5,-18.7 0.1,-3.1 22.8,-41.3 44.5,-74.4 3.6,-5.6 4.7,-8.4 5.2,-12.6 0.5,-4.8 0.2,-5.8 -1.9,-8.3 -2.2,-2.5 -3.3,-2.9 -8.9,-3.2 -5,-0.3 -7.2,0.1 -10.2,1.7 z"
       id="path11001"
       inkscape:connector-curvature="0"
       style="fill:#000000;stroke:none" />
    <path
       d="m 3194.4533,936.94 c -6.3,2.6 -7.7,7.7 -4,15.7 3,6.7 6.8,11 15.5,17.5 4.4,3.4 10.2,8.2 12.9,10.7 8.3,7.7 18.6,22.5 18.6,26.6 0,1.1 -1.6,5.1 -3.5,9 -1.9,3.8 -3.5,7.2 -3.5,7.6 0,0.4 -2.9,6.7 -6.4,14 -10,20.9 -16.5,36.3 -24.1,57 -1.7,4.6 -1.7,4.8 0.4,8.1 1.1,1.9 2.1,4.1 2.1,5 0,0.9 1,2.3 2.1,3.1 1.9,1.3 2.6,1.2 8,-1.5 5.1,-2.6 6.2,-3.8 9.4,-9.7 2,-3.7 4.5,-9.2 5.5,-12.2 1,-3 2.9,-8 4.3,-11 1.4,-3 5.3,-11.8 8.8,-19.5 9.2,-20.5 10.9,-22.8 13.9,-19.3 6.2,7.4 15.8,22.7 34.5,54.9 15.2,26.1 19.7,32.3 25.8,35.5 2.4,1.3 3.1,1.3 5.7,-0.1 4.4,-2.3 6.3,-6.6 5.4,-12.3 -0.7,-4.7 -21.7,-49.1 -30.4,-64.2 -2.3,-4.1 -6.3,-11.3 -8.8,-16 -2.4,-4.7 -5.2,-9.6 -6.2,-11 -1,-1.4 -2.5,-4.1 -3.5,-6 -0.9,-1.9 -2.7,-5.5 -4,-8 -1.3,-2.5 -2.4,-5.8 -2.5,-7.4 0,-4 10.2,-23 15.4,-28.6 2.3,-2.5 4.7,-5.9 5.3,-7.5 1.9,-5.2 4.1,-13.8 4.8,-18.5 0.6,-5.1 -0.8,-7.2 -7.2,-10.4 -3.9,-2 -13.8,-1.2 -18.1,1.4 -2.7,1.7 -10.2,15.3 -16.1,29.3 -3.2,7.6 -4.1,7.4 -16,-5.1 -9.6,-10 -26.2,-24.1 -31.8,-27.1 -2.6,-1.3 -8.9,-1.3 -12.3,0 z"
       id="path11003"
       inkscape:connector-curvature="0"
       style="fill:#000000;stroke:none" />
    <path
       d="m 757.45328,971.54 c -10.9,1.1 -26.8,5.9 -29.7,9.1 -3,3.3 -2.9,5.6 0.5,8 5,3.6 10.9,4.5 30.7,4.6 10.6,0.1 22.9,0.7 27.8,1.5 10.5,1.7 15.2,0.7 19.1,-4 3.9,-4.6 3.5,-8.4 -1.3,-12.9 -6.2,-5.9 -11,-7 -28.5,-6.8 -8.3,0 -16.7,0.3 -18.6,0.5 z"
       id="path11005"
       inkscape:connector-curvature="0"
       style="fill:#000000;stroke:none" />
    <path
       d="m 618.45328,979.94 c -8.8,3 -14,7 -14,10.8 0,2.1 3.6,5 8.8,7.1 2.7,1 5.8,1.1 16.8,0.1 7.9,-0.8 17.5,-1 23.3,-0.6 8.2,0.6 10.4,0.5 13.5,-1 3.9,-1.9 7.6,-5.8 7.6,-8.2 0,-2.6 -4.8,-5.9 -12.7,-8.6 -7.1,-2.5 -9.1,-2.7 -21.3,-2.6 -12.1,0.1 -14.4,0.4 -22,3 z"
       id="path11007"
       inkscape:connector-curvature="0"
       style="fill:#000000;stroke:none" />
    <path
       d="m 491.95328,985.84 c -21.9,1.1 -27.6,2.6 -29.6,7.8 -1.6,4.3 -0.3,6.8 4.8,9.3 5,2.4 12.4,2.8 49.8,2.1 9.4,-0.2 20.6,0 25.1,0.4 8.9,0.7 11.8,-0.2 16.3,-5 2.1,-2.2 2.3,-2.9 1.3,-5.1 -1.5,-3.3 -9.8,-7.3 -18.9,-9.1 -7.9,-1.5 -23.9,-1.6 -48.8,-0.4 z"
       id="path11009"
       inkscape:connector-curvature="0"
       style="fill:#000000;stroke:none" />
    <path
       d="m 3377.7533,1019.34 c -1.7,0.7 -3.7,2.3 -4.3,3.5 -0.8,1.4 -1.4,10.4 -1.7,24.8 -0.2,12.5 -0.6,22.8 -0.7,22.9 -0.2,0.2 -3.7,1.2 -8,2.3 -15.7,4.1 -31.2,11.9 -33,16.6 -2.1,5.6 2.6,14.9 9.3,18.4 4.6,2.3 7.1,2.2 21.3,-1.2 4.9,-1.1 9.9,-1.7 11.2,-1.4 3.1,0.8 4,3.6 6.1,18.6 1.6,11.4 2.2,14.7 5,29 1.6,8.5 3.7,14.1 5.8,15.9 0.8,0.6 2.6,3.5 4,6.4 1.4,2.9 3.2,5.8 4,6.6 2.4,1.9 5.7,0.4 7.3,-3.5 1.6,-3.9 1.9,-22.4 0.5,-30 -0.5,-2.7 -1.5,-14.3 -2.1,-25.8 -1.5,-25.3 -1.9,-24.2 10.3,-23.8 9.4,0.3 17.7,2.3 22.7,5.6 2,1.3 5.5,3.3 7.9,4.6 4.2,2.1 4.6,2.1 7.7,0.6 3.6,-1.7 5.9,-5.2 6.9,-10.9 1.1,-5.7 -4.4,-13.2 -13.8,-19.1 -8.2,-5.1 -14.7,-7 -29.7,-8.7 -5.8,-0.6 -11.3,-1.5 -12.2,-2 -1.5,-0.8 -1.7,-2.6 -1.7,-13 0,-15.1 -1,-25.6 -2.7,-29 -0.7,-1.4 -2.9,-4 -4.9,-5.8 -4,-3.5 -9.5,-4.1 -15.2,-1.6 z"
       id="path11011"
       inkscape:connector-curvature="0"
       style="fill:#000000;stroke:none" />
    <path
       d="m 640.95328,1066.54 c -10.4,1.4 -22.7,4.5 -28.1,7 -5.6,2.5 -7,8.9 -2.8,12.2 3.8,3 8.5,3.5 19.8,2.1 5.6,-0.7 19.2,-1.5 30.4,-1.9 l 20.4,-0.6 3.4,-3.7 c 4.1,-4.6 4.3,-6.8 0.7,-10.8 -5.4,-5.8 -21.5,-7.4 -43.8,-4.3 z"
       id="path11015"
       inkscape:connector-curvature="0"
       style="fill:#000000;stroke:none" />
    <path
       d="m 507.25328,1072.84 c -50.1,4.8 -61.7,6.5 -69.6,10.2 -5.6,2.6 -6.6,6.2 -2.8,9.4 4.9,4.3 9,4.7 39.1,3.9 36.2,-1 48.5,-1 56.7,0 l 6.7,0.8 3.6,-3.6 c 3.1,-3.1 3.5,-4.1 3.5,-8.6 0,-5.8 -1.8,-8.3 -7.8,-10.8 -4.5,-1.9 -17.5,-2.5 -29.4,-1.3 z"
       id="path11017"
       inkscape:connector-curvature="0"
       style="fill:#000000;stroke:none" />
    <path
       d="m 158.45328,1127.04 c -16.6,2.6 -39.3,8 -45.3,10.8 -2.6,1.2 -6.1,3.5 -7.8,5.1 -2.9,2.7 -3.1,3.3 -2.7,8.7 0.5,7.2 3.2,12.9 7.2,15.3 5.4,3.3 10.2,2.6 37.6,-5.6 6.9,-2.1 15.7,-4.3 19.5,-5 3.9,-0.7 9.5,-1.8 12.5,-2.5 3,-0.6 10.5,-1.2 16.6,-1.2 9.3,0 11.8,0.4 15.2,2.1 4.9,2.5 10.9,2.7 14,0.5 3.5,-2.4 5.5,-7.1 4.7,-11.3 -2.6,-14 -14.6,-19.2 -43.8,-19 -9.7,0.1 -19.7,0.8 -27.7,2.1 z"
       id="path11019"
       inkscape:connector-curvature="0"
       style="fill:#000000;stroke:none" />
    <path
       d="m 1595.6533,1640.54 c -2.2,1.1 -4.2,3.3 -5.9,6.6 -2.3,4.6 -2.5,5.9 -2,13.1 0.8,13 5.8,25.8 13.9,35.4 4.8,5.7 13.8,12.6 24.9,19.2 15.5,9.1 14.5,8.1 16.4,16.2 2.7,11.1 3.1,33.1 1,46.4 -4,25.4 -12,51.6 -19.7,65.1 -5.2,9.2 -10.1,13.7 -16.8,15.7 -5.2,1.5 -6.1,1.5 -11.9,-1.1 -4.4,-2 -11.1,-1 -13.8,2 -5,5.4 -5.4,9.2 -1.9,17.1 4.1,9.3 13.3,13.4 27.3,12.1 13.1,-1.2 25.7,-8.9 35.1,-21.5 12.4,-16.7 20.3,-39.6 27.3,-79.5 2.2,-12.3 1.6,-40.4 -1.3,-64.5 -2.7,-22.1 -4.8,-47.3 -4.8,-57 0,-7.9 -1.6,-12.5 -5.7,-16.6 -3.4,-3.4 -3.9,-3.6 -8.6,-3.1 -3.8,0.3 -5.6,1.1 -7.3,3 -2.9,3.4 -4.7,14.1 -4.8,27.7 -0.1,8.8 -0.4,10.5 -1.7,10.8 -3.8,0.7 -13.9,-19.3 -13.9,-27.6 0,-15.1 -13.8,-25.5 -25.8,-19.5 z m 33.7,51.1 c 3,1.5 6,3.5 6.5,4.4 2.6,4.3 -4.6,7.7 -8.6,4.1 -3,-2.7 -7.8,-9.9 -7.1,-10.7 1.2,-1.1 3.8,-0.5 9.2,2.2 z"
       id="path11029"
       inkscape:connector-curvature="0"
       style="fill:#000000;stroke:none" />
    <path
       d="m 1747.4533,1850.04 c -5.8,0.4 -22.9,0.9 -38.1,1.1 l -27.6,0.2 -3.7,2.9 c -7.8,5.9 -10,18 -4.7,25.2 6.4,8.7 9.4,10.2 22.5,11 8.9,0.6 36.1,-0.8 54.1,-2.7 5,-0.5 18.5,-1.3 30,-1.7 23.7,-0.9 27.8,-2 32.4,-8.7 5.1,-7.6 1.6,-19.9 -7,-24.3 -7.7,-3.9 -31.9,-5.2 -57.9,-3 z m 41,13.8 c 0,1.9 -2.5,3.4 -4.1,2.4 -2.3,-1.4 0.2,-5.7 2.7,-4.7 0.8,0.3 1.4,1.3 1.4,2.3 z"
       id="path11031"
       inkscape:connector-curvature="0"
       style="fill:#000000;stroke:none" />
  </g>
</svg>
