<?xml version="1.0" encoding="UTF-8" standalone="no"?>
<svg
   xmlns:dc="http://purl.org/dc/elements/1.1/"
   xmlns:cc="http://creativecommons.org/ns#"
   xmlns:rdf="http://www.w3.org/1999/02/22-rdf-syntax-ns#"
   xmlns:svg="http://www.w3.org/2000/svg"
   xmlns="http://www.w3.org/2000/svg"
   xmlns:sodipodi="http://sodipodi.sourceforge.net/DTD/sodipodi-0.dtd"
   xmlns:inkscape="http://www.inkscape.org/namespaces/inkscape"
   version="1.0"
   width="3421.4448pt"
   height="696.44843pt"
   viewBox="0 0 3421.4448 696.44842"
   preserveAspectRatio="xMidYMid meet"
   id="svg7664"
   inkscape:version="0.91 r13725"
   sodipodi:docname="plugs-plug-depth.svg"
   inkscape:export-filename="/home/churchyard/RepRap/BI-3DT/powerplugs-task/pics/plugs-plug-depth.svg.png"
   inkscape:export-xdpi="28"
   inkscape:export-ydpi="28">
  <defs
     id="defs7724" />
  <sodipodi:namedview
     pagecolor="#ffffff"
     bordercolor="#666666"
     borderopacity="1"
     objecttolerance="10"
     gridtolerance="10"
     guidetolerance="10"
     inkscape:pageopacity="0"
     inkscape:pageshadow="2"
     inkscape:window-width="1848"
     inkscape:window-height="1056"
     id="namedview7722"
     showgrid="false"
     fit-margin-top="0"
     fit-margin-left="0"
     fit-margin-right="0"
     fit-margin-bottom="0"
     inkscape:zoom="0.3519049"
     inkscape:cx="3613.4376"
     inkscape:cy="652.56731"
     inkscape:window-x="72"
     inkscape:window-y="0"
     inkscape:window-maximized="1"
     inkscape:current-layer="svg7664" />
  <metadata
     id="metadata7666">
Created by potrace 1.13, written by Peter Selinger 2001-2015
<rdf:RDF>
  <cc:Work
     rdf:about="">
    <dc:format>image/svg+xml</dc:format>
    <dc:type
       rdf:resource="http://purl.org/dc/dcmitype/StillImage" />
    <dc:title />
  </cc:Work>
</rdf:RDF>
</metadata>
  <path
     style="opacity:1;fill:#999999;fill-opacity:1;stroke:none;stroke-width:1.75393701;stroke-linecap:round;stroke-linejoin:round;stroke-miterlimit:4;stroke-dasharray:none;stroke-opacity:1"
     d="M 368.31054,54.289346 C 278.1806,63.612791 183.18353,57.838418 97.607514,91.408751 40.642099,126.73147 52.679078,206.7568 44.415663,263.99555 36.267306,430.95545 24.69979,598.55226 32.02694,765.64102 c 17.867953,33.55396 65.656061,31.58695 98.25986,38.90654 181.48246,13.36867 362.65567,46.27835 545.51965,34.37622 289.24628,-7.52186 578.41545,-24.36414 867.01025,-40.73396 339.6683,-6.34831 680.0302,-8.75691 1019.7013,-4.74259 216.6864,8.34322 433.6641,30.93211 650.5775,12.07713 79.1881,-4.62745 162.4221,-19.78461 229.0326,-64.88123 19.2923,-23.38069 35.1502,-59.37053 24.8091,-89.21314 -18.0699,-13.85738 -5.1671,-46.77991 -10.1013,-67.75621 -2.752,-136.92037 -0.5209,-277.25272 -39.0397,-409.8675 -15.0155,-53.39305 -70.0672,-78.00579 -121.1168,-82.757806 -34.3537,-11.066147 -20.1855,39.931916 -25.9622,60.213096 -3.4798,144.64584 7.6207,189.05028 6.0275,333.65544 -177.6066,-4.31405 -355.4543,-7.54033 -532.9216,-9.9708 -44.1722,5.93726 -94.4993,-4.5574 -134.6727,17.5301 -15.6894,17.63681 -16.8193,-21.10511 -35.3322,-16.97235 -261.9869,-17.32688 -525.0724,-9.34426 -787.5211,-9.19763 -192.3656,1.84207 -385.1172,0.49967 -577.0167,13.58224 -208.9691,-14.74616 -420.31627,-21.97147 -628.33433,9.60309 -60.66502,4.56125 -123.03828,18.76487 -183.31963,11.50968 C 384.62873,324.24058 395.91848,245.58242 383.86206,68.46443 383.08542,60.52248 377.40241,52.114939 368.31054,54.289346 Z"
     id="path8299"
     inkscape:connector-curvature="0"
     transform="scale(0.8,0.8)"
     sodipodi:nodetypes="ccccccccccccccccccccccccc" />
  <path
     style="opacity:1;fill:#bfbfbf;fill-opacity:1;stroke:none;stroke-width:1.75393701;stroke-linecap:round;stroke-linejoin:round;stroke-miterlimit:4;stroke-dasharray:none;stroke-opacity:1"
     d="m 1037.3789,31.51153 c -205.93499,3.852531 -412.24888,6.980539 -617.65688,22.492695 -43.7661,-1.414274 -13.1904,57.015945 -19.9636,83.448235 6.94643,143.65922 7.53208,287.35826 7.06794,431.19151 18.43889,16.24704 53.14278,0.35839 78.22382,2.54197 121.80802,-12.2417 242.66941,-31.79465 365.41075,-27.38185 107.66864,-2.11083 217.05067,3.79142 323.62927,-2.78877 -10.7912,-166.24706 -20.7,-334.8553 -11.9772,-501.911185 -24.1961,-17.878901 -67.1182,-2.545738 -98.3375,-7.612584 -8.7989,0.0067 -17.5977,0.01332 -26.3966,0.01998 z"
     id="path8301"
     inkscape:connector-curvature="0"
     transform="scale(0.8,0.8)" />
  <path
     style="opacity:1;fill:#bfbfbf;fill-opacity:1;stroke:none;stroke-width:1.75393701;stroke-linecap:round;stroke-linejoin:round;stroke-miterlimit:4;stroke-dasharray:none;stroke-opacity:1"
     d="m 1250.5602,32.843566 c -23.2361,4.84381 -58.0905,-8.535462 -74.6717,12.021625 -12.7982,153.062959 8.4624,306.612479 13.7532,459.641239 1.3795,23.45372 0.5658,62.7205 35.9605,45.46731 191.8781,-10.24862 385.0623,-2.31882 577.4601,-3.18177 23.6445,-7.59473 78.54,17.11738 82.3637,-13.81665 -14.4076,-160.37584 -10.0709,-323.39212 -21.2634,-484.524732 -24.5744,-14.776656 -59.7805,-3.113401 -88.0409,-8.100419 -175.1536,-3.637433 -350.3598,-7.212662 -525.5615,-7.506603 z"
     id="path8303"
     inkscape:connector-curvature="0"
     transform="scale(0.8,0.8)" />
  <path
     style="opacity:1;fill:#bfbfbf;fill-opacity:1;stroke:none;stroke-width:1.75393701;stroke-linecap:round;stroke-linejoin:round;stroke-miterlimit:4;stroke-dasharray:none;stroke-opacity:1"
     d="m 1882.0452,44.543283 c 4.308,161.225477 15.0684,324.249287 16.717,485.926747 24.7383,17.3301 67.0092,2.82169 98.2913,7.95944 195.1043,2.12181 390.8195,-0.33277 585.1876,12.17651 15.5396,-15.73176 -2.7626,-42.57732 2.2194,-62.10521 -7.3637,-137.25414 -6.0699,-275.0445 -15.6064,-412.088525 -23.6508,-14.547551 -57.7697,-3.761219 -84.884,-8.991243 -199.0406,-3.080923 -397.2724,-15.506039 -595.9863,-25.441889 l -5.2177,2.252899 -0.7209,0.311271 z"
     id="path8305"
     inkscape:connector-curvature="0"
     transform="scale(0.8,0.8)" />
  <path
     style="opacity:1;fill:#bfbfbf;fill-opacity:1;stroke:none;stroke-width:1.75393701;stroke-linecap:round;stroke-linejoin:round;stroke-miterlimit:4;stroke-dasharray:none;stroke-opacity:1"
     d="m 2599.3466,74.036781 c -2.4626,149.637399 5.1871,300.521319 13.3315,450.316989 0.1215,20.37647 20.7616,20.73465 34.9659,19.00372 43.5806,14.81087 93.4063,5.13298 139.1865,8.18226 29.8598,-4.75865 68.4656,8.32225 93.7533,-11.55676 10.0198,-12.27071 1.5569,-26.81397 -12.2547,-24.33185 -20.3562,-23.48092 -41.8517,-50.47071 -53.1927,-78.71224 11.257,-22.80284 29.0414,16.03508 37.1235,23.38198 32.4068,34.68586 16.6464,-45.26913 20.57,-63.51836 -2.3777,-79.99452 6.7436,-159.89796 4.5015,-239.70219 3.2898,-14.33478 -14.8577,-38.8929 -25.2643,-18.6818 -10.9395,14.54182 -5.5065,45.30282 -23.5104,52.49332 -22.571,-13.04061 5.0413,-42.28576 7.4919,-59.61545 2.0238,-17.10357 60.2199,-69.59522 35.0584,-79.390537 -79.5626,-7.713359 -186.0813,21.157799 -265.9438,19.300341 l -5.1104,2.486912 z"
     id="path8307"
     inkscape:connector-curvature="0"
     transform="scale(0.8,0.8)"
     sodipodi:nodetypes="ccccccccccccccccc" />
  <path
     style="opacity:1;fill:#bfbfbf;fill-opacity:1;stroke:none;stroke-width:1.75393701;stroke-linecap:round;stroke-linejoin:round;stroke-miterlimit:4;stroke-dasharray:none;stroke-opacity:1"
     d="m 2916.2602,61.682146 c -18.7584,23.984141 16.9213,50.057324 23.0086,73.505064 8.9331,25.38935 28.2241,53.06165 24.756,79.87889 -22.3159,3.21388 -22.5709,-33.90239 -32.7263,-47.08447 -11.383,-16.3514 -12.9813,-53.50974 -36.9947,-54.31678 -12.7469,17.97166 5.0866,44.00333 -0.4218,64.85906 4.8803,97.00292 -4.3414,195.41583 4.1182,292.22651 15.5957,18.44389 25.2607,-16.15018 36.6421,-23.72134 8.3942,-5.76797 20.7279,-27.27916 30.7145,-21.77879 -5.9309,36.56239 -36.583,65.29929 -49.2528,100.42171 -31.84,41.28945 30.9571,27.74002 54.0689,29.62472 93.6151,-1.2636 188.9434,5.18135 281.5051,-0.80564 14.8655,-88.35338 -4.2661,-178.84366 0.053,-267.99454 -1.5818,-62.86648 4.2128,-126.02495 5.9075,-187.817092 -18.8791,-23.717167 -57.4967,-10.916545 -83.8545,-17.267231 -81.8078,-6.760753 -165.7617,-1.880166 -246.3905,-15.722862 -2.366,-3.513187 -31.0644,-15.918033 -35.246,-14.054054 z"
     id="path8309"
     inkscape:connector-curvature="0"
     transform="scale(0.8,0.8)"
     sodipodi:nodetypes="cccccccccccccccccc" />
  <g
     id="g8292"
     transform="translate(-279.55511,-618.49473)">
    <path
       d="m 1078,618.6102 c -5.8,0.1 -26,0.7 -45,1.3 -19,0.6 -57.7,1.5 -86,2 -51.4,1 -73,1.8 -125,4.5 -15.1,0.8 -47.3,1.9 -71.5,2.5 -43.7,1 -72.8,2.3 -92,4 -25.3,2.4 -43,3.4 -91.5,5 -34.7,1.2 -54,2.4 -82,5 -11.2,1.1 -28.8,2.5 -39,3 -21.7,1.3 -31.4,2.4 -43,5.1 -4.7,1.1 -10.7,2.5 -13.5,3.1 -9.2,1.9 -25.9,7.9 -34.7,12.5 -7.1,3.6 -10.3,6.1 -16.4,12.6 -8,8.5 -13.1,15.6 -15.8,22.1 -0.8,2 -4.2,6.5 -7.5,10 -4.6,4.7 -6.4,7.5 -7.7,11.7 -0.9,3 -2.2,7 -2.9,8.9 -0.8,1.9 -2.1,8.9 -3,15.5 -0.8,6.6 -2,14 -2.5,16.5 -0.5,2.5 -1.1,6.7 -1.4,9.5 -0.3,2.7 -0.7,7 -1.1,9.5 -0.3,2.5 -0.8,9.4 -1,15.5 -0.3,6 -0.7,13.5 -0.9,16.5 -0.2,3 -0.7,17.9 -1.1,33 -0.4,15.1 -0.8,30.4 -1,34 -0.2,3.6 -0.6,13.9 -0.9,23 -0.3,9.1 -0.8,20.3 -1,25 -0.3,4.7 -0.8,15.9 -1.1,25 -0.3,9.1 -0.8,17.6 -1,19 -0.3,1.4 -0.7,10.6 -1,20.5 -0.7,28.6 -1.5,51.3 -2.1,61 -0.3,4.9 -0.7,14.9 -0.8,22 -0.2,8.5 -0.8,13.9 -1.6,15.5 -0.8,1.4 -1.8,4.5 -2.3,7 -1.2,5.9 -1.6,67.9 -0.5,75 0.5,3 1.3,12 1.8,20 0.4,8 1.3,16.5 1.9,19 0.6,2.5 1.1,6.6 1.1,9.1 0,6.4 4.8,18.8 11.6,29.8 6,9.7 9.2,12.8 19.7,18.4 2.9,1.6 7.9,4.3 11.2,6.1 6.1,3.4 17.6,6.3 34,8.6 4.4,0.6 11.2,2 15,3 11.3,3.1 22.3,4 51,4.5 58.1,1 67.5,1.7 94,6.8 20.3,3.9 34.9,5.6 62.5,7.3 14,0.8 29.1,1.9 33.5,2.5 37.6,4.5 50.8,5.1 111,4.9 62.5,-0.2 187.6,-1.7 201,-2.5 8.1,-0.5 31.8,-2.2 41,-3 4.9,-0.4 37.5,-1.9 63.2,-3 7.2,-0.2 19.4,-0.9 27,-1.5 31.2,-2.2 52.1,-3.1 96.3,-4 25.6,-0.5 51,-1.2 56.5,-1.4 5.5,-0.3 18.6,-0.8 29,-1.1 10.5,-0.3 28.2,-1.2 39.5,-2 38.7,-2.8 64.5,-4.5 80,-5.5 17,-1.1 34.5,-2.4 51.5,-4 6.1,-0.6 19.8,-1.4 30.5,-2 32.7,-1.5 75.8,-3.9 90,-5 38.4,-2.9 53.4,-3.1 162,-3.1 62.4,0 118.2,0.2 124,0.3 5.8,0.2 41.6,0 79.5,-0.5 122.7,-1.3 189.9,-1.8 299,-2.1 106,-0.3 147.8,0.3 171,2.4 6.6,0.5 26.4,1.9 44,3 33.3,2 53,3.4 75,5 7.2,0.6 17.7,1.3 23.5,1.6 14.8,0.7 19.8,1.1 34,2.3 50.5,4.2 88.2,5.5 140.5,4.7 23.7,-0.4 45.3,-0.8 48,-1 2.8,-0.2 25.5,-0.6 50.5,-1 45.7,-0.6 52.8,-1 91.5,-4.7 31.6,-2.9 37.8,-3.8 57,-8.1 l 9,-2 8,2.7 c 11.1,3.6 13.6,3.8 43,2.5 46.4,-2.1 46.2,-2 53,-5.9 11.7,-6.5 12.4,-8.9 3.8,-12.8 -6.4,-2.9 -15.6,-4.1 -32.4,-4.2 -8.3,-0.1 -10.9,-0.4 -11.9,-1.6 -1.6,-1.9 0.5,-3.7 6.2,-5.4 2,-0.7 8.7,-3.3 14.7,-6 14,-6.2 27.4,-16.5 31.9,-24.4 14.9,-26.4 17.7,-34.4 18.6,-52.4 0.5,-11.3 3.3,-32 4.7,-35.6 0.6,-1.5 1.5,-2.7 2,-2.7 1.8,0 3,-3.9 1.7,-5.9 -1,-1.6 -0.8,-3.8 0.7,-11.3 1.5,-6.8 2,-12.9 1.9,-22.8 -0.1,-20.5 -2.5,-27.7 -12.5,-38.8 l -4.8,-5.3 -0.1,-24.7 c 0,-13.6 -0.5,-31 -1,-38.7 -0.6,-7.7 -1.4,-21.2 -2,-30 -0.5,-8.8 -1.2,-18.3 -1.5,-21 -0.2,-2.8 -0.7,-12 -1,-20.5 -0.3,-8.5 -1.2,-20.2 -2,-26 -2.4,-18 -4.4,-36.1 -5,-46 -0.3,-5.2 -1.2,-12.3 -2,-15.8 -0.8,-3.5 -1.2,-7.4 -0.9,-8.6 0.3,-1.3 -0.1,-4.7 -1,-7.7 -0.8,-3 -1.7,-7.5 -2,-10.2 -0.3,-2.6 -0.7,-5.1 -1.1,-5.6 -0.3,-0.5 -1.6,-5.4 -3,-10.8 -4.5,-17.4 -8.5,-29.6 -12.3,-37.3 -8.8,-17.9 -23.9,-35.4 -33.1,-38.5 -2.7,-0.9 -5.4,-2.2 -6,-2.9 -0.6,-0.7 -3.9,-2.6 -7.4,-4.1 -7,-3.1 -9.7,-5.1 -9.7,-7.2 0,-1.1 0.8,-1.3 3.3,-0.7 4.9,1.1 25.7,1 40.2,-0.2 7.8,-0.6 17.4,-0.8 24,-0.3 16.9,1.2 52.8,1.1 58.2,-0.2 8,-1.9 13,-3.9 14.8,-5.9 3.6,-3.9 -1,-7.7 -11.2,-9.1 -3.7,-0.6 -9.9,-1.7 -13.8,-2.6 -6.8,-1.6 -12.1,-2.3 -31,-4.4 -4.9,-0.5 -20.5,-1.4 -34.5,-1.9 -22.5,-0.8 -29.5,-1.5 -43.5,-4.5 -4.4,-0.9 -9.2,2.2 -13.9,9 -6.3,8.9 -6,8.8 -19.6,4.1 -8.4,-2.8 -16.5,-4.7 -25,-5.6 -4.7,-0.5 -16.7,-1.8 -26.7,-2.9 -10,-1.1 -19.7,-2.2 -21.5,-2.5 -1.8,-0.4 -15.2,-1.5 -29.8,-2.6 -14.6,-1.1 -30.3,-2.5 -35,-3 -4.7,-0.5 -27.6,-1.4 -51,-2 -23.4,-0.5 -52.6,-1.2 -65,-1.5 -12.4,-0.3 -45,-0.6 -72.5,-0.6 -27.5,0 -58.1,-0.4 -68,-0.9 -9.9,-0.5 -54,-1.1 -98,-1.4 -84.8,-0.7 -131.9,-1.3 -160.5,-2.1 -9.6,-0.3 -38.1,-1 -63.4,-1.5 -25.2,-0.6 -50,-1.3 -55,-1.5 -5,-0.3 -34.5,-1 -65.6,-1.5 -49.9,-0.8 -109.3,-3.6 -120.5,-5.5 -10.5,-1.9 -77.8,-5.6 -116,-6.5 -55.1,-1.2 -105.5,-2.9 -125,-4.1 -52.5,-3.2 -94.5,-3.7 -183.5,-2.5 -57,0.8 -78.3,0.4 -120.5,-2.4 -63.3,-4.1 -96.7,-4.9 -240.5,-5.3 -66.8,-0.1 -126.2,-0.2 -132,0 z m 127.5,28.7 c 1.7,1.2 1.7,2 0.5,13.7 -0.7,6.8 -1.4,14 -1.5,15.9 -0.1,1.9 -0.7,11.1 -1.3,20.5 -1.7,26.7 -2.6,111.5 -1.2,120.5 0.7,4.1 1.4,12.9 1.6,19.5 2.2,70.9 3.5,95.7 5.5,105 0.6,2.7 1.5,18.5 2.1,35 1.2,38.5 1.4,41.7 3.2,55.8 2.2,16.2 2.1,17.3 -1,19.4 -2.4,1.5 -3.8,1.6 -16.3,0.4 -7.5,-0.6 -23.3,-1.6 -35.1,-2.1 -11.8,-0.5 -25.1,-1.2 -29.5,-1.5 -7.3,-0.6 -116.7,-1.8 -167.5,-1.9 -60.4,-0.1 -101.5,2 -137,7 -17.8,2.5 -53.9,6.8 -71,8.4 -5.8,0.6 -13.6,1.5 -17.5,2 -3.8,0.5 -14.2,1.8 -23,2.9 -8.8,1.1 -17.1,2.3 -18.4,2.6 -1.3,0.3 -15.9,1 -32.5,1.5 -16.5,0.5 -35.7,1.6 -42.5,2.5 -15.4,1.9 -15.7,1.8 -14.6,-7.5 0.4,-3.6 0.9,-25 1,-47.6 0.1,-22.6 0.5,-41.6 0.9,-42.2 0.4,-0.6 0.6,-9.6 0.5,-19.9 -0.1,-10.3 -0.1,-20.2 -0.1,-21.8 0,-1.7 0.1,-9.9 0.2,-18.2 0.2,-20.1 -1.1,-47.8 -3,-64.8 -0.5,-4.4 -1.2,-15.7 -1.5,-25 -0.3,-9.4 -0.8,-21.3 -1.2,-26.5 -0.3,-5.2 -0.6,-10.6 -0.5,-12 0,-1.4 -0.4,-5.4 -0.9,-9 -1.7,-12.9 -3.3,-66.5 -2.2,-76.2 0.5,-4.3 0.6,-10.8 0.1,-14.5 -1.9,-16.7 -2.1,-20.3 -0.9,-21.7 1.3,-1.6 4.2,-1.9 30.1,-3.6 9.1,-0.6 23.3,-1.8 31.5,-2.6 20.5,-2 47.4,-3.2 97,-4.4 23.1,-0.5 50.1,-1.4 60,-2 41.3,-2.2 60.2,-3 100.5,-4 23.4,-0.5 59.5,-1.5 80.4,-2.1 74.3,-2.3 90.8,-2.6 146.7,-2.7 46.1,-0.2 56.9,0 58.4,1.2 z m 175.5,0.6 c 16.2,0.5 45,2 64,3.2 32.2,2 42.2,2.2 152.5,2.2 120.1,0.1 167.4,1.2 170.2,3.9 0.9,0.9 1.3,11.8 1.7,40.7 0.5,35.5 1.9,73.9 3.1,86 0.3,2.5 0.7,25.4 0.9,51 0.2,25.6 0.6,53 1,61 0.3,8 0.8,24.4 1.1,36.5 0.3,12.1 0.8,23.3 1,25 0.3,1.6 1,8.6 1.5,15.5 1.6,20.7 2,25 3.1,37.1 0.6,6.4 0.9,16.9 0.7,23.5 l -0.3,11.9 4.7,0 c 2.5,0 5,0.3 5.4,0.8 0.4,0.4 -0.7,2.1 -2.4,3.7 -2,1.8 -3.2,3.8 -3.2,5.5 0,3.7 -1.7,6.5 -4,6.5 -2.7,0 -4.2,-3.3 -3.8,-8.3 0.3,-3.9 0.1,-4.2 -2.2,-4 -5.4,0.4 -223,1.8 -248.5,1.6 -14.8,-0.1 -31.9,-0.7 -38,-1.3 -18.2,-1.7 -78.4,-3.2 -104,-2.7 -21.8,0.5 -43.8,1.8 -78.5,4.7 -6.9,0.6 -23.1,1.5 -36,2 -15.5,0.6 -25.1,1.4 -28.1,2.3 -2.5,0.9 -5,1.2 -5.6,0.9 -0.5,-0.4 -1,-9.2 -1.1,-21.2 -0.1,-11.3 -0.6,-26.4 -1.1,-33.5 -0.5,-7.2 -1,-18.9 -1,-26 -0.1,-14.8 -1.7,-36.1 -3,-42 -2.3,-9.6 -4.2,-34.3 -4.7,-59 -0.2,-10.5 -0.8,-24.6 -1.4,-31.5 -0.6,-6.9 -1.3,-15.9 -1.5,-20 -0.2,-4.1 -0.7,-13.4 -1.2,-20.5 -0.5,-7.2 -0.7,-33.7 -0.6,-59 0.5,-84.4 0.7,-95.1 2,-96.6 0.9,-1.2 11.1,-1.4 64.5,-1.1 34.8,0.1 76.6,0.7 92.8,1.2 z m 473,11.4 c 69.5,1.9 83.9,2.7 152,8.1 42.2,3.3 63.1,4.3 124.5,5.5 28.6,0.6 66.9,1.5 85,2 18.2,0.6 51.7,1.3 74.5,1.6 29.6,0.5 41.9,1 42.8,1.8 0.9,0.9 1.2,12.5 1.3,51.1 0.2,49 0.8,63.1 4.4,102 1.2,13.3 1.4,22.1 0.8,40.5 -0.4,12.9 -0.7,45.3 -0.7,72 0,58.3 0.8,68 7.9,95.5 3.4,13 3.4,12.7 0.5,14.2 -2.6,1.4 -7.5,1.2 -23,-0.8 -17.1,-2.2 -33.2,-2.9 -63.7,-2.9 -17.7,-0.1 -45.2,-0.7 -61,-1.5 -15.8,-0.8 -42.1,-1.5 -58.3,-1.5 -16.2,0 -43,-0.7 -59.5,-1.5 -16.5,-0.8 -45.5,-1.5 -64.5,-1.5 -19,-0.1 -38.1,-0.5 -42.5,-1.1 -20.8,-2.5 -139.8,-1.3 -159.4,1.7 -13,1.9 -13.4,1.7 -12.1,-7.6 1.7,-11.5 0.8,-48.4 -1.5,-62.5 -0.9,-5.1 -2.6,-26.6 -2.9,-36 -1,-29.1 -1.9,-48.1 -2.2,-48.6 -0.2,-0.3 -0.4,-20.1 -0.4,-44 -0.1,-23.9 -0.5,-48.1 -1,-53.9 -1.6,-18.3 -3.1,-45.9 -3.6,-66 -0.2,-10.7 -0.7,-21.8 -1,-24.5 -0.4,-2.8 -0.7,-7 -0.9,-9.5 -0.1,-2.5 -0.7,-10.3 -1.4,-17.3 -0.7,-7 -1,-13.5 -0.7,-14.3 0.8,-2.1 4.6,-3.4 8.6,-2.9 1.9,0.2 28,1.1 58,1.9 z m 719.4,3.2 c 4.6,1.8 -3,6.1 -8.4,4.7 -4.8,-1.3 -4.7,-2.7 0.2,-4 5.7,-1.3 6.4,-1.4 8.2,-0.7 z m 39.4,2.8 c 1.4,1.4 1.4,1.6 -0.1,2.2 -4.2,1.6 0.8,5.4 6.9,5.4 2.8,0 3.2,2.4 0.7,3.9 -1.6,0.9 -1.6,1.2 -0.3,2.1 0.8,0.5 2.6,1 4,1.1 1.4,0 3.6,0.2 5,0.4 1.4,0.2 25.5,0.8 53.5,1.4 63.8,1.4 108.4,2.9 124,4.2 6.6,0.5 25.6,2.1 42.2,3.4 16.6,1.3 31.1,2.9 32.3,3.5 1.9,1 2.1,1.7 1.6,5.8 -2.5,19.7 -4.6,68.2 -3.6,82.7 0.4,5.8 -1.1,37.3 -2,40.5 -1.7,6.2 -0.1,96.9 2,111.5 0.9,6.4 1.5,19.5 2.6,52.5 0.2,6.9 0.6,18.8 0.8,26.4 0.3,7.7 0.1,15.9 -0.5,18.4 -0.5,2.4 -1.2,9.4 -1.6,15.5 -0.6,9.9 -0.9,11.4 -3,13.5 -2.2,2.2 -3,2.4 -8.6,1.8 -13.4,-1.4 -46.6,-2.6 -73.7,-2.6 -15.7,-0.1 -37.7,-0.5 -49,-1 -57,-2.6 -84.6,-2.3 -124.4,1.1 -7.7,0.7 -12.2,0.7 -12.8,0.1 -0.7,-0.7 0,-3.2 2,-7.4 1.7,-3.4 5.6,-12.2 8.8,-19.3 7.7,-17.7 15.7,-32.3 22,-39.9 2.8,-3.4 5.5,-7.3 5.9,-8.7 0.4,-1.3 2,-3.8 3.6,-5.4 3.1,-3.4 7.9,-14.1 7.9,-17.9 0,-1.5 -1.3,-3.6 -3.6,-5.6 -4.1,-3.6 -7.3,-3.5 -13.4,0.5 -7,4.5 -20.2,19.6 -28.7,32.8 -7.5,11.7 -10.9,15.7 -13.4,15.7 -3.2,0 -4.1,-6.3 -4.1,-29.7 0,-20.7 0.7,-33.9 2.2,-41.3 0.5,-2.5 1.1,-8.6 1.4,-13.5 0.3,-5 1,-13.7 1.5,-19.5 0.5,-5.8 0.8,-16.1 0.6,-23 -0.6,-19.9 -0.5,-51.3 0.1,-81.3 0.7,-36.2 -1.3,-56.5 -7.6,-74.2 -3.8,-10.6 -4.4,-14.5 -2.7,-16.2 3.6,-3.6 6.9,0.5 18.7,23.2 3.4,6.6 7.1,14.4 8.1,17.4 1,2.9 2.3,5.9 2.8,6.5 2,2.5 13.1,33 13.1,36 0,2.2 5.7,9.7 8.2,10.7 3.8,1.5 7.9,-0.2 11.5,-5 2.4,-3.1 2.8,-4.5 2.8,-10.1 0,-4.3 -0.6,-7.3 -1.7,-9 -0.9,-1.4 -3.1,-6.8 -4.9,-12 -1.7,-5.2 -3.8,-10.7 -4.5,-12.1 -0.7,-1.5 -1.5,-3.7 -1.8,-5 -0.7,-3.8 -6.1,-16 -12.9,-29.4 -2.5,-4.9 -8.6,-14.7 -12.5,-20 -1.6,-2.2 -4,-6 -5.2,-8.3 -2.1,-4.2 -2.1,-4.5 -0.3,-6.4 1.7,-1.9 1.7,-2 -1.6,-4.7 -2.5,-2.1 -3.3,-3.4 -2.9,-4.9 0.5,-1.7 -0.1,-2.4 -3.3,-3.6 -3.8,-1.6 -5.1,-3.9 -2.6,-5 2.1,-1 8.9,0.2 10.5,1.8 z m -2027.7,1.6 c 1.5,0.8 1.9,2.1 1.9,5.8 0,4.8 -2.1,22.9 -4,33.7 -1.2,7.5 -1.2,26.1 0,47 1.9,30.7 4.1,76 4.5,93 0.2,6 0.8,13.5 1.5,16.5 0.6,3 1,11.3 1,18.5 -0.1,7.1 -0.1,13.4 0,14 0.8,6 0.6,42.1 -0.4,61 -0.7,13.2 -1.2,40 -1.1,59.5 0.2,19.5 0.3,40.7 0.3,47 0,6.3 0.1,12.4 0.1,13.5 0.7,15.1 0.9,16.9 3.2,20.8 5.3,8.9 5,8.8 20.6,8.1 7.6,-0.3 18.2,-0.9 23.6,-1.5 5.4,-0.5 16.4,-0.9 24.5,-0.9 18.1,0 36.3,-1.7 72.7,-6.9 15.4,-2.2 33.2,-4.5 39.5,-5.1 16.7,-1.6 38.9,-4.4 68,-8.4 46.2,-6.3 40.3,-6.1 163.5,-5.9 105.3,0.2 140.2,0.9 176.5,3.4 34.2,2.3 36.1,2.6 38.9,4.8 5.5,4.4 6.4,4.5 13.1,1.5 6.1,-2.7 6.2,-2.7 10.9,-1 2.9,1 9.4,1.9 16.7,2.3 10.3,0.5 14.1,0.2 26.4,-2 8,-1.4 19.7,-3.1 26,-3.6 6.3,-0.6 17.6,-1.7 25,-2.5 30.6,-3.2 50.1,-3.9 92.5,-3.3 23.1,0.3 49,1.1 57.5,1.8 18.8,1.5 66.1,1.6 187.5,0.5 99.6,-1 105.5,-1 119,-0.6 6.5,0.1 10.3,-0.3 13.5,-1.5 3.1,-1.1 10.2,-1.9 23,-2.6 10.2,-0.5 24.8,-1.4 32.5,-1.9 28.7,-2.1 72.5,-3 89,-1.9 8.8,0.6 40.3,1.4 70,1.9 29.7,0.4 66.8,1.3 82.5,1.8 15.7,0.6 43.8,1.3 62.5,1.7 18.7,0.3 40.3,1 48,1.5 7.7,0.5 30,0.9 49.5,1 19.5,0.1 40.2,0.5 46,1 19.3,1.7 30.7,2.3 33.4,1.6 4,-1 7.7,-10.9 8,-21.4 0,-2.8 0.5,-5.2 0.9,-5.2 0.5,0 0.6,-0.4 0.3,-0.9 -0.3,-0.5 0.1,-1.1 0.9,-1.5 0.9,-0.3 1.5,-1.8 1.5,-3.5 0,-2.4 0.5,-3.2 2.5,-3.7 3.4,-0.8 5.5,1.1 5.5,5.2 0,1.9 0.5,4.3 1.2,5.3 0.9,1.6 0.6,2.4 -2.5,5.5 -4.9,4.8 -5.6,7.9 -2.8,11.7 1.2,1.7 2.1,3.5 1.9,4.1 -0.2,0.6 -3.3,2.7 -6.8,4.7 -8.4,4.8 -9.4,7.3 -5.1,14 3.2,4.9 6.4,7.1 10.5,7.1 3.4,0 10.5,-5.6 12.2,-9.5 2.5,-6 3.6,-6.2 38.9,-6.8 17.6,-0.4 39.7,-1.3 49,-2.1 37.1,-3.3 46.6,-3.1 91,1.7 15,1.6 63,1.5 103,-0.2 27.4,-1.1 39,-1.2 68.5,-0.1 35,1.2 42.9,1.4 122.7,2.4 l 40.2,0.6 3.6,2.4 c 7.1,4.8 11.9,4.3 15.5,-1.7 2.6,-4.1 2.5,-6.2 -0.2,-10 -1.9,-2.6 -2.3,-4.4 -2.1,-9.7 0.2,-7.2 1.8,-21.9 3.5,-32.4 0.9,-5.4 0.8,-12.4 -0.5,-33.5 -1,-14.6 -1.7,-31.1 -1.7,-36.7 0,-5.5 -0.4,-12.5 -0.9,-15.5 -0.5,-3 -1.2,-8.6 -1.5,-12.4 -0.3,-3.9 -1,-12.4 -1.6,-19 -0.5,-6.6 -1.2,-15.7 -1.5,-20.3 -0.6,-11.1 -0.6,-65 0.1,-73.2 0.3,-3.6 0.7,-23.4 0.9,-44 0.2,-20.6 0.8,-45.8 1.4,-56 0.5,-10.2 0.7,-20.1 0.5,-22 -0.2,-1.8 -0.1,-4.2 0.2,-5.2 0.7,-2.4 5.3,-4.7 8.4,-4.2 59.8,10 59.7,10 77.9,27.7 15.7,15.4 23.6,31.7 32.6,67.7 3.8,15.3 7.8,37.7 7,39.1 -0.3,0.4 -0.1,2.7 0.4,5.1 0.6,2.4 1.7,12.2 2.5,21.8 0.9,9.6 2,21.1 2.5,25.5 2,16.1 3.1,29.2 3.1,35.5 0,8.5 1.7,32.8 3.6,51 1,9.8 1.7,29.1 2,59 0.2,24.5 0.9,51.9 1.4,61 2.2,37 2.2,37.4 -0.5,40 -3.4,3.2 -3.1,4.1 1.1,3.8 5.1,-0.4 5.4,1.7 0.5,4.1 -4.7,2.4 -5.9,4 -4,5.2 2.3,1.4 3.7,1 7.2,-2.1 3.4,-2.9 6.1,-3.8 7.1,-2.2 0.4,0.7 -1.5,16.8 -3.9,32.2 -1.2,7.4 -4.4,17.3 -6.5,19.5 -1.1,1.1 -2.6,4.1 -3.5,6.5 -3.7,10.5 -12.1,21 -16.7,21 -0.6,0 -3.6,1.2 -6.7,2.7 -13.2,6.2 -22.3,10 -42.1,17.6 -12.7,4.9 -17.7,6.5 -34,11.1 -20.7,5.7 -29.2,7.1 -68,11.1 -18.8,2 -34.3,2.8 -67,3.5 -23.4,0.5 -58.9,1.7 -79,2.6 -60.2,2.8 -124.3,1.1 -212,-5.5 -14.6,-1.1 -42.5,-2.9 -62,-4 -19.5,-1.1 -37.5,-2.3 -40,-2.6 -5,-0.5 -46.1,-2.9 -80.5,-4.5 -22.5,-1.1 -103,-1.3 -200.5,-0.5 -231.6,2 -273.4,2.1 -442,1.7 -102.3,-0.3 -111.6,-0.2 -140.5,1.7 -17,1.2 -40.4,2.6 -52,3.1 -49.4,2.3 -64.3,3.2 -86,5.1 -12.6,1 -34.5,2.6 -48.5,3.4 -14,0.9 -34.3,2.2 -45,3 -34.3,2.6 -64.9,4.3 -86.5,5 -11.5,0.3 -31.1,1 -43.5,1.5 -12.4,0.5 -36.2,1.2 -53,1.5 -16.8,0.3 -37.2,1 -45.5,1.5 -32.8,2.1 -49,3 -72,4 -26.8,1.2 -44.3,2.2 -77.5,4.6 -15.2,1.1 -40,1.7 -76.5,1.9 -29.7,0.1 -80.5,0.6 -113,1 -50,0.6 -62.4,0.4 -81.5,-1 -33.6,-2.4 -33.9,-2.4 -42.5,-3.5 -16.2,-2 -27.4,-3.1 -43.5,-4 -9,-0.5 -17.6,-1.2 -19,-1.5 -1.5,-0.3 -7.8,-1 -14.1,-1.5 -11.4,-0.8 -21,-2.4 -36.9,-6 -10.7,-2.5 -26.2,-4 -44.9,-4.5 -8,-0.2 -20.2,-0.7 -27.1,-1 -6.9,-0.3 -21.7,-0.8 -33,-0.9 -17.1,-0.3 -21.6,-0.7 -27,-2.4 -3.6,-1.1 -11,-2.8 -16.5,-3.7 -5.5,-0.9 -12.2,-2 -14.8,-2.6 -2.7,-0.5 -6.1,-0.9 -7.6,-0.9 -1.5,0 -4.9,-1.4 -7.7,-3.1 -2.7,-1.8 -8.2,-4.7 -12.2,-6.5 -4,-1.8 -7.2,-3.9 -7.2,-4.7 0,-0.8 -1.7,-3.4 -3.8,-5.8 -3.7,-4.2 -3.9,-4.9 -5,-15 -0.9,-7.9 -1,-11.3 -0.1,-13.8 0.8,-2.4 0.8,-4.2 0,-7.4 -0.7,-2.3 -1.2,-8.5 -1.3,-13.7 0,-5.2 0,-15.1 -0.1,-22 0,-6.9 0,-14.1 -0.1,-16 0,-8.5 1.5,-53.1 2.4,-69 0.6,-9.6 1.3,-24 1.5,-32 0.3,-8 0.7,-15.6 0.9,-17 0.3,-1.4 0.8,-14.4 1.1,-29 0.3,-14.6 0.8,-30.3 1,-35 0.3,-4.7 0.7,-16.4 1,-26 0.3,-9.6 1,-18.9 1.6,-20.8 0.6,-1.8 0.9,-4.2 0.6,-5.3 -0.3,-1.2 -0.2,-7.5 0.3,-14.2 0.5,-6.7 1.2,-24.8 1.5,-40.2 1.2,-49.9 4.6,-86.9 9.4,-101.9 1,-2.9 2.1,-8.8 3.9,-19.6 0.7,-4.2 2,-7.1 9,-20.7 3.2,-6.3 10.7,-14.1 18.4,-19.2 6.6,-4.5 20.4,-9.7 28,-10.7 2.9,-0.3 11.9,-2.1 19.9,-4 10,-2.2 19.4,-3.6 30,-4.4 8.5,-0.6 23.1,-1.7 32.4,-2.5 32.5,-2.8 71.1,-5.4 91,-6.3 11,-0.5 21,-0.9 22.3,-1 1.3,-0.1 3.2,0.3 4.3,0.8 z m 1978.4,10.2 c -0.3,4.2 -1.7,8.1 -7.3,19.3 -13.6,27.2 -26.2,59 -26.2,65.9 0,6.3 7.1,13.6 13.3,13.6 4,0 8.4,-2.6 10.1,-5.8 0.7,-1.5 1.9,-6.4 2.5,-10.9 0.7,-4.5 2.2,-10.8 3.5,-14.1 1.3,-3.2 2.9,-8.2 3.5,-11 3,-12.2 11.2,-13.6 13.1,-2.2 0.5,3 1.4,8.2 2.1,11.5 1.1,6.2 0.8,21.8 -1.1,53 -0.6,8.9 -0.8,35.7 -0.5,60.5 0.3,25.1 0.1,48 -0.4,52.5 -5,42.4 -5.1,51.5 -0.3,76.8 1,5.3 -0.1,7.1 -4,6.5 -2,-0.3 -3.9,-2.4 -11.2,-12.8 -12.9,-18.1 -17,-22 -23.6,-22 -4,0 -8.4,4.2 -10,9.8 -1.2,3.9 -1.2,4.2 2.4,9.4 2,2.9 4.8,6.9 6.1,8.8 2.3,3.3 5.6,7.7 14.9,20.1 2.3,3.1 7.9,11.3 12.5,18.3 4.6,7 9,13 9.8,13.3 0.8,0.3 3.1,-0.2 5,-1.1 3,-1.4 3.8,-1.5 4.9,-0.4 1,1 0.9,2.5 -0.7,7.3 -1.1,3.3 -1.7,7.2 -1.5,8.6 0.4,1.9 -0.1,3.2 -1.6,4.5 -2.6,2.4 -12.9,2.2 -37.6,-0.6 -22.8,-2.6 -49.7,-2.6 -83,0.1 -14.1,1.1 -31.7,2.1 -39.1,2.2 -14.3,0.2 -13.2,0.6 -15.9,-5.1 -1.4,-2.7 -7.2,-6.2 -10.4,-6.2 -3.3,0 -7.4,1.9 -13.4,6.2 -3.2,2.3 -5,2.9 -7.9,2.6 -4.1,-0.3 -5.7,-2.1 -2.8,-3.2 2.9,-1 6.9,-3.6 5.7,-3.6 -0.8,0 -1,-1.5 -0.6,-4.5 0.2,-2.5 -0.1,-7.3 -0.8,-10.8 -1.3,-6.6 -2.4,-15.2 -3.9,-30.7 -0.6,-5.2 -1.2,-27 -1.5,-48.3 -0.3,-21.3 -0.7,-39.1 -0.9,-39.5 -0.2,-0.4 0,-8.4 0.5,-17.7 1.4,-25 1.1,-53.3 -0.6,-69.6 -2.8,-25.8 -3.3,-37.2 -4.2,-86.4 -0.3,-16.5 -0.7,-31.3 -0.9,-32.9 -0.2,-1.6 -0.5,-8.4 -0.6,-15.2 -0.4,-15.9 -0.3,-16 11.9,-15.6 4.8,0.1 38.2,0.6 74.2,1.1 70.9,1 107.8,0.7 109.3,-0.8 0.5,-0.5 0,-1.5 -1.3,-2.4 -3.2,-2.2 -1.6,-3.7 3.9,-3.7 l 4.8,0 -0.2,5.2 z m 30.3,335.5 c 0.2,2.3 -0.2,3.4 -1.7,4.2 -4.4,2.4 -7,-2.2 -3.4,-6.1 2.4,-2.7 4.7,-1.9 5.1,1.9 z m -1359,45.8 c 0.7,0.7 -1.8,7.8 -3.4,9.6 -2.4,2.7 -10.2,2.6 -13.8,-0.2 -4.4,-3.5 -2.9,-7.3 3.9,-9.7 2.6,-1 12.3,-0.8 13.3,0.3 z m 1659.2,13 c 0,1.6 -3,3.5 -5.4,3.5 -1.6,0 -2.2,-3 -0.9,-4.3 1.3,-1.4 6.3,-0.7 6.3,0.8 z m 140.7,159.2 c 3.3,3.7 3.3,3.8 1.3,4.7 -1.6,0.7 -2.7,0.3 -5,-1.9 -3.3,-3.1 -4,-6.5 -1.4,-6.5 0.9,0 3.2,1.7 5.1,3.7 z m -45.5,17.5 c -0.5,0.5 -2,0.7 -3.2,0.3 -1.7,-0.5 -1.9,-1 -0.9,-2.1 0.8,-1 1.6,-1.1 3.1,-0.3 1.4,0.7 1.7,1.4 1,2.1 z m -9.2,1.3 c 0,1.6 -0.2,1.7 -4.2,2 -2.6,0.2 -3.7,-1.3 -2.1,-2.8 1.3,-1.4 6.3,-0.7 6.3,0.8 z"
       id="path7682"
       inkscape:connector-curvature="0"
       style="fill:#000000;stroke:none" />
    <path
       d="m 3308.5,658.0102 c -6.6,0.4 -15.8,1.3 -20.5,1.9 -4.7,0.7 -20.9,1.4 -36.1,1.6 -15.2,0.2 -28.8,0.8 -30.2,1.3 -3.3,1.3 -10.7,7.9 -10.7,9.6 0,0.7 1.9,3.4 4.3,6 4.8,5.4 12.5,8.5 21.3,8.5 4.9,0 48.3,-3.5 55.4,-4.5 35.2,-4.8 45.7,-8.2 49.7,-15.9 1.5,-2.9 1.4,-3.1 -1.1,-5.2 -5.1,-4.4 -9.1,-4.8 -32.1,-3.3 z"
       id="path7686"
       inkscape:connector-curvature="0"
       style="fill:#000000;stroke:none" />
    <path
       d="m 3492.5,666.1102 c -6,0.5 -23.8,1 -39.5,1.1 -24.4,0.2 -29,0.5 -31.6,2 -4.9,2.5 -9.4,6.7 -9.4,8.5 0,1 2,3.9 4.3,6.6 4,4.6 4.6,4.9 12.2,6.3 6.1,1.1 12.3,1.3 26.3,0.7 15.7,-0.5 18.2,-0.4 18.2,0.9 0,0.8 -0.7,2.1 -1.7,2.8 -1.5,1.3 -7.1,9.4 -16.7,24.3 -4.9,7.7 -13.1,22.5 -21.3,38.6 -3.5,6.9 -7.5,14.3 -8.8,16.5 -1.8,2.9 -2.5,5.4 -2.5,9.5 0,3 0.4,6 0.8,6.7 1.1,1.7 5.8,3.3 9.9,3.3 2.9,0 4.3,-0.8 7.9,-4.8 2.5,-2.7 5.5,-7.5 7,-11.2 1.4,-3.6 3.4,-8.5 4.5,-11 1,-2.5 3,-7.7 4.5,-11.5 1.5,-3.9 5.9,-13.1 9.7,-20.5 3.8,-7.4 8,-15.6 9.3,-18.1 2.3,-4.8 6.7,-7.5 9.9,-6.3 1.8,0.7 2,4 0.3,5.1 -1.4,0.9 -3.1,3.6 -6.4,10.4 -2.6,5.2 -2.9,12.5 -2,42.8 0.3,10.2 0.1,21.6 -0.4,25.4 -0.6,3.8 -1.3,11.6 -1.5,17.3 -0.3,5.7 -1.2,13.5 -1.9,17.2 -1.2,6 -1.9,16.6 -2,31.7 -0.1,13.4 1.4,48.9 2.4,55.5 0.6,4.1 1.3,14.2 1.5,22.5 0.3,8.2 0.7,20.8 1,28 0.3,7.1 0.8,27.6 1.1,45.5 0.3,17.9 0.8,38.8 1,46.5 0.2,7.7 0.3,16.5 0.2,19.5 -0.3,11.7 0,46.5 0.7,69.3 0.4,13 0.4,24.8 0.1,26.1 -0.7,2.8 -4.1,4.3 -6,2.7 -1.6,-1.3 -4.1,-11.3 -5.9,-23.6 -1.6,-10.4 -3.6,-14.9 -7.7,-17 -11,-5.7 -15.7,5.3 -10.8,25 0.5,2.2 1.5,6.7 2.3,10 4.3,19.8 8.9,35.3 14.6,48.8 2.8,6.5 4.9,12.6 4.7,13.5 -0.2,0.9 -1.4,2.2 -2.8,2.9 -3.8,1.8 -28.8,3.1 -54.1,2.8 l -22.6,-0.3 -4.9,2.8 c -5.1,2.9 -10.4,9.2 -10.4,12.4 0,2.1 5,7 9.4,9.3 5,2.7 16.2,4.2 30.6,4.2 12.9,0.1 14.4,-0.1 31.5,-4.5 15,-3.8 20,-4.7 30.2,-5.1 11.5,-0.5 12.4,-0.4 17.6,2.1 6.4,3 9.2,3.2 16,1.1 3.8,-1.1 6.4,-1.2 12.5,-0.4 25.2,3.2 61.2,4.5 82.2,2.9 15.9,-1.2 37.5,-3.4 49,-5 3.6,-0.5 11,-1.4 16.5,-2 5.5,-0.7 12.7,-2 16,-3.1 6.8,-2.2 13.5,-7.1 13.5,-9.9 0,-3 -3.7,-5.7 -9.3,-6.7 -8.3,-1.6 -31,-1.6 -47.2,0.1 -31.8,3.2 -48.7,3.9 -80.9,3.3 -26.1,-0.5 -32.2,-0.8 -33.4,-2 -1.2,-1.3 -0.7,-2.8 4.3,-11.8 5.5,-9.8 7.5,-13.1 15.9,-26.1 1.8,-2.9 5.2,-9 7.4,-13.5 l 4,-8.2 -1,-7.8 c -1.2,-8.7 -3,-11.3 -7.9,-11.3 -3.6,0 -9.1,4.7 -12.6,10.9 -1.4,2.5 -6.9,11.1 -12.1,19.1 -13,19.9 -15,23 -20.2,32.5 -4.2,7.7 -7.9,11.7 -10.5,11.3 -1.9,-0.3 -2,-1.1 -2.3,-20.3 -0.2,-16.5 0,-20.7 1.4,-24.3 1.1,-3.1 1.7,-8.4 1.8,-19.5 0.2,-8.3 0.8,-17.1 1.5,-19.5 0.9,-3.2 0.9,-6.2 0.1,-12.1 -0.6,-4.7 -0.8,-14.2 -0.5,-23.2 0.8,-18.8 0.6,-67.9 -0.1,-69.1 -0.4,-0.5 -0.8,-21.7 -1,-47.1 -0.3,-30.3 -0.8,-47.2 -1.6,-49 -0.6,-1.5 -0.8,-5.2 -0.5,-8.1 0.3,-3 0.1,-7.2 -0.4,-9.4 -1.7,-7.7 -3.7,-66.4 -2.7,-80.2 1.1,-16.4 1,-67.8 -0.3,-85 -1.6,-22.3 -1.6,-29.4 0,-31.4 1.6,-1.9 4.5,-2.1 5.8,-0.4 0.6,0.7 3.3,10.3 6.1,21.3 4.3,17.1 7.8,29.2 13.3,45.5 0.6,1.9 1.8,4.8 2.7,6.5 0.8,1.6 2.8,5.6 4.4,8.7 1.6,3.1 3.3,6 3.8,6.3 0.5,0.3 1.7,2.1 2.6,4.1 2.8,5.9 9.2,5.8 15.2,-0.2 3,-3 3.4,-3.9 2.9,-6.9 -0.3,-1.9 -1.9,-5.4 -3.4,-7.7 -4.2,-6.2 -10.2,-20.1 -12.2,-28.3 -2.6,-10.5 -4.4,-17.3 -5.3,-20 -0.5,-1.7 -1.8,-6.8 -2.9,-11.5 -3.3,-13.9 -4.7,-19.3 -5.8,-22.5 -0.6,-1.7 -2.3,-6.8 -3.8,-11.5 -3.1,-9.3 -7.4,-15.7 -15.6,-23.2 -7.5,-6.8 -6.4,-7.5 13.5,-8.7 11.9,-0.7 16.8,-1.4 20.2,-2.9 7.8,-3.5 8.6,-8.1 2.3,-13.9 l -4.3,-3.9 -14.4,-0.1 c -8,0 -19.4,0.4 -25.5,0.9 z"
       id="path7688"
       inkscape:connector-curvature="0"
       style="fill:#000000;stroke:none" />
    <path
       d="m 3565.7,668.0102 c -4.6,1.1 -10.9,4.2 -12.6,6.3 -1.1,1.2 -1,2.4 0.4,6.5 2.5,7.6 5.9,8.9 28.5,10.7 15.4,1.2 19.6,1.2 27.9,0 10.7,-1.5 14,-3.1 17.1,-8.1 1.9,-3.1 2,-3.7 0.6,-6.8 -2.3,-5.6 -4.8,-6.7 -15.1,-6.7 -4.9,0 -13,-0.7 -18,-1.5 -9.8,-1.6 -22.8,-1.8 -28.8,-0.4 z"
       id="path7690"
       inkscape:connector-curvature="0"
       style="fill:#000000;stroke:none" />
    <path
       d="m 3212,1241.4102 c -1.9,0.9 -5.2,3.2 -7.2,5.3 -3.2,3 -3.8,4.3 -3.8,7.7 0,3 0.6,4.7 2.3,6.2 7.6,7 20.5,8.8 42.3,5.8 31.1,-4.2 37.6,-5.9 42.7,-11.3 3.3,-3.7 4.1,-7.5 1.9,-9.4 -4.2,-3.7 -9,-4.2 -38.7,-4.3 -15.9,0 -30.6,-0.4 -32.5,-0.8 -2.4,-0.5 -4.6,-0.2 -7,0.8 z"
       id="path7702"
       inkscape:connector-curvature="0"
       style="fill:#000000;stroke:none" />
  </g>
  <text
     xml:space="preserve"
     style="font-style:normal;font-weight:normal;font-size:228.87757874px;line-height:125%;font-family:sans-serif;letter-spacing:0px;word-spacing:0px;fill:#000000;fill-opacity:1;stroke:none;stroke-width:1px;stroke-linecap:butt;stroke-linejoin:miter;stroke-opacity:1"
     x="3231.7024"
     y="415.67899"
     id="text4161"
     sodipodi:linespacing="125%"><tspan
       sodipodi:role="line"
       id="tspan4163"
       x="3231.7024"
       y="415.67899">z</tspan></text>
  <text
     sodipodi:linespacing="125%"
     id="text10568"
     y="231.56328"
     x="2320.1018"
     style="font-style:normal;font-weight:normal;font-size:61.24618149px;line-height:125%;font-family:sans-serif;letter-spacing:0px;word-spacing:0px;fill:#000000;fill-opacity:1;stroke:none;stroke-width:1px;stroke-linecap:butt;stroke-linejoin:miter;stroke-opacity:1"
     xml:space="preserve"><tspan
       y="231.56328"
       x="2320.1018"
       id="tspan10570"
       sodipodi:role="line">depth_of</tspan><tspan
       y="316.97906"
       x="2320.1018"
       sodipodi:role="line"
       id="tspan10572">_outlets</tspan></text>
</svg>
