<?xml version="1.0" encoding="UTF-8" standalone="no"?>
<svg
   xmlns:dc="http://purl.org/dc/elements/1.1/"
   xmlns:cc="http://creativecommons.org/ns#"
   xmlns:rdf="http://www.w3.org/1999/02/22-rdf-syntax-ns#"
   xmlns:svg="http://www.w3.org/2000/svg"
   xmlns="http://www.w3.org/2000/svg"
   xmlns:sodipodi="http://sodipodi.sourceforge.net/DTD/sodipodi-0.dtd"
   xmlns:inkscape="http://www.inkscape.org/namespaces/inkscape"
   version="1.0"
   width="3324.377pt"
   height="1642.2931pt"
   viewBox="0 0 3324.3769 1642.2931"
   preserveAspectRatio="xMidYMid meet"
   id="svg8592"
   inkscape:version="0.91 r13725"
   sodipodi:docname="plugs-rounded.svg"
   inkscape:export-filename="/home/churchyard/RepRap/BI-3DT/powerplugs-task/pics/plugs-rounded.svg.png"
   inkscape:export-xdpi="22.183615"
   inkscape:export-ydpi="22.183615">
  <defs
     id="defs8648" />
  <sodipodi:namedview
     pagecolor="#ffffff"
     bordercolor="#666666"
     borderopacity="1"
     objecttolerance="10"
     gridtolerance="10"
     guidetolerance="10"
     inkscape:pageopacity="0"
     inkscape:pageshadow="2"
     inkscape:window-width="1848"
     inkscape:window-height="1056"
     id="namedview8646"
     showgrid="false"
     fit-margin-top="0"
     fit-margin-left="0"
     fit-margin-right="0"
     fit-margin-bottom="0"
     showguides="false"
     inkscape:zoom="0.26215883"
     inkscape:cx="2238.2843"
     inkscape:cy="656.58571"
     inkscape:window-x="72"
     inkscape:window-y="0"
     inkscape:window-maximized="1"
     inkscape:current-layer="svg8592" />
  <metadata
     id="metadata8594">
Created by potrace 1.13, written by Peter Selinger 2001-2015
<rdf:RDF>
  <cc:Work
     rdf:about="">
    <dc:format>image/svg+xml</dc:format>
    <dc:type
       rdf:resource="http://purl.org/dc/dcmitype/StillImage" />
    <dc:title></dc:title>
  </cc:Work>
</rdf:RDF>
</metadata>
  <path
     style="opacity:1;fill:#bfbfbf;fill-opacity:1;stroke:none;stroke-width:1.75393701;stroke-linecap:round;stroke-linejoin:round;stroke-miterlimit:4;stroke-dasharray:none;stroke-opacity:1"
     d="M 603.84904,17.1966 C 458.31864,19.126619 312.36057,14.41936 167.16541,25.920737 138.56396,31.325112 110.85347,40.425395 82.114398,44.903742 46.801817,53.756153 20.918983,88.256044 25.63474,125.03765 c -0.266763,99.36846 23.244411,196.82883 23.269024,296.18396 4.098491,187.4961 20.111479,375.88056 15.716243,563.01517 0.08652,15.509 -1.935376,30.56432 -10.413907,43.27592 -8.738209,65.4825 10.894246,130.7283 5.118259,196.4309 -9.754351,157.5503 -3.874774,315.8512 9.017476,473.182 7.632911,86.3557 15.45407,173.4064 34.506355,258.0511 9.75459,21.7806 25.51641,45.0769 47.18533,54.4875 155.4817,15.6385 311.66151,-4.8335 467.29285,-0.7197 30.48865,10.0013 64.70554,2.0136 96.33801,0.8195 83.76082,-11.736 168.81724,-2.2488 253.0868,-2.5985 324.51872,7.713 649.44892,14.1576 973.72342,20.5385 78.1946,-3.1586 158.5194,5.2715 234.9557,-14.9152 56.4405,-18.936 106.9658,-52.6113 146.6097,-97.0112 14.4124,-12.4911 26.588,-29.7323 44.1591,-37.4269 52.168,38.8831 88.068,103.2118 154.9134,121.2057 37.6702,14.7083 79.8864,2.7744 119.5474,5.6808 253.3675,-4.4099 506.6968,-11.7821 760.1352,-10.4393 83.8678,-2.3004 168.3873,2.8034 251.816,-7.0177 52.5023,-11.5874 97.9008,-44.1677 131.7647,-85.2529 85.4954,-87.1522 140.7016,-197.5095 200.164,-302.721 58.6309,-108.7524 115.2065,-222.4887 128.5511,-347.059 15.3525,-101.0888 29.3582,-202.8408 25.2687,-305.37584 0.1731,-133.73141 -17.0798,-269.65153 -68.1068,-394.01549 -54.9629,-124.16694 -123.2768,-243.5219 -210.4011,-347.9758 -42.9691,-40.9149 -86.2455,-87.94208 -145.7843,-103.25414 C 3668.453,83.121599 3620.5895,69.115269 3570.77,69.082232 3360.6717,58.960955 3150.5204,47.982967 2940.1002,48.977252 c -132.7697,1.236659 -265.9226,-4.775485 -398.4252,5.258164 -73.5746,6.691321 -133.8808,60.843564 -170.3577,122.104034 -6.4744,7.49958 -14.23,30.41655 -22.5665,12.54607 C 2286.7634,125.48557 2218.9311,54.160556 2126.3293,42.01501 1992.1908,24.10484 1856.3854,22.435468 1721.2404,19.814079 1348.7892,16.987069 976.30962,17.280556 603.84904,17.1966 Z"
     id="path9214"
     inkscape:connector-curvature="0"
     transform="scale(0.8,0.8)" />
  <path
     style="fill:#000000;stroke:none"
     inkscape:connector-curvature="0"
     id="path8602"
     d="m 1135.3877,0.39237403 c -26.9,0.4 -82.5,0.99999997 -123.5,1.39999997 -40.99999,0.4 -105.99999,1.2 -144.49999,1.7 -38.5,0.6 -118.49998,1.2 -177.69998,1.5 -98,0.5 -108.3,0.4 -113.4,-1.1 -4.6,-1.3 -6.9,-1.4 -12.3,-0.6 -3.6,0.5 -11.8,0.9 -18.1,0.9 -6.3,-0.1 -17.8,0.4 -25.5,1.1 -16.3,1.4 -48.3,1.4 -77.5,0.1 -35.3,-1.6 -196.9,0.2 -228.4,2.5 -3.8,0.3 -15.3,1 -25.5,1.5 -10.2,0.5 -26.2,1.4 -35.6,2 -9.3,0.5 -24.9,1 -34.5,0.9 -26.799995,-0.1 -36.099995,0.4 -39.499995,2.2 -1.6,0.9 -5,2 -7.5,2.4 -8.3,1.3 -15.4,3.7 -22.9,7.6 -8.9,4.8 -13.3,8.1 -22.4,16.8 -7,6.8 -18.7000002,23.2 -18.7000002,26.4 0,0.9 -1.2,4.5 -2.6,8 -1.4,3.5 -2.7,9.1 -3,12.7 -0.3,3.6 -0.9,8.3 -1.40000004,10.5 -1.4,6.199996 -1.2,11.199996 1.00000004,18.399996 1.7,6 2.8,12.4 4.9,29.6 0.4,3.3 1.6,7.8 2.8,10 1.5000002,2.9 2.2000002,6.7 2.6000002,14 0.3,5.5 1.5,15.8 2.6,23 1.1,7.1 2.5,21.5 3.1,32 0.8,15.5 1.5,20.6 3.7,28 2.6,8.9 2.6,9.5 2.9,43.5 0.1,19 0.5,39 0.9,44.5 0.4,5.5 0.9,25.7 1.1,45 0.3,35.8 1.4,56.4 4,73.9 1.8,12.5 3.3,50.2 3.4,86 0,25.9 0.4,31.4 3.5,53.2 0.1,1.1 0.6,12.1 0.9,24.5 0.4,12.3 1.1,31.2 1.6,41.9 1.4,30.8 1.5,36.3 1.4,56 -0.1,21.3 -1.1,43.9 -2.5,59 -1.7,17.5 -2.1,38 -1.5,74 0.1,3 -0.2,16.4 -0.7,29.7 -0.4,13.3 -0.9,38.5 -1.1,56 -0.2,17.5 -0.6,34.3 -0.9,37.3 -0.5,5.2 -2.1,41.50003 -3.2,72.50003 -0.2,7.7 -0.9,22.8 -1.6,33.5 -1,17.9 -0.6,91.1 0.6,109.8 0.8,12.3 1.7,25.6 2,30.7 0.2,2.7 1,10 1.9,16.1 1.5,10.2 2,17.3 3.1,42.4 0.3,5.2 0.9,17.6 1.4,27.5 0.5,9.9 1.3,27.9 1.6,40 0.5,18.2 2.7,44 5,58 1.4,8.6 4.5,32.8 7,55 0.7,6.6 2.4,18.5 3.6,26.5 1.3,8 2.2,16.5 2,19 -0.1,2.5 -0.3,9.2 -0.3,15 0,9.2 0.4,11.7 3.1,19.7 1.8,5.1 3.4,11.6 3.7,14.5 0.3,2.9 1.4,7.2 2.5,9.5 1,2.4 1.9,4.7 1.9,5.3 0,1.9 7.6,14.8 13.4,22.5 7.5,10.1 13.6,16.6 20.399995,21.7 7.3,5.5 12,7.3 23.8,9.3 8.9,1.5 10.9,1.6 16.5,0.4 6.9,-1.4 13.9,-1.5 32.4,-0.4 11.8,0.7 12.3,0.7 21.2,-2.4 8.5,-2.9 9.9,-3.1 23.9,-3.1 8.2,0 26.8,-0.5 41.4,-1 14.6,-0.5 33.7,-1.2 42.5,-1.5 8.8,-0.3 20.7,-0.7 26.5,-1 5.8,-0.3 26.5,-0.7 46,-1 19.5,-0.4 51.9,-1 72,-1.5 55.1,-1.4 76.8,-1.3 83.7,0.5 6.9,1.8 22.1,1.1 26.7,-1.2 2.4,-1.3 10.8,-1.4 57,-0.9 66.6,0.8 106.1,1.4 158.6,2.7 22.3,0.5 58.99998,1.4 81.49998,1.9 22.6,0.5 56.1,1.4 74.5,2 18.4,0.5 59.8,1.4 91.99999,2 32.2,0.6 74.9,1.5 95,2 36,0.9 48.4,1.1 158.5,3 53.9,0.9 93.1,2 153.3,4 15.5,0.5 55.1,1.3 88,1.6 l 59.7,0.7 2.5,2.2 c 1.4,1.2 3.5,2.8 4.7,3.4 2.7,1.4 35.7,1.4 46.2,0.1 6.7,-0.9 7.7,-0.8 10.8,1.1 3,1.9 4.4,2.1 9.9,1.5 3.5,-0.4 7.7,-1.1 9.2,-1.7 1.5,-0.6 10.4,-1.5 19.7,-1.9 9.4,-0.5 19.9,-1.5 23.5,-2.4 3.6,-0.9 7.9,-1.6 9.7,-1.6 3.8,0 25.5,-5.1 33.3,-7.9 9,-3.1 28.4,-13 41.5,-21.1 3.3,-2 9.4,-5.6 13.5,-8 4.1,-2.4 10.1,-6 13.4,-8.1 3.2,-2.1 7.5,-4.2 9.5,-4.5 2,-0.4 4.8,-1.3 6.3,-2.1 4,-2 27.7,-24.1 46.5,-43.2 13.8,-14.1 16.4,-16.3 18.1,-15.5 1,0.5 5.2,4.7 9.3,9.4 8.5,9.8 35.7,38.3 43,45.1 3.1,2.9 5.4,6 6,8.2 1.2,4.3 4,6.5 13.4,10.2 3.9,1.5 8.1,3.7 9.5,4.9 6.9,6.2 15.3,10 35,15.7 10,2.9 16.3,4.1 20.5,4.1 3.3,0 14.8,-0.1 25.5,-0.2 10.7,0 26.1,0.4 34.1,1.1 11,0.9 16.9,0.9 24.1,0 5.3,-0.6 23.7,-1.1 40.8,-1.1 30.6,0 31.3,0 37.3,-2.4 9.4,-3.7 35.5,-5.1 111.7,-6.1 23.4,-0.4 44.5,-0.8 47,-1 2.5,-0.3 18.7,-0.7 36,-1 17.3,-0.3 45.5,-1 62.5,-1.5 26.1,-0.9 116.5,-1.4 378,-2 20.4,-0.1 42.9,0.3 50,0.9 27.4,2.2 44.4,0.9 61.7,-4.5 14.2,-4.5 46.4,-21.6 62.3,-33 9.7,-7 54,-52.6 61.3,-62.9 3.4,-5 7.1,-10.1 8.1,-11.5 10.5,-14 40.7,-58.7 46.6,-69 1.7,-2.9 4.8,-8.3 7,-12 2.2,-3.7 5.3,-8.9 6.9,-11.6 1.6,-2.7 5.7,-9.4 9.1,-14.9 3.4,-5.5 8.4,-13.8 11.2,-18.5 4.7,-8 7.4,-12.7 25,-44 3.9,-6.9 10.2,-18.6 14,-26 13.7,-26.4 20.7,-39.7 28.8,-54.5 10.9,-19.9 25.9,-51 31.9,-66 1.6,-3.9 4.6,-11.1 6.6,-16 14.2,-33.6 26.7,-69.3 30.8,-88.5 1.1,-4.7 2.4,-10.1 3,-12 0.6,-1.9 1.8,-7.8 2.7,-13 0.8,-5.2 2.6,-16.3 4,-24.5 1.4,-8.3 2.9,-17.9 3.4,-21.5 0.5,-3.6 2.1,-14.60003 3.5,-24.50003 2.3,-16.6 4.2,-32 6.6,-53.5 0.5,-4.7 1.4,-11.2 2,-14.5 0.6,-3.3 1.5,-9.8 2.1,-14.5 0.5,-4.7 1.2,-9.9 1.4,-11.5 0.3,-1.7 1.4,-11.1 2.4,-21 1.6,-15.1 2,-28 2.4,-80.5 0.5,-58.5 0.1,-74.1 -2.3,-96.5 -0.5,-5 -1.4,-14.4 -2.1,-21 -3.6,-38.7 -8.1,-73 -11.3,-87 -0.8,-3.3 -1.9,-8.5 -2.5,-11.5 -1.6,-7.8 -4.6,-20.2 -7.1,-29.5 -1.2,-4.4 -3.2,-12.1 -4.5,-17 -1.2,-5 -3.4,-13.1 -4.8,-18 -1.3,-5 -3.9,-14.4 -5.7,-21 -4.8,-17.9 -8.2,-26.8 -20.6,-54 -4.2,-9.4 -9.2,-20.5 -11.1,-24.8 -1.9,-4.2 -5.5,-11.4 -8,-16 -8.6,-15.5 -10.6,-19.2 -17.6,-32.7 -9.3,-18.1 -13.7,-26.2 -22,-40.5 -3.9,-6.6 -8.2,-14 -9.6,-16.5 -3.8,-6.7 -10.6,-17.5 -18.8,-30 -4,-6 -7.3,-11.2 -7.3,-11.5 0,-0.8 -26,-40 -35.5,-53.5 -7.7,-10.9 -16.5,-22.3 -24.7,-31.8 -1.5,-1.8 -3.1,-4.5 -3.4,-6 -0.9,-3.8 -5.1,-10.5 -10.4,-16.5 -2.5,-2.9 -5.6,-6.7 -6.8,-8.4 -3.1,-4.4 -22.8,-22.3 -32.3,-29.3 -8.4,-6.2 -13.6,-10.5 -24.3,-19.599996 -10.9,-9.2 -21.8,-15.3 -30.1,-16.8 -2.2,-0.4 -7.8,-1.9 -12.5,-3.5 -4.7,-1.6 -11.9,-3.9 -16,-5.1 -4.1,-1.2 -9.9,-3.5 -13,-5.1 -3,-1.5 -8.6,-3.6 -12.5,-4.7 -3.8,-1.1 -12.7,-5 -19.7,-8.6 -10.8,-5.6 -13.4,-6.6 -17.8,-6.6 -2.8,0 -6.5,0.7 -8.2,1.6 -2.6,1.4 -5,1.5 -14.2,0.9 -6.1,-0.4 -16.3,-0.9 -22.6,-1.1 -26.4,-0.7 -42,-1.5 -50.5,-2.4 -12.5,-1.4 -69,-3.9 -88.7,-4 -9,0 -23.3,-0.5 -31.8,-1 -79.3,-4.9 -134.7,-7.1 -212.5,-8.5 -17,-0.3 -36.4,-0.8 -43,-1 -6.6,-0.2 -52.9,-0.6 -103,-0.9 -50,-0.3 -101,-0.8 -113.3,-1.1 -19.9,-0.5 -44.7,0 -108.2,2.1 -27,0.9 -26.9,0.9 -32.7,0 -4.8,-0.8 -5.3,-0.6 -7.7,1.8 -5.5,5.5 -7.7,5.7 -21.2,2.1 -6.3,-1.7 -12,-2.5 -17.5,-2.5 -10.4,0 -31.3,2.7 -35.9,4.7 -1.9,0.8 -6.4,1.9 -10,2.4 -3.5,0.5 -7.5,1.7 -8.8,2.5 -2.2,1.4 -2.2,1.7 -0.8,3.3 2.5,2.8 1.9,4.7 -2.1,6.6 -2.1,1 -6.5,3.7 -9.8,6 -3.3,2.3 -7.6,5 -9.5,6 -6.9,3.4 -23,14.8 -27,19.1 -2.2,2.4 -4,5.2 -4,6.2 0,1 -1.8,3.6 -4.1,5.7 -4.8,4.8 -11.4,13.399996 -28.7,37.999996 -3.4,4.6 -6.1,7.5 -7.2,7.5 -2,0 -11.7,-9.6 -13.8,-13.6 -0.7,-1.3 -1.7,-2.4 -2.2,-2.4 -0.5,0 -6.2,-4.8 -12.6,-10.8 -6.5,-5.9 -15.4,-13.599996 -19.8,-17.199996 -4.3,-3.6 -8.2,-7.2 -8.6,-8 -4,-9.1 -5.9,-11.7 -11.1,-14.7 -9.9,-5.9 -13.3,-8.2 -22.1,-15 -4.8,-3.8 -11.6,-8.3 -15,-10.2 -27.5,-14.7 -45.4,-21.7 -61.8,-24 -4.7,-0.7 -10.7,-1.8 -13.5,-2.6 -6.8,-1.8 -16.5,-3.5 -19.9,-3.5 -1.5,0 -4.5,0.9 -6.8,2.1 -3.8,1.9 -4.7,2 -11.6,1 -7.8,-1.2 -23.8,-2.2 -69.2,-4.3 -29.8,-1.3 -27.4,-1.2 -58,-2.2 -12.4,-0.4 -25.4,-0.9 -29,-1.2 -3.6,-0.2 -18.2,-0.9 -32.5,-1.4 -14.3,-0.6 -39,-1.7 -55,-2.5 -28.4,-1.5 -35.1,-1.7 -70.5,-3 -9.6,-0.4 -18.6,-0.89999997 -20,-1.09999997 -4.4,-0.8 -147.9,-1.1 -198.5,-0.4 z m 212,16.39999997 c 46.5,2 82.1,3.7 96.5,4.6 9.1,0.6 27.3,1.3 40.5,1.6 13.2,0.2 25,0.7 26.3,1 1.3,0.3 15.5,0.9 31.5,1.4 16.1,0.6 37.1,1.4 46.7,2 27.6,1.6 33.9,1.8 60.5,2.6 24.6,0.6 25,0.7 29,3.2 2.3,1.5 6.3,2.9 9.5,3.3 12,1.6 18.9,2.7 20,3.4 0.6,0.3 5.4,1.3 10.8,2 12.1,1.7 26.1,6.7 41.2,14.7 14,7.4 21,11.7 27.5,17.2 2.7,2.2 9.1,6.8 14.1,10.1 10,6.6 42.1,35.299996 61.7,55.299996 9.8,10.1 11.7,12.5 11.7,15.1 0,2.6 0.6,3.4 4,5.1 2.2,1.1 4,2.4 4,2.9 0,1.3 3.5,1.9 5.3,0.9 0.9,-0.5 2.5,-2.8 3.6,-5.2 1,-2.4 2.4,-4.6 3,-5 0.5,-0.4 2.4,-3.6 4.1,-7.2 1.8,-3.6 5.1,-8.9 7.5,-11.8 2.3,-2.9 4.7,-6.2 5.3,-7.3 0.6,-1.1 4.1,-5.8 7.6,-10.4 18.7,-24.199996 16.6,-21.899996 32.8,-34.099996 4.7,-3.6 11.3,-8 14.5,-9.9 3.2,-1.8 7.7,-4.6 10.1,-6.2 6.7,-4.5 21.1,-11.7 27.2,-13.6 3.7,-1.2 6.6,-1.5 9,-1 2.6,0.6 7.3,-0.1 17.8,-2.7 10.1,-2.4 16,-3.3 19.7,-3.1 2.9,0.3 7.5,0.1 10.3,-0.4 8.9,-1.4 35.7,-1.9 126.4,-2.5 111.1,-0.6 169.6,-0.6 190.8,0.1 9.1,0.3 32,0.7 51,1 81.9,1.2 142.8,2.5 160.5,3.5 10.5,0.5 28.2,1.5 39.5,2 11.3,0.6 27.5,1.5 36,2 8.5,0.6 18.2,1 21.5,1 3.3,0 17.3,0.5 31,1 13.8,0.5 33.8,1.2 44.5,1.5 18.5,0.5 31.2,1.2 60,3.5 6.9,0.5 27.8,1.5 46.5,2.1 33.2,1.1 34.2,1.2 42.7,4 4.8,1.6 10.9,3.9 13.5,5.2 2.7,1.4 11.1,4.6 18.8,7.2 7.7,2.6 14.5,5.1 15,5.5 0.6,0.4 3.9,1.6 7.5,2.8 3.6,1.1 9.4,3 13,4.2 3.6,1.2 10.1,3.2 14.5,4.4 4.4,1.3 9.2,2.9 10.5,3.6 3.7,1.9 12.4,8.399996 22.1,16.599996 4.7,4 12.7,10.6 17.7,14.6 14.3,11.5 33.9,29.5 36.2,33.3 1.2,1.9 4.3,5.4 7,7.7 11.4,10.2 31.6,36.4 51.2,66.8 4.5,6.9 11.3,17.4 15.3,23.5 3.9,6 8.9,13.8 11.1,17.3 2.1,3.5 5.6,9.1 7.8,12.5 8.9,14.2 21.5,36.6 33.1,58.7 6.8,12.9 13.7,26 15.4,29 9.8,17.4 34.6,70.6 40.1,86 3.7,10.6 9.2,29.7 17.2,60 1.1,4.1 2.8,10.4 3.8,14 1.6,5.5 4.7,19.1 12.6,55 1.3,5.9 5.1,34 6,45 0.8,9.2 4.5,47 6,61 1.2,11.9 1.4,25.4 0.9,75 -0.6,64.5 -1.4,83.5 -4.5,105 -4.1,29.2 -7.9,56.7 -8.4,61.5 -2.5,22.5 -10,78.80003 -11.1,82.50003 -0.3,0.8 -1.6,8 -3,16 -2.2,13 -3.4,19.1 -6.5,32.5 -0.5,2.2 -2,7.4 -3.5,11.5 -1.4,4.1 -3.4,11 -4.5,15.2 -1.1,4.3 -2.4,8.6 -3,9.5 -0.6,1 -2.6,6.3 -4.4,11.8 -3.1,9.1 -8.9,23.8 -18.3,46.5 -1.9,4.7 -5.5,12.8 -8,18 -2.5,5.2 -6.5,13.9 -8.9,19.3 -2.4,5.3 -6.6,13.7 -9.4,18.6 -2.7,4.9 -5,9.1 -5,9.4 0,0.2 -2,4 -4.3,8.3 -5.5,9.9 -12.8,23.7 -22.4,42.4 -4.2,8 -8.2,15.5 -8.9,16.8 -0.8,1.2 -4.7,8.2 -8.8,15.5 -6.6,12 -12.7,22.8 -23.9,42.2 -2.2,3.8 -5.2,8.8 -6.7,11 -2.3,3.5 -7.6,12.3 -14.4,23.8 -16.3,27.8 -33.1,53.7 -53.8,83.2 -8.9,12.5 -12.2,16.5 -15.5,18.3 -2.5,1.4 -7.3,6.1 -12.2,12 -10.8,13.1 -18.3,21.2 -33.1,36.3 -14.9,15 -25.5,22.4 -50,34.6 -16.2,8.1 -16.8,8.3 -31.5,10.9 -28.9,5 -7.5,4.7 -336,5.3 -62.1,0.1 -123.3,0.6 -136,1.1 -12.6,0.5 -39.6,1.1 -60,1.5 -20.3,0.3 -38.8,0.8 -41,1 -2.2,0.2 -25.1,0.7 -51,1 -47.5,0.5 -77.8,1.7 -93.7,3.6 -4.8,0.6 -9.1,0.8 -9.6,0.5 -0.5,-0.3 -18.1,-0.7 -39.1,-1 -32.5,-0.4 -38.9,-0.2 -42.7,1.1 -3.9,1.3 -6.9,1.4 -23.1,0.3 -10.2,-0.6 -24.5,-1.1 -31.7,-1 -30.1,0.6 -29.7,0.6 -36.6,-2.2 -3.6,-1.4 -10,-3.7 -14.2,-5.1 -4.2,-1.3 -13.9,-5.8 -21.5,-9.8 -15.7,-8.4 -18.1,-10.6 -54.3,-49.4 -10.7,-11.4 -21.3,-22.6 -23.5,-24.7 -4,-3.9 -17.5,-11.8 -20,-11.8 -3.4,0 -6.8,2.8 -10.1,8.1 -4.4,7.2 -39.6,43.5 -52.2,53.8 -13,10.6 -14.7,11.7 -32.7,21.8 -43.8,24.7 -46.4,25.8 -67.5,29.7 -8,1.5 -17,3.2 -20,3.8 -5.3,1 -10.2,1.3 -59.5,3.7 -14.9,0.7 -48.2,0.9 -94.5,0.6 -67.4,-0.6 -97.3,-1.2 -168.5,-3.5 -29.3,-0.9 -79.4,-1.9 -205,-4 -34.1,-0.5 -75.7,-1.5 -92.5,-2 -16.8,-0.5 -55.9,-1.4 -86.99999,-2 -31.1,-0.5 -64.6,-1.2 -74.5,-1.5 -28,-0.8 -132.09998,-3.4 -160.99998,-4 -14.3,-0.3 -34.5,-0.7 -45,-1 -10.4,-0.2 -41,-0.7 -68,-1.1 -43.6,-0.6 -49.9,-0.4 -57.5,1.1 -4.7,0.9 -12.5,2 -17.5,2.5 -4.9,0.5 -14.2,1.6 -20.5,2.5 -24.6,3.3 -28.7,3.7 -33.4,3.1 -2.7,-0.3 -5.2,-1 -5.6,-1.5 -0.4,-0.7 -3.7,-0.7 -9.5,-0.1 -13.2,1.4 -17.5,1.3 -17.5,-0.5 0,-0.8 1.4,-1.7 3.5,-2.1 2.2,-0.4 3.5,-1.2 3.5,-2.2 0,-1.3 -1.7,-1.4 -12.7,-0.8 -11.4,0.5 -42.9,1.4 -118.8,3.1 -13.2,0.3 -33.7,1 -45.5,1.5 -11.8,0.6 -27.6,1.3 -35,1.5 -7.4,0.3 -24.1,0.9 -37,1.5 -39.7,1.6 -47,1.5 -65,-1 -12.4,-1.7 -20.7,-2.3 -33.5,-2.2 -9.3,0.1 -19.5,-0.4 -22.5,-0.9 -3,-0.6 -6.4,-1.2 -7.5,-1.4 -3.6,-0.7 -12,-7.8 -19.2,-16.2 -6.999995,-8.3 -13.299995,-19.5 -15.099995,-26.8 -0.6,-2.2 -2,-7.2 -3.2,-11 -1.1,-3.9 -2.5,-11.7 -3,-17.5 -1.2,-12.9 -2.8,-25.6 -3.4,-27.8 -0.5,-1.6 -1.1,-5.5 -3.7,-24.2 -0.6,-4.1 -1.3,-10.4 -1.5,-14 -0.2,-3.5 -0.9,-8 -1.4,-10 -0.5,-1.9 -1,-6.2 -1,-9.5 0,-3.3 -0.4,-7.6 -0.9,-9.5 -0.6,-1.9 -1.2,-5.5 -1.5,-8 -1.2,-11.7 -3.7,-31.7 -4.1,-33 -1,-3.4 -2.6,-27.5 -4,-60 -2.7,-60.8 -3.4,-74.2 -5,-90 -3.2,-32.3 -4.3,-49.1 -5,-79.5 -0.6,-21.6 -0.6,-72.6 0,-73.4 0.2,-0.4 0.6,-11.1 0.9,-23.7 0.6,-21.8 1.2,-36 3.7,-83.90003 2.1,-41.7 2.2,-44.1 1,-49.1 -0.6,-2.7 -1.3,-9 -1.5,-13.9 -0.3,-5 -0.7,-9.7 -1,-10.5 -0.6,-1.8 -3.2,-26.3 -4.2,-40.5 -1.3,-17.9 -1.2,-38.7 0.3,-42.9 0.7,-2.1 1.3,-5.1 1.3,-6.7 0,-2.2 0.7,-3.2 3.1,-4.4 1.8,-1 2.9,-2.3 2.8,-3.3 -0.1,-0.9 0.1,-2.4 0.4,-3.2 0.7,-1.8 2.6,-20.5 3.3,-32 1.5,-25.8 1.9,-42.7 1.2,-44.2 -0.4,-0.9 -0.8,-4.7 -0.8,-8.3 0,-3.6 -0.5,-7.6 -1.2,-8.8 -1.2,-2.4 -1.2,-30.7 0,-50.2 0.9,-13.6 -1.1,-62.6 -3.3,-79.5 -1.2,-9 -1.7,-23.6 -2,-52.5 -0.4,-39.7 -1.6,-66.4 -3.4,-74.7 -3.3,-15.1 -5.6,-82.7 -5.2,-152.3 0.2,-32.4 -1,-45.8 -5.4,-61.5 -2.3,-8.1 -2.8,-12.3 -3.4,-29 -0.4,-10.8 -1,-20.1 -1.5,-20.8 -1,-1.7 -3.5,-19.3 -3.9,-28.8 -0.3,-5.4 -1,-8.9 -2.2,-10.7 -1.1,-1.7 -1.4,-3.3 -1,-4.4 2.8,-6.4 1.7,-27.5 -2.1,-42.6 -0.8,-3.2 -1.2,-6.8 -0.9,-8 0.3,-1.2 0.9,-6.599996 1.4,-11.899996 0.6,-7.1 1.5,-11.1 3.4,-15 1.4,-2.9 3.2,-6.9 4,-8.8 2.2,-5.3 8.9,-12.8 15.5,-17.4 13.1,-9.2 18.9,-10.9 42.7,-12.4 10.5,-0.7 12.499995,-1.2 16.199995,-3.5 2.4,-1.5 6.4,-3.2 9,-3.8 2.7,-0.6 7.1,-2.1 9.9,-3.4 4.4,-2 7.3,-2.4 23.5,-3 10.1,-0.4 20.2,-0.9 22.4,-1.1 2.2,-0.2 10.3,-0.6 18,-0.9 7.7,-0.2 22.1,-0.9 32,-1.5 42.9,-2.4 78.3,-3 148.7,-2.6 41.1,0.2 75.1,0.7 75.6,1 0.5,0.3 20.2,0.5 43.8,0.5 23.6,-0.1 46.7,-0.1 51.4,-0.1 4.7,0 17.1,0.5 27.5,1.2 20.6,1.3 164.3,0.9 340.49998,-0.9 51.4,-0.6 126.79999,-1.3 167.49999,-1.6 40.7,-0.4 74.2,-0.9 74.4,-1.1 0.7,-0.6 181.5,0.3 197.6,1 z" />
</svg>
