<?xml version="1.0" encoding="UTF-8" standalone="no"?>
<svg
   xmlns:dc="http://purl.org/dc/elements/1.1/"
   xmlns:cc="http://creativecommons.org/ns#"
   xmlns:rdf="http://www.w3.org/1999/02/22-rdf-syntax-ns#"
   xmlns:svg="http://www.w3.org/2000/svg"
   xmlns="http://www.w3.org/2000/svg"
   xmlns:sodipodi="http://sodipodi.sourceforge.net/DTD/sodipodi-0.dtd"
   xmlns:inkscape="http://www.inkscape.org/namespaces/inkscape"
   version="1.0"
   width="2450.5889pt"
   height="1817.9703pt"
   viewBox="0 0 2450.5889 1817.9704"
   preserveAspectRatio="xMidYMid meet"
   id="svg9350"
   inkscape:version="0.91 r13725"
   sodipodi:docname="plugs-shape.svg"
   inkscape:export-filename="/home/churchyard/RepRap/BI-3DT/powerplugs-task/pics/plugs-shape.svg.png"
   inkscape:export-xdpi="30.099501"
   inkscape:export-ydpi="30.099501">
  <defs
     id="defs9426">
    <marker
       inkscape:isstock="true"
       style="overflow:visible;"
       id="marker6042"
       refX="0.0"
       refY="0.0"
       orient="auto"
       inkscape:stockid="Arrow1Lend">
      <path
         transform="scale(0.8) rotate(180) translate(12.5,0)"
         style="fill-rule:evenodd;stroke:#000000;stroke-width:1pt;stroke-opacity:1;fill:#000000;fill-opacity:1"
         d="M 0.0,0.0 L 5.0,-5.0 L -12.5,0.0 L 5.0,5.0 L 0.0,0.0 z "
         id="path6044" />
    </marker>
    <marker
       inkscape:isstock="true"
       style="overflow:visible"
       id="marker5996"
       refX="0.0"
       refY="0.0"
       orient="auto"
       inkscape:stockid="Arrow1Lstart">
      <path
         transform="scale(0.8) translate(12.5,0)"
         style="fill-rule:evenodd;stroke:#000000;stroke-width:1pt;stroke-opacity:1;fill:#000000;fill-opacity:1"
         d="M 0.0,0.0 L 5.0,-5.0 L -12.5,0.0 L 5.0,5.0 L 0.0,0.0 z "
         id="path5998" />
    </marker>
    <marker
       inkscape:stockid="Arrow1Lend"
       orient="auto"
       refY="0.0"
       refX="0.0"
       id="Arrow1Lend"
       style="overflow:visible;"
       inkscape:isstock="true"
       inkscape:collect="always">
      <path
         id="path4184"
         d="M 0.0,0.0 L 5.0,-5.0 L -12.5,0.0 L 5.0,5.0 L 0.0,0.0 z "
         style="fill-rule:evenodd;stroke:#000000;stroke-width:1pt;stroke-opacity:1;fill:#000000;fill-opacity:1"
         transform="scale(0.8) rotate(180) translate(12.5,0)" />
    </marker>
    <marker
       inkscape:stockid="Arrow1Lstart"
       orient="auto"
       refY="0.0"
       refX="0.0"
       id="marker4787"
       style="overflow:visible"
       inkscape:isstock="true"
       inkscape:collect="always">
      <path
         id="path4789"
         d="M 0.0,0.0 L 5.0,-5.0 L -12.5,0.0 L 5.0,5.0 L 0.0,0.0 z "
         style="fill-rule:evenodd;stroke:#000000;stroke-width:1pt;stroke-opacity:1;fill:#000000;fill-opacity:1"
         transform="scale(0.8) translate(12.5,0)" />
    </marker>
    <marker
       inkscape:stockid="Arrow1Lstart"
       orient="auto"
       refY="0.0"
       refX="0.0"
       id="Arrow1Lstart"
       style="overflow:visible"
       inkscape:isstock="true">
      <path
         id="path4181"
         d="M 0.0,0.0 L 5.0,-5.0 L -12.5,0.0 L 5.0,5.0 L 0.0,0.0 z "
         style="fill-rule:evenodd;stroke:#000000;stroke-width:1pt;stroke-opacity:1;fill:#000000;fill-opacity:1"
         transform="scale(0.8) translate(12.5,0)" />
    </marker>
    <marker
       inkscape:stockid="Arrow1Lstart"
       orient="auto"
       refY="0"
       refX="0"
       id="marker4787-3"
       style="overflow:visible"
       inkscape:isstock="true">
      <path
         inkscape:connector-curvature="0"
         id="path4789-6"
         d="M 0,0 5,-5 -12.5,0 5,5 0,0 Z"
         style="fill:#000000;fill-opacity:1;fill-rule:evenodd;stroke:#000000;stroke-width:1pt;stroke-opacity:1"
         transform="matrix(0.8,0,0,0.8,10,0)" />
    </marker>
    <marker
       inkscape:stockid="Arrow1Lend"
       orient="auto"
       refY="0"
       refX="0"
       id="Arrow1Lend-7"
       style="overflow:visible"
       inkscape:isstock="true">
      <path
         inkscape:connector-curvature="0"
         id="path4184-5"
         d="M 0,0 5,-5 -12.5,0 5,5 0,0 Z"
         style="fill:#000000;fill-opacity:1;fill-rule:evenodd;stroke:#000000;stroke-width:1pt;stroke-opacity:1"
         transform="matrix(-0.8,0,0,-0.8,-10,0)" />
    </marker>
  </defs>
  <sodipodi:namedview
     pagecolor="#ffffff"
     bordercolor="#666666"
     borderopacity="1"
     objecttolerance="10"
     gridtolerance="10"
     guidetolerance="10"
     inkscape:pageopacity="0"
     inkscape:pageshadow="2"
     inkscape:window-width="1848"
     inkscape:window-height="1056"
     id="namedview9424"
     showgrid="false"
     fit-margin-top="0"
     fit-margin-left="0"
     fit-margin-right="0"
     fit-margin-bottom="0"
     inkscape:zoom="0.26687217"
     inkscape:cx="1503.4418"
     inkscape:cy="1289.0333"
     inkscape:window-x="72"
     inkscape:window-y="0"
     inkscape:window-maximized="1"
     inkscape:current-layer="svg9350" />
  <metadata
     id="metadata9352">
Created by potrace 1.13, written by Peter Selinger 2001-2015
<rdf:RDF>
  <cc:Work
     rdf:about="">
    <dc:format>image/svg+xml</dc:format>
    <dc:type
       rdf:resource="http://purl.org/dc/dcmitype/StillImage" />
    <dc:title />
  </cc:Work>
</rdf:RDF>
</metadata>
  <path
     style="opacity:1;fill:#999999;fill-opacity:1;stroke:none;stroke-width:1.75393701;stroke-linecap:round;stroke-linejoin:round;stroke-miterlimit:4;stroke-dasharray:none;stroke-opacity:1"
     d="M 734.49889,233.03123 C 642.30575,322.01862 552.65928,415.58815 487.32121,526.70384 407.51598,655.40696 345.50522,795.86732 307.77889,942.63808 c -34.30376,143.44602 -38.3806,297.01772 4.6722,438.99282 41.84663,101.8225 86.42408,203.734 152.78997,292.3992 70.69682,103.9671 148.48208,204.8971 247.88026,283.2217 30.90903,23.6042 57.97985,53.9473 92.37508,72.1978 81.51581,8.5929 164.04405,3.7578 245.94,6.2204 301.4492,0.9606 602.8034,8.526 904.1513,15.4602 81.0923,0.9831 162.9865,0.8304 243.5491,-2.9963 81.6785,-65.7543 155.6755,-141.6506 212.0596,-230.4596 105.3759,-152.089 159.2227,-332.8625 188.8939,-513.7638 14.2521,-83.2259 8.617,-168.2587 7.8431,-252.268 -11.0167,-117.43977 -32.8078,-234.66871 -70.7509,-346.52702 -65.145,-177.05977 -201.0568,-317.42908 -347.0103,-431.93536 -19.4059,-15.48437 -40.7085,-31.70652 -67.1878,-28.11857 -373.3235,-19.23374 -747.3067,-11.75865 -1120.9548,-13.97185 -88.4902,0.89459 -177.74454,-2.07456 -265.76181,1.2117 l -1.7689,0.72983 z m 692.79861,167.35395 c 130.6038,-0.31176 264.1189,26.95155 378.6181,92.01521 119.7005,65.65359 234.8339,148.81416 315.5052,260.94519 56.8688,90.27082 100.2835,190.525 124.3621,294.17312 23.7638,120.7447 33.4098,246.0387 14.3689,367.8582 -19.4975,88.623 -43.0043,180.7019 -98.7789,254.2035 -60.4584,74.908 -142.1971,130.8709 -228.4641,172.133 -63.1886,28.0163 -133.8394,21.7824 -200.3956,35.7118 -69.4457,10.7701 -139.4938,13.116 -209.5985,7.5044 -53.1608,-0.7418 -104.5321,-11.4535 -157.9056,-12.4782 -50.3028,-6.1594 -93.1097,-37.2292 -138.331,-57.8412 -82.4352,-41.0877 -160.9201,-91.1807 -225.6073,-157.3762 -70.23311,-65.8982 -126.66953,-145.4521 -166.1741,-233.2563 -43.46002,-93.4194 -83.80788,-192.8555 -83.93101,-297.2309 -3.82359,-87.3494 16.05679,-173.29872 36.2855,-257.59203 25.09317,-70.5763 58.09763,-140.38092 111.67421,-193.94964 27.83655,-30.27738 56.50938,-60.39209 93.10694,-79.82374 105.02116,-95.90577 241.15286,-148.64733 376.25466,-186.44786 18.8456,-5.61005 38.9947,-9.14812 59.0105,-8.54835 z"
     id="path10030"
     inkscape:connector-curvature="0"
     transform="matrix(0.80000008,0,0,0.80000008,-9.7656259e-5,0)" />
  <path
     style="opacity:1;fill:#bfbfbf;fill-opacity:1;stroke:none;stroke-width:1.75393701;stroke-linecap:round;stroke-linejoin:round;stroke-miterlimit:4;stroke-dasharray:none;stroke-opacity:1"
     d="m 1416.9476,409.74564 c -68.3463,8.3204 -133.3089,34.78882 -197.404,58.87796 -136.1004,53.73933 -258.03787,143.84186 -350.08427,257.46761 -70.3746,90.70849 -91.81209,207.53128 -104.28242,318.82659 -6.5494,77.0951 -4.48255,156.3316 23.27772,229.526 44.06221,138.5055 112.90034,272.5252 221.25537,371.792 41.5332,37.8473 83.4447,77.7901 133.7569,103.5343 48.7377,19.088 88.6102,55.7584 137.585,75.0653 40.9136,21.996 85.796,35.7141 132.2411,37.4112 46.1924,8.9535 92.7514,16.015 140.029,14.6399 108.6923,2.3529 216.9135,-11.0517 324.2715,-24.993 66.6292,-21.2345 123.7298,-64.5721 180.6847,-103.9019 89.0167,-60.1318 142.6502,-158.9845 169.9282,-260.7308 19.6753,-57.7284 25.3898,-118.4848 25.5279,-179.1411 5.8271,-120.0178 -7.0255,-241.8367 -49.6736,-354.772 -42.2333,-110.03425 -96.2149,-221.03731 -188.8296,-297.64686 -104.767,-93.66345 -226.476,-172.9147 -362.3033,-212.38488 -77.0451,-19.65071 -156.4928,-31.31864 -235.9802,-33.57032 z m 35.1731,707.17236 c 14.6557,4.6516 1.3186,28.0317 -10.5388,16.0423 -4.9329,-6.5425 3.183,-16.6944 10.5388,-16.0423 z"
     id="path10032"
     inkscape:connector-curvature="0"
     transform="matrix(0.80000008,0,0,0.80000008,-9.7656259e-5,0)" />
  <g
     id="g10002"
     transform="translate(-280.81176,-183)">
    <path
       d="m 1368.7516,184.6 c -1.9,2.3 -2.4,11.7 -0.8,13.1 0.9,0.7 10.5,1.3 26.4,1.6 17.9,0.3 31.3,1.2 47.4,3.1 12.4,1.5 23,2.5 23.6,2.2 1.3,-0.5 3.5,-8 3.5,-12 0,-1.5 -0.7,-2.7 -1.7,-3 -6.4,-2 -64.1,-6.6 -82.9,-6.6 -11.6,0 -14.4,0.3 -15.5,1.6 z"
       id="path9358"
       inkscape:connector-curvature="0"
       style="fill:#000000;stroke:none" />
    <path
       d="m 1293.3516,184.7 c -3.3,0.2 -16.8,1.2 -30,2.3 -13.2,1.1 -29.2,2.5 -35.6,3 -6.4,0.5 -16.1,1.6 -21.5,2.5 -25.8,3.9 -24.8,3.4 -23.1,11.2 1.8,7.5 3.3,8.8 9.4,7.5 12.8,-2.8 29.2,-5.2 42.8,-6.2 8.3,-0.6 21.7,-1.8 29.9,-2.6 8.2,-0.8 19.6,-1.4 25.3,-1.4 9.7,0 10.6,-0.2 12.8,-2.5 2,-1.9 2.5,-3.4 2.5,-7.3 0,-5.3 -1.3,-7.3 -4.4,-7 -1.2,0.1 -4.8,0.3 -8.1,0.5 z"
       id="path9360"
       inkscape:connector-curvature="0"
       style="fill:#000000;stroke:none" />
    <path
       d="m 1531.1516,199.2 c -0.6,0.7 -1.6,3.7 -2.4,6.6 -1.7,7 -0.6,8.1 9.7,9.3 17.1,1.8 49.7,7.8 73.9,13.4 5.1,1.2 7.5,1.4 9.2,0.6 1.3,-0.6 2.3,-1.4 2.3,-1.8 0,-0.5 0.6,-2.9 1.4,-5.4 0.8,-2.5 1.1,-5.1 0.6,-5.8 -0.7,-1.2 -11.7,-4.1 -23,-6.1 -3,-0.6 -7.5,-1.4 -10,-1.9 -4,-0.8 -47.7,-8.2 -57.1,-9.7 -2.3,-0.3 -3.9,-0.1 -4.6,0.8 z"
       id="path9362"
       inkscape:connector-curvature="0"
       style="fill:#000000;stroke:none" />
    <path
       d="m 1100.3516,215.9 c -30.4,10.5 -42.1,15.6 -52.2,22.8 -3.4,2.4 -10.2,6 -15,8 -4.8,2 -9.6,4.3 -10.6,5.2 -1.7,1.6 -1.7,2 0.6,8 1.3,3.5 3.1,6.7 4,7.2 2,1.2 6.4,-0.5 9.6,-3.7 3.1,-3.1 6.5,-4.9 11.1,-5.9 1.9,-0.4 5.3,-2.3 7.4,-4.1 2.2,-1.9 4.5,-3.4 5.1,-3.4 0.6,0 5.2,-1.8 10.3,-3.9 5,-2.1 12.2,-4.9 15.9,-6.1 3.7,-1.3 7.7,-3.1 8.8,-4 2.1,-1.9 21.6,-9 24.6,-9 0.9,0 2.7,-0.8 4,-1.9 2.3,-1.8 2.3,-1.9 0.8,-8.2 -1.3,-6 -1.6,-6.4 -4.4,-6.6 -1.7,-0.1 -10.6,2.4 -20,5.6 z"
       id="path9364"
       inkscape:connector-curvature="0"
       style="fill:#000000;stroke:none" />
    <path
       d="m 1683.1516,232.8 c -1.2,0.9 -3,3.5 -3.9,5.6 -1.5,3.7 -1.5,4.1 0.1,5.2 1,0.7 5.2,2.1 9.4,3 29.2,6.6 50.3,12.6 87.1,24.7 16.5,5.4 26.1,8.1 27.1,7.6 0.9,-0.4 2.6,-3.4 3.8,-6.6 l 2.2,-5.8 -2.2,-1.7 c -1.1,-1 -2.8,-1.8 -3.5,-1.8 -0.8,0 -15,-4.3 -31.7,-9.6 -16.6,-5.3 -32.7,-10.3 -35.7,-11.1 -26.9,-7.1 -44.6,-11.3 -47.3,-11.3 -1.7,0 -4.2,0.8 -5.4,1.8 z"
       id="path9366"
       inkscape:connector-curvature="0"
       style="fill:#000000;stroke:none" />
    <path
       d="m 961.85161,286.2 c -34.7,21.7 -65.5,44.2 -89.2,64.9 l -7.6,6.7 -71.4,-0.5 c -80.1,-0.7 -74.2,-1.2 -73.6,6.9 0.2,3.3 0.8,4.5 2.7,5.4 1.8,0.9 17.9,1.2 62.3,1.1 69,-0.1 66.4,-0.4 57,7.7 -8.6,7.3 -49.1,45.6 -51.4,48.6 -1.1,1.4 -4.7,5.4 -8.1,9 -5.7,6 -11.3,12.4 -27.6,31.5 -3.3,3.8 -7.5,8.8 -9.4,11 -1.9,2.2 -8.2,10.1 -14.1,17.5 -5.8,7.4 -11.9,15.1 -13.4,17 -15.7,19.6 -43.7,60.6 -58.9,86 -8.5,14.3 -9.1,15.3 -12.9,22 -2,3.6 -4.4,7.6 -5.4,9 -1.5,2.3 -3.7,6.1 -9.5,16.5 -1.2,2.2 -4.4,7.8 -7,12.5 -11.2,19.5 -26,48.7 -35.4,69.6 -3,6.5 -6.7,14.8 -8.3,18.4 -5.8,12.7 -13.8,31.8 -13.8,32.8 0,0.4 -0.9,2.5 -2,4.7 -1.1,2.2 -2,4.6 -2,5.4 0,0.7 -0.8,3.2 -1.9,5.5 -1,2.3 -4.9,12 -8.5,21.6 -3.7,9.6 -7.5,19.3 -8.5,21.5 -3.5,7.7 -10.1,26.8 -13.2,37.9 -1.1,3.8 -2.6,8 -3.3,9.5 -1.8,3.7 -11.1,38.5 -14.2,53.1 -0.7,3.6 -1.6,7.6 -1.9,9 -0.2,1.4 -0.8,4.1 -1.1,6 -0.4,1.9 -1.1,4.3 -1.6,5.3 -0.5,0.9 -1.3,4.5 -1.8,8 -0.4,3.4 -1.5,9.9 -2.4,14.4 -4.4,23.5 -9.7,64.3 -11.7,90.3 -1.1,15.7 -1,60.9 0.3,69.5 0.6,3.8 1.2,9 1.3,11.5 0.7,10.6 2.7,31.3 4,41.5 5.3,41.5 7.4,53.1 14.7,79.5 1.1,4.1 2.6,9.7 3.3,12.5 1.3,4.7 2.5,8 8.3,22 3,7.5 2.7,6.7 16.7,38 6.4,14.3 12.3,27.6 13.2,29.5 9.7,22.1 34.1,71.2 39.8,80 1.3,1.9 2.9,4.7 3.6,6.1 1.3,2.5 4,6.6 9.9,15.4 1.5,2.2 3.8,6 5,8.5 1.2,2.5 5.2,8.6 8.9,13.7 7,9.7 11.1,15.6 24,34.3 4.3,6.3 10,14.4 12.6,18 9.8,13.6 19.7,27.8 24.9,35.5 3,4.4 9.1,12.7 13.5,18.5 4.5,5.8 11.4,14.8 15.3,20 4,5.2 11,13.9 15.7,19.4 4.8,5.4 9.5,11.1 10.7,12.7 1.1,1.6 5.5,6.6 9.6,11.1 4.1,4.6 10.7,11.9 14.5,16.3 7.6,8.6 37.2,37.4 43.7,42.5 2.2,1.7 5.6,4.8 7.5,6.8 2,2.1 6.5,6.3 10.1,9.4 3.6,3 11.4,9.8 17.4,14.9 12.9,11.1 39.8,32.6 47.6,37.9 3,2.1 6.3,4.6 7.3,5.7 1.6,1.9 1.6,2.1 0.1,3.4 -1.4,1.1 -8.4,1.5 -33.5,1.9 -21.7,0.3 -32.2,0.9 -32.9,1.6 -1.6,1.6 -0.2,9.9 1.9,11.6 1.3,1.1 5.9,1.3 24.6,0.7 12.7,-0.4 31.8,-1 42.7,-1.3 l 19.6,-0.6 21.5,14.2 c 11.8,7.9 25.2,16.5 29.8,19.1 13.2,7.6 62.79999,31.8 66.39999,32.4 2.8,0.4 3.6,0 6.4,-3.6 4.2,-5.3 5.6,-9.9 3.6,-12.1 -0.8,-0.9 -3.8,-2.4 -6.7,-3.4 -5.5,-1.9 -26.4,-10.8 -30.8,-13 -45.39999,-23.2 -54.39999,-28.5 -53.79999,-31.4 0.3,-1.6 7.4,-1.7 112.79999,-1.7 61.9,0 129.6,0.3 150.5,0.6 35,0.6 65.2,1 173.5,2.4 21.7,0.3 43.1,0.7 47.5,1 4.4,0.2 39.1,0.9 77,1.5 38,0.5 77.1,1.2 87,1.5 9.9,0.3 28.4,0.8 41,1 12.7,0.3 34.7,1 49,1.5 90.4,3.5 121.6,4.1 193.5,4.1 66.6,0 103.3,-0.5 118.6,-1.7 12.2,-0.9 11.2,1.5 -5.6,13 -20.6,14.2 -43.5,28 -65.7,39.8 -6.1,3.2 -11.7,6.5 -12.3,7.3 -1,1.2 -0.6,2.5 2.1,6.7 4.2,6.8 5.9,8.8 7.5,8.8 1.8,0 23.2,-11.9 43.8,-24.3 29.3,-17.7 58,-37.4 70.9,-48.7 l 4,-3.5 52.6,-0.8 c 28.9,-0.5 53.6,-1.2 54.9,-1.7 1.9,-0.8 2.2,-1.7 2.2,-6.4 0,-3.6 -0.5,-5.8 -1.5,-6.6 -1.3,-1.1 -7.2,-1.1 -30.8,0 -16.1,0.7 -34.1,1.4 -40,1.7 -17.8,0.8 -19.4,-0.6 -9.5,-8.4 3.4,-2.6 9.3,-7.7 13.3,-11.3 3.9,-3.6 12.6,-11.5 19.4,-17.5 12.7,-11.4 41.1,-40.5 52.3,-53.5 18.3,-21.4 48.7,-62 62.8,-83.9 1.4,-2.1 6.2,-9.3 10.8,-16 4.5,-6.7 8.2,-12.4 8.2,-12.8 0,-0.3 1.1,-2 2.3,-3.7 5.4,-7.1 29.2,-52.5 38.9,-74.1 6.3,-13.9 12.1,-27.5 14.9,-34.5 1.7,-4.1 4.3,-10.7 5.9,-14.5 2.7,-6.5 7.2,-17.9 14.9,-38 5.3,-13.9 12.3,-33.8 13.8,-39.5 1.7,-6.1 3,-10.5 6.6,-23 1.3,-4.7 3.7,-13.7 5.1,-20 1.5,-6.3 3.6,-15.1 4.6,-19.5 1.1,-4.4 2.4,-10.7 3,-14 0.6,-3.3 1.5,-7.6 2,-9.5 3.1,-12 14.7,-71.4 18.6,-95 9.4,-57 10.4,-79.5 8.2,-190 -0.3,-15.4 -4.9,-55.8 -8.8,-76.5 -0.5,-2.8 -1.4,-8.6 -2,-13 -0.6,-4.4 -1.8,-12.1 -2.5,-17 -0.8,-5 -1.9,-12.8 -2.5,-17.5 -0.6,-4.7 -1.8,-12.1 -2.7,-16.5 -0.8,-4.4 -1.9,-10 -2.3,-12.5 -3.2,-18.2 -11.5,-53.9 -17.3,-74.5 -15.2,-54 -20.1,-68.6 -32.7,-98.5 -16.9,-40.1 -39.9,-80 -66.9,-115.9 -3.1,-4 -6.5,-8.6 -7.6,-10.2 -3.6,-5 -10.8,-14.2 -21.5,-27.3 -5.8,-7 -11.7,-14.4 -13.2,-16.3 -10,-12.9 -79,-82.6 -100.8,-101.8 -11.4,-10.1 -37.6,-30.7 -59.3,-46.8 -5.8,-4.3 -6.6,-5.2 -5.4,-6.4 1.2,-1.2 3.8,-1.3 16.3,-0.4 43.1,3.1 69.2,4.6 96.7,5.7 12.6,0.5 17.1,0.3 18.2,-0.6 2.3,-1.9 2,-11.6 -0.2,-12.8 -1,-0.5 -12.6,-1.2 -25.8,-1.6 -13.2,-0.3 -31.6,-1.1 -41,-1.6 -9.3,-0.6 -30.3,-1.7 -46.5,-2.5 -44.5,-2.2 -40.5,-1.5 -50.8,-9.2 -17,-12.8 -48.2,-32.5 -72.7,-46 -6,-3.4 -23.2,-12.2 -38.1,-19.7 -23.7,-11.9 -27.5,-13.5 -29.7,-12.7 -3,1.2 -8.2,9.4 -7.3,11.7 0.3,0.9 3,2.5 5.9,3.7 2.8,1.2 15.6,7.4 28.2,13.8 21.4,10.8 28.7,14.6 37.5,19.6 20.2,11.5 26.1,14.9 35.1,20.8 17.8,11.6 17,10.9 15.6,12.2 -0.9,0.8 -4.2,0.9 -12.7,0.3 -16.2,-1.2 -51.3,-3 -71.4,-3.5 -9.4,-0.3 -28.8,-0.9 -43.1,-1.5 -14.3,-0.5 -35.9,-1.2 -48,-1.5 -22.3,-0.6 -47.8,-1.4 -108.5,-3.7 -39.3,-1.5 -159.2,-1.7 -284,-0.4 -189.7,1.8 -515.99999,0.8 -518.49999,-1.6 -1.1,-1.1 0.5,-2.6 17,-15.4 9.5,-7.4 35.6,-25.1 55.7,-37.9 5.8,-3.7 6.3,-4.3 6.2,-7.5 -0.2,-5.2 -2.9,-11.5 -5.1,-11.8 -1,-0.1 -3.4,0.8 -5.3,2 z m 97.99999,86.8 c 53.1,0.7 379.2,0.4 400,-0.5 6.9,-0.2 43.1,-0.7 80.5,-1.1 64.5,-0.6 95.2,-0.1 177,2.6 16,0.6 58.7,1.9 95,3 72.9,2.1 119.5,3.7 135.5,4.5 5.8,0.3 19.5,1 30.5,1.5 11,0.6 21.7,1.4 23.7,1.9 2,0.5 7.2,3.6 11.5,7 4.3,3.3 15.9,12.3 25.8,19.9 42.4,32.4 45.5,35.1 95,84.1 29.9,29.5 41.7,42 55.1,58.1 23.7,28.4 42.4,53 52.9,69.3 3.3,5.2 9.6,15 13.9,21.8 19.4,30.1 28.1,47.4 43.3,85.9 3.6,9.1 7.3,18.6 8.4,21.1 1,2.5 2.3,6.3 2.8,8.5 0.5,2.1 2.1,7.5 3.6,11.9 4.7,14.5 5.4,16.9 8.9,30.5 1.8,7.4 4.4,17.1 5.6,21.5 3.8,13.9 4.9,18.7 8.1,32.5 1.6,7.4 3.6,16.2 4.4,19.5 2.6,11.4 3.4,16.1 5.5,30 1.1,7.7 2.7,18.3 3.5,23.5 0.8,5.2 2.2,14.4 3.1,20.5 0.9,6 2.9,19.1 4.4,29 5.5,34.7 6.8,52 7.6,106.6 1,63.5 -1.8,99.5 -12.1,156.4 -1.3,7.1 -2.8,16.1 -3.5,20 -0.6,3.8 -1.5,8.6 -2,10.5 -0.9,3.4 -4.2,19.6 -6,29 -0.5,2.5 -1.3,6.3 -1.8,8.5 -0.6,2.2 -1.9,8.3 -3.1,13.5 -2.5,12 -8.4,36.6 -10.6,44.5 -0.9,3.3 -2.3,8.7 -3,12 -1.4,6.4 -9.1,30.8 -13.1,41.5 -1.3,3.6 -3.9,10.8 -5.8,16 -6.7,18.7 -8.3,22.7 -21.1,53.5 -27.7,66.5 -43.8,96 -86,157.5 -13.4,19.5 -31.1,43 -39.5,52.4 -2.5,2.8 -5.2,6.1 -6,7.3 -3.1,4.5 -25.8,29.3 -36.4,39.7 -23.7,23.3 -56.2,52.4 -71.8,64.4 l -7.8,5.9 -27.2,0.6 c -79.8,1.7 -201.1,0.6 -296.3,-2.7 -55.3,-2 -110.3,-3.4 -179.5,-4.6 -31.1,-0.5 -80.3,-1.5 -109.5,-2 -125.5,-2.5 -218.8,-3.4 -352.2,-3.5 l -142.19999,-0.2 -3.4,-2.4 c -6.8,-4.7 -26.3,-19.8 -29.8,-23.1 -5,-4.6 -23.8,-20.4 -37.9,-31.8 -3.7,-3 -9.6,-8 -13,-11 -32.4,-28.5 -47.4,-42.2 -58.6,-53.5 -12.9,-13.1 -39.6,-42.8 -50.4,-56 -3,-3.7 -6,-7.2 -6.6,-7.9 -1.4,-1.5 -22.5,-29.4 -24.7,-32.6 -0.9,-1.4 -3,-4.3 -4.7,-6.5 -1.6,-2.2 -6.8,-9.6 -11.5,-16.5 -4.7,-6.9 -11.4,-16.6 -15,-21.5 -7.4,-10.2 -11.5,-16 -20.3,-29 -3.4,-5 -8,-11.7 -10.3,-15 -14.8,-21.2 -29.3,-43.4 -33.4,-51.1 -2.6,-4.9 -5.4,-9.6 -6.1,-10.4 -0.6,-0.8 -1.9,-3.5 -2.7,-6 -0.8,-2.5 -3.6,-8.1 -6.2,-12.5 -2.6,-4.3 -5.1,-8.8 -5.5,-9.9 -0.8,-2 -5.5,-12.5 -10.6,-23.2 -1.3,-2.8 -2.4,-5.4 -2.4,-5.7 0,-0.4 -2.9,-6.8 -6.5,-14.3 -3.6,-7.5 -6.5,-13.9 -6.5,-14.2 0,-0.6 -5.1,-11.6 -8.5,-18.2 -1.3,-2.5 -4.8,-10.6 -7.8,-18 -3,-7.4 -7,-16.9 -8.9,-21 -2,-4.1 -4.2,-10 -5.1,-13 -3.4,-12.2 -5.6,-20.7 -6.2,-24.5 -0.3,-2.2 -1.2,-6 -2,-8.5 -0.8,-2.5 -1.6,-6.1 -1.9,-8 -0.3,-1.9 -1.2,-7.3 -2.1,-12 -2,-11 -3.2,-19.9 -4.5,-33.5 -0.6,-6.1 -1.7,-17.1 -2.5,-24.5 -3.7,-34.5 -5.4,-85.4 -3.4,-103 0.5,-4.1 1.6,-15.3 2.4,-24.9 0.9,-9.6 1.8,-17.8 2.1,-18.3 0.3,-0.4 1.1,-4.9 1.9,-10 2.7,-17.5 4.5,-28.3 6,-35.3 0.9,-3.9 2,-9.5 2.5,-12.5 1.2,-6.5 2.5,-13 3.8,-18.5 1.3,-5.4 3.1,-13.1 4.2,-18 1.7,-7.7 2.9,-12.1 6,-23 5.2,-18 5.7,-19.9 6.9,-22.8 0.6,-1.5 1.7,-5.6 2.5,-9.1 0.8,-3.5 2.7,-9 4.2,-12.2 1.4,-3.3 3.4,-8.4 4.4,-11.4 3.2,-9.8 6,-17.3 10.5,-28 2.4,-5.8 5.6,-13.7 7,-17.5 1.4,-3.9 3.5,-9.1 4.5,-11.8 1.1,-2.6 2.9,-6.8 3.9,-9.5 18.3,-44.7 36.9,-84.5 51.1,-109.2 2,-3.6 6.3,-11.2 9.4,-17 3.2,-5.8 8,-14.1 10.7,-18.5 2.6,-4.4 5.7,-9.6 6.8,-11.5 1,-1.9 3.7,-6.4 6,-10 2.2,-3.6 5.3,-8.5 6.7,-11 1.5,-2.5 3.7,-6.1 4.9,-8 1.2,-1.9 4.1,-6.7 6.5,-10.5 2.4,-3.9 5.2,-8.3 6.3,-10 1.2,-1.6 5.2,-7.5 8.9,-13 6.2,-9.2 12.7,-18.2 23.9,-33.9 2.4,-3.2 6.8,-8.9 9.8,-12.6 3.1,-3.8 7.4,-9.2 9.6,-12.1 26.4,-34.4 72.7,-84.7 100.5,-109.3 6.3,-5.5 14.6,-13.1 18.5,-16.7 3.8,-3.7 8.6,-7.7 10.5,-8.9 l 3.5,-2.1 67,0.7 c 36.9,0.4 89.29999,1 116.49999,1.4 z"
       id="path9370"
       inkscape:connector-curvature="0"
       style="fill:#000000;stroke:none" />
    <path
       d="m 1407.3516,498 c -7.6,1.2 -15.2,3.1 -32.3,8.1 -7.5,2.2 -18,5.1 -23.2,6.4 -27.5,6.7 -39.3,10.4 -58.5,18.2 -8.8,3.6 -21.4,8.5 -28,10.8 -21.5,7.7 -28.7,10.7 -46.5,19.2 -9.6,4.7 -19.6,9.3 -22.2,10.4 -9.9,3.9 -24.1,11.7 -45.3,24.7 -36.7,22.6 -50.8,33.3 -70.7,54 l -11.6,12.2 -4.8,0 c -7.8,0 -12.6,3.2 -28.9,19 -8.3,8 -17.2,16.3 -19.8,18.4 -2.7,2.2 -11.3,11.6 -19.29999,21 -8,9.4 -18.3,21.4 -23,26.6 -11.2,12.6 -21.1,27.5 -33,50 -14.7,27.9 -15.9,30.6 -24.4,53.5 -1,2.7 -3.1,8.1 -4.6,12 -9.5,24.5 -13.6,41.6 -22,90.5 -1.9,11.3 -3.9,21.8 -4.4,23.5 -0.5,1.6 -1.2,5.7 -1.5,9 -0.4,3.3 -2.1,16.3 -3.8,29 -3,22.3 -3.1,24.1 -2.9,55.4 0.3,45.4 4.8,84.7 12.5,110.6 3.7,12.3 5.7,18.5 8,25 1.4,3.8 5.5,16.2 9.2,27.5 3.7,11.3 8.7,24.8 11.2,30 5.9,12.4 14.6,33.1 16.8,39.8 1.7,5.2 36.2,75.2 39.5,80.2 0.9,1.4 3.6,5.4 6,9 2.3,3.6 6.4,9.6 9,13.5 2.6,3.8 7.5,11.5 11,17 9.19999,14.6 15.79999,23 29.39999,38 6.6,7.3 16.9,18.6 22.9,25.1 19.2,21.3 56.7,56.5 84.2,79.1 8.4,6.9 61.2,41.7 71.5,47.1 4.7,2.5 13.5,7.4 19.6,10.9 6.2,3.5 15.2,7.9 20,9.9 14.9,5.8 18.2,7.5 37.4,18.4 10.2,5.8 21.9,12.2 26,14.2 4.1,2 10,5.1 13.1,7 8.8,5.3 32.3,12.3 46,13.8 5.2,0.5 12.3,1.4 15.9,1.9 6.1,0.8 18.7,0.1 23.6,-1.4 1.1,-0.3 5.1,0.1 9,1 12.5,2.9 26.8,5.5 30.5,5.5 1.9,0 8.2,0.7 14,1.6 6.5,1 16,1.5 25.4,1.4 8.3,-0.1 30.3,0.3 49,0.9 50,1.7 78,0.6 101,-3.8 2.8,-0.6 12.9,-1.7 22.5,-2.6 14.2,-1.2 34.9,-4.7 41.2,-7 3.1,-1.1 19.4,-2.6 32.3,-3.1 22,-0.8 37.6,-2.1 42.5,-3.7 8.9,-3 15.7,-4.8 24.6,-6.7 22.3,-4.6 28.2,-7 53.6,-21.6 49.6,-28.6 100.7,-64.7 125.7,-88.9 12.6,-12.2 31.1,-34 40.7,-48 1.1,-1.6 3.8,-5.5 5.9,-8.5 15.7,-22.2 42.3,-87.2 51.6,-126 1,-4.1 2.4,-9.8 3.3,-12.5 1.8,-6.2 6.1,-22 7,-26 0.4,-1.7 1.1,-4.6 1.5,-6.5 7,-28.6 11.9,-87.3 10.7,-127 -0.3,-11.8 -0.8,-29.8 -1.1,-40 -0.6,-20.3 -2,-43.1 -3.5,-55.5 -0.5,-4.4 -1.6,-14.3 -2.5,-22 -0.9,-7.7 -2,-15.6 -2.5,-17.5 -0.4,-1.9 -1.8,-9.6 -3,-17 -1.2,-7.4 -3.5,-19.4 -5.2,-26.5 -1.6,-7.2 -3.3,-15 -3.8,-17.5 -0.5,-2.5 -1.6,-7.2 -2.5,-10.5 -1,-3.3 -2.5,-9.2 -3.5,-13 -1.7,-7 -11.2,-35.8 -16.9,-51.2 -4.5,-12.5 -13.8,-34.6 -19.2,-46 -2.7,-5.7 -4.9,-10.5 -4.9,-10.8 0,-1.8 -19.8,-42.3 -26.9,-54.9 -3.4,-6 -6.1,-11.1 -6.1,-11.3 0,-0.6 -16.4,-25.7 -25.7,-39.3 -13.3,-19.5 -30.8,-39.8 -48,-55.6 -5.8,-5.5 -11.6,-10.8 -12.8,-11.9 -8.3,-7.7 -34.3,-29.8 -44.9,-38.3 -2.3,-1.8 -8.4,-6.6 -13.6,-10.8 -18,-14.2 -40.9,-31.3 -52.7,-39.2 -48.6,-32.4 -119.4,-68.4 -169.8,-86.2 -8,-2.8 -32.8,-9.8 -51.5,-14.5 -14.5,-3.6 -35.3,-7.5 -49,-9 -13.8,-1.6 -30.7,-3.9 -50.5,-7 -11.1,-1.8 -17.7,-1.9 -27.8,-0.3 -5.9,0.9 -8.9,0.9 -12.5,0 -6.5,-1.6 -26.4,-2.3 -33.7,-1.2 z m 23.5,17.1 c 4.7,0.6 11,1.8 14.1,2.5 4.1,1 7.4,1.1 12.5,0.5 7.1,-0.9 13.3,-0.3 39.9,3.9 6.6,1.1 19,2.7 27.5,3.6 18.3,1.9 39.5,5.9 61,11.6 8.5,2.2 18.9,4.9 23,5.9 27.3,6.6 97.3,38 138.5,62.1 35.4,20.7 54.2,33.4 90.4,61.3 37.9,29.2 86.5,73.5 103,94 13,16.1 28.8,39.1 41.5,60.5 12,20.1 39.2,76.7 49.8,103.5 12.6,32.1 26.8,76.1 30.7,95.5 0.6,3 2.5,12.5 4.2,21 3.7,18 4,19.5 6.8,39.5 3.5,24.8 5.1,43 5.7,63 0.3,10.4 0.9,27.1 1.4,36.9 1.8,33.7 0.9,64.9 -3,103.6 -2.3,22.8 -8.7,55.4 -12.6,64.8 -0.8,1.8 -1.4,3.9 -1.4,4.7 0,1.3 -5.9,22.6 -10.9,39.5 -4.1,13.8 -11.7,34.9 -14.1,39.3 -0.6,0.9 -2.1,4.5 -3.4,8 -3.3,8.6 -16.5,35.6 -22.3,45.2 -2.6,4.4 -8.8,13.4 -13.8,19.9 -4.9,6.5 -9.9,13.1 -11,14.5 -15.8,21 -42.3,44.6 -77.9,69.6 -51.5,36.1 -111.4,69 -131.6,72.3 -9.3,1.6 -26.5,3 -49.7,4.2 -11.2,0.6 -20.8,1.3 -21.5,1.5 -2.7,1 -43.8,6.4 -53.3,7 -5.5,0.4 -15.6,1.8 -22.3,3.1 -18.5,3.6 -39.5,4.5 -83.2,3.7 -21.2,-0.3 -45.2,-0.7 -53.5,-0.8 -19.7,-0.1 -36,-1.8 -45.4,-4.8 -17.1,-5.5 -33.9,-8.6 -50.1,-9.2 -25.4,-1 -34.5,-2.2 -40.9,-5.5 -3.1,-1.5 -7.2,-3.1 -9.1,-3.5 -1.9,-0.4 -4,-1.1 -4.6,-1.6 -0.6,-0.5 -5.4,-2.4 -10.7,-4.4 -10.8,-3.9 -16.2,-6.4 -28.8,-13.6 -4.7,-2.7 -13.9,-7.2 -20.4,-9.9 -6.5,-2.7 -13.4,-6 -15.4,-7.3 -2,-1.3 -5.6,-3.4 -8,-4.7 -2.5,-1.2 -7.9,-5 -12,-8.4 -8.1,-6.6 -13.1,-9.7 -25.1,-15.6 -4.1,-2.1 -10.7,-5.7 -14.5,-8 -4.4,-2.7 -8.3,-4.4 -10.5,-4.5 -4.4,-0.2 -8.3,-1.8 -12.9,-5.3 -2,-1.6 -6.7,-4.8 -10.6,-7.2 -14.7,-9 -29.9,-20.6 -47.6,-36.2 -10.1,-8.9 -23.1,-20.3 -28.9,-25.4 -5.8,-5.1 -18.6,-17.9 -28.5,-28.5 -9.9,-10.6 -22.4,-24 -27.8,-29.7 -10.2,-10.8 -21.4,-24.9 -25.7,-32.3 -1.4,-2.4 -8.8,-13.8 -16.6,-25.4 -8.19999,-12.3 -17.19999,-27.2 -21.59999,-36 -4.2,-8.3 -11.6,-22.9 -16.5,-32.6 -5,-9.6 -9.9,-20.2 -11.1,-23.5 -4.6,-13.2 -6.8,-18.5 -12.9,-31.9 -8.4,-18.5 -11.3,-26.3 -22.7,-62 -11.9,-37.1 -13.2,-41.5 -14.6,-49 -0.7,-3.3 -1.6,-7.9 -2.1,-10.3 -0.5,-2.4 -1.4,-9.6 -1.9,-16 -0.5,-6.4 -1.5,-16.4 -2.1,-22.2 -1.6,-13.2 -1.6,-67.5 -0.1,-79 0.6,-4.7 2,-15.7 3.2,-24.5 1.1,-8.8 3.2,-22.3 4.6,-30 1.4,-7.7 3.4,-19 4.4,-25 4.3,-25.7 10,-52.5 13.7,-65 0.9,-2.8 3.5,-10 5.9,-16 2.3,-6.1 5.8,-15.3 7.7,-20.5 2,-5.2 4.9,-12.6 6.6,-16.3 4,-8.9 21.5,-41.7 25.9,-48.7 4.3,-6.7 16.1,-21.6 25.6,-32.3 3.9,-4.4 11.79999,-13.5 17.59999,-20.3 10.9,-12.6 26.8,-27.6 30.8,-28.8 1.2,-0.4 10.1,-8.3 19.7,-17.6 17.5,-16.9 30.2,-27.2 40.8,-33.2 3.2,-1.8 8.4,-5.2 11.5,-7.6 19.2,-14.4 52.8,-36.1 70.5,-45.5 22.2,-11.7 57.1,-27.8 73.2,-33.7 9.4,-3.5 22.2,-8.4 28.5,-11 23.3,-9.6 32.4,-12.7 60.5,-20.4 5,-1.4 16.4,-4.6 25.5,-7.2 20.6,-5.8 40.7,-10 46.3,-9.7 2.3,0.2 8,0.8 12.7,1.4 z"
       id="path9372"
       inkscape:connector-curvature="0"
       style="fill:#000000;stroke:none" />
    <path
       d="m 1434.9516,1072.8 c -6.2,3.3 -8.9,11.9 -5.7,18.1 4.7,9.1 18.7,7.7 22.5,-2.2 1.3,-3.4 1.2,-4.4 -0.3,-9.2 -0.9,-3 -2.7,-6.1 -3.9,-7 -2.9,-2 -8.5,-1.9 -12.6,0.3 z"
       id="path9374"
       inkscape:connector-curvature="0"
       style="fill:#000000;stroke:none" />
    <path
       d="m 324.85161,349.1 c -22.6,1.7 -35.6,5 -41.6,10.6 -4,3.7 -3,7.4 2.4,9.3 4,1.4 4.6,1.3 12.1,-1.3 8.9,-3.2 18.5,-4.5 39.1,-5.4 8,-0.3 15.1,-1 15.8,-1.5 1.9,-1.6 1.5,-9.6 -0.5,-10.6 -2.7,-1.4 -16.6,-1.9 -27.3,-1.1 z"
       id="path9382"
       inkscape:connector-curvature="0"
       style="fill:#000000;stroke:none" />
    <path
       d="m 417.25161,351.7 c -0.6,0.4 -1.6,2.8 -2.2,5.3 -1.9,7.6 -1.8,7.6 24.6,8.4 64.4,1.8 79.1,1.9 80.7,0.6 1.9,-1.5 2.1,-10.5 0.3,-11.7 -0.7,-0.4 -15.5,-1.1 -32.8,-1.5 -17.3,-0.3 -40,-0.9 -50.5,-1.3 -10.4,-0.3 -19.5,-0.3 -20.1,0.2 z"
       id="path9384"
       inkscape:connector-curvature="0"
       style="fill:#000000;stroke:none" />
    <path
       d="m 586.15161,355.1 c -0.7,0.7 -1.3,3.4 -1.3,5.9 0,6 1.5,6.7 13.5,6.9 5,0.1 19.5,0.6 32.4,1.1 15.6,0.6 23.9,0.6 25.2,-0.1 1.5,-0.7 1.9,-2.1 1.9,-5.8 0,-2.7 -0.6,-5.3 -1.2,-5.8 -0.7,-0.6 -9.8,-1.3 -20.3,-1.6 -10.4,-0.4 -25.7,-0.9 -34,-1.3 -11.7,-0.5 -15.3,-0.3 -16.2,0.7 z"
       id="path9386"
       inkscape:connector-curvature="0"
       style="fill:#000000;stroke:none" />
    <path
       d="m 2459.3516,380 c -14,0.6 -26.7,1.7 -44.5,4 -4.1,0.6 -17.5,1 -29.8,1 -13.5,0 -23.1,0.4 -24.3,1 -1.5,0.9 -1.9,2.2 -1.9,6.5 0,4.6 0.3,5.6 2.2,6.6 3.3,1.8 48.4,0.3 69.5,-2.2 9.2,-1.1 24.2,-2.4 33.3,-2.8 20.2,-0.9 24,-2.4 24,-9.2 0,-2.3 -4.1,-4.5 -9.5,-5 -2.2,-0.3 -10.7,-0.2 -19,0.1 z"
       id="path9388"
       inkscape:connector-curvature="0"
       style="fill:#000000;stroke:none" />
    <path
       d="m 2222.7516,381.9 c -2.7,2.2 -3,10.8 -0.3,12.8 1.4,1 7.8,1.3 27.8,1.4 14.4,0 31.3,0.4 37.6,0.8 14.5,1 16,0.3 16,-6.9 0,-2.9 -0.6,-5.4 -1.4,-6.3 -1.2,-1.1 -8,-1.6 -34.8,-2.1 -18.3,-0.4 -35.4,-0.9 -38.1,-1.1 -3.3,-0.2 -5.3,0.2 -6.8,1.4 z"
       id="path9390"
       inkscape:connector-curvature="0"
       style="fill:#000000;stroke:none" />
    <path
       d="m 2578.6516,1809.2 c -1.6,1.6 -1.8,2.7 -1.3,6.1 0.4,2.3 1.3,4.8 2,5.5 1,1.1 8.4,1.4 36,1.5 21.9,0.1 35.3,-0.2 36.1,-0.8 1.8,-1.4 0.2,-10.4 -2.2,-12.2 -1.3,-1 -6.5,-1.3 -20.3,-1.3 -10.2,0 -25.3,-0.2 -33.4,-0.4 -13.8,-0.4 -15,-0.3 -16.9,1.6 z"
       id="path9398"
       inkscape:connector-curvature="0"
       style="fill:#000000;stroke:none" />
    <path
       d="m 2458.1516,1809.3 c -2,0.8 -2.3,1.8 -2.3,6.1 0,8.7 -2.7,8.1 37.7,7.7 21.2,-0.2 36.6,-0.7 37.7,-1.3 1.5,-0.8 1.7,-1.8 1.3,-5.4 -0.2,-2.5 -1.3,-5.4 -2.3,-6.5 -1.7,-1.9 -3,-1.9 -35.8,-1.8 -21.3,0.1 -34.9,0.5 -36.3,1.2 z"
       id="path9400"
       inkscape:connector-curvature="0"
       style="fill:#000000;stroke:none" />
    <path
       d="m 2347.1516,1810 c -9.5,0.3 -15.6,0.9 -16.4,1.7 -1.4,1.4 -0.3,10.9 1.4,12 1.7,1.1 71.8,0.3 74,-0.8 1.2,-0.7 1.7,-2.2 1.7,-5.4 0,-3.5 -0.5,-4.7 -2.7,-6.5 -2.6,-2 -3.6,-2.1 -22.8,-1.8 -11,0.2 -26.8,0.5 -35.2,0.8 z"
       id="path9402"
       inkscape:connector-curvature="0"
       style="fill:#000000;stroke:none" />
    <path
       d="m 2699.3516,1811 c -2.5,2.7 -1.5,9.8 1.7,12.4 2.1,1.7 3.6,1.8 14.6,1.3 6.9,-0.3 12.8,-1 13.6,-1.6 2,-1.7 2.9,-7.7 1.4,-10 -2,-3.3 -5.4,-4.1 -17.7,-4.1 -10.5,0 -12,0.2 -13.6,2 z"
       id="path9404"
       inkscape:connector-curvature="0"
       style="fill:#000000;stroke:none" />
    <path
       d="m 733.75161,1811.1 c -8.6,0.4 -16.5,1.2 -17.6,1.8 -1.5,0.7 -2.2,2.5 -2.7,6.3 -1,7.6 0.1,8.2 13.4,7.3 5.8,-0.4 17.5,-1 26,-1.5 8.5,-0.4 16.3,-1 17.3,-1.5 2.5,-1.1 2.4,-9.6 -0.2,-11.9 -2.1,-1.9 -1.3,-1.9 -36.2,-0.5 z"
       id="path9406"
       inkscape:connector-curvature="0"
       style="fill:#000000;stroke:none" />
    <path
       d="m 2261.7516,1811.4 c -0.2,0.2 -11.1,0.6 -24.2,0.9 -16.1,0.4 -24.3,1 -25.3,1.8 -0.9,0.7 -1.4,3.1 -1.4,6.5 0,7.4 0.7,7.6 17.7,6.4 7.6,-0.5 21.9,-1 31.8,-1 21.7,0 22.8,-0.4 21.9,-7.8 -0.4,-2.6 -1.3,-5.3 -2.2,-6 -1.4,-1.1 -17.2,-1.8 -18.3,-0.8 z"
       id="path9408"
       inkscape:connector-curvature="0"
       style="fill:#000000;stroke:none" />
    <path
       d="m 635.85161,1816.2 c -17.7,1 -19.3,1.8 -19.8,9.6 -0.4,6.5 1.1,7.5 9.4,6.2 3.3,-0.6 11.2,-1 17.6,-1 10.7,0 11.9,-0.2 14.3,-2.3 3.4,-2.9 4.5,-9.5 2,-12 -1.8,-1.9 -1.5,-1.9 -23.5,-0.5 z"
       id="path9410"
       inkscape:connector-curvature="0"
       style="fill:#000000;stroke:none" />
    <path
       d="m 545.35161,1824.7 c -5.9,0.8 -14.7,1.2 -21.5,1 -14.8,-0.5 -30.2,1.3 -33,3.8 -2.9,2.6 -2.6,6.9 0.7,9.5 2.6,2 3.5,2.1 14.8,1.5 6.6,-0.3 17.4,-0.8 24,-1 18.1,-0.6 27.8,-1.6 30.1,-3.1 1.5,-0.9 2.4,-2.8 2.8,-5.9 1.2,-8 0,-8.4 -17.9,-5.8 z"
       id="path9412"
       inkscape:connector-curvature="0"
       style="fill:#000000;stroke:none" />
    <path
       d="m 1097.6516,1893.7 c -2,2.3 -5.8,11 -5.8,13.3 0,2.2 3.4,4.5 8,5.5 1.9,0.4 6.9,2.2 11,4 4.1,1.8 16.5,6.2 27.5,9.8 11,3.6 26.5,8.7 34.5,11.3 15.5,5 17.8,5.4 19.6,2.9 1.6,-2.1 1.6,-15.1 0.1,-16.4 -0.7,-0.5 -6.3,-2.4 -12.4,-4 -12.1,-3.3 -59.2,-18.8 -60.8,-20.1 -1.5,-1.1 -17.9,-8 -19.1,-8 -0.6,0 -1.8,0.8 -2.6,1.7 z"
       id="path9414"
       inkscape:connector-curvature="0"
       style="fill:#000000;stroke:none" />
    <path
       d="m 1864.8516,1917.6 c -24.2,10.8 -91.4,33.3 -99.6,33.4 -1.1,0 -2.9,0.6 -3.9,1.4 -1.7,1.2 -1.8,1.8 -0.6,8.5 1.9,10.7 2.9,11.1 16.7,6.6 6,-1.9 11.4,-3.5 12,-3.5 1.2,0 17.8,-5.1 32.9,-10.1 22.8,-7.6 59.8,-21.5 60.3,-22.8 0.3,-0.7 -0.9,-2.4 -2.7,-3.8 -1.7,-1.4 -3.9,-3.9 -4.8,-5.6 -1.7,-3.3 -4.1,-5.6 -5.8,-5.6 -0.5,0 -2.6,0.7 -4.5,1.5 z"
       id="path9416"
       inkscape:connector-curvature="0"
       style="fill:#000000;stroke:none" />
    <path
       d="m 1245.9516,1940.8 c -0.5,0.9 -1.6,4.4 -2.5,7.7 -1.5,5.8 -1.5,6 0.5,7.7 1.1,1 3.7,2 5.7,2.4 2,0.3 8.7,1.8 14.7,3.4 6.1,1.5 18.2,4.5 27,6.5 8.8,2.1 22.1,5.3 29.5,7.2 7.4,2 15.5,3.9 18,4.3 2.5,0.5 7,1.5 10,2.3 8.9,2.5 13.3,2.9 15.1,1.5 1.2,-0.9 1.9,-3.6 2.4,-8.5 l 0.6,-7.3 -3.3,-1.4 c -1.8,-0.8 -6.9,-2.2 -11.3,-3.1 -4.4,-0.9 -13.2,-3 -19.5,-4.5 -6.3,-1.6 -16.9,-4 -23.5,-5.5 -6.6,-1.4 -16,-3.7 -21,-5 -4.9,-1.3 -10.6,-2.7 -12.5,-3 -1.9,-0.4 -8.1,-2 -13.6,-3.6 -11.7,-3.4 -15,-3.6 -16.3,-1.1 z"
       id="path9418"
       inkscape:connector-curvature="0"
       style="fill:#000000;stroke:none" />
    <path
       d="m 1692.8516,1967 c -8.1,1.9 -31.1,5.8 -42.5,7.1 -18.4,2.2 -24.9,2.9 -36.5,3.9 -6.9,0.7 -13.2,1.5 -14,2 -2.6,1.3 -1.3,14.5 1.8,16.8 1.9,1.5 0.8,1.6 30.7,-2.3 46.5,-6 76.1,-10.7 79.8,-12.6 0.9,-0.6 1.7,-1.4 1.7,-2 0,-2.6 -3.3,-12 -4.6,-13.4 -2,-1.9 -7,-1.8 -16.4,0.5 z"
       id="path9420"
       inkscape:connector-curvature="0"
       style="fill:#000000;stroke:none" />
    <path
       d="m 1421.2516,1976.4 c -2.6,1.9 -5.4,15 -3.6,16.8 1.3,1.3 7.9,2.2 28.7,3.8 30.4,2.4 42.1,3 68.5,3.6 32.1,0.8 31,1.1 29,-7.8 -0.6,-2.9 -1.4,-6 -1.6,-6.9 -0.9,-3.2 -5.1,-3.9 -23.7,-3.9 -23.6,0 -54.9,-1.6 -70.7,-3.5 -6.9,-0.8 -14.6,-1.7 -17.3,-2 -2.6,-0.3 -5.3,-0.8 -6,-1.1 -0.7,-0.2 -2.1,0.2 -3.3,1 z"
       id="path9422"
       inkscape:connector-curvature="0"
       style="fill:#000000;stroke:none" />
  </g>
  <text
     xml:space="preserve"
     style="font-style:normal;font-weight:normal;font-size:68.33264923px;line-height:125%;font-family:sans-serif;letter-spacing:0px;word-spacing:0px;fill:#000000;fill-opacity:1;stroke:none;stroke-width:1px;stroke-linecap:butt;stroke-linejoin:miter;stroke-opacity:1"
     x="1199.5947"
     y="1000.3822"
     id="text4161"
     sodipodi:linespacing="125%"><tspan
       sodipodi:role="line"
       id="tspan4163"
       x="1199.5947"
       y="1000.3822">radius_of_outlets</tspan></text>
  <text
     xml:space="preserve"
     style="font-style:normal;font-weight:normal;font-size:73.51460266px;line-height:125%;font-family:sans-serif;letter-spacing:0px;word-spacing:0px;fill:#000000;fill-opacity:1;stroke:none;stroke-width:1px;stroke-linecap:butt;stroke-linejoin:miter;stroke-opacity:1"
     x="237.554"
     y="944.46075"
     id="text4165"
     sodipodi:linespacing="125%"><tspan
       sodipodi:role="line"
       id="tspan4167"
       x="237.554"
       y="944.46075">border_of</tspan><tspan
       sodipodi:role="line"
       x="237.554"
       y="1036.354"
       id="tspan4173">_outlet</tspan></text>
  <text
     xml:space="preserve"
     style="font-style:normal;font-weight:normal;font-size:70.55396271px;line-height:125%;font-family:sans-serif;letter-spacing:0px;word-spacing:0px;fill:#000000;fill-opacity:1;stroke:none;stroke-width:1px;stroke-linecap:butt;stroke-linejoin:miter;stroke-opacity:1"
     x="2178.7795"
     y="916.63928"
     id="text4169"
     sodipodi:linespacing="125%"><tspan
       sodipodi:role="line"
       id="tspan4171"
       x="2178.7795"
       y="916.63928">y</tspan></text>
  <path
     style="fill:none;fill-rule:evenodd;stroke:#000000;stroke-width:5.76000055;stroke-linecap:butt;stroke-linejoin:miter;stroke-opacity:1;stroke-miterlimit:4;stroke-dasharray:none;marker-end:url(#Arrow1Lend);marker-start:url(#marker4787)"
     d="m 1166.1014,900.67729 635.5103,8.99312"
     id="path4175"
     inkscape:connector-curvature="0" />
  <path
     style="fill:none;fill-rule:evenodd;stroke:#000000;stroke-width:5.76000071;stroke-linecap:butt;stroke-linejoin:miter;stroke-miterlimit:4;stroke-dasharray:none;stroke-opacity:1;marker-start:url(#marker4787-3);marker-end:url(#Arrow1Lend-7)"
     d="m 269.79205,1141.9914 353.72743,-74.9422"
     id="path4175-3"
     inkscape:connector-curvature="0"
     sodipodi:nodetypes="cc" />
  <path
     inkscape:connector-curvature="0"
     id="path5994"
     d="m 2152.3415,217.20393 8.9931,1411.91207"
     style="fill:none;fill-rule:evenodd;stroke:#000000;stroke-width:5.76000071;stroke-linecap:butt;stroke-linejoin:miter;stroke-miterlimit:4;stroke-dasharray:none;stroke-opacity:1;marker-start:url(#marker5996);marker-end:url(#marker6042)"
     sodipodi:nodetypes="cc" />
</svg>
