<?xml version="1.0" encoding="UTF-8" standalone="no"?>
<svg
   xmlns:dc="http://purl.org/dc/elements/1.1/"
   xmlns:cc="http://creativecommons.org/ns#"
   xmlns:rdf="http://www.w3.org/1999/02/22-rdf-syntax-ns#"
   xmlns:svg="http://www.w3.org/2000/svg"
   xmlns="http://www.w3.org/2000/svg"
   xmlns:sodipodi="http://sodipodi.sourceforge.net/DTD/sodipodi-0.dtd"
   xmlns:inkscape="http://www.inkscape.org/namespaces/inkscape"
   version="1.0"
   width="1686.809646pt"
   height="2130.788340pt"
   viewBox="0 0 1686.809646 2130.788340"
   preserveAspectRatio="xMidYMid meet"
   id="svg84"
   sodipodi:docname="velke.svg"
   inkscape:version="0.92pre2 r">
  <defs
     id="defs88">
    <marker
       inkscape:isstock="true"
       style="overflow:visible;"
       id="marker11821"
       refX="0.0"
       refY="0.0"
       orient="auto"
       inkscape:stockid="Arrow1Lend">
      <path
         transform="scale(0.8) rotate(180) translate(12.5,0)"
         style="fill-rule:evenodd;stroke:#a7a7a7;stroke-width:1pt;stroke-opacity:1;fill:#a7a7a7;fill-opacity:1"
         d="M 0.0,0.0 L 5.0,-5.0 L -12.5,0.0 L 5.0,5.0 L 0.0,0.0 z "
         id="path11819" />
    </marker>
    <marker
       inkscape:isstock="true"
       style="overflow:visible"
       id="marker11709"
       refX="0.0"
       refY="0.0"
       orient="auto"
       inkscape:stockid="Arrow1Lstart">
      <path
         transform="scale(0.8) translate(12.5,0)"
         style="fill-rule:evenodd;stroke:#a7a7a7;stroke-width:1pt;stroke-opacity:1;fill:#a7a7a7;fill-opacity:1"
         d="M 0.0,0.0 L 5.0,-5.0 L -12.5,0.0 L 5.0,5.0 L 0.0,0.0 z "
         id="path11707" />
    </marker>
    <marker
       inkscape:stockid="Arrow2Mend"
       orient="auto"
       refY="0.0"
       refX="0.0"
       id="marker10701"
       style="overflow:visible;"
       inkscape:isstock="true">
      <path
         id="path10699"
         style="fill-rule:evenodd;stroke-width:0.625;stroke-linejoin:round;stroke:#a7a7a7;stroke-opacity:1;fill:#a7a7a7;fill-opacity:1"
         d="M 8.7185878,4.0337352 L -2.2072895,0.016013256 L 8.7185884,-4.0017078 C 6.9730900,-1.6296469 6.9831476,1.6157441 8.7185878,4.0337352 z "
         transform="scale(0.6) rotate(180) translate(0,0)" />
    </marker>
    <marker
       inkscape:stockid="Arrow1Mstart"
       orient="auto"
       refY="0.0"
       refX="0.0"
       id="marker10601"
       style="overflow:visible"
       inkscape:isstock="true">
      <path
         id="path10599"
         d="M 0.0,0.0 L 5.0,-5.0 L -12.5,0.0 L 5.0,5.0 L 0.0,0.0 z "
         style="fill-rule:evenodd;stroke:#a7a7a7;stroke-width:1pt;stroke-opacity:1;fill:#a7a7a7;fill-opacity:1"
         transform="scale(0.4) translate(10,0)" />
    </marker>
    <marker
       inkscape:stockid="Arrow2Mend"
       orient="auto"
       refY="0.0"
       refX="0.0"
       id="marker9389"
       style="overflow:visible;"
       inkscape:isstock="true">
      <path
         id="path9387"
         style="fill-rule:evenodd;stroke-width:0.625;stroke-linejoin:round;stroke:#a7a7a7;stroke-opacity:1;fill:#a7a7a7;fill-opacity:1"
         d="M 8.7185878,4.0337352 L -2.2072895,0.016013256 L 8.7185884,-4.0017078 C 6.9730900,-1.6296469 6.9831476,1.6157441 8.7185878,4.0337352 z "
         transform="scale(0.6) rotate(180) translate(0,0)" />
    </marker>
    <marker
       inkscape:stockid="Arrow1Mstart"
       orient="auto"
       refY="0.0"
       refX="0.0"
       id="marker9301"
       style="overflow:visible"
       inkscape:isstock="true">
      <path
         id="path9299"
         d="M 0.0,0.0 L 5.0,-5.0 L -12.5,0.0 L 5.0,5.0 L 0.0,0.0 z "
         style="fill-rule:evenodd;stroke:#a7a7a7;stroke-width:1pt;stroke-opacity:1;fill:#a7a7a7;fill-opacity:1"
         transform="scale(0.4) translate(10,0)" />
    </marker>
    <marker
       inkscape:isstock="true"
       style="overflow:visible;"
       id="marker7753"
       refX="0.0"
       refY="0.0"
       orient="auto"
       inkscape:stockid="Arrow2Mend"
       inkscape:collect="always">
      <path
         transform="scale(0.6) rotate(180) translate(0,0)"
         d="M 8.7185878,4.0337352 L -2.2072895,0.016013256 L 8.7185884,-4.0017078 C 6.9730900,-1.6296469 6.9831476,1.6157441 8.7185878,4.0337352 z "
         style="fill-rule:evenodd;stroke-width:0.625;stroke-linejoin:round;stroke:#a7a7a7;stroke-opacity:1;fill:#a7a7a7;fill-opacity:1"
         id="path7751" />
    </marker>
    <marker
       inkscape:isstock="true"
       style="overflow:visible"
       id="marker7677"
       refX="0.0"
       refY="0.0"
       orient="auto"
       inkscape:stockid="Arrow1Mstart"
       inkscape:collect="always">
      <path
         transform="scale(0.4) translate(10,0)"
         style="fill-rule:evenodd;stroke:#a7a7a7;stroke-width:1pt;stroke-opacity:1;fill:#a7a7a7;fill-opacity:1"
         d="M 0.0,0.0 L 5.0,-5.0 L -12.5,0.0 L 5.0,5.0 L 0.0,0.0 z "
         id="path7675" />
    </marker>
    <marker
       inkscape:stockid="Arrow2Mend"
       orient="auto"
       refY="0.0"
       refX="0.0"
       id="Arrow2Mend"
       style="overflow:visible;"
       inkscape:isstock="true"
       inkscape:collect="always">
      <path
         id="path4632"
         style="fill-rule:evenodd;stroke-width:0.625;stroke-linejoin:round;stroke:#a7a7a7;stroke-opacity:1;fill:#a7a7a7;fill-opacity:1"
         d="M 8.7185878,4.0337352 L -2.2072895,0.016013256 L 8.7185884,-4.0017078 C 6.9730900,-1.6296469 6.9831476,1.6157441 8.7185878,4.0337352 z "
         transform="scale(0.6) rotate(180) translate(0,0)" />
    </marker>
    <marker
       inkscape:stockid="Arrow1Send"
       orient="auto"
       refY="0.0"
       refX="0.0"
       id="Arrow1Send"
       style="overflow:visible;"
       inkscape:isstock="true">
      <path
         id="path4620"
         d="M 0.0,0.0 L 5.0,-5.0 L -12.5,0.0 L 5.0,5.0 L 0.0,0.0 z "
         style="fill-rule:evenodd;stroke:#a7a7a7;stroke-width:1pt;stroke-opacity:1;fill:#a7a7a7;fill-opacity:1"
         transform="scale(0.2) rotate(180) translate(6,0)" />
    </marker>
    <marker
       inkscape:stockid="Arrow2Send"
       orient="auto"
       refY="0.0"
       refX="0.0"
       id="Arrow2Send"
       style="overflow:visible;"
       inkscape:isstock="true">
      <path
         id="path4638"
         style="fill-rule:evenodd;stroke-width:0.625;stroke-linejoin:round;stroke:#a7a7a7;stroke-opacity:1;fill:#a7a7a7;fill-opacity:1"
         d="M 8.7185878,4.0337352 L -2.2072895,0.016013256 L 8.7185884,-4.0017078 C 6.9730900,-1.6296469 6.9831476,1.6157441 8.7185878,4.0337352 z "
         transform="scale(0.3) rotate(180) translate(-2.3,0)" />
    </marker>
    <marker
       inkscape:stockid="Arrow1Mstart"
       orient="auto"
       refY="0.0"
       refX="0.0"
       id="Arrow1Mstart"
       style="overflow:visible"
       inkscape:isstock="true"
       inkscape:collect="always">
      <path
         id="path4611"
         d="M 0.0,0.0 L 5.0,-5.0 L -12.5,0.0 L 5.0,5.0 L 0.0,0.0 z "
         style="fill-rule:evenodd;stroke:#a7a7a7;stroke-width:1pt;stroke-opacity:1;fill:#a7a7a7;fill-opacity:1"
         transform="scale(0.4) translate(10,0)" />
    </marker>
    <marker
       inkscape:isstock="true"
       style="overflow:visible;"
       id="marker6403"
       refX="0.0"
       refY="0.0"
       orient="auto"
       inkscape:stockid="Arrow1Lend">
      <path
         transform="scale(0.8) rotate(180) translate(12.5,0)"
         style="fill-rule:evenodd;stroke:#a7a7a7;stroke-width:1pt;stroke-opacity:1;fill:#a7a7a7;fill-opacity:1"
         d="M 0.0,0.0 L 5.0,-5.0 L -12.5,0.0 L 5.0,5.0 L 0.0,0.0 z "
         id="path6401" />
    </marker>
    <marker
       inkscape:isstock="true"
       style="overflow:visible"
       id="marker6363"
       refX="0.0"
       refY="0.0"
       orient="auto"
       inkscape:stockid="Arrow1Lstart">
      <path
         transform="scale(0.8) translate(12.5,0)"
         style="fill-rule:evenodd;stroke:#a7a7a7;stroke-width:1pt;stroke-opacity:1;fill:#a7a7a7;fill-opacity:1"
         d="M 0.0,0.0 L 5.0,-5.0 L -12.5,0.0 L 5.0,5.0 L 0.0,0.0 z "
         id="path6361" />
    </marker>
    <marker
       inkscape:isstock="true"
       style="overflow:visible;"
       id="marker4963"
       refX="0.0"
       refY="0.0"
       orient="auto"
       inkscape:stockid="Arrow1Lend">
      <path
         transform="scale(0.8) rotate(180) translate(12.5,0)"
         style="fill-rule:evenodd;stroke:#a7a7a7;stroke-width:1pt;stroke-opacity:1;fill:#a7a7a7;fill-opacity:1"
         d="M 0.0,0.0 L 5.0,-5.0 L -12.5,0.0 L 5.0,5.0 L 0.0,0.0 z "
         id="path4961" />
    </marker>
    <marker
       inkscape:isstock="true"
       style="overflow:visible"
       id="marker4935"
       refX="0.0"
       refY="0.0"
       orient="auto"
       inkscape:stockid="Arrow1Lstart">
      <path
         transform="scale(0.8) translate(12.5,0)"
         style="fill-rule:evenodd;stroke:#a7a7a7;stroke-width:1pt;stroke-opacity:1;fill:#a7a7a7;fill-opacity:1"
         d="M 0.0,0.0 L 5.0,-5.0 L -12.5,0.0 L 5.0,5.0 L 0.0,0.0 z "
         id="path4933" />
    </marker>
    <marker
       inkscape:stockid="Arrow1Lend"
       orient="auto"
       refY="0.0"
       refX="0.0"
       id="Arrow1Lend"
       style="overflow:visible;"
       inkscape:isstock="true"
       inkscape:collect="always">
      <path
         id="path4608"
         d="M 0.0,0.0 L 5.0,-5.0 L -12.5,0.0 L 5.0,5.0 L 0.0,0.0 z "
         style="fill-rule:evenodd;stroke:#a7a7a7;stroke-width:1pt;stroke-opacity:1;fill:#a7a7a7;fill-opacity:1"
         transform="scale(0.8) rotate(180) translate(12.5,0)" />
    </marker>
    <marker
       inkscape:stockid="Arrow1Lstart"
       orient="auto"
       refY="0.0"
       refX="0.0"
       id="Arrow1Lstart"
       style="overflow:visible"
       inkscape:isstock="true"
       inkscape:collect="always">
      <path
         id="path4605"
         d="M 0.0,0.0 L 5.0,-5.0 L -12.5,0.0 L 5.0,5.0 L 0.0,0.0 z "
         style="fill-rule:evenodd;stroke:#a7a7a7;stroke-width:1pt;stroke-opacity:1;fill:#a7a7a7;fill-opacity:1"
         transform="scale(0.8) translate(12.5,0)" />
    </marker>
  </defs>
  <sodipodi:namedview
     pagecolor="#ffffff"
     bordercolor="#666666"
     borderopacity="1"
     objecttolerance="10"
     gridtolerance="10"
     guidetolerance="10"
     inkscape:pageopacity="0"
     inkscape:pageshadow="2"
     inkscape:window-width="1848"
     inkscape:window-height="1056"
     id="namedview86"
     showgrid="false"
     inkscape:zoom="0.29171092"
     inkscape:cx="825.74862"
     inkscape:cy="1491.9028"
     inkscape:window-x="72"
     inkscape:window-y="0"
     inkscape:window-maximized="1"
     inkscape:current-layer="svg84" />
  <metadata
     id="metadata2">
Created by potrace 1.13, written by Peter Selinger 2001-2015
<rdf:RDF>
  <cc:Work
     rdf:about="">
    <dc:format>image/svg+xml</dc:format>
    <dc:type
       rdf:resource="http://purl.org/dc/dcmitype/StillImage" />
  </cc:Work>
</rdf:RDF>
</metadata>
  <path
     sodipodi:nodetypes="cc"
     inkscape:connector-curvature="0"
     id="path6359"
     d="M 153.10965,1101.7861 17.299931,1100.8106"
     style="fill:none;fill-rule:evenodd;stroke:#a7a7a7;stroke-width:5.55000002;stroke-linecap:butt;stroke-linejoin:miter;stroke-miterlimit:4;stroke-dasharray:none;stroke-opacity:1;marker-start:url(#Arrow1Mstart);marker-end:url(#Arrow2Mend)" />
  <path
     style="fill:#000000;stroke:none;stroke-width:0.1"
     inkscape:connector-curvature="0"
     id="path4"
     d="m 1388.2457,0.5421 c 0.6,0.2 1.8,0.2 2.5,0 0.6,-0.3 0.1,-0.5 -1.3,-0.5 -1.4,0 -1.9,0.2 -1.2,0.5 z" />
  <path
     style="fill:none;fill-rule:evenodd;stroke:#a7a7a7;stroke-width:5.55000019;stroke-linecap:butt;stroke-linejoin:miter;stroke-miterlimit:4;stroke-dasharray:none;stroke-opacity:1;marker-start:url(#Arrow1Lstart);marker-end:url(#Arrow1Lend)"
     d="m 173.10764,1096.3321 920.44756,-26.4275"
     id="path145"
     inkscape:connector-curvature="0"
     sodipodi:nodetypes="cc" />
  <path
     sodipodi:nodetypes="cc"
     inkscape:connector-curvature="0"
     id="path4931"
     d="M 1443.6471,536.21526 1093.5552,1069.9046"
     style="fill:none;fill-rule:evenodd;stroke:#a7a7a7;stroke-width:5.55000019;stroke-linecap:butt;stroke-linejoin:miter;stroke-miterlimit:4;stroke-dasharray:none;stroke-opacity:1;marker-start:url(#marker4935);marker-end:url(#marker4963)" />
  <path
     sodipodi:nodetypes="cc"
     inkscape:connector-curvature="0"
     id="path9297"
     d="m 1549.3327,1514.4718 -88.2456,-4.1893"
     style="fill:none;fill-rule:evenodd;stroke:#a7a7a7;stroke-width:5.55000019;stroke-linecap:butt;stroke-linejoin:miter;stroke-miterlimit:4;stroke-dasharray:none;stroke-opacity:1;marker-start:url(#marker9301);marker-end:url(#marker9389)" />
  <path
     sodipodi:nodetypes="cc"
     inkscape:connector-curvature="0"
     id="path10597"
     d="m 1578.3455,517.46406 -99.8152,0.31002"
     style="fill:none;fill-rule:evenodd;stroke:#a7a7a7;stroke-width:5.55000019;stroke-linecap:butt;stroke-linejoin:miter;stroke-miterlimit:4;stroke-dasharray:none;stroke-opacity:1;marker-start:url(#marker10601);marker-end:url(#marker10701)" />
  <path
     style="fill:#000000;stroke:none;stroke-width:0.1"
     inkscape:connector-curvature="0"
     id="path6"
     d="m 1273.4457,6.5421 c -8.3,3.1 -6.1,11.2 4.9,18.3 2.8,1.7 7.6,6.4 10.7,10.3 3.2,4 8.7,10.6 12.4,14.7 3.6,4.1 9.6,11.1 13.2,15.5 8.6,10.5 28.9,29.7 54.6,51.9 5.7,4.9 14.3,13.5 19.2,19 4.9,5.6 13.2,14.4 18.5,19.6 5.4,5.2 13.9,14.4 19,20.5 5.1,6 13.4,15.7 18.4,21.5 8.8,10 11.9,13.9 25.7,32.5 7.7,10.4 17.4,25.5 17.4,27 0,0.3 1.1,2.3 2.5,4.5 1.3,2.1 6.1,10.8 10.6,19.2 4.5,8.4 10.9,19.5 14.1,24.7 3.3,5.2 10,17.6 14.9,27.5 4.9,10 9.7,19.4 10.6,21.1 8.5,15.9 40.3,80.7 40.3,82.2 0,0.3 3.1,6.7 6.9,14.2 13,25.9 29.2,64 33.1,78.1 0.7,2.5 1.6,5.6 2,7 0.4,1.4 2.2,7.2 4,13 1.8,5.8 4,12.7 5,15.5 5.2,14.1 9.3,29.6 13.6,50.5 3.2,16.2 4,21.8 6,43.5 0.9,9.9 2,20.9 2.5,24.5 0.4,3.6 1.3,10.8 1.8,16 0.6,5.2 2,14.9 3,21.5 1.1,6.6 2.5,17.4 3,24 5.5,63.2 7.5,83.2 11.8,119.5 3.7,31.2 1.9,92.4 -4.1,137.5 -1.4,9.9 -2.5,18.7 -2.5,19.5 0,0.8 -0.7,5.8 -1.6,11 -0.8,5.2 -1.9,14 -2.5,19.5 -0.5,5.5 -1.6,17 -2.4,25.5 -0.9,8.5 -2,25.6 -2.5,38 -0.6,12.4 -1.5,30.4 -2.1,40 -1.8,29.7 -2.9,50.5 -4,75 -1.2,26.1 -2.9,43.5 -6,58.5 -1.9,9.2 -4.2,22.9 -7,41 -0.6,3.8 -1.8,9.5 -2.7,12.5 -0.9,3 -1.9,7.1 -2.3,9 -1.4,6.5 -9.9,34.7 -13.1,43.1 -1.7,4.6 -4.6,12.4 -6.4,17.4 -4.4,11.7 -8.5,21.4 -12.8,30.6 -2,4.1 -6.1,14.1 -9.2,22.4 -6.7,18 -7.9,20.8 -14.3,35 -2.7,6 -7.3,16.8 -10.2,24 -5.5,13.6 -7.3,16.6 -9,14.9 -0.6,-0.6 -0.4,-3.4 0.6,-7.9 3.5,-16 4.5,-21.7 5.5,-34.5 2.3,-28.4 -1.9,-46.8 -16.6,-73 -5.5,-9.6 -9.2,-14.6 -17.3,-23.4 -5.7,-6.1 -12.9,-14.5 -16,-18.6 -6.3,-8.4 -19.4,-23.9 -29.1,-34.5 -3.5,-3.8 -8.2,-9.4 -10.4,-12.5 -7.8,-10.6 -25.9,-32 -28.9,-34.1 -1.6,-1.2 -9.1,-11.5 -16.5,-22.8 -17,-25.9 -25.4,-38.5 -32.3,-48.4 -3,-4.3 -9.5,-13.6 -14.5,-20.7 -4.9,-7.1 -13.3,-18.8 -18.5,-26 -19.5,-26.9 -22.2,-30.8 -35.8,-50.5 -9.7,-13.9 -12.4,-17.7 -20.1,-28.5 -4.1,-5.8 -9.6,-13.2 -12.1,-16.5 -7.7,-10 -7.6,-9.4 -3,-18.2 4.7,-8.8 21,-38 29.2,-52.3 14.8,-25.7 19,-32.9 28.9,-51 5.9,-10.7 13.2,-23.8 16.2,-29 3,-5.2 7.6,-13.3 10.2,-18 6.3,-11.4 12.2,-21.5 16.8,-28.6 2.1,-3.3 7.9,-12.4 12.8,-20.4 4.9,-8 14.4,-23.1 20.9,-33.5 6.6,-10.5 12.8,-20.4 13.8,-22 2,-3.2 13.7,-21.2 26.4,-40.5 4.1,-6.3 8.1,-12.6 8.8,-13.9 0.7,-1.3 5.8,-9.4 11.4,-18 13,-19.8 21,-32.7 31.8,-51.6 8.6,-15 17.8,-33.3 17.8,-35.3 0,-0.6 1,-1.9 2.3,-2.9 4.8,-3.7 14.8,-15.9 19.6,-23.7 11.1,-18.3 17.1,-33.3 23,-57.6 9.6,-39.7 11.8,-66.5 7.5,-91 -1.7,-9.8 -10.9,-38.2 -13.6,-42.2 -1,-1.4 -1.8,-3.1 -1.8,-3.7 0,-0.5 -3.1,-5.7 -7,-11.4 -11.4,-17.1 -23.5,-28.8 -36.5,-35.5 -8.2,-4.1 -26.1,-9.4 -36.8,-10.8 -9.7,-1.3 -12.1,-1.2 -22.5,0.3 -12.6,1.8 -12.3,1.8 -32.2,1.4 -18.6,-0.4 -23.7,0.7 -28.9,6.3 -1.4,1.4 -4.3,3.1 -6.5,3.7 -10.5,2.7 -31.1,12.4 -43.8,20.6 -25.7,16.5 -40,31.6 -51.1,53.8 -6.2,12.4 -9.8,17.4 -23.7,32.5 -5.3,5.8 -12.1,13.9 -15,18 -3,4.1 -7.9,10.4 -11,14 -5.4,6.1 -16.6,20.8 -23.7,30.9 -15.1,21.3 -22.8,32.6 -26.4,38.6 -2.3,3.8 -5.2,8.6 -6.4,10.5 -8.2,13 -28,50.6 -35.1,66.5 -1,2.2 -2.5,5.1 -3.5,6.5 -0.9,1.4 -5.6,10.1 -10.4,19.5 -4.8,9.3 -9.4,18.1 -10.3,19.4 -3,5 -16.6,28.8 -20.4,36 -2.2,4.1 -8.1,14.6 -13.1,23.5 -5,8.9 -13,23.7 -17.8,33.1 -7.7,15.2 -13.1,25.7 -31.4,61 -6.2,12 -9.3,17.3 -11.6,20 -0.9,1.1 -2.5,3.6 -3.5,5.5 -3.4,6.4 -11.5,18 -13.2,18.9 -1.6,0.8 -15.3,1.3 -88.70005,2.7 -16.4,0.3 -30.2,0.7 -30.5,0.9 -0.4,0.2 -17.4,0.5 -37.9,0.6 -20.5,0.1 -42.5,0.5 -48.9,1 -6.4,0.5 -26.5,1 -44.7,1.3 -18.1,0.2 -69,1 -113,1.6 -101.1,1.5 -125.5,1.7 -270,2.4 -64.9,0.3 -129.9,1 -144.5,1.5 -14.6,0.6 -38.1,1.1 -52.2,1.1 -28.2,0 -43.1,1.1 -52.3,4 -3.3,1 -8,2.1 -10.5,2.4 -2.5,0.3 -10.8,1.8 -18.5,3.2 -7.7,1.4 -18.8,3 -24.699997,3.5 -12,1 -26.8,5.2 -35.8,10.1 -12.6,7 -28.4,21.1 -35.9,32.1 -4.1,6 -11.7,21.9 -13,27.2 -0.5,2.2 -2.3,9.2 -3.9,15.5 -1.7,6.3 -4.3,18.5 -5.8,27 -2.4,13.6 -2.8,18.1 -2.8,36 -0.1,19.3 0.8,29.1 3.4,37.5 0.6,1.6 1.9,5.9 2.9,9.5 5.6,18.8 15.9,37.7 33.6,61.5 7.9,10.6 15.7,18.1 30,29 5.4,4.1 26.1,14.4 39.099997,19.3 9.8,3.8 32.9,9.6 44.4,11.2 4.7,0.6 18.2,1.4 30,1.6 18.3,0.3 23.4,0.1 34,-1.6 22.6,-3.7 33.4,-5 42.6,-5 4.9,0 14.8,-0.4 22,-1 17.9,-1.4 105.6,-3.4 155.4,-3.6 22.8,-0.1 48.9,-0.4 58,-0.8 9.1,-0.3 30.5,-0.8 47.5,-1.1 17.1,-0.3 39.1,-1 49,-1.5 9.9,-0.6 31.1,-1.5 47,-2 16,-0.6 40.7,-1.6 55,-2.2 16.9,-0.8 70.8,-1.3 154.5,-1.3 92.5,-0.1 132.7,-0.4 143.5,-1.3 51.90005,-4.3 72.20005,-5.4 74.30005,-4.1 0.9,0.6 3.3,4.1 5.3,7.7 2.1,3.7 8.4,11.9 14.1,18.2 21.7,24 35.1,44.1 49.2,73.5 16.7,34.8 23.1,46 41.9,72.5 15.5,21.8 38.9,53 45.1,60 2.6,3 5.7,7.4 6.7,9.8 1,2.4 5.4,8.7 9.7,14 4.4,5.3 9.7,12.4 11.9,15.7 3.6,5.4 28,29.7 50.8,50.5 14.2,13 22,22.2 38.3,45.3 4.2,6 6.9,7.7 12,7.7 3.9,0 6.1,0.8 11.9,4.4 10,6.3 16.2,9.3 27.2,13.3 15.2,5.5 53.8,11.2 66,9.8 10.3,-1.2 25.5,-5.6 33.9,-9.7 9.1,-4.4 24,-17 34,-28.6 3,-3.4 6,-6.2 6.8,-6.2 1.9,0 1.8,2.9 -0.4,7 -8.4,15.9 -18.1,31.9 -31.1,51.3 -5.8,8.7 -11.5,17.3 -12.5,19 -7.9,13 -40.3,63.3 -47.7,73.9 -1,1.5 -5.8,8.5 -10.6,15.5 -4.7,7 -10.8,15.9 -13.5,19.8 -2.6,3.8 -8.7,12.6 -13.4,19.5 -4.8,6.9 -11.4,16.5 -14.8,21.5 -3.5,4.9 -9.6,13.6 -13.7,19.3 -4.1,5.7 -8.6,12.1 -10.1,14.4 -3.3,5 -13.2,18.1 -17.3,22.9 -1.6,2 -4.8,6 -7,8.9 -3.5,4.6 -11.8,14.7 -26.8,32.4 -2.3,2.8 -6.4,8 -9.2,11.6 -2.7,3.6 -9.4,11.8 -14.7,18.1 -8.7,10.2 -45.8,54.6 -53.3,63.8 -1.6,2 -5.9,7 -9.5,11.2 -3.6,4.2 -9.9,11.6 -14,16.5 -4.1,4.9 -9.8,11.4 -12.6,14.4 -2.7,3 -5.7,6.7 -6.6,8.1 -0.9,1.4 -6.1,7.8 -11.5,14.2 -14.8,17.4 -42.2,53 -42.3,54.9 0,0.5 2.6,0.8 5.8,0.7 h 5.7 l 4.8,-6.2 c 18.8,-24.2 27.6,-35.3 33.9,-42.7 4,-4.7 11.6,-13.7 16.9,-20 5.3,-6.3 13.5,-16 18.3,-21.5 4.8,-5.5 9.6,-11.1 10.8,-12.5 6.7,-7.9 13.9,-16.6 18.3,-22 2.8,-3.4 6.6,-8.1 8.6,-10.3 4.2,-4.8 15.4,-17.9 25.1,-29.3 7.7,-9 33.8,-40.6 38.3,-46.3 1.7,-2.1 6.6,-8.2 11,-13.5 19.2,-23.3 34.4,-43.3 47.2,-62.3 5.9,-8.7 12.1,-17.6 13.9,-19.8 1.7,-2.2 6.3,-8.7 10.3,-14.5 3.9,-5.8 9.2,-13.4 11.8,-17 2.5,-3.6 8.3,-11.9 12.8,-18.5 4.5,-6.6 11.7,-17.2 16.1,-23.5 7.7,-11.1 9.5,-13.9 17.9,-27 2.2,-3.4 7.4,-11.4 11.6,-17.9 4.2,-6.4 9.6,-15 12.1,-19.1 5.5,-9.2 14.9,-24.1 21,-33.5 5.9,-9.2 10.8,-17.3 12.6,-21 0.8,-1.7 2.1,-3.7 2.8,-4.5 0.7,-0.9 8.6,-15.9 17.5,-33.5 23.4,-46.2 27.3,-54.1 30.7,-62.5 1.6,-4.1 7.1,-16.3 12.2,-27 9,-18.9 19,-42.3 19,-44.2 0,-0.5 2.5,-6.2 5.6,-12.6 3.1,-6.4 6.4,-14.1 7.5,-17.1 1,-3 2.3,-5.9 2.8,-6.5 0.9,-1.1 1.9,-3.6 6.5,-16.6 9.8,-27.3 11.6,-32.7 11.6,-34.3 0,-1.7 3.5,-14.5 7.5,-27.7 1.9,-6.2 4.3,-18.8 5.5,-29.5 1,-8.4 1.7,-12.4 5.4,-30 2.1,-9.9 4.2,-36.1 6.6,-81 0.5,-11 1.5,-27.4 2,-36.5 0.6,-9.1 1.4,-29.1 2,-44.6 0.5,-15.4 1.9,-35.9 2.9,-45.5 1.1,-9.6 2.5,-23.3 3,-30.4 0.6,-7.2 1.5,-14.6 2,-16.5 0.6,-1.9 1.5,-8.2 2.1,-14 0.6,-5.8 1.5,-12.3 2,-14.5 0.4,-2.2 1.3,-9.6 1.9,-16.5 0.6,-6.9 1.5,-17.7 2.1,-24 1.2,-14 2.6,-47.7 2.3,-58 -0.2,-12.5 -2.3,-41.8 -3.8,-54.5 -3.5,-29.3 -8.4,-78.5 -9.5,-96 -0.4,-7.7 -2.2,-23.7 -3.9,-35.5 -4.7,-33.2 -7,-51.9 -8.6,-71 -2.2,-26 -8.2,-54.2 -17.2,-81.5 -2.8,-8.3 -6.5,-19.7 -8.2,-25.5 -3.3,-10.7 -7.8,-24.3 -10.5,-31.6 -0.8,-2.2 -4.2,-10.2 -7.5,-17.7 -3.4,-7.6 -6.1,-14 -6.1,-14.2 0,-0.3 -4.5,-9.6 -9.9,-20.7 -5.4,-11.2 -13.1,-27.3 -17.1,-35.8 -6.3,-13.5 -11.9,-25.1 -15,-30.8 -0.5,-0.9 -5,-10.3 -10,-20.7 -20.1,-41.4 -31.5,-63.5 -38,-73 -1.5,-2.2 -6.7,-11.4 -11.5,-20.4 -4.8,-9 -12,-21.9 -16,-28.7 -7.7,-13 -29.6,-42.8 -38.7,-52.9 -3,-3.3 -10.8,-12.3 -17.3,-20 -6.5,-7.7 -16.8,-19 -22.8,-25 -6.1,-6.1 -14.9,-15.3 -19.6,-20.6 -4.7,-5.3 -14.9,-15.3 -22.6,-22.1 -22.6,-20.1 -43,-40.3 -53.3,-53.1 -13.3,-16.4 -20.7,-26.3 -24.2,-32.4 -7,-12.3 -14.6,-17.3 -22,-14.6 z m 219.5,384.4 c 3.9,1 9.7,2.7 12.9,3.9 7.5,2.5 7.8,2.5 11.4,-0.5 3.6,-3 4.7,-3.1 10.5,-0.5 11.5,5.1 24.8,18.5 35.9,36 5.3,8.5 11.1,20.9 12.9,27.5 0.4,1.6 1.8,6.1 3,10 1.2,3.8 2.9,12.4 3.7,19 1.3,10.1 1.4,14.2 0.4,27.5 -0.7,8.5 -1.9,18.4 -2.7,22 -0.9,3.6 -2,9.4 -2.5,13 -2.2,15.2 -8.7,38.2 -15.1,53.7 -3.8,9 -14.3,27 -19.2,32.8 l -3.4,3.9 -4,-1.3 c -3.7,-1.2 -4.6,-1.1 -10.8,1.4 -5.7,2.2 -7.9,2.6 -14.9,2.4 -8.7,-0.3 -12,0.7 -13.1,4.1 -0.9,2.7 0.9,5.5 4.5,7 4.8,2 16.8,0.8 23.1,-2.3 2.8,-1.4 5.8,-2.3 6.6,-2 1.8,0.7 0.9,6.2 -2.2,12.8 -10.7,23.1 -10.3,22.4 -15,24.6 -2.7,1.3 -4.7,3.1 -5.4,4.7 -0.6,1.5 -3.1,5.8 -5.6,9.7 -2.4,3.8 -5.7,9 -7.1,11.5 -1.4,2.5 -6.3,10.1 -10.9,17 -22.1,33.7 -27.5,41.9 -30.4,47 -1.8,3 -4.6,7.5 -6.4,10 -4.9,6.9 -22.6,34.4 -34.6,53.5 -3.4,5.5 -7.1,11.1 -8,12.5 -7.8,10.8 -49.7,82.4 -63.2,108 -2.2,4.1 -7.2,12.9 -11,19.5 -10.8,18.4 -29.8,51.9 -35,62 -12,23.1 -12.8,24.3 -16,25 -3,0.7 -3.1,0.8 -2.5,4.9 0.4,2.2 1,6.2 1.3,8.8 0.5,4.5 0.8,4.9 4.2,5.8 2.2,0.6 4.5,2.3 5.9,4.3 1.3,1.7 6,8.4 10.5,14.7 8.1,11.2 19.3,27.4 28.8,41.5 2.7,3.8 6.3,9.1 8.1,11.6 1.8,2.5 6.5,9 10.3,14.4 8.8,12.2 8.3,11.4 28,39.5 15.4,21.9 30.2,43.7 43.4,64.1 3.1,4.7 8.8,13.4 12.6,19.3 4,6.2 11.3,15.3 17,21.5 5.5,5.8 13.2,14.7 17.1,19.7 3.9,5 9.3,11.7 12,14.8 4.4,5 5.3,5.6 8.9,5.6 3.8,0 4.1,0.3 5.7,4.3 1,2.3 2.9,7.8 4.2,12.2 1.8,5.6 4,9.9 7.1,13.9 2.5,3.2 4.5,6.2 4.5,6.7 0,0.5 6.5,7.6 14.4,15.9 13.7,14.1 14.7,15.5 19.9,26.2 12.1,24.7 15.1,47.4 10.2,77.3 -1.6,9.6 -2,11.1 -6.1,24.9 -2.7,9.1 -14.3,34.8 -16.2,36 -0.6,0.4 -3.1,3.7 -5.5,7.4 -5.3,7.9 -24.1,26.8 -31.2,31.3 -14.7,9.4 -33.7,14.4 -51.9,13.7 -36.4,-1.5 -70,-13.9 -90.3,-33.2 -7.6,-7.1 -17,-18.6 -23.7,-28.8 -2.4,-3.6 -5.1,-6.3 -7.4,-7.4 -2.1,-0.9 -6.1,-3.8 -9,-6.3 -14.4,-12.5 -27.6,-24.7 -38.2,-35.1 -10.1,-10 -14,-14.9 -22.3,-28 -0.8,-1.4 -7.5,-9.3 -14.7,-17.5 -7.2,-8.3 -19.6,-23.6 -27.4,-34 -34,-45.3 -43.6,-60.4 -61.9,-96.5 -8.2,-16.2 -16.5,-31.9 -18.5,-35 -1.9,-3 -5.5,-8.8 -7.9,-12.9 -5.8,-9.7 -15.3,-21.9 -27.9,-35.6 -16.4,-17.9 -19.5,-23.8 -13.1,-24.7 3.3,-0.5 3.2,-3.5 -0.2,-6.9 -2.9,-2.9 -3.5,-3 -8.9,-2.6 -3.1,0.2 -8.8,0.9 -12.7,1.5 -3.8,0.6 -15.5,1.6 -26,2.3 -10.4,0.6 -25.1,1.6 -32.50005,2.1 -7.7,0.6 -68.7,1.1 -141,1.3 -70.1,0.1 -131.3,0.5 -136,0.9 -4.7,0.3 -31,1.3 -58.5,2.2 -27.5,0.8 -57.9,1.9 -67.5,2.4 -21.7,1.2 -106.6,2.8 -184,3.5 -32.2,0.2 -75.5,0.9 -96.3,1.5 -33.3,0.9 -38.1,0.9 -40.7,-0.5 -2.4,-1.2 -3.8,-1.3 -7.2,-0.5 -2.4,0.6 -7.9,1.4 -12.3,2 -14.3,1.7 -31.9,4.8 -35,6.1 -2.3,1 -10.4,1.3 -33,1.3 -29.7,-0.1 -30.1,-0.1 -45.5,-3.3 -23.3,-4.8 -36,-9.1 -54.499997,-18.4 -14.5,-7.2 -30.1,-20.6 -40.6,-34.7 -17.6,-23.7 -22.7,-33 -30.5,-55.4 -9.1,-26.1 -9.7,-58.5 -1.7,-94.1 7.6,-34.4 13.3,-47.8 27.4,-64.3 11,-13 30.7,-24.2 42.6,-24.2 3.5,0 8.3,-0.5 10.7,-1.2 3.3,-0.9 6.199997,-0.9 10.699997,-0.2 6,1 6.3,1 9,-1.7 2.8,-2.7 7.8,-4 22.9,-5.9 3.6,-0.5 9.7,-1.6 13.5,-2.5 10.2,-2.4 26,-3.4 62,-3.9 17.6,-0.2 47.1,-1 65.5,-1.7 19,-0.7 46.7,-0.9 64,-0.6 16.8,0.3 65.6,0.1 108.5,-0.4 42.9,-0.5 96.5,-1.1 119,-1.3 66.2,-0.8 119.2,-1.6 146.5,-2.2 14,-0.3 46,-0.9 71,-1.4 55.7,-1.2 120.8,-2.6 176,-3.9 63.60005,-1.5 61.70005,-1.6 64.40005,1.4 3,3.2 3.6,3.1 6.7,-0.4 1.5,-1.7 3.9,-3.3 5.5,-3.6 8,-1.7 10,-4.2 6.3,-8.1 -1.7,-1.8 -2.1,-2.9 -1.4,-3.9 12.5,-17.5 20.3,-30.6 29.9,-49.5 3.2,-6.3 6.2,-12 6.6,-12.5 0.4,-0.6 6.9,-12.9 14.3,-27.5 7.4,-14.6 15.1,-29.2 17.1,-32.5 1.9,-3.3 5.1,-9.1 7.1,-12.9 4.8,-9.1 22.5,-40.8 23.5,-42.1 1.4,-1.8 22,-40.4 32.7,-61.5 19.2,-37.4 26.4,-50.7 36.1,-67 6.2,-10.2 23.4,-35.8 29.6,-44.1 2.8,-3.7 7.5,-10 10.3,-14.1 2.9,-4 7.8,-10.5 10.8,-14.3 3,-3.9 8.6,-11.3 12.4,-16.5 6.9,-9.5 21.3,-24.8 28.5,-30.5 2.2,-1.6 4.7,-4.9 5.7,-7.3 1.1,-2.5 3.2,-6.1 4.7,-8.1 3.7,-4.7 8.2,-14.2 8.2,-17.1 0,-5.4 19.7,-25.8 36.1,-37.2 10.4,-7.3 28.5,-17 41.8,-22.5 l 8.5,-3.5 5.2,2.8 5.3,2.9 4.7,-2.3 c 3.1,-1.6 7.9,-2.6 14.8,-3.3 5.5,-0.5 15.7,-1.6 22.6,-2.3 14.1,-1.5 20.4,-1.2 30.5,1.5 z" />
  <path
     style="fill:#000000;stroke:none;stroke-width:0.1"
     inkscape:connector-curvature="0"
     id="path8"
     d="m 1452.6457,500.5421 c -0.7,0.3 -3.9,3.7 -7.2,7.6 -5.3,6.2 -6,7.6 -6,11.3 0,5.6 2.8,8.7 10.5,11.5 10.8,3.9 15.6,2.4 19.7,-5.9 2.8,-5.8 2.9,-12.3 0.1,-16 -4.4,-5.9 -12.9,-10.2 -17.1,-8.5 z" />
  <path
     style="fill:#000000;stroke:none;stroke-width:0.1"
     inkscape:connector-curvature="0"
     id="path10"
     d="m 1294.7457,504.0421 c -3.6,3.9 -4.4,8.1 -3.3,16.4 1.7,12.5 5.3,22.5 8.5,23.7 3.4,1.4 4.7,-0.3 4.1,-5.2 -0.4,-2.5 -0.9,-8.2 -1.2,-12.7 -0.5,-7 -0.3,-8.7 1.5,-12.2 2.6,-5.1 2.7,-9.4 0.3,-11.5 -2.9,-2.6 -6.5,-2.1 -9.9,1.5 z" />
  <path
     style="fill:#000000;stroke:none;stroke-width:0.1"
     inkscape:connector-curvature="0"
     id="path12"
     d="m 1328.6457,580.4421 c -2.6,1.1 -3.3,4.2 -1.9,7.7 1.6,3.8 10.8,9.9 24.9,16.7 7.3,3.5 9,4 10.8,3 3.3,-1.8 2,-4.1 -5,-9.2 -3.6,-2.7 -10,-7.7 -14.3,-11.3 -7.3,-6.2 -11.5,-8.2 -14.5,-6.9 z" />
  <path
     style="fill:#000000;stroke:none;stroke-width:0.1"
     inkscape:connector-curvature="0"
     id="path14"
     d="m 1391.4457,622.8421 c -2.3,2.3 -2.3,2.3 -1,7.2 2.2,7.8 21.1,20.7 35.9,24.4 8.3,2.1 20.3,1.6 22.8,-0.9 1.6,-1.6 1.6,-1.8 -0.4,-3.8 -1.6,-1.6 -4,-2.3 -9.9,-3 -8.4,-0.8 -17.6,-3.6 -22.9,-6.9 -1.8,-1.1 -6.8,-5.8 -11.2,-10.5 -4.4,-4.7 -8.7,-8.5 -9.6,-8.5 -1,0 -2.6,0.9 -3.7,2 z" />
  <path
     style="fill:#000000;stroke:none;stroke-width:0.1"
     inkscape:connector-curvature="0"
     id="path16"
     d="m 1074.7457,924.3421 c -1.2,0.8 -2.5,2.9 -2.8,4.7 -0.6,2.6 -0.3,3.5 1.5,5 1.2,1 3.5,1.8 5,1.8 3,0 25.8,-5.4 26.7,-6.4 1.2,-1.2 -3,-4.4 -7.2,-5.5 -6.6,-1.7 -20.6,-1.4 -23.2,0.4 z" />
  <path
     style="fill:#000000;stroke:none;stroke-width:0.1"
     inkscape:connector-curvature="0"
     id="path18"
     d="m 1143.9457,933.3421 c -1.4,1.3 -2.5,3.1 -2.5,4 0,2.2 3.5,5.3 6.7,6.1 1.6,0.3 5.1,1.4 7.9,2.5 8.5,3.3 10.8,0.5 5.5,-6.8 -2.8,-3.9 -9.9,-8.3 -13.5,-8.3 -0.9,0 -2.8,1.1 -4.1,2.5 z" />
  <path
     style="fill:#000000;stroke:none;stroke-width:0.1"
     inkscape:connector-curvature="0"
     id="path20"
     d="m 1028.3457,936.2421 c -10.9,6.6 -22.1,15.5 -24.3,19.3 -0.7,1.3 1.9,4.3 3.9,4.3 0.7,0 4.4,-2.4 8.1,-5.3 8.4,-6.6 19.1,-13.3 23.3,-14.8 5.4,-1.9 3.2,-6.9 -3.1,-6.9 -1.3,0 -4.8,1.5 -7.9,3.4 z" />
  <path
     style="fill:#000000;stroke:none;stroke-width:0.1"
     inkscape:connector-curvature="0"
     id="path22"
     d="m 216.34565,944.7421 c -2.3,1.9 -2.3,2.1 -0.9,4.8 1.9,3.4 19.9,15 24.7,15.9 2.5,0.5 3.9,0.2 5,-0.9 1.3,-1.3 0.7,-2.1 -5.7,-7.3 -18.9,-15.3 -19.4,-15.6 -23.1,-12.5 z" />
  <path
     style="fill:#000000;stroke:none;stroke-width:0.1"
     inkscape:connector-curvature="0"
     id="path24"
     d="m 1199.6457,959.8421 c -3.2,3 -2.7,5.8 1.6,9.4 2,1.7 7.1,6.6 11.2,10.8 7.3,7.5 10.9,9.4 12.6,6.7 1.2,-2 -7.6,-17.9 -13,-23.5 -5.8,-6 -8.8,-6.8 -12.4,-3.4 z" />
  <path
     style="fill:#000000;stroke:none;stroke-width:0.1"
     inkscape:connector-curvature="0"
     id="path26"
     d="m 275.44565,989.9421 c -1,1.7 -0.2,3.4 5.4,11.9 3.6,5.4 8,11 9.7,12.5 3.7,3 7.3,3 7.7,-0.1 0.4,-2.6 -8.2,-18.6 -12.4,-23.1 -3.8,-4 -8.7,-4.6 -10.4,-1.2 z" />
  <path
     style="fill:#000000;stroke:none;stroke-width:0.1"
     inkscape:connector-curvature="0"
     id="path28"
     d="m 974.94565,990.2421 c -5.3,3.7 -9.8,19.9 -6.9,24.4 1,1.5 2.3,2.2 3.7,2 1.6,-0.2 2.7,-2 4.9,-8.3 1.5,-4.4 3.7,-9.2 4.8,-10.7 2.5,-3.3 2.5,-5.7 0.3,-7.4 -2.3,-1.7 -4.4,-1.7 -6.8,0 z" />
  <path
     style="fill:none;fill-rule:evenodd;stroke:#a7a7a7;stroke-width:5.55000019;stroke-linecap:butt;stroke-linejoin:miter;stroke-miterlimit:4;stroke-dasharray:none;stroke-opacity:1;marker-start:url(#marker7677);marker-end:url(#marker7753)"
     d="m 1251.1809,1070.8801 -135.8098,-0.9755"
     id="path7673"
     inkscape:connector-curvature="0"
     sodipodi:nodetypes="cc" />
  <path
     style="fill:#000000;stroke:none;stroke-width:0.1"
     inkscape:connector-curvature="0"
     id="path30"
     d="m 1248.0457,1026.0421 c -2.3,3.2 -2,4.7 1.7,10.3 1.8,2.8 4.4,7.7 5.7,11 6,15.5 11.4,23.1 14.6,20.4 2.2,-1.8 1.7,-5.5 -2,-13.8 -1.9,-4.2 -4.2,-11 -5.2,-15.1 -1.9,-8.7 -3.7,-12.5 -6.3,-14 -3.2,-1.7 -6.9,-1.2 -8.5,1.2 z" />
  <path
     style="fill:#000000;stroke:none;stroke-width:0.1"
     inkscape:connector-curvature="0"
     id="path34"
     d="m 309.04565,1056.0421 c -2.6,3.6 -1.9,6.7 3.4,15 2.8,4.3 5,8.2 5,8.6 0,0.4 0.5,2.4 1.1,4.5 1.7,6.4 7.9,8.4 9.9,3.2 1.6,-4.1 -5.4,-26.8 -9.8,-31.8 -2.2,-2.5 -7.7,-2.2 -9.6,0.5 z" />
  <path
     style="fill:#000000;stroke:none;stroke-width:0.1"
     inkscape:connector-curvature="0"
     id="path36"
     d="m 1097.6457,1058.5421 c -3.3,3.3 -5.9,12.3 -4.8,16.7 1.5,6 15.7,11.7 21.5,8.6 2.7,-1.4 5.1,-6.7 5.1,-11 0,-7.4 -7.4,-15.7 -14.9,-16.7 -3.5,-0.5 -4.4,-0.2 -6.9,2.4 z" />
  <path
     style="fill:#000000;stroke:none;stroke-width:0.1"
     inkscape:connector-curvature="0"
     id="path38"
     d="m 965.34565,1075.9421 c -1.1,1.1 -1.9,2.8 -1.6,3.7 0.3,1 1.5,4.8 2.6,8.6 2.6,8.8 4.6,11.8 7.4,11.4 1.9,-0.3 2.2,-1 2.5,-5.8 0.2,-3 0.1,-7.9 -0.3,-10.8 -1,-8.2 -6.1,-11.6 -10.6,-7.1 z" />
  <path
     style="fill:#000000;stroke:none;stroke-width:0.1"
     inkscape:connector-curvature="0"
     id="path40"
     d="m 156.74565,1087.2421 c -7.2,3.4 -11.3,9.1 -10.6,14.9 0.8,5.9 3,10.4 6.7,13.2 4.9,3.7 7.9,4 14.9,1.4 8.1,-3 10,-4.2 13.1,-8.8 3.4,-4.9 3.4,-9.9 0.1,-13.9 -2.5,-3 -14.2,-9.2 -17.3,-9.2 -0.9,0 -4,1.1 -6.9,2.4 z" />
  <path
     style="fill:#000000;stroke:none;stroke-width:0.1"
     inkscape:connector-curvature="0"
     id="path42"
     d="m 1262.5457,1094.2421 c -0.6,0.7 -1.8,3.6 -2.6,6.3 -1.2,4.1 -3.5,7.2 -12.5,16.7 -6,6.4 -11,12.4 -11,13.2 0,0.8 1.1,1.9 2.4,2.5 3.5,1.6 6.6,-0.4 18.3,-11.8 7.3,-7.1 11,-11.5 12.8,-15.4 3.1,-6.7 3.1,-8 0.2,-10.7 -2.6,-2.5 -5.9,-2.8 -7.6,-0.8 z" />
  <path
     style="fill:#000000;stroke:none;stroke-width:0.1"
     inkscape:connector-curvature="0"
     id="path44"
     d="m 321.14565,1128.8421 c -1.8,1.5 -2.9,3.6 -3.7,7.8 -0.6,3.1 -1.6,8 -2.1,10.9 -1.5,7.7 0.9,10.9 6.6,8.7 1.9,-0.8 6.3,-10.1 9,-19.3 l 1.9,-6.4 -2.3,-1.8 c -3,-2.5 -6.2,-2.4 -9.4,0.1 z" />
  <path
     style="fill:#000000;stroke:none;stroke-width:0.1"
     inkscape:connector-curvature="0"
     id="path46"
     d="m 994.84565,1139.2421 c -3.5,5.4 -0.2,11.6 11.60005,22 8.4,7.4 11.4,9 14,7.6 1.1,-0.6 2,-1.7 2,-2.4 0,-1.7 -5.3,-9.1 -10.3,-14.3 -2.2,-2.3 -5.2,-6.6 -6.6,-9.5 -2.2,-4.6 -3,-5.3 -5.80005,-5.6 -2.5,-0.3 -3.5,0.2 -4.9,2.2 z" />
  <path
     style="fill:#000000;stroke:none;stroke-width:0.1"
     inkscape:connector-curvature="0"
     id="path50"
     d="m 1207.0457,1158.1421 c -2.3,2.4 -7.4,7 -11.3,10.2 -7.8,6.1 -9,8.8 -4.8,10.7 2.1,0.9 3.4,0.6 8.7,-2 6,-2.9 18.4,-11.5 20,-13.7 1.5,-2.1 0.7,-5.4 -1.8,-7.4 -3.9,-3.1 -6.3,-2.6 -10.8,2.2 z" />
  <path
     style="fill:#000000;stroke:none;stroke-width:0.1"
     inkscape:connector-curvature="0"
     id="path54"
     d="m 301.44565,1186.5421 c -3.2,2.2 -4.7,4.2 -5.5,7.1 -0.3,1.3 -2.4,5.3 -4.6,8.8 -4.8,7.6 -5.1,11.7 -0.6,12.2 3,0.4 4.3,-0.7 13.6,-11.9 2.9,-3.5 6.1,-7.8 6.9,-9.7 1.5,-3 1.5,-3.4 -0.4,-5.2 -2.9,-2.8 -6.5,-3.4 -9.4,-1.3 z" />
  <path
     style="fill:#000000;stroke:none;stroke-width:0.1"
     inkscape:connector-curvature="0"
     id="path56"
     d="m 1155.8457,1193.2421 c -3.5,1.5 -6.4,5.1 -6.4,7.7 0,2.2 4.6,5.9 7.4,5.9 2.7,0 13.2,-6.5 14,-8.7 0.4,-0.8 -0.1,-2.6 -0.9,-3.9 -1.3,-2 -2.4,-2.4 -6.3,-2.4 -2.6,0.1 -6.1,0.7 -7.8,1.4 z" />
  <path
     style="fill:#000000;stroke:none;stroke-width:0.1"
     inkscape:connector-curvature="0"
     id="path58"
     d="m 1043.0457,1194.9421 c -5.1,4 -2.7,7.9 8.7,14.3 6.9,3.9 10.7,4.1 10.7,0.8 0,-3.7 -12.6,-17.2 -16.1,-17.2 -0.4,0 -1.8,0.9 -3.3,2.1 z" />
  <path
     style="fill:#000000;stroke:none;stroke-width:0.1"
     inkscape:connector-curvature="0"
     id="path60"
     d="m 1092.8457,1199.8421 c -2.6,1 -4.6,6.3 -3.8,9.7 0.7,2.5 5,5.3 8.3,5.3 3.2,0 17.3,-4.1 19.8,-5.7 5.1,-3.4 0.9,-7.3 -7.8,-7.3 -3.1,0 -7.6,-0.7 -9.9,-1.5 -2.3,-0.8 -4.3,-1.5 -4.4,-1.4 0,0 -1.1,0.4 -2.2,0.9 z" />
  <path
     style="fill:#000000;stroke:none;stroke-width:0.1"
     inkscape:connector-curvature="0"
     id="path62"
     d="m 1410.7457,1362.7421 c -4.4,2.1 -10.7,4.4 -13.9,5.1 -8.8,1.7 -15.9,5.4 -17.4,9 -2.3,5.6 2.4,12 8.8,12 2.1,0 4.6,-1.5 9,-5.4 3.5,-3.2 10.9,-7.9 18.2,-11.7 12.5,-6.6 15.1,-8.9 12.9,-11.5 -2.2,-2.6 -8.9,-1.7 -17.6,2.5 z" />
  <path
     style="fill:#000000;stroke:none;stroke-width:0.1"
     inkscape:connector-curvature="0"
     id="path64"
     d="m 1452.1457,1367.8421 c -5.9,4.7 -2.1,13.6 6.3,14.7 2.5,0.3 6.6,1.6 9.2,2.9 5.8,2.9 8.4,3 9.8,0.4 2,-3.8 -3.6,-10.8 -13.2,-16.4 -6.5,-3.7 -8.9,-4.1 -12.1,-1.6 z" />
  <path
     style="fill:#000000;stroke:none;stroke-width:0.1"
     inkscape:connector-curvature="0"
     id="path66"
     d="m 1344.8457,1394.7421 c -2.8,1.2 -6.4,5.9 -6.4,8.3 0,2.8 4.5,6.8 7.5,6.8 1.6,0 4.6,-1.6 7.3,-3.8 5.3,-4.2 6.2,-5.2 6.2,-6.9 0,-3.3 -10.1,-6.3 -14.6,-4.4 z" />
  <path
     style="fill:#000000;stroke:none;stroke-width:0.1"
     inkscape:connector-curvature="0"
     id="path68"
     d="m 1315.6457,1435.3421 c -5.2,3.7 -15.2,20.8 -15.2,26.1 0,2.5 4.7,6.4 7.8,6.4 4.3,0 6.9,-3.5 8.2,-11 0.7,-3.8 2.6,-9.1 4.7,-12.9 l 3.6,-6.4 -2.3,-1.9 c -2.7,-2.2 -3.9,-2.3 -6.8,-0.3 z" />
  <path
     style="fill:#000000;stroke:none;stroke-width:0.1"
     inkscape:connector-curvature="0"
     id="path70"
     d="m 1299.1457,1496.5421 c -0.8,2.1 -2,7.9 -2.7,13 -1,7.5 -1,9.8 0,12.3 1.7,4.1 6.4,6.6 9.6,5.1 3.2,-1.4 3.8,-4.9 2,-11.2 -0.9,-2.9 -1.6,-8.7 -1.6,-12.9 0,-4.6 -0.5,-8.1 -1.2,-8.8 -2.3,-2.3 -4.5,-1.3 -6.1,2.5 z" />
  <path
     style="fill:#000000;stroke:none;stroke-width:0.1"
     inkscape:connector-curvature="0"
     id="path72"
     d="m 1422.2457,1496.7421 c -8.2,5.3 -7.9,11.8 1.1,21 9.1,9.1 17.9,11.2 25.2,6 6.7,-4.7 8.2,-13.9 3.5,-20.7 -3.7,-5.4 -9.9,-8.4 -18.5,-8.9 -6,-0.4 -7,-0.2 -11.3,2.6 z" />
  <text
     id="text135"
     y="1115.228"
     x="1167.5294"
     style="font-style:normal;font-weight:normal;font-size:140.17584229px;line-height:87.60990143px;font-family:sans-serif;letter-spacing:0px;word-spacing:0px;fill:#000000;fill-opacity:1;stroke:none;stroke-width:3.50439596px;stroke-linecap:butt;stroke-linejoin:miter;stroke-opacity:1"
     xml:space="preserve"><tspan
       style="stroke-width:3.50439596px"
       y="1115.228"
       x="1167.5294"
       id="tspan133"
       sodipodi:role="line">r</tspan></text>
  <text
     xml:space="preserve"
     style="font-style:normal;font-weight:normal;font-size:140.17584229px;line-height:87.60990143px;font-family:sans-serif;letter-spacing:0px;word-spacing:0px;fill:#000000;fill-opacity:1;stroke:none;stroke-width:3.50439596px;stroke-linecap:butt;stroke-linejoin:miter;stroke-opacity:1"
     x="1496.6223"
     y="536.74438"
     id="text139"><tspan
       sodipodi:role="line"
       id="tspan137"
       x="1496.6223"
       y="536.74438"
       style="stroke-width:3.50439596px">r</tspan></text>
  <text
     id="text143"
     y="1526.5942"
     x="1478.625"
     style="font-style:normal;font-weight:normal;font-size:140.17584229px;line-height:87.60990143px;font-family:sans-serif;letter-spacing:0px;word-spacing:0px;fill:#000000;fill-opacity:1;stroke:none;stroke-width:3.50439596px;stroke-linecap:butt;stroke-linejoin:miter;stroke-opacity:1"
     xml:space="preserve"><tspan
       style="stroke-width:3.50439596px"
       y="1526.5942"
       x="1478.625"
       id="tspan141"
       sodipodi:role="line">r</tspan></text>
  <text
     id="text6341"
     y="1073.8623"
     x="625.49146"
     style="font-style:normal;font-weight:normal;font-size:73.60204315px;line-height:46.00127792px;font-family:sans-serif;letter-spacing:0px;word-spacing:0px;fill:#000000;fill-opacity:1;stroke:none;stroke-width:1.84005105px;stroke-linecap:butt;stroke-linejoin:miter;stroke-opacity:1"
     xml:space="preserve"><tspan
       style="stroke-width:1.84005105px"
       y="1073.8623"
       x="625.49146"
       id="tspan6339"
       sodipodi:role="line">3x</tspan></text>
  <text
     xml:space="preserve"
     style="font-style:normal;font-weight:normal;font-size:73.60204315px;line-height:46.00127792px;font-family:sans-serif;letter-spacing:0px;word-spacing:0px;fill:#000000;fill-opacity:1;stroke:none;stroke-width:1.84005105px;stroke-linecap:butt;stroke-linejoin:miter;stroke-opacity:1"
     x="55.112572"
     y="1487.942"
     id="text6345"
     transform="rotate(-55.022452)"><tspan
       sodipodi:role="line"
       id="tspan6343"
       x="55.112572"
       y="1487.942"
       style="stroke-width:1.84005105px">2x</tspan></text>
  <text
     xml:space="preserve"
     style="font-style:normal;font-weight:normal;font-size:140.17584229px;line-height:87.60990143px;font-family:sans-serif;letter-spacing:0px;word-spacing:0px;fill:#000000;fill-opacity:1;stroke:none;stroke-width:3.50439596px;stroke-linecap:butt;stroke-linejoin:miter;stroke-opacity:1"
     x="56.840797"
     y="1138.3674"
     id="text131"><tspan
       sodipodi:role="line"
       id="tspan129"
       x="56.840797"
       y="1138.3674"
       style="stroke-width:3.50439596px">r</tspan></text>
  <path
     sodipodi:nodetypes="cc"
     inkscape:connector-curvature="0"
     id="path11705"
     d="M 173.10764,1096.3321 1389.2246,149.47281"
     style="fill:none;fill-rule:evenodd;stroke:#a7a7a7;stroke-width:5.55000019;stroke-linecap:butt;stroke-linejoin:miter;stroke-miterlimit:4;stroke-dasharray:none;stroke-opacity:1;marker-start:url(#marker11709);marker-end:url(#marker11821)" />
  <text
     id="text12491"
     y="439.04492"
     x="671.31897"
     style="font-style:normal;font-weight:normal;font-size:140.17584229px;line-height:87.60990143px;font-family:sans-serif;letter-spacing:0px;word-spacing:0px;fill:#000000;fill-opacity:1;stroke:none;stroke-width:3.50439596px;stroke-linecap:butt;stroke-linejoin:miter;stroke-opacity:1"
     xml:space="preserve"><tspan
       style="stroke-width:3.50439596px"
       y="439.04492"
       x="671.31897"
       id="tspan12489"
       sodipodi:role="line">circr</tspan></text>
</svg>
